<svg xmlns="http://www.w3.org/2000/svg" width="49.632" height="65.481" viewBox="0 0 49.632 65.481">
  <path id="路径_5854" data-name="路径 5854" d="M4.455,56.776,9.063,56.5v5.084L4.455,61.7Zm8.192-.485,5.146-.305v5.377l-5.146.133ZM4.455,48.149,9.063,47.6v5.084l-4.607.389Zm8.192-.969,5.146-.607v5.375l-5.146.436ZM4.455,39.523l4.607-.816v5.084l-4.607.66Zm8.192-1.45,5.146-.909V42.54l-5.146.736ZM4.455,30.9l4.607-1.085V34.9l-4.607.931Zm8.192-1.93,5.146-1.213V33.13l-5.146,1.04Zm-8.192-6.7,4.607-1.358V26L4.455,27.2Zm8.192-2.412,5.146-1.514V23.72l-5.146,1.341ZM23.453,0,6.3,10.634v4.208L0,16.987v48.5H23.453ZM40.569,61.585V56.5l4.608.275V61.7Zm-8.73-.224V55.985l5.146.305v5.2Zm8.73-8.674V47.6l4.608.545v4.927Zm-8.73-.739V46.573l5.146.607v5.2Zm8.73-8.158V38.707l4.608.816v4.928Zm-8.73-1.251V37.164l5.146.909v5.2Zm8.73-7.645V29.814L45.177,30.9v4.927Zm-8.73-1.765V27.756l5.146,1.213v5.2ZM40.569,26V20.912l4.608,1.358V27.2Zm-8.73-2.276V18.344l5.146,1.514v5.2ZM26.179,0V65.482H49.632v-48.5l-6.3-2.145V10.634Z" transform="translate(0 -0.001)" fill="#f8b523"/>
</svg>
