<svg xmlns="http://www.w3.org/2000/svg" xmlns:xlink="http://www.w3.org/1999/xlink" width="37.488" height="59.079" viewBox="0 0 37.488 59.079">
  <defs>
    <clipPath id="clip-path">
      <rect id="矩形_1352" data-name="矩形 1352" width="37.488" height="59.079" fill="#f8b523"/>
    </clipPath>
  </defs>
  <g id="组_2729" data-name="组 2729" transform="translate(0 0)">
    <g id="组_2712" data-name="组 2712" transform="translate(0 0)" clip-path="url(#clip-path)">
      <path id="路径_5842" data-name="路径 5842" d="M35.931.2A2.931,2.931,0,0,0,34.871,0a2.836,2.836,0,0,0-1.759.595L18.744,11.626,4.376.595A2.835,2.835,0,0,0,2.617,0a2.932,2.932,0,0,0-1.06.2A2.3,2.3,0,0,0,0,2.294V40.145a2.177,2.177,0,0,0,.859,1.7L16.9,58.485a2.834,2.834,0,0,0,1.758.594c.03,0,.06,0,.09,0s.06,0,.09,0a2.835,2.835,0,0,0,1.759-.594L36.629,41.844a2.177,2.177,0,0,0,.859-1.7V2.294A2.3,2.3,0,0,0,35.931.2M18.213,55.445,3.058,39.718V3.439L18.213,15.074Z" transform="translate(0 0)" fill="#f8b523"/>
    </g>
  </g>
</svg>
