<svg xmlns="http://www.w3.org/2000/svg" xmlns:xlink="http://www.w3.org/1999/xlink" width="39.152" height="58.536" viewBox="0 0 39.152 58.536">
  <defs>
    <clipPath id="clip-path">
      <rect id="矩形_1353" data-name="矩形 1353" width="39.152" height="58.536" fill="#f8b523"/>
    </clipPath>
  </defs>
  <g id="组_2730" data-name="组 2730" transform="translate(0 0)">
    <g id="组_2714" data-name="组 2714" transform="translate(0 0)" clip-path="url(#clip-path)">
      <path id="路径_5843" data-name="路径 5843" d="M6.283,25.76a8.825,8.825,0,0,0-3.232,2.486c-.43.618-.8,1.274-1.2,1.913l-.7,1.726a2.659,2.659,0,0,1-.062.352,25.664,25.664,0,0,0-.751,11.6,56.886,56.886,0,0,0,2.22,9.145A66.953,66.953,0,0,0,6.831,63.234a57.655,57.655,0,0,0,4.61,7.5,27.254,27.254,0,0,0,5.575,5.816,17.347,17.347,0,0,0,7.977,3.728,9.14,9.14,0,0,0,3.916-.557c-.056-.161-.1-.3-.154-.433-.2-.486-.407-.97-.611-1.454L25.05,70.5c-.838-1.988-1.684-3.972-2.5-5.966a.708.708,0,0,0-.667-.511,5.551,5.551,0,0,1-4.523-3c-.638-1.2-1.246-2.423-1.766-3.678-1.315-3.175-2.575-6.372-3.851-9.562a5.786,5.786,0,0,1,.834-6.089.647.647,0,0,0,.113-.534c-.723-1.772-1.472-3.533-2.216-5.3Q8.8,31.908,7.14,27.958c-.3-.718-.567-1.45-.857-2.2" transform="translate(0 -21.785)" fill="#f8b523"/>
      <path id="路径_5844" data-name="路径 5844" d="M64.948,17.584c1.526-.651,3.679-1.554,5.209-2.2a1.786,1.786,0,0,0,1.082-2.613c-1.42-3.381-2.833-6.765-4.267-10.14a6.006,6.006,0,0,0-1.3-2.39L65.077,0a7.9,7.9,0,0,0-1.37.272c-1.169.448-2.934,1.224-4.092,1.7-.707.292-1.421.565-2.077.824L63.97,18.067c.3-.151.633-.335.978-.482" transform="translate(-48.66)" fill="#f8b523"/>
      <path id="路径_5845" data-name="路径 5845" d="M170.17,269.435c1.936-.815,4.5-1.879,6.425-2.718a1.673,1.673,0,0,0,.847-2.253c-.135-.352-.29-.7-.437-1.045q-2.243-5.328-4.489-10.655a1.809,1.809,0,0,0-2.635-1.053c-.932.39-2.495,1.025-3.414,1.444-.941.428-1.861.9-2.774,1.351L170,269.481a1.171,1.171,0,0,0,.169-.047" transform="translate(-138.435 -212.686)" fill="#f8b523"/>
    </g>
  </g>
</svg>
