<svg xmlns="http://www.w3.org/2000/svg" width="70.496" height="48.948" viewBox="0 0 70.496 48.948">
  <g id="グループ_61994" data-name="グループ 61994" transform="translate(-2307.177 -4390.546)">
    <path id="パス_3908" data-name="パス 3908" d="M163.341,225.46a13.708,13.708,0,1,1-13.2-22.947,16.7,16.7,0,0,0,11.834-11.95,13.712,13.712,0,0,1,26.429.021,16.7,16.7,0,0,0,11.817,11.925,13.709,13.709,0,1,1-13.188,22.951,16.751,16.751,0,0,0-23.693,0" transform="translate(2167.239 4210.027)" fill="#f8b500"/>
    <path id="長方形_794" data-name="長方形 794" d="M.884,0H2.337a.887.887,0,0,1,.887.887V4.273a.885.885,0,0,1-.885.885H.887A.887.887,0,0,1,0,4.271V.884A.884.884,0,0,1,.884,0Z" transform="translate(2336.75 4396.285)" fill="#fff"/>
    <path id="パス_3909" data-name="パス 3909" d="M170.526,188.622a1.219,1.219,0,0,1-1.218,1.219h-.788a1.218,1.218,0,0,1-1.218-1.221V185.9a1.218,1.218,0,0,1,1.218-1.219l.788,0a1.217,1.217,0,0,1,1.218,1.219Z" transform="translate(2177.577 4211.601)" fill="#fff"/>
    <path id="パス_3910" data-name="パス 3910" d="M167.662,196.561a8.673,8.673,0,0,0,7.786-4.875.283.283,0,0,0-.138-.367l-1.894-.845a.268.268,0,0,0-.343.165,6.059,6.059,0,0,1-10.821,0,.266.266,0,0,0-.34-.163l-1.9.845a.285.285,0,0,0-.139.367,8.675,8.675,0,0,0,7.786,4.875" transform="translate(2174.763 4213.782)" fill="#fff"/>
  </g>
</svg>
