<svg xmlns="http://www.w3.org/2000/svg" xmlns:xlink="http://www.w3.org/1999/xlink" width="58" height="58" viewBox="0 0 58 58">
  <defs>
    <clipPath id="clip-path">
      <rect id="矩形_1354" data-name="矩形 1354" width="58" height="58" transform="translate(0.012 -0.021)" fill="#f8b523"/>
    </clipPath>
  </defs>
  <g id="组_2731" data-name="组 2731" transform="translate(-0.012 0.021)">
    <g id="组_2716" data-name="组 2716" transform="translate(0 0)" clip-path="url(#clip-path)">
      <path id="路径_5846" data-name="路径 5846" d="M29.272,0A29.272,29.272,0,1,0,58.543,29.272,29.271,29.271,0,0,0,29.272,0m0,53.665A24.393,24.393,0,1,1,53.665,29.272,24.42,24.42,0,0,1,29.272,53.665" transform="translate(0 0.391)" fill="#f8b523"/>
      <path id="路径_5847" data-name="路径 5847" d="M157.894,240.019a3.8,3.8,0,0,0-2.679,6.5,3.705,3.705,0,0,0,2.724,1.124,3.743,3.743,0,0,0,2.735-1.124,3.66,3.66,0,0,0,1.134-2.7,3.6,3.6,0,0,0-1.145-2.69,3.822,3.822,0,0,0-2.768-1.112" transform="translate(-129.033 -200.596)" fill="#f8b523"/>
      <path id="路径_5848" data-name="路径 5848" d="M131.654,74.242a11.339,11.339,0,0,0-5.336-1.156,11,11,0,0,0-7.848,2.795,9.138,9.138,0,0,0-2.935,7.077h5.825a4.1,4.1,0,0,1,1.334-3.109,4.767,4.767,0,0,1,3.357-1.2,4.843,4.843,0,0,1,3.19.988,3.034,3.034,0,0,1,1.189,2.414,3.366,3.366,0,0,1-.489,1.823,18.386,18.386,0,0,1-2.846,2.846,13.388,13.388,0,0,0-3.535,4.567,13.117,13.117,0,0,0-1.089,5.415l.022,1h6.025a15.442,15.442,0,0,1,.422-3.335,6.636,6.636,0,0,1,.823-1.925,18.143,18.143,0,0,1,2.423-2.477,19.86,19.86,0,0,0,2.557-2.624,10.546,10.546,0,0,0,1.334-2.6,8.127,8.127,0,0,0,.422-2.579,8.7,8.7,0,0,0-1.323-4.58,8.877,8.877,0,0,0-3.524-3.335" transform="translate(-96.746 -60.81)" fill="#f8b523"/>
    </g>
  </g>
</svg>
