<svg xmlns="http://www.w3.org/2000/svg" xmlns:xlink="http://www.w3.org/1999/xlink" width="19.036" height="30" viewBox="0 0 19.036 30">
  <defs>
    <clipPath id="clip-path">
      <rect id="矩形_1352" data-name="矩形 1352" width="19.036" height="30" fill="none"/>
    </clipPath>
  </defs>
  <g id="组_2741" data-name="组 2741" transform="translate(0)">
    <g id="组_2712" data-name="组 2712" transform="translate(0 0)" clip-path="url(#clip-path)">
      <path id="路径_5842" data-name="路径 5842" d="M18.245.1a1.488,1.488,0,0,0-.538-.1,1.44,1.44,0,0,0-.893.3l-7.3,5.6L2.222.3A1.44,1.44,0,0,0,1.329,0,1.489,1.489,0,0,0,.791.1,1.169,1.169,0,0,0,0,1.165V20.385a1.105,1.105,0,0,0,.436.863L8.579,29.7a1.439,1.439,0,0,0,.893.3l.046,0,.046,0a1.44,1.44,0,0,0,.893-.3l8.143-8.45a1.106,1.106,0,0,0,.436-.863V1.165A1.169,1.169,0,0,0,18.245.1m-9,28.055-7.7-7.986V1.746l7.7,5.908Z" transform="translate(0 0)" fill="#1a1311"/>
    </g>
  </g>
</svg>
