<svg xmlns="http://www.w3.org/2000/svg" xmlns:xlink="http://www.w3.org/1999/xlink" width="485" height="104.002" viewBox="0 0 485 104.002">
  <defs>
    <clipPath id="clip-path">
      <rect id="長方形_13685" data-name="長方形 13685" width="132.213" height="104.002" fill="none"/>
    </clipPath>
  </defs>
  <g id="グループ_62207" data-name="グループ 62207" transform="translate(1604.5 -9532)">
    <rect id="長方形_13680" data-name="長方形 13680" width="485" height="103.658" transform="translate(-1604.5 9532)" fill="#45b2e6"/>
    <path id="パス_106631" data-name="パス 106631" d="M0,0V103.814L155.987,104,247.179,0Z" transform="translate(-1604.5 9532)" fill="#fff"/>
    <g id="グループ_62134" data-name="グループ 62134" transform="translate(-1425.479 9549.826)">
      <path id="パス_106889" data-name="パス 106889" d="M221.945,71.158v16.68c-2.159.551-4.273,1.057-6.157,1.425l-.185.413,1.885,5.515.413.229c4.5-1.241,11.579-3.446,15.578-4.916.781-.276.965-.6.965-1.425l-.093-4.687c-1.7.551-3.768,1.149-6.019,1.792V71.158l5.559.138.276-.229v-5.1l-.276-.23-5.605.139h-6.342l-5.605-.139-.276.276V71.02l.322.275Zm26.836,4.549a34.517,34.517,0,0,1-3.308,12.131,26.431,26.431,0,0,1-2.206-5.56,46.017,46.017,0,0,1-1.286-6.571Zm-17.369,29.225a.634.634,0,0,0,.414.229,2.349,2.349,0,0,0,.643-.183,37.27,37.27,0,0,0,12.774-6.755,35.623,35.623,0,0,0,9.237,6.48,1.718,1.718,0,0,0,.689.229.657.657,0,0,0,.551-.275l4.457-5.192a35.291,35.291,0,0,1-10.386-6.158c3.585-5.147,5.009-11.4,5.606-17.554l3.814.092.322-.322V70.376l-.322-.321-6.847.138h-8.547a63.5,63.5,0,0,0,2.527-6.387l-.046-.46-5.79-1.976-.46.139c-2.389,7.9-5.422,13.464-10.431,18.657l4.227,3.4a1.041,1.041,0,0,0,.689.321.87.87,0,0,0,.69-.368,25.689,25.689,0,0,0,1.792-2.113,31.959,31.959,0,0,0,4.273,11.855c-3.17,2.711-7.949,4.963-14.383,6.709Z" transform="translate(-215.582 -43.547)" fill="none" stroke="#fff" stroke-linecap="round" stroke-linejoin="round" stroke-width="10"/>
      <path id="パス_106890" data-name="パス 106890" d="M297.026,97.35h-7.537V92.663h7.537ZM269.96,76.441h-1.746V69.5h1.746Zm4.135,0V69.5h1.838v6.939Zm-4.135,13.1h-1.746V81.128h1.746Zm4.135,0V81.128h1.838v8.409Zm6.939-8.041V77.13l1.976,1.792c.275.23.46.368.6.368.183,0,.321-.138.551-.368a25.351,25.351,0,0,0,2.3-2.619,32.875,32.875,0,0,0,2.527,3.538,37.708,37.708,0,0,1-7.9,4.87ZM295.785,71.2a21.542,21.542,0,0,1-2.757,4.5,16.545,16.545,0,0,1-3.033-4.5Zm1.471,16.22h-8.64a34.952,34.952,0,0,0,4.826-3.4,47.115,47.115,0,0,0,5.147,3.355Zm3.492-21.6-3.355.229h-5.147c.414-.918.781-1.884,1.149-2.848l-.23-.46-5.33-1.471-.46.276a35.717,35.717,0,0,1-6.341,12.131V71.663l.138-6.848-.368-.367-5.606.138h-5.927l-5.7-.138-.276.321.139,6.894V82.369l-.23,16.084h5.009v-4h7.719V96.89h5.331l-.138-9.421,1.516,1.792c.322.368.506.6.781.6l.093,2.343v3.262l-.184,9.833h6.158v-2.665h7.537V105.3h6.433l-.183-9.6V92.2l.091-3.631,3.447-4.457a44.934,44.934,0,0,1-9.053-4.456,41.792,41.792,0,0,0,5.836-9.834,2.588,2.588,0,0,0,.275-.964,1.182,1.182,0,0,0-.55-.965Z" transform="translate(-215.715 -43.547)" fill="none" stroke="#fff" stroke-linecap="round" stroke-linejoin="round" stroke-width="10"/>
      <path id="パス_106891" data-name="パス 106891" d="M308.547,102.038l5.284,2.757.46-.23a97.2,97.2,0,0,0,5.192-14.2.852.852,0,0,0-.368-1.1l-4.779-3.033a83.722,83.722,0,0,1-5.974,15.348Zm9.925-23.849-.138-.46a41.467,41.467,0,0,0-6.48-3.767l-.551.138-3.584,4.366.138.367a42.015,42.015,0,0,1,6.434,4.274l.551-.138Zm2.62-11.074-.093-.46a43.8,43.8,0,0,0-7.03-4.044l-.551.092-3.906,4.181.093.368a31.975,31.975,0,0,1,6.571,4.549l.551-.092Zm16.772,3.124V62.013l-.321-.321H331.66l-.321.368v8.179h-3.171l-6.939-.138-.322.322v5.009l.322.321,6.939-.138h3.171v6.019H326.33L318.7,81.5l-.321.321v5.009l.321.322,7.629-.138h2.481c-.643,1.884-1.286,3.722-1.975,5.605-.644,1.7-1.287,3.446-2.068,5.1-2.113.046-4.228.138-6.387.138l-.368.367,1.471,5.652.413.276c7.766-.551,16.727-1.379,24.263-2.343.735,1.24,1.517,2.435,2.206,3.676l.551.046,5.009-3.446.092-.46a91.7,91.7,0,0,0-9.742-11.9l-.552-.093L337.45,92.48l-.046.368c1.1,1.24,2.206,2.573,3.263,4-3.033.183-6.02.414-9.053.551,1.563-3.4,3.032-6.893,4.412-10.385H344.2l7.629.138.321-.322V81.818l-.321-.321-7.629.138h-6.341V75.616h4.044l6.939.138.322-.321V70.423l-.322-.322-6.939.138Z" transform="translate(-215.84 -43.549)" fill="none" stroke="#fff" stroke-linecap="round" stroke-linejoin="round" stroke-width="10"/>
      <path id="パス_106953" data-name="パス 106953" d="M16.3-15.442a.615.615,0,0,0,.4.222,2.263,2.263,0,0,0,.623-.178,36.091,36.091,0,0,0,12.362-6.537,34.464,34.464,0,0,0,8.938,6.27,1.663,1.663,0,0,0,.667.222.634.634,0,0,0,.534-.267l4.313-5.025a34.125,34.125,0,0,1-10.05-5.959c3.469-4.98,4.847-11.028,5.425-16.987l3.691.089.311-.311v-4.98l-.311-.311-6.626.133H28.309a61.554,61.554,0,0,0,2.446-6.181l-.044-.445-5.6-1.912-.445.133C22.35-49.816,19.415-44.435,14.568-39.41l4.091,3.291a1.006,1.006,0,0,0,.667.311.842.842,0,0,0,.667-.356,24.835,24.835,0,0,0,1.734-2.046,30.937,30.937,0,0,0,4.136,11.473c-3.068,2.624-7.693,4.8-13.919,6.492ZM33.111-43.724a33.408,33.408,0,0,1-3.2,11.74,25.606,25.606,0,0,1-2.134-5.381,44.627,44.627,0,0,1-1.245-6.359Zm-25.97-4.4v16.142c-2.09.534-4.136,1.023-5.959,1.379l-.178.4,1.823,5.336.4.222c4.358-1.2,11.206-3.335,15.075-4.758.756-.267.934-.578.934-1.379l-.089-4.536c-1.645.534-3.646,1.112-5.825,1.734V-48.126l5.381.133.267-.222v-4.936l-.267-.222-5.425.133H7.142l-5.425-.133-.267.267v4.847l.311.267Zm76.13-5.158-3.246.222h-4.98c.4-.889.756-1.823,1.112-2.757l-.222-.445-5.158-1.423-.445.267a34.574,34.574,0,0,1-6.137,11.74v-1.957l.133-6.626-.356-.356-5.425.133H52.811L47.3-54.619l-.267.311.133,6.67v10.361l-.222,15.564h4.847v-3.869h7.471v2.357h5.158l-.133-9.116,1.467,1.734c.311.356.489.578.756.578L66.6-27.76V-24.6l-.178,9.516h5.959v-2.579H79.67v2.579H85.9l-.178-9.294v-3.38l.089-3.513,3.335-4.313a43.457,43.457,0,0,1-8.76-4.313,40.439,40.439,0,0,0,5.647-9.516,2.523,2.523,0,0,0,.267-.934,1.143,1.143,0,0,0-.534-.934Zm-3.38,20.9h-8.36A33.99,33.99,0,0,0,76.2-35.675a45.516,45.516,0,0,0,4.98,3.246Zm-1.423-15.7A20.825,20.825,0,0,1,75.8-43.724a15.984,15.984,0,0,1-2.935-4.358ZM64.195-38.121v-4.225l1.912,1.734c.267.222.445.356.578.356.178,0,.311-.133.534-.356a24.5,24.5,0,0,0,2.223-2.535,31.748,31.748,0,0,0,2.446,3.424,36.5,36.5,0,0,1-7.649,4.714ZM57.48-30.339v-8.138h1.779v8.138Zm-4,0h-1.69v-8.138h1.69Zm4-12.674v-6.715h1.779v6.715Zm-4,0h-1.69v-6.715h1.69ZM79.67-22.779H72.377v-4.536H79.67Zm39.4-26.236v-7.96l-.311-.311h-5.692l-.311.356v7.915h-3.068l-6.715-.133-.311.311v4.847l.311.311,6.715-.133h3.068v5.825h-4.847l-7.382-.133-.311.311v4.847l.311.311,7.382-.133h2.4c-.623,1.823-1.245,3.6-1.912,5.425-.623,1.645-1.245,3.335-2,4.936-2.046.044-4.091.133-6.181.133l-.356.356,1.423,5.47.4.267c7.515-.534,16.187-1.334,23.479-2.268.711,1.2,1.467,2.357,2.134,3.557l.534.044,4.847-3.335.089-.445a88.806,88.806,0,0,0-9.427-11.517l-.534-.089-4.136,2.757-.044.356c1.067,1.2,2.135,2.49,3.157,3.869-2.935.178-5.825.4-8.76.534,1.512-3.291,2.935-6.67,4.269-10.05h7.915l7.382.133.311-.311V-37.81l-.311-.311-7.382.133h-6.137v-5.825h3.913l6.715.133.311-.311v-4.847l-.311-.311-6.715.133ZM102.838-52.04l-.089-.445a42.434,42.434,0,0,0-6.8-3.913l-.534.089-3.78,4.047.089.356a30.9,30.9,0,0,1,6.359,4.4l.534-.089ZM100.3-41.323l-.133-.445a40.1,40.1,0,0,0-6.27-3.646l-.534.133L89.9-41.056l.133.356a40.6,40.6,0,0,1,6.226,4.136l.534-.133ZM90.7-18.243l5.114,2.668.445-.222a94.015,94.015,0,0,0,5.025-13.741.824.824,0,0,0-.356-1.067L96.3-33.541A81.015,81.015,0,0,1,90.52-18.688Z" transform="translate(-1.005 74.967)"/>
      <ellipse id="楕円形_434" data-name="楕円形 434" cx="2.242" cy="2.242" rx="2.242" ry="2.242" transform="translate(18.699 6.024)" fill="none" stroke="#fff" stroke-width="10"/>
      <path id="パス_106946" data-name="パス 106946" d="M238.816,38.242A2.242,2.242,0,1,1,236.575,36a2.242,2.242,0,0,1,2.242,2.242" transform="translate(-215.635 -28.247)"/>
      <path id="パス_106947" data-name="パス 106947" d="M283.773,38.242A2.242,2.242,0,1,1,281.532,36a2.242,2.242,0,0,1,2.242,2.242" transform="translate(-215.761 -28.247)"/>
      <path id="パス_106948" data-name="パス 106948" d="M329.854,38.242A2.242,2.242,0,1,1,327.613,36a2.242,2.242,0,0,1,2.242,2.242" transform="translate(-215.889 -28.247)"/>
    </g>
    <g id="マスクグループ_7" data-name="マスクグループ 7" transform="translate(-1275.391 9532)" clip-path="url(#clip-path)">
      <g id="グループ_62132" data-name="グループ 62132" transform="translate(-0.088 5.287)">
        <path id="パス_106700" data-name="パス 106700" d="M400.5,68.823a12.035,12.035,0,0,0,2.005-4.809c.2-2.058-.229-15.878-.229-15.878-.16-1.883-2.063-1.649-2.178-.119-.055.725-.441,8.587-.441,8.587l-.3.066c-.567-.455-1.328-1.077-2.042-.694a2.046,2.046,0,0,0-.757.694,2.123,2.123,0,0,0-1.991-.052,1.937,1.937,0,0,0-.575.592,1.247,1.247,0,0,0-.266,1.189l-.285-.1a1.714,1.714,0,0,0-1.6,1.93,3.331,3.331,0,0,0,.421.814,4.839,4.839,0,0,0-.137,1.03,18.253,18.253,0,0,0,1.127,6.251,9.027,9.027,0,0,0,1.065,1.535s-.022.051-.057.138l5.393.75a10.833,10.833,0,0,1,.844-1.927" transform="translate(-384.902 -21.385)" fill="#fdeee0"/>
        <path id="パス_106701" data-name="パス 106701" d="M435.554,119.934s7.439-12.573,12.063-22.083a78.819,78.819,0,0,1-10.492-1.146c-1.072,9.658-1.57,23.229-1.57,23.229" transform="translate(-399.819 -38.408)" fill="#fff"/>
        <path id="パス_106702" data-name="パス 106702" d="M452.038,125.04a24.512,24.512,0,0,0,.05-2.787l-.038-.047a107.679,107.679,0,0,0-2.726-22.062c-.679-3.148-1.778-5.534-3.451-6.7-2.03-1.414-8.565-6.293-8.565-6.293l-4.293-3.543-.009-.007c-.244,1.792-1.666,5.174-3.559,9.068-4.624,9.509-12.063,22.083-12.063,22.083s.5-13.571,1.571-23.229a56.821,56.821,0,0,1,1.191-7.433c.1-.359.193-.68.294-.951l-3.962,2.527s-7.322,1.643-9.71,3.226c-2.47,1.638-10.033,8.754-10.033,8.754l1.036-14.863-1.371-.191-5.393-.75-2.346-.326s-6.678,23.395-6.368,27.458c.249,3.271,1.627,6.314,4.78,6.53,6.716.46,16.471-3.642,16.471-3.642l1.222,17.168-.679,6.859h34.367a24.8,24.8,0,0,1-.536-4.72c.025-.805.146-2.087.291-3.4a11.857,11.857,0,0,0,1.871,3.607c1.67,1.806,5.35,2.242,7.867,1.458,2.606-.813,3.608-3.895,3.97-6.642l.087.022q.02-.589.032-1.171" transform="translate(-381.649 -33.227)" fill="#71b9d1"/>
        <path id="パス_106703" data-name="パス 106703" d="M455.01,57.326a3.39,3.39,0,0,0-.693.308c.183-.356.368-.718.553-1.079a4.266,4.266,0,0,1-1.491-1.63,35.593,35.593,0,0,1-1.649-4.565,30.184,30.184,0,0,1-1.653-6.063,20.818,20.818,0,0,1-6.886,2.445,49.429,49.429,0,0,1-8.122.17c-.2-.006-3.3-.069-3.952-.529-.208.768-.45,1.687-.7,2.685-.812,3.274-1.685,7.4-1.63,9.812.087,3.822,3.545,8.213,6.473,9.338a14.13,14.13,0,0,0,1.836.567,7.212,7.212,0,0,1-.7,2.3,1.551,1.551,0,0,1-.395.308,56.849,56.849,0,0,0-1.191,7.433,78.809,78.809,0,0,0,10.493,1.146c1.893-3.894,3.316-7.276,3.56-9.068l.008.007c-.018-1.452.143-3.594.324-5.5.513-.442,1.026-.926,1.539-1.465a2.816,2.816,0,0,0,2.608.372,7.706,7.706,0,0,0,1.867-.7,4.661,4.661,0,0,0,2.57-4.145c0-.072,0-.145-.009-.218a2.039,2.039,0,0,0-2.766-1.927" transform="translate(-397.51 -20.532)" fill="#fdeee0"/>
        <path id="パス_106704" data-name="パス 106704" d="M457.657,74.121a21.5,21.5,0,0,1-1.794,1.684,8.807,8.807,0,0,1,.091,1.848c-.208,3.565-2.546,6.267-4.674,8.906a9.406,9.406,0,0,0-2.136,4.06,4.8,4.8,0,0,0,1.57,4.449,11.439,11.439,0,0,1,2.121-4.626c1.615-1.75,4.208-2.048,5.974-3.588a9.574,9.574,0,0,0,3.331-6.678,8.722,8.722,0,0,0-1.877-5.683,2.818,2.818,0,0,1-2.608-.372" transform="translate(-404.428 -30.705)" fill="#666"/>
        <path id="パス_106705" data-name="パス 106705" d="M455.993,31.327c-10.483-8.75-26.685.243-24.807,12.123.248-1,.489-1.917.7-2.685.656.461,3.753.523,3.953.53a49.5,49.5,0,0,0,8.121-.171,20.827,20.827,0,0,0,6.886-2.445,30.118,30.118,0,0,0,1.653,6.063,35.621,35.621,0,0,0,1.649,4.565,4.262,4.262,0,0,0,1.492,1.63l-.553,1.079a3.409,3.409,0,0,1,.693-.308,2.04,2.04,0,0,1,2.767,1.928c.005.072.006.145.008.217a16.546,16.546,0,0,0,4.3-9.928c.387-5.155-1.689-10.746-6.857-12.6" transform="translate(-398.278 -14.913)" fill="#666"/>
        <path id="パス_106706" data-name="パス 106706" d="M443.982,70.284c-3.591,4.308-6.219,3.351-6.2-2.258Z" transform="translate(-400.579 -28.626)" fill="#fff"/>
        <path id="パス_106707" data-name="パス 106707" d="M465.692,99.978s2.161-9.387,1.99-10.807a6.066,6.066,0,0,0-1.208-2.779,7.377,7.377,0,0,0-3.942-1.779c-.583.072-1.335.921-1.335.921a2.518,2.518,0,0,0-.285.471c-.038,0-.076,0-.111,0-.569.024-.936,1.14-1.043,1.82l-.014,0a6.535,6.535,0,0,0-.922,2.275.911.911,0,0,0,.13.361c-.149.383-.262.7-.32.9,0,0-.036.139-.083.339a2.419,2.419,0,0,0-.257,1.954,1.875,1.875,0,0,0,1.251.713c.07.256-1.484,4.286.516,6.579l.281.846,5.438-1.457Z" transform="translate(-407.531 -34.281)" fill="#fdeee0"/>
        <path id="パス_106708" data-name="パス 106708" d="M452.345,106.4a24.884,24.884,0,0,0,.049-2.827.62.62,0,0,0-.038-.183,107.893,107.893,0,0,0-2.738-22.034c-.77-3.566-1.983-5.885-3.71-7.088-.82-.571-2.4-1.724-3.975-2.887a9.672,9.672,0,0,0,.17-2,6.654,6.654,0,0,0-1.361-3.12,5.194,5.194,0,0,0-1.218-.905,8.539,8.539,0,0,0,.145-1.3,9.621,9.621,0,0,0-1.456-5.352,8.016,8.016,0,0,0,1.117-.5,5.327,5.327,0,0,0,2.9-4.452,17.1,17.1,0,0,0,4.3-10.13c.357-4.749-1.31-11.037-7.17-13.2-6.52-5.372-14.619-4.075-19.771-.389-3.7,2.648-6.9,7.313-6.013,13.063a45.78,45.78,0,0,0-1.61,9.835c.094,4.133,3.776,8.725,6.88,9.917.419.161.863.308,1.325.439q-.068.313-.134.569a.63.63,0,0,0-.266.088L415.9,66.417c-.963.22-7.49,1.752-9.812,3.292a116.388,116.388,0,0,0-8.936,7.717l.925-13.253a.637.637,0,0,0-.547-.674l-.583-.081a9.1,9.1,0,0,1,.52-1.089q.131-.228.265-.457a11.211,11.211,0,0,0,1.822-4.608c.2-2.074-.209-15.393-.226-15.959l0-.034c-.113-1.328-.942-1.921-1.715-1.921H397.6a1.81,1.81,0,0,0-1.724,1.809c-.043.584-.294,5.592-.4,7.691a1.951,1.951,0,0,0-2.05-.245,2.811,2.811,0,0,0-.651.479,2.7,2.7,0,0,0-2.114.172,2.539,2.539,0,0,0-.778.779,2.4,2.4,0,0,0-.392.833,2.391,2.391,0,0,0-1.035.523,2.286,2.286,0,0,0-.83,2.13,2.564,2.564,0,0,0,.376.832,5.353,5.353,0,0,0-.1.9,18.954,18.954,0,0,0,1.182,6.521,4.309,4.309,0,0,0,.341.6l-1.009-.14a.635.635,0,0,0-.7.455c-.274.959-6.706,23.551-6.391,27.681.324,4.248,2.332,6.908,5.371,7.116,5.723.392,13.427-2.381,15.942-3.362l1.156,16.244-.673,6.8a.636.636,0,0,0,1.266.126l.679-6.859a.655.655,0,0,0,0-.108L403.854,93.2a54.988,54.988,0,0,1,2.507-14.053.636.636,0,0,0-1.2-.416A56.894,56.894,0,0,0,402.6,92.774c-1.83.727-10.038,3.837-15.807,3.442-3.39-.233-4.06-4.235-4.189-5.944-.233-3.057,3.864-18.5,6.194-26.7l7.974,1.109-1,14.271a.615.615,0,0,0,.013.156l0,.014-.625,4.585a.636.636,0,0,0,.544.716.659.659,0,0,0,.087.006.636.636,0,0,0,.629-.55l.624-4.585c0-.007,0-.014,0-.022,1.21-1.132,7.572-7.056,9.749-8.5,1.56-1.034,5.453-2.126,7.742-2.709l-.981,1a.637.637,0,0,0,.094.969l1.591,1.094-2.418,1.8a.634.634,0,0,0-.254.47,93.51,93.51,0,0,0,1.5,22.485.637.637,0,0,0,.621.5.621.621,0,0,0,.134-.014.636.636,0,0,0,.489-.755,92.185,92.185,0,0,1-1.492-21.845l2.893-2.155a.636.636,0,0,0-.019-1.034l-1.7-1.168,2.205-2.247a.679.679,0,0,0,.09-.12l1.759-1.122c-1.784,7.79-2.588,29.175-2.624,30.156a.636.636,0,0,0,1.183.347c.351-.593,5.276-8.937,9.526-17.065l.049.048a.637.637,0,0,0,.615.139c.354-.107.424-.391.5-.691a9.846,9.846,0,0,1,1.9-4.112,5.37,5.37,0,0,1,1.172-.935,1.482,1.482,0,0,0,.167.457,2.148,2.148,0,0,0,1.059.837c-.31,1.288-1,4.381.689,6.445l.03.09-1.427.382a.725.725,0,0,0-.1.008.659.659,0,0,0-.517.855c.026.142.08.457.142.812l.069.4c-5.814,6.424-12.235,12.095-12.324,12.173a.636.636,0,0,0,.84.955c.086-.076,6.074-5.364,11.761-11.546,1.5,8.482,3.462,18.009,5.483,23.5-.14,1.281-.255,2.524-.28,3.323a24.87,24.87,0,0,0,.547,4.856.636.636,0,0,0,.624.52.649.649,0,0,0,.117-.011.635.635,0,0,0,.509-.741,23.768,23.768,0,0,1-.526-4.583c.008-.26.027-.573.053-.921a7.052,7.052,0,0,0,1.007,1.538A7.92,7.92,0,0,0,445,115.183a9.644,9.644,0,0,0,2.812-.4c2.816-.878,3.936-4.006,4.361-6.828a.633.633,0,0,0,.142-.378q.02-.592.032-1.177M390.932,50.763a1.456,1.456,0,0,1,.372-.406,1.381,1.381,0,0,1,.833-.119,2.418,2.418,0,0,0-.036.948l.4,2.013a1.9,1.9,0,0,0,.412,2.346l.148.128a.391.391,0,0,1-.2.071h0a5.81,5.81,0,0,1-.733-1.207c-.074-.147-.139-.275-.19-.367a11.565,11.565,0,0,1-.7-1.617l-.063-.165c-.084-.222-.172-.41-.249-.575-.252-.54-.291-.623.007-1.05M389.1,52.55a1.309,1.309,0,0,1,.572-.418c.032.074.067.146.1.217.071.153.145.31.211.488l.062.164a12.928,12.928,0,0,0,.782,1.79c.045.08.1.192.165.319.094.185.184.358.274.524a.642.642,0,0,1-.32.311.336.336,0,0,1-.408-.113,17.435,17.435,0,0,1-1.655-2.535.959.959,0,0,1,.215-.749m1.154,8.709a17.714,17.714,0,0,1-1.056-5.12l.3.431a1.613,1.613,0,0,0,1.314.674,1.592,1.592,0,0,0,.64-.134,1.859,1.859,0,0,0,.579-.4,1.221,1.221,0,0,0,.39.235,1.246,1.246,0,0,0,.41.065,1.709,1.709,0,0,0,.838-.231,1.964,1.964,0,0,0,.353-.262l.331.288a3.937,3.937,0,0,0-.473,2.986.635.635,0,0,0,.6.416.626.626,0,0,0,.219-.04.635.635,0,0,0,.378-.816c-.229-.625.2-1.515.606-2.376l.028-.061a.634.634,0,0,0-.157-.753l-1.813-1.577a.622.622,0,0,1-.132-.776.052.052,0,0,1,.068-.022l.475.218a28.034,28.034,0,0,1,2.9,1.45.636.636,0,0,0,.729-1.042,14.305,14.305,0,0,0-1.753-.937l.012-1.5a.636.636,0,1,0-1.271-.01l-.008.92-.084-.039-.471-.216a1.329,1.329,0,0,0-.554-.119l-.306-1.553a1.177,1.177,0,0,1,.684-1.235c.308-.167.8.2,1.325.616.1.079.192.154.279.219a.852.852,0,0,0,1.068-.736c0-.079.388-7.861.441-8.571.031-.413.256-.631.462-.632h0c.23,0,.4.291.446.742.018.575.42,13.818.231,15.778a10.093,10.093,0,0,1-1.654,4.09c-.09.154-.181.308-.269.463a10.929,10.929,0,0,0-.718,1.543l-4.442-.617a7.95,7.95,0,0,1-.951-1.361m22.98-8.352c-.065-2.854,1.231-8.27,2.122-11.63a31.143,31.143,0,0,0,5.944.53c4.556,0,10.122-.851,14.251-3.69a.636.636,0,0,0-.721-1.048c-4.169,2.867-9.675,3.517-13.906,3.451a19.247,19.247,0,0,0,7.245-3.664.636.636,0,1,0-.806-.982,19.831,19.831,0,0,1-11.5,4.2l-.011,0c-.335-.06-.617-.119-.833-.172a.631.631,0,0,0-.237-.013,13.03,13.03,0,0,1,5.542-8.816c4.776-3.416,12.288-4.618,18.3.4a.625.625,0,0,0,.193.11c5.273,1.89,6.763,7.619,6.438,11.951a15.857,15.857,0,0,1-3.328,8.594,2.623,2.623,0,0,0-.87-1.064,2.419,2.419,0,0,0-.559-.289.637.637,0,0,0-.649-.839c-1.413.1-2.344-.884-3.026-3.2-.475-1.618-1.754-6.564-1.767-6.614a.636.636,0,0,0-1.231.318c.053.2,1.3,5.016,1.778,6.654a6.277,6.277,0,0,0,2.286,3.642l-.333.649a.636.636,0,0,0,.876.845,2.714,2.714,0,0,1,.557-.252,1.551,1.551,0,0,1,1.342.132,1.622,1.622,0,0,1,.617,1.233,4.006,4.006,0,0,1-2.234,3.757c-1.122.617-3.04,1.112-3.721.438a.635.635,0,0,0-.908.013c-5.646,5.929-11.159,5.511-14.789,4.116-2.68-1.03-5.983-5.167-6.065-8.76m10.661,10.919a13.831,13.831,0,0,0,8.327-2.924c0,.188,0,.38-.011.582-.184,3.171-2.221,5.686-4.191,8.12l-.343.424a11.909,11.909,0,0,0-1.919,3.13q-3.249-.277-6.436-.814a55.028,55.028,0,0,1,1.05-6.524,1.663,1.663,0,0,0,.34-.3,5.9,5.9,0,0,0,.677-1.937,13.286,13.286,0,0,0,2.5.244m-4.711,9.782q3.08.52,6.223.794a5.349,5.349,0,0,0,.83,3.908c-3.08,5.909-6.592,12.064-8.439,15.254.194-4.259.65-13.015,1.385-19.956m10.076.271a9.8,9.8,0,0,0-1.955,3.747,4.032,4.032,0,0,1-.643-3.024,8.938,8.938,0,0,1,2.006-3.777l.341-.422c2.1-2.59,4.264-5.267,4.472-8.846a9.328,9.328,0,0,0-.049-1.626c.4-.344.795-.709,1.193-1.109a3.638,3.638,0,0,0,2.271.239,8.166,8.166,0,0,1,1.5,4.963,6.934,6.934,0,0,1-.069.739,4.714,4.714,0,0,0-2.087-.489,3.477,3.477,0,0,0-1.733,1.13h0a2.224,2.224,0,0,0-.2.3c-.878.241-1.234,1.5-1.359,2.142a6.331,6.331,0,0,0-.977,2.554,1.434,1.434,0,0,0,.167.574c-.013.021-.029.04-.042.062a8.03,8.03,0,0,0-.552,1.227,7.675,7.675,0,0,0-2.288,1.62m5.191,7.15a.641.641,0,0,0-.125-.218c-1.414-1.621-.73-4.451-.473-5.516.025-.1.046-.191.064-.269a2.1,2.1,0,0,0,.389-.613.627.627,0,0,0,.285.072.636.636,0,0,0,.314-1.189l-.83-.471a.634.634,0,0,0-.857.878c-.034.087-.068.171-.1.241a1.006,1.006,0,0,1-.493-.331c-.1-.171-.029-.837.591-1.969a.284.284,0,0,1,.352-.144,20.849,20.849,0,0,1,2.409,1.066.636.636,0,1,0,.6-1.121A21.812,21.812,0,0,0,434,70.3a1.536,1.536,0,0,0-.736-.072,5.788,5.788,0,0,1,.577-1.379,27.657,27.657,0,0,1,3.37,1.633.636.636,0,1,0,.608-1.117,28.34,28.34,0,0,0-3.515-1.7,1.916,1.916,0,0,1,.361-.74,10.093,10.093,0,0,1,3.768,1.66.636.636,0,1,0,.671-1.08,16.59,16.59,0,0,0-3.263-1.625,1.519,1.519,0,0,1,.561-.348,7.211,7.211,0,0,1,3.384,1.565,5.482,5.482,0,0,1,1.058,2.437c.115.953-1.153,7-1.979,10.588,0,.007,0,.015,0,.022l-4.316,1.156Zm12.98,32.542c-2.258.706-5.695.358-7.211-1.282-1.195-1.293-3.766-6.755-7.561-28.813l-.057-.334L440,81.16c.926,2.093,4.581,10.434,7.257,17.738a.636.636,0,0,0,1.194-.437c-2.43-6.636-5.661-14.115-6.947-17.043.179-.206.368-.409.569-.607A10.966,10.966,0,0,1,445.36,78.6a.636.636,0,1,0-.513-1.164,12.258,12.258,0,0,0-3.662,2.469c-.083.082-.158.166-.237.249l0-.008a.635.635,0,0,0-.7-.362c.338-1.489,1.014-4.54,1.454-6.994,1.4,1.034,2.744,2.01,3.482,2.524,1.43,1,2.5,3.12,3.193,6.312a105,105,0,0,1,2.714,23.706c.013.016.023.035.036.052-.1,2.7-.714,7.258-3.693,8.187" transform="translate(-381.32 -14.574)" fill="#2c2321"/>
        <path id="パス_106709" data-name="パス 106709" d="M437.08,54.979a1.257,1.257,0,1,0-.751-1.611,1.256,1.256,0,0,0,.751,1.611" transform="translate(-400.057 -23.344)" fill="#2c2321"/>
        <path id="パス_106710" data-name="パス 106710" d="M453.231,60.864a1.257,1.257,0,1,0-.751-1.611,1.256,1.256,0,0,0,.751,1.611" transform="translate(-405.566 -25.351)" fill="#2c2321"/>
        <path id="パス_106711" data-name="パス 106711" d="M441.47,65.7c.4.13.907.177,1.009-.119a.944.944,0,0,0-.621-.935l-.006,0a.947.947,0,0,0-1.077.316c-.111.293.3.58.7.739" transform="translate(-401.593 -27.455)" fill="#2c2321"/>
        <path id="パス_106712" data-name="パス 106712" d="M455.947,54.107a3.054,3.054,0,0,1,1.995,1.467.636.636,0,1,0,1.085-.664,4.31,4.31,0,0,0-2.833-2.051.636.636,0,1,0-.246,1.247" transform="translate(-406.599 -23.449)" fill="#2c2321"/>
        <path id="パス_106713" data-name="パス 106713" d="M444.141,70.361a.635.635,0,0,0-.271-1l-6.2-2.258a.636.636,0,0,0-.853.6c-.015,3.846,1.168,5.085,2.163,5.447a2.261,2.261,0,0,0,.783.136c1.02,0,2.47-.629,4.376-2.916m-4.724,1.585c-.725-.264-1.194-1.486-1.3-3.333l4.443,1.618c-1.27,1.345-2.415,1.98-3.141,1.714" transform="translate(-400.25 -28.296)" fill="#2c2321"/>
        <path id="パス_106714" data-name="パス 106714" d="M527.136,100.548l.623.93,5.133-1.3c-.828-7.831-2.115-17.2-3.807-21.5l-.546-1.036-.077.157-1.825,3.679-13.075-5.731-.255-.112-.54,1.5.158-.219c2.686,3.782,8.951,14.76,14.211,23.633" transform="translate(-426.156 -31.221)" fill="#fff"/>
        <path id="パス_106715" data-name="パス 106715" d="M545.585,109.513c-.385-.5-4.729-12.669-4.935-13.247l-.005-.013,0-.011h0a60.87,60.87,0,0,0-4.328-9.855c-1.5-2.525-11.421-5.271-11.421-5.271l-3.269-1.54-.5-.237a57.421,57.421,0,0,1,2.435,10.736H512.982l0,.606c-3.321-5.655-6.359-10.761-8.022-13.1l-.158.219-1.772,2.455-4.55,3.565a40.151,40.151,0,0,0-5.24,3.017c-6,4.442-3.533,15.188-1.985,21.319,2.8,11.1,5.535,14.78,6.076,21.21.159,1.888.105,5.351-.037,9.136h39.4l-.222-10.527a23.128,23.128,0,0,0,4.1.466c5.94.039,8.313-6.513,8.355-9.3a17.294,17.294,0,0,0-3.349-9.623" transform="translate(-418.191 -31.884)" fill="#bdccd4"/>
        <path id="パス_106716" data-name="パス 106716" d="M536.529,93.294h-10.35v2.143h10.35Z" transform="translate(-430.73 -37.244)" fill="#fff"/>
        <path id="パス_106717" data-name="パス 106717" d="M502.445,45.893a3.4,3.4,0,0,1,.707.275c-.4-.7-.745-1.332-1.037-1.894a2.434,2.434,0,0,0,.306-.31c1.3-1.578.312-4.165.621-6.261a11.667,11.667,0,0,1,2.281-4.668.28.28,0,0,0,.072.063c.54.268,1.643-1.836,3.584-2.706,3.533-1.585,7.458.437,10.433,2.17,1.225.714,4.968,2.781,6.506,1.779.012-.008.021-.018.032-.026.035.108.071.225.107.337l.036-.082c1.572-11.66-17.476-18.658-25.2-8.918-6.71,1.879-8.854,13.769-1.086,22.976a4.234,4.234,0,0,1-.036-.68,2.04,2.04,0,0,1,2.673-2.056" transform="translate(-420.046 -12.601)" fill="#666"/>
        <path id="パス_106718" data-name="パス 106718" d="M528.6,39.194c-.036-.113-.072-.229-.106-.337a.389.389,0,0,1-.032.026c-1.538,1-5.281-1.065-6.506-1.779-2.974-1.733-6.9-3.754-10.433-2.17-1.94.87-3.044,2.974-3.584,2.706a.28.28,0,0,1-.072-.063,11.67,11.67,0,0,0-2.281,4.668c-.308,2.1.676,4.683-.621,6.26a2.4,2.4,0,0,1-.306.31c.292.561.635,1.192,1.037,1.894a3.367,3.367,0,0,0-.707-.275,2.04,2.04,0,0,0-2.673,2.056,4.146,4.146,0,0,0,.036.679,4.741,4.741,0,0,0,2.728,3.557c1.075.526,3.472,1.223,4.486.121.035.034.07.064.1.1A19.62,19.62,0,0,1,510,61.667L523.073,67.4l1.825-3.679a14.32,14.32,0,0,1-.136-3.14c.158-.063.315-.127.467-.194,2.872-1.262,6.118-5.812,6.025-9.633-.071-2.9-1.6-8.205-2.654-11.557" transform="translate(-422.59 -17.143)" fill="#fdeee0"/>
        <path id="パス_106719" data-name="パス 106719" d="M540.1,73.761c0-.007,0-.016,0-.023a3.058,3.058,0,0,0-1.531-2.226,1.075,1.075,0,0,0-.453-.01c-.069-.289-.532-2.014-1.633-1.732a15.953,15.953,0,0,0-1.6.546l-.059-.068-.888.447,2.169-2.572,2.126-2.057c1.465-1.338.6-3.2-.667-2.464A20.349,20.349,0,0,0,534,65.985c-1.585,1.579-5.522,6.226-5.522,6.226a2.14,2.14,0,0,1-.636.477,9.427,9.427,0,0,0-.338-3.064c-.548-1.226-2.229-1.584-2.25-.014,0,0-.6,5.206-.1,6.753.469,1.44,1.063,3,1.427,4.474.106.429.248,1.259.4,2.272h7.277c.714-.988,1.743-2.423,2.087-2.959.579-.9,1.514-2.787,2.1-4l.011.01c-.142.369-.372,1.051-.25,1.308.161.341,1.1.548,1.448.413.644-.246,1.141-1.807,1.11-2.526a2.781,2.781,0,0,0-.666-1.6" transform="translate(-430.312 -27.06)" fill="#fdeee0"/>
        <path id="パス_106720" data-name="パス 106720" d="M507.284,104.492a.636.636,0,1,0,1.156-.529c-3.076-6.726-7.125-10.093-11.39-9.478a.636.636,0,0,0,.18,1.259c4.941-.708,8.42,5.177,10.054,8.749" transform="translate(-420.608 -37.626)" fill="#2c2321"/>
        <path id="パス_106721" data-name="パス 106721" d="M545.766,89.529c-.381-.687-3.179-8.39-4.863-13.117a.642.642,0,0,0-.051-.107,62.027,62.027,0,0,0-4.33-9.859c-.974-1.642-4.822-3.258-7.881-4.326a4.693,4.693,0,0,0,.3-1.586,3.445,3.445,0,0,0-.674-1.805,3.665,3.665,0,0,0-1.974-2.62,1.076,1.076,0,0,0-.159-.03,2.977,2.977,0,0,0-1.073-1.537,1.5,1.5,0,0,0-1.193-.181c-.1.026-.217.059-.335.1l.584-.693,2.089-2.022a2.4,2.4,0,0,0,.631-3.132c-.021-.028-.046-.05-.067-.076a8.815,8.815,0,0,0,.38-2.674c-.071-2.941-1.557-8.159-2.622-11.549.008-.059.013-.117.019-.175a.631.631,0,0,0,.043-.449c.368-5.02-2.952-9.74-8.62-12.151-5.561-2.365-13.141-2.269-17.641,3.23-2.916.909-5.134,3.662-5.954,7.407-.929,4.245-.1,10.684,4.641,16.394a5.4,5.4,0,0,0,3.047,3.856c1.01.495,2.976,1.1,4.373.554a19.268,19.268,0,0,1,.225,3.17.633.633,0,0,0-.255.318L503.9,57.88l-1.667,2.309L497.8,63.657a39.594,39.594,0,0,0-5.281,3.049c-6.549,4.854-3.627,16.425-2.223,21.986a116.207,116.207,0,0,0,3.552,11.426c1.286,3.608,2.215,6.216,2.507,9.681a89.372,89.372,0,0,1-.039,9.059.635.635,0,0,0,.612.66h.024a.636.636,0,0,0,.635-.612,90.008,90.008,0,0,0,.036-9.214,37.6,37.6,0,0,0-2.576-10,115.146,115.146,0,0,1-3.517-11.311c-1.336-5.292-4.117-16.306,1.747-20.652a39.842,39.842,0,0,1,5.137-2.955.612.612,0,0,0,.117-.073l3.634-2.847.654,3.661a.633.633,0,0,0,.341.457l3.121,1.562-1.27,3.507a.636.636,0,0,0,.111.625l6.909,8.221.023,7.669-3.048-3.51a.636.636,0,0,0-.96.834L511.627,89a.627.627,0,0,0,.438.214l.018,6.006a.637.637,0,0,0,.636.634h0a.636.636,0,0,0,.634-.638l-.074-24.117h10.643c.307,2.661,1.616,14.2,2.266,22.825a.576.576,0,0,0,.009.113,77.841,77.841,0,0,1,.328,8.528,6.3,6.3,0,0,1-2.779,5.283c-2.415,1.529-6.149,1.469-10.245-.167-4.837-1.931-13.611-7.5-13.7-7.561a.636.636,0,1,0-.683,1.073c.364.232,8.963,5.694,13.911,7.669a17.5,17.5,0,0,0,6.409,1.357,9.234,9.234,0,0,0,4.987-1.3,6.789,6.789,0,0,0,2.37-2.546,69,69,0,0,0,8.713,2.508l.212,10.015a.636.636,0,0,0,1.272-.027l-.207-9.749a22.112,22.112,0,0,0,3.447.338h.056c6.133,0,8.888-6.565,8.94-9.928a17.909,17.909,0,0,0-3.465-10m-20.43-38.713-2.126,2.056c-.015.015-.03.031-.044.047L521.1,55.374c-.454.189-.779.332-.815.347a.636.636,0,0,0,.512,1.164,33.337,33.337,0,0,1,3.391-1.293.237.237,0,0,1,.206.029,1.482,1.482,0,0,1,.455.647,14.838,14.838,0,0,0-2.889,1.446.636.636,0,1,0,.675,1.077,8.831,8.831,0,0,1,3.3-1.464,1.98,1.98,0,0,1,.709.733,11.771,11.771,0,0,0-3.067,1.283.636.636,0,1,0,.623,1.108,8.851,8.851,0,0,1,2.829-1.159c.206.037.619.739.644,1.3a3.171,3.171,0,0,1-.684,1.9,1.4,1.4,0,0,1-.629-.112,5.036,5.036,0,0,1,.323-1,.636.636,0,1,0-1.166-.508c-.013.03-.024.059-.036.088l0,0c-.573,1.191-1.544,3.157-2.124,4.062-.306.477-1.185,1.707-1.877,2.667h-6.408c-.125-.786-.24-1.423-.33-1.788-.262-1.062-.638-2.161-1-3.223-.15-.439-.3-.872-.436-1.295-.378-1.16-.036-5.074.127-6.484,0-.021,0-.043,0-.065,0-.064.012-.386.146-.414a.247.247,0,0,1,.055-.005,1.1,1.1,0,0,1,.833.685,8.4,8.4,0,0,1,.283,2.778.636.636,0,0,0,.909.6,2.76,2.76,0,0,0,.847-.64c.04-.046,3.938-4.645,5.485-6.187a20.5,20.5,0,0,1,3.442-2.283c.268-.155.346-.049.383,0,.181.246.159.875-.476,1.454m-2.321,19.007h-9.078v-.871h9.078Zm-10.363,0q-.374-.637-.741-1.259l1.671-2.006c.059.3.127.68.2,1.122h-.48a.636.636,0,0,0-.636.636v1.507Zm-.791-10.831-5.947-2.607a17.5,17.5,0,0,0-.1-2.694,16.1,16.1,0,0,0,6.142,3.216c-.047.652-.087,1.379-.1,2.084m-6.49-1.456,6.511,2.854a5.781,5.781,0,0,0,.206,1.377c.14.43.29.869.443,1.315.223.652.448,1.317.649,1.972L511.224,67.4c-2.459-4.156-4.591-7.67-5.945-9.609Zm-4.749-6.255a4,4,0,0,1-2.408-3.647,1.619,1.619,0,0,1,.557-1.26,1.549,1.549,0,0,1,1.334-.2,2.708,2.708,0,0,1,.569.225.636.636,0,0,0,.836-.885c-.3-.529-.57-1.012-.807-1.457.02-.03.041-.059.061-.09a6.789,6.789,0,0,0,.7-4.308,10.735,10.735,0,0,1,.011-2.2A7.374,7.374,0,0,1,503.6,33.2a.636.636,0,0,0-.828-.965,8.569,8.569,0,0,0-2.555,5.047,11.886,11.886,0,0,0-.023,2.462,5.743,5.743,0,0,1-.505,3.55c-.261.412-.542.6-.839.578a.635.635,0,0,0-.347,1.2,2.444,2.444,0,0,0-.507.3,2.665,2.665,0,0,0-.882,1.262,18.2,18.2,0,0,1-3.5-14.182c.747-3.413,2.662-5.787,5.254-6.513a.637.637,0,0,0,.327-.217,11.944,11.944,0,0,1,9.657-4.378,17.128,17.128,0,0,1,6.617,1.369c4.1,1.745,8.216,5.47,7.858,10.786-1.49.606-4.315-.983-5.422-1.606-.147-.083-.277-.156-.387-.215-2.52-1.37-7.212-3.921-11.225-2.133a4.482,4.482,0,0,0-2.145,2.019.636.636,0,1,0,1.09.654,3.377,3.377,0,0,1,1.236-1.338c-.05.088-.1.177-.142.263a.636.636,0,1,0,1.132.579,3.344,3.344,0,0,1,1.394-1.509c2.541-.162,5.345,1.11,8.053,2.581.1.057.229.127.37.206.439.247,1.007.566,1.641.872a5.222,5.222,0,0,0-1.428.811.636.636,0,1,0,.8.992,3.992,3.992,0,0,1,2.395-.868.636.636,0,0,0,.362-.12,5.909,5.909,0,0,0,1.5.217,3.622,3.622,0,0,0,.8-.087c1.042,3.331,2.464,8.348,2.531,11.08a7.471,7.471,0,0,1-.285,2.124,1.783,1.783,0,0,0-.8.244,20.721,20.721,0,0,0-3.7,2.483c-1.279,1.274-4.006,4.446-5.095,5.721a6.022,6.022,0,0,0-.372-1.89,2.244,2.244,0,0,0-2.306-1.406,1.524,1.524,0,0,0-1.16,1.608c-.015.134-.048.431-.087.83a16.009,16.009,0,0,1-6.8-4.092.639.639,0,0,0-.439-.176h-.02a.633.633,0,0,0-.447.2c-.649.706-2.588.3-3.738-.262m5.714,19.846,1.338-3.694a.636.636,0,0,0-.314-.785l-3.342-1.672-.7-3.922a.618.618,0,0,0-.043-.14l1.336-1.851c1.7,2.532,4.409,7.083,7.4,12.175l.02,6.664Zm18.154-1.3h-.2V68.316a.636.636,0,0,0-.636-.636h-.609c.566-.791,1.137-1.6,1.381-1.979.328-.512.761-1.316,1.183-2.141l1.49,1.525L525.534,66.2a.635.635,0,0,0,.089,1.087l2.557,1.26c.451,4.753-.47,13.649-1.2,19.52-.767-8.385-1.783-17.07-1.856-17.686a.636.636,0,0,0-.632-.561m15.8,38.362h-.049c-3.679-.024-8.974-1.6-12.936-2.992a9.793,9.793,0,0,0,.488-2.554,79.128,79.128,0,0,0-.328-8.721c.03-.2.1-.644.186-1.27,4.425-.056,10.434-.091,11.574.055.3.041,2.025.659,3.452,1.208a.636.636,0,1,0,.457-1.187,35.587,35.587,0,0,0-3.747-1.283c-.385-.049-1.234-.079-2.331-.1a113.633,113.633,0,0,0-2.078-16.937.636.636,0,1,0-1.237.291,112.069,112.069,0,0,1,2.039,16.633c-2.512-.015-5.727.014-7.95.042.741-5.387,2.237-17.522,1.577-23.311a.637.637,0,0,0-.351-.5l-1.92-.946,1.3-.931a.636.636,0,0,0,.085-.961l-1.046-1.07a1.568,1.568,0,0,0,.538-.41c3.3,1.141,6.69,2.631,7.413,3.849a69.967,69.967,0,0,1,5.387,13.064c.064.107.128.212.193.318,1.6,4.447,3.427,9.407,3.734,9.807a16.754,16.754,0,0,1,3.218,9.225c-.035,2.23-1.989,8.677-7.667,8.677" transform="translate(-417.852 -12.267)" fill="#2c2321"/>
        <path id="パス_106722" data-name="パス 106722" d="M536.249,48.54a1.257,1.257,0,1,0-1.634-.7,1.257,1.257,0,0,0,1.634.7" transform="translate(-433.577 -21.152)" fill="#2c2321"/>
        <path id="パス_106723" data-name="パス 106723" d="M518.647,54.2a1.257,1.257,0,1,0,.7-1.633,1.257,1.257,0,0,0-.7,1.633" transform="translate(-428.13 -23.322)" fill="#2c2321"/>
        <path id="パス_106724" data-name="パス 106724" d="M532.539,59.307c.388-.171.793-.47.673-.76a.946.946,0,0,0-1.086-.284l-.006,0a.942.942,0,0,0-.593.953c.111.292.614.23,1.012.088" transform="translate(-432.547 -25.276)" fill="#2c2321"/>
        <path id="パス_106725" data-name="パス 106725" d="M514.278,50.227a.631.631,0,0,0,.43-.168,3.928,3.928,0,0,1,2.334-1.017.636.636,0,0,0-.1-1.268,5.213,5.213,0,0,0-3.092,1.349.636.636,0,0,0,.431,1.1" transform="translate(-426.454 -21.718)" fill="#2c2321"/>
        <path id="パス_106726" data-name="パス 106726" d="M527.737,65.137a5.4,5.4,0,0,0,6.87-2.736.636.636,0,0,0-1.152-.539,4.138,4.138,0,0,1-5.252,2.092.636.636,0,1,0-.466,1.183" transform="translate(-431.124 -26.398)" fill="#2c2321"/>
        <path id="パス_106727" data-name="パス 106727" d="M521.268,29.869c2.638-.853,5.816,1.205,8.369,2.859.7.457,1.369.887,1.988,1.238a.636.636,0,1,0,.627-1.106c-.586-.332-1.236-.753-1.924-1.2-2.78-1.8-6.24-4.04-9.451-3a.636.636,0,1,0,.391,1.21" transform="translate(-428.771 -15.108)" fill="#2c2321"/>
        <path id="パス_106728" data-name="パス 106728" d="M414.728,37.028a1.481,1.481,0,1,1-1.7-.9,1.368,1.368,0,0,1,1.7.9" transform="translate(-391.733 -17.732)" fill="#ccc"/>
        <path id="パス_106729" data-name="パス 106729" d="M411.542,28.335c-.393-1.753,2.247-3.687,1.728-7.323a4.913,4.913,0,1,0-9.567,2.144c1.114,3.5,4.3,4.132,4.689,5.885Z" transform="translate(-388.867 -11.158)" fill="#fef8a6"/>
        <path id="パス_106730" data-name="パス 106730" d="M414.714,33.686a.62.62,0,0,0-.418-.453.62.62,0,0,0-.558-1.059l-4.165.934a.62.62,0,0,0-.053,1.2.617.617,0,0,0,.291,1.058.62.62,0,0,0,.513,1.1l4.165-.934a.62.62,0,0,0,0-1.212.623.623,0,0,0,.229-.627" transform="translate(-390.791 -16.392)" fill="#999"/>
        <path id="パス_106731" data-name="パス 106731" d="M409.9,28.669a.444.444,0,0,0,.44-.659,26.384,26.384,0,0,1-1.474-2.934,1.728,1.728,0,0,1,.038-1.5,1.331,1.331,0,0,0,.032.292,1.149,1.149,0,0,0,.8.9,1.021,1.021,0,0,0,1.015-.282,1.155,1.155,0,0,0,.193-1.2,2.458,2.458,0,0,1,.579,1.319c.134.739.179,3.126.179,3.15a.443.443,0,1,0,.887-.016c0-.1-.047-2.483-.193-3.292-.283-1.568-1.044-2.048-1.472-2.195a1.553,1.553,0,0,0-1.317.145,1.79,1.79,0,0,0-.625.088c-.816.269-1.5,1.164-.961,2.866a27.778,27.778,0,0,0,1.548,3.1.444.444,0,0,0,.333.222m-.036-5.328a.418.418,0,0,1,.238.222c.049.14.048.255,0,.307a.138.138,0,0,1-.134.032c-.078-.022-.138-.1-.167-.234a.424.424,0,0,1,.064-.327" transform="translate(-390.363 -12.981)" fill="#2c2321"/>
        <path id="パス_106732" data-name="パス 106732" d="M413.24,29.221a1.06,1.06,0,0,0-.281-.513,1.05,1.05,0,0,0-.223-1.072,1.057,1.057,0,0,0-.444-1.219,1.018,1.018,0,0,0-.149-.075c.073-.157.152-.32.235-.49a8.3,8.3,0,0,0,1.1-5.134,5.41,5.41,0,0,0-2.2-3.718,5.8,5.8,0,0,0-7.853,1.782,5.351,5.351,0,0,0-.378,4.278,8.444,8.444,0,0,0,3.187,4.156c.169.136.325.264.474.39a1.049,1.049,0,0,0,.063,1.365,1.047,1.047,0,0,0,.256,1.065,1.063,1.063,0,0,0,1.237,1.39l.243-.054a1.778,1.778,0,0,0,1.346.857,2.1,2.1,0,0,0,.719-.037,1.882,1.882,0,0,0,1.52-1.624l.337-.076a1.066,1.066,0,0,0,.806-1.272m-5.545.213a.156.156,0,0,1-.071-.2l4.458-1a.159.159,0,0,1,.047.082.167.167,0,0,1-.022.126Zm3.987-2.291a.169.169,0,0,1,.059,0,.184.184,0,0,1,.074.027.179.179,0,0,1,.079.111.169.169,0,0,1-.007.094l-4.458,1a.172.172,0,0,1-.047-.082.18.18,0,0,1,.135-.212ZM403.9,22.791a4.209,4.209,0,0,1,3.31-5.624,5.224,5.224,0,0,1,1.782-.106,3.962,3.962,0,0,1,1.79.669,4.521,4.521,0,0,1,1.824,3.113,7.459,7.459,0,0,1-1.022,4.62c-.15.306-.293.6-.413.886l-3.617.811c-.232-.21-.486-.418-.754-.634a7.6,7.6,0,0,1-2.9-3.735m6.484,8.536a1.094,1.094,0,0,1-.9-.171l1.65-.37a1.1,1.1,0,0,1-.745.541m1.968-1.778a.179.179,0,0,1-.111.079l-4.165.934a.181.181,0,0,1-.213-.135.172.172,0,0,1,.023-.127l4.411-.989a.162.162,0,0,1,.078.1.18.18,0,0,1-.024.134" transform="translate(-388.639 -10.928)" fill="#2c2321"/>
        <path id="パス_106733" data-name="パス 106733" d="M395.977,26.936a.591.591,0,0,1-.057-1.164l1.548-.347a.592.592,0,1,1,.259,1.154l-1.548.347a.6.6,0,0,1-.2.01" transform="translate(-386.142 -14.09)" fill="#fdd089"/>
        <path id="パス_106734" data-name="パス 106734" d="M397.808,19.923a.6.6,0,0,1-.105-.023l-1.514-.473a.592.592,0,0,1,.353-1.129l1.514.474a.592.592,0,0,1-.248,1.152" transform="translate(-386.25 -11.655)" fill="#fdd089"/>
        <path id="パス_106735" data-name="パス 106735" d="M401.475,14.135a.591.591,0,0,1-.363-.186l-1.074-1.167a.592.592,0,0,1,.87-.8l1.074,1.167a.591.591,0,0,1-.507.988" transform="translate(-387.651 -9.444)" fill="#fdd089"/>
        <path id="パス_106736" data-name="パス 106736" d="M407.546,10.957a.592.592,0,0,1-.506-.458l-.347-1.548a.592.592,0,0,1,1.154-.259l.347,1.548a.592.592,0,0,1-.447.707.6.6,0,0,1-.2.01" transform="translate(-389.97 -8.23)" fill="#fdd089"/>
        <path id="パス_106737" data-name="パス 106737" d="M414.148,11.239a.6.6,0,0,1-.105-.023.591.591,0,0,1-.387-.741l.473-1.514a.592.592,0,1,1,1.129.353l-.474,1.514a.591.591,0,0,1-.636.411" transform="translate(-392.34 -8.338)" fill="#fdd089"/>
        <path id="パス_106738" data-name="パス 106738" d="M419.576,14.907a.591.591,0,0,1-.328-1.022l1.167-1.075a.592.592,0,0,1,.8.87l-1.167,1.075a.592.592,0,0,1-.473.152" transform="translate(-394.192 -9.739)" fill="#fdd089"/>
        <path id="パス_106739" data-name="パス 106739" d="M422.557,20.977a.592.592,0,0,1-.057-1.164l1.548-.347a.592.592,0,1,1,.259,1.154l-1.548.347a.6.6,0,0,1-.2.01" transform="translate(-395.208 -12.057)" fill="#fdd089"/>
        <path id="パス_106740" data-name="パス 106740" d="M561.225,40.024a1.481,1.481,0,1,0,1.7-.9,1.368,1.368,0,0,0-1.7.9" transform="translate(-442.675 -18.754)" fill="#ccc"/>
        <path id="パス_106741" data-name="パス 106741" d="M560.8,31.33c.393-1.753-2.247-3.687-1.728-7.323a4.913,4.913,0,1,1,9.567,2.144c-1.114,3.5-4.3,4.132-4.689,5.885Z" transform="translate(-441.924 -12.179)" fill="#fef8a6"/>
        <path id="パス_106742" data-name="パス 106742" d="M559.7,36.682a.621.621,0,0,1,.418-.453.619.619,0,0,1,.558-1.059l4.165.934a.62.62,0,0,1,.053,1.2.617.617,0,0,1-.291,1.058.62.62,0,0,1-.513,1.1l-4.165-.934a.62.62,0,0,1,0-1.212.624.624,0,0,1-.229-.627" transform="translate(-442.073 -17.414)" fill="#999"/>
        <path id="パス_106743" data-name="パス 106743" d="M565.423,31.442a27.879,27.879,0,0,0,1.548-3.1c.536-1.7-.145-2.6-.961-2.867a1.789,1.789,0,0,0-.625-.088,1.551,1.551,0,0,0-1.317-.146c-.428.148-1.189.628-1.472,2.2-.146.808-.191,3.19-.193,3.292a.444.444,0,0,0,.887.016c0-.024.045-2.411.179-3.15a2.455,2.455,0,0,1,.579-1.318,1.155,1.155,0,0,0,.193,1.2,1.021,1.021,0,0,0,1.015.282,1.15,1.15,0,0,0,.8-.9,1.329,1.329,0,0,0,.032-.291,1.726,1.726,0,0,1,.038,1.5,26.33,26.33,0,0,1-1.474,2.935.444.444,0,0,0,.772.437m-.233-4.779c-.029.13-.088.213-.167.233a.137.137,0,0,1-.134-.031c-.049-.053-.049-.168,0-.307a.418.418,0,0,1,.238-.222.422.422,0,0,1,.064.327" transform="translate(-443.086 -14.002)" fill="#2c2321"/>
        <path id="パス_106744" data-name="パス 106744" d="M558.779,33.02a1.059,1.059,0,0,0,.666.469l.337.076a1.882,1.882,0,0,0,1.52,1.624,2.094,2.094,0,0,0,.718.037,1.777,1.777,0,0,0,1.346-.857l.243.054a1.062,1.062,0,0,0,1.237-1.39,1.05,1.05,0,0,0,.256-1.065,1.051,1.051,0,0,0,.062-1.365c.15-.126.306-.254.474-.39a8.441,8.441,0,0,0,3.187-4.156,5.093,5.093,0,0,0-3.961-6.759,5.286,5.286,0,0,0-4.269.7,5.414,5.414,0,0,0-2.2,3.718,8.307,8.307,0,0,0,1.1,5.134c.084.17.162.333.236.49a1.053,1.053,0,0,0-.593,1.294,1.046,1.046,0,0,0-.223,1.072,1.058,1.058,0,0,0-.142,1.316m.994-1.579a.167.167,0,0,1-.023-.127.171.171,0,0,1,.047-.082l4.458,1a.164.164,0,0,1,.007.094.16.16,0,0,1-.078.1Zm4.588-.369a.18.18,0,0,1,.134.212.162.162,0,0,1-.047.082l-4.458-1a.17.17,0,0,1-.008-.094.178.178,0,0,1,.079-.111.188.188,0,0,1,.075-.027.182.182,0,0,1,.059,0Zm.721-1.55c-.268.216-.521.424-.753.634l-3.618-.811c-.12-.286-.263-.579-.412-.886a7.45,7.45,0,0,1-1.022-4.62,4.525,4.525,0,0,1,1.823-3.113,3.962,3.962,0,0,1,1.79-.669,5.22,5.22,0,0,1,1.781.106,4.209,4.209,0,0,1,3.31,5.624,7.593,7.593,0,0,1-2.9,3.735m-4.33,4.261,1.65.37a1.161,1.161,0,0,1-1.65-.37M559.5,32.411a.162.162,0,0,1,.078-.1l4.411.989a.166.166,0,0,1,.023.127.181.181,0,0,1-.213.135l-4.164-.934a.18.18,0,0,1-.135-.213" transform="translate(-441.694 -11.949)" fill="#2c2321"/>
        <path id="パス_106745" data-name="パス 106745" d="M580.066,29.932a.591.591,0,0,0,.057-1.164l-1.548-.347a.592.592,0,1,0-.259,1.154l1.548.347a.6.6,0,0,0,.2.01" transform="translate(-448.356 -15.112)" fill="#fdd089"/>
        <path id="パス_106746" data-name="パス 106746" d="M578.253,22.919a.6.6,0,0,0,.105-.023l1.513-.473a.592.592,0,0,0-.352-1.129l-1.514.474a.592.592,0,0,0,.248,1.152" transform="translate(-448.266 -12.676)" fill="#fdd089"/>
        <path id="パス_106747" data-name="パス 106747" d="M574.814,17.13a.591.591,0,0,0,.363-.186l1.074-1.167a.592.592,0,0,0-.87-.8l-1.074,1.167a.591.591,0,0,0,.507.988" transform="translate(-447.092 -10.466)" fill="#fdd089"/>
        <path id="パス_106748" data-name="パス 106748" d="M569.12,13.952a.592.592,0,0,0,.505-.458l.347-1.548a.592.592,0,0,0-1.154-.259l-.347,1.548a.591.591,0,0,0,.649.717" transform="translate(-445.15 -9.251)" fill="#fdd089"/>
        <path id="パス_106749" data-name="パス 106749" d="M562.452,14.235a.6.6,0,0,0,.105-.023.591.591,0,0,0,.388-.741l-.473-1.514a.592.592,0,0,0-1.129.353l.474,1.514a.591.591,0,0,0,.636.411" transform="translate(-442.714 -9.36)" fill="#fdd089"/>
        <path id="パス_106750" data-name="パス 106750" d="M556.665,17.9a.591.591,0,0,0,.328-1.022l-1.167-1.075a.592.592,0,0,0-.8.87l1.167,1.075a.592.592,0,0,0,.473.152" transform="translate(-440.504 -10.761)" fill="#fdd089"/>
        <path id="パス_106751" data-name="パス 106751" d="M553.486,23.973a.592.592,0,0,0,.057-1.164L552,22.462a.592.592,0,1,0-.259,1.154l1.548.347a.6.6,0,0,0,.2.01" transform="translate(-439.29 -13.079)" fill="#fdd089"/>
      </g>
    </g>
    <g id="グループ_62115" data-name="グループ 62115" transform="translate(-1589.829 9573.01)">
      <path id="パス_106670" data-name="パス 106670" d="M369.686,86.645a1.754,1.754,0,1,0,1.755-1.754,1.754,1.754,0,0,0-1.755,1.754m.215,0a1.54,1.54,0,1,1,1.54,1.54,1.54,1.54,0,0,1-1.54-1.54" transform="translate(-222.545 -63.201)" fill="#221815"/>
      <path id="パス_106671" data-name="パス 106671" d="M371.729,86.359h.985a1,1,0,0,1,.4.072.517.517,0,0,1,.3.513.574.574,0,0,1-.081.32.59.59,0,0,1-.226.2.433.433,0,0,1,.192.135.47.47,0,0,1,.072.272l.01.289a.927.927,0,0,0,.021.185.182.182,0,0,0,.1.132v.049h-.361a.239.239,0,0,1-.021-.073,1.261,1.261,0,0,1-.018-.17l-.016-.36a.307.307,0,0,0-.153-.285.623.623,0,0,0-.259-.04h-.647v.928h-.293Zm.953.993A.546.546,0,0,0,373,87.27a.34.34,0,0,0,.119-.3.322.322,0,0,0-.165-.316.527.527,0,0,0-.235-.045h-.695v.741Z" transform="translate(-223.654 -63.998)" fill="#221815"/>
      <path id="パス_106672" data-name="パス 106672" d="M276.913,59h-3.834v7.669h3.834Zm5.752,0v9.587a1.917,1.917,0,0,1-1.917,1.916h-3.834v3.834h3.834a5.751,5.751,0,0,0,5.752-5.75V59Z" transform="translate(-170.073 -49.138)" fill="#221815"/>
      <path id="パス_106673" data-name="パス 106673" d="M353.74,62.831a1.917,1.917,0,0,1-1.916-1.917V59h-3.835V74.334h3.835v-8a5.707,5.707,0,0,0,1.916.335h7.67V62.831Z" transform="translate(-210.76 -49.137)" fill="#221815"/>
      <path id="パス_106674" data-name="パス 106674" d="M326.534,58.759a2.173,2.173,0,1,1-2.174-2.173,2.173,2.173,0,0,1,2.174,2.173" transform="translate(-196.746 -47.827)" fill="#f8b500"/>
      <path id="パス_106675" data-name="パス 106675" d="M337.457,56.227a2.174,2.174,0,1,1-2.174-2.173,2.174,2.174,0,0,1,2.174,2.173Z" transform="translate(-202.678 -46.452)" fill="#9cc948"/>
      <path id="パス_106676" data-name="パス 106676" d="M315.973,70.5h0a1.917,1.917,0,0,1-1.917-1.917V66.33a5.725,5.725,0,0,0,1.917.335h5.751V62.831h-5.751a1.918,1.918,0,0,1-1.917-1.913V59h-3.835v9.588a5.752,5.752,0,0,0,5.752,5.751h7.67V70.5Z" transform="translate(-190.246 -49.136)" fill="#221815"/>
      <path id="パス_106677" data-name="パス 106677" d="M244.23,60.915h-1.918V59h-3.834v1.916h-1.916V64.75h1.916v7.667h3.834V64.75h1.918a1.916,1.916,0,0,1,1.917,1.916h0v7.67h3.834v-7.67a5.751,5.751,0,0,0-5.75-5.751" transform="translate(-150.238 -49.138)" fill="#221815"/>
      <path id="パス_106678" data-name="パス 106678" d="M161.718,66.212a6.347,6.347,0,1,1-6.112-10.624,7.734,7.734,0,0,0,5.479-5.532,6.348,6.348,0,0,1,12.236.01,7.732,7.732,0,0,0,5.472,5.521,6.347,6.347,0,1,1-6.106,10.626,7.756,7.756,0,0,0-10.968,0h0" transform="translate(-103.704 -41.754)" fill="#f8b500"/>
      <path id="パス_106679" data-name="パス 106679" d="M181.054,51.221h1.08a.207.207,0,0,1,.207.206h0V53.4a.207.207,0,0,1-.206.206h-1.08a.207.207,0,0,1-.207-.207V51.427a.206.206,0,0,1,.206-.206" transform="translate(-119.978 -44.913)" fill="#fff"/>
      <path id="パス_106680" data-name="パス 106680" d="M190.578,53.043a.565.565,0,0,1-.564.565h-.365a.564.564,0,0,1-.564-.563h0v-1.26a.564.564,0,0,1,.563-.565h.365a.564.564,0,0,1,.564.563h0Z" transform="translate(-124.452 -44.912)" fill="#fff"/>
      <path id="パス_106681" data-name="パス 106681" d="M182.3,62.111a4.016,4.016,0,0,0,3.605-2.257.131.131,0,0,0-.064-.169l-.877-.391a.123.123,0,0,0-.158.075h0a2.806,2.806,0,0,1-5.01,0,.123.123,0,0,0-.157-.076h0l-.878.391a.132.132,0,0,0-.064.169,4.017,4.017,0,0,0,3.605,2.257" transform="translate(-118.804 -49.294)" fill="#fff"/>
      <path id="パス_106682" data-name="パス 106682" d="M58.437,66.213a6.345,6.345,0,1,1-6.11-10.624,7.742,7.742,0,0,0,5.479-5.532,6.349,6.349,0,0,1,12.237.01,7.739,7.739,0,0,0,5.471,5.521,6.347,6.347,0,1,1-6.106,10.625,7.757,7.757,0,0,0-10.969,0" transform="translate(-47.61 -41.755)" fill="#9cc948"/>
      <path id="パス_106683" data-name="パス 106683" d="M77.769,51.221h1.08a.206.206,0,0,1,.207.206h0V53.4a.206.206,0,0,1-.206.206H77.77a.206.206,0,0,1-.206-.206V51.427a.206.206,0,0,1,.206-.206" transform="translate(-63.879 -44.913)" fill="#fff"/>
      <path id="パス_106684" data-name="パス 106684" d="M87.291,53.044a.564.564,0,0,1-.563.564h-.365a.564.564,0,0,1-.565-.564h0v-1.26a.564.564,0,0,1,.564-.563h.365a.564.564,0,0,1,.565.562v1.261Z" transform="translate(-68.352 -44.913)" fill="#fff"/>
      <path id="パス_106685" data-name="パス 106685" d="M79.016,62.11a4.017,4.017,0,0,0,3.6-2.257.131.131,0,0,0-.063-.169l-.877-.391a.121.121,0,0,0-.156.072v0a2.808,2.808,0,0,1-5.012,0,.122.122,0,0,0-.155-.076h0l-.877.391a.13.13,0,0,0-.064.169,4.017,4.017,0,0,0,3.6,2.257" transform="translate(-62.705 -49.293)" fill="#fff"/>
      <path id="パス_106686" data-name="パス 106686" d="M121.037,39.275a6.346,6.346,0,1,1,6.11,10.624,7.74,7.74,0,0,0-5.478,5.532,6.349,6.349,0,0,1-12.237-.01,7.735,7.735,0,0,0-5.471-5.522,6.347,6.347,0,1,1,6.106-10.625,7.757,7.757,0,0,0,10.97,0" transform="translate(-75.647 -37.414)" fill="#45b2e6"/>
      <path id="パス_106687" data-name="パス 106687" d="M137.651,75.992h1.079a.207.207,0,0,1,.208.206h0v1.975a.206.206,0,0,1-.206.206h-1.08a.206.206,0,0,1-.206-.206V76.2a.206.206,0,0,1,.206-.206" transform="translate(-96.404 -58.368)" fill="#fff"/>
      <path id="パス_106688" data-name="パス 106688" d="M129.413,75.992h1.08a.206.206,0,0,1,.206.206h0v1.975a.206.206,0,0,1-.206.206h-1.08a.206.206,0,0,1-.207-.206V76.2a.206.206,0,0,1,.207-.206" transform="translate(-91.929 -58.368)" fill="#fff"/>
      <path id="パス_106689" data-name="パス 106689" d="M130.661,66.97a4.019,4.019,0,0,0-3.605,2.257.133.133,0,0,0,.064.169l.876.39a.122.122,0,0,0,.157-.072l0,0a2.807,2.807,0,0,1,5.011,0,.122.122,0,0,0,.154.077h0l.877-.391a.131.131,0,0,0,.064-.169,4.016,4.016,0,0,0-3.6-2.257" transform="translate(-90.755 -53.467)" fill="#fff"/>
    </g>
  </g>
</svg>
