<svg xmlns="http://www.w3.org/2000/svg" width="486" height="104" viewBox="0 0 486 104">
  <g id="グループ_62208" data-name="グループ 62208" transform="translate(-977 -1682.286)">
    <rect id="長方形_1399" data-name="長方形 1399" width="486" height="104" rx="3" transform="translate(977 1682.286)" fill="#ffe386"/>
    <path id="パス_109247" data-name="パス 109247" d="M7.316-20.181a24.192,24.192,0,0,1-4.309-.248l.031,5.3a31.724,31.724,0,0,1,4.185-.186H11.1a16.428,16.428,0,0,1-1.55,5.3C8-6.882,5.611-4.681,1.488-2.511A17.92,17.92,0,0,1,5.518,2.2c6.293-4.154,9.238-8.184,10.6-14.446a26.577,26.577,0,0,0,.465-3.1h5.921A71.61,71.61,0,0,1,21.917-6.7C21.514-4,21.142-3.5,19.654-3.5a17.757,17.757,0,0,1-4.03-.62,15.258,15.258,0,0,1,1.054,5.456,36.307,36.307,0,0,0,4.061.248c3.441,0,4.929-.992,5.828-3.875.62-2.046,1.085-7.223,1.3-13.857a3.871,3.871,0,0,1,.434-2.294l-2.418-2.108a4.483,4.483,0,0,1-2.077.341H17.05c.062-.744.062-.744.093-1.581a22.243,22.243,0,0,1,.341-3.751L11.656-25.7a8.675,8.675,0,0,1,.093,1.55c0,.961-.062,2.759-.155,3.968ZM36.239-24.8a31.037,31.037,0,0,1,.186,4.092v6.138a32.162,32.162,0,0,1-.186,4.526h6.014a40.583,40.583,0,0,1-.155-4.433v-6.169a37.335,37.335,0,0,1,.155-4.154Zm14.415,0a30.029,30.029,0,0,1,.186,4.247v3.224a52.643,52.643,0,0,1-.341,6.572A8,8,0,0,1,45.88-4.743a20,20,0,0,1-6.138,1.891,14.18,14.18,0,0,1,3.162,5.3A25.964,25.964,0,0,0,49.352-.093,12.749,12.749,0,0,0,55.8-7.967a40.058,40.058,0,0,0,.713-9.021v-3.627c0-1.984.031-2.449.155-4.185Zm35.464,4.681,1.55-.558A21.071,21.071,0,0,0,85.1-25.42l-3.069.992a18.889,18.889,0,0,1,2.108,3.751,43.109,43.109,0,0,1-11.811,4.433v-4.185a24.454,24.454,0,0,1,.186-4.154h-5.8A31.636,31.636,0,0,1,66.9-20.46V-6.975a24.7,24.7,0,0,0,.124,3.286A4.581,4.581,0,0,0,68.758-.341c1.426.992,3.565,1.364,7.812,1.364,2.48,0,5.952-.186,9.052-.465C87.172.4,88.071.341,88.815.341L88.6-5.394a27.267,27.267,0,0,1-5.332.992c-1.86.186-4.278.31-6.045.31a27.233,27.233,0,0,1-3.286-.186c-.9-.124-1.3-.372-1.488-.961a7.347,7.347,0,0,1-.124-2.387V-11.1a55.706,55.706,0,0,0,14.756-4.8c.744-.341.806-.372,1.55-.744Zm.4-5.735a24.561,24.561,0,0,1,2.542,4.743L92.008-22.2a22.074,22.074,0,0,0-2.573-4.619ZM106.454,1.829a45.457,45.457,0,0,1-.186-4.743v-8.06a7.445,7.445,0,0,0,1.4.62,57.463,57.463,0,0,1,9.765,5.394l2.945-5.27a65.753,65.753,0,0,0-14.105-6.448v-4.247a40.082,40.082,0,0,1,.155-4.526H100.44a29.329,29.329,0,0,1,.217,4.5V-2.914a44.245,44.245,0,0,1-.186,4.743Zm24.986-20.15c-.062,2.79-.062,2.79-.124,4.03H128.96a20.975,20.975,0,0,1-3.627-.186V-9.8a21.047,21.047,0,0,1,3.534-.186h1.922a11.832,11.832,0,0,1-6.138,8.463,12.372,12.372,0,0,1,3.317,3.937,17.34,17.34,0,0,0,5.89-7.192A18.635,18.635,0,0,0,138.384.62,22.122,22.122,0,0,1,140.492-3.6v1.984c0,1.178-.062,2.542-.155,3.627h4.712V0h3.286V2.046h4.774c-.124-1.4-.186-2.666-.186-4.061V-20.956a25.071,25.071,0,0,1,.155-3.286,20.859,20.859,0,0,1-2.945.155h-6.882a18.928,18.928,0,0,1-2.883-.155c.093.961.124,2.015.124,3.286V-4.185a17.867,17.867,0,0,1-5.115-5.425c.031-.155.031-.217.062-.372H136.8a26.763,26.763,0,0,1,3.069.124v-4.588a17.963,17.963,0,0,1-2.883.155H135.9c.062-1.116.062-1.116.124-4.03h.589a28.919,28.919,0,0,1,3.069.124v-4.619a20.115,20.115,0,0,1-3.069.155h-4.061c.248-.651.341-.992.5-1.457a14.336,14.336,0,0,1,.527-1.581l-4.712-.992a8.8,8.8,0,0,1-.5,2.17,17.173,17.173,0,0,1-3.751,6.758,11.133,11.133,0,0,1,3.6,3.317,23.776,23.776,0,0,0,2.449-3.875Zm13.7-1.488h3.193V-4.34h-3.193Zm22.816-.527v1.023h-5.766a31.519,31.519,0,0,1-3.286-.124,26.341,26.341,0,0,1,.124,3.1v5.8a26.681,26.681,0,0,1-.124,3.1c.744-.062,1.333-.093,3.131-.093h9.672L168.671-6.2a18.947,18.947,0,0,1,2.883,3.813l2.914-1.674c-.093,2.356-.155,2.418-3.782,2.418-2.294,0-2.635-.093-2.635-.775V-4.65a12.527,12.527,0,0,1,.124-2.108h-4.867a16.35,16.35,0,0,1,.155,2.914V-.775c0,2.015.651,2.79,2.573,3.069a40.512,40.512,0,0,0,4.836.186c4.185,0,5.735-.217,6.634-.9.837-.62,1.271-1.86,1.519-4.092a31.679,31.679,0,0,1,2.294,4.5L185.411-.4a32.115,32.115,0,0,0-4.278-6.417l-3.844,1.829c.558.713.775,1.023,1.116,1.519a16.742,16.742,0,0,1-3.565-.806l.713-.4a19.292,19.292,0,0,0-2.387-2.852h6.169c.9,0,2.046.031,2.852.093a21.862,21.862,0,0,1-.155-3.1v-5.828a25.088,25.088,0,0,1,.124-3.069,31.142,31.142,0,0,1-3.286.124h-6.231v-1.023h8.091a29.068,29.068,0,0,1,3.813.155v-4.433a30.412,30.412,0,0,1-3.813.186h-8.091a8.468,8.468,0,0,1,.155-2.046H167.8a8.787,8.787,0,0,1,.155,2.046h-7.626a30.073,30.073,0,0,1-3.813-.186v4.433a27.465,27.465,0,0,1,3.72-.155Zm0,4.309v1.116h-4.185v-1.116Zm4.681,0h4.588v1.116h-4.588Zm-4.681,4v1.147h-4.185v-1.147Zm4.681,0h4.588v1.147h-4.588ZM159.8,2.263a26.989,26.989,0,0,0,3.162-7.471l-4.03-1.705a15.712,15.712,0,0,1-3.286,6.448Zm45.539-3.937c2.232,1.922,4.526,3.007,8.835,4.278a18.072,18.072,0,0,1,2.387-4.681,20.672,20.672,0,0,1-5.89-1.55,29.078,29.078,0,0,0,3.131-2.387l-2.79-1.922h.837a29.508,29.508,0,0,1,3.72.155V-12.09a23.9,23.9,0,0,1-3.5.155H203.3V-13.02a9.718,9.718,0,0,1,.124-1.829h-5.146a7.571,7.571,0,0,1,.155,1.829v1.085H190.8a25.8,25.8,0,0,1-3.5-.155v4.309a30.508,30.508,0,0,1,3.844-.155h3.627A26.429,26.429,0,0,1,186.5-4.557,14.181,14.181,0,0,1,188.79-.713a46.063,46.063,0,0,0,6.789-3.038V-1.8c-1.736.124-2.852.186-3.565.186h-.744l.62,4.464a12.008,12.008,0,0,1,1.736-.217A92.728,92.728,0,0,0,205.344.806Zm-5.456-4.9a12.972,12.972,0,0,0,1.24-1.116,12.068,12.068,0,0,0,2.945,4.836c-1.209.217-2.387.4-4.185.62Zm9.858-1.364A15.49,15.49,0,0,1,207.235-5.7,6.52,6.52,0,0,1,205.5-7.936ZM205.22-21.731a13.831,13.831,0,0,1-.806-3.658,4.628,4.628,0,0,1,.031-.589l-4.96.4a6.525,6.525,0,0,1,.248.992c.372,1.736.5,2.263.775,3.224l-1.24.093c-.961.093-1.8.124-2.294.124-.31,0-.558,0-1.023-.031l.4,4.34a30.5,30.5,0,0,1,3.224-.434l2.635-.217c2.108,3.317,4.867,4.96,8.339,4.96a5.824,5.824,0,0,0,3.6-1.023,5.94,5.94,0,0,0,1.736-2.728,16.172,16.172,0,0,1-3.224-2.139,13.812,13.812,0,0,1,1.488-.062c.31,0,.589,0,1.116.031l-.341-4.216a24.756,24.756,0,0,1-3.441.434l-.527.031,1.86-1.55a19.059,19.059,0,0,0-4.278-2.852l-2.914,2.17a21.446,21.446,0,0,1,3.5,2.387Zm6.6,3.379.4-.031c-.5,1.55-.93,2.139-1.612,2.139a5.221,5.221,0,0,1-3.286-1.7Zm-20.987,1.426v1.612a15.635,15.635,0,0,1-.186,2.635h4.774a15.426,15.426,0,0,1-.155-2.759v-5.89c.589-.682,1.178-1.457,1.767-2.232.4-.527.465-.62.713-.9l-4.464-1.7c-.93,2.108-3.627,4.836-6.975,7.037a21.232,21.232,0,0,1,2.263,3.937c.992-.744,1.333-1.023,2.263-1.829Z" transform="translate(1003 1737.286)" fill="#333"/>
    <g id="グループ_2752" data-name="グループ 2752" transform="translate(1242.317 1703.166)">
      <g id="グループ_2751" data-name="グループ 2751" transform="translate(8.225 2.612)">
        <path id="パス_3955" data-name="パス 3955" d="M38.438,24.583a17.737,17.737,0,0,0,21.186-6.269s-1.854-.284-3.379-.521c-2.61-.405-6.182-1.006-8.97-.017a17.394,17.394,0,0,0-8.838,6.807" transform="translate(22.627 10.147)" fill="#45b1e6"/>
        <path id="パス_3956" data-name="パス 3956" d="M36.922,26.116A16.8,16.8,0,0,0,47.663,23.29,17.072,17.072,0,0,0,54.5,14.652s-1.992.273-3.444.453a19,19,0,0,0-7.978,2.734,14.529,14.529,0,0,0-6.159,8.277" transform="translate(21.735 8.625)" fill="#45b1e6"/>
        <path id="パス_3957" data-name="パス 3957" d="M28.407,49.028a12.214,12.214,0,1,1-8.029-22.179A14.9,14.9,0,0,0,32.609,18.2,12.217,12.217,0,0,1,55.8,22.3,14.9,14.9,0,0,0,64.324,34.6,12.215,12.215,0,1,1,49.2,52.692a14.932,14.932,0,0,0-20.792-3.663" transform="translate(5.406 6.613)" fill="#9bc948"/>
        <path id="長方形_1008" data-name="長方形 1008" d="M.6,0H3.461a.6.6,0,0,1,.6.6v1.33a.6.6,0,0,1-.6.6H.6a.6.6,0,0,1-.6-.6V.6A.6.6,0,0,1,.6,0Z" transform="translate(45.226 25.949) rotate(-79.958)" fill="#fff"/>
        <path id="パス_3958" data-name="パス 3958" d="M35.051,17.955a.957.957,0,0,1-1.114.777l-.61-.1a.959.959,0,0,1-.778-1.114L32.92,15.4a.959.959,0,0,1,1.112-.775l.61.106a.963.963,0,0,1,.78,1.115Z" transform="translate(19.152 8.601)" fill="#fff"/>
        <path id="パス_3959" data-name="パス 3959" d="M32.467,23.211A6.835,6.835,0,0,0,39.174,20.5a.225.225,0,0,0-.057-.3l-1.354-.915a.207.207,0,0,0-.286.081,4.777,4.777,0,0,1-8.4-1.482.206.206,0,0,0-.241-.172l-1.585.4a.22.22,0,0,0-.156.265,6.828,6.828,0,0,0,5.371,4.845" transform="translate(15.946 10.42)" fill="#fff"/>
        <path id="パス_3960" data-name="パス 3960" d="M42.254,31.15,39.7,25.718a.619.619,0,0,0-.45-.337L28.4,23.468a.627.627,0,0,0-.537.162L23.61,27.861a.625.625,0,0,0-.2.364.618.618,0,0,0,.119.488l7.411,9.643a.624.624,0,0,0,.394.243.617.617,0,0,0,.454-.094l10.261-6.528a.613.613,0,0,0,.28-.416.628.628,0,0,0-.07-.411" transform="translate(13.772 13.81)" fill="#fff"/>
        <path id="パス_3961" data-name="パス 3961" d="M32.7,26.534l-1.409-.248.248-1.408-2.817-.5-.249,1.408-1.408-.248-.5,2.818,1.409.248-.995,5.637,2.817.5L30.8,29.1l1.409.248a1.429,1.429,0,0,1,1.161,1.657l-.995,5.638,2.818.5.995-5.638A4.294,4.294,0,0,0,32.7,26.534" transform="translate(15.641 14.352)" fill="#9bc948"/>
        <path id="パス_3962" data-name="パス 3962" d="M32.947,24.73A27.748,27.748,0,0,0,49.2,22.144a.641.641,0,0,1,.871.362.951.951,0,0,1-.2,1.145c-5.95,4.42-11.642,6.166-18.961,5.486S21.372,23.682,22.4,18.4c.165-.852.729-1.288.991-1.071a.913.913,0,0,1,.2.364c1,3.822,4.107,6.263,9.36,7.041" transform="translate(13.045 10.166)" fill="#45b1e6"/>
        <path id="パス_3963" data-name="パス 3963" d="M7.132,4.26S7.338.242,6.929.166s-2.254.505-2.094.883,2.3,3.211,2.3,3.211" transform="translate(2.84 0.093)" fill="#e3007f"/>
        <path id="パス_3964" data-name="パス 3964" d="M7.025,4.5s-.534-.709-1.088-1.466A19.436,19.436,0,0,1,4.7,1.241a.363.363,0,0,1-.032-.148A.636.636,0,0,1,5.024.6a3.39,3.39,0,0,1,.618-.3A4.38,4.38,0,0,1,6.931,0a.609.609,0,0,1,.135.013c.257.079.27.243.321.372A3.023,3.023,0,0,1,7.474.9c.04.4.052.912.052,1.42,0,1.028-.052,2.043-.052,2.046a.248.248,0,0,1-.176.226.227.227,0,0,1-.073.011.248.248,0,0,1-.2-.1m.2-.149.2-.151ZM6.338,2.74c.238.326.475.643.664.9.013-.37.024-.844.024-1.32,0-.437-.01-.875-.037-1.226A3.1,3.1,0,0,0,6.9.5a4.247,4.247,0,0,0-1.692.585L5.188,1.1c.135.229.661.975,1.15,1.638" transform="translate(2.747 0)" fill="#e3007f"/>
        <path id="パス_3965" data-name="パス 3965" d="M6.047,5.041S4.133,1.5,3.744,1.651,2.082,3.258,2.415,3.5,6.047,5.041,6.047,5.041" transform="translate(1.389 0.969)" fill="#e3007f"/>
        <path id="パス_3966" data-name="パス 3966" d="M6.046,5.367s-.826-.327-1.694-.685a19.214,19.214,0,0,1-1.991-.891A.4.4,0,0,1,2.2,3.463a2.247,2.247,0,0,1,.621-1.133,3.333,3.333,0,0,1,.886-.805.312.312,0,0,1,.151-.038.6.6,0,0,1,.4.221,3.877,3.877,0,0,1,.34.411c.245.33.516.759.775,1.187.519.855.98,1.706.98,1.709l-.219.119L6.232,4.9l-.092.234.219-.119a.25.25,0,0,1-.032.284.26.26,0,0,1-.187.084.272.272,0,0,1-.094-.017M4.545,4.22c.372.154.739.3,1.034.421C5.441,4.4,5.272,4.1,5.09,3.8A10.17,10.17,0,0,0,3.86,2.013a4.1,4.1,0,0,0-.656.639,2.982,2.982,0,0,0-.5.767c.234.124,1.072.488,1.838.8" transform="translate(1.297 0.875)" fill="#e3007f"/>
        <path id="パス_3967" data-name="パス 3967" d="M8.266,4.355s2.472-2.8,2.205-3.117-2-1.044-2.1-.666-.106,3.783-.106,3.783" transform="translate(4.866 0.274)" fill="#e3007f"/>
        <path id="パス_3968" data-name="パス 3968" d="M8.27,4.681a.251.251,0,0,1-.162-.235s0-.852.017-1.752a19.538,19.538,0,0,1,.1-2.088.441.441,0,0,1,.469-.3,4.118,4.118,0,0,1,2.067.861.354.354,0,0,1,.078.227,1.908,1.908,0,0,1-.391.839c-.214.319-.5.688-.777,1.041-.561.7-1.118,1.334-1.12,1.336l-.187-.165.187.165a.251.251,0,0,1-.187.086.246.246,0,0,1-.089-.017M8.626,2.7c-.006.386-.01.763-.013,1.066.137-.16.294-.348.456-.548a12.321,12.321,0,0,0,1.2-1.654,1.03,1.03,0,0,0,.057-.124A4.459,4.459,0,0,0,8.694.808c-.029.276-.057,1.125-.068,1.894" transform="translate(4.773 0.182)" fill="#e3007f"/>
        <path id="パス_3969" data-name="パス 3969" d="M2.15,19.261A14.41,14.41,0,0,0,7.928,22.54S6.57,22.7,19.1,34.977l8.085-3.169s-6.99-5.357-10.3-9.3-2.585-7.232-2.07-8.646c.859-2.362,3.851-5.673,4.286-6.9.526-1.489-1.573-2.814-3.7-1.395A23.861,23.861,0,0,0,12.527,8.74,19.688,19.688,0,0,0,8.548,5.3C5.99,3.97,3.813,5.917,3.961,7.034Z" transform="translate(1.266 2.857)" fill="#fff"/>
        <path id="パス_3970" data-name="パス 3970" d="M28.565,34.721c-.006,0-2.331-1.8-5.076-4.094a70.294,70.294,0,0,1-7.649-7.146A10.4,10.4,0,0,1,13.1,16.75a8.289,8.289,0,0,1,.507-2.856c.753-2.029,2.631-4.321,3.662-5.849A6.062,6.062,0,0,0,17.886,7a.427.427,0,0,0,.027-.145.435.435,0,0,0-.2-.342,1.25,1.25,0,0,0-.785-.24,2.37,2.37,0,0,0-1.309.445,12.233,12.233,0,0,0-1.56,1.624c-.6.7-1.091,1.339-1.093,1.341a.957.957,0,0,1-1.468.051s-.132-.148-.364-.392-.562-.58-.939-.94a12.482,12.482,0,0,0-2.408-1.9,2.8,2.8,0,0,0-1.3-.342,2.185,2.185,0,0,0-1.814.918A.564.564,0,0,0,4.6,7.27a6.567,6.567,0,0,0,1.5,3.158,7.886,7.886,0,0,0,1.674,1.584,1.519,1.519,0,0,0,.761.207,1.374,1.374,0,0,0,.829-.268c.2-.157.241-.292.24-.375v-.019a1.147,1.147,0,0,0-.391-.726,2.172,2.172,0,0,0-.486-.353.957.957,0,0,1,.82-1.73,4,4,0,0,1,.91.624,3.1,3.1,0,0,1,1.056,2.056q0,.067,0,.148a2.411,2.411,0,0,1-.974,1.883,3.282,3.282,0,0,1-2.01.675,3.44,3.44,0,0,1-1.713-.461,9.312,9.312,0,0,1-2.208-2.037A8.443,8.443,0,0,1,2.7,7.529a1.854,1.854,0,0,1-.017-.251,2.838,2.838,0,0,1,1.161-2.1A4.2,4.2,0,0,1,6.49,4.25a4.71,4.71,0,0,1,2.186.559A16.423,16.423,0,0,1,12.154,7.64c.138-.167.289-.35.448-.537a12.514,12.514,0,0,1,1.956-1.975,4.279,4.279,0,0,1,2.373-.769,3.163,3.163,0,0,1,1.987.664,2.3,2.3,0,0,1,.772,2.615,7.29,7.29,0,0,1-.844,1.484c-.37.54-.813,1.145-1.263,1.778A18,18,0,0,0,15.4,14.549a6.365,6.365,0,0,0-.389,2.2,8.479,8.479,0,0,0,2.294,5.5,68.907,68.907,0,0,0,7.411,6.908c2.715,2.269,5.014,4.045,5.017,4.048l0,0a.957.957,0,1,1-1.171,1.514" transform="translate(1.579 2.502)" fill="#9bc948"/>
        <path id="パス_3971" data-name="パス 3971" d="M7.039,15.15a4.2,4.2,0,0,1-2.159-.683,9.56,9.56,0,0,1-2.2-2.076A6.6,6.6,0,0,1,1.2,9.588a3.289,3.289,0,0,1-.037-.475,3.149,3.149,0,0,1,1.716-2.7,5.611,5.611,0,0,1,1.525-.6A.958.958,0,0,1,4.8,7.681L4.74,7.7c-.051.013-.129.035-.222.067a3.61,3.61,0,0,0-.674.3c-.491.3-.767.607-.766,1.05a1.381,1.381,0,0,0,.014.189,5.167,5.167,0,0,0,1.079,1.891,7.978,7.978,0,0,0,1.7,1.636,2.321,2.321,0,0,0,1.171.407,1.046,1.046,0,0,0,.825-.418,2.49,2.49,0,0,0,.411-.716l.01-.029a.957.957,0,0,1,1.835.547A4.3,4.3,0,0,1,9.5,13.836a3.033,3.033,0,0,1-2.45,1.314Z" transform="translate(0.685 3.406)" fill="#9bc948"/>
        <path id="パス_3972" data-name="パス 3972" d="M6.321,17.1a5.5,5.5,0,0,1-2.853-1.214A9.3,9.3,0,0,1,1.083,13.47a4.882,4.882,0,0,1-.845-2.577A3.383,3.383,0,0,1,1.3,8.438a3.969,3.969,0,0,1,1.053-.732v0a.957.957,0,0,1,.775,1.749l-.017.008C3.09,9.477,3.05,9.5,3,9.53a2.081,2.081,0,0,0-.367.284,1.45,1.45,0,0,0-.481,1.079,3.008,3.008,0,0,0,.553,1.56,7.542,7.542,0,0,0,1.881,1.879,5,5,0,0,0,1.652.85,1.422,1.422,0,0,0,.458-1,1.206,1.206,0,0,0-.137-.553v0A.957.957,0,0,1,8.14,12.55a3.009,3.009,0,0,1,.47,1.633,3.456,3.456,0,0,1-1.155,2.493,1.617,1.617,0,0,1-1.122.424Z" transform="translate(0.14 4.489)" fill="#9bc948"/>
        <path id="パス_3973" data-name="パス 3973" d="M.612,14.936A3.457,3.457,0,0,1,0,12.969a4.693,4.693,0,0,1,.909-2.642.957.957,0,0,1,1.519,1.164l-.006.011c-.013.017-.032.044-.057.084a3.438,3.438,0,0,0-.187.338,2.544,2.544,0,0,0-.262,1.044,1.516,1.516,0,0,0,.276.885,4.145,4.145,0,0,0,3.061,1.975,1.173,1.173,0,0,0,.137-.008,1.152,1.152,0,0,0,.122-.315,3.28,3.28,0,0,0,.094-.734.894.894,0,0,1,.008-.126.957.957,0,0,1,1.906.126.726.726,0,0,1-.008.1,3.847,3.847,0,0,1-.575,2.072,1.82,1.82,0,0,1-1.157.75,3.065,3.065,0,0,1-.527.044A5.984,5.984,0,0,1,.612,14.936" transform="translate(0 5.859)" fill="#9bc948"/>
        <path id="パス_3974" data-name="パス 3974" d="M22.327,33.695C12.849,25.982,8.594,19.819,7.66,18.366A15.038,15.038,0,0,1,1.825,14.95v0A.958.958,0,0,1,3.185,13.6,13.393,13.393,0,0,0,8.405,16.6l.122.035a.95.95,0,0,1,.58.438s.048.083.17.272.31.473.57.844c.523.742,1.333,1.829,2.477,3.187A83.568,83.568,0,0,0,23.536,32.211a.957.957,0,0,1-1.209,1.484" transform="translate(0.911 7.841)" fill="#9bc948"/>
      </g>
      <g id="グループ_2750" data-name="グループ 2750" transform="translate(0)">
        <path id="パス_3939" data-name="パス 3939" d="M107.439,24.583a17.737,17.737,0,0,0,21.186-6.269s-1.854-.284-3.379-.521c-2.609-.405-6.182-1.006-8.97-.017a17.4,17.4,0,0,0-8.838,6.807" transform="translate(63.246 10.148)" fill="#f7b400"/>
        <path id="パス_3940" data-name="パス 3940" d="M105.924,26.116a16.8,16.8,0,0,0,10.741-2.826,17.072,17.072,0,0,0,6.841-8.638s-1.992.273-3.444.453a19,19,0,0,0-7.978,2.734,14.529,14.529,0,0,0-6.159,8.277" transform="translate(62.354 8.625)" fill="#f7b400"/>
        <path id="パス_3941" data-name="パス 3941" d="M97.409,49.028A12.214,12.214,0,1,1,89.38,26.849,14.9,14.9,0,0,0,101.611,18.2,12.218,12.218,0,0,1,124.8,22.3,14.891,14.891,0,0,0,133.324,34.6a12.215,12.215,0,1,1-15.123,18.1,14.932,14.932,0,0,0-20.793-3.663" transform="translate(46.026 6.614)" fill="#45b1e6"/>
        <path id="長方形_1006" data-name="長方形 1006" d="M.605,0H3.459a.606.606,0,0,1,.606.606V1.934a.6.6,0,0,1-.6.6H.6a.6.6,0,0,1-.6-.6V.605A.605.605,0,0,1,.605,0Z" transform="translate(154.848 25.949) rotate(-79.958)" fill="#fff"/>
        <path id="パス_3942" data-name="パス 3942" d="M104.053,17.955a.957.957,0,0,1-1.114.777l-.61-.1a.959.959,0,0,1-.778-1.114l.372-2.113a.959.959,0,0,1,1.112-.775l.61.106a.963.963,0,0,1,.78,1.115Z" transform="translate(59.771 8.601)" fill="#fff"/>
        <path id="パス_3943" data-name="パス 3943" d="M101.469,23.211a6.835,6.835,0,0,0,6.707-2.715.223.223,0,0,0-.057-.3l-1.354-.915a.207.207,0,0,0-.286.081,4.776,4.776,0,0,1-8.4-1.482.207.207,0,0,0-.241-.172l-1.587.4a.221.221,0,0,0-.156.265,6.828,6.828,0,0,0,5.371,4.845" transform="translate(56.566 10.42)" fill="#fff"/>
        <path id="パス_3944" data-name="パス 3944" d="M111.256,31.15,108.7,25.718a.619.619,0,0,0-.45-.337L97.406,23.468a.627.627,0,0,0-.537.162l-4.256,4.231a.624.624,0,0,0-.087.852l7.413,9.643a.626.626,0,0,0,.847.149l10.261-6.528a.613.613,0,0,0,.28-.416.628.628,0,0,0-.07-.411" transform="translate(54.391 13.81)" fill="#fff"/>
        <path id="パス_3945" data-name="パス 3945" d="M101.7,26.534l-1.409-.248.248-1.408-2.817-.5-.248,1.408-1.409-.248-.5,2.818,1.409.248-.994,5.637,2.818.5L99.8,29.1l1.411.248a1.429,1.429,0,0,1,1.16,1.657l-.995,5.638,2.818.5.994-5.638a4.294,4.294,0,0,0-3.482-4.973" transform="translate(56.261 14.353)" fill="#45b1e6"/>
        <path id="パス_3946" data-name="パス 3946" d="M101.949,24.73A27.748,27.748,0,0,0,118.2,22.144a.639.639,0,0,1,.869.362.951.951,0,0,1-.2,1.145c-5.951,4.42-11.642,6.166-18.959,5.486S90.374,23.682,91.4,18.4c.165-.852.729-1.288.991-1.071a.917.917,0,0,1,.2.364c1,3.822,4.105,6.263,9.359,7.041" transform="translate(53.665 10.167)" fill="#f7b400"/>
        <path id="パス_3975" data-name="パス 3975" d="M120.135,7.522s-.207-4.018.2-4.094,2.254.505,2.094.883-2.3,3.211-2.3,3.211" transform="translate(70.69 2.014)" fill="#e3007f"/>
        <path id="パス_3976" data-name="パス 3976" d="M120.154,7.854a.25.25,0,0,1-.176-.226s-.052-1.02-.052-2.046a8.755,8.755,0,0,1,.14-1.935c.051-.129.065-.294.316-.372a.683.683,0,0,1,.14-.013,4.694,4.694,0,0,1,1.9.6.63.63,0,0,1,.357.489.411.411,0,0,1-.029.148,20.075,20.075,0,0,1-1.238,1.8c-.554.756-1.09,1.466-1.09,1.466a.251.251,0,0,1-.2.1.227.227,0,0,1-.073-.011m.073-.24.251-.013Zm.318-3.829a2.436,2.436,0,0,0-.07.426c-.037.369-.049.871-.049,1.371,0,.475.011.95.024,1.319.189-.254.426-.572.664-.9.494-.669,1.025-1.422,1.15-1.636a.663.663,0,0,0-.108-.083,2.967,2.967,0,0,0-.524-.249,4.34,4.34,0,0,0-1.08-.272l-.006.022" transform="translate(70.596 1.921)" fill="#e3007f"/>
        <path id="パス_3977" data-name="パス 3977" d="M121.712,8.3s1.914-3.538,2.3-3.39,1.662,1.608,1.328,1.844S121.712,8.3,121.712,8.3" transform="translate(71.648 2.89)" fill="#e3007f"/>
        <path id="パス_3978" data-name="パス 3978" d="M121.616,8.561a.247.247,0,0,1-.032-.284,23.389,23.389,0,0,1,2.1-3.308.6.6,0,0,1,.4-.219.274.274,0,0,1,.113.021,3.091,3.091,0,0,1,.925.821,2.281,2.281,0,0,1,.62,1.133.4.4,0,0,1-.157.329,19.658,19.658,0,0,1-1.994.89c-.867.357-1.69.685-1.692.685a.245.245,0,0,1-.094.017.249.249,0,0,1-.187-.084m.407-.048L121.8,8.4Zm2.013-3.192a3.191,3.191,0,0,0-.3.356c-.227.308-.494.729-.748,1.15-.232.384-.454.769-.629,1.074.3-.119.662-.267,1.037-.421.766-.313,1.609-.678,1.835-.8a2.871,2.871,0,0,0-.5-.767,3.814,3.814,0,0,0-.653-.637.306.306,0,0,0-.048.044" transform="translate(71.555 2.796)" fill="#e3007f"/>
        <path id="パス_3979" data-name="パス 3979" d="M118.952,7.618s-2.472-2.8-2.205-3.117,2-1.044,2.1-.666.106,3.783.106,3.783" transform="translate(68.713 2.196)" fill="#e3007f"/>
        <path id="パス_3980" data-name="パス 3980" d="M118.856,7.875a29.959,29.959,0,0,1-1.9-2.378,1.878,1.878,0,0,1-.391-.837.334.334,0,0,1,.081-.229,4.108,4.108,0,0,1,2.064-.859.443.443,0,0,1,.467.294,18.3,18.3,0,0,1,.1,2.091c.014.9.017,1.754.017,1.754h-.249l.186-.165-.186.165h.249a.253.253,0,0,1-.16.235.3.3,0,0,1-.089.016.251.251,0,0,1-.189-.086m-1.719-3.047a3.721,3.721,0,0,0,.237.391c.2.3.478.662.753,1.007.235.3.47.577.662.805,0-.305-.006-.682-.013-1.068-.01-.769-.04-1.622-.068-1.892a4.393,4.393,0,0,0-1.625.632.984.984,0,0,0,.054.124" transform="translate(68.62 2.102)" fill="#e3007f"/>
        <path id="パス_3981" data-name="パス 3981" d="M133.35,22.524a14.41,14.41,0,0,1-5.778,3.279s-2.184,4.825-12.107,13.2l-6.693-4.369s6.531-4.922,9.842-8.862,2.585-7.232,2.07-8.646c-.859-2.362-3.851-5.673-4.285-6.9-.527-1.489,1.573-2.814,3.7-1.395A23.863,23.863,0,0,1,122.973,12a19.666,19.666,0,0,1,3.981-3.438c2.556-1.333,4.733.615,4.585,1.732Z" transform="translate(64.03 4.778)" fill="#fff"/>
        <path id="パス_3982" data-name="パス 3982" d="M106.647,37.811a.955.955,0,0,1,.173-1.342s2.3-1.779,5.017-4.048a68.914,68.914,0,0,0,7.411-6.908,8.478,8.478,0,0,0,2.292-5.5,6.429,6.429,0,0,0-.389-2.2c-.534-1.516-2.345-3.833-3.444-5.425a7.333,7.333,0,0,1-.844-1.484,2.306,2.306,0,0,1,.771-2.615,3.154,3.154,0,0,1,1.987-.664A4.291,4.291,0,0,1,122,8.392a12.374,12.374,0,0,1,1.954,1.975c.159.187.311.37.45.537a16.423,16.423,0,0,1,3.478-2.831,4.708,4.708,0,0,1,2.186-.561,4.2,4.2,0,0,1,2.645.933,2.83,2.83,0,0,1,1.16,2.1,1.991,1.991,0,0,1-.013.237,8.449,8.449,0,0,1-1.914,4.121,9.273,9.273,0,0,1-2.207,2.037,3.423,3.423,0,0,1-1.716.461,3.282,3.282,0,0,1-2.011-.674,2.412,2.412,0,0,1-.972-1.883,1.507,1.507,0,0,1,.008-.165,3.078,3.078,0,0,1,1.055-2.038,3.85,3.85,0,0,1,.91-.624.957.957,0,0,1,.82,1.728l-.019.011c-.019.01-.054.029-.1.056a2.435,2.435,0,0,0-.326.245,1.188,1.188,0,0,0-.434.767l0,.021c0,.083.043.218.238.375a1.365,1.365,0,0,0,.831.267,1.514,1.514,0,0,0,.764-.207,7.908,7.908,0,0,0,1.673-1.582,6.586,6.586,0,0,0,1.5-3.15v0a.645.645,0,0,0-.081-.194,1.587,1.587,0,0,0-.372-.416,2.292,2.292,0,0,0-1.439-.5,2.775,2.775,0,0,0-1.3.342,16.69,16.69,0,0,0-3.347,2.836c-.232.245-.364.391-.364.391a.954.954,0,0,1-1.468-.051s-.5-.635-1.093-1.341a12.192,12.192,0,0,0-1.56-1.622,2.365,2.365,0,0,0-1.311-.445,1.24,1.24,0,0,0-.785.24.43.43,0,0,0-.2.34.448.448,0,0,0,.027.146,6.138,6.138,0,0,0,.62,1.042c.342.5.782,1.1,1.241,1.746a19.352,19.352,0,0,1,2.423,4.107,8.359,8.359,0,0,1,.5,2.855,10.4,10.4,0,0,1-2.74,6.73,70.443,70.443,0,0,1-7.649,7.147c-2.745,2.294-5.069,4.088-5.076,4.094a.959.959,0,0,1-1.342-.173" transform="translate(62.662 4.422)" fill="#45b1e6"/>
        <path id="パス_3983" data-name="パス 3983" d="M120.229,17.1a4.247,4.247,0,0,1-.623-1.217.957.957,0,1,1,1.835-.545l.01.027c.011.032.03.083.059.146a2.516,2.516,0,0,0,.262.456,1.1,1.1,0,0,0,.913.532,2.328,2.328,0,0,0,1.171-.407,7.941,7.941,0,0,0,1.7-1.636,5.157,5.157,0,0,0,1.077-1.884,1.548,1.548,0,0,0,.014-.194,1.127,1.127,0,0,0-.594-.944,3.694,3.694,0,0,0-1.066-.475l-.059-.014a.957.957,0,0,1,.394-1.873,5.552,5.552,0,0,1,1.525.6,3.146,3.146,0,0,1,1.714,2.7,3.417,3.417,0,0,1-.035.47,6.586,6.586,0,0,1-1.477,2.806,9.511,9.511,0,0,1-2.2,2.078,4.2,4.2,0,0,1-2.159.682h-.008a3.028,3.028,0,0,1-2.448-1.314" transform="translate(70.385 5.327)" fill="#45b1e6"/>
        <path id="パス_3984" data-name="パス 3984" d="M122.034,19.932a3.439,3.439,0,0,1-1.15-2.486,2.993,2.993,0,0,1,.472-1.635.957.957,0,1,1,1.579,1.082h0a.763.763,0,0,0-.054.113,1.19,1.19,0,0,0-.084.44,1.422,1.422,0,0,0,.458,1,5.016,5.016,0,0,0,1.652-.848,7.514,7.514,0,0,0,1.881-1.879,3,3,0,0,0,.553-1.562,1.428,1.428,0,0,0-.432-1.029,2.2,2.2,0,0,0-.542-.405h0l-.008,0a.957.957,0,0,1,.78-1.748,3.8,3.8,0,0,1,1.052.732,3.371,3.371,0,0,1,1.064,2.453,4.882,4.882,0,0,1-.845,2.577,9.36,9.36,0,0,1-2.385,2.418,5.493,5.493,0,0,1-2.853,1.212h-.014a1.61,1.61,0,0,1-1.125-.429" transform="translate(71.16 6.41)" fill="#45b1e6"/>
        <path id="パス_3985" data-name="パス 3985" d="M123.385,20.958a1.8,1.8,0,0,1-1.142-.748,2.865,2.865,0,0,1-.427-.96,5.108,5.108,0,0,1-.156-1.215.937.937,0,0,1,.019-.2.957.957,0,0,1,1.9.219,3.139,3.139,0,0,0,.044.478,1.688,1.688,0,0,0,.17.546,1.262,1.262,0,0,0,.138.006,4.139,4.139,0,0,0,3.06-1.972,1.529,1.529,0,0,0,.276-.888,2.863,2.863,0,0,0-.505-1.466l-.008-.011a.957.957,0,0,1,1.52-1.163,4.682,4.682,0,0,1,.907,2.64,3.451,3.451,0,0,1-.61,1.968A5.986,5.986,0,0,1,123.927,21a3.2,3.2,0,0,1-.542-.046" transform="translate(71.618 7.779)" fill="#45b1e6"/>
        <path id="パス_3986" data-name="パス 3986" d="M111,36.82a.959.959,0,0,1,.137-1.347c9.283-7.553,13.405-13.545,14.258-14.868.122-.189.17-.272.17-.272a.95.95,0,0,1,.58-.438l.122-.037c.087-.027.219-.068.386-.124.334-.114.807-.291,1.349-.537a11.945,11.945,0,0,0,3.486-2.331h0a.957.957,0,0,1,1.358,1.347,15.037,15.037,0,0,1-5.835,3.416c-.934,1.452-5.185,7.616-14.665,15.329A.959.959,0,0,1,111,36.82" transform="translate(65.215 9.762)" fill="#45b1e6"/>
        <rect id="長方形_1009" data-name="長方形 1009" width="200.795" height="64.805" transform="translate(0 0)" fill="none"/>
      </g>
      <path id="パス_3947" data-name="パス 3947" d="M71.223,24.15A17.737,17.737,0,0,0,88.987,11.013s-1.84.369-3.354.667c-2.591.512-6.153,1.168-8.436,3.05a17.394,17.394,0,0,0-5.975,9.419" transform="translate(46.164 14.816)" fill="#9bc948"/>
      <path id="パス_3948" data-name="パス 3948" d="M69.808,26.027A16.791,16.791,0,0,0,78.933,19.7,17.065,17.065,0,0,0,82.408,9.241s-1.779.939-3.082,1.6a18.974,18.974,0,0,0-6.561,5.3,14.53,14.53,0,0,0-2.956,9.883" transform="translate(45.32 13.773)" fill="#9bc948"/>
      <path id="パス_3949" data-name="パス 3949" d="M67.841,52.879A12.214,12.214,0,1,1,52.709,34.784a14.895,14.895,0,0,0,8.534-12.315A12.217,12.217,0,0,1,84.437,18.4a14.894,14.894,0,0,0,12.217,8.636,12.215,12.215,0,1,1-8.023,22.178,14.928,14.928,0,0,0-20.791,3.668" transform="translate(31.091 15.056)" fill="#f7b400"/>
      <path id="長方形_1007" data-name="長方形 1007" d="M.6,0H1.935a.6.6,0,0,1,.6.6V3.461a.6.6,0,0,1-.6.6H.605A.605.605,0,0,1,0,3.459V.6A.6.6,0,0,1,.6,0Z" transform="translate(98.794 32.129) rotate(-10.042)" fill="#fff"/>
      <path id="パス_3950" data-name="パス 3950" d="M66.475,17a.957.957,0,0,1-.78,1.11l-.61.111a.961.961,0,0,1-1.112-.78L63.6,15.327a.959.959,0,0,1,.78-1.109l.61-.106a.958.958,0,0,1,1.114.778Z" transform="translate(41.667 16.631)" fill="#fff"/>
      <path id="パス_3951" data-name="パス 3951" d="M66,23.4a6.83,6.83,0,0,0,5.373-4.845.222.222,0,0,0-.157-.265l-1.584-.4a.208.208,0,0,0-.241.175,4.777,4.777,0,0,1-8.4,1.479.208.208,0,0,0-.286-.079l-1.354.915a.22.22,0,0,0-.057.3A6.83,6.83,0,0,0,66,23.4" transform="translate(39.12 18.862)" fill="#fff"/>
      <path id="パス_3952" data-name="パス 3952" d="M77.382,28.049l-4.256-4.231a.625.625,0,0,0-.539-.164L61.74,25.567a.629.629,0,0,0-.45.337l-2.553,5.432a.631.631,0,0,0-.068.411.623.623,0,0,0,.278.418l10.264,6.528a.619.619,0,0,0,.453.094.626.626,0,0,0,.394-.245L77.47,28.9a.622.622,0,0,0-.087-.85" transform="translate(38.769 22.252)" fill="#fff"/>
      <path id="パス_3953" data-name="パス 3953" d="M67.111,26.091l-1.409.248-.248-1.408-2.817.5.248,1.408-1.409.248.5,2.82,1.408-.249.994,5.637,2.818-.5L66.2,29.158l1.409-.249a1.431,1.431,0,0,1,1.659,1.16h0l.995,5.638,2.818-.5-.995-5.638a4.293,4.293,0,0,0-4.973-3.481" transform="translate(40.426 23.009)" fill="#f7b400"/>
      <path id="パス_3954" data-name="パス 3954" d="M66.83,25.653a27.747,27.747,0,0,0,14.39-7.989.641.641,0,0,1,.942.043.952.952,0,0,1,.2,1.145c-4.08,6.186-8.83,9.773-15.941,11.639S55.6,28.627,54.749,23.311c-.137-.858.245-1.462.566-1.347a.949.949,0,0,1,.313.273c2.246,3.25,6,4.482,11.2,3.416" transform="translate(36.45 18.622)" fill="#9bc948"/>
    </g>
    <g id="グループ_2285" data-name="グループ 2285" transform="translate(1315.039 1699.62)">
      <rect id="長方形_1012" data-name="長方形 1012" width="71.575" height="16.385" rx="8.192" transform="translate(0 0)" fill="#158acc"/>
      <path id="多角形_91" data-name="多角形 91" d="M4.743,0,9.486,10.348H0Z" transform="translate(40.53 21.559) rotate(180)" fill="#158acc"/>
      <text id="みんなで解決_" data-name="みんなで解決!!" transform="translate(4.312 10.449)" fill="#fff" font-size="8" font-family="HiraginoSans-W6, Hiragino Sans" letter-spacing="0.1em"><tspan x="0" y="0">みんなで解決!!</tspan></text>
    </g>
    <path id="パス_109248" data-name="パス 109248" d="M6.5-5.265a3.539,3.539,0,0,0-.442-.78A2.792,2.792,0,0,0,3.731-7.137C1.859-7.137.65-5.733.65-3.549c0,2.132,1.222,3.5,3.146,3.5a2.741,2.741,0,0,0,2.262-1,3.287,3.287,0,0,0,.533-.936l-.637-.234A2.013,2.013,0,0,1,3.861-.65C2.3-.65,1.326-1.781,1.326-3.575c0-1.82.962-2.99,2.47-2.99a2.056,2.056,0,0,1,2.08,1.547ZM11.18-.052c1.963,0,3.237-1.391,3.237-3.549s-1.274-3.523-3.276-3.523S7.865-5.746,7.865-3.575A3.192,3.192,0,0,0,11.18-.052Zm0-6.5c1.573,0,2.561,1.144,2.561,2.951,0,1.846-.975,2.964-2.587,2.964S8.541-1.755,8.541-3.575C8.541-5.421,9.542-6.552,11.18-6.552Zm5.59-.429h-.728a8.4,8.4,0,0,1,.091,1.352v4.082a8.508,8.508,0,0,1-.091,1.352h.819a9.081,9.081,0,0,1-.091-1.352V-4.095a2.264,2.264,0,0,1,2.2-2.457c1.027,0,1.586.65,1.586,1.859v3.146a7.879,7.879,0,0,1-.091,1.352h.832A7.618,7.618,0,0,1,21.2-1.534V-4.095a2.27,2.27,0,0,1,2.132-2.457c1.131,0,1.638.572,1.638,1.859v3.146a7.879,7.879,0,0,1-.091,1.352h.832a7.618,7.618,0,0,1-.091-1.339V-4.8c0-1.573-.728-2.327-2.223-2.327a2.323,2.323,0,0,0-1.677.624,3.03,3.03,0,0,0-.663.9,2.083,2.083,0,0,0-.364-.832,2.056,2.056,0,0,0-1.677-.689,2.3,2.3,0,0,0-2.275,1.456,4.274,4.274,0,0,0,.026-.481ZM27.638-9.854v.923h.949v-.923Zm.052,2.873a8.4,8.4,0,0,1,.091,1.352v4.082A10.257,10.257,0,0,1,27.69-.195h.832a9.081,9.081,0,0,1-.091-1.352V-5.616a8.249,8.249,0,0,1,.091-1.365Zm3.575,0h-.741a7.9,7.9,0,0,1,.1,1.352v4.082a7.414,7.414,0,0,1-.1,1.352h.832a9.081,9.081,0,0,1-.091-1.352v-2.47a3.091,3.091,0,0,1,1.17-2.08,2.246,2.246,0,0,1,1.313-.468c1.17,0,1.794.663,1.794,1.911v3.107a9.2,9.2,0,0,1-.091,1.352h.832a7.426,7.426,0,0,1-.091-1.339V-4.8a2.139,2.139,0,0,0-2.327-2.327,2.668,2.668,0,0,0-2.119.923,2.445,2.445,0,0,0-.52.858,5.057,5.057,0,0,0,.039-.572Zm6.994,8.45A3.238,3.238,0,0,0,41,2.756c2.2,0,3.2-1.118,3.2-3.549V-5.6a8.741,8.741,0,0,1,.091-1.378h-.715V-6.1a4.531,4.531,0,0,0,.039.572,2.623,2.623,0,0,0-2.574-1.586c-1.924,0-3.146,1.378-3.146,3.562,0,2.158,1.17,3.471,3.094,3.471a2.684,2.684,0,0,0,2.626-1.573c-.026.416-.039.533-.052.845A5.151,5.151,0,0,1,43.394.52a2.156,2.156,0,0,1-2.353,1.664,2.561,2.561,0,0,1-1.716-.572,1.869,1.869,0,0,1-.494-.546Zm.312-5.018c0-1.859.936-2.99,2.47-2.99,1.56,0,2.522,1.092,2.522,2.886,0,1.82-1.027,3-2.6,3C39.455-.65,38.571-1.729,38.571-3.549ZM50.18-1.989A2.3,2.3,0,0,0,50.557-1a2.877,2.877,0,0,0,2.379.936c1.677,0,2.7-.754,2.7-1.976a1.519,1.519,0,0,0-.728-1.391A5.551,5.551,0,0,0,53.118-4a7.658,7.658,0,0,1-1.313-.39.926.926,0,0,1-.65-.871c0-.767.728-1.3,1.755-1.3a1.933,1.933,0,0,1,1.443.533,1.242,1.242,0,0,1,.351.741l.689-.156a1.954,1.954,0,0,0-.676-1.131,2.781,2.781,0,0,0-1.833-.559c-1.43,0-2.405.741-2.405,1.859a1.433,1.433,0,0,0,.481,1.131,4.2,4.2,0,0,0,1.963.728c1.664.338,2.041.6,2.041,1.391,0,.845-.767,1.378-1.976,1.378a2.387,2.387,0,0,1-1.612-.481,1.552,1.552,0,0,1-.468-1.014ZM60.19-.052c1.963,0,3.237-1.391,3.237-3.549s-1.274-3.523-3.276-3.523-3.276,1.378-3.276,3.549A3.192,3.192,0,0,0,60.19-.052Zm0-6.5c1.573,0,2.561,1.144,2.561,2.951,0,1.846-.975,2.964-2.587,2.964s-2.613-1.118-2.613-2.938C57.551-5.421,58.552-6.552,60.19-6.552Zm7.852,6.5c1.963,0,3.237-1.391,3.237-3.549S70.005-7.124,68-7.124s-3.276,1.378-3.276,3.549A3.192,3.192,0,0,0,68.042-.052Zm0-6.5c1.573,0,2.561,1.144,2.561,2.951,0,1.846-.975,2.964-2.587,2.964S65.4-1.755,65.4-3.575C65.4-5.421,66.4-6.552,68.042-6.552Zm5.6-.429H72.9a7.9,7.9,0,0,1,.1,1.352v4.082a7.414,7.414,0,0,1-.1,1.352h.832a9.08,9.08,0,0,1-.091-1.352v-2.47a3.091,3.091,0,0,1,1.17-2.08,2.246,2.246,0,0,1,1.313-.468c1.17,0,1.794.663,1.794,1.911v3.107a9.2,9.2,0,0,1-.091,1.352h.832a7.426,7.426,0,0,1-.091-1.339V-4.8a2.139,2.139,0,0,0-2.327-2.327,2.668,2.668,0,0,0-2.119.923,2.445,2.445,0,0,0-.52.858,5.057,5.057,0,0,0,.039-.572Zm12.48,1.209a.838.838,0,0,0-.832.832.838.838,0,0,0,.832.832.838.838,0,0,0,.832-.832A.838.838,0,0,0,86.125-5.772Zm13,0a.838.838,0,0,0-.832.832.838.838,0,0,0,.832.832.838.838,0,0,0,.832-.832A.838.838,0,0,0,99.125-5.772Zm13,0a.838.838,0,0,0-.832.832.838.838,0,0,0,.832.832.838.838,0,0,0,.832-.832A.838.838,0,0,0,112.125-5.772Zm12.818-1.144V-8.749a19.953,19.953,0,0,0,3.913-.858c.39-.13.429-.143,1.456-.572l-.546-.494a7.842,7.842,0,0,1-2.522.988,13.306,13.306,0,0,1-2.9.481c.039.351.052.884.052,1.7a20.511,20.511,0,0,1-.3,4.082,4.128,4.128,0,0,1-.923,1.9,1.977,1.977,0,0,1,.455.4,5.536,5.536,0,0,0,1.027-2.418,15.588,15.588,0,0,0,.273-2.886h3.081v4.407a7.039,7.039,0,0,1-.078,1.261h.715a6.248,6.248,0,0,1-.091-1.261V-6.422h1.2a6.114,6.114,0,0,1,1.079.065v-.624a5.851,5.851,0,0,1-1.079.065Zm-2.782,2.821a9.862,9.862,0,0,1,.065-1.352,5.912,5.912,0,0,1-.988.065h-.819a5.038,5.038,0,0,1-.988-.065v.6a5.2,5.2,0,0,1,.988-.065h1.209v3.172a8.289,8.289,0,0,1-2.34,1.794l.338.572a5.588,5.588,0,0,1,.481-.4,14.452,14.452,0,0,0,1.742-1.547,3.34,3.34,0,0,0,.9,1.027c.78.572,1.7.767,3.653.767,1.729,0,3.3-.026,4.667-.091a2.633,2.633,0,0,1,.26-.676,31.583,31.583,0,0,1-4.667.247c-2.054,0-2.821-.117-3.5-.533a2.063,2.063,0,0,1-1-1.183Zm-2.223-5.837a10.94,10.94,0,0,1,2,2.366l.442-.364a15.679,15.679,0,0,0-2.015-2.353Zm14.1,9.373a8.25,8.25,0,0,1-.078,1.287h.663V-.156h7.007V.728h.663a8.555,8.555,0,0,1-.078-1.3V-8.879a6.589,6.589,0,0,1,.065-1.131,9.013,9.013,0,0,1-1.326.065h-5.616a10.067,10.067,0,0,1-1.365-.065,8,8,0,0,1,.065,1.235Zm.585-8.866h7.007V-5.5h-7.007Zm0,4.433h7.007V-.676h-7.007ZM150.4-6.981a15.706,15.706,0,0,1-.767,2.236A30.143,30.143,0,0,1,147.589-.52c-.468.026-.637.026-.845.026s-.481-.013-.884-.026l.182.7a9.105,9.105,0,0,1,1.482-.143c2.353-.13,5.07-.4,7.189-.728.312.52.455.767.793,1.43L156,.39a32.179,32.179,0,0,0-3.2-4.654l-.455.3a25.03,25.03,0,0,1,2.106,2.847,60.62,60.62,0,0,1-6.24.572c.494-.884.715-1.313,1.053-2.028.507-1.092,1.261-2.834,1.534-3.575a4.676,4.676,0,0,1,.26-.611Zm-1.079-3.289a4.57,4.57,0,0,1-.728,1.677,11.369,11.369,0,0,1-3.484,3.575,1.587,1.587,0,0,1,.455.429,13.224,13.224,0,0,0,1.885-1.638,13.439,13.439,0,0,0,2.21-3.146,3.811,3.811,0,0,1,.364-.663Zm2.821.234c.091.143.208.351.3.533a13.962,13.962,0,0,0,4.316,4.953,1.778,1.778,0,0,1,.442-.494,12.9,12.9,0,0,1-2.951-2.665,9.21,9.21,0,0,1-1.482-2.587Zm10.4,5.005c-.013,1.235-.026,1.391-.065,1.833h-.7a7.242,7.242,0,0,1-1.209-.065v.572a7.435,7.435,0,0,1,1.209-.065h.663a4.118,4.118,0,0,1-.364,1.443A3.287,3.287,0,0,1,160.706.234a1.62,1.62,0,0,1,.455.351,4.081,4.081,0,0,0,1.4-1.794,4.908,4.908,0,0,0,.39-1.547h2.184V-.6A5.64,5.64,0,0,1,165.061.52h.663A5.208,5.208,0,0,1,165.646-.6V-2.756h.871a7.533,7.533,0,0,1,1.209.065v-.572a7.242,7.242,0,0,1-1.209.065h-.871V-5.031h.676a9.661,9.661,0,0,1,1.2.052v-.559a7.355,7.355,0,0,1-1.2.065h-4.29a7.453,7.453,0,0,1-1.2-.065v.559a9.661,9.661,0,0,1,1.2-.052Zm2.6,0V-3.2h-2.145c.052-.611.052-.754.065-1.833Zm-5.551,5.9A8.516,8.516,0,0,1,159.51-.52V-6.63h2.522c.611,0,1.066.013,1.378.039-.026-.351-.039-.7-.039-1.209V-9.191c0-.52.013-.871.039-1.248a11.7,11.7,0,0,1-1.326.052H160.29a12.33,12.33,0,0,1-1.365-.052c.039.416.052.793.052,1.417v8.5A9.081,9.081,0,0,1,158.9.871Zm-.078-9.62V-9.958h3.367v1.209Zm0,.416h3.367v1.274H159.51Zm6.526-2.054a11.7,11.7,0,0,1-1.326-.052c.026.4.039.78.039,1.248V-7.8c0,.455-.013.845-.039,1.209.3-.026.767-.039,1.378-.039h2.7v6.4c0,.312-.1.39-.494.39A11.23,11.23,0,0,1,166.738,0a1.836,1.836,0,0,1,.182.572c.468.039.988.065,1.391.065.78,0,1.014-.208,1.014-.9V-9.022a12.071,12.071,0,0,1,.065-1.417,12.6,12.6,0,0,1-1.378.052Zm2.756,1.638h-3.549V-9.958h3.549Zm0,.416v1.274h-3.549V-8.333Zm4.082,2.353a8.51,8.51,0,0,1-1.313-.078v.65a7.714,7.714,0,0,1,1.183-.078H177.1v5.33c0,.3-.143.39-.637.39a10.944,10.944,0,0,1-1.781-.169,2.622,2.622,0,0,1,.143.624,15.893,15.893,0,0,0,1.69.091c.884,0,1.157-.221,1.157-.923V-5.486h4.355a8.817,8.817,0,0,1-2.171,1.976,2.377,2.377,0,0,1,.507.312,11.845,11.845,0,0,0,2.132-2.041c.156-.182.26-.325.338-.4l-.351-.4a7.306,7.306,0,0,1-1.352.065h-2.353l.312-.312c-.6-.468-.806-.611-1.235-.91a13.12,13.12,0,0,0,1.521-.9,15.519,15.519,0,0,0,1.807-1.4c.039-.039.1-.091.182-.169L181-10.1a7.657,7.657,0,0,1-.884.039h-6.071a8.041,8.041,0,0,1-1.248-.078v.624a7.4,7.4,0,0,1,1.235-.065h6.422a12.754,12.754,0,0,1-3.068,2.08,24.752,24.752,0,0,0-2.34-1.274l-.3.39a17.8,17.8,0,0,1,3.9,2.405ZM190.268-9.2v-.7a3.408,3.408,0,0,1,.091-.806h-.728a3.484,3.484,0,0,1,.091.806v.7h-3.6a11.815,11.815,0,0,1-1.248-.052,5.449,5.449,0,0,1,.052.845v.728a5.484,5.484,0,0,1-.052.871h.585v-1.9h9.386v1.9h.585a5.279,5.279,0,0,1-.052-.871v-.728a5.238,5.238,0,0,1,.052-.845,11.815,11.815,0,0,1-1.248.052Zm.182,5.577h2.535a8.024,8.024,0,0,1,1.222.078v-.637a7.565,7.565,0,0,1-1.222.078H190.45V-6.474H193a8.588,8.588,0,0,1,1.261.078v-.637A8.226,8.226,0,0,1,193-6.955h-5.59a8.11,8.11,0,0,1-1.261-.078V-6.4a8.713,8.713,0,0,1,1.261-.078h2.5V-.559a3.981,3.981,0,0,1-2.639-2.418,13.338,13.338,0,0,0,.325-1.339,6.348,6.348,0,0,1,.169-.806l-.663-.143a.933.933,0,0,1,.013.169,8.133,8.133,0,0,1-1.014,3.51A6.666,6.666,0,0,1,184.522.325a1.589,1.589,0,0,1,.468.39,8.211,8.211,0,0,0,2.08-3.146,4.112,4.112,0,0,0,2.548,2.314c.91.325,1.6.39,4.173.39.364,0,.741-.013,1.586-.039a2.024,2.024,0,0,1,.247-.637,29.918,29.918,0,0,1-3.029.13,10.225,10.225,0,0,1-2.145-.143Z" transform="translate(1003 1765.286)" fill="#111"/>
  </g>
</svg>
