<svg xmlns="http://www.w3.org/2000/svg" width="563" height="121" viewBox="0 0 563 121">
  <g id="组_2753" data-name="组 2753" transform="translate(-977 -1681.942)">
    <rect id="矩形_1399" data-name="矩形 1399" width="563" height="121" rx="3" transform="translate(977 1681.942)" fill="#ffe386"/>
    <path id="路径_51296" data-name="路径 51296" d="M8.5-23.436a28.094,28.094,0,0,1-5-.288l.036,6.156a36.841,36.841,0,0,1,4.86-.216h4.5a19.078,19.078,0,0,1-1.8,6.156c-1.8,3.636-4.572,6.192-9.36,8.712a20.81,20.81,0,0,1,4.68,5.472c7.308-4.824,10.728-9.5,12.312-16.776a30.863,30.863,0,0,0,.54-3.6h6.876a83.16,83.16,0,0,1-.684,10.044c-.468,3.132-.9,3.708-2.628,3.708a20.621,20.621,0,0,1-4.68-.72,17.719,17.719,0,0,1,1.224,6.336,42.163,42.163,0,0,0,4.716.288c4,0,5.724-1.152,6.768-4.5.72-2.376,1.26-8.388,1.512-16.092a4.5,4.5,0,0,1,.5-2.664L30.06-23.868a5.206,5.206,0,0,1-2.412.4H19.8c.072-.864.072-.864.108-1.836a25.831,25.831,0,0,1,.4-4.356l-6.768-.18a10.074,10.074,0,0,1,.108,1.8c0,1.116-.072,3.2-.18,4.608ZM42.084-28.8a36.043,36.043,0,0,1,.216,4.752v7.128a37.349,37.349,0,0,1-.216,5.256h6.984a47.128,47.128,0,0,1-.18-5.148v-7.164a43.356,43.356,0,0,1,.18-4.824Zm16.74,0a34.872,34.872,0,0,1,.216,4.932v3.744a61.133,61.133,0,0,1-.4,7.632c-.576,3.168-2.2,5.292-5.364,6.984a23.225,23.225,0,0,1-7.128,2.2,16.468,16.468,0,0,1,3.672,6.156A30.152,30.152,0,0,0,57.312-.108c3.96-2.268,6.408-5.22,7.488-9.144a46.52,46.52,0,0,0,.828-10.476V-23.94c0-2.3.036-2.844.18-4.86Zm41.184,5.436,1.8-.648A24.47,24.47,0,0,0,98.82-29.52l-3.564,1.152A21.935,21.935,0,0,1,97.7-24.012a50.062,50.062,0,0,1-13.716,5.148v-4.86a28.4,28.4,0,0,1,.216-4.824H77.472a36.74,36.74,0,0,1,.216,4.788V-8.1a28.682,28.682,0,0,0,.144,3.816A5.32,5.32,0,0,0,79.848-.4C81.5.756,83.988,1.188,88.92,1.188c2.88,0,6.912-.216,10.512-.54,1.8-.18,2.844-.252,3.708-.252l-.252-6.66A31.665,31.665,0,0,1,96.7-5.112c-2.16.216-4.968.36-7.02.36a31.625,31.625,0,0,1-3.816-.216c-1.044-.144-1.512-.432-1.728-1.116-.144-.5-.144-.5-.144-2.772v-4.032a64.691,64.691,0,0,0,17.136-5.58c.864-.4.936-.432,1.8-.864Zm.468-6.66a28.522,28.522,0,0,1,2.952,5.508l3.42-1.26a25.634,25.634,0,0,0-2.988-5.364ZM123.624,2.124a52.79,52.79,0,0,1-.216-5.508v-9.36a8.645,8.645,0,0,0,1.62.72,66.73,66.73,0,0,1,11.34,6.264l3.42-6.12a76.358,76.358,0,0,0-16.38-7.488V-24.3a46.55,46.55,0,0,1,.18-5.256H116.64a34.058,34.058,0,0,1,.252,5.22V-3.384a51.382,51.382,0,0,1-.216,5.508Zm29.016-23.4c-.072,3.24-.072,3.24-.144,4.68H149.76a24.358,24.358,0,0,1-4.212-.216v5.436a24.441,24.441,0,0,1,4.1-.216h2.232a13.74,13.74,0,0,1-7.128,9.828,14.368,14.368,0,0,1,3.852,4.572c3.6-2.844,5.328-4.968,6.84-8.352A21.641,21.641,0,0,0,160.7.72a25.689,25.689,0,0,1,2.448-4.9v2.3c0,1.368-.072,2.952-.18,4.212h5.472V0h3.816V2.376H177.8c-.144-1.62-.216-3.1-.216-4.716v-22a29.114,29.114,0,0,1,.18-3.816,24.223,24.223,0,0,1-3.42.18h-7.992a21.981,21.981,0,0,1-3.348-.18c.108,1.116.144,2.34.144,3.816V-4.86a20.749,20.749,0,0,1-5.94-6.3c.036-.18.036-.252.072-.432h1.584a31.079,31.079,0,0,1,3.564.144v-5.328a20.861,20.861,0,0,1-3.348.18h-1.26c.072-1.3.072-1.3.144-4.68h.684a33.583,33.583,0,0,1,3.564.144V-26.5a23.359,23.359,0,0,1-3.564.18h-4.716c.288-.756.4-1.152.576-1.692a16.65,16.65,0,0,1,.612-1.836L149.652-31a10.223,10.223,0,0,1-.576,2.52,19.943,19.943,0,0,1-4.356,7.848,12.929,12.929,0,0,1,4.176,3.852,27.612,27.612,0,0,0,2.844-4.5ZM168.552-23h3.708V-5.04h-3.708Zm26.5-.612v1.188h-6.7a36.6,36.6,0,0,1-3.816-.144,30.586,30.586,0,0,1,.144,3.6v6.732a30.98,30.98,0,0,1-.144,3.6c.864-.072,1.548-.108,3.636-.108H199.4L195.876-7.2a22,22,0,0,1,3.348,4.428l3.384-1.944c-.108,2.736-.18,2.808-4.392,2.808-2.664,0-3.06-.108-3.06-.9V-5.4a14.547,14.547,0,0,1,.144-2.448h-5.652a18.987,18.987,0,0,1,.18,3.384V-.9c0,2.34.756,3.24,2.988,3.564a47.046,47.046,0,0,0,5.616.216c4.86,0,6.66-.252,7.7-1.044.972-.72,1.476-2.16,1.764-4.752a36.788,36.788,0,0,1,2.664,5.22l4.752-2.772a37.3,37.3,0,0,0-4.968-7.452L205.884-5.8c.648.828.9,1.188,1.3,1.764a19.443,19.443,0,0,1-4.14-.936l.828-.468A22.4,22.4,0,0,0,201.1-8.748h7.164c1.044,0,2.376.036,3.312.108a25.39,25.39,0,0,1-.18-3.6v-6.768a29.138,29.138,0,0,1,.144-3.564,36.164,36.164,0,0,1-3.816.144h-7.236v-1.188h9.4a33.756,33.756,0,0,1,4.428.18v-5.148a35.317,35.317,0,0,1-4.428.216h-9.4a9.835,9.835,0,0,1,.18-2.376h-5.8a10.2,10.2,0,0,1,.18,2.376h-8.856a34.923,34.923,0,0,1-4.428-.216v5.148a31.9,31.9,0,0,1,4.32-.18Zm0,5v1.3h-4.86v-1.3Zm5.436,0h5.328v1.3h-5.328Zm-5.436,4.644v1.332h-4.86v-1.332Zm5.436,0h5.328v1.332h-5.328Zm-14.9,16.6a31.343,31.343,0,0,0,3.672-8.676l-4.68-1.98A18.246,18.246,0,0,1,180.756-.54Zm52.884-4.572c2.592,2.232,5.256,3.492,10.26,4.968A20.986,20.986,0,0,1,251.5-2.412a24.006,24.006,0,0,1-6.84-1.8,33.765,33.765,0,0,0,3.636-2.772l-3.24-2.232h.972a34.266,34.266,0,0,1,4.32.18v-5a27.76,27.76,0,0,1-4.068.18H236.088v-1.26a11.285,11.285,0,0,1,.144-2.124h-5.976a8.792,8.792,0,0,1,.18,2.124v1.26H221.58a29.963,29.963,0,0,1-4.068-.18v5a35.429,35.429,0,0,1,4.464-.18h4.212a30.692,30.692,0,0,1-9.612,3.924A16.469,16.469,0,0,1,219.24-.828a53.492,53.492,0,0,0,7.884-3.528v2.268c-2.016.144-3.312.216-4.14.216h-.864l.72,5.184a13.944,13.944,0,0,1,2.016-.252A107.684,107.684,0,0,0,238.464.936Zm-6.336-5.688a15.063,15.063,0,0,0,1.44-1.3,14.014,14.014,0,0,0,3.42,5.616c-1.4.252-2.772.468-4.86.72Zm11.448-1.584a17.988,17.988,0,0,1-2.916,2.592,7.571,7.571,0,0,1-2.016-2.592Zm-5.256-16.02a16.062,16.062,0,0,1-.936-4.248,5.376,5.376,0,0,1,.036-.684l-5.76.468a7.578,7.578,0,0,1,.288,1.152c.432,2.016.576,2.628.9,3.744l-1.44.108c-1.116.108-2.088.144-2.664.144-.36,0-.648,0-1.188-.036l.468,5.04a35.423,35.423,0,0,1,3.744-.5l3.06-.252c2.448,3.852,5.652,5.76,9.684,5.76a6.763,6.763,0,0,0,4.176-1.188c.828-.684,1.224-1.3,2.016-3.168a18.78,18.78,0,0,1-3.744-2.484,16.039,16.039,0,0,1,1.728-.072c.36,0,.684,0,1.3.036l-.4-4.9a28.748,28.748,0,0,1-4,.5l-.612.036,2.16-1.8a22.132,22.132,0,0,0-4.968-3.312l-3.384,2.52a24.9,24.9,0,0,1,4.068,2.772Zm7.668,3.924.468-.036c-.576,1.8-1.08,2.484-1.872,2.484a6.063,6.063,0,0,1-3.816-1.98Zm-24.372,1.656v1.872a18.157,18.157,0,0,1-.216,3.06h5.544a17.914,17.914,0,0,1-.18-3.2v-6.84c.684-.792,1.368-1.692,2.052-2.592.468-.612.54-.72.828-1.044l-5.184-1.98c-1.08,2.448-4.212,5.616-8.1,8.172a24.659,24.659,0,0,1,2.628,4.572c1.152-.864,1.548-1.188,2.628-2.124Z" transform="translate(1007 1746.942)" fill="#333"/>
    <g id="组_2752" data-name="组 2752" transform="translate(-10221.215 933.397)">
      <g id="组_2751" data-name="组 2751" transform="translate(11515.422 776.186)">
        <path id="路径_3955" data-name="路径 3955" d="M38.438,25.755a20.568,20.568,0,0,0,24.568-7.27s-2.15-.33-3.918-.6c-3.027-.47-7.168-1.166-10.4-.02a20.171,20.171,0,0,0-10.249,7.894" transform="translate(32.375 14.519)" fill="#45b1e6"/>
        <path id="路径_3956" data-name="路径 3956" d="M36.922,27.946a19.484,19.484,0,0,0,12.456-3.277A19.8,19.8,0,0,0,57.31,14.652s-2.31.317-3.994.525a22.03,22.03,0,0,0-9.252,3.171,16.848,16.848,0,0,0-7.142,9.6" transform="translate(31.098 12.341)" fill="#45b1e6"/>
        <path id="路径_3957" data-name="路径 3957" d="M31.476,55.061a14.164,14.164,0,1,1-9.311-25.72A17.278,17.278,0,0,0,36.348,19.306a14.167,14.167,0,0,1,26.89,4.762,17.274,17.274,0,0,0,9.887,14.255A14.165,14.165,0,1,1,55.587,59.309a17.315,17.315,0,0,0-24.112-4.248" transform="translate(7.735 9.462)" fill="#9bc948"/>
        <path id="矩形_1008" data-name="矩形 1008" d="M.6,0H4.11a.6.6,0,0,1,.6.6V2.339a.6.6,0,0,1-.6.6H.6a.6.6,0,0,1-.6-.6V.6A.6.6,0,0,1,.6,0Z" transform="translate(52.446 30.091) rotate(-79.958)" fill="#fff"/>
        <path id="路径_3958" data-name="路径 3958" d="M35.453,18.489a1.11,1.11,0,0,1-1.291.9l-.707-.122a1.113,1.113,0,0,1-.9-1.291l.431-2.45a1.112,1.112,0,0,1,1.29-.9l.707.123a1.117,1.117,0,0,1,.9,1.293Z" transform="translate(27.402 12.306)" fill="#fff"/>
        <path id="路径_3959" data-name="路径 3959" d="M33.325,24.09A7.926,7.926,0,0,0,41.1,20.942a.261.261,0,0,0-.066-.352l-1.57-1.061a.24.24,0,0,0-.332.094A5.54,5.54,0,0,1,29.4,17.9a.239.239,0,0,0-.28-.2l-1.839.459a.255.255,0,0,0-.181.308,7.918,7.918,0,0,0,6.229,5.619" transform="translate(22.816 14.909)" fill="#fff"/>
        <path id="路径_3960" data-name="路径 3960" d="M45.265,32.377l-2.961-6.3a.718.718,0,0,0-.521-.391L29.2,23.47a.727.727,0,0,0-.623.188l-4.937,4.906a.725.725,0,0,0-.238.422.716.716,0,0,0,.138.566l8.594,11.183a.724.724,0,0,0,.457.282.716.716,0,0,0,.527-.109l11.9-7.57a.711.711,0,0,0,.324-.483.728.728,0,0,0-.081-.477" transform="translate(19.704 19.759)" fill="#fff"/>
        <path id="路径_3961" data-name="路径 3961" d="M33.681,26.877l-1.634-.287.287-1.632-3.266-.577-.289,1.632-1.632-.287-.577,3.268,1.634.287-1.153,6.536,3.266.577,1.153-6.536,1.634.287a1.657,1.657,0,0,1,1.347,1.921L33.3,38.605l3.268.577,1.153-6.538a4.979,4.979,0,0,0-4.038-5.766" transform="translate(22.379 20.535)" fill="#9bc948"/>
        <path id="路径_3962" data-name="路径 3962" d="M34.669,25.921a32.178,32.178,0,0,0,18.85-3,.743.743,0,0,1,1.01.42A1.1,1.1,0,0,1,54.3,24.67c-6.9,5.125-13.5,7.15-21.987,6.361s-11.063-6.326-9.876-12.456c.192-.987.846-1.494,1.15-1.242a1.058,1.058,0,0,1,.232.422c1.159,4.433,4.762,7.262,10.855,8.165" transform="translate(18.664 14.546)" fill="#45b1e6"/>
        <path id="路径_3963" data-name="路径 3963" d="M7.5,4.914S7.74.255,7.264.167,4.65.753,4.836,1.191,7.5,4.914,7.5,4.914" transform="translate(4.064 0.134)" fill="#e3007f"/>
        <path id="路径_3964" data-name="路径 3964" d="M7.4,5.221s-.619-.822-1.262-1.7A22.539,22.539,0,0,1,4.7,1.439a.421.421,0,0,1-.037-.171A.737.737,0,0,1,5.082.7,3.931,3.931,0,0,1,5.8.354,5.079,5.079,0,0,1,7.292,0a.707.707,0,0,1,.157.015c.3.092.313.282.372.431a3.506,3.506,0,0,1,.1.6c.046.464.061,1.057.061,1.647,0,1.192-.061,2.369-.061,2.373a.288.288,0,0,1-.2.262.263.263,0,0,1-.085.013A.288.288,0,0,1,7.4,5.221m.232-.173.232-.175ZM6.605,3.178c.276.378.551.746.77,1.043.015-.429.028-.978.028-1.531,0-.507-.011-1.015-.042-1.422a3.6,3.6,0,0,0-.1-.687A4.925,4.925,0,0,0,5.3,1.258l-.024.02c.157.265.766,1.131,1.334,1.9" transform="translate(3.931 0)" fill="#e3007f"/>
        <path id="路径_3965" data-name="路径 3965" d="M6.636,5.583s-2.22-4.1-2.671-3.931S2.037,3.516,2.424,3.79,6.636,5.583,6.636,5.583" transform="translate(1.988 1.386)" fill="#e3007f"/>
        <path id="路径_3966" data-name="路径 3966" d="M6.66,5.986S5.7,5.606,4.7,5.192A22.281,22.281,0,0,1,2.387,4.158a.459.459,0,0,1-.184-.38,2.606,2.606,0,0,1,.72-1.314,3.865,3.865,0,0,1,1.028-.934.362.362,0,0,1,.175-.044.7.7,0,0,1,.466.256,4.5,4.5,0,0,1,.394.477c.284.383.6.881.9,1.376.6.991,1.137,1.979,1.137,1.982l-.254.138.107-.271-.107.271.254-.138a.29.29,0,0,1-.037.33.3.3,0,0,1-.217.1.316.316,0,0,1-.109-.02M4.919,4.656c.431.179.857.35,1.2.488-.16-.282-.356-.625-.567-.978A11.793,11.793,0,0,0,4.125,2.1a4.755,4.755,0,0,0-.761.741,3.458,3.458,0,0,0-.577.89c.271.144,1.244.566,2.132.929" transform="translate(1.856 1.252)" fill="#e3007f"/>
        <path id="路径_3967" data-name="路径 3967" d="M8.266,4.976s2.867-3.252,2.557-3.615S8.5.151,8.389.589s-.123,4.386-.123,4.386" transform="translate(6.962 0.393)" fill="#e3007f"/>
        <path id="路径_3968" data-name="路径 3968" d="M8.3,5.379a.292.292,0,0,1-.188-.273s0-.987.02-2.032A22.657,22.657,0,0,1,8.239.654.511.511,0,0,1,8.782.309a4.776,4.776,0,0,1,2.4,1,.41.41,0,0,1,.09.263,2.213,2.213,0,0,1-.453.973c-.249.37-.575.8-.9,1.207-.65.814-1.3,1.548-1.3,1.549L8.4,5.108l.217.192a.291.291,0,0,1-.217.1.286.286,0,0,1-.1-.02m.413-2.3c-.007.448-.011.884-.015,1.236.158-.186.341-.4.529-.636A14.288,14.288,0,0,0,10.61,1.766a1.2,1.2,0,0,0,.066-.144A5.171,5.171,0,0,0,8.788.888c-.033.321-.066,1.3-.079,2.2" transform="translate(6.829 0.26)" fill="#e3007f"/>
        <path id="路径_3969" data-name="路径 3969" d="M2.15,21.561a16.71,16.71,0,0,0,6.7,3.8s-1.575.184,12.959,14.423l9.375-3.675S23.078,29.9,19.239,25.33s-3-8.386-2.4-10.026c1-2.739,4.466-6.579,4.97-8,.61-1.726-1.824-3.263-4.291-1.618a27.67,27.67,0,0,0-3.335,3.677A22.831,22.831,0,0,0,9.569,5.374C6.6,3.829,4.079,6.087,4.25,7.382Z" transform="translate(1.811 4.087)" fill="#fff"/>
        <path id="路径_3970" data-name="路径 3970" d="M32.7,39.585c-.007-.006-2.7-2.087-5.886-4.748a81.515,81.515,0,0,1-8.871-8.287,12.054,12.054,0,0,1-3.18-7.806,9.612,9.612,0,0,1,.588-3.312c.873-2.353,3.051-5.011,4.246-6.783a7.03,7.03,0,0,0,.718-1.21.5.5,0,0,0,.031-.168.5.5,0,0,0-.228-.4,1.45,1.45,0,0,0-.91-.278,2.748,2.748,0,0,0-1.518.516A14.186,14.186,0,0,0,15.878,9c-.693.816-1.266,1.553-1.267,1.555a1.11,1.11,0,0,1-1.7.059s-.153-.171-.422-.455-.652-.672-1.089-1.091A14.474,14.474,0,0,0,8.6,6.866,3.245,3.245,0,0,0,7.1,6.47a2.534,2.534,0,0,0-2.1,1.065.654.654,0,0,0-.092.217,7.616,7.616,0,0,0,1.741,3.662,9.145,9.145,0,0,0,1.942,1.837,1.761,1.761,0,0,0,.882.239,1.594,1.594,0,0,0,.962-.311c.227-.182.28-.339.278-.435v-.022a1.33,1.33,0,0,0-.453-.842,2.518,2.518,0,0,0-.564-.409,1.11,1.11,0,0,1,.951-2.006,4.642,4.642,0,0,1,1.056.724,3.591,3.591,0,0,1,1.225,2.384q.006.077.006.171A2.8,2.8,0,0,1,11.8,14.928a3.806,3.806,0,0,1-2.33.783,3.989,3.989,0,0,1-1.986-.534A10.8,10.8,0,0,1,4.92,12.815,9.791,9.791,0,0,1,2.7,8.052a2.15,2.15,0,0,1-.02-.291A3.291,3.291,0,0,1,4.029,5.33,4.874,4.874,0,0,1,7.1,4.25,5.462,5.462,0,0,1,9.633,4.9a19.044,19.044,0,0,1,4.033,3.283c.16-.193.335-.405.52-.623a14.512,14.512,0,0,1,2.268-2.29,4.962,4.962,0,0,1,2.752-.892,3.668,3.668,0,0,1,2.3.77,2.672,2.672,0,0,1,.9,3.032A8.454,8.454,0,0,1,21.427,9.9c-.429.626-.943,1.328-1.465,2.061a20.877,20.877,0,0,0-2.531,4.232,7.381,7.381,0,0,0-.451,2.552,9.832,9.832,0,0,0,2.66,6.378,79.907,79.907,0,0,0,8.594,8.01c3.148,2.631,5.814,4.69,5.818,4.694l0,0A1.11,1.11,0,1,1,32.7,39.585" transform="translate(2.259 3.58)" fill="#9bc948"/>
        <path id="路径_3971" data-name="路径 3971" d="M7.977,16.644a4.867,4.867,0,0,1-2.5-.792A11.086,11.086,0,0,1,2.92,13.444a7.657,7.657,0,0,1-1.713-3.25,3.814,3.814,0,0,1-.042-.551,3.652,3.652,0,0,1,1.99-3.136,6.506,6.506,0,0,1,1.769-.7,1.111,1.111,0,0,1,.457,2.174L5.311,8c-.059.015-.149.041-.258.077a4.186,4.186,0,0,0-.781.348c-.569.35-.89.7-.888,1.218a1.6,1.6,0,0,0,.017.219,5.991,5.991,0,0,0,1.251,2.192,9.251,9.251,0,0,0,1.968,1.9,2.692,2.692,0,0,0,1.358.472,1.213,1.213,0,0,0,.956-.485,2.888,2.888,0,0,0,.477-.831l.011-.033a1.11,1.11,0,0,1,2.128.634,4.983,4.983,0,0,1-.722,1.411,3.517,3.517,0,0,1-2.841,1.524Z" transform="translate(0.98 4.873)" fill="#9bc948"/>
        <path id="路径_3972" data-name="路径 3972" d="M7.292,18.612A6.373,6.373,0,0,1,3.983,17.2a10.79,10.79,0,0,1-2.765-2.8,5.661,5.661,0,0,1-.98-2.988A3.923,3.923,0,0,1,1.47,8.568a4.6,4.6,0,0,1,1.221-.849v0a1.109,1.109,0,0,1,.9,2.028l-.02.009c-.026.015-.072.039-.129.076a2.413,2.413,0,0,0-.426.33,1.681,1.681,0,0,0-.558,1.251A3.488,3.488,0,0,0,3.1,13.223,8.746,8.746,0,0,0,5.28,15.4a5.8,5.8,0,0,0,1.916.986,1.649,1.649,0,0,0,.531-1.159,1.4,1.4,0,0,0-.158-.641v0A1.11,1.11,0,0,1,9.4,13.336a3.489,3.489,0,0,1,.545,1.894A4.008,4.008,0,0,1,8.607,18.12a1.876,1.876,0,0,1-1.3.492Z" transform="translate(0.2 6.423)" fill="#9bc948"/>
        <path id="路径_3973" data-name="路径 3973" d="M.709,15.731A4.009,4.009,0,0,1,0,13.45a5.442,5.442,0,0,1,1.054-3.064,1.11,1.11,0,0,1,1.761,1.35l-.007.013c-.015.02-.037.052-.066.1a3.986,3.986,0,0,0-.217.392,2.95,2.95,0,0,0-.3,1.21,1.758,1.758,0,0,0,.321,1.026,4.807,4.807,0,0,0,3.55,2.29,1.36,1.36,0,0,0,.158-.009,1.336,1.336,0,0,0,.142-.365,3.8,3.8,0,0,0,.109-.851,1.036,1.036,0,0,1,.009-.146,1.11,1.11,0,0,1,2.211.146.842.842,0,0,1-.009.122,4.462,4.462,0,0,1-.667,2.4,2.11,2.11,0,0,1-1.341.87,3.555,3.555,0,0,1-.612.052A6.94,6.94,0,0,1,.709,15.731" transform="translate(0 8.382)" fill="#9bc948"/>
        <path id="路径_3974" data-name="路径 3974" d="M25.644,36.947C14.653,28,9.719,20.857,8.636,19.171A17.439,17.439,0,0,1,1.869,15.21v0a1.111,1.111,0,0,1,1.577-1.564A15.531,15.531,0,0,0,9.5,17.119l.142.041a1.1,1.1,0,0,1,.672.508s.055.1.2.315.359.549.661.978c.606.86,1.546,2.12,2.872,3.7a96.908,96.908,0,0,0,13,12.57,1.11,1.11,0,0,1-1.4,1.721" transform="translate(1.303 11.219)" fill="#9bc948"/>
      </g>
      <g id="组_2750" data-name="组 2750" transform="translate(11505.884 773.157)">
        <path id="路径_3939" data-name="路径 3939" d="M107.439,25.755a20.568,20.568,0,0,0,24.568-7.27s-2.15-.33-3.918-.6c-3.025-.47-7.168-1.166-10.4-.02a20.171,20.171,0,0,0-10.249,7.894" transform="translate(90.492 14.519)" fill="#f7b400"/>
        <path id="路径_3940" data-name="路径 3940" d="M105.924,27.946a19.484,19.484,0,0,0,12.456-3.277,19.8,19.8,0,0,0,7.933-10.016s-2.31.317-3.994.525a22.03,22.03,0,0,0-9.252,3.171,16.848,16.848,0,0,0-7.142,9.6" transform="translate(89.216 12.341)" fill="#f7b400"/>
        <path id="路径_3941" data-name="路径 3941" d="M100.477,55.061a14.164,14.164,0,1,1-9.311-25.72A17.278,17.278,0,0,0,105.35,19.306a14.168,14.168,0,0,1,26.89,4.762,17.268,17.268,0,0,0,9.886,14.255,14.164,14.164,0,1,1-17.537,20.985,17.315,17.315,0,0,0-24.112-4.248" transform="translate(65.854 9.463)" fill="#45b1e6"/>
        <path id="矩形_1006" data-name="矩形 1006" d="M.605,0h3.5a.606.606,0,0,1,.606.606V2.339a.6.6,0,0,1-.6.6H.6a.6.6,0,0,1-.6-.6V.605A.605.605,0,0,1,.605,0Z" transform="translate(179.566 30.091) rotate(-79.958)" fill="#fff"/>
        <path id="路径_3942" data-name="路径 3942" d="M104.455,18.489a1.11,1.11,0,0,1-1.291.9l-.707-.122a1.113,1.113,0,0,1-.9-1.291l.431-2.45a1.112,1.112,0,0,1,1.29-.9l.707.123a1.117,1.117,0,0,1,.9,1.293Z" transform="translate(85.52 12.306)" fill="#fff"/>
        <path id="路径_3943" data-name="路径 3943" d="M102.327,24.09a7.926,7.926,0,0,0,7.778-3.148.259.259,0,0,0-.066-.352l-1.57-1.061a.24.24,0,0,0-.332.094A5.538,5.538,0,0,1,98.4,17.9a.24.24,0,0,0-.28-.2l-1.84.459a.256.256,0,0,0-.181.308,7.918,7.918,0,0,0,6.229,5.619" transform="translate(80.935 14.909)" fill="#fff"/>
        <path id="路径_3944" data-name="路径 3944" d="M114.266,32.377l-2.961-6.3a.718.718,0,0,0-.521-.391L98.205,23.47a.727.727,0,0,0-.623.188l-4.935,4.906a.724.724,0,0,0-.1.987l8.6,11.183a.726.726,0,0,0,.982.173l11.9-7.57a.711.711,0,0,0,.324-.483.728.728,0,0,0-.081-.477" transform="translate(77.823 19.759)" fill="#fff"/>
        <path id="路径_3945" data-name="路径 3945" d="M102.683,26.877l-1.634-.287.287-1.632-3.266-.577-.287,1.632-1.634-.287-.577,3.268,1.634.287-1.153,6.536,3.268.577,1.151-6.536,1.636.287a1.657,1.657,0,0,1,1.345,1.921L102.3,38.605l3.268.577,1.153-6.538a4.979,4.979,0,0,0-4.038-5.766" transform="translate(80.497 20.536)" fill="#45b1e6"/>
        <path id="路径_3946" data-name="路径 3946" d="M103.671,25.921a32.178,32.178,0,0,0,18.85-3,.741.741,0,0,1,1.008.42,1.1,1.1,0,0,1-.23,1.328c-6.9,5.125-13.5,7.15-21.986,6.361s-11.065-6.326-9.878-12.456c.192-.987.846-1.494,1.15-1.242a1.063,1.063,0,0,1,.234.422c1.159,4.433,4.76,7.262,10.853,8.165" transform="translate(76.783 14.546)" fill="#f7b400"/>
        <path id="路径_3975" data-name="路径 3975" d="M120.144,8.176s-.239-4.659.236-4.748,2.614.586,2.428,1.024-2.664,3.723-2.664,3.723" transform="translate(101.143 2.881)" fill="#e3007f"/>
        <path id="路径_3976" data-name="路径 3976" d="M120.19,8.587a.29.29,0,0,1-.2-.262s-.061-1.183-.061-2.373a10.152,10.152,0,0,1,.162-2.244c.059-.149.076-.341.367-.431a.792.792,0,0,1,.162-.015,5.444,5.444,0,0,1,2.209.7.73.73,0,0,1,.415.567.476.476,0,0,1-.033.171,23.279,23.279,0,0,1-1.435,2.084c-.643.877-1.264,1.7-1.264,1.7a.291.291,0,0,1-.232.116.263.263,0,0,1-.085-.013m.085-.278.291-.015Zm.368-4.44a2.824,2.824,0,0,0-.081.494c-.042.427-.057,1.01-.057,1.59,0,.551.013,1.1.028,1.529.219-.295.494-.663.77-1.041.573-.776,1.188-1.649,1.334-1.9a.769.769,0,0,0-.125-.1,3.44,3.44,0,0,0-.608-.289,5.033,5.033,0,0,0-1.253-.315l-.007.026" transform="translate(101.009 2.749)" fill="#e3007f"/>
        <path id="路径_3977" data-name="路径 3977" d="M121.712,8.845s2.22-4.1,2.671-3.931,1.927,1.864,1.54,2.139-4.211,1.793-4.211,1.793" transform="translate(102.514 4.134)" fill="#e3007f"/>
        <path id="路径_3978" data-name="路径 3978" d="M121.626,9.17a.287.287,0,0,1-.037-.33A27.123,27.123,0,0,1,124.019,5a.7.7,0,0,1,.468-.254.318.318,0,0,1,.131.024,3.585,3.585,0,0,1,1.072.952,2.645,2.645,0,0,1,.718,1.314.465.465,0,0,1-.182.381,22.8,22.8,0,0,1-2.312,1.032c-1.006.415-1.96.794-1.962.794a.284.284,0,0,1-.109.02.289.289,0,0,1-.217-.1m.472-.055-.254-.136Zm2.334-3.7a3.7,3.7,0,0,0-.343.413c-.263.357-.573.846-.868,1.334-.269.446-.527.892-.73,1.245.343-.138.768-.31,1.2-.488.888-.363,1.866-.787,2.128-.927a3.33,3.33,0,0,0-.578-.89,4.423,4.423,0,0,0-.757-.739.355.355,0,0,0-.055.052" transform="translate(102.381 4.001)" fill="#e3007f"/>
        <path id="路径_3979" data-name="路径 3979" d="M119.307,8.239s-2.867-3.252-2.557-3.615,2.323-1.21,2.434-.772.123,4.386.123,4.386" transform="translate(98.315 3.141)" fill="#e3007f"/>
        <path id="路径_3980" data-name="路径 3980" d="M119.221,8.562a34.741,34.741,0,0,1-2.2-2.758,2.178,2.178,0,0,1-.453-.971.387.387,0,0,1,.094-.265,4.763,4.763,0,0,1,2.393-1,.513.513,0,0,1,.542.341,21.228,21.228,0,0,1,.112,2.424c.017,1.045.02,2.034.02,2.034h-.289l.216-.192-.216.192h.289a.294.294,0,0,1-.186.273.349.349,0,0,1-.1.018.292.292,0,0,1-.219-.1m-1.993-3.533a4.316,4.316,0,0,0,.274.453c.234.348.555.768.873,1.168.273.343.545.669.768.934,0-.354-.007-.79-.015-1.238-.011-.892-.046-1.881-.079-2.194a5.094,5.094,0,0,0-1.885.733,1.14,1.14,0,0,0,.063.144" transform="translate(98.182 3.008)" fill="#e3007f"/>
        <path id="路径_3981" data-name="路径 3981" d="M137.274,24.824a16.71,16.71,0,0,1-6.7,3.8s-2.533,5.595-14.04,15.309l-7.761-5.066s7.574-5.707,11.413-10.276,3-8.386,2.4-10.026c-1-2.739-4.466-6.579-4.969-8-.612-1.726,1.824-3.263,4.289-1.618a27.673,27.673,0,0,1,3.335,3.677,22.805,22.805,0,0,1,4.617-3.987c2.964-1.546,5.488.713,5.317,2.008Z" transform="translate(91.615 6.836)" fill="#fff"/>
        <path id="路径_3982" data-name="路径 3982" d="M106.679,42.648a1.108,1.108,0,0,1,.2-1.557c0-.006,2.669-2.063,5.818-4.694a79.915,79.915,0,0,0,8.594-8.01,9.831,9.831,0,0,0,2.658-6.378,7.455,7.455,0,0,0-.451-2.553c-.619-1.758-2.719-4.445-3.994-6.291a8.5,8.5,0,0,1-.978-1.721,2.674,2.674,0,0,1,.894-3.032,3.658,3.658,0,0,1,2.3-.77,4.976,4.976,0,0,1,2.754.892,14.349,14.349,0,0,1,2.266,2.29c.184.217.361.429.521.623A19.045,19.045,0,0,1,131.3,8.162a5.459,5.459,0,0,1,2.535-.65A4.87,4.87,0,0,1,136.9,8.593a3.282,3.282,0,0,1,1.345,2.43,2.306,2.306,0,0,1-.015.274,9.8,9.8,0,0,1-2.22,4.779,10.753,10.753,0,0,1-2.559,2.362,3.969,3.969,0,0,1-1.99.534,3.806,3.806,0,0,1-2.332-.781A2.8,2.8,0,0,1,128,16.009a1.75,1.75,0,0,1,.009-.192,3.57,3.57,0,0,1,1.223-2.364,4.464,4.464,0,0,1,1.056-.724,1.109,1.109,0,0,1,.951,2l-.022.013c-.022.011-.063.033-.114.064a2.823,2.823,0,0,0-.378.284,1.378,1.378,0,0,0-.5.89l0,.024c0,.1.05.252.276.435a1.583,1.583,0,0,0,.963.31,1.755,1.755,0,0,0,.886-.239,9.17,9.17,0,0,0,1.94-1.835,7.637,7.637,0,0,0,1.739-3.653v0a.748.748,0,0,0-.094-.225,1.84,1.84,0,0,0-.431-.483,2.658,2.658,0,0,0-1.669-.582,3.218,3.218,0,0,0-1.507.4,19.354,19.354,0,0,0-3.882,3.288c-.269.284-.422.453-.422.453a1.106,1.106,0,0,1-1.7-.059s-.575-.737-1.267-1.555a14.139,14.139,0,0,0-1.809-1.881,2.743,2.743,0,0,0-1.52-.516,1.438,1.438,0,0,0-.91.278.5.5,0,0,0-.227.394.52.52,0,0,0,.031.169,7.118,7.118,0,0,0,.719,1.209c.4.58.906,1.279,1.439,2.025a22.442,22.442,0,0,1,2.809,4.762,9.693,9.693,0,0,1,.584,3.311,12.06,12.06,0,0,1-3.178,7.8,81.688,81.688,0,0,1-8.871,8.288c-3.183,2.66-5.879,4.74-5.886,4.748a1.112,1.112,0,0,1-1.557-.2" transform="translate(89.657 6.327)" fill="#45b1e6"/>
        <path id="路径_3983" data-name="路径 3983" d="M120.334,18.382a4.924,4.924,0,0,1-.722-1.411,1.11,1.11,0,1,1,2.128-.632l.011.031c.013.037.035.1.068.169a2.918,2.918,0,0,0,.3.529,1.28,1.28,0,0,0,1.059.617,2.7,2.7,0,0,0,1.358-.472,9.208,9.208,0,0,0,1.969-1.9,5.98,5.98,0,0,0,1.249-2.185,1.794,1.794,0,0,0,.017-.225,1.307,1.307,0,0,0-.689-1.094,4.284,4.284,0,0,0-1.236-.551l-.068-.017a1.11,1.11,0,0,1,.457-2.172,6.438,6.438,0,0,1,1.769.7A3.648,3.648,0,0,1,130,12.907a3.964,3.964,0,0,1-.041.545,7.638,7.638,0,0,1-1.713,3.253,11.03,11.03,0,0,1-2.555,2.41,4.876,4.876,0,0,1-2.5.79h-.009a3.512,3.512,0,0,1-2.839-1.524" transform="translate(100.706 7.622)" fill="#45b1e6"/>
        <path id="路径_3984" data-name="路径 3984" d="M122.218,21.376a3.987,3.987,0,0,1-1.334-2.883,3.471,3.471,0,0,1,.547-1.9,1.11,1.11,0,1,1,1.831,1.255h0a.884.884,0,0,0-.063.131,1.38,1.38,0,0,0-.1.51,1.649,1.649,0,0,0,.531,1.157,5.817,5.817,0,0,0,1.916-.984,8.714,8.714,0,0,0,2.181-2.179,3.48,3.48,0,0,0,.641-1.811,1.656,1.656,0,0,0-.5-1.194,2.55,2.55,0,0,0-.628-.47h0l-.009,0a1.11,1.11,0,0,1,.9-2.026,4.4,4.4,0,0,1,1.22.849,3.909,3.909,0,0,1,1.234,2.844,5.661,5.661,0,0,1-.98,2.988,10.855,10.855,0,0,1-2.765,2.8,6.37,6.37,0,0,1-3.309,1.406h-.017a1.866,1.866,0,0,1-1.3-.5" transform="translate(101.816 9.171)" fill="#45b1e6"/>
        <path id="路径_3985" data-name="路径 3985" d="M123.661,22.195a2.089,2.089,0,0,1-1.325-.868,3.322,3.322,0,0,1-.5-1.113,5.924,5.924,0,0,1-.181-1.409,1.086,1.086,0,0,1,.022-.227,1.11,1.11,0,0,1,2.2.254,3.64,3.64,0,0,0,.052.555,1.957,1.957,0,0,0,.2.634,1.464,1.464,0,0,0,.16.007,4.8,4.8,0,0,0,3.548-2.286,1.773,1.773,0,0,0,.321-1.03,3.321,3.321,0,0,0-.586-1.7L127.563,15a1.11,1.11,0,0,1,1.763-1.349,5.43,5.43,0,0,1,1.052,3.062,4,4,0,0,1-.707,2.283,6.942,6.942,0,0,1-5.381,3.253,3.706,3.706,0,0,1-.628-.053" transform="translate(102.471 11.13)" fill="#45b1e6"/>
        <path id="路径_3986" data-name="路径 3986" d="M111.032,40.05a1.112,1.112,0,0,1,.158-1.562c10.764-8.758,15.545-15.707,16.534-17.242.142-.219.2-.315.2-.315a1.1,1.1,0,0,1,.672-.508s.041-.011.142-.042.254-.079.448-.144c.387-.133.936-.337,1.564-.623a13.852,13.852,0,0,0,4.042-2.7h0a1.109,1.109,0,0,1,1.575,1.562,17.437,17.437,0,0,1-6.767,3.961c-1.083,1.684-6.013,8.832-17.006,17.776a1.112,1.112,0,0,1-1.562-.16" transform="translate(93.309 13.968)" fill="#45b1e6"/>
        <rect id="矩形_1009" data-name="矩形 1009" width="232.848" height="75.15" transform="translate(0 0)" fill="none"/>
      </g>
      <path id="路径_3947" data-name="路径 3947" d="M71.223,26.247a20.568,20.568,0,0,0,20.6-15.234s-2.133.427-3.889.774c-3,.593-7.135,1.354-9.782,3.537a20.171,20.171,0,0,0-6.929,10.923" transform="translate(11570.786 792.096)" fill="#9bc948"/>
      <path id="路径_3948" data-name="路径 3948" d="M69.811,28.706a19.471,19.471,0,0,0,10.582-7.341A19.789,19.789,0,0,0,84.422,9.241S82.359,10.33,80.848,11.1a22,22,0,0,0-7.609,6.144,16.849,16.849,0,0,0-3.428,11.461" transform="translate(11569.578 790.603)" fill="#9bc948"/>
      <path id="路径_3949" data-name="路径 3949" d="M71.388,59.5A14.164,14.164,0,1,1,53.84,38.514a17.273,17.273,0,0,0,9.9-14.281,14.167,14.167,0,0,1,26.9-4.722A17.271,17.271,0,0,0,104.8,29.525a14.164,14.164,0,1,1-9.3,25.718A17.311,17.311,0,0,0,71.388,59.5" transform="translate(11549.22 792.439)" fill="#f7b400"/>
      <path id="矩形_1007" data-name="矩形 1007" d="M.6,0H2.34a.6.6,0,0,1,.6.6V4.109a.6.6,0,0,1-.6.6H.605A.605.605,0,0,1,0,4.108V.6A.6.6,0,0,1,.6,0Z" transform="translate(11620.448 810.415) rotate(-10.042)" fill="#fff"/>
      <path id="路径_3950" data-name="路径 3950" d="M66.936,17.463a1.11,1.11,0,0,1-.9,1.288l-.707.129a1.114,1.114,0,0,1-1.29-.9L63.6,15.523a1.112,1.112,0,0,1,.9-1.286l.707-.123a1.111,1.111,0,0,1,1.291.9Z" transform="translate(11564.353 794.693)" fill="#fff"/>
      <path id="路径_3951" data-name="路径 3951" d="M67.077,24.277a7.92,7.92,0,0,0,6.231-5.619.257.257,0,0,0-.182-.308l-1.837-.461a.241.241,0,0,0-.28.2,5.54,5.54,0,0,1-9.74,1.715.241.241,0,0,0-.332-.092l-1.57,1.061a.255.255,0,0,0-.066.35,7.92,7.92,0,0,0,7.776,3.15" transform="translate(11560.708 797.885)" fill="#fff"/>
      <path id="路径_3952" data-name="路径 3952" d="M80.371,28.752l-4.935-4.906a.725.725,0,0,0-.625-.19L62.232,25.874a.73.73,0,0,0-.521.391l-2.961,6.3a.732.732,0,0,0-.079.477.723.723,0,0,0,.322.485l11.9,7.57a.718.718,0,0,0,.525.109.726.726,0,0,0,.457-.284l8.594-11.183a.721.721,0,0,0-.1-.986" transform="translate(11560.205 802.735)" fill="#fff"/>
      <path id="路径_3953" data-name="路径 3953" d="M68.011,26.276l-1.634.287-.287-1.632-3.266.577.287,1.632-1.634.287.577,3.27,1.632-.289,1.153,6.536,3.268-.575-1.153-6.536,1.634-.289a1.66,1.66,0,0,1,1.923,1.345h0l1.153,6.538,3.268-.577-1.153-6.538a4.978,4.978,0,0,0-5.766-4.036" transform="translate(11562.576 803.818)" fill="#f7b400"/>
      <path id="路径_3954" data-name="路径 3954" d="M68.764,26.957a32.177,32.177,0,0,0,16.687-9.265.744.744,0,0,1,1.092.05,1.1,1.1,0,0,1,.236,1.328C82.048,26.244,76.54,30.4,68.294,32.567s-12.559-2.161-13.541-8.325c-.158-.995.284-1.695.656-1.562a1.1,1.1,0,0,1,.363.317c2.6,3.769,6.958,5.2,12.992,3.961" transform="translate(11556.887 797.542)" fill="#9bc948"/>
    </g>
    <g id="组_2285" data-name="组 2285" transform="translate(277 1353.442)">
      <rect id="矩形_1012" data-name="矩形 1012" width="83" height="19" rx="9.5" transform="translate(1092 349)" fill="#158acc"/>
      <path id="多边形_91" data-name="多边形 91" d="M5.5,0,11,12H0Z" transform="translate(1139 374) rotate(180)" fill="#158acc"/>
      <path id="路径_51298" data-name="路径 51298" d="M1.8-6.6a7.776,7.776,0,0,1,.79-.06c.98-.04,1.22-.05,1.73-.09-.25.92-.37,1.3-.63,2.09a3.561,3.561,0,0,0-1.89.48A2.516,2.516,0,0,0,.56-1.99a1.721,1.721,0,0,0,1.6,1.9,1.58,1.58,0,0,0,1.37-.95A13.322,13.322,0,0,0,4.52-3.5a7.636,7.636,0,0,1,2.25.69,4.071,4.071,0,0,1-.89,1.48A4.7,4.7,0,0,1,4.33-.28a3.635,3.635,0,0,1,.91.9A5.794,5.794,0,0,0,6.75-.51,4.722,4.722,0,0,0,7.84-2.27a10.212,10.212,0,0,1,1.38.93l.45-1.32a3.531,3.531,0,0,1-.46-.24c-.31-.18-.75-.41-1.07-.57a16.66,16.66,0,0,0,.18-2.12,3.242,3.242,0,0,1,.06-.67L7.12-6.31a3,3,0,0,1,.04.53,10.862,10.862,0,0,1-.1,1.85,8.149,8.149,0,0,0-2.21-.63c.09-.31.7-2.15.75-2.27a1.492,1.492,0,0,1,.21-.42l-.79-.68a.758.758,0,0,1-.4.12c-.37.05-1.26.09-1.86.09a5.93,5.93,0,0,1-1.01-.05ZM3.38-3.61a13.044,13.044,0,0,1-.65,1.67c-.23.45-.38.63-.57.63-.27,0-.49-.33-.49-.74a1.406,1.406,0,0,1,.38-.96A1.978,1.978,0,0,1,3.38-3.61Zm10.74-.1c.22-.47.66-1.56,1.23-3.02a9.635,9.635,0,0,1,.49-1.15l-1.35-.34c-.07.41-.07.41-2.37,6.8-.32.87-.41,1.11-.55,1.4L12.86.4a11.471,11.471,0,0,1,.84-2.29c.49-.9,1.05-1.4,1.59-1.4a.5.5,0,0,1,.45.23,1.365,1.365,0,0,1,.08.59c0,.1,0,.34-.01.7v.1a2.9,2.9,0,0,0,.17,1.11,1.565,1.565,0,0,0,1.57.87c1.51,0,2.49-1.04,2.92-3.11a3.127,3.127,0,0,1-1.1-.75,6.267,6.267,0,0,1-.38,1.59c-.29.7-.72,1.07-1.25,1.07a.84.84,0,0,1-.53-.14c-.18-.15-.22-.35-.22-1.07,0-1.15-.05-1.51-.25-1.83a1.354,1.354,0,0,0-1.12-.57,1.871,1.871,0,0,0-1.29.59l-.19.22ZM25.05-8.29a10.216,10.216,0,0,1-.3,1.74c-.22.01-.39.01-.51.01a6.943,6.943,0,0,1-1.35-.09v1.14l.53.01c.21.01.27.01.4.01s.18,0,.63-.01a15.384,15.384,0,0,1-.94,2.36,9.1,9.1,0,0,1-.97,1.6l1.15.64c.06-.12.06-.12.19-.36.38-.7.47-.88.7-1.37a19.2,19.2,0,0,0,1.1-2.9c.62-.05,1.23-.12,1.59-.18a1.95,1.95,0,0,1,.32-.05l-.03-1.15a8.577,8.577,0,0,1-1.6.28c.11-.44.16-.64.21-.88a5.006,5.006,0,0,1,.16-.67Zm6.4,2.6a15.786,15.786,0,0,0-2.82-1.34l-.6.97a12.239,12.239,0,0,1,2.88,1.4Zm-.04,4.51a1.791,1.791,0,0,1-.15-.14,3.687,3.687,0,0,0-.35-.27,6.248,6.248,0,0,0-1.58-.92,10.617,10.617,0,0,1-.09-1.37,3.333,3.333,0,0,1,.12-1.01L28.2-4.95a5.3,5.3,0,0,0-.08,1.01c0,.3.02.69.05,1.15a4.967,4.967,0,0,0-.93-.09c-1.27,0-2.16.71-2.16,1.72S25.94.52,27.26.52a2.309,2.309,0,0,0,1.66-.56,1.6,1.6,0,0,0,.43-1.06c0-.04-.01-.11-.02-.2A6.048,6.048,0,0,1,30.86-.06Zm-3.2-.55s.02.24.02.34c0,.56-.33.84-1.01.84-.62,0-.98-.24-.98-.65s.42-.69,1.07-.69A2.521,2.521,0,0,1,28.21-1.73Zm5.6-3.94a12.55,12.55,0,0,1,1.66-.2c1.94-.14,2.56-.2,3.37-.32a4.422,4.422,0,0,0-1.39,1.01,3.482,3.482,0,0,0-.95,2.35A2.676,2.676,0,0,0,37.93-.42a6.016,6.016,0,0,0,2.34.66c.19.03.21.03.34.06l.18-1.36c-.1.01-.19.01-.2.01a6.069,6.069,0,0,1-1.49-.26,1.679,1.679,0,0,1-1.33-1.63,3.251,3.251,0,0,1,2.02-2.67,4.472,4.472,0,0,1,1.98-.54,1.548,1.548,0,0,1,.21.01l-.07-1.27a5.388,5.388,0,0,1-1.03.08c-2.67.13-4.38.22-5.11.26-1.47.1-1.47.1-1.65.1-.05,0-.16,0-.38-.01Zm6.12.96a6.749,6.749,0,0,1,1.05,1.49l.7-.37a6.481,6.481,0,0,0-1.05-1.47Zm2.94.47a5.783,5.783,0,0,0-1.04-1.41l-.67.35a7.368,7.368,0,0,1,1.02,1.45Zm5.16-3.59a2.048,2.048,0,0,1-.52.04h-.9c.16-.43.16-.43.21-.54l-1.06-.2a3.743,3.743,0,0,1-.37,1.08A4.241,4.241,0,0,1,44.26-5.9a3.07,3.07,0,0,1,.66.68v.55c0,2.9-.11,3.79-.6,4.66a3.826,3.826,0,0,1,.83.78,6.142,6.142,0,0,0,.6-2.45H47.8V-.46c0,.16-.09.21-.42.21a7.933,7.933,0,0,1-.84-.07,3.388,3.388,0,0,1,.23,1c.34.01.51.01.62.01,1.02,0,1.3-.19,1.3-.9V-5.5a3.028,3.028,0,0,1,.63.83l.11-.07a.049.049,0,0,1,.01.03,5.22,5.22,0,0,1-.11.66,4.154,4.154,0,0,1-.53,1.32,3.778,3.778,0,0,1,.89.46,5.838,5.838,0,0,0,.32-.77h.81v.9h-.99a5.9,5.9,0,0,1-.91-.05v1.07a5.844,5.844,0,0,1,.9-.05h1v1a6.754,6.754,0,0,1-.06.98h1.16a5.448,5.448,0,0,1-.06-.98v-1h.79a7.484,7.484,0,0,1,.94.04V-2.19a6.456,6.456,0,0,1-.96.05h-.77v-.9h.62a7,7,0,0,1,.89.04V-4.05a4.486,4.486,0,0,1-.89.06h-.62v-.08c0-.26.01-.48.03-.73H50.76a3.989,3.989,0,0,1,.06.73v.08h-.54c.03-.15.03-.15.12-.56l-.93-.2a3.323,3.323,0,0,0,1.1-.96,3.063,3.063,0,0,0,.57-1.41H52.2a5.646,5.646,0,0,1-.15,1c-.05.15-.15.2-.41.2a4.213,4.213,0,0,1-.77-.1,2.623,2.623,0,0,1,.23.99c.57.02.57.02.73.02.62,0,.85-.08,1.02-.33a4.281,4.281,0,0,0,.37-1.68c.04-.57.06-.86.09-1.08a7.309,7.309,0,0,1-.89.04H49.96a6.04,6.04,0,0,1-1.05-.06v1.05a6.367,6.367,0,0,1,.89-.05h.28a1.62,1.62,0,0,1-.43.91,2.77,2.77,0,0,1-.96.66c.01-.28.01-.34.03-.51a7.77,7.77,0,0,1-.95.04c.15-.24.32-.55.42-.73a5.058,5.058,0,0,1,.3-.56ZM45.94-6.02h-.23a7.815,7.815,0,0,0,.52-.88h.98a7.423,7.423,0,0,1-.46.88Zm-.13,3.47c0-.16,0-.22.01-.51v-.39h.59v.9Zm1.99,0h-.58v-.9h.58Zm0-1.73h-.58v-.85h.58Zm-1.39-.85v.85h-.57v-.85Zm17.1,2.02a8.827,8.827,0,0,1,1.11.06V-4.24a6.039,6.039,0,0,1-.84.06V-6.16a5.345,5.345,0,0,1,.04-.8,6.913,6.913,0,0,1-.93.04H61.36v-.55a3.938,3.938,0,0,1,.07-.93H60.21a4.6,4.6,0,0,1,.07.94v.54h-.82c-.42,0-.75-.02-1.06-.05v1.13a9.89,9.89,0,0,1,1.06-.05h.83c-.01.56-.03,1.14-.08,1.71H59.09a8.715,8.715,0,0,1-1.11-.06v1.19a8.559,8.559,0,0,1,1.12-.06h.96A4.07,4.07,0,0,1,57.33-.13,3.369,3.369,0,0,1,58.02.88a5.458,5.458,0,0,0,2.91-3.2A6.54,6.54,0,0,0,64.06.81a3.663,3.663,0,0,1,.59-1.14,5.306,5.306,0,0,1-3.06-2.78ZM61.27-4.18c.05-.52.07-.91.08-1.71h1.38v1.71ZM55.7-7.53A7.651,7.651,0,0,1,57.45-6.1l.7-.9A8.441,8.441,0,0,0,56.4-8.33Zm-.37,2.49a9.749,9.749,0,0,1,1.8,1.37l.64-.93a9.837,9.837,0,0,0-1.8-1.26Zm1.53,1.95a9.088,9.088,0,0,1-1.48,3l.95.83c.03-.06.24-.43.31-.56a15.327,15.327,0,0,0,1.1-2.64ZM68.28-2.07a3.572,3.572,0,0,1-.02-.42c0-.14,0-.14.02-.73l.14-3.4c.02-.43.06-.95.09-1.22H66.87c.04.28.07.78.09,1.22l.14,3.4c.03.61.03.61.03.72s-.01.22-.02.43ZM68.42.12V-1.25H66.97V.12Zm4.25-2.19a3.572,3.572,0,0,1-.02-.42c0-.14,0-.14.02-.73l.14-3.4c.02-.43.06-.95.09-1.22H71.26c.04.28.07.78.09,1.22l.14,3.4c.03.61.03.61.03.72s-.01.22-.02.43ZM72.81.12V-1.25H71.36V.12Z" transform="translate(1097 362)" fill="#fff"/>
    </g>
    <path id="路径_51297" data-name="路径 51297" d="M9.232-11.6v1.856H6.592a11.733,11.733,0,0,1-1.44-.08,12.305,12.305,0,0,1,.064,1.5V-5.7a10.938,10.938,0,0,1-.064,1.472A6.776,6.776,0,0,1,6.336-4.3H8.9a4.691,4.691,0,0,1-.848,2.032A6.311,6.311,0,0,1,6.5-3.776l-.608.432c.368.336.368.336.448.416a11.485,11.485,0,0,0,1.3,1.12A8.092,8.092,0,0,1,3.936.24a3.141,3.141,0,0,1,.448.576,8.828,8.828,0,0,0,3.76-2.272A14.22,14.22,0,0,0,14.96.688a2.149,2.149,0,0,1,.32-.736A12.93,12.93,0,0,1,11.648-.56a11.706,11.706,0,0,1-3.1-1.376A5.558,5.558,0,0,0,9.5-4.3h3.28a7.979,7.979,0,0,1,1.328.08,12.424,12.424,0,0,1-.064-1.6v-2.4a12.749,12.749,0,0,1,.064-1.6,8.458,8.458,0,0,1-1.392.08H9.872V-11.6h3.76a8.487,8.487,0,0,1,1.456.08v-.768a9.65,9.65,0,0,1-1.488.1H6.32a9.207,9.207,0,0,1-1.456-.1v.768A8.719,8.719,0,0,1,6.32-11.6Zm0,2.416C9.216-8.1,9.216-8.1,9.2-7.392H5.856V-9.184Zm4.16,0v1.792H9.824a10.856,10.856,0,0,0,.032-1.152v-.64ZM9.168-6.848a15.462,15.462,0,0,1-.176,1.984H5.856V-6.848Zm4.224,0v1.984H9.6a18.547,18.547,0,0,0,.208-1.984ZM2.464-.736a14.959,14.959,0,0,1-.1,1.936H3.2C3.152.656,3.12.08,3.12-.688v-8.72a22.045,22.045,0,0,0,1.12-2.88,7.473,7.473,0,0,1,.3-.864l-.768-.224a8.939,8.939,0,0,1-.64,2.336,15.171,15.171,0,0,1-2.8,4.88,2.318,2.318,0,0,1,.608.384A12.593,12.593,0,0,0,2.528-8.4c-.048.8-.064,1.12-.064,2.032ZM20.448-8.752H18.7a7.178,7.178,0,0,1-1.552-.1v.768a10.187,10.187,0,0,1,1.536-.1h1.536A11.958,11.958,0,0,1,19.008-5.36a13.421,13.421,0,0,1-2.224,2.944,1.844,1.844,0,0,1,.528.528,13.162,13.162,0,0,0,1.7-2.256,14.24,14.24,0,0,0,1.5-3.3c-.048,1.136-.08,2.176-.08,3.088V-.7a12.348,12.348,0,0,1-.112,1.92h.9a11.018,11.018,0,0,1-.1-1.92V-4.416c0-.816-.032-1.808-.08-3.04a11.611,11.611,0,0,0,2.448,3.6,1.811,1.811,0,0,1,.464-.528A11.628,11.628,0,0,1,22-6.624a6.988,6.988,0,0,1-.848-1.552h1.632a8.3,8.3,0,0,1,1.424.08v-.736a11.971,11.971,0,0,1-1.408.08H21.12v-2.672c.88-.272,1.648-.528,2.128-.736.3-.128.32-.128.656-.256l-.576-.56a3.081,3.081,0,0,1-.688.368,22.54,22.54,0,0,1-5.424,1.392,2.166,2.166,0,0,1,.416.608c1.248-.24,1.792-.352,2.816-.624ZM25.472-12.1a10.343,10.343,0,0,1,.1,1.776V-4.1a11.645,11.645,0,0,1-.08,1.84h.832a11.261,11.261,0,0,1-.08-1.84V-10.32a9.907,9.907,0,0,1,.1-1.776Zm3.984-.864a13.352,13.352,0,0,1,.1,1.936V-.3c0,.4-.128.48-.672.48a15.88,15.88,0,0,1-2.112-.16,2.655,2.655,0,0,1,.224.72c.752.048,1.408.08,1.872.08,1.1,0,1.376-.24,1.376-1.216V-11.024a11.654,11.654,0,0,1,.112-1.936ZM33.6-9.52a59.53,59.53,0,0,1,5.968-.544,21.39,21.39,0,0,0,3.488-.368l.016.048c-.32.128-.464.176-.64.24a6.825,6.825,0,0,0-2.176,1.392,5.637,5.637,0,0,0-2.032,4.128,3.952,3.952,0,0,0,2.16,3.52,8.706,8.706,0,0,0,2.72.928c.24.048.3.064.48.1l.144-.864a5.426,5.426,0,0,1-1.568-.24c-2.08-.576-3.2-1.792-3.2-3.5a4.723,4.723,0,0,1,1.424-3.248,7.621,7.621,0,0,1,3.248-2.08,8.182,8.182,0,0,1,2.208-.352l-.08-.784a16.681,16.681,0,0,1-3.04.24c-7.072.432-7.072.432-7.728.5-.48.032-.688.048-.864.048l-.576-.016Zm10.032,1.6a13.086,13.086,0,0,1,1.616,2.544l.592-.352a16.863,16.863,0,0,0-1.648-2.5Zm1.712-.816a14.7,14.7,0,0,1,1.568,2.464l.592-.352A16.293,16.293,0,0,0,45.888-9.04Zm7.28-2.96a26.982,26.982,0,0,0,6.352,1.072l.16-.72a19.312,19.312,0,0,1-6.224-1.024Zm-1.776,5.12a9.426,9.426,0,0,1,1.584-.464,22.393,22.393,0,0,1,4.56-.608,4,4,0,0,1,1.984.4A2.055,2.055,0,0,1,60.064-5.36c0,1.632-1.04,3.008-2.96,3.968a10.562,10.562,0,0,1-3.7.976,4.351,4.351,0,0,1,.368.768,11.462,11.462,0,0,0,4.448-1.536,4.972,4.972,0,0,0,2.608-4.144,2.711,2.711,0,0,0-1.28-2.4A4.914,4.914,0,0,0,56.9-8.32a25.8,25.8,0,0,0-4.784.608,10.925,10.925,0,0,1-1.5.256ZM65.68-2.288a7.553,7.553,0,0,1,.9-1.04A10,10,0,0,0,68-4.944l.016.016c-.048.576-.048.576-.064,2.816a16.187,16.187,0,0,1-.1,2.672h.88c-.032-.352-.048-.768-.048-1.424V-2.112L68.672-3.7c0-.624,0-.832.016-1.824A27.61,27.61,0,0,1,71.856-8.3,4.917,4.917,0,0,1,74.48-9.5a.922.922,0,0,1,.992,1.056A21.939,21.939,0,0,1,74.816-4.7a11.184,11.184,0,0,0-.352,2.4c0,1.264.64,2.016,1.744,2.016,1.184,0,2.112-.848,2.992-2.752a2.785,2.785,0,0,1-.544-.672C78.128-2.08,77.168-.96,76.272-.96c-.72,0-1.1-.448-1.1-1.3a12.171,12.171,0,0,1,.352-2.4,17.247,17.247,0,0,0,.688-3.9,1.586,1.586,0,0,0-1.632-1.616,4.35,4.35,0,0,0-2.336.832,20.243,20.243,0,0,0-3.456,2.88l-.112.128-.032-.016c.048-.288.064-.432.064-.448.016-.848.016-.848.032-1.248,0-.112.016-.272.016-.48a6.554,6.554,0,0,1,.768-.96l-.3-.432a1.257,1.257,0,0,1-.4.08,13.467,13.467,0,0,1,.208-2.944l-.9-.016a6.424,6.424,0,0,1,.032.784c0,.336,0,.336-.048,2.24-1.312.1-1.888.128-2.16.128-.144,0-.24,0-.448-.016l.048.768a15.738,15.738,0,0,1,2.528-.24C68.032-7.616,68-6.5,68-5.76a21.943,21.943,0,0,1-2.816,2.688ZM83.936-12.336a6.48,6.48,0,0,1,.048.72c0,.24,0,.592-.016,1.056-.144,5.248-.144,5.52-.144,6.528,0,1.648.192,2.4.8,3.12a3.5,3.5,0,0,0,2.848,1.1,5.492,5.492,0,0,0,4.4-1.968,9.8,9.8,0,0,0,1.7-3.424,3.84,3.84,0,0,1-.768-.576,8.48,8.48,0,0,1-.816,2.432A4.85,4.85,0,0,1,87.632-.528,2.778,2.778,0,0,1,85.1-1.6a4.3,4.3,0,0,1-.5-2.592c0-1.056.1-5.392.144-6.368a15.334,15.334,0,0,1,.16-1.776Zm14.432,1.152c.032.288.032.4.048.88a26.8,26.8,0,0,0,.592,6.448c.512,1.9,1.44,3.152,2.368,3.152.592,0,1.056-.368,1.456-1.136a9.779,9.779,0,0,0,.928-2.48,3.4,3.4,0,0,1-.624-.64A11.1,11.1,0,0,1,102.32-2.3c-.272.576-.56.848-.9.848-.3,0-.656-.288-.992-.8a8.861,8.861,0,0,1-1.072-3.92c-.1-1.008-.16-2.416-.16-3.312a11.131,11.131,0,0,1,.1-1.68ZM106.48-9.92a13.664,13.664,0,0,1,3.328,7.584l.752-.32a16.9,16.9,0,0,0-.864-3.312,14.5,14.5,0,0,0-2.576-4.288Zm8.752-1.008a12.327,12.327,0,0,0,.448-1.36c.128-.448.176-.624.272-.88l-.8-.128a8.327,8.327,0,0,1-.64,2.432,7.433,7.433,0,0,1-1.648,2.512,1.79,1.79,0,0,1,.56.48,11.381,11.381,0,0,0,1.552-2.448h1.456c-.016,1.872-.032,2.272-.1,3.216H114.72a10.986,10.986,0,0,1-1.68-.1v.8a11.185,11.185,0,0,1,1.664-.1h1.584a7.913,7.913,0,0,1-3.5,6.32,2.4,2.4,0,0,1,.544.528,8.178,8.178,0,0,0,3.264-4.832,10.5,10.5,0,0,0,.576.976A14.613,14.613,0,0,0,119.376-.96a2.223,2.223,0,0,1,.48-.592,10.3,10.3,0,0,1-2.128-2.208,8.041,8.041,0,0,1-.96-1.552,7.862,7.862,0,0,0,.16-1.184h1.584a9.588,9.588,0,0,1,1.5.1v-.8a9.531,9.531,0,0,1-1.52.1h-1.5c.08-1.2.1-1.472.112-3.216h1.184c.544,0,1.1.032,1.568.08v-.784a8.509,8.509,0,0,1-1.568.1Zm6.688-.608a8.09,8.09,0,0,1-1.408-.08,13.6,13.6,0,0,1,.1,1.68v8.608a13.558,13.558,0,0,1-.1,1.824h.768V-.672H125.7V.5h.784a17.963,17.963,0,0,1-.1-1.92V-9.936a11.829,11.829,0,0,1,.08-1.68,8.09,8.09,0,0,1-1.408.08Zm-.64.608H125.7V-1.28H121.28Zm14.832-.848a9.257,9.257,0,0,1,.112-1.648h-.88a8.576,8.576,0,0,1,.112,1.648h-4.832a7.971,7.971,0,0,1-1.52-.112v.816a10.1,10.1,0,0,1,1.52-.1h4.832v1.456h-2.944a10.574,10.574,0,0,1-1.792-.1,15.164,15.164,0,0,1,.064,1.76V-6.08a14.7,14.7,0,0,1-.064,1.728,10.055,10.055,0,0,1,1.888-.1h6.72a9.755,9.755,0,0,1,1.856.1,14.008,14.008,0,0,1-.064-1.728V-8.1a13.868,13.868,0,0,1,.064-1.712,9.452,9.452,0,0,1-1.84.1h-3.232v-1.456h5.2a11.2,11.2,0,0,1,1.552.1v-.816a7.485,7.485,0,0,1-1.552.112Zm-.656,2.608v1.712H131.44V-9.168Zm.656,0h4.352v1.712h-4.352Zm-.656,2.256v1.92H131.44v-1.92Zm.656,0h4.352v1.92h-4.352Zm6.96,6.656a17.643,17.643,0,0,0-2.48-3.184l-.528.352a15.086,15.086,0,0,1,2.4,3.248Zm-5.3-1.52a13.629,13.629,0,0,0-2.384-2.08l-.464.384A12.541,12.541,0,0,1,137.28-1.3ZM129.616.4a11.779,11.779,0,0,0,1.744-3.472l-.624-.272a9.191,9.191,0,0,1-1.728,3.36Zm4.048-2.768a5.061,5.061,0,0,1,.1-1.168h-.832a5.441,5.441,0,0,1,.1,1.2V-.272c0,.464.112.64.48.768a8.789,8.789,0,0,0,2.544.192c3.552,0,3.648-.048,3.888-2.112a1.99,1.99,0,0,1-.672-.32,2.97,2.97,0,0,1-.272,1.456c-.224.288-.832.368-3.12.368-1.92,0-2.208-.048-2.208-.416Zm19.024-8.416a5.277,5.277,0,0,1,1.984.384,4.345,4.345,0,0,1,2.784,4.24,5.006,5.006,0,0,1-2.848,4.576,10.613,10.613,0,0,1-2.672.816,1.62,1.62,0,0,1,.384.72A12.566,12.566,0,0,0,154.656-.8a5.761,5.761,0,0,0,3.568-5.36,5.2,5.2,0,0,0-1.536-3.792,6.022,6.022,0,0,0-4.208-1.488,6.356,6.356,0,0,0-5.6,2.848,6.681,6.681,0,0,0-1.056,3.552c0,2.048,1.056,3.632,2.432,3.632,1.072,0,2-.992,2.9-3.1A24.177,24.177,0,0,0,152.688-10.784Zm-.768.032a26.788,26.788,0,0,1-.528,3.056,13.076,13.076,0,0,1-1.984,4.848,1.511,1.511,0,0,1-1.168.7c-.944,0-1.68-1.264-1.68-2.9a5.66,5.66,0,0,1,2.832-4.992A5.641,5.641,0,0,1,151.92-10.752Zm18.944,6V-9.1h1.9a13.05,13.05,0,0,1,1.648.08v-.784a11.243,11.243,0,0,1-1.648.1h-1.9v-1.7a10.189,10.189,0,0,1,.112-1.632h-.9a9.673,9.673,0,0,1,.1,1.664v1.664h-4.5v-1.7a10.855,10.855,0,0,1,.1-1.632h-.9a8.5,8.5,0,0,1,.112,1.632v1.7h-1.728a10.57,10.57,0,0,1-1.552-.1v.784a9.674,9.674,0,0,1,1.552-.08h1.728v4.352h-2.24a13.364,13.364,0,0,1-1.76-.112v.848a14.373,14.373,0,0,1,1.76-.112h10.4a15.342,15.342,0,0,1,1.84.112v-.848a14.126,14.126,0,0,1-1.84.112Zm-.688,0h-4.5V-9.1h4.5Zm-4.432,1.584a7.857,7.857,0,0,1-2.08,2.16A9.865,9.865,0,0,1,161.072.4a1.8,1.8,0,0,1,.544.608,12.994,12.994,0,0,0,2.112-1.216,13.161,13.161,0,0,0,2.64-2.544Zm3.728.416A11.861,11.861,0,0,0,171.5-.688,13.666,13.666,0,0,0,174.336,1.1,1.712,1.712,0,0,1,174.88.48a11.264,11.264,0,0,1-2.672-1.488A7.4,7.4,0,0,1,170.1-3.184Zm11.744-5.616a14.5,14.5,0,0,0,1.232-2.08h6.928a12.79,12.79,0,0,1,1.664.1v-.816a12.281,12.281,0,0,1-1.664.1h-6.624c.176-.416.32-.768.448-1.168a8.019,8.019,0,0,1,.32-.864l-.864-.176a7.818,7.818,0,0,1-.64,2.208H178.7a12.717,12.717,0,0,1-1.712-.1v.816a13.227,13.227,0,0,1,1.712-.1h3.024a12.574,12.574,0,0,1-2.16,3.152,12.916,12.916,0,0,1-2.976,2.5,2.358,2.358,0,0,1,.576.544,16.626,16.626,0,0,0,3.152-2.96v6.48a15.29,15.29,0,0,1-.1,1.744h.848a12.844,12.844,0,0,1-.08-1.744v-1.9h7.136V-.32c0,.384-.128.5-.624.5A16.871,16.871,0,0,1,185.3.032a2.512,2.512,0,0,1,.16.7c.72.048,1.44.064,2.064.064.96,0,1.28-.272,1.28-1.072V-6.56c0-.864.016-1.376.064-1.888a12.446,12.446,0,0,1-1.728.08ZM180.992-3.2V-5.248h7.136V-3.2Zm0-2.608V-7.792h7.136v1.984Zm16.384-3.376V-11.2a6.448,6.448,0,0,1,.064-1.264h-.912a8.741,8.741,0,0,1,.064,1.328v1.952h-1.52a10.583,10.583,0,0,1-1.76-.1v.848c.528-.048,1.008-.064,1.76-.064h1.52v2.752a8.741,8.741,0,0,1-.064,1.328h.912a6.448,6.448,0,0,1-.064-1.264V-8.5h5.216c0,1.072-.032,1.968-.08,2.56A5.4,5.4,0,0,1,200.8-1.9,6.563,6.563,0,0,1,197.744-.32a1.85,1.85,0,0,1,.48.688,8.591,8.591,0,0,0,2.464-1.232,5.781,5.781,0,0,0,2.32-3.232,11.541,11.541,0,0,0,.32-3.248c0-.256.016-.64.016-1.152h1.584c.752,0,1.232.016,1.76.064V-9.28a10.583,10.583,0,0,1-1.76.1H203.36c0-.992.016-1.712.016-1.776a9.8,9.8,0,0,1,.048-1.488h-.88a3.59,3.59,0,0,1,.064.88c0,.352,0,1.328-.016,2.384ZM209.52-5.7A8.815,8.815,0,0,1,211.1-5.76h9.808A8.815,8.815,0,0,1,222.5-5.7v-.88a6.991,6.991,0,0,1-1.584.08H211.1a6.991,6.991,0,0,1-1.584-.08Zm18.72-5.04a8.562,8.562,0,0,1,.08-1.28l-.928.016a8.479,8.479,0,0,1,.064,1.248v7.36c0,1.664.128,2.192.624,2.624.528.448,1.568.64,3.408.64a43.911,43.911,0,0,0,4.9-.3l.7-.064-.1-.88a7.672,7.672,0,0,1-1.488.288,33.4,33.4,0,0,1-3.632.256,18.3,18.3,0,0,1-1.984-.1,2.03,2.03,0,0,1-1.3-.464c-.288-.288-.352-.688-.352-1.888V-6a23.882,23.882,0,0,0,7.7-2.784,4.318,4.318,0,0,1,.672-.336L236-9.856a9.646,9.646,0,0,1-2.56,1.52,21.446,21.446,0,0,1-5.2,1.648Zm9.152-2.7a14.7,14.7,0,0,1,1.568,2.464l.592-.352a16.293,16.293,0,0,0-1.616-2.416Zm-1.712.816A13.086,13.086,0,0,1,237.3-10.08l.592-.352a16.863,16.863,0,0,0-1.648-2.5ZM254.24-.672a40.724,40.724,0,0,0-5.392-4.944,23.283,23.283,0,0,0,2.672-4.56,3,3,0,0,1,.416-.736l-.5-.512a2.445,2.445,0,0,1-.832.112l-5.728.064h-.432a6.967,6.967,0,0,1-1.2-.08l.032.928a12.345,12.345,0,0,1,1.584-.112c5.824-.1,5.824-.1,5.952-.112-.064.112-.08.16-.128.256a18.064,18.064,0,0,1-5.872,7.552,13.078,13.078,0,0,1-3.264,1.9,1.865,1.865,0,0,1,.544.7,19.994,19.994,0,0,0,6.256-4.848,30.24,30.24,0,0,1,5.216,5.024Zm4.992-2.9a2.264,2.264,0,0,0-2.256,2.256A2.267,2.267,0,0,0,259.232.96,2.253,2.253,0,0,0,261.488-1.3,2.257,2.257,0,0,0,259.232-3.568Zm0,.656a1.6,1.6,0,0,1,1.6,1.6A1.608,1.608,0,0,1,259.232.3a1.608,1.608,0,0,1-1.6-1.616A1.6,1.6,0,0,1,259.232-2.912Z" transform="translate(1007 1779.942)" fill="#111"/>
  </g>
</svg>
