<svg xmlns="http://www.w3.org/2000/svg" width="24.989" height="25" viewBox="0 0 24.989 25">
  <g id="icon_logo" transform="translate(-9.048 0)">
    <path id="路径_3928" data-name="路径 3928" d="M22.981,1.939a3.887,3.887,0,0,0,1.731-1,3.179,3.179,0,1,1,3.08,5.31,3.885,3.885,0,0,0-2.748,4.758A3.179,3.179,0,1,1,18.907,11a3.872,3.872,0,0,0-1.028-3.762,3.18,3.18,0,0,1,3.068-5.305,3.88,3.88,0,0,0,2.033.008" transform="translate(-4.755 0)" fill="#45b2e6"/>
    <path id="矩形_958" data-name="矩形 958" d="M.374,0h0A.373.373,0,0,1,.748.373v.45A.374.374,0,0,1,.374,1.2h0A.374.374,0,0,1,0,.822V.374A.374.374,0,0,1,.374,0Z" transform="translate(13.133 5.225) rotate(-60.069)" fill="#fff"/>
    <path id="路径_3929" data-name="路径 3929" d="M22.952,7.982a.283.283,0,0,1,.1.386l-.091.158a.283.283,0,0,1-.386.1l-.546-.315a.283.283,0,0,1-.1-.386l.091-.158a.283.283,0,0,1,.386-.1Z" transform="translate(-7.712 -4.581)" fill="#fff"/>
    <path id="路径_3930" data-name="路径 3930" d="M25.072,11.063A2.01,2.01,0,0,0,25,8.935a.064.064,0,0,0-.089-.015l-.389.283a.061.061,0,0,0-.006.087,1.406,1.406,0,0,1-1.255,2.174.06.06,0,0,0-.072.049l-.05.479a.065.065,0,0,0,.057.07,2.01,2.01,0,0,0,1.882-1" transform="translate(-8.458 -5.35)" fill="#fff"/>
    <path id="路径_3931" data-name="路径 3931" d="M19.968,35.1a3.179,3.179,0,1,1,3.06,5.321,3.873,3.873,0,0,0-2.744,2.771,3.18,3.18,0,0,1-6.129,0,3.873,3.873,0,0,0-2.74-2.765A3.179,3.179,0,1,1,14.474,35.1a3.885,3.885,0,0,0,5.494,0" transform="translate(0 -20.518)" fill="#9cc948"/>
    <path id="矩形_959" data-name="矩形 959" d="M.373,0h0A.374.374,0,0,1,.747.374V.823A.373.373,0,0,1,.374,1.2h0A.374.374,0,0,1,0,.822V.373A.373.373,0,0,1,.373,0Z" transform="translate(17.79 22.473)" fill="#fff"/>
    <path id="矩形_960" data-name="矩形 960" d="M.373,0h0A.374.374,0,0,1,.747.374V.822A.373.373,0,0,1,.374,1.2h0A.373.373,0,0,1,0,.822V.373A.373.373,0,0,1,.373,0Z" transform="translate(15.904 22.474) rotate(-0.125)" fill="#fff"/>
    <path id="路径_3932" data-name="路径 3932" d="M26.788,51.088a2.012,2.012,0,0,0-1.805,1.131.065.065,0,0,0,.032.085l.439.2a.061.061,0,0,0,.079-.038,1.406,1.406,0,0,1,2.51,0,.061.061,0,0,0,.078.038l.439-.2a.064.064,0,0,0,.032-.084,2.01,2.01,0,0,0-1.8-1.131" transform="translate(-9.566 -30.679)" fill="#fff"/>
    <path id="路径_3933" data-name="路径 3933" d="M43.318,25.15a3.861,3.861,0,0,0-2.359-1.81,3.178,3.178,0,1,1,3.078-5.311,3.874,3.874,0,0,0,3.772.991,3.179,3.179,0,0,1,3.06,5.31,3.872,3.872,0,0,0-1.024,3.756,3.179,3.179,0,1,1-6.138.012h0a3.862,3.862,0,0,0-.388-2.948" transform="translate(-17.748 -10.262)" fill="#f8b500"/>
    <path id="矩形_961" data-name="矩形 961" d="M.374,0H.823A.373.373,0,0,1,1.2.373v0A.374.374,0,0,1,.822.747H.373A.373.373,0,0,1,0,.374v0A.374.374,0,0,1,.374,0Z" transform="matrix(0.866, -0.501, 0.501, 0.866, 30.763, 10.37)" fill="#fff"/>
    <path id="路径_3934" data-name="路径 3934" d="M66.538,29.8a.283.283,0,0,1-.386-.1l-.091-.158a.283.283,0,0,1,.1-.386l.546-.315a.283.283,0,0,1,.386.1l.091.158a.282.282,0,0,1-.1.386Z" transform="translate(-34.214 -17.297)" fill="#fff"/>
    <path id="路径_3935" data-name="路径 3935" d="M60.175,28.152a2.011,2.011,0,0,0,1.882,1,.065.065,0,0,0,.057-.07l-.05-.479a.061.061,0,0,0-.072-.049,1.406,1.406,0,0,1-1.255-2.174.061.061,0,0,0-.006-.087l-.389-.283a.065.065,0,0,0-.089.014,2.01,2.01,0,0,0-.077,2.129" transform="translate(-30.541 -15.612)" fill="#fff"/>
  </g>
</svg>
