<svg xmlns="http://www.w3.org/2000/svg" width="35.284" height="27.443" viewBox="0 0 35.284 27.443">
  <g id="カメラのアイコン素材_6" data-name="カメラのアイコン素材 6" transform="translate(0 0)">
    <path id="路径_4712" data-name="路径 4712" d="M198.127,224.828a4.322,4.322,0,1,0,4.283,4.322A4.3,4.3,0,0,0,198.127,224.828Z" transform="translate(-180.486 -213.255)" fill="#fff"/>
    <path id="路径_4713" data-name="路径 4713" d="M32.993,62.325h-4.04a2.289,2.289,0,0,1-2.088-1.363l-1.209-2.709a2.291,2.291,0,0,0-2.089-1.362H11.716a2.294,2.294,0,0,0-2.09,1.362L8.418,60.961A2.289,2.289,0,0,1,6.33,62.325H2.29A2.3,2.3,0,0,0,0,64.634V82.023a2.3,2.3,0,0,0,2.29,2.31h30.7a2.3,2.3,0,0,0,2.29-2.31V64.634A2.3,2.3,0,0,0,32.993,62.325ZM17.642,80.8a8.015,8.015,0,1,1,7.946-8.014A7.979,7.979,0,0,1,17.642,80.8Z" transform="translate(0 -56.89)" fill="#fff"/>
  </g>
</svg>
