<svg xmlns="http://www.w3.org/2000/svg" width="13.938" height="14.922" viewBox="0 0 13.938 14.922">
  <g id="组_1192" data-name="组 1192" transform="translate(0)">
    <path id="路径_1250" data-name="路径 1250" d="M50.226,302.621H44.3a.883.883,0,0,0,.058-.313.9.9,0,1,0-1.793,0,.945.945,0,0,0,.058.313h-5.93a.2.2,0,0,0-.2.2v1.127a.2.2,0,0,0,.074.153v11.7a.2.2,0,0,0,.2.2h.126l0,.032a.3.3,0,0,0,.3.3H49.726a.3.3,0,0,0,.3-.3l0-.032h.15a.2.2,0,0,0,.2-.2V304.076a.188.188,0,0,0,.05-.129v-1.127a.2.2,0,0,0-.2-.2m-6.765-.605a.289.289,0,0,1,.29.292.291.291,0,1,1-.29-.292m6.312,13.174a.2.2,0,0,1-.2.2H37.386a.2.2,0,0,1-.2-.2V304.15h12.59Z" transform="translate(-36.491 -301.41)" fill="#4b4b4b"/>
    <path id="路径_1251" data-name="路径 1251" d="M39.623,309.213a.914.914,0,0,1-.655-.261,1.232,1.232,0,0,1-.329-.737.653.653,0,0,0-1.3.058.592.592,0,0,0,.021.153,2.114,2.114,0,0,0,.711,1.35,2.287,2.287,0,0,0,1.566.542,2.314,2.314,0,0,0,1.666-.645,2.1,2.1,0,0,0,.669-1.561,1.662,1.662,0,0,0-.358-1.079,1.616,1.616,0,0,0-.956-.574,1.588,1.588,0,0,0,.511-2.622,2.073,2.073,0,0,0-1.574-.626,2.4,2.4,0,0,0-1.037.218,1.741,1.741,0,0,0-.724.592,2.8,2.8,0,0,0-.387,1.008h0a.483.483,0,0,0-.013.124.62.62,0,0,0,1.235.084h.008a1.115,1.115,0,0,1,.292-.692.811.811,0,0,1,.584-.237.716.716,0,0,1,.763.769.829.829,0,0,1-.284.663,1.013,1.013,0,0,1-.584.226l-.008.005a.492.492,0,0,0,.011.974,1.458,1.458,0,0,0,.205.013l.018,0a.869.869,0,0,1,.658.295,1.144,1.144,0,0,1,.271.8,1.223,1.223,0,0,1-.282.845.907.907,0,0,1-.7.313" transform="translate(-35.112 -298.47)" fill="#4b4b4b"/>
    <path id="路径_1252" data-name="路径 1252" d="M43.064,303.933a2.1,2.1,0,0,0-3.156-.011,6.354,6.354,0,0,0-.061,5.615,1.989,1.989,0,0,0,1.637.782,1.9,1.9,0,0,0,1.577-.713,6.23,6.23,0,0,0,0-5.673m-.853,4.572a1.028,1.028,0,0,1-.295.553.669.669,0,0,1-.432.155.654.654,0,0,1-.429-.153,1.2,1.2,0,0,1-.313-.611,11.439,11.439,0,0,1,.016-3.425,1.045,1.045,0,0,1,.295-.553.669.669,0,0,1,.432-.155.662.662,0,0,1,.429.155,1.176,1.176,0,0,1,.311.613,7.409,7.409,0,0,1,.124,1.682,7.556,7.556,0,0,1-.137,1.737" transform="translate(-32.03 -298.469)" fill="#4b4b4b"/>
  </g>
</svg>
