<svg xmlns="http://www.w3.org/2000/svg" width="35.5" height="27.944" viewBox="0 0 35.5 27.944">
  <g id="组_3233" data-name="组 3233" transform="translate(15970.505 8597.894)">
    <path id="路径_5150" data-name="路径 5150" d="M45.4,693.725l7.01,6.746,1.369,1.316.5.482a.41.41,0,0,0,.575-.012l1.381-1.44L57.5,699.5a1.466,1.466,0,0,0-.04-2.062l-1.224-1.176-6.791-6.532a1.457,1.457,0,0,0-2.055.043l-2.647,2.759a.4.4,0,0,0,.012.57Z" transform="translate(-15993.432 -9286.693)" fill="#fe636e" fill-rule="evenodd"/>
    <path id="路径_5151" data-name="路径 5151" d="M45.221,691.359l-7.535,7.247c.24,2,.613,3.873,1.851,4.921l10.215,8.3,1.238.953c1.861,1.428,3.621-.57,2.207-2.048l-.062-.064a1.828,1.828,0,0,0,1.483.44,1.3,1.3,0,0,0,.789-2.281c1.858,1.482,3.448-.879,1.991-2.177a1.942,1.942,0,0,0,1.706-3.379l-.04-.045-4.225-6.285L49.17,693.3Z" transform="translate(-16002.985 -9283.898)" fill="#ffbc85" fill-rule="evenodd"/>
    <path id="路径_5152" data-name="路径 5152" d="M44.853,701.673a1.587,1.587,0,0,0-1.989-2.467l-1.357,1.29a.313.313,0,0,1-.045.04c-1.141,1.148.931,3.757,2.645,1.929Z" transform="translate(-15998.238 -9273.569)" fill="#ffe5c1" fill-rule="evenodd"/>
    <path id="路径_5153" data-name="路径 5153" d="M41.9,698.438l-1.435,1.5,0,.007a1.575,1.575,0,0,0,.63,2.391,1.485,1.485,0,0,0,1.775-.236l1.537-.024-.135-1.309.2-.183a1.671,1.671,0,1,0-2.414-2.31Z" transform="translate(-15999.642 -9275.137)" fill="#ffe5c1" fill-rule="evenodd"/>
    <path id="路径_5154" data-name="路径 5154" d="M40.9,697.959l-1.345,1.428-.19.2c-1.324,1.4,1.05,3.621,2.421,2.184l.235-.242c.019-.021,1.459-.171,1.616-.188l-.024-1.483.459-.482a1.641,1.641,0,1,0-2.4-2.243Z" transform="translate(-16001.205 -9276.716)" fill="#ffe5c1" fill-rule="evenodd"/>
    <path id="路径_5155" data-name="路径 5155" d="M39,697.155l-.456.494c-1.4,1.523.689,3.949,2.255,2.545l1.288-.2.057-1.226a1.709,1.709,0,0,0-2.692-2.105Z" transform="translate(-16002.443 -9277.524)" fill="#ffe5c1" fill-rule="evenodd"/>
    <path id="路径_5156" data-name="路径 5156" d="M44.175,689.795l-6.24,6L36.16,697.5a1.463,1.463,0,0,0-.04,2.06l2.647,2.759a.407.407,0,0,0,.573.012l1.057-1.017,7.535-7.247.936-.9a.405.405,0,0,0,.01-.573l-2.647-2.759a1.455,1.455,0,0,0-2.055-.043" transform="translate(-16005.695 -9286.608)" fill="#7bacdf" fill-rule="evenodd"/>
    <path id="路径_5157" data-name="路径 5157" d="M45.367,693.952l-1.9.435.744.753,5.738,5.7.038.043a2.083,2.083,0,0,1,.582,2.153,1.972,1.972,0,0,0,.57-3.339l-.04-.045-1.723-1.706Z" transform="translate(-15995.023 -9280.33)" fill="#f5a96c" fill-rule="evenodd"/>
    <path id="路径_5158" data-name="路径 5158" d="M41.556,691.36l-1.207,1.157,3.771,1.863,1.385-1.076Z" transform="translate(-15999.32 -9283.898)" fill="#f5a96c" fill-rule="evenodd"/>
    <path id="路径_5159" data-name="路径 5159" d="M44.969,693.554l-1.385,1.074-1.307,1.008c-3.3,2.547-.561,5.068,1.395,4.2l2.2-1.324,1.362-.311,1.9-.435,4.013,3.994,1.723,1.708c1.084-.4,2.614-1.573,4.268-4.232l-8.378-8.062-1.506,1.2c-.247.2-.171.159-.485.15a5.689,5.689,0,0,0-3.41.727Z" transform="translate(-15998.785 -9284.147)" fill="#ffe5c1" fill-rule="evenodd"/>
    <path id="路径_5160" data-name="路径 5160" d="M44.844,694.212l-2.2,1.324a2.143,2.143,0,0,1-1.822-.064,2.164,2.164,0,0,0,2.73.939l2.2-1.323,1.362-.311,1.87-.425c-.865-.744-1.022-.851-2.78-.449Z" transform="translate(-15998.666 -9280.72)" fill="#fed1a3" fill-rule="evenodd"/>
    <path id="路径_5161" data-name="路径 5161" d="M50.355,694.017a10.594,10.594,0,0,1-3.892,4.073,3.493,3.493,0,0,1-.342.147l1.335,1.328c1.084-.4,2.614-1.573,4.268-4.232Z" transform="translate(-15991.377 -9280.242)" fill="#fed1a3" fill-rule="evenodd"/>
    <path id="路径_5162" data-name="路径 5162" d="M49.907,695.406l-1.381,1.44a.4.4,0,0,1-.57.012l1.243,1.2.5.482a.4.4,0,0,0,.573-.012l1.381-1.437,1.266-1.319a1.463,1.463,0,0,0-.04-2.06l-1.549-1.49.131.128-.323-.311a1.458,1.458,0,0,1,.036,2.051Z" transform="translate(-15988.852 -9282.967)" fill="#fb2a39" fill-rule="evenodd"/>
    <path id="路径_5163" data-name="路径 5163" d="M38.378,691.851a1.453,1.453,0,0,1,2.048.047l2.649,2.759a.407.407,0,0,1-.012.57l1.2-1.157.936-.9a.41.41,0,0,0,.012-.575l-2.647-2.759a1.458,1.458,0,0,0-2.058-.04Z" transform="translate(-16002.033 -9286.608)" fill="#3987d0" fill-rule="evenodd"/>
    <path id="路径_5164" data-name="路径 5164" d="M38.079,698.342a1.668,1.668,0,0,0,2.718,1.38l.844-.893.5-.535a1.584,1.584,0,0,0,.069-1.96,1.476,1.476,0,0,1-.378.981l-.891.948-.449.48a1.55,1.55,0,0,1-2.414-.4" transform="translate(-16002.443 -9277.052)" fill="#fed1a3" fill-rule="evenodd"/>
    <path id="路径_5165" data-name="路径 5165" d="M39.006,700.735a1.676,1.676,0,0,0,2.747.843l.235-.242.007-.007,1.433-1.5c.052-.057.1-.112.152-.159l.459-.482a1.57,1.57,0,0,0-.188-2.464,1.586,1.586,0,0,1-.456,1.545l-.463.48c-.05.052-.1.1-.15.159l-1.435,1.5-.007,0-.233.247a1.506,1.506,0,0,1-2.1.076" transform="translate(-16001.169 -9276.523)" fill="#fed1a3" fill-rule="evenodd"/>
    <path id="路径_5166" data-name="路径 5166" d="M42.877,701.82l1.046-.993.311-.3.2-.183a1.611,1.611,0,0,0-.1-2.443,1.521,1.521,0,0,1-.459,1.563l-.192.185-.556.525-.8.768-.048.038a1.488,1.488,0,0,1-1.775.237,1.9,1.9,0,0,1-.359-.257,1.892,1.892,0,0,0,.917,1.131,1.487,1.487,0,0,0,1.775-.233Z" transform="translate(-15999.608 -9274.892)" fill="#fed1a3" fill-rule="evenodd"/>
    <path id="路径_5167" data-name="路径 5167" d="M44.852,701.372a1.567,1.567,0,0,0,.071-2.288,1.763,1.763,0,0,1-.53,1.155l-.748.8a1.582,1.582,0,0,1-2.509.026,1.684,1.684,0,0,0,2.97,1.1Z" transform="translate(-15998.238 -9273.268)" fill="#fed1a3" fill-rule="evenodd"/>
    <path id="路径_5168" data-name="路径 5168" d="M45.138,700.913a.517.517,0,0,1-.356-.14l-1.067-.991a.524.524,0,0,1,.713-.768l1.067.991a.523.523,0,0,1-.356.908" transform="translate(-15994.918 -9273.557)"/>
    <path id="路径_5169" data-name="路径 5169" d="M70.39,697.365l-8.015-7.708a1.977,1.977,0,0,0-2.8.057l-2.652,2.759a.932.932,0,0,0,.031,1.312l.214.209-1.088.867-.09,0a5.857,5.857,0,0,0-3.745.839l-.126.1-2.987-1.473.4-.38a.933.933,0,0,0,.029-1.314l-2.649-2.758a1.977,1.977,0,0,0-2.8-.057L36.1,697.515a1.986,1.986,0,0,0-.052,2.8l2.642,2.759a.941.941,0,0,0,1.316.029l.316-.3a7.419,7.419,0,0,0,1.5,3.847l-.112.121a2.279,2.279,0,0,0,.109,3.179,2.112,2.112,0,0,0,1.442.663,2.182,2.182,0,0,0,.718,1.777,2.329,2.329,0,0,0,1.571.663,1.8,1.8,0,0,0,.43-.052,2.367,2.367,0,0,0,.658,1.243,2.227,2.227,0,0,0,1.554.682c.062,0,.121,0,.185-.009a1.787,1.787,0,0,0,.057.347,2.4,2.4,0,0,0,1.659,1.728,2.058,2.058,0,0,0,.5.062,2.238,2.238,0,0,0,1.659-.794l.582-.622.853.658a2.642,2.642,0,0,0,1.6.6,1.983,1.983,0,0,0,1.5-.673,1.909,1.909,0,0,0,.447-1.48,2.163,2.163,0,0,0,1.67-.639,1.733,1.733,0,0,0,.487-1.2,1.876,1.876,0,0,0,1.637-.653,2.046,2.046,0,0,0,.368-1.955,2.459,2.459,0,0,0,1.5-3.776,10.759,10.759,0,0,0,3.54-3.61l.045.045a.915.915,0,0,0,.639.254.931.931,0,0,0,.67-.283l2.645-2.759a1.984,1.984,0,0,0-.052-2.8M42.483,707.478l.91-.986a1.227,1.227,0,0,1,1.176-.478,1.339,1.339,0,0,1,.929.91.988.988,0,0,1-.221,1L44,709.28a.978.978,0,0,1-1.438-.069,1.215,1.215,0,0,1-.081-1.732m2.215,4.149c-.081-.074-.758-.753-.152-1.4h0l2.31-2.452a1.106,1.106,0,0,1,.827-.394,1.259,1.259,0,0,1,.247.029,1.242,1.242,0,0,1,.886.817,1.081,1.081,0,0,1-.326,1.069l-.489.511c-.024.024-.045.052-.071.076l-1.73,1.808a1.031,1.031,0,0,1-1.5-.066M47.38,713.5a.969.969,0,0,1-.176-1.338l.014-.014,1.409-1.478.024-.026.017-.017.088-.095a1.189,1.189,0,0,1,1.119-.4,1.272,1.272,0,0,1,.9.891,1,1,0,0,1-.316,1.041l-.169.164-.014.012-.033.031-1.316,1.252-.012.01-.026.024a1.036,1.036,0,0,1-1.509-.059m4.108,2.034a1.14,1.14,0,0,1-1.131.435,1.368,1.368,0,0,1-.908-.962.69.69,0,0,1,.15-.677l.031-.026,1.357-1.29a.973.973,0,0,1,1.321.164,1.04,1.04,0,0,1-.074,1.561Zm10.588-6.919a1.371,1.371,0,0,1-1.4.653l-2-1.863a.524.524,0,0,0-.71.77l2.093,1.948,0,0,0,0a1,1,0,0,1,.166,1.435c-.352.416-.9.394-1.471-.052l-2.077-1.934a.52.52,0,0,0-.739.026.527.527,0,0,0,.026.741l2.079,1.934c.361.392.4.779.1,1.093a1.206,1.206,0,0,1-1.666-.019.525.525,0,0,0-.7.779A.971.971,0,0,1,56,715.536c-.314.364-.955.48-1.678-.076l-.863-.663a2.027,2.027,0,0,0-.4-2.348,2.268,2.268,0,0,0-1.257-.656,2.045,2.045,0,0,0-.014-1.036,2.316,2.316,0,0,0-1.678-1.639,2.6,2.6,0,0,0-.3-.045,2,2,0,0,0,.007-1.141,2.286,2.286,0,0,0-1.647-1.537,2.06,2.06,0,0,0-1.654.3l-.024-.078a2.379,2.379,0,0,0-1.694-1.625,2.243,2.243,0,0,0-2.184.789l-.086.09a7.773,7.773,0,0,1-1.285-3.968l2.212-2.124a.525.525,0,0,0-.727-.758L40.365,701.3a.371.371,0,0,0-.055.052l-.943.908L36.8,699.592a.936.936,0,0,1,.024-1.319l8.015-7.708a.92.92,0,0,1,.663-.259.93.93,0,0,1,.653.285l2.564,2.671-4.329,4.165a.524.524,0,0,0,.727.756l3.213-3.091,2.866,1.414-2.027,1.566c-2.426,1.879-1.694,3.571-1.411,4.044a2.669,2.669,0,0,0,2.286,1.274,2.6,2.6,0,0,0,1.055-.221c.019-.009.036-.017.057-.028l2.129-1.281,2.892-.663,5.532,5.5a1.491,1.491,0,0,1,.366,1.927m7.613-9.179-2.566,2.673-.392-.375a.229.229,0,0,0-.048-.048l-3.609-3.46a.524.524,0,1,0-.725.758l3.322,3.182A9.439,9.439,0,0,1,62.2,705.7l-5.489-5.453,0,0-.029-.024-.01-.014-.026-.017-.019-.012-.021-.012-.026-.014-.019-.01-.026-.012-.026-.01-.021-.007-.036-.007-.009,0L56.4,700.1H56.39l-.038,0h-.043l-.026,0-.019,0-.033,0h0l-3.258.746a.5.5,0,0,0-.152.059l-2.167,1.307a1.661,1.661,0,0,1-1.991-.646c-.454-.763-.019-1.765,1.157-2.678l2.69-2.082.014-.007.368-.288a5.079,5.079,0,0,1,3.075-.618l.109.007a.812.812,0,0,0,.668-.228l1.2-.958,2.69,2.585a.523.523,0,1,0,.725-.753l-3.581-3.446,2.566-2.673a.917.917,0,0,1,.649-.283H61a.919.919,0,0,1,.644.257l8.015,7.708a.934.934,0,0,1,.026,1.319" transform="translate(-16006 -9287)"/>
  </g>
</svg>
