<svg xmlns="http://www.w3.org/2000/svg" width="27.441" height="27.442" viewBox="0 0 27.441 27.442">
  <g id="组_3083" data-name="组 3083" transform="translate(0 0)">
    <g id="组_410" data-name="组 410" transform="translate(0 0)">
      <path id="路径_598" data-name="路径 598" d="M-2.992,522.5l-1.341-1.343a1.609,1.609,0,0,0-2.274,0l-2.828,2.827V514.9a2.415,2.415,0,0,0-2.411-2.413H-27.552a2.415,2.415,0,0,0-2.411,2.413v22.618a2.414,2.414,0,0,0,2.411,2.411h15.705a2.414,2.414,0,0,0,2.411-2.411V531.14l6.443-6.362a1.609,1.609,0,0,0,0-2.274Zm-9.615,9.509-2.419,1.13,1.128-2.417,6-6,1.326,1.328Zm1.564,5.508a.805.805,0,0,1-.8.8H-27.552a.805.805,0,0,1-.8-.8V514.9a.806.806,0,0,1,.8-.805h15.705a.806.806,0,0,1,.8.805V525.6c-4.459,4.458-4.167,4.138-4.252,4.32l-2.123,4.548a.806.806,0,0,0,.16.91.8.8,0,0,0,.908.159l4.548-2.122c.167-.077.194-.126.759-.683Zm5.618-12.6-1.335-1.333,1.288-1.288,1.341,1.343Z" transform="translate(29.963 -512.49)" fill="#fff"/>
      <path id="路径_599" data-name="路径 599" d="M-26.593,517.928h12.006a.8.8,0,0,0,.805-.8.805.805,0,0,0-.805-.805H-26.593a.8.8,0,0,0-.8.805.8.8,0,0,0,.8.8Z" transform="translate(30.881 -511.121)" fill="#fff"/>
      <path id="路径_600" data-name="路径 600" d="M-26.593,521.085h9.433a.8.8,0,0,0,.805-.8.8.8,0,0,0-.805-.8h-9.433a.8.8,0,0,0-.8.8.8.8,0,0,0,.8.8Z" transform="translate(30.881 -509.991)" fill="#fff"/>
      <path id="路径_601" data-name="路径 601" d="M-19.732,522.636h-6.862a.8.8,0,0,0-.8.8.8.8,0,0,0,.8.8h6.862a.8.8,0,0,0,.8-.8A.8.8,0,0,0-19.732,522.636Z" transform="translate(30.881 -508.861)" fill="#fff"/>
    </g>
  </g>
</svg>
