<svg xmlns="http://www.w3.org/2000/svg" width="13.123" height="12" viewBox="0 0 13.123 12">
  <g id="bubble" transform="translate(0 -36.123)">
    <path id="路径_3988" data-name="路径 3988" d="M11.93,44.452a4.606,4.606,0,0,0,1.193-3.042,4.423,4.423,0,0,0-.534-2.1A5.758,5.758,0,0,0,10.19,37a7.715,7.715,0,0,0-3.628-.879,7.43,7.43,0,0,0-4.6,1.513A5.407,5.407,0,0,0,.534,39.314,4.424,4.424,0,0,0,0,41.409a4.5,4.5,0,0,0,.85,2.605,5.867,5.867,0,0,0,1.81,1.644l-1.1,2.464.8-.088a28.045,28.045,0,0,0,6.627-1.712A6.541,6.541,0,0,0,11.93,44.452ZM8.664,45.463l-.014.005a28.349,28.349,0,0,1-5.592,1.546l.788-1.761-.387-.2A5.1,5.1,0,0,1,1.6,43.488a3.585,3.585,0,0,1-.683-2.078,3.5,3.5,0,0,1,.426-1.664A4.847,4.847,0,0,1,3.365,37.81a6.8,6.8,0,0,1,3.2-.771,6.522,6.522,0,0,1,4.032,1.315,4.5,4.5,0,0,1,1.188,1.391,3.508,3.508,0,0,1,.426,1.664,3.687,3.687,0,0,1-.966,2.439,5.642,5.642,0,0,1-2.563,1.61Z" transform="translate(0)" fill="#6a6a6a"/>
    <path id="路径_3989" data-name="路径 3989" d="M98.854,177.679a.713.713,0,1,0,.713.713A.713.713,0,0,0,98.854,177.679Z" transform="translate(-94.881 -136.853)" fill="#6a6a6a"/>
    <path id="路径_3990" data-name="路径 3990" d="M181.568,177.679a.713.713,0,1,0,.713.713A.713.713,0,0,0,181.568,177.679Z" transform="translate(-174.847 -136.853)" fill="#6a6a6a"/>
    <path id="路径_3991" data-name="路径 3991" d="M264.282,177.679a.713.713,0,1,0,.713.713A.713.713,0,0,0,264.282,177.679Z" transform="translate(-254.813 -136.853)" fill="#6a6a6a"/>
  </g>
</svg>
