<svg xmlns="http://www.w3.org/2000/svg" width="16.135" height="19.053" viewBox="0 0 16.135 19.053">
  <g id="clock" transform="translate(-39.212 0)">
    <path id="路径_3992" data-name="路径 3992" d="M66.227,55.783a7.624,7.624,0,0,0-7.112-7.6V47.1H58.078V48.18A7.618,7.618,0,0,0,53.912,61.8l-1.02,1.73,1.294.869,1.266-1.667a7.583,7.583,0,0,0,6.213.036L62.9,64.4l1.3-.869-.99-1.677A7.611,7.611,0,0,0,66.227,55.783Zm-1.777,0a5.852,5.852,0,1,1-1.714-4.139A5.832,5.832,0,0,1,64.45,55.783Z" transform="translate(-11.317 -45.343)"/>
    <path id="路径_3993" data-name="路径 3993" d="M244.773,156.792l-2.8-.059-.111-3.811a.436.436,0,0,0-.873,0l-.127,4.362a.563.563,0,0,0,.564.564l3.344-.07a.493.493,0,1,0,0-.986Z" transform="translate(-194.148 -146.812)"/>
    <path id="路径_3994" data-name="路径 3994" d="M40.782.424a3.145,3.145,0,0,0-1.146,4.3L45.081,1.57A3.145,3.145,0,0,0,40.782.424Z" transform="translate(0 0)"/>
    <path id="路径_3995" data-name="路径 3995" d="M319.39.424a3.145,3.145,0,0,0-4.3,1.146l5.444,3.153A3.145,3.145,0,0,0,319.39.424Z" transform="translate(-265.613 0)"/>
  </g>
</svg>
