<svg id="组_2546" data-name="组 2546" xmlns="http://www.w3.org/2000/svg" xmlns:xlink="http://www.w3.org/1999/xlink" width="182.735" height="170.035" viewBox="0 0 182.735 170.035">
  <defs>
    <clipPath id="clip-path">
      <rect id="矩形_1238" data-name="矩形 1238" width="182.735" height="170.035" fill="none"/>
    </clipPath>
  </defs>
  <g id="组_2545" data-name="组 2545" clip-path="url(#clip-path)">
    <path id="路径_5012" data-name="路径 5012" d="M402.09,19.477h0" transform="translate(-299.498 -14.509)" fill="#fff"/>
    <path id="路径_5013" data-name="路径 5013" d="M596.918,318.355l-.006-.02-.019-.041a.628.628,0,0,1,.025.061" transform="translate(-444.637 -237.103)" fill="#fff"/>
    <path id="路径_5014" data-name="路径 5014" d="M321.95,234.534h0" transform="translate(-239.827 -174.709)" fill="#fff"/>
    <path id="路径_5015" data-name="路径 5015" d="M335.029,188.862l.128.016c-.072-.016-.126-.025-.128-.016" transform="translate(-249.57 -140.684)" fill="#fff"/>
    <path id="路径_5016" data-name="路径 5016" d="M323.23,194.62c-.07.082-.037.044,0,0" transform="translate(-240.75 -144.976)" fill="#fff"/>
    <path id="路径_5017" data-name="路径 5017" d="M596.877,318.255l-.006-.014,0,.01,0,0" transform="translate(-444.621 -237.064)" fill="#fff"/>
    <path id="路径_5018" data-name="路径 5018" d="M701.633,520.679c.01.075.006.047,0,0" transform="translate(-522.66 -387.864)" fill="#fff"/>
    <path id="路径_5019" data-name="路径 5019" d="M484.428,18.936l.015.007.024.01-.039-.017" transform="translate(-360.86 -14.106)" fill="#fff"/>
    <path id="路径_5020" data-name="路径 5020" d="M484.6,19.01,484.582,19l.017.007" transform="translate(-360.974 -14.156)" fill="#fff"/>
    <path id="路径_5021" data-name="路径 5021" d="M179.764,489.371c.028-.067.063-.155,0,0" transform="translate(-133.91 -364.478)" fill="#fff"/>
    <path id="路径_5022" data-name="路径 5022" d="M346.94,320.624c0-.029,0-.048,0-.048a.187.187,0,0,0,0,.048" transform="translate(-258.439 -238.803)" fill="#fff"/>
    <path id="路径_5023" data-name="路径 5023" d="M303.412,347.521l.016-.014-.016.011c-.07.054-.125.111,0,0" transform="translate(-225.962 -258.865)" fill="#fff"/>
    <path id="路径_5024" data-name="路径 5024" d="M303.746,347.364a.448.448,0,0,0-.045.029l-.008.007c.018-.012.035-.026.053-.036" transform="translate(-226.227 -258.758)" fill="#fff"/>
    <path id="路径_5025" data-name="路径 5025" d="M290.354,256.266c.016-.106.034-.563.029-.19,0-.15.039-.309.056-.458.288-2.519.265-5.059.354-7.59a1.526,1.526,0,0,1,.026-.2,28.523,28.523,0,0,1-3.043-4.238,23.512,23.512,0,0,1-2.792-7.525c-.223-1.174-.385-2.359-.535-3.544l-3.031,3.031a1.4,1.4,0,0,1-1.948,0l-4.269-4.269a1.4,1.4,0,0,1,0-1.948l2.185-2.185c-.17-.175-.333-.355-.484-.543a12.3,12.3,0,0,1-2.418-6.371c-.039-.319-.073-.642-.1-.968-.059.544-.116,1.087-.176,1.63-.6,5.436-1.266,10.872-2.2,16.262-.348,2-.65,4.012-1.011,6.012a25.469,25.469,0,0,1-1.33,5.047,12.749,12.749,0,0,1-2.872,4.454,13.563,13.563,0,0,1-3.84,2.553,3.149,3.149,0,0,0,1.843,1.173c1.946.486,4.664.778,6.314-.659a1.6,1.6,0,0,1-.856-.934,1.412,1.412,0,0,1,.962-1.695l.3-.119c.115-.051.231-.1.345-.154.243-.112.483-.232.718-.362.2-.108.386-.224.571-.35.061-.042.122-.091.185-.135l.025-.018.062-.052a6.663,6.663,0,0,0,.786-.812.728.728,0,0,0,.055-.08c.094-.185.059-.1,0,0l-.023.045a1.968,1.968,0,0,1,.174-.235c.122-.169.241-.341.358-.513a26.478,26.478,0,0,0,1.8-2.929q.119-.237.23-.478c.018-.04.106-.237.122-.271.112-.267.214-.539.31-.812a16.126,16.126,0,0,0,.54-1.911q.106-.486.181-.977c.007-.05.015-.1.022-.15l.008-.074c.016-.154.033-.307.046-.461a16.172,16.172,0,0,0,.047-1.919,1.377,1.377,0,1,1,2.755,0,17.505,17.505,0,0,1-.539,4.894,20.917,20.917,0,0,1-3.447,6.923,9.488,9.488,0,0,1-2.047,2.163,10.964,10.964,0,0,1-2.5,1.309,5.46,5.46,0,0,0,4.652,1.33,1.529,1.529,0,0,1-.143-.308,1.391,1.391,0,0,1,.962-1.695c.273-.068.543-.147.809-.239.129-.045.256-.094.383-.143l.027-.012.089-.04a9.669,9.669,0,0,0,1.368-.771q.174-.117.343-.242l.051-.039,0,0c.173-.148.351-.291.519-.445a10.83,10.83,0,0,0,.982-1.027c.056-.066.109-.134.163-.2.016-.023.1-.131.139-.187q.2-.279.382-.57a11.076,11.076,0,0,0,.654-1.205c.044-.1.178-.441.071-.154.036-.1.078-.2.115-.294q.119-.32.218-.648a10.914,10.914,0,0,0,.3-1.335.472.472,0,0,1,.016-.123c0-.034.009-.065.01-.076q.016-.156.026-.313.023-.34.021-.681,0-.368-.033-.734c0-.023-.02-.182-.031-.283-.008-.045-.015-.09-.023-.135a1.417,1.417,0,0,1,.962-1.694,1.383,1.383,0,0,1,1.694.962,11.455,11.455,0,0,1-.011,3.971,12.013,12.013,0,0,1-7.356,8.943c3.269,1.581,7.437,3.009,10.263,1.171.1-.394.2-.791.276-1.191q.092-.473.165-.951" transform="translate(-195.877 -163.333)" fill="#ffdc00"/>
    <path id="路径_5026" data-name="路径 5026" d="M537.511,260.927a17.278,17.278,0,0,1-3.2-5.919,43.046,43.046,0,0,1-1.707-7.62c-.465-3.179-.759-6.38-1-9.583q-.135-1.806-.249-3.613a10.524,10.524,0,0,1-2.065,4.143l2.116,2.116a1.394,1.394,0,0,1,0,1.948l-4.269,4.269a1.4,1.4,0,0,1-1.948,0l-2.322-2.322a30.441,30.441,0,0,1-5.27,13.861q-.228.318-.466.628a1.41,1.41,0,0,1,.051.315c.05,1.416.064,2.832.118,4.248a27.123,27.123,0,0,0,.285,3.756c.006.032.011.063.014.082q.018.126.038.252.035.226.075.452.079.448.177.893c.022.1.05.2.074.3,3.493,1.65,8.382,1.692,10.825-1.5a10.564,10.564,0,0,1-2.609-1.286,12,12,0,0,1-5.151-11.777,1.394,1.394,0,0,1,1.694-.962,1.411,1.411,0,0,1,.962,1.694l-.022.118c0,.016,0,.03-.005.038-.015.14-.029.279-.039.419q-.027.393-.02.787c0,.262.02.524.046.784,0,.008.006.038.011.072a.283.283,0,0,1,.014.131c.017.1.034.209.054.312a10.272,10.272,0,0,0,.363,1.369q.067.2.143.4c.017.045.038.1.052.13.082.186.166.371.258.552a11.021,11.021,0,0,0,.723,1.227q.1.153.213.3l.015.02c-.023-.033-.021-.034.065.087.131.161.263.32.4.475a10.677,10.677,0,0,0,1.016.992c.066.056.133.11.2.166.035.026.155.118.182.137q.276.2.566.38.311.194.636.364.163.085.329.163l.139.065.11.046.2.075q.148.054.3.1c.218.071.438.133.659.189a1.4,1.4,0,0,1,.962,1.694,1.172,1.172,0,0,1-.126.312c1.742.231,3.508.151,4.695-.841a1.636,1.636,0,0,1-.161-.062,14.916,14.916,0,0,1-3.113-2.043,15.614,15.614,0,0,1-5.493-11.4,1.377,1.377,0,1,1,2.755,0c.007.282.021.564.046.845.013.145.03.29.045.434.008.05.015.1.023.15a13.623,13.623,0,0,0,.356,1.593q.194.677.456,1.333c.017.043.035.085.052.128l.005.011c.056.119.108.241.164.359q.145.306.3.6a14.547,14.547,0,0,0,.753,1.259q.2.3.423.6l.058.077v0c.072.087.141.176.214.262a15.456,15.456,0,0,0,2.087,2.04l.13.1q.136.1.275.2.277.193.564.372a13.481,13.481,0,0,0,1.286.7,1.375,1.375,0,0,1,.539,1.777,7.861,7.861,0,0,0,5.338-1.643c-.112-.022-.224-.044-.336-.069a9.691,9.691,0,0,1-5.077-3.064" transform="translate(-385.22 -174.454)" fill="#ffdc00"/>
    <path id="路径_5027" data-name="路径 5027" d="M304.988,459.156c-.067-2.924-.2-5.846-.258-8.771-.055-2.593-.1-5.188-.267-7.776-.085-1.311-.2-2.619-.364-3.922-.009-.073-.019-.146-.028-.22,0-.023-.006-.047-.008-.062-.022-.157-.044-.313-.068-.469q-.07-.467-.15-.933-.168-.98-.386-1.951a28.993,28.993,0,0,0-1.059-3.626c-.108-.292-.223-.581-.341-.87-.031-.068-.059-.137-.09-.2q-.091-.2-.185-.405-.388-.826-.851-1.615a18.05,18.05,0,0,0-1.066-1.606l-.129-.17-.068-.085q-.152-.189-.309-.374-.29-.342-.6-.67a18.785,18.785,0,0,0-1.434-1.377q-.2-.17-.4-.334l-.179-.145-.08-.063-.095-.073-.184-.136q-.184-.135-.371-.267a25.043,25.043,0,0,0-3.238-1.908q-.847-.422-1.718-.8c-.035-.015-.393-.165-.1-.042l-.213-.089-.429-.174q-.431-.173-.865-.338c-2.558-.975-5.173-1.806-7.765-2.687-5.017-1.705-10.04-3.392-15.09-5-.077.254-.164.506-.263.755a1.383,1.383,0,0,1,.437,1.845c-.306.441-.629.868-.96,1.289a27.685,27.685,0,0,1-9.234,7.326,38.275,38.275,0,0,1-12.6,3.812,37.514,37.514,0,0,1-13.17-.7,35.393,35.393,0,0,1-11.522-4.878,25.486,25.486,0,0,1-8.06-8.232,1.4,1.4,0,0,1,.445-1.846c-.212-.337-.407-.683-.587-1.033a1.457,1.457,0,0,1-.612.384q-1.2.367-2.39.74c-6.36,1.991-12.666,4.144-18.978,6.281-1.232.417-2.467.825-3.693,1.257q-.938.329-1.867.681-.461.176-.919.36-.215.086-.429.175l-.1.041-.1.044a31.052,31.052,0,0,0-3.378,1.683q-.812.474-1.585,1.01-.234.164-.464.333c-.049.036-.23.178-.25.192-.215.173-.43.345-.639.525a18.539,18.539,0,0,0-1.394,1.334q-.349.37-.676.759c-.1.124-.206.25-.308.375l-.059.075-.1.133a18.692,18.692,0,0,0-1.894,3.17q-.119.252-.232.506c-.027.061-.054.123-.081.185h0c-.113.278-.223.557-.327.838q-.315.853-.569,1.727a34.512,34.512,0,0,0-.866,3.792q-.086.494-.16.99c-.023.156-.045.312-.068.469l-.005.034q-.012.094-.024.188-.124.976-.214,1.955c-.123,1.328-.2,2.659-.264,3.99-.111,2.528-.135,5.058-.2,7.587-.086,3.172-.215,6.342-.265,9.515q-.078,4.845-.017,9.69h137.09q.013-1.028.021-2.057.031-5.077-.087-10.153" transform="translate(-125.101 -305.673)" fill="#fff"/>
    <path id="路径_5028" data-name="路径 5028" d="M337.127,359.267c.179.35.374.7.586,1.033.017-.012.031-.027.049-.039a1.394,1.394,0,0,1,1.884.494q.32.549.674,1.077c.223.331.457.654.7.972l.128.162q.115.143.231.283.2.242.41.479a24.13,24.13,0,0,0,1.878,1.9q.506.46,1.036.893.15.122.3.243l.128.1c.173.132.347.264.523.392q1.147.835,2.37,1.558,1.251.742,2.566,1.369.373.178.749.347l.325.144.163.071.037.016.128.053.166.068.333.133q.334.132.672.257a36.367,36.367,0,0,0,5.927,1.64q.76.143,1.526.254l.188.026.37.046q.371.044.743.081,1.591.155,3.191.169,1.581.013,3.159-.113.785-.062,1.567-.157c.064-.008.294-.038.284-.036l.283-.041q.372-.055.743-.117a37.14,37.14,0,0,0,6.049-1.547q.746-.259,1.48-.552l.392-.159.069-.028.046-.02q.331-.142.658-.29,1.346-.611,2.636-1.338t2.487-1.569q.3-.212.6-.431l.27-.2.033-.025.043-.035c.363-.288.721-.582,1.069-.888A23.92,23.92,0,0,0,388.949,364q.445-.493.86-1.012c.07-.087.239-.316.076-.095.062-.084.126-.167.189-.252q.186-.252.363-.51a1.413,1.413,0,0,1,1.885-.494c.02.011.037.028.057.039.1-.249.186-.5.263-.754q-2.034-.646-4.074-1.276a1.384,1.384,0,0,1-.949-.987,1.22,1.22,0,0,1-.606-.179,12.917,12.917,0,0,1-3.684-3.528c-2.613-3.76-2.82-8.489-2.922-12.99a23.9,23.9,0,0,1-7.641,5.1,21.552,21.552,0,0,1-15.593-.176,27.451,27.451,0,0,1-8.435-5.112c-.016.656-.033,1.312-.06,1.968a27,27,0,0,1-1.253,7.977,13.088,13.088,0,0,1-5.294,6.763,1.4,1.4,0,0,1-1.885-.494,1.251,1.251,0,0,1-.118-1.083,13.969,13.969,0,0,1-2.668,1.005c.005.015.014.028.018.043a1.31,1.31,0,0,1-.35,1.31" transform="translate(-251.132 -254.596)" fill="#fff"/>
    <path id="路径_5029" data-name="路径 5029" d="M351.943,167.043h0v0" transform="translate(-262.169 -124.432)" fill="#fff"/>
    <path id="路径_5030" data-name="路径 5030" d="M361.22,70.2c-.016.037-.028.076-.047.113a1.388,1.388,0,0,1-1.885.494,15.454,15.454,0,0,0-1.345-.79q-.32-.166-.646-.317l-.223-.1c.025.012-.193-.082-.22-.093a17.037,17.037,0,0,0-2.77-.833q-.356-.075-.716-.136c-.154-.026-.309-.049-.463-.072l-.014,0c-.486-.057-.972-.1-1.461-.123a20.183,20.183,0,0,0-3.064.094c-.122.013-.244.028-.366.042l-.046.005-.075.012c-.2.032-.4.064-.606.1q-.6.108-1.2.253a20.279,20.279,0,0,0-2.551.8c-.122.047-.244.1-.366.145l-.108.045c-.145.063-.291.126-.435.191q-.554.252-1.1.532-1.021.529-1.989,1.154-.547.354-1.076.736c-.146.106-.29.215-.435.322l-.02.015h0l-.212.168q-.927.742-1.783,1.567-.835.8-1.6,1.679-.409.468-.8.952c-.046.058-.283.365-.241.308-.09.119-.179.237-.267.357a31.542,31.542,0,0,0-2.5,4.005q-.546,1.038-1.02,2.113c-.056.126-.11.253-.165.379-.076.184-.151.368-.224.552q-.212.534-.406,1.074a37.688,37.688,0,0,0-1.311,4.509q-.262,1.166-.451,2.346-.051.321-.1.642l-.01.063c-.011.07-.018.142-.027.212q-.074.587-.129,1.175a1.415,1.415,0,0,1-1.377,1.377,1.11,1.11,0,0,1-.329-.038c-.051.241-.109.484-.162.726a4.535,4.535,0,0,1,1.381,1.125,1.417,1.417,0,0,1,0,1.948,1.382,1.382,0,0,1-1.948,0,5.1,5.1,0,0,0-.438-.459h0c-.047-.033-.093-.065-.142-.095s-.119-.073-.18-.106-.484-.2-.147-.082c-.066-.023-.131-.048-.2-.07-.024-.008-.3-.088-.474-.128l-.091-.009q-.079-.007-.159-.01-.133-.006-.266-.005c-.119,0-.236.014-.354.02l-.018,0c-.207.05-.407.1-.611.165l-.047.014-.039.02c-.1.052-.2.1-.3.159s-.2.117-.291.18c-.021.014-.114.085-.16.118-.122.1-.243.206-.356.319-.136.136-.263.28-.388.426l-.011.013c-.064.088-.127.177-.187.268a6.853,6.853,0,0,0-.354.6c-.036.069-.071.139-.1.209-.011.023-.058.136-.08.188a8.978,8.978,0,0,0-.361,1.189q-.046.2-.082.407c0,.008-.036.228-.044.265-.026.2-.044.407-.058.611-.032.465-.04.932-.03,1.4q.015.748.084,1.494c.017.189.038.377.06.565.008.05.032.232.034.248.014.087.028.174.043.261a13.7,13.7,0,0,0,.32,1.411q.09.315.2.624c.043.123.09.245.136.367l.018.049a8.713,8.713,0,0,0,.668,1.249c.066.1.136.2.206.3l.017.024c.13.161.265.317.408.467.018.019.038.035.057.054l.136-.136a1.4,1.4,0,0,1,1.948,0l1.6,1.6a1.088,1.088,0,0,1,.781.245,1.335,1.335,0,0,1,.958-1.09,1.381,1.381,0,0,1,1.694.962q.191,1.3.357,2.609c.09.7.176,1.4.263,2.106q.063.508.128,1.016c.022.173.049.346.068.519-.041-.383.015.1.028.194a35.635,35.635,0,0,0,.667,3.6q.219.883.509,1.747.157.464.336.92c.024.062.049.123.074.185l.041.1.055.128q.041.093.083.186a24.461,24.461,0,0,0,2.118,3.719q.358.524.736,1.034c.038.051.17.223.193.254.1.133.21.266.317.4q.708.866,1.489,1.667.757.777,1.577,1.491.441.384.9.748l.187.147.042.032c.14.105.28.21.422.312a25.933,25.933,0,0,0,3.72,2.25q.517.255,1.045.487l.093.04.214.089q.213.086.427.169,1.014.389,2.06.687t2.1.492q.279.051.559.1c.051.008.35.048.408.057.3.035.605.07.909.094a20.986,20.986,0,0,0,2.142.06q.536-.013,1.071-.054.253-.019.506-.045c.049-.005.332-.04.4-.047a16.471,16.471,0,0,0,2.647-.6q.671-.213,1.323-.478l.137-.057.268-.119q.317-.144.629-.3a21.558,21.558,0,0,0,2.629-1.55q.344-.236.679-.485c.052-.039.375-.291.2-.147s.144-.114.195-.155q.641-.513,1.246-1.07a25.076,25.076,0,0,0,2.352-2.481q.148-.179.292-.36l.116-.146h0c.163-.221.33-.438.49-.661q.531-.743,1.012-1.523a27.549,27.549,0,0,0,1.747-3.328c.041-.093.081-.186.121-.279l0-.012c.058-.146.119-.291.176-.436q.174-.443.335-.891.346-.97.623-1.961a32.125,32.125,0,0,0,.866-4.166c.008-.064.021-.16.023-.179q.015-.119.029-.237.034-.3.064-.6.054-.546.09-1.094c.053-.795.077-1.591.078-2.387a1.4,1.4,0,0,1,1.377-1.377c.032,0,.062.006.093.007a1.293,1.293,0,0,1,.661.007c.133.039.266.074.4.1l2.242-2.243a1.4,1.4,0,0,1,1.948,0l.224.224a9.786,9.786,0,0,0,.705-1.171c.057-.114.109-.229.163-.344l.032-.067.025-.072c.072-.2.147-.4.213-.6a12.678,12.678,0,0,0,.341-1.3q.079-.378.138-.76c.005-.034.019-.126.025-.17.012-.1.024-.2.035-.3.046-.428.078-.856.1-1.286.026-.526.038-1.052.027-1.579-.006-.257-.017-.515-.037-.772-.007-.093-.018-.186-.025-.279,0-.048-.006-.081-.008-.105s-.008-.048-.014-.083a8.39,8.39,0,0,0-.371-1.486c-.013-.036-.189-.428-.039-.113-.032-.068-.063-.136-.1-.2a5.911,5.911,0,0,0-.3-.542c-.049-.078-.1-.153-.155-.228-.025-.031-.113-.148-.133-.172a5.037,5.037,0,0,0-.39-.4c-.067-.061-.137-.118-.206-.177l-.038-.021c-.159-.094-.314-.191-.477-.28l-.057-.027c-.042-.016-.084-.032-.127-.046-.068-.022-.136-.043-.2-.061-.05-.013-.133-.043-.206-.057a.391.391,0,0,1-.083,0,3.067,3.067,0,0,0-.429-.018.272.272,0,0,1-.072.028c-.1.025-.2.043-.3.071a.867.867,0,0,0-.29.1q.258-.114.051-.018l-.09.046c-.1.054-.477.35-.222.116-.08.074-.336.232-.355.347q.166-.225.035-.041l-.054.084a3.019,3.019,0,0,0-.142.267,1.378,1.378,0,1,1-2.379-1.39,3.825,3.825,0,0,1,.756-1.059c-.048.007-.095.017-.144.019a1.391,1.391,0,0,1-1.377-1.377,55.415,55.415,0,0,0-.349-7.574c-.019-.158-.04-.315-.059-.473l-.015-.108q-.054-.378-.114-.756-.118-.737-.262-1.471c-.188-.949-.412-1.891-.681-2.82a26.64,26.64,0,0,0-.876-2.557l-.09-.217-.074-.17q-.115-.261-.238-.519-.269-.564-.573-1.11-.282-.505-.6-.99-.166-.253-.341-.5c-.05-.069-.1-.139-.15-.207l-.059-.079c.1.133-.1-.127-.139-.172q-.079-.1-.159-.191-.173-.2-.354-.4c-.236-.254-.483-.5-.742-.728-.135-.121-.275-.235-.415-.351-.062-.046-.125-.093-.188-.137a9.261,9.261,0,0,0-.838-.531q-.231-.129-.47-.245c-.068-.033-.137-.064-.206-.1l-.011-.005c-.3-.114-.6-.221-.907-.308a1.4,1.4,0,0,1-.962-1.694,1.291,1.291,0,0,1,.706-.85,4.176,4.176,0,0,0-2.719-1.87" transform="translate(-237.142 -50.891)" fill="#fff"/>
    <path id="路径_5031" data-name="路径 5031" d="M369.635,55.022a5.163,5.163,0,0,1,4.516.074,6.053,6.053,0,0,1,2.466,2.472q-.168-3.2-.345-6.4c-.181-3.19-.405-6.38-.789-9.552q-.042-.344-.086-.688l-.03-.228c0-.01,0-.017,0-.027v-.006c-.05-.358-.1-.715-.154-1.072q-.168-1.108-.371-2.212c-.263-1.415-.576-2.822-.96-4.21a36.691,36.691,0,0,0-1.33-3.92l-.022-.056-.012-.026-.079-.181q-.1-.225-.2-.449-.194-.42-.4-.834-.432-.856-.931-1.676-.492-.8-1.054-1.561c-.017-.022-.045-.066-.072-.107l.032.052a1.8,1.8,0,0,0-.115-.147q-.145-.182-.295-.361-.3-.357-.615-.7a17.518,17.518,0,0,0-1.336-1.3,6.792,6.792,0,0,0-.724-.6c.332.215-.108-.078-.174-.126-.128-.093-.258-.184-.388-.274a1.413,1.413,0,0,1-.494-1.885,1.243,1.243,0,0,1,.5-.486,6.292,6.292,0,0,0-2.478-2.348,1.611,1.611,0,0,1-.121.3,1.381,1.381,0,0,1-1.885.494c-.918-.7-1.865-1.357-2.845-1.964a32.168,32.168,0,0,0-2.928-1.614q-.386-.187-.776-.363L354.8,12.9l-.11-.047-.041-.018-.02-.008c-.477-.2-.958-.383-1.445-.555a28.16,28.16,0,0,0-2.946-.864q-.745-.174-1.5-.307-.386-.068-.775-.125c-.124-.018-.325-.042-.076-.012l-.331-.041a27.217,27.217,0,0,0-5.841-.052q-.35.034-.7.078l-.115.015h0c-.106.017-.214.031-.32.047q-.719.11-1.431.257-1.4.288-2.762.711c-.911.282-1.8.61-2.687.97l-.027.011-.092.039-.346.152q-.3.132-.591.27-.662.311-1.311.652a35.268,35.268,0,0,0-4.879,3.1l-.165.125-.252.2q-.28.223-.556.45-.553.456-1.088.934-1.1.976-2.114,2.033t-1.962,2.192q-.249.3-.492.6-.121.152-.241.305l-.051.065-.006.008c-.3.4-.6.8-.89,1.21a39.572,39.572,0,0,0-3.032,5.048q-.324.644-.624,1.3-.161.352-.315.708c-.029.068-.073.173-.076.179-.035.086-.071.171-.106.257q-.551,1.355-.995,2.751a36.881,36.881,0,0,0-1.309,5.781c-.385,2.613-.69,5.028-1.008,7.751-.353,3.021-.672,6.046-.99,9.071a7.22,7.22,0,0,1,4.4-4.493,5.6,5.6,0,0,1,4.228.407c.053-.242.111-.485.163-.726A1.376,1.376,0,0,1,317.923,52a39.258,39.258,0,0,1,2.59-10.907c2.517-6.267,6.727-11.939,12.663-15.331a22.928,22.928,0,0,1,10.579-3.078A18.73,18.73,0,0,1,354.6,25.535a1.4,1.4,0,0,1,.541,1.772,4.176,4.176,0,0,1,2.719,1.87,1.391,1.391,0,0,1,.988-.111,10.845,10.845,0,0,1,4.541,2.651,19.962,19.962,0,0,1,4.955,9.3,48.2,48.2,0,0,1,1.435,13.421,1.39,1.39,0,0,1-.142.586" transform="translate(-231.061 -8.002)" fill="#ffdc00"/>
    <path id="路径_5032" data-name="路径 5032" d="M325.691,357.578c.122-.047.083-.036.016-.007l-.022.01.007,0" transform="translate(-242.608 -266.343)" fill="#fff"/>
    <path id="路径_5033" data-name="路径 5033" d="M346.957,329.125c.016-.1.014-.1.007-.078s-.01.08-.013.107c0-.01,0-.019.006-.029" transform="translate(-258.45 -245.104)" fill="#fff"/>
    <path id="路径_5034" data-name="路径 5034" d="M346.942,329.5c0,.005,0,.011,0,.016s0,.009,0,.009a.076.076,0,0,1,0-.026" transform="translate(-258.442 -245.453)" fill="#fff"/>
    <path id="路径_5035" data-name="路径 5035" d="M325.589,357.682l0,0-.028.013.032-.015" transform="translate(-242.514 -266.444)" fill="#fff"/>
    <path id="路径_5036" data-name="路径 5036" d="M542.782,317.143h0" transform="translate(-404.329 -236.243)" fill="#fff"/>
    <path id="路径_5037" data-name="路径 5037" d="M542.756,326.138s0,0,0-.006l0-.009s0,.014,0,.014" transform="translate(-404.309 -242.936)" fill="#fff"/>
    <path id="路径_5038" data-name="路径 5038" d="M550.16,343.4l-.015-.02,0,0,.019.025" transform="translate(-409.811 -255.784)" fill="#fff"/>
    <path id="路径_5039" data-name="路径 5039" d="M361.818,130.662h0" transform="translate(-269.525 -97.287)" fill="#fff"/>
    <path id="路径_5040" data-name="路径 5040" d="M453.969,68.9h0" transform="translate(-338.17 -51.328)" fill="#fff"/>
    <path id="路径_5041" data-name="路径 5041" d="M542.7,325.711l.007.041a.764.764,0,0,0-.013-.122c-.006-.016-.008,0,.006.081" transform="translate(-404.26 -242.564)" fill="#fff"/>
    <path id="路径_5042" data-name="路径 5042" d="M549.964,343.132l-.061-.082c.016.023.042.059.058.079l0,0" transform="translate(-409.633 -255.545)" fill="#fff"/>
    <path id="路径_5043" data-name="路径 5043" d="M159.933,454.878c.051-3.173.18-6.343.265-9.515.068-2.529.092-5.059.2-7.587.059-1.332.141-2.663.264-3.99q.091-.979.214-1.955c.008-.063.016-.126.024-.189l0-.034c.022-.156.044-.313.068-.469q.074-.5.16-.99a34.432,34.432,0,0,1,.866-3.792q.255-.872.568-1.727c.1-.281.214-.56.327-.838h0c.027-.061.053-.123.081-.185q.113-.254.232-.507a18.693,18.693,0,0,1,1.894-3.17l.1-.133.059-.075c.1-.126.2-.252.308-.376q.328-.389.676-.759a18.552,18.552,0,0,1,1.394-1.334c.209-.18.424-.353.639-.525.02-.014.2-.155.25-.192q.23-.169.464-.333.771-.538,1.585-1.01a30.955,30.955,0,0,1,3.378-1.683l.1-.045.1-.041.429-.175q.458-.184.919-.359c.619-.236,1.242-.461,1.867-.681,1.227-.431,2.462-.84,3.693-1.257,6.311-2.138,12.618-4.29,18.978-6.281q1.194-.374,2.39-.74a1.459,1.459,0,0,0,.612-.385c-.2-.4-.387-.8-.548-1.2.161.4.345.806.548,1.2a1.309,1.309,0,0,0,.35-1.31,1.512,1.512,0,0,0-.242-.454,13.162,13.162,0,0,1-3.412.867,13.162,13.162,0,0,0,3.412-.867,1.341,1.341,0,0,0-1.453-.508c-6.524,2-12.992,4.173-19.451,6.369-5.063,1.722-10.483,3.186-14.881,6.346a20.369,20.369,0,0,0-5.655,6.061,25.322,25.322,0,0,0-2.807,7.247c-1.225,5.254-1.3,10.7-1.417,16.066-.062,2.949-.19,5.9-.259,8.844q-.121,5.152-.091,10.305.006,1.029.02,2.057h2.755q-.059-4.845.017-9.691m2.973-31.109c.063-.155.028-.067,0,0" transform="translate(-117.052 -298.876)"/>
    <path id="路径_5044" data-name="路径 5044" d="M157.24,649.57c0,.154,0,.308,0,.461a1.377,1.377,0,1,0,2.755,0c0-.154,0-.308,0-.461Z" transform="translate(-117.131 -483.877)"/>
    <path id="路径_5045" data-name="路径 5045" d="M705.465,649.57c0,.154,0,.308,0,.461a1.377,1.377,0,1,0,2.755,0c0-.154,0-.308,0-.461Z" transform="translate(-525.511 -483.877)"/>
    <path id="路径_5046" data-name="路径 5046" d="M369.313,155.849c-.052-3.2-.186-6.387-.268-9.581-.138-5.331-.127-10.691-1.071-15.959a29.423,29.423,0,0,0-2.359-7.575,19.516,19.516,0,0,0-4.814-6.3c-4.122-3.556-9.348-5.221-14.416-6.933-6.388-2.158-12.768-4.343-19.2-6.358q-1.194-.374-2.39-.74a1.184,1.184,0,0,0-.273-.048,1.431,1.431,0,0,0-.625-.84q-.38-.243-.741-.512c-.024-.022-.237-.19-.272-.22q-.223-.189-.435-.388-.339-.32-.65-.668-.136-.152-.265-.309l-.047-.056c.04.046-.118-.154-.139-.183a11.431,11.431,0,0,1-.957-1.566c-.067-.132-.131-.265-.194-.4-.038-.083-.255-.5-.079-.169a5.835,5.835,0,0,1-.33-.881c-.165-.487-.3-.983-.418-1.483a9.778,9.778,0,0,1-1.687-1,9.778,9.778,0,0,0,1.687,1c-.024-.1-.052-.2-.074-.3q-.1-.444-.177-.893-.04-.225-.075-.451-.02-.126-.038-.252c0-.019-.008-.05-.014-.082a27.123,27.123,0,0,1-.285-3.756c-.054-1.416-.068-2.832-.118-4.248a1.413,1.413,0,0,0-.051-.315q.237-.311.466-.628a30.442,30.442,0,0,0,5.271-13.861l2.322,2.322a1.4,1.4,0,0,0,1.948,0l4.269-4.269a1.394,1.394,0,0,0,0-1.948l-2.116-2.116a10.525,10.525,0,0,0,2.065-4.143q.117,1.807.249,3.613c.238,3.2.532,6.4,1,9.583a43.033,43.033,0,0,0,1.707,7.62,17.275,17.275,0,0,0,3.2,5.919,9.692,9.692,0,0,0,5.077,3.064c.111.026.223.047.336.069a5.194,5.194,0,0,0,1.206-1.443,5.194,5.194,0,0,1-1.206,1.443,13.316,13.316,0,0,0,1.415.189,1.383,1.383,0,0,0,1.377-1.377,1.413,1.413,0,0,0-1.377-1.377c-.121-.01-.241-.025-.362-.035l-.089-.014q-.355-.058-.706-.144c-.227-.056-.451-.121-.672-.195-.109-.036-.217-.075-.324-.116l-.073-.029a9.093,9.093,0,0,1-1.154-.631q-.14-.093-.276-.19l-.069-.051c-.163-.138-.328-.273-.485-.419a10.705,10.705,0,0,1-.941-1.015l-.027-.033-.019-.027c-.071-.1-.142-.194-.211-.293q-.211-.3-.4-.617a15.262,15.262,0,0,1-.735-1.351c-.1-.215-.2-.432-.3-.65l.006.02a.583.583,0,0,0-.025-.061v0l0-.01c-.012-.027-.022-.053-.032-.079q-.094-.233-.184-.468a37.7,37.7,0,0,1-1.835-7.374q-.077-.473-.147-.948-.039-.268-.077-.536-.019-.135-.037-.27l-.011-.078-.006-.046c-.1-.746-.186-1.492-.267-2.239-.169-1.557-.308-3.118-.432-4.679-.527-6.682-.833-13.375-1.189-20.067-.334-6.262-.734-12.617-2.239-18.725-1.265-5.138-3.492-10.326-7.6-13.83a21.12,21.12,0,0,0-1.7-1.3,1.337,1.337,0,0,0-1.389.008,8.375,8.375,0,0,0,1.463,1.709,8.375,8.375,0,0,1-1.463-1.709,1.244,1.244,0,0,0-.5.486,1.413,1.413,0,0,0,.494,1.885q.2.135.388.274c.066.048.505.341.174.126a6.785,6.785,0,0,1,.724.6,17.5,17.5,0,0,1,1.337,1.3q.316.341.615.7.15.179.295.361a1.752,1.752,0,0,1,.115.147l-.032-.052c.026.041.055.085.072.107q.563.755,1.054,1.561T327.4,19.7q.208.414.4.834.1.223.2.449l.079.181.011.026.023.056a36.676,36.676,0,0,1,1.329,3.92c.385,1.387.7,2.794.96,4.21q.2,1.1.371,2.212c.054.357.1.715.154,1.072v.006c0,.009,0,.016,0,.027.01.076.02.152.03.228q.044.344.086.688c.384,3.172.608,6.362.789,9.552q.181,3.2.345,6.4a6.056,6.056,0,0,0-2.465-2.472,5.163,5.163,0,0,0-4.516-.074,1.391,1.391,0,0,0,.142-.586,48.194,48.194,0,0,0-1.435-13.421,19.965,19.965,0,0,0-4.955-9.3,10.846,10.846,0,0,0-4.541-2.651,1.392,1.392,0,0,0-.988.111,13.182,13.182,0,0,0,1.809,2.1,13.182,13.182,0,0,1-1.809-2.1,1.292,1.292,0,0,0-.706.85,1.4,1.4,0,0,0,.962,1.694c.308.087.608.194.907.308l.011.005c.068.032.137.063.205.1q.239.115.47.245a9.3,9.3,0,0,1,.838.531c.063.045.126.091.188.137.139.116.28.23.414.351q.388.346.742.728.181.194.354.4.081.095.159.191c.037.045.236.3.139.172l.058.079q.076.1.15.207.176.246.341.5.317.484.6.99.3.545.573,1.11.123.258.238.519l.074.17c.025.059.076.184.089.217a26.641,26.641,0,0,1,.876,2.557c.269.93.493,1.871.681,2.82q.145.733.262,1.471.06.378.114.756l.015.108c.019.158.04.315.059.473a55.327,55.327,0,0,1,.349,7.574,1.391,1.391,0,0,0,1.377,1.377c.05,0,.1-.013.144-.019a3.832,3.832,0,0,0-.756,1.059,1.378,1.378,0,1,0,2.379,1.39,3.014,3.014,0,0,1,.142-.267l.054-.084q.131-.185-.035.041c.019-.115.274-.273.355-.347-.255.234.121-.062.222-.116l.09-.046q.208-.1-.05.018a.867.867,0,0,1,.29-.1c.1-.028.2-.046.3-.071a.265.265,0,0,0,.072-.028,3.023,3.023,0,0,1,.429.018.408.408,0,0,0,.083,0c.073.014.156.044.206.057.069.018.137.039.2.061.043.014.085.031.127.046l.057.027c.162.089.317.186.477.28l.037.021c.069.059.139.116.206.177a5.033,5.033,0,0,1,.39.4c.02.023.109.141.133.172.053.075.106.15.155.228a5.892,5.892,0,0,1,.3.542c.033.068.064.136.1.2-.15-.315.026.077.039.113a8.391,8.391,0,0,1,.371,1.486c.006.035.01.061.014.083s0,.057.007.105c.008.093.018.186.025.279.02.257.032.514.037.772.012.526,0,1.053-.027,1.579-.021.429-.053.858-.1,1.286-.01.1-.023.2-.035.3-.007.044-.02.135-.025.17q-.059.381-.138.76a12.617,12.617,0,0,1-.341,1.3c-.065.2-.141.4-.212.6-.011.031-.019.053-.025.072l-.032.067c-.053.115-.106.23-.163.344a9.786,9.786,0,0,1-.705,1.171l-.224-.224a1.4,1.4,0,0,0-1.948,0l-2.243,2.243c-.135-.029-.268-.064-.4-.1a1.293,1.293,0,0,0-.661-.007c-.031,0-.061-.008-.093-.007a1.4,1.4,0,0,0-1.377,1.377c0,.8-.025,1.592-.078,2.387q-.036.548-.09,1.094-.029.3-.064.6-.014.119-.028.237c0,.019-.015.116-.024.179a32.17,32.17,0,0,1-.866,4.166q-.278.991-.623,1.961-.16.448-.335.892c-.058.146-.118.291-.176.436l0,.012c-.04.093-.08.186-.121.279a27.568,27.568,0,0,1-1.747,3.328q-.48.779-1.012,1.523c-.16.223-.327.441-.49.661h0l-.116.146q-.145.181-.292.36a25.131,25.131,0,0,1-2.352,2.481q-.6.556-1.247,1.07c-.05.04-.374.3-.195.155s-.145.108-.2.147q-.335.249-.679.485a21.561,21.561,0,0,1-2.629,1.55q-.312.155-.629.3l-.268.119-.136.057q-.652.264-1.323.478a16.474,16.474,0,0,1-2.647.6c-.071.007-.354.042-.4.047q-.253.026-.506.045-.534.041-1.071.054a20.973,20.973,0,0,1-2.142-.06c-.3-.024-.607-.058-.909-.094-.058-.009-.358-.049-.408-.057q-.28-.044-.558-.1-1.062-.2-2.1-.492t-2.06-.687q-.214-.083-.427-.169l-.214-.089-.093-.04q-.528-.231-1.045-.487a25.9,25.9,0,0,1-3.72-2.25c-.142-.1-.282-.207-.422-.312l-.042-.032-.186-.147q-.458-.364-.9-.748-.818-.713-1.577-1.491-.78-.8-1.489-1.667c-.107-.131-.213-.264-.318-.4-.023-.031-.155-.2-.193-.254q-.379-.509-.736-1.034a24.487,24.487,0,0,1-2.118-3.719l-.083-.186-.055-.128-.041-.1-.074-.185q-.179-.456-.336-.92-.291-.862-.509-1.747a35.7,35.7,0,0,1-.667-3.6c-.013-.089-.069-.577-.028-.194-.019-.173-.046-.346-.068-.519q-.065-.508-.128-1.016c-.087-.7-.172-1.4-.263-2.106-.112-.871-.229-1.741-.357-2.609a1.382,1.382,0,0,0-1.694-.962,1.334,1.334,0,0,0-.958,1.09,1.089,1.089,0,0,0-.781-.245l-1.6-1.6a1.4,1.4,0,0,0-1.948,0l-.136.136c-.018-.019-.039-.035-.057-.054-.143-.149-.279-.306-.408-.467l-.017-.024c-.069-.1-.14-.2-.206-.3a8.738,8.738,0,0,1-.668-1.249l-.018-.049c-.046-.122-.093-.244-.136-.367q-.108-.309-.2-.624a13.548,13.548,0,0,1-.32-1.411q-.023-.13-.043-.261c0-.016-.027-.2-.034-.248-.022-.188-.044-.376-.061-.565q-.067-.745-.084-1.494c-.009-.466,0-.933.03-1.4.014-.2.032-.408.058-.611.008-.036.043-.256.044-.265.025-.136.052-.272.082-.407a8.927,8.927,0,0,1,.361-1.189c.023-.053.069-.166.08-.188q.051-.105.1-.209a6.785,6.785,0,0,1,.354-.6c.06-.091.123-.179.187-.268l.011-.013c.125-.146.252-.29.388-.426.113-.112.233-.216.356-.319.046-.033.139-.1.16-.118q.142-.095.291-.18c.1-.057.2-.107.3-.159l.038-.02.047-.014c.2-.064.4-.115.611-.165l.018,0c.118-.006.235-.018.354-.02.089,0,.177,0,.266.005q.08,0,.159.01l.091.009c.174.04.451.12.474.128.067.022.132.047.2.07-.338-.116.076.042.147.082s.121.069.181.106.095.062.141.095h0a5.051,5.051,0,0,1,.438.459,1.382,1.382,0,0,0,1.948,0,1.417,1.417,0,0,0,0-1.948,5.354,5.354,0,0,0-5.609-1.533,7.221,7.221,0,0,0-4.4,4.493c.317-3.025.637-6.05.99-9.071.318-2.723.623-5.139,1.007-7.751a36.854,36.854,0,0,1,1.309-5.781q.442-1.395.995-2.751.052-.129.106-.257l.076-.179q.154-.356.315-.708.3-.656.624-1.3A39.6,39.6,0,0,1,274.2,17.3c.289-.409.589-.809.89-1.21l.007-.008.05-.065q.12-.153.241-.305.243-.3.491-.6.94-1.132,1.962-2.192t2.113-2.033q.535-.477,1.088-.934.276-.228.556-.45l.252-.2.165-.125a35.268,35.268,0,0,1,4.879-3.1q.648-.34,1.311-.652.294-.138.591-.27L289.142,5l.092-.039.027-.011c.883-.36,1.777-.688,2.687-.97s1.83-.519,2.762-.711q.712-.147,1.432-.257c.106-.016.213-.03.32-.047h0l.115-.015q.349-.043.7-.078a27.218,27.218,0,0,1,5.841.052l.331.041c-.249-.03-.048-.006.076.012q.388.057.775.125.753.133,1.5.307a28.158,28.158,0,0,1,2.946.864c.487.172.968.359,1.445.555l.02.008-.015-.007.039.017.017.008.11.047.333.147q.391.176.777.363A32.165,32.165,0,0,1,314.4,7.026c.98.607,1.927,1.266,2.845,1.964a1.381,1.381,0,0,0,1.885-.494,1.6,1.6,0,0,0,.121-.3,4.021,4.021,0,0,0-.65-.228,4.021,4.021,0,0,1,.65.228,1.442,1.442,0,0,0-.615-1.582A32.4,32.4,0,0,0,306.585.766,29.18,29.18,0,0,0,294.453.518a32.654,32.654,0,0,0-10.937,4.305,39.02,39.02,0,0,0-9.083,7.745,40.711,40.711,0,0,0-6.495,10.2,38.85,38.85,0,0,0-2.048,5.792,54.845,54.845,0,0,0-1.161,6.56c-.745,5.5-1.318,11.022-1.9,16.541-.291,2.767-.583,5.533-.9,8.3-.316,2.738-.642,5.357-1.015,7.944-.357,2.476-.8,4.936-1.2,7.4-.311,1.887-.579,3.784-1,5.651a22.469,22.469,0,0,1-.7,2.5q-.092.262-.193.521c-.025.063-.124.37-.068.175s-.049.111-.075.17a12.075,12.075,0,0,1-.554,1.085c-.2.352-.429.685-.664,1.015l-.011.016c-.056.068-.11.137-.167.2q-.207.246-.43.479a11.327,11.327,0,0,1-.94.867l-.072.058c-.08.058-.159.119-.24.176q-.293.208-.6.4a13.467,13.467,0,0,1-1.19.658c-.2.1-.4.188-.6.279-.025.01-.2.083-.25.1-.134.053-.27.1-.405.155a1.408,1.408,0,0,0-.962,1.694,1.394,1.394,0,0,0,1.694.962q.718-.267,1.414-.584a2.015,2.015,0,0,1-.3-1.582,2.015,2.015,0,0,0,.3,1.582,13.56,13.56,0,0,0,3.84-2.553,12.756,12.756,0,0,0,2.872-4.454,25.5,25.5,0,0,0,1.33-5.047c.36-2,.662-4.01,1.011-6.012.938-5.39,1.6-10.825,2.2-16.261.06-.544.117-1.087.176-1.63.027.326.06.649.1.968a12.3,12.3,0,0,0,2.418,6.371c.151.187.314.368.484.543L265.949,66a1.4,1.4,0,0,0,0,1.948l4.269,4.269a1.4,1.4,0,0,0,1.948,0l3.031-3.031c.151,1.185.312,2.37.535,3.544a23.515,23.515,0,0,0,2.792,7.525,28.5,28.5,0,0,0,3.043,4.238,1.53,1.53,0,0,0-.026.205c-.088,2.531-.066,5.07-.354,7.59-.017.149-.054.308-.056.458.005-.373-.013.084-.029.19q-.072.477-.165.95c-.078.4-.173.8-.276,1.191a5.846,5.846,0,0,0,2.124-2.626,5.846,5.846,0,0,1-2.124,2.626c-.058.221-.115.441-.182.659q-.131.427-.286.847c-.046.123-.1.246-.143.369l-.033.085c-.021.044-.044.088-.063.13a11.774,11.774,0,0,1-.913,1.642q-.139.208-.287.409l-.029.038c-.013.016-.1.123-.128.16a10.819,10.819,0,0,1-.765.832c-.253.248-.52.48-.794.705l-.021.017c-.074.056-.149.111-.224.166-.184.131-.371.256-.561.378a1.378,1.378,0,1,0,1.39,2.379,13.088,13.088,0,0,0,5.295-6.763,27.012,27.012,0,0,0,1.253-7.977c.027-.656.044-1.312.06-1.968a27.457,27.457,0,0,0,8.435,5.112,21.553,21.553,0,0,0,15.593.175,23.9,23.9,0,0,0,7.641-5.1c.1,4.5.31,9.229,2.922,12.989a12.914,12.914,0,0,0,3.684,3.528,1.22,1.22,0,0,0,.606.179,1.384,1.384,0,0,0,.949.987q2.041.625,4.074,1.276c.1-.34.19-.683.258-1.026-.069.343-.156.686-.258,1.026,5.05,1.6,10.073,3.291,15.09,5,2.592.881,5.206,1.712,7.765,2.687q.434.166.865.338l.429.174.213.089c-.3-.123.061.027.1.042q.869.375,1.718.8a25.017,25.017,0,0,1,3.238,1.908q.187.131.371.267l.184.136.095.073.08.063.179.145q.2.164.4.334a18.825,18.825,0,0,1,1.434,1.377q.307.328.6.67.156.185.308.374l.068.086.129.17a18,18,0,0,1,1.066,1.605c.309.524.592,1.064.851,1.615q.095.2.185.405c.03.068.059.136.09.2.117.289.233.577.341.87a28.987,28.987,0,0,1,1.059,3.626q.219.97.386,1.951.08.465.15.932c.023.156.045.313.068.469l.008.062c.009.073.019.146.028.22.165,1.3.28,2.611.364,3.922.167,2.589.212,5.183.267,7.776.062,2.924.191,5.846.258,8.771q.117,5.075.087,10.153-.007,1.028-.02,2.057h2.755q.06-4.922-.02-9.844m-41.747-91.2,2.321,2.321-2.321,2.321-2.321-2.321,2.321-2.321M272.212,48.193l-.128-.017c0-.009.056,0,.128.017m-3.107,1.45c-.037.044-.07.082,0,0M289.216,4.968h0M268.747,59.825h0m2.444,9.466-2.321-2.321,2.321-2.321,2.321,2.321ZM365.6,132.815h0" transform="translate(-186.624 0)"/>
    <path id="路径_5047" data-name="路径 5047" d="M596.786,317.935c-.093-.3-.064-.15-.024-.055l.006.013.019.041" transform="translate(-444.511 -236.703)"/>
    <path id="路径_5048" data-name="路径 5048" d="M566.019,314.417a13.541,13.541,0,0,1-1.286-.7q-.287-.179-.564-.372-.139-.1-.275-.2l-.13-.1a15.447,15.447,0,0,1-2.087-2.04c-.072-.087-.142-.176-.214-.263v0l-.058-.077q-.219-.294-.423-.6a14.539,14.539,0,0,1-.753-1.259q-.159-.3-.3-.6c-.056-.119-.107-.241-.164-.359l-.005-.011-.052-.128q-.261-.655-.456-1.333a13.588,13.588,0,0,1-.356-1.593c-.008-.05-.015-.1-.023-.149-.015-.145-.033-.289-.045-.435-.024-.281-.039-.563-.046-.845a1.377,1.377,0,0,0-2.755,0,15.613,15.613,0,0,0,5.493,11.4,14.91,14.91,0,0,0,3.113,2.043,1.637,1.637,0,0,0,.161.062,3.43,3.43,0,0,0,.679-.781,8,8,0,0,1-.939-.214,8,8,0,0,0,.939.214,3.843,3.843,0,0,0,.286-.52,3.843,3.843,0,0,1-.286.52,8.662,8.662,0,0,0,1.089.117,1.375,1.375,0,0,0-.539-1.777" transform="translate(-414.192 -224.945)"/>
    <path id="路径_5049" data-name="路径 5049" d="M590.394,358.049a1.374,1.374,0,0,0,1.723-.556c.018-.034.029-.072.045-.108a8.594,8.594,0,0,1-1.089-.117,3.428,3.428,0,0,1-.679.781" transform="translate(-439.796 -266.136)"/>
    <path id="路径_5050" data-name="路径 5050" d="M549.932,343.082c-.086-.12-.087-.12-.065-.087l.061.082,0,0" transform="translate(-409.597 -255.49)"/>
    <path id="路径_5051" data-name="路径 5051" d="M542.722,325.769l0,.008a.281.281,0,0,0-.014-.13.757.757,0,0,1,.013.122" transform="translate(-404.274 -242.581)"/>
    <path id="路径_5052" data-name="路径 5052" d="M541.2,321.8c-.222-.056-.442-.117-.659-.189q-.15-.049-.3-.1l-.2-.074-.11-.047-.139-.064q-.166-.079-.328-.163-.325-.17-.636-.364-.29-.18-.566-.38l-.182-.138c-.066-.055-.133-.11-.2-.166a10.662,10.662,0,0,1-1.016-.992c-.138-.155-.271-.314-.4-.475l.015.02-.019-.025,0,0c-.016-.02-.042-.056-.058-.079l-.015-.02q-.109-.149-.213-.3a10.989,10.989,0,0,1-.723-1.227c-.092-.181-.176-.366-.258-.552-.014-.034-.035-.085-.052-.13q-.075-.2-.143-.4a10.266,10.266,0,0,1-.363-1.37c-.02-.1-.037-.208-.054-.312,0,0,0,.005,0,.006s0-.01,0-.014,0-.027-.007-.041c-.014-.084-.012-.1-.006-.081-.005-.034-.01-.064-.011-.072q-.039-.391-.046-.784c0-.262,0-.525.02-.787.01-.14.024-.28.039-.419,0-.008,0-.022.006-.038.01-.054.021-.114.021-.118a1.411,1.411,0,0,0-.962-1.695,1.394,1.394,0,0,0-1.694.962,12,12,0,0,0,5.151,11.777,10.566,10.566,0,0,0,2.609,1.286,6.438,6.438,0,0,0,.65-1.036,6.438,6.438,0,0,1-.65,1.036c.254.085.51.161.768.226a1.439,1.439,0,0,0,1.569-.65c-.572-.076-1.141-.184-1.686-.306.545.121,1.114.23,1.686.306a1.18,1.18,0,0,0,.126-.312,1.4,1.4,0,0,0-.962-1.694" transform="translate(-396.138 -231.053)"/>
    <path id="路径_5053" data-name="路径 5053" d="M325.694,357.642l-.027.012,0,0,.022-.01" transform="translate(-242.596 -266.414)"/>
    <path id="路径_5054" data-name="路径 5054" d="M327.272,318.512a11.443,11.443,0,0,0,.011-3.971,1.384,1.384,0,0,0-1.694-.962,1.417,1.417,0,0,0-.962,1.694c.008.045.014.09.022.135.011.1.029.26.031.283q.032.366.034.734,0,.341-.021.681c-.007.1-.016.209-.026.313,0,.01-.005.041-.01.076.006-.025.009-.02-.007.078l-.006.029a.1.1,0,0,0,0,.026s0-.006,0-.01a10.871,10.871,0,0,1-.3,1.335q-.1.327-.218.648c-.037.1-.078.2-.115.294.107-.287-.027.059-.071.154a11.074,11.074,0,0,1-.654,1.205q-.182.291-.382.57c-.04.056-.122.164-.138.187-.054.068-.108.135-.163.2a10.8,10.8,0,0,1-.982,1.027c-.168.154-.346.3-.519.445l0,0-.052.039q-.169.124-.343.242a9.706,9.706,0,0,1-1.368.771l-.089.04c.067-.029.106-.04-.016.008l-.007,0-.032.015.028-.013c-.127.049-.254.1-.383.143-.266.092-.536.171-.809.239a1.392,1.392,0,0,0-.962,1.694,1.552,1.552,0,0,0,.143.308,5.37,5.37,0,0,0,2.855-1.482,5.37,5.37,0,0,1-2.855,1.482,1.387,1.387,0,0,0,1.551.654,10.31,10.31,0,0,0,1.161-.374c-.158-.077-.315-.154-.469-.231-.306-.306,0-.612.306-.612-.306,0-.612.306-.306.612.154.077.311.154.469.231a12.014,12.014,0,0,0,7.356-8.943m-2.631-3.187s0,.02,0,.048a.184.184,0,0,1,0-.048" transform="translate(-236.144 -233.552)"/>
    <path id="路径_5055" data-name="路径 5055" d="M346.952,329.084a.469.469,0,0,0-.016.123c0-.006,0-.011,0-.016,0-.027.008-.068.013-.107" transform="translate(-258.439 -245.141)"/>
    <path id="路径_5056" data-name="路径 5056" d="M307.266,343.462c.059-.1.094-.185,0,0" transform="translate(-228.888 -255.771)"/>
    <path id="路径_5057" data-name="路径 5057" d="M301.964,297.861a1.377,1.377,0,0,0-2.755,0,16.211,16.211,0,0,1-.047,1.919c-.013.154-.03.308-.046.461l-.008.074c-.007.05-.015.1-.022.15q-.075.491-.181.977a16.141,16.141,0,0,1-.539,1.911c-.1.273-.2.545-.31.812-.016.033-.1.231-.122.271q-.111.241-.23.478a26.5,26.5,0,0,1-1.8,2.93c-.117.172-.235.344-.358.513a1.959,1.959,0,0,0-.174.235l.023-.045a.721.721,0,0,1-.055.08,6.658,6.658,0,0,1-.786.812l-.062.052a.471.471,0,0,1,.045-.03c-.018.01-.035.024-.053.036l-.016.013c-.124.108-.07.052,0,0-.063.044-.124.093-.185.135-.185.126-.376.242-.571.35-.234.13-.474.25-.718.362-.114.053-.229.1-.345.154l-.3.119a1.412,1.412,0,0,0-.962,1.694,1.6,1.6,0,0,0,.856.934,3.8,3.8,0,0,0,1.033-1.484,3.8,3.8,0,0,1-1.033,1.484,1.08,1.08,0,0,0,.838.028l.34-.136a5.588,5.588,0,0,1-.451-.457,5.588,5.588,0,0,0,.451.457,10.964,10.964,0,0,0,2.5-1.309,9.488,9.488,0,0,0,2.047-2.163,20.915,20.915,0,0,0,3.447-6.923,17.5,17.5,0,0,0,.539-4.894" transform="translate(-217.02 -220.855)"/>
    <path id="路径_5058" data-name="路径 5058" d="M303.654,347.48l-.024.018.016-.011.008-.007" transform="translate(-226.18 -258.845)"/>
    <path id="路径_5059" data-name="路径 5059" d="M324.755,258.088l2.321-2.321-2.321-2.321-2.321,2.321,2.321,2.321" transform="translate(-240.187 -188.797)" fill="#fff"/>
    <path id="路径_5060" data-name="路径 5060" d="M545.763,253.446l-2.321,2.321,2.321,2.321,2.321-2.321-2.321-2.321" transform="translate(-404.82 -188.797)" fill="#fff"/>
    <path id="路径_5061" data-name="路径 5061" d="M351.943,167.043h0v0" transform="translate(-262.169 -124.432)"/>
    <path id="路径_5062" data-name="路径 5062" d="M377.191,60.379a18.73,18.73,0,0,0-10.842-2.849,22.93,22.93,0,0,0-10.579,3.078c-5.936,3.391-10.146,9.064-12.663,15.331a39.257,39.257,0,0,0-2.591,10.907,1.382,1.382,0,0,0,1.378,1.377,1.415,1.415,0,0,0,1.377-1.377c.038-.392.08-.784.129-1.175.009-.07.016-.142.027-.212h0v0c0-.027.008-.051.009-.063q.046-.321.1-.642.189-1.18.451-2.346A37.729,37.729,0,0,1,345.3,77.9q.194-.54.406-1.074c.073-.185.148-.369.224-.552.054-.127.109-.253.164-.379q.474-1.073,1.02-2.113a31.544,31.544,0,0,1,2.5-4.005c.088-.12.178-.238.267-.357-.042.057.2-.25.241-.308q.388-.485.8-.952.763-.873,1.6-1.679.855-.824,1.782-1.567l.212-.168h0l.02-.015c.145-.108.289-.217.435-.323q.528-.382,1.076-.736.966-.624,1.989-1.154.541-.28,1.1-.532c.144-.065.289-.129.434-.191l.109-.045q.182-.074.366-.145a20.316,20.316,0,0,1,2.551-.8q.6-.144,1.2-.253c.2-.036.4-.068.606-.1l.075-.012.045-.005c.122-.014.244-.029.367-.042a20.143,20.143,0,0,1,3.064-.094c.489.022.975.066,1.461.123l.014,0c.155.023.309.046.463.072q.359.061.716.136a17.028,17.028,0,0,1,2.77.833c.027.011.245.1.22.093l.224.1q.327.151.646.317a15.381,15.381,0,0,1,1.345.79,1.388,1.388,0,0,0,1.885-.494c.02-.037.031-.075.047-.113a4.111,4.111,0,0,0-.982-.013,4.111,4.111,0,0,1,.982.013,1.4,1.4,0,0,0-.541-1.772M345.947,76.221h0m23.506-15.8h0" transform="translate(-253.654 -42.846)"/>
    <path id="路径_5063" data-name="路径 5063" d="M392.256,415.11a7.348,7.348,0,0,1-1.621,2.5,7.348,7.348,0,0,0,1.621-2.5c-.02-.012-.036-.029-.057-.04a1.413,1.413,0,0,0-1.885.494q-.178.257-.363.51c-.062.084-.126.167-.189.252.163-.221-.006.007-.076.095q-.414.519-.86,1.012a23.919,23.919,0,0,1-1.976,1.941c-.348.305-.706.6-1.069.888l-.043.035-.033.025-.27.2q-.3.219-.6.431-1.2.845-2.487,1.569t-2.636,1.338q-.328.148-.658.29l-.046.02-.069.028-.392.159q-.734.292-1.48.552a37.136,37.136,0,0,1-6.049,1.547q-.371.062-.743.117l-.283.041c.01,0-.22.028-.284.036q-.782.1-1.567.157-1.576.125-3.159.112-1.6-.013-3.191-.169-.372-.036-.743-.081l-.37-.046-.188-.027q-.766-.111-1.526-.254a36.391,36.391,0,0,1-5.927-1.641q-.337-.125-.672-.257l-.333-.133-.166-.068-.128-.053-.037-.016-.163-.071-.325-.144q-.377-.169-.749-.347-1.312-.628-2.566-1.369-1.22-.723-2.37-1.558-.264-.192-.523-.392l-.128-.1q-.151-.12-.3-.243-.529-.433-1.036-.893a24.092,24.092,0,0,1-1.878-1.9q-.208-.237-.41-.479-.117-.14-.231-.283l-.128-.162c-.241-.318-.475-.641-.7-.972q-.355-.528-.674-1.077a1.394,1.394,0,0,0-1.885-.494c-.018.011-.032.026-.049.039a11.715,11.715,0,0,0,1.62,2.049,11.715,11.715,0,0,1-1.62-2.049,1.4,1.4,0,0,0-.445,1.846,25.493,25.493,0,0,0,8.06,8.232,35.4,35.4,0,0,0,11.522,4.878,37.523,37.523,0,0,0,13.17.7,38.274,38.274,0,0,0,12.6-3.812,27.684,27.684,0,0,0,9.234-7.326c.331-.422.655-.849.96-1.289a1.383,1.383,0,0,0-.437-1.845" transform="translate(-251.01 -308.024)"/>
    <path id="路径_5064" data-name="路径 5064" d="M471.148,155.806c.247-.2-.163.1.08-.059.094-.059.183-.124.278-.182.186-.114.382-.2.575-.3-.292.151,0,0,.066-.021q.15-.054.3-.1c.2-.06.408-.1.614-.144.286-.063-.268.015.049-.009.1-.008.209-.019.313-.025.192-.01.385-.011.577,0,.1,0,.21.01.314.018.043,0,.4.045.183.016s.139.026.181.033c.1.019.206.041.309.064a8.778,8.778,0,0,1,1.151.359c.329.125-.263-.127.054.024.093.044.187.087.28.134q.274.138.537.3t.5.33c.078.056.331.17.036.021a1.288,1.288,0,0,1,.224.186,6.406,6.406,0,0,1,.775.8,1.382,1.382,0,0,0,1.948,0,1.417,1.417,0,0,0,0-1.948,8.8,8.8,0,0,0-4.981-2.9,7.413,7.413,0,0,0-6.317,1.468,1.382,1.382,0,0,0,0,1.948,1.416,1.416,0,0,0,1.948,0" transform="translate(-349.217 -113.39)"/>
    <path id="路径_5065" data-name="路径 5065" d="M483.954,191.307a1.377,1.377,0,1,0-1.377-1.377,1.393,1.393,0,0,0,1.377,1.377" transform="translate(-359.48 -140.456)"/>
    <path id="路径_5066" data-name="路径 5066" d="M390.207,154.2a6.658,6.658,0,0,0-4.714-1.809,10.8,10.8,0,0,0-5.3,1.221,7.069,7.069,0,0,0-2.271,1.825,1.414,1.414,0,0,0,0,1.948,1.392,1.392,0,0,0,1.948,0,5.342,5.342,0,0,1,.449-.505q.123-.121.253-.234.065-.057.133-.112.171-.137-.072.053a10.023,10.023,0,0,1,1.155-.7,1.219,1.219,0,0,1,.336-.155q-.28.116-.071.031l.175-.067q.353-.132.717-.234t.737-.178c.124-.025.248-.047.373-.068l.187-.028q-.292.038-.132.019c.481-.024.951-.078,1.434-.059a6.229,6.229,0,0,0,.713.058q-.331-.046-.106-.011l.17.03q.147.028.293.062a5.954,5.954,0,0,1,.6.173c.131.046.365.22.044.008.084.055.193.089.282.135s.488.215.515.32q-.269-.212-.1-.078c.037.031.074.064.11.1.071.066.139.135.2.206a1.389,1.389,0,0,0,1.948,0,1.407,1.407,0,0,0,0-1.948" transform="translate(-281.227 -113.512)"/>
    <path id="路径_5067" data-name="路径 5067" d="M401.328,191.307a1.377,1.377,0,1,0-1.377-1.377,1.393,1.393,0,0,0,1.377,1.377" transform="translate(-297.93 -140.456)"/>
    <path id="路径_5068" data-name="路径 5068" d="M443.7,190.191a11.578,11.578,0,0,0,.2,10.8,1.378,1.378,0,0,0,2.379-1.39c-.1-.18-.2-.363-.288-.549-.036-.074-.07-.15-.1-.224-.109-.233.022.077-.03-.07-.124-.352-.254-.7-.351-1.057a10.666,10.666,0,0,1-.241-1.151c.031.2.007.054-.006-.064-.009-.082-.016-.165-.023-.247q-.025-.309-.032-.619a10.223,10.223,0,0,1,.037-1.115c.009-.1.022-.205.031-.308-.013.135-.02.13,0,0,.033-.2.069-.407.114-.609a9.862,9.862,0,0,1,.3-1.073q.05-.147.105-.291c.018-.048.125-.315.023-.073.081-.19.171-.376.264-.561a1.378,1.378,0,0,0-2.379-1.391" transform="translate(-329.6 -141.181)"/>
    <path id="路径_5069" data-name="路径 5069" d="M441.262,253.254l1.664-.023.24,0a1.43,1.43,0,0,0,.974-.4,1.536,1.536,0,0,0,.4-.974,1.393,1.393,0,0,0-.4-.974,1.416,1.416,0,0,0-.974-.4l-1.664.023-.24,0a1.429,1.429,0,0,0-.974.4,1.532,1.532,0,0,0-.4.974,1.391,1.391,0,0,0,.4.974,1.415,1.415,0,0,0,.974.4" transform="translate(-327.678 -186.582)"/>
    <path id="路径_5070" data-name="路径 5070" d="M411.139,278.992c1.743,2.76,4.076,5.468,7.261,6.543a7.419,7.419,0,0,0,4.032.189,8.664,8.664,0,0,0,3.758-2.083,16.1,16.1,0,0,0,3.474-4.83,1.393,1.393,0,0,0-1.189-2.073L423,276.8l-8.653.1-2.014.023a1.377,1.377,0,1,0,0,2.755l5.479-.061,8.653-.1,2.014-.022-1.189-2.073a19.635,19.635,0,0,1-1.326,2.292q-.162.238-.332.47c-.044.06-.09.12-.135.18.176-.233.024-.033-.022.024-.231.286-.473.562-.729.826-.227.234-.465.458-.715.669-.059.05-.125.1-.182.15-.145.137.272-.2.023-.018-.146.1-.292.209-.443.307a7.211,7.211,0,0,1-.674.385c-.075.038-.152.072-.227.108-.208.1.076-.037.1-.041a3.41,3.41,0,0,0-.46.167,5.883,5.883,0,0,1-.773.191c-.381.067.287-.022-.1.014q-.215.02-.431.023a7.1,7.1,0,0,1-.748-.036c-.294-.026.341.062.051.006l-.158-.028q-.239-.046-.474-.11-.2-.054-.4-.12c-.1-.035-.3-.155-.395-.146.021,0,.311.14.093.039-.079-.036-.158-.072-.236-.11q-.2-.1-.393-.2c-.269-.148-.529-.309-.782-.483a2.344,2.344,0,0,1-.389-.279c.209.226.084.067.008,0s-.181-.147-.27-.223a14.84,14.84,0,0,1-1.738-1.766c-.125-.149-.247-.3-.368-.452-.246-.308.16.221-.076-.1-.072-.1-.146-.2-.217-.295-.3-.412-.58-.835-.851-1.264a1.378,1.378,0,0,0-2.379,1.39" transform="translate(-306.123 -206.148)"/>
    <path id="路径_5071" data-name="路径 5071" d="M18.079,408.96a.28.28,0,0,1-.065,0l.025.006.04,0" transform="translate(-13.419 -304.641)" fill="#64a0e6"/>
    <path id="路径_5072" data-name="路径 5072" d="M33.441,465.887l.033.032.025.016c.074.049.146.1.222.148a5.094,5.094,0,0,0,.473.255l.008,0c.1.033.2.069.3.1s.206.046.309.072l.028.007h.026c.179,0,.354,0,.532,0h.033l.024-.007c.069-.017.139-.029.207-.046.1-.026.2-.063.3-.092l.03-.008a5.463,5.463,0,0,0,.542-.3c.028-.018.077-.055.108-.078.053-.045.106-.088.157-.135.131-.122.248-.255.368-.386l.009-.009,0-.007c.046-.076.1-.147.147-.222q.1-.159.182-.325c.015-.029.036-.08.05-.115a4.061,4.061,0,0,0,.123-.4c.017-.07.041-.155.052-.235,0-.028,0-.056,0-.077a3.723,3.723,0,0,0-.019-.584l0-.016c-.007-.05-.015-.1-.023-.148q-.022-.135-.048-.269a6.843,6.843,0,0,0-.168-.7c-.032-.105-.07-.208-.1-.312l-.01-.032-.023-.039c-.054-.093-.1-.191-.156-.283-.02-.033-.1-.136-.123-.166-.045-.047-.091-.093-.133-.142-.016-.018-.022-.027-.031-.039l-.017-.01c-.156-.1-.313-.189-.478-.273l-.028-.008c-.093-.028-.184-.061-.278-.087a3.065,3.065,0,0,0-.483-.114c-.045,0-.1,0-.129,0q-.151-.01-.3-.01c-.169,0-.335.013-.5.023H34.67l-.022.005c-.065.015-.131.025-.2.04-.177.04-.347.1-.519.151l-.041.012-.03.018c-.069.039-.141.072-.209.112s-.132.084-.2.125l-.011.006-.005.006c-.091.091-.181.179-.268.274-.027.034-.072.09-.09.116q-.086.126-.166.257-.112.185-.209.379c-.016.032-.057.12-.074.154a5.042,5.042,0,0,0-.166.5c-.033.12-.055.241-.084.361l-.011.044c0,.005,0,.009,0,.015-.005.176-.089.5-.009.667l-.022-.154c.011.07.024.14.039.21.022.1.049.207.08.309.021.068.046.134.067.2l.009.03.018.032c.086.156.165.313.262.463.021.032.117.16.124.176l.047.056c.142.162.3.3.455.451" transform="translate(-24.08 -343.294)" fill="#fff"/>
    <path id="路径_5073" data-name="路径 5073" d="M20.31,417.188l-.908-5.147a1.259,1.259,0,0,1-.409-.149c-.737-.444-1.482-.877-2.238-1.287-.449-.243-.9-.479-1.361-.7q-.333-.163-.671-.316c-.11-.05-.222-.1-.333-.148l0,0-.136-.055a11.239,11.239,0,0,0-1.15-.4c-.16-.045-.322-.081-.485-.115a.349.349,0,0,1-.145-.018l-.022,0c-.045,0-.146-.016-.234-.018l-.026.008c-.046.013-.1.018-.144.029-.091.021-.178.051-.266.079l-.021.015c-.075.048-.153.1-.231.144-.026.026-.057.05-.083.076-.067.065-.128.135-.191.2h0l-.012.022c-.057.1-.12.19-.174.289l-.053.1c.009-.006-.084.211-.1.257q-.047.146-.084.294c-.029.115-.046.232-.073.347,0,.029-.006.055-.006.059-.009.106-.016.212-.017.318,0,.044,0,.087,0,.131.025.081.064.282.074.312s.014.04.021.06c.1.167.2.334.3.5.011.012.1.14.151.194q.112.127.231.248c.16.164.327.321.5.472.115.1.233.2.351.3l.153.123.192.147.262.195q.728.538,1.479,1.043c.893.6,1.813,1.153,2.752,1.675,1.089.605,2.195,1.178,3.291,1.769l-.184-1.043" transform="translate(-7.994 -304.544)" fill="#fff"/>
    <path id="路径_5074" data-name="路径 5074" d="M198.255,596.909l0-.025s0-.008,0-.01a.109.109,0,0,1,0,.035" transform="translate(-147.684 -444.623)" fill="#64a0e6"/>
    <path id="路径_5075" data-name="路径 5075" d="M17.648,408.9c-.1-.02-.124-.018-.112-.01l.12.012-.008,0" transform="translate(-13.061 -304.589)" fill="#64a0e6"/>
    <path id="路径_5076" data-name="路径 5076" d="M402.774,498.236h0c.072-.08.042-.049,0,0" transform="translate(-300.034 -371.109)" fill="#64a0e6"/>
    <path id="路径_5077" data-name="路径 5077" d="M218.323,516.151h0" transform="translate(-162.633 -384.491)" fill="#64a0e6"/>
    <path id="路径_5078" data-name="路径 5078" d="M199.984,420.1a.19.19,0,0,0-.076-.011.586.586,0,0,0,.076.011" transform="translate(-148.916 -312.932)" fill="#64a0e6"/>
    <path id="路径_5079" data-name="路径 5079" d="M207.989,543.842c.019-.13.009-.063,0,0" transform="translate(-154.935 -405.063)" fill="#64a0e6"/>
    <path id="路径_5080" data-name="路径 5080" d="M10.847,415.743s0,.028-.006.059a.168.168,0,0,0,.006-.059" transform="translate(-8.076 -309.695)" fill="#64a0e6"/>
    <path id="路径_5081" data-name="路径 5081" d="M198.184,597.076c-.011.066-.01.079-.005.071,0-.028.013-.092.017-.134l-.012.063" transform="translate(-147.625 -444.726)" fill="#64a0e6"/>
    <path id="路径_5082" data-name="路径 5082" d="M87.7,580.3a.115.115,0,0,0,.006.021v0a.218.218,0,0,1-.006-.023" transform="translate(-65.331 -432.277)" fill="#64a0e6"/>
    <path id="路径_5083" data-name="路径 5083" d="M87.728,580.391s0,.006,0,.009c.009.026.025.061.04.094-.017-.034-.029-.069-.043-.1" transform="translate(-65.35 -432.344)" fill="#64a0e6"/>
    <path id="路径_5084" data-name="路径 5084" d="M15.975,408.851a1.04,1.04,0,0,0,.128-.025.206.206,0,0,0-.128.025" transform="translate(-11.9 -304.542)" fill="#64a0e6"/>
    <path id="路径_5085" data-name="路径 5085" d="M122.171,481.231q-.222-2.739-.382-5.483c-.117-2.056-.168-4.108-.351-6.159a30.378,30.378,0,0,1-.16-3.238,8.593,8.593,0,0,1,.475-3.01,7.264,7.264,0,0,1,.9-1.5q.582-.832,1.088-1.713t.934-1.8q.12-.259.235-.52l.055-.129.052-.126q.179-.441.341-.888a24.932,24.932,0,0,0,1.062-3.915c.062-.333.115-.667.165-1l0-.033c.01-.077.019-.153.029-.23.02-.168.038-.336.054-.5q.1-1.011.115-2.027t-.051-2.028q-.034-.506-.088-1.01c-.016-.147-.034-.294-.053-.441-.007-.048-.049-.371-.054-.406-.213-1.584-.422-3.168-.594-4.757a56.881,56.881,0,0,1-.357-9.09,41.136,41.136,0,0,1,.549-4.867c.124-.715.283-1.424.416-2.137.035-.19.067-.38.1-.571,0-.023.03-.246.035-.3a7.13,7.13,0,0,0,.029-.965c-.005-.108-.014-.217-.026-.325l-.014-.059c-.033-.143-.065-.284-.11-.424-.005-.016-.026-.076-.042-.122s-.053-.117-.061-.133c-.059-.113-.127-.219-.195-.327l-.013-.022-.029-.029c-.036-.038-.071-.077-.107-.114s-.1-.1-.15-.145l-.045-.041c-.03-.024-.07-.056-.087-.067-.058-.04-.117-.077-.177-.114-.106-.064-.215-.118-.324-.175l-.026-.014-.035-.011-.151-.051q-.2-.065-.411-.109c-.064-.013-.128-.024-.192-.036-.118-.007-.318-.008-.341-.008-.089,0-.177,0-.265.01l-.09.01-.072.014c-.074.015-.147.032-.22.052-.127.033-.251.076-.376.116l-.044.014c-.048.022-.1.044-.144.067a5.051,5.051,0,0,0-.441.248q-.1.06-.188.124l-.1.075-.023.019c-.057.05-.115.1-.171.149q-.168.153-.324.319c-.065.069-.128.141-.19.213l-.065.079c-.038.056-.142.2-.165.234a6.736,6.736,0,0,0-.46.833l-.024.054c.008-.017,0,0-.019.053-.025.086-.062.169-.091.254q-.075.224-.136.451c-.047.174-.087.349-.122.526-.009.046-.058.374-.061.364a11.232,11.232,0,0,0-.017,2.108,1.109,1.109,0,0,1,0,.148l1.285,7.288,1.876,10.641.787,4.466a12.932,12.932,0,0,1,.194,1.381,6.531,6.531,0,0,1-3.122,6.022,6.948,6.948,0,0,1-2.313.742l-6.248,1.1-8.6,1.517-5.511.972a15.412,15.412,0,0,1,.264,1.6c.116.864.208,1.732.27,2.6.244,3.443.17,6.921.108,10.369-.038,2.087-.091,4.174-.175,6.259a1.432,1.432,0,0,1-.324.86h23.667a1.671,1.671,0,0,1-.331-.86c-.009-.107-.018-.215-.027-.322" transform="translate(-73.537 -312.907)" fill="#fff"/>
    <path id="路径_5086" data-name="路径 5086" d="M254.738,459.258c-.031.059-.036.1-.03.112a1.173,1.173,0,0,0,.051-.155l-.022.043" transform="translate(-189.735 -342.078)" fill="#fff"/>
    <path id="路径_5087" data-name="路径 5087" d="M254.927,459.054c0,.013-.007.028-.01.041l0-.007c0-.012,0-.02.007-.034" transform="translate(-189.893 -341.958)" fill="#fff"/>
    <path id="路径_5088" data-name="路径 5088" d="M254.158,464.477c0-.024,0-.042,0-.062l-.007-.03a.627.627,0,0,1,.005.092" transform="translate(-189.323 -345.929)" fill="#fff"/>
    <path id="路径_5089" data-name="路径 5089" d="M258.348,455.389c.02-.01.034-.02.027-.031a.4.4,0,0,0-.113.051l.054-.013.032-.007" transform="translate(-192.384 -339.204)" fill="#fff"/>
    <path id="路径_5090" data-name="路径 5090" d="M258.062,455.576l.027-.015c-.08.02-.069.023-.027.015" transform="translate(-192.211 -339.356)" fill="#fff"/>
    <path id="路径_5091" data-name="路径 5091" d="M254.091,463.943c0,.015.007.03.01.046,0-.046-.01-.092-.013-.136a.166.166,0,0,0,0,.09" transform="translate(-189.272 -345.533)" fill="#fff"/>
    <path id="路径_5092" data-name="路径 5092" d="M287.577,531.08l-.044.024a.445.445,0,0,0,.119-.03c.034-.026.024-.049-.075.006" transform="translate(-214.189 -395.587)" fill="#fff"/>
    <path id="路径_5093" data-name="路径 5093" d="M287.422,531.277a.142.142,0,0,0,.021,0l.007,0a.145.145,0,0,1-.028,0" transform="translate(-214.106 -395.756)" fill="#fff"/>
    <path id="路径_5094" data-name="路径 5094" d="M260.024,455.256a.32.32,0,0,0,.029.015h.008a.318.318,0,0,1-.037-.016" transform="translate(-193.697 -339.129)" fill="#fff"/>
    <path id="路径_5095" data-name="路径 5095" d="M288.833,530.829a.226.226,0,0,0,.029.006l.01,0a.2.2,0,0,1-.039,0" transform="translate(-215.157 -395.425)" fill="#fff"/>
    <path id="路径_5096" data-name="路径 5096" d="M290.379,510.99a.136.136,0,0,1,.011.041c0-.01,0-.02,0-.029a.065.065,0,0,0-.01-.011" transform="translate(-216.309 -380.646)" fill="#fff"/>
    <path id="路径_5097" data-name="路径 5097" d="M290.424,511.164c0,.089.013.115.02.112s-.011-.08-.021-.125v.014" transform="translate(-216.342 -380.765)" fill="#fff"/>
    <path id="路径_5098" data-name="路径 5098" d="M260.22,455.318h-.052a.593.593,0,0,0,.12.04c.059,0,.055-.038-.069-.039" transform="translate(-193.804 -339.174)" fill="#fff"/>
    <path id="路径_5099" data-name="路径 5099" d="M291.019,513.479c.026.086.018.055,0,0" transform="translate(-216.786 -382.5)" fill="#fff"/>
    <path id="路径_5100" data-name="路径 5100" d="M284.773,534.272c-.012,0-.032.05-.055.126a.575.575,0,0,0,.055-.126" transform="translate(-212.092 -397.989)" fill="#fff"/>
    <path id="路径_5101" data-name="路径 5101" d="M291.786,514.8c.006,0-.069-.079-.093-.109.036.059.071.107.093.109" transform="translate(-217.288 -383.405)" fill="#fff"/>
    <path id="路径_5102" data-name="路径 5102" d="M292.437,515.486a.434.434,0,0,0,.12.09l-.12-.09" transform="translate(-217.842 -383.995)" fill="#fff"/>
    <path id="路径_5103" data-name="路径 5103" d="M297.384,550.329a.322.322,0,0,0,.1.045.7.7,0,0,1-.1-.045" transform="translate(-221.527 -409.951)" fill="#fff"/>
    <path id="路径_5104" data-name="路径 5104" d="M434.058,438.012c0-.011-.017-.04-.047-.073.024.036.048.073.047.073" transform="translate(-323.303 -326.229)" fill="#fff"/>
    <path id="路径_5105" data-name="路径 5105" d="M290.824,513.022a.4.4,0,0,1,.026.049c-.011-.028-.021-.05-.026-.049" transform="translate(-216.64 -382.16)" fill="#fff"/>
    <path id="路径_5106" data-name="路径 5106" d="M292.519,502.186a.123.123,0,0,0-.01.01l.01-.01" transform="translate(-217.896 -374.088)" fill="#fff"/>
    <path id="路径_5107" data-name="路径 5107" d="M291.631,503.726a.392.392,0,0,0-.018.042.237.237,0,0,0,.018-.042" transform="translate(-217.228 -375.235)" fill="#fff"/>
    <path id="路径_5108" data-name="路径 5108" d="M256.058,457.058l.056-.072a.269.269,0,0,0-.056.072" transform="translate(-190.743 -340.418)" fill="#fff"/>
    <path id="路径_5109" data-name="路径 5109" d="M255.629,467.839h0" transform="translate(-190.423 -348.502)" fill="#fff"/>
    <path id="路径_5110" data-name="路径 5110" d="M290.449,507.887c.006-.074.007-.133,0,0" transform="translate(-216.361 -378.276)" fill="#fff"/>
    <path id="路径_5111" data-name="路径 5111" d="M432.64,436.745a.293.293,0,0,0-.078-.028c.039.02.074.036.078.028" transform="translate(-322.224 -325.319)" fill="#fff"/>
    <path id="路径_5112" data-name="路径 5112" d="M284.328,563.023a.368.368,0,0,0-.115.089c.065-.052.1-.079.115-.089" transform="translate(-211.716 -419.407)" fill="#fff"/>
    <path id="路径_5113" data-name="路径 5113" d="M433.126,437.087c.054.027.08.029-.042-.039l.04.037,0,0" transform="translate(-322.613 -325.566)" fill="#fff"/>
    <path id="路径_5114" data-name="路径 5114" d="M432.887,436.885l-.065-.056c0,.005,0,.012,0,.02l.052.03.011.006" transform="translate(-322.415 -325.402)" fill="#fff"/>
    <path id="路径_5115" data-name="路径 5115" d="M449.453,549.033c-.018-.142-.008-.061,0,0" transform="translate(-334.799 -408.927)" fill="#fff"/>
    <path id="路径_5116" data-name="路径 5116" d="M303.737,481.139a15.2,15.2,0,0,1-.284-2.159,18.771,18.771,0,0,1,.107-2.409c.151-1.9.381-3.793.5-5.7.062-.99.094-1.983.071-2.975q-.017-.764-.078-1.526-.027-.333-.063-.665c-.016-.146-.034-.291-.052-.437l-.007-.057c-.262-1.9-.68-3.785-1.13-5.653a73.69,73.69,0,0,1-2.273-11.513,24.246,24.246,0,0,1-.062-2.763c.032-.853.146-1.695.219-2.543.058-.684.09-1.37.086-2.057,0-.376-.015-.752-.042-1.128q-.018-.25-.045-.5a1.614,1.614,0,0,0-.018-.17.382.382,0,0,1-.01-.045,8.885,8.885,0,0,0-.192-.908c-.038-.141-.08-.281-.128-.419a1.445,1.445,0,0,1-.084-.217c-.056-.116-.113-.23-.18-.341-.026-.043-.056-.085-.081-.129l-.04-.069c-.065-.066-.147-.139-.161-.154a.31.31,0,0,1-.1-.074c-.034-.019-.068-.038-.1-.058-.089-.025-.2-.055-.232-.064-.07,0-.14-.007-.211-.006s-.126,0-.193,0l-.056.018c-.1.029-.2.049-.3.082a1.476,1.476,0,0,0-.176.086h0l.124-.071-.45.257-.043.029c-.059.048-.118.1-.173.149a4.469,4.469,0,0,0-.335.347l-.062.07-.022.035c-.04.061-.082.12-.121.182a5.022,5.022,0,0,0-.268.477c-.027.055-.15.389-.037.073-.025.069-.051.137-.075.206a4.724,4.724,0,0,0-.144.527c-.148.7-.211,1.419-.308,2.125,0-.014,0-.024.006-.042,0,.02-.005.041-.008.061,0,0,0,.007,0,.011l0,.013-.02.154q-.016.122-.032.243-.04.311-.078.621-.079.642-.146,1.286c-.09.867-.163,1.736-.2,2.607a27.553,27.553,0,0,1-.369,4.37,8.2,8.2,0,0,1-1.814,3.98,3.527,3.527,0,0,1-.9.721,1.843,1.843,0,0,1-1.774-.183q-.753-.358-1.511-.7-1.668-.76-3.355-1.477l-.522-.222-.175-.074-.831-.348q-.962-.4-1.928-.795-1.947-.794-3.9-1.563-7.468-2.938-15.029-5.631c-1.822-.652-3.648-1.3-5.48-1.921-.589-.2-1.178-.4-1.77-.591-.195-.063-.39-.126-.586-.185-.09-.027-.207-.039-.311-.063a.3.3,0,0,1-.128-.04c-.045,0-.09,0-.134,0s-.07,0-.106.007-.1.028-.152.039a.482.482,0,0,1-.113.035c-.067.037-.135.077-.146.083-.035.021-.069.044-.1.067-.067.066-.142.127-.207.2q-.05.053-.1.109l-.006.007-.005.009c-.069.106-.136.21-.2.321-.021.039-.041.079-.06.119-.024.13-.047.172-.055.162a1.71,1.71,0,0,0-.061.168c-.035.124-.054.252-.085.376,0,.044-.007.088-.009.133-.006.116-.006.232,0,.348v0c.008-.014.022.028.02.165a3.726,3.726,0,0,0,.1.372l.017.053.024.045c.048.094.106.181.162.269.045.042.1.128.132.157.134.136.452.307.063.082.034.02.064.048.1.07.086.056.171.113.258.167.235.145.477.277.721.406.648.341,1.311.652,1.977.956.85.387,1.709.757,2.568,1.123l0,0,.014.006.141.059.355.148.723.3q.744.307,1.491.609,2.168.877,4.35,1.721c.074.015.149.03.223.047a29.334,29.334,0,0,1,3.979,1.264c1.735.667,3.456,1.4,5.118,2.239a1.38,1.38,0,0,1-1.061,2.518l-.2-.072q-4.417-1.63-8.805-3.34l-.106-.025c-.094-.019-.191-.034-.285-.055l-.061-.011a4.393,4.393,0,0,0-.5-.021q-.126,0-.253.011c-.032,0-.1.011-.147.017-.133.024-.265.049-.395.084-.113.03-.224.069-.336.1l-.046.014a3.406,3.406,0,0,0-.406.217l-.074.043-.024.027c-.024.026-.051.052-.078.079a2.328,2.328,0,0,1-.194.37l-.011.022-.038.1a5.5,5.5,0,0,0-.221.79c-.005.028-.019.148-.032.219-.006.108-.016.215-.017.324s.006.242.012.364a.18.18,0,0,1,.021.154v.009c.03.139.074.273.115.409.026.053.058.12.065.132s.065.131.117.219a.607.607,0,0,1,.056.05c.044.042.084.09.128.132s.089.083.135.122l.08.046a3.534,3.534,0,0,0,.337.185c.08.039.162.074.243.11l.168.073.414.171q.586.241,1.175.476,1.46.587,2.925,1.162c1.467.579,2.947,1.135,4.4,1.748a1.422,1.422,0,0,1,.962,1.694A1.384,1.384,0,0,1,273,463.3c-1.7-.646-3.455-1.121-5.177-1.7-.942-.316-1.873-.668-2.838-.909-.268-.067-.538-.125-.81-.171l-.108-.017c-.122-.005-.244-.023-.367-.029s-.27-.009-.405-.005a1.649,1.649,0,0,0-.166.021.24.24,0,0,1-.154.009l-.077.016c-.039.009-.1.038-.165.061a.191.191,0,0,1-.126.034c-.03.016-.059.031-.088.049l-.061.04c-.065.073-.144.143-.211.214l-.028.028-.015.025c-.071.109-.141.218-.2.332-.028.052-.052.105-.08.157l-.024.046c-.056.183-.127.5-.141.56,0,.006,0,.01,0,.017,0,.063-.007.127-.009.19,0,.13.007.257.014.386v0c.013.055.03.118.031.12.032.135.075.265.118.4l0,.013,0,.005c.037.064.066.133.1.2.065.118.138.231.212.344l.026.04c.046.055.092.11.14.163.1.106.2.2.3.3.03.021.059.042.09.061.129.084.262.162.4.238.346.193.7.366,1.062.533q.321.149.646.289l.321.138.063.028.021.007q.708.294,1.423.571c1.54.6,3.108,1.13,4.643,1.744a1.418,1.418,0,0,1,.962,1.694,1.4,1.4,0,0,1-1.694.962c-2.446-.666-4.768-1.733-7.265-2.227l-.044,0c-.067,0-.132,0-.2,0h-.006l-.017,0c-.081.017-.163.03-.244.048a4.665,4.665,0,0,0-.531.15l-.07.026-.062.03c-.056.034-.117.061-.174.095-.032.019-.081.043-.129.07,0,0-.021.02-.071.062l-.072.068a1.1,1.1,0,0,1-.086.071c-.026.039-.052.086-.07.117s-.074.155-.089.181c-.018.054-.037.107-.053.161-.037.127-.061.256-.094.384-.056.218.012-.089,0-.085-.06.032-.025.476-.022.546,0,.012,0,.024,0,.036.01.051.021.122.021.121.02.086.05.168.073.253l0,.006a2.654,2.654,0,0,0,.241.412c.033.028.069.06.086.079.071.076.146.15.223.221s.139.119.208.179l0,0,.041.025c.213.135.42.273.639.4.851.481,1.739.894,2.633,1.287q.361.158.725.313l.294.125.231.1q.747.313,1.492.629a34.56,34.56,0,0,1,5.122,2.637,36.97,36.97,0,0,1,8.156,6.9,33.362,33.362,0,0,1,5.683,9.441,1,1,0,0,1,.072.366h20.471c-.339-1.267-.761-2.51-1.2-3.746a63.654,63.654,0,0,1-2.825-8.85" transform="translate(-189.274 -325.088)" fill="#fff"/>
    <path id="路径_5117" data-name="路径 5117" d="M435.146,440.085c.036.08.09.186.018.036l-.018-.036" transform="translate(-324.149 -327.828)" fill="#fff"/>
    <path id="路径_5118" data-name="路径 5118" d="M289.128,530.766c.022-.013.008-.027-.067-.01l-.076.016a.618.618,0,0,0,.143-.006" transform="translate(-215.27 -395.365)" fill="#fff"/>
    <path id="路径_5119" data-name="路径 5119" d="M300,477.853c-.452-1.282-.888-2.57-1.244-3.882-.158-.584-.3-1.172-.412-1.766q-.036-.191-.067-.383c-.009-.056-.017-.113-.026-.169-.025-.257-.055-.513-.066-.772a32.308,32.308,0,0,1,.3-4.493c.157-1.632.321-3.265.37-4.9a39.075,39.075,0,0,0-1.289-10.158c-.756-3.2-1.635-6.373-2.124-9.631l-.017-.114q-.013-.1-.026-.208-.038-.31-.07-.62-.065-.619-.1-1.241a23.607,23.607,0,0,1-.024-2.418c.057-1.318.269-2.621.295-3.943a15.2,15.2,0,0,0-.336-3.736,5.407,5.407,0,0,0-1.556-2.9,3.908,3.908,0,0,0-3.863-.68,5.641,5.641,0,0,0-3.19,3.042,15.407,15.407,0,0,0-.845,4.209c-.2,1.493-.37,2.992-.449,4.5-.034.646-.026,1.292-.051,1.938q-.015.385-.05.769c-.013.144-.03.287-.045.43,0,.014,0,.031,0,.048-.007.042-.014.084-.021.125a12.49,12.49,0,0,1-.387,1.73q-.058.191-.124.38c-.027.078-.057.154-.085.231l-.005.015c-.018.033-.121.266-.145.313-.069.136-.143.27-.223.4-.009.015-.082.116-.137.2-5.386-2.534-10.955-4.7-16.511-6.822-5.269-2.012-10.567-3.958-15.9-5.787-.721-.247-1.442-.492-2.166-.727a4.818,4.818,0,0,0-2.949-.25c-3.2.972-4.233,5.663-1.76,7.907a8.354,8.354,0,0,0,1.869,1.192c.856.436,1.733.832,2.612,1.22,1.659.731,3.335,1.426,5.016,2.1a5.411,5.411,0,0,0-1.612,3.759,4.839,4.839,0,0,0,.945,3.272,4.449,4.449,0,0,0-2.227,2.518,4.986,4.986,0,0,0,.3,4.135,5.1,5.1,0,0,0,1.174,1.452,4.671,4.671,0,0,0-.766.505,4.5,4.5,0,0,0-.967,5.316c.881,1.785,3,2.672,4.709,3.441.48.215.964.423,1.448.627l.818.345.368.154.329.139c.949.4,1.9.814,2.817,1.279a33.86,33.86,0,0,1,4.757,3c.185.136.369.275.553.414l.037.028.046.037.179.142q.579.459,1.138.942.978.845,1.889,1.764,1.061,1.072,2.016,2.243c.07.087.141.174.21.262l.191.245c.115.152.23.3.342.457q.433.593.836,1.205a30.776,30.776,0,0,1,1.571,2.672q.354.678.675,1.372.176.379.342.763l.089.212q.072.176.144.352a1.413,1.413,0,0,0,1.694.962,1.5,1.5,0,0,0,1.034-1.328,1,1,0,0,0-.072-.366,33.362,33.362,0,0,0-5.683-9.441,36.98,36.98,0,0,0-8.156-6.9,34.546,34.546,0,0,0-5.121-2.637c-.5-.211-.995-.42-1.492-.629l-.231-.1-.294-.125q-.364-.155-.725-.313c-.894-.393-1.782-.807-2.633-1.287-.22-.124-.427-.262-.639-.4l-.041-.026,0,0c-.069-.061-.14-.117-.208-.18s-.151-.144-.223-.221c-.017-.019-.053-.051-.086-.079a2.671,2.671,0,0,1-.241-.412l0-.006c-.023-.085-.053-.167-.073-.253,0,0-.01-.069-.021-.121,0-.012,0-.024,0-.036,0-.07-.038-.514.021-.546.007,0-.061.3,0,.085.033-.128.057-.257.094-.384.016-.054.035-.107.053-.161.015-.026.066-.144.089-.181s.044-.079.07-.117.068-.053.086-.071l.072-.068a.8.8,0,0,0,.07-.062c.048-.027.1-.051.129-.069.057-.033.118-.061.175-.095l.062-.029.07-.026a4.613,4.613,0,0,1,.531-.15c.081-.018.163-.031.245-.048l.017,0h.006c.066,0,.131-.005.2,0l.045,0c2.5.494,4.819,1.561,7.264,2.227a1.4,1.4,0,0,0,1.694-.962,1.419,1.419,0,0,0-.962-1.694c-1.535-.614-3.1-1.144-4.643-1.744q-.714-.279-1.423-.571l-.021-.007-.063-.028-.321-.138q-.324-.141-.645-.29c-.359-.167-.716-.34-1.062-.533-.135-.075-.268-.153-.4-.238l-.09-.061c-.1-.1-.2-.2-.3-.3-.048-.053-.094-.108-.14-.163l-.026-.041c-.074-.113-.146-.225-.212-.344-.036-.065-.065-.134-.1-.2l0-.005,0-.013c-.043-.132-.086-.262-.118-.4,0,0-.019-.065-.031-.12v0c-.007-.129-.017-.257-.014-.386,0-.063.007-.126.009-.19,0-.007,0-.011,0-.017.014-.063.085-.377.14-.559l.025-.046c.028-.052.052-.105.08-.157.062-.115.133-.223.2-.332l.015-.025.028-.028c.067-.071.146-.141.211-.214.02-.014.04-.028.061-.04s.058-.033.088-.048a.144.144,0,0,1-.021,0,.147.147,0,0,0,.028,0l.044-.024c.1-.055.109-.033.075-.006.062-.023.126-.052.165-.061l.077-.016a.24.24,0,0,1-.029-.006.224.224,0,0,0,.039,0l.076-.016c.075-.018.089,0,.067.01.061-.009.122-.02.166-.021.135,0,.27,0,.405.005s.245.024.367.029l.108.017c.272.046.542.1.81.171.966.24,1.9.592,2.839.908,1.722.577,3.476,1.052,5.177,1.7a1.384,1.384,0,0,0,1.694-.962,1.422,1.422,0,0,0-.962-1.695c-1.454-.613-2.933-1.168-4.4-1.748q-1.464-.578-2.925-1.162-.589-.236-1.175-.476l-.414-.171-.168-.072c-.082-.036-.163-.071-.243-.11a3.532,3.532,0,0,1-.337-.185c-.023-.015-.052-.03-.081-.046-.046-.039-.091-.08-.134-.122s-.084-.091-.129-.132a.541.541,0,0,0-.056-.05c-.052-.088-.1-.2-.117-.219s-.038-.079-.065-.132c-.041-.136-.085-.269-.115-.408v-.009c-.007,0-.016-.022-.02-.111v-.014a.14.14,0,0,0-.011-.041s.007.008.01.011c-.007-.121-.014-.242-.012-.364s.01-.216.017-.324c.013-.071.027-.191.032-.219a5.5,5.5,0,0,1,.221-.79l.038-.1.011-.022a2.331,2.331,0,0,0,.194-.37c.027-.027.054-.053.078-.079l.024-.027.074-.043a3.424,3.424,0,0,1,.406-.217l.046-.014c.112-.034.223-.072.336-.1.13-.034.262-.06.395-.084.045-.006.115-.014.147-.017.084-.006.168-.009.253-.01a4.489,4.489,0,0,1,.5.021l.061.011c.094.021.191.036.285.055l.106.025q4.387,1.711,8.805,3.34l.2.072a1.38,1.38,0,0,0,1.062-2.518c-1.662-.834-3.383-1.572-5.118-2.239a29.339,29.339,0,0,0-3.979-1.264c-.073-.017-.148-.032-.223-.047q-2.18-.849-4.35-1.721-.747-.3-1.491-.609l-.723-.3-.355-.148-.14-.059-.014-.006,0,0c-.86-.366-1.718-.735-2.568-1.123-.666-.3-1.33-.615-1.977-.956-.244-.128-.486-.261-.721-.406-.087-.054-.172-.111-.258-.168-.033-.022-.063-.05-.1-.069.388.224.07.054-.063-.082-.028-.028-.087-.115-.132-.157-.056-.088-.114-.175-.162-.269l-.024-.045-.017-.053a3.657,3.657,0,0,1-.1-.372c0,.02,0,.038,0,.062a.6.6,0,0,0-.005-.092l-.01-.046a.169.169,0,0,1,0-.09v0c-.006-.116-.005-.232,0-.348,0-.044.006-.088.009-.132.032-.125.05-.253.085-.377.016-.054.039-.111.061-.168a.172.172,0,0,1,.03-.112l.022-.043a.387.387,0,0,0,.01-.041c0,.013,0,.022-.006.034.02-.04.039-.08.06-.119.06-.111.128-.215.2-.321l.005-.009.006-.007q.048-.056.1-.109c.065-.069.14-.129.207-.2.034-.023.068-.046.1-.067.011-.007.08-.046.147-.083-.043.008-.054.005.027-.015a.421.421,0,0,1,.113-.051c.007.011-.007.021-.027.031.05-.011.1-.024.153-.039s.071-.007.106-.007.09,0,.134,0c-.01-.005-.019-.009-.029-.015a.383.383,0,0,0,.037.016h.052c.124,0,.128.039.069.039.1.023.222.036.311.063.2.059.392.122.587.185.592.191,1.182.39,1.771.591,1.832.624,3.658,1.268,5.48,1.921q7.555,2.7,15.029,5.631,1.957.77,3.9,1.563.965.393,1.928.794l.831.348.175.074.522.222q1.685.72,3.355,1.477.758.346,1.511.7a1.843,1.843,0,0,0,1.774.183,3.526,3.526,0,0,0,.9-.722,8.191,8.191,0,0,0,1.814-3.98A27.549,27.549,0,0,0,288,437.9c.038-.871.11-1.74.2-2.607q.067-.644.146-1.286.038-.311.079-.621l.032-.243q.01-.077.02-.154l0-.013,0-.011c0-.02.005-.041.008-.061l-.006.042c.1-.706.16-1.428.308-2.125a4.7,4.7,0,0,1,.144-.527c.023-.069.05-.137.075-.206-.112.316.01-.018.037-.073a5.046,5.046,0,0,1,.268-.478c.039-.061.081-.121.121-.181l.023-.036.062-.07a4.483,4.483,0,0,1,.335-.347c.056-.052.115-.1.173-.149.016-.011.031-.022.043-.029.149-.086.3-.171.449-.257l-.124.071a1.465,1.465,0,0,1,.176-.086c.1-.032.2-.053.3-.082l.056-.017c.067,0,.136,0,.193,0s.141.006.211.006c.029.009.143.039.232.064.033.02.067.039.1.058,0-.008-.007-.015,0-.02l.065.056c.122.068.1.065.042.039.015.015.1.087.161.154l.04.069c.025.044.055.085.081.129.066.11.124.225.18.341a1.455,1.455,0,0,0,.084.217q.071.207.128.419a8.789,8.789,0,0,1,.192.908c0,.013.006.029.01.045a1.55,1.55,0,0,1,.019.169q.027.249.045.5c.027.375.04.751.042,1.128,0,.686-.028,1.373-.086,2.056-.072.849-.187,1.691-.219,2.543a24.305,24.305,0,0,0,.063,2.763,73.681,73.681,0,0,0,2.273,11.513c.45,1.868.868,3.748,1.13,5.653l.007.057c.018.145.036.291.052.437q.036.332.063.665.062.762.078,1.526c.022.992-.009,1.985-.071,2.975-.119,1.9-.348,3.8-.5,5.7a18.774,18.774,0,0,0-.107,2.409,15.2,15.2,0,0,0,.284,2.159,63.606,63.606,0,0,0,2.825,8.85c.437,1.235.86,2.479,1.2,3.746.033.122.069.244.1.366a1.378,1.378,0,1,0,2.656-.732c-.642-2.542-1.627-4.99-2.5-7.459m-16.006-33.694h0c.043-.049.073-.08,0,0m-30.243,16.578a.365.365,0,0,1,.115-.089c-.014.01-.049.037-.115.089m3.456-3.282a.325.325,0,0,1-.1-.045.73.73,0,0,0,.1.045m-3.327-4.015c.023-.076.043-.129.055-.126a.579.579,0,0,1-.055.126m2.089-4.828a.434.434,0,0,1-.12-.09l.12.09m-.217-.183c-.022,0-.057-.05-.093-.109.024.029.1.109.093.109m-.265-.419c.018.055.026.086,0,0m-.023-.067a.438.438,0,0,0-.026-.049c.005,0,.015.021.026.049m-.122-1.3c.007-.133.006-.074,0,0m.3-1.078a.45.45,0,0,1,.018-.043.241.241,0,0,1-.018.043m.228-.425a.134.134,0,0,1,.01-.01l-.01.01m-9.407-8.771h0m.109-2.7a.261.261,0,0,1,.056-.072l-.056.072m45.023-5.242a.293.293,0,0,1,.078.028c0,.008-.039-.007-.078-.028m.369.312c.031.034.052.062.048.074l-.048-.074m.29.548.018.036c.072.15.018.044-.018-.036m3.657,27.849c-.008-.061-.018-.142,0,0" transform="translate(-181.254 -317.031)"/>
    <path id="路径_5120" data-name="路径 5120" d="M254.772,459.186l0,.007a1.177,1.177,0,0,1-.051.155c.008.009.031-.032.055-.163" transform="translate(-189.744 -342.057)"/>
    <path id="路径_5121" data-name="路径 5121" d="M258.239,455.489l-.054.013-.027.015a.477.477,0,0,0,.113-.035l-.032.007" transform="translate(-192.307 -339.297)"/>
    <path id="路径_5122" data-name="路径 5122" d="M427.858,437.146h0" transform="translate(-318.714 -325.639)"/>
    <path id="路径_5123" data-name="路径 5123" d="M254.1,463.845c0,.044.008.09.013.136l.007.03c0-.138-.012-.179-.02-.165" transform="translate(-189.286 -345.525)"/>
    <path id="路径_5124" data-name="路径 5124" d="M432.943,436.982l0,0-.04-.037-.011-.006-.052-.03a.309.309,0,0,0,.1.074" transform="translate(-322.429 -325.461)"/>
    <path id="路径_5125" data-name="路径 5125" d="M260.146,455.316h-.007a.3.3,0,0,0,.128.04.576.576,0,0,1-.12-.04" transform="translate(-193.783 -339.174)"/>
    <path id="路径_5126" data-name="路径 5126" d="M287.632,531.155a.442.442,0,0,1-.119.03l-.007,0a.191.191,0,0,0,.126-.034" transform="translate(-214.169 -395.668)"/>
    <path id="路径_5127" data-name="路径 5127" d="M290.419,511.035c0,.01,0,.02,0,.029.009.046.018.109.02.125a.179.179,0,0,0-.021-.154" transform="translate(-216.339 -380.68)"/>
    <path id="路径_5128" data-name="路径 5128" d="M289.1,530.819a.621.621,0,0,1-.143.006l-.01,0a.238.238,0,0,0,.153-.008" transform="translate(-215.241 -395.417)"/>
    <path id="路径_5129" data-name="路径 5129" d="M87.725,580.383l0,.011s0-.006,0-.009v0" transform="translate(-65.348 -432.339)"/>
    <path id="路径_5130" data-name="路径 5130" d="M17.689,408.927l-.025-.006-.12-.013a.345.345,0,0,0,.145.018" transform="translate(-13.069 -304.604)"/>
    <path id="路径_5131" data-name="路径 5131" d="M50.407,354.693l7.643-1.348,8.834-1.558,7.3-1.287,1.577-.278c-.024-.042-.045-.085-.07-.127-.079-.132-.165-.258-.253-.384l-.022-.027c-.032-.038-.064-.077-.1-.114a7.1,7.1,0,0,0-.613-.586l-.022-.013c-.057-.035-.111-.075-.168-.111-.127-.081-.258-.156-.391-.224-.049-.025-.1-.047-.148-.072-.135-.04-.266-.1-.4-.133s-.258-.06-.387-.088l-.053-.013c-.048,0-.1,0-.125,0-.134-.007-.268-.007-.4,0-.029,0-.077,0-.124,0a.583.583,0,0,1-.068.014l-3.43.6-13.5,2.38-4.119.726c-.087.015-.173.03-.26.046-.1.019-.205.04-.307.065s-.2.053-.293.085l-.137.04a3.22,3.22,0,0,0-.439.242c-.07.043-.138.091-.207.136a.524.524,0,0,1-.06.032,2.524,2.524,0,0,0-.444.441c-.033.036-.064.075-.1.112-.016.022-.1.128-.123.163a5.05,5.05,0,0,0-.31.525c-.036.07-.069.143-.1.214l-.008.023c-.076.234-.155.463-.208.7-.009.041-.026.095-.04.15.694-.114,1.391-.213,2.075-.334" transform="translate(-36.003 -259.474)" fill="#fff"/>
    <path id="路径_5132" data-name="路径 5132" d="M154.606,353.774l-.017-.02,0,0,.015.017" transform="translate(-115.156 -263.518)" fill="#fff"/>
    <path id="路径_5133" data-name="路径 5133" d="M49.343,370.911c.07-.15.026-.065,0,0" transform="translate(-36.757 -276.236)" fill="#fff"/>
    <path id="路径_5134" data-name="路径 5134" d="M154.412,353.515c-.074-.105-.059-.07-.014-.014l.02.024-.007-.01" transform="translate(-114.986 -263.289)" fill="#fff"/>
    <path id="路径_5135" data-name="路径 5135" d="M154.53,353.681l-.021-.025.022.027,0,0" transform="translate(-115.097 -263.446)"/>
    <path id="路径_5136" data-name="路径 5136" d="M51.994,386.349l1.95,11.062c.194.117.39.23.581.354a19.727,19.727,0,0,1,3.336,2.615,6.184,6.184,0,0,1,1.813,3.182,4.923,4.923,0,0,1-.63,3.454,4.239,4.239,0,0,1-.338.453,5.4,5.4,0,0,1,1.535,2.466,6.344,6.344,0,0,1,0,2.538l6.419-1.132,8.835-1.558,7.3-1.287,1.789-.316c-.243-1.333-.444-2.677-.679-4.007q-.983-5.574-1.966-11.148l-2.268-12.86q-.938-5.321-1.876-10.642l-.573-3.249c-.769.132-1.542.25-2.307.385l-7.644,1.348-8.834,1.558-7.3,1.287-1.813.32c.24,1.343.47,2.688.706,4.03l1.966,11.148" transform="translate(-36.741 -272.845)" fill="#ffdc00"/>
    <path id="路径_5137" data-name="路径 5137" d="M180.6,553.884c-.061.02-.036.013,0,0" transform="translate(-134.507 -412.599)" fill="#fff"/>
    <path id="路径_5138" data-name="路径 5138" d="M108.373,541.295c-.729.124-1.461.236-2.186.364l-7.644,1.348-8.835,1.558-7.3,1.287-.867.153a3.511,3.511,0,0,1-.8.242l.019.041a5.5,5.5,0,0,0,.347.6c.06.09.3.363.1.145.082.089.157.185.24.274a6.318,6.318,0,0,0,.495.463,1.462,1.462,0,0,1,.12.084q.147.1.3.185c.1.058.208.108.311.162l.027.016.059.018a7.182,7.182,0,0,0,.721.195l.015,0h.015c.117.006.234.015.352.016s.275-.029.405-.017h0l.009,0,.146-.026.65-.115,6.185-1.09,8.29-1.462,5.589-.985c.137-.024.274-.047.411-.073a5.739,5.739,0,0,0,.666-.17l.074-.023.017-.007c.1-.052.209-.1.311-.161s.2-.118.3-.184c.029-.019.056-.039.084-.06.172-.178.366-.331.529-.52.028-.032.053-.065.071-.091.047-.072.036-.05,0,0l-.035.054c.064-.1.136-.194.2-.294a5.467,5.467,0,0,0,.31-.578c.009-.027.054-.136.079-.21q.05-.149.092-.3.056-.205.1-.414l.019-.1,0-.014c.008-.106.015-.212.019-.318" transform="translate(-60.146 -403.221)" fill="#fff"/>
    <path id="路径_5139" data-name="路径 5139" d="M186.006,549.679c.036-.05.047-.072,0,0" transform="translate(-138.559 -409.432)"/>
    <path id="路径_5140" data-name="路径 5140" d="M198.189,597.071a.348.348,0,0,0,.022-.159l0,.026c0,.041-.013.106-.017.134" transform="translate(-147.635 -444.651)"/>
    <path id="路径_5141" data-name="路径 5141" d="M193.109,665.036a1.575,1.575,0,0,0,1.076-.518h-2.123a1.226,1.226,0,0,0,1.046.518" transform="translate(-143.071 -495.012)"/>
    <path id="路径_5142" data-name="路径 5142" d="M55.787,383.881c-.034-.258-.069-.516-.1-.774l-.014-.1-.039-.291q-.082-.615-.16-1.23c-.1-.788-.2-1.576-.284-2.365a57.293,57.293,0,0,1-.376-9.375q.067-1.229.209-2.453c.011-.1.024-.194.035-.291l.015-.119q.032-.233.068-.465.1-.628.213-1.252a15.343,15.343,0,0,0,.544-4.629,5.045,5.045,0,0,0-2.381-3.859,5.615,5.615,0,0,0-4.14-.623,6.453,6.453,0,0,0-3.473,2.257c-.079.1-.15.2-.224.3l-1.789-10.149c-.317-1.8-.564-3.624-.953-5.408-.005-.024-.009-.049-.013-.074l-.006-.027a6.835,6.835,0,0,0-2.541-4.107,5.959,5.959,0,0,0-4.7-1.136L26.112,339.4,14.67,341.417A6.137,6.137,0,0,0,11.7,342.8a6.681,6.681,0,0,0-2.086,5.914h0v.008c.014.12.029.24.048.359,0,.022.01.042.015.064.21,1.451.506,2.893.76,4.335l.363,2.06a32.6,32.6,0,0,0-3.319-1.655,10.081,10.081,0,0,0-2.784-.815,4.017,4.017,0,0,0-3.128,1.054A5.034,5.034,0,0,0,.815,360.5a11.756,11.756,0,0,0,2.643,2.481c1.009.751,2.051,1.457,3.129,2.1.869.522,1.758,1.005,2.652,1.481a4.5,4.5,0,0,0-2.186,1.413,5.812,5.812,0,0,0-.7,6.82,6.01,6.01,0,0,0,2.637,2.235,5.309,5.309,0,0,0,.232,4.437,6.6,6.6,0,0,0,1.487,1.842,6.689,6.689,0,0,0-1.369,1.765,4.145,4.145,0,0,0-.105,3.73c.937,2,3.381,2.875,5.23,3.77,1.036.5,2.067,1.063,3.137,1.5a6.759,6.759,0,0,0,3.53,4.782,6.3,6.3,0,0,0,1.162.417,1.541,1.541,0,0,0,.082.265.121.121,0,0,1-.006-.021.208.208,0,0,0,.006.023c.014.035.026.069.043.1-.016-.033-.031-.068-.04-.094.013.053.04.11.055.159.044.146.079.295.111.443.08.37.137.745.192,1.12v.007l.006.051c.012.095.023.189.034.284q.038.324.071.648.053.516.093,1.035c.12,1.542.142,3.093.158,4.639.033,3.334-.031,6.669-.133,10-.022.734-.046,1.469-.076,2.2a1.388,1.388,0,0,0,1.377,1.377,1.423,1.423,0,0,0,1.054-.518h0a1.432,1.432,0,0,0,.324-.86c.084-2.086.137-4.173.175-6.259.062-3.448.137-6.926-.108-10.369-.062-.87-.154-1.738-.27-2.6a15.474,15.474,0,0,0-.264-1.6l5.51-.972,8.6-1.517,6.248-1.1a6.947,6.947,0,0,0,2.313-.742,6.531,6.531,0,0,0,3.122-6.022,12.868,12.868,0,0,0-.194-1.381L50,383.113l-1.876-10.641-1.285-7.288a1.108,1.108,0,0,0,0-.148,11.208,11.208,0,0,1,.017-2.108c0,.01.052-.318.061-.364q.052-.265.122-.526.061-.228.136-.451c.029-.085.065-.168.091-.254.022-.055.027-.07.019-.053l.024-.054a6.747,6.747,0,0,1,.46-.833c.022-.034.126-.179.165-.234l.065-.079c.062-.072.124-.143.19-.212q.155-.166.324-.32c.056-.051.114-.1.171-.149l.023-.019.1-.074q.093-.064.188-.124.215-.135.441-.248c.047-.023.1-.045.144-.067l.044-.014c.126-.04.249-.082.377-.116.073-.019.146-.036.22-.052l.073-.014.09-.01c.088-.006.177-.01.265-.01.022,0,.223,0,.341.008.064.012.128.022.192.036a4.153,4.153,0,0,1,.411.109l.151.051.035.011.026.014c.109.057.219.112.324.176.06.036.119.074.177.113.017.011.056.043.087.067l.045.041q.077.07.15.145c.036.038.071.077.107.115l.029.029.013.022c.068.108.136.214.195.327.009.016.04.087.061.133s.037.106.042.122c.045.14.077.281.11.424l.014.058c.012.108.021.217.026.325a7.093,7.093,0,0,1-.029.965c0,.054-.034.276-.035.3-.03.191-.061.381-.1.571-.133.714-.292,1.422-.416,2.138a41.18,41.18,0,0,0-.549,4.866,56.881,56.881,0,0,0,.357,9.09c.172,1.589.381,3.173.594,4.757,0,.035.047.359.054.406.019.147.037.294.053.441q.055.5.088,1.01.067,1.012.051,2.028t-.115,2.027q-.025.253-.055.5c-.009.077-.019.154-.029.23l0,.033c-.05.335-.1.669-.165,1a24.907,24.907,0,0,1-1.062,3.915q-.162.447-.341.888l-.052.127-.055.129q-.114.261-.235.52-.428.919-.934,1.8t-1.088,1.713a7.265,7.265,0,0,0-.9,1.5,8.6,8.6,0,0,0-.475,3.01,30.441,30.441,0,0,0,.16,3.238c.183,2.052.234,4.1.352,6.159q.156,2.744.382,5.483l.027.322a1.67,1.67,0,0,0,.331.86h2.123a1.141,1.141,0,0,0,.3-.86q-.181-2.155-.317-4.314c-.143-2.206-.15-4.425-.349-6.626-.1-1.082-.206-2.164-.243-3.25-.019-.548-.02-1.1.015-1.646q.012-.188.031-.376l0-.014c-.005.008-.006-.005.005-.071l.012-.063a.128.128,0,0,0,0-.035s0,.007,0,.01c.036-.207.076-.414.133-.617.029-.1.062-.2.1-.3l0-.008,0-.007a5.342,5.342,0,0,1,.385-.59q.637-.87,1.191-1.8a26.136,26.136,0,0,0,3.6-12.387,24.863,24.863,0,0,0-.2-4.175m-43.2-37.7c.026-.065.07-.15,0,0m-.218.729c.054-.24.133-.47.208-.7l.008-.023c.033-.072.066-.144.1-.214a5.145,5.145,0,0,1,.31-.525c.023-.034.108-.141.123-.162.032-.038.062-.076.1-.113a2.517,2.517,0,0,1,.444-.441.567.567,0,0,0,.06-.032c.07-.045.137-.093.208-.136a3.231,3.231,0,0,1,.439-.242c.049-.014.112-.031.137-.04q.145-.047.292-.085c.1-.026.2-.046.307-.065l.26-.046,4.119-.726,13.5-2.38,3.43-.6a.588.588,0,0,0,.068-.014c.047,0,.095,0,.123,0q.2-.009.4,0c.027,0,.076,0,.125,0l.053.013c.13.028.259.053.387.088s.267.092.4.132c.049.025.1.047.148.072.134.069.265.143.391.224.057.036.111.077.168.112l.022.013a7.072,7.072,0,0,1,.613.586c.033.037.065.076.1.114-.045-.056-.06-.091.014.014l.007.01.017.02-.015-.017c.088.126.174.252.253.384.025.041.046.085.07.127l-1.577.278-7.3,1.287-8.834,1.558L14.4,346.722c-.684.121-1.382.22-2.075.334.014-.055.031-.108.04-.149M4.2,355.786a1.1,1.1,0,0,1-.128.025.2.2,0,0,1,.128-.025M2.771,357.55a.162.162,0,0,1-.006.059c0-.031.006-.059.006-.059m6.438,5.87c-.939-.522-1.859-1.077-2.752-1.675q-.752-.5-1.479-1.043l-.262-.195-.192-.147-.153-.123q-.178-.145-.351-.3c-.172-.151-.34-.307-.5-.471q-.118-.121-.23-.248c-.048-.054-.14-.183-.151-.194-.1-.165-.2-.331-.3-.5-.007-.02-.015-.04-.021-.06s-.049-.231-.074-.312c0-.044,0-.087,0-.131,0-.106.008-.212.017-.318l.006-.059c.027-.115.044-.232.073-.347.025-.1.053-.2.084-.295.015-.045.109-.262.1-.257l.053-.1c.054-.1.116-.192.174-.289l.012-.022h0c.063-.069.124-.139.191-.2.026-.025.057-.049.083-.075.078-.046.156-.1.231-.145l.021-.015c.089-.028.176-.057.266-.079.047-.011.1-.016.144-.029l.026-.008c.088,0,.189.016.234.018l.022,0c-.012-.007.013-.01.112.01l.008,0a.266.266,0,0,0,.065,0,.342.342,0,0,1-.039,0c.163.034.325.07.485.115a11.2,11.2,0,0,1,1.15.4l.136.055,0,0c.111.05.223.1.333.148q.337.153.671.316c.459.224.912.46,1.361.7.757.41,1.5.842,2.238,1.287a1.265,1.265,0,0,0,.409.15l.908,5.147.184,1.043c-1.1-.591-2.2-1.163-3.291-1.769m2.109,11.309c-.179,0-.354,0-.532,0H10.76l-.028-.007c-.1-.026-.206-.044-.309-.073s-.2-.064-.3-.1l-.008,0a5.082,5.082,0,0,1-.473-.255c-.076-.047-.148-.1-.222-.148l-.025-.016-.033-.032c-.155-.149-.313-.289-.455-.451l-.047-.056c-.008-.015-.1-.144-.124-.176-.1-.15-.176-.307-.262-.463l-.018-.032-.009-.03c-.021-.068-.046-.134-.067-.2q-.047-.153-.08-.309-.023-.1-.039-.21l.022.154c-.08-.163,0-.491.009-.667,0-.006,0-.01,0-.015L8.3,371.6c.029-.12.051-.242.084-.361a4.961,4.961,0,0,1,.166-.5c.017-.034.058-.122.074-.155q.1-.193.209-.378.08-.131.166-.257c.018-.026.063-.081.09-.116.086-.094.176-.183.268-.274l.005-.005.011-.006c.067-.04.132-.086.2-.125s.141-.073.209-.112l.03-.018.041-.013c.173-.055.342-.111.519-.151.065-.015.131-.025.2-.039l.022-.005H10.6c.168-.01.334-.024.5-.023q.151,0,.3.01c.031,0,.083,0,.129,0a3.086,3.086,0,0,1,.483.115c.094.026.185.06.278.087l.028.008c.165.084.322.174.478.273l.017.01c.009.012.016.021.031.039.042.049.088.1.133.142.021.03.1.133.123.166.057.092.1.19.156.283l.023.039.01.032c.034.1.073.207.1.313a6.838,6.838,0,0,1,.168.7q.026.134.048.269c.008.049.015.1.023.149l0,.016a3.72,3.72,0,0,1,.019.584c0,.021,0,.049,0,.077-.011.08-.035.165-.052.235a4.088,4.088,0,0,1-.123.4c-.015.035-.036.086-.05.115q-.084.166-.182.325c-.047.075-.1.146-.147.222l0,.008-.009.009c-.12.132-.237.265-.368.386-.051.047-.1.091-.157.135-.031.023-.08.06-.108.078a5.418,5.418,0,0,1-.542.3l-.03.008c-.1.028-.2.066-.3.092-.069.017-.139.029-.207.046l-.024.006h-.033m.316,3.172-.044.058c0-.006.016-.03.044-.058m-.255,1.471,0-.011c0-.106-.018-.215-.02-.322s0-.2.006-.3c0-.036.006-.072.009-.108l0-.016c.024-.094.06-.5.157-.553l-.066.156q.039-.084.083-.165t.094-.157l.017-.025c.037-.036.079-.075.1-.1s.064-.042.1-.06a1.439,1.439,0,0,0,.669-1.053,1.85,1.85,0,0,0,.6.395l.093.038.065.029c.121.055.242.108.362.163q.362.167.718.347.714.362,1.4.774.632.38,1.239.8c.222.154.438.314.656.474l.078.057.072.057c.106.084.212.169.317.255a12.649,12.649,0,0,1,1.082.972c.139.143.269.293.4.444l.04.045.034.056c.085.135.176.264.255.4.056.1.107.2.156.3l.007.021a2.426,2.426,0,0,1,.167.582.907.907,0,0,0-.007.112c0,.1,0,.206,0,.309a.891.891,0,0,1-.017.206l.04-.106c-.024.065-.072.2-.084.246-.026.1-.061.194-.089.292l-.006.023-.01.018c-.054.094-.146.375-.251.421l.1-.126c-.04.049-.082.1-.126.142-.015.016-.047.053-.081.09s-.1.064-.149.093l-.024.012c-.024.008-.047.017-.071.023l-.07.026-.028,0c-.08-.006-.162,0-.243,0-.03-.01-.24-.041-.259-.046-.134-.034-.266-.075-.4-.12-.113-.039-.224-.082-.334-.127-.051-.023-.246-.108-.243-.107q-.4-.177-.786-.362c-1.029-.487-2.042-1.012-3.028-1.58-.37-.213-.735-.436-1.084-.682-.023-.016-.172-.127-.187-.136l-.092-.074a6.462,6.462,0,0,1-.594-.56c-.059-.063-.114-.129-.17-.2.029.026-.165-.229-.191-.269q-.064-.1-.123-.206t-.113-.214q-.1-.205.021.063a1.8,1.8,0,0,1-.191-.667m8.713,2.885c-.024-.062-.048-.141,0,0m-.458,2.333.1-.077a.756.756,0,0,1-.07.068l-.026.008m.024-.007a.114.114,0,0,1-.048.027l.016-.012.033-.014m.69,7.213c-.021,0,.019-.039.06-.076-.024.04-.048.076-.06.076m.076-.1-.042.03.042-.031h0m.071-.052c.071-.051.045-.03,0,0m.083-.238c-.035.068-.067.136-.106.2l-.042.077-.007,0c-.037.019-.2.083-.205.093l-.153.041a1.044,1.044,0,0,1-.117.017c-.1,0-.2,0-.3,0l-.057,0c-.069-.013-.138-.026-.206-.042a5.78,5.78,0,0,1-.671-.214l-.089-.032-.1-.051c-.106-.051-.214-.1-.321-.151-.514-.246-1.026-.5-1.538-.745-.981-.475-1.972-.934-2.943-1.43a11.094,11.094,0,0,1-1-.566c-.076-.049-.152-.1-.226-.152-.03-.021-.141-.112-.167-.132a4.652,4.652,0,0,1-.361-.339c-.024-.026-.089-.109-.119-.145-.042-.061-.084-.121-.121-.185a1.361,1.361,0,0,1-.1-.186c-.011-.07-.026-.155-.036-.189l-.005-.018c0-.085-.005-.169,0-.254,0-.019.02-.172.032-.22.018-.069.043-.135.066-.2.012-.018.077-.174.094-.207.075-.139.165-.266.247-.4.007-.012.023-.034.038-.055.089-.111.182-.219.278-.324a9.4,9.4,0,0,1,.709-.681c.662.366,1.336.7,1.976,1.014a11.451,11.451,0,0,0,4.034,1.484c.091.007.181.01.271.009.153.138.305.277.452.421s.293.292.431.446c.06.067.118.137.176.206,0,.008.128.175.139.191.068.1.132.207.191.314l.057.108c.033.069.048.1.052.1.013.069.021.14.03.179,0,.061.009.122.012.183a5.445,5.445,0,0,1-.011.6c-.005.073-.018.148-.021.222-.036.188-.07.375-.119.56-.039.15-.092.3-.138.444l0,.007m.187-2.347a.252.252,0,0,1,.059.143c-.006-.018-.024-.061-.059-.143M46.1,392.787h0m2.131-3.211c0,.106-.011.211-.019.318,0,0,0,.009,0,.014l-.019.1q-.04.209-.1.414-.042.152-.092.3c-.025.073-.07.183-.079.21a5.465,5.465,0,0,1-.31.578c-.063.1-.136.194-.2.294l.035-.054c-.019.026-.043.059-.071.091-.164.189-.357.342-.529.52-.028.02-.056.041-.084.06q-.144.1-.3.184c-.1.058-.206.109-.31.161l-.017.007-.074.023a5.763,5.763,0,0,1-.666.17c-.137.025-.274.048-.41.073l-5.589.985-8.29,1.462-6.185,1.09-.65.115-.146.026-.01,0h0c-.131-.012-.273.018-.406.017-.118,0-.234-.01-.351-.016h-.015l-.015,0a7.218,7.218,0,0,1-.72-.195l-.059-.018-.027-.016c-.1-.055-.209-.1-.311-.163s-.2-.12-.3-.185c-.039-.026-.079-.062-.12-.084a6.289,6.289,0,0,1-.495-.463c-.083-.089-.158-.185-.24-.274.2.218-.036-.055-.1-.145a5.534,5.534,0,0,1-.347-.6l-.019-.041a3.507,3.507,0,0,0,.8-.242l.867-.153,7.3-1.287,8.835-1.558,7.644-1.348c.725-.128,1.457-.24,2.186-.364m-1.066-6.746c.234,1.331.436,2.675.679,4.007l-1.789.316-7.3,1.287L29.916,390,23.5,391.13a6.353,6.353,0,0,0,0-2.538,5.4,5.4,0,0,0-1.535-2.466,4.235,4.235,0,0,0,.337-.453,4.923,4.923,0,0,0,.63-3.454,6.184,6.184,0,0,0-1.813-3.182,19.727,19.727,0,0,0-3.336-2.615c-.191-.123-.387-.237-.581-.354l-1.95-11.062q-.983-5.574-1.966-11.148c-.237-1.343-.467-2.688-.707-4.03l1.813-.32,7.3-1.287,8.834-1.558,7.643-1.348c.765-.135,1.538-.253,2.307-.385l.573,3.249,1.876,10.642,2.268,12.86,1.966,11.148m3.832-24.172a.19.19,0,0,1,.076.011.563.563,0,0,1-.076-.011m2.061,31.623c.009-.063.019-.13,0,0m2.636-7.119v0" transform="translate(0 -251.502)"/>
    <path id="路径_5143" data-name="路径 5143" d="M50.488,528.688c.513.248,1.025.5,1.538.745.106.051.214.1.321.151l.1.051.089.032a5.761,5.761,0,0,0,.671.214c.068.016.137.029.206.042l.057,0c.1,0,.2.006.3,0a1.039,1.039,0,0,0,.117-.017c.051-.013.1-.027.153-.041.008-.01.168-.074.205-.093l.007,0c.02-.035.037-.068.042-.076.039-.066.071-.135.106-.2l0-.007c.046-.148.1-.294.138-.444.049-.185.083-.372.119-.56,0-.073.015-.149.02-.222a5.386,5.386,0,0,0,.011-.6c0-.061-.008-.122-.012-.183-.009-.039-.017-.11-.031-.179,0,0-.019-.034-.051-.1l-.057-.108q-.089-.161-.191-.314c-.011-.017-.137-.183-.139-.191-.058-.069-.115-.139-.176-.206-.138-.154-.283-.3-.431-.446s-.3-.282-.452-.42c-.09,0-.18,0-.271-.009a11.449,11.449,0,0,1-4.034-1.484c-.64-.317-1.314-.648-1.976-1.014a9.345,9.345,0,0,0-.709.681q-.144.157-.278.324c-.015.021-.031.043-.038.055-.083.133-.172.261-.247.4-.018.032-.083.188-.094.207-.023.067-.048.133-.066.2-.012.047-.028.2-.032.22,0,.084,0,.169,0,.254l.006.018c.01.034.025.119.036.189a1.31,1.31,0,0,0,.1.186c.037.065.08.124.121.185.03.036.1.12.119.145a4.651,4.651,0,0,0,.361.339c.026.02.137.111.167.132.074.052.15.1.226.152a11.1,11.1,0,0,0,1,.567c.971.5,1.962.955,2.943,1.43" transform="translate(-33.822 -389.596)" fill="#fff"/>
    <path id="路径_5144" data-name="路径 5144" d="M81.407,539.257c.035.082.053.125.059.143a.252.252,0,0,0-.059-.143" transform="translate(-60.642 -401.703)" fill="#fff"/>
    <path id="路径_5145" data-name="路径 5145" d="M80.347,549.3c.045-.03.071-.051,0,0" transform="translate(-59.852 -409.163)" fill="#fff"/>
    <path id="路径_5146" data-name="路径 5146" d="M79.755,549.777c.012,0,.036-.036.06-.076-.04.037-.08.077-.06.076" transform="translate(-59.407 -409.483)" fill="#fff"/>
    <path id="路径_5147" data-name="路径 5147" d="M79.946,549.593h0l-.042.031.042-.03" transform="translate(-59.522 -409.402)" fill="#fff"/>
    <path id="路径_5148" data-name="路径 5148" d="M44.822,494.2c.039.07.08.138.123.206.026.04.219.3.191.269.056.066.111.132.17.2a6.436,6.436,0,0,0,.595.56l.092.074c.016.009.164.12.187.136.349.246.714.469,1.084.682.986.569,2,1.093,3.028,1.58q.391.185.786.362s.192.083.243.107c.11.045.221.089.334.128.131.045.263.086.4.12.019,0,.229.036.259.046.081,0,.162,0,.243,0l.029,0,.07-.026c.024-.007.047-.016.071-.024l.024-.012c.051-.029.1-.06.149-.093s.066-.074.081-.09c.044-.046.086-.093.126-.142l-.1.127c.105-.046.2-.326.251-.421l.011-.018.006-.024c.028-.1.064-.193.089-.292.012-.048.06-.181.084-.246l-.04.107a.89.89,0,0,0,.017-.206q.009-.155,0-.309a.906.906,0,0,1,.007-.112,2.443,2.443,0,0,0-.167-.582l-.007-.021c-.05-.1-.1-.2-.156-.3-.079-.139-.17-.268-.255-.4l-.035-.056-.039-.045c-.131-.151-.261-.3-.4-.443a12.613,12.613,0,0,0-1.082-.972c-.105-.086-.211-.17-.317-.255l-.072-.058-.078-.057c-.218-.159-.435-.32-.656-.474q-.606-.422-1.239-.8-.686-.412-1.4-.774-.356-.18-.718-.347c-.12-.055-.242-.109-.362-.163l-.065-.029-.093-.038a1.851,1.851,0,0,1-.6-.394,1.438,1.438,0,0,1-.669,1.053c-.033.019-.065.04-.1.06s-.063.058-.1.095l-.017.025q-.05.077-.094.157t-.084.165l.066-.156c-.1.056-.134.459-.157.553l0,.016c0,.036-.007.072-.009.108-.006.1-.008.2-.007.3s.019.215.02.321l0,.011a1.8,1.8,0,0,0,.191.667q-.117-.268-.021-.062c.036.072.073.144.113.214" transform="translate(-33.161 -365.515)" fill="#fff"/>
    <path id="路径_5149" data-name="路径 5149" d="M45.432,495.582l.044-.058c-.027.028-.047.052-.044.058" transform="translate(-33.843 -369.125)" fill="#fff"/>
    <path id="路径_5150" data-name="路径 5150" d="M78.685,512.372c-.048-.141-.024-.062,0,0" transform="translate(-58.593 -381.617)" fill="#fff"/>
    <path id="路径_5151" data-name="路径 5151" d="M77.067,521.447l-.1.077.026-.009a.674.674,0,0,0,.071-.068" transform="translate(-57.337 -388.436)" fill="#fff"/>
    <path id="路径_5152" data-name="路径 5152" d="M76.924,521.72l-.033.014-.016.012a.111.111,0,0,0,.048-.027" transform="translate(-57.266 -388.639)" fill="#fff"/>
    <path id="路径_5153" data-name="路径 5153" d="M83.811,220.511v10.773a1.377,1.377,0,1,0,2.755,0V220.511a1.377,1.377,0,1,0-2.755,0" transform="translate(-62.432 -163.236)" fill="#ffdc00"/>
    <path id="路径_5154" data-name="路径 5154" d="M18.864,240.293l4.933,7.684.694,1.082a1.378,1.378,0,0,0,2.379-1.39l-4.933-7.684-.694-1.082a1.378,1.378,0,0,0-2.379,1.39" transform="translate(-13.909 -177.453)" fill="#ffdc00"/>
    <path id="路径_5155" data-name="路径 5155" d="M132.692,238.946l-4.933,7.684-.694,1.082a1.389,1.389,0,0,0,.494,1.885,1.407,1.407,0,0,0,1.885-.494l4.933-7.684.695-1.082a1.389,1.389,0,0,0-.494-1.885,1.408,1.408,0,0,0-1.885.494" transform="translate(-94.514 -177.496)" fill="#ffdc00"/>
  </g>
</svg>
