<svg xmlns="http://www.w3.org/2000/svg" width="318.479" height="295" viewBox="1090 5602.95 318.479 295"><g data-name="CompositeLayer"><path d="M1109.198 5750.4a147.5 147.5 0 1 1 0 .1z" fill="#e8f7fc" fill-rule="evenodd" data-name="楕円形 200"/><g data-name="グループ 2815"><g data-name="グループ 2584"><g data-name="グループ 2583" transform="translate(1090 5629.322)" clip-path="url(&quot;#a&quot;)"><path d="M299.692 194.864c-1.83.21-2.525-1.452-2.121-2.86h-.821c.059 1.216-.689 2.48-2.256 2.48h-31.39c-1.448 0-2.194-1.075-2.256-2.196h-3.064c.4.79.793 1.553 1.196 2.244 1.936 3.326 3.981 7.31.293 10.23-.76.601-1.53.985-2.294 1.2h18.382c.56 0 1.12.003 1.678 0 .545-.005 4.638-.072 4.031.106 1.338-.393 2.928-1.667 4.167-2.324l5.774-3.062 6.293-3.336c.898-.476 1.755-.327 2.405.125l3.019-2.903.514-.905c-.925.618-2.083 1.032-3.55 1.201" fill="#fff" fill-rule="evenodd" data-name="パス 5257"/><path d="M210.648 191.895c-2.5-2.65-5.142-5.576-8.087-7.73-3.924-2.871-8.37-2.272-12.637-.65-8.92 3.39-16.428 9.997-26.318 10.208a2.26 2.26 0 0 1-1.147-.268 1748.45 1748.45 0 0 0 2.187 10.414l25.279-4.32c1.358-.233 2.807-.643 4.187-.717 2.475-.132 4.27 1.737 5.708 3.616a21.962 21.962 0 0 1 2.222 3.613c.447-.343.899-.674 1.356-.987-.874-1.014-1.004-2.698.496-3.548 3.391-1.922 5.753-4.337 8.098-7.432.398-.525.732-1.085 1.046-1.657-.755.317-1.65.242-2.39-.542m-2.273 2.335c-.7 3.434-3.821 4.64-6.723 5.805-2.463.99-3.693-2.383-2.09-3.977.224-.222.502-.412.842-.548 1.088-.437 5.607-2.787 2.378-3.704-1.474-.419-4.191.756-5.617 1.14l-.21.063c-2.35.65-4.598 1.54-6.882 2.396-2.398.898-3.649-2.319-2.284-3.923l3.8-4.466c1.444-1.697 3.608-.336 3.878 1.412 2.501-.806 5.059-1.39 7.542-1.322 3.544.098 6.058 3.728 5.366 7.124" fill="#fff" fill-rule="evenodd" data-name="パス 5258"/><path d="M194.914 203.43c.318.15.545-.075 0 0" fill="#78c8e6" fill-rule="evenodd" data-name="パス 5259"/><path d="M255.447 197.802c-.946-1.699-2.054-3.304-2.987-5.01l-.272-.504h-.669.669c-1.476-2.728-3.796-6.94-7.02-3.438-1.328 1.44-3.286.475-3.923-1.035-.715-1.697-3.697-.267-5.21 1.035-1.211 1.042-2.775.825-3.685-.475-1.508-2.152-3.516-1.67-5.066.095-1.097 1.25-2.845.643-3.686-.476-1.184-1.575-3.198.08-4.045 1.98-1.08 2.421-2.084 4.648-3.697 6.772-2.763 3.64-5.599 6.568-9.593 8.832-1.13.64-2.207.257-2.865-.505-.458.313-.91.644-1.356.987 3.225 6.523 3.353 14.567.93 21.337 2.314-.486 4.4-1.489 6.256-3.14-1.123-1.15-1.08-3.444.934-3.944 8.771-2.175 17.002-5.14 23.22-11.947 3.982-4.36 7.03-10.266 11.505-14.1 4.857-4.162 6.13 5.296 9.404 6.686 3.309 1.404 2.005-1.623 1.156-3.15" fill="#fff" fill-rule="evenodd" data-name="パス 5260"/><path d="M195.435 177.293a2.723 2.723 0 0 1-1.49-.744l-.169.899.18-.029c.501-.069.994-.109 1.479-.126" fill="#78c8e6" fill-rule="evenodd" data-name="パス 5261"/><path d="M247.503 205.961h6.577c-1.522-.418-2.933-1.45-4.09-2.828-1.021-1.218-2.266-2.612-3.141-4.035-2.522 2.946-4.763 6.138-7.21 9.15h5.603c.025-1.153.777-2.287 2.261-2.287" fill="#fff" fill-rule="evenodd" data-name="パス 5262"/><path d="M159.463 22.352c-1.009.555-3.485 2.691-4.248 1.423-11.477-19.063-40.222-26.052-56.897-9.77-4.02 3.926-7.784 8.622-9.682 13.979-2.118 5.978-.092 10.265 1.72 15.984 2.011 6.347 3.579 12.997 4.275 19.652 1.988.667 3.96 1.382 5.927 2.11 3.408-7.23 7.37-15.885 16.631-13.455.465.122.813.346 1.077.622-.103-2.81.401-5.61 1.582-7.98 2.766-5.546 9.159-6.34 12.597-2.182 4.026-3.173 7.408-7.039 10.083-11.417 1.574-2.576 5.632-.215 4.053 2.37-.115.187-.24.366-.356.551 3.769-.97 6.654-3.284 9.496-6.715 1.227-1.481 3.033.86 3.676 2.24.108-.08.452-.65.782-1.198a2.84 2.84 0 0 0 .328-2.148c-.332-1.354-.625-3.266-1.044-4.066" fill="#f6df6d" fill-rule="evenodd" data-name="パス 5263"/><path d="M160.184 28.884a8.849 8.849 0 0 1-.588.484c.367.79.14.634-.556 1.475-2.399 2.896-4.99 5.116-7.945 6.579.423-.006.858.084 1.268.269 2 .904 4.024 1.64 5.684 3.063.75-2.075 1.353-4.18 1.43-6.49.045-1.344 1-2.086 2.038-2.234-.35-1.475-.682-1.756-1.331-3.146" fill="#fff" fill-rule="evenodd" data-name="パス 5264"/><path d="M156.98 62.326c-.766-1.786-1.382-3.62-1.744-5.532-.725-3.829-.38-7.377.92-11.042.054-.153.112-.302.168-.454a2.294 2.294 0 0 1-.936-.604c-1.44-1.507-3.54-2.111-5.394-2.95-1.16-.526-1.43-2.206-.842-3.211.085-.144.18-.273.283-.388-2.119.807-4.426 1.249-6.98 1.297a49.933 49.933 0 0 1-8.39 7.938 2.323 2.323 0 0 1-.607.325c-1.128.964-3.322.866-3.992-.994-1.083-3.011-3.837-2.352-5.197-.124-.804 1.314-1.108 2.96-1.217 4.476-.23 3.19.424 6.954 2.632 9.39 2.025 2.236-1.286 5.563-3.32 3.32-1.967-2.172-3.252-5.087-3.806-8.159-.448.885-1.38 1.511-2.617 1.187-4.593-1.205-6.23 1.9-8.293 5.58a142.341 142.341 0 0 0-3.87 7.467c-.422.87-1.75 1.412-2.65 1.08-2.426-.897-4.855-1.804-7.306-2.636l-3.656 17.673c-.555 2.68-4.298 1.897-4.556-.46-.602.8-.7 1.807-.766 2.804 11.742 3.53 23.525 6.958 34.783 11.817a2.35 2.35 0 0 1 .132-.713l3.32-9.295c.48-1.347 2.094-2.29 3.447-1.403 3.734 2.451 7.37 5.084 12.046 5.089 2.359.003 5.397-.627 6.78-2.783.857-1.335 1.068-3.135 1.696-4.586.53-1.226 1.021-2.52 1.52-3.826-1.47-.8-2.762-1.925-3.813-3.224-.8-.988-.975-2.344 0-3.319.83-.83 2.52-.986 3.318 0 .742.916 1.443 1.596 2.304 2.158.596-1.29 1.254-2.533 2.038-3.657a16.648 16.648 0 0 1 3.178-3.434 20.732 20.732 0 0 1 2.244-1.567c1.192-.73 1.722-.528 1.699-1.948-.028-1.634-1.908-3.783-2.556-5.292m-5.316-7.092c-3.025 0-3.02-4.694 0-4.694 3.025 0 3.02 4.694 0 4.694" fill="#fff" fill-rule="evenodd" data-name="パス 5265"/><path d="M299.692 190.171c2.313-.266 2.693-5.866 3.009-7.481l2.65-13.53c2.146-10.946 4.29-21.894 6.435-32.84l1.802-9.198c.365-1.862.158-2.631-2.215-3.028-4.839-.81-10.51 0-15.398 0h-81.279c-1.327 0-3.038-.285-4.347 0-2.543.553-2.567 3.553-3.013 5.703l-9.507 45.842c-.21 1.013-.88 1.522-1.643 1.649 2.185.037 4.198.58 6.075 1.458-.723-.5-1.2-1.359-.967-2.452l10.16-47.588c.214-.999 1.284-1.723 2.264-1.723h93.417c1.616 0 2.553 1.493 2.263 2.97l-10.895 55.606c-.196 1-1.297 1.722-2.262 1.722h-34.5c-1.537 0-2.288-1.21-2.263-2.402h-6.5c2.076 1.846 3.478 4.788 4.806 7.41h3.064c-.067-1.222.68-2.499 2.255-2.499h31.39c1.456 0 2.202 1.086 2.257 2.214h.821c.259-.901.963-1.7 2.12-1.833" fill="#fff" fill-rule="evenodd" data-name="パス 5266"/><path d="M261.74 182.588h32.575l9.976-50.912h-88.678l-9.793 45.865c-.33 1.547-1.724 1.932-2.889 1.534 4.228 2.19 7.764 6.033 11.036 9.5.246.26.41.537.516.817.633-1.442 1.281-2.868 2.231-4.103 2.31-3.004 5.984-3.34 8.8-1.61 3.005-2.331 6.368-2.1 9.104.317 1.65-1.202 3.45-2.06 5.631-1.75a6.863 6.863 0 0 1 3.64 1.674c2.455-1.383 5.498-1.433 8.018.144.377.237.732.513 1.07.814h6.501c.025-1.154.777-2.29 2.263-2.29m-24.668-9.78c-4.518-.223-6.219-3.456-5.535-7.612.77-4.683 1.752-9.34 2.628-14.005.766-4.084 2.832-7.208 7.38-7.451 3.906-.209 7.882 0 11.792 0 4.453 0 8.922-.114 13.374 0 4.198.107 6.937 2.489 6.311 6.928-.61 4.332-1.621 8.642-2.428 12.94-.824 4.387-1.9 8.08-6.643 9.059-.24.084-.503.14-.802.14a2.402 2.402 0 0 1-.591.003c-8.47.019-17.034.414-25.486-.003" fill="#f6df6d" fill-rule="evenodd" data-name="パス 5267"/><path d="M198.165 226.934c1.87-4.757 2.37-9.786 1.085-14.771a23.321 23.321 0 0 0-1.089-3.238c-1.51.942-3.139 1.62-5.057 1.62 1.918 0 3.546-.678 5.057-1.62-.3-.713-.63-1.413-1.022-2.082-.49-.838-1.035-1.675-1.713-2.375-.11-.113-.588-.623-.858-.974-.553.121-1.124.192-1.682.287l-6.033 1.032-24.124 4.124c-2.329.397-3.595-2.313-2.585-3.737a1390.005 1390.005 0 0 1-4.043-19.81c-2.247-11.411-4.413-22.85-6.155-34.352-.762-5.036-1.473-10.08-2.298-15.105-.744-4.525-1.269-8.159-3.741-11.995-6.104-9.471-15.09-14.543-25.056-19.093-11.495-5.248-23.823-8.569-35.892-12.2-.893-.27-1.39-.888-1.567-1.587-1.087.354-2.083.88-3.018 1.487.552 1.008.47 2.358-.806 3.103-4.812 2.805-9.656 5.545-13.732 9.4-4.79 4.529-8.187 10.408-10.926 16.352-5.647 12.256-8.25 25.831-9.81 39.157-.208 1.775-1.967 2.489-3.275 2.143.094.78.186 1.56.224 2.34l32.258 4.17c4.531.585 9.87.561 14.228 2.105 7.565 2.678 7.971 10.299 9.082 16.962l7.397 44.375 30.988 4.205c-.766-1.49-1.26-3.188-1.78-4.677-1.64-4.701-3.01-9.502-4.354-14.295-3.745-13.352-7.074-26.825-10.185-40.338-2.522-10.952-5.13-21.99-6.65-33.137-.479-3.513-.598-6.027.683-9.397 2.64-6.942 6.805-15.903 14.272-18.665 2.842-1.052 4.056 3.487 1.247 4.526-4.353 1.61-7.098 7.062-9.037 10.95-1.031 2.07-2.843 6.262-2.928 7.459-.234 3.262.701 6.82 1.268 10.005 4.159 23.421 9.96 46.738 16.492 69.601 1.192 4.172 2.407 8.349 3.857 12.438 1.472 4.153 1.928 5.556 6.93 6.161 5.514.667 11.378-.945 16.775-1.933 3.734-.684 7.454-1.43 11.166-2.222 7.714-1.645 15.418-3.221 23.207-4.479 1.427-.23 2.452.703 2.806 1.784.448-.381.83-.815 1.113-1.305-.73-.472-1.145-1.315-.72-2.4m-86.408-53.517c.971 2.873-3.564 4.094-4.526 1.247l-9.223-27.272c-.97-2.873 3.564-4.093 4.527-1.247l9.222 27.272" fill="#fff" fill-rule="evenodd" data-name="パス 5268"/><path d="M90.694 187.14c-.86-5.162-1.26-10.709-7.616-11.845-5.512-.987-11.175-1.444-16.726-2.162l-27.224-3.518c-.046.084-.082.168-.133.251.051-.083.087-.167.133-.251L15.804 166.6c-4.083-.528-11.648-2.6-11.167 4.156.426 5.994 2.016 12.127 3.001 18.05l5.259 31.62 85.274 11.567-7.477-44.853" fill="#fff" fill-rule="evenodd" data-name="パス 5269"/><path d="M198.884 229.333c1.164.754 3.135.56 3.807-1.151.101-.258.188-.524.28-.785a17.492 17.492 0 0 1-3.557.357 4.252 4.252 0 0 1-.53 1.58" fill="#323232" fill-rule="evenodd" data-name="パス 5270"/><path d="m299.71 197.471-2.02 1.943 2.02-1.943c-.65-.452-1.508-.6-2.405-.125l-6.294 3.336-5.773 3.062c-1.24.657-2.83 1.931-4.167 2.324.606-.178-3.486-.11-4.031-.107-.56.004-1.12 0-1.68 0h-18.38c.763-.214 1.532-.597 2.293-1.2 3.69-2.92 1.643-6.903-.293-10.229a44.97 44.97 0 0 1-1.196-2.243h-5.596l.273.503c.933 1.707 2.04 3.312 2.987 5.01.85 1.527 2.153 4.555-1.156 3.15-3.275-1.39-4.547-10.848-9.405-6.686-4.475 3.834-7.523 9.74-11.505 14.1-6.218 6.807-14.448 9.772-23.22 11.947-2.014.5-2.057 2.795-.933 3.945.51.523 1.263.809 2.182.581 11.071-2.745 20.19-6.958 27.585-15.79.22-.263.426-.535.642-.8h-4.078 4.078c2.448-3.012 4.689-6.205 7.211-9.151.875 1.423 2.12 2.817 3.142 4.035 1.156 1.378 2.567 2.41 4.09 2.828h-6.578c-1.484 0-2.236 1.134-2.261 2.287h1.433-1.433c-.027 1.194.723 2.407 2.261 2.407 9.471 0 18.942.021 28.412 0 4.932-.011 7.281-.52 11.124-2.557l12.635-6.699c1.772-.94 1.318-3.035.035-3.928" fill="#323232" fill-rule="evenodd" data-name="パス 5271"/><path d="M306.233 119.4H219.187c-4.281 0-11.124-1.24-14.15 2.546-2.01 2.514-2.297 6.938-2.942 10.05l-3.34 16.107-5.452 26.288c-.188.908.12 1.645.641 2.158l.576-3.07-.576 3.07c.407.398.94.663 1.49.744-.484.017-.977.057-1.48.126-.06.008-.118.02-.178.029l-.966 5.15.966-5.15c-10.853 1.58-19.07 11.345-30.17 11.581-.87.019-1.48.427-1.85.99-2.653-13.022-5.108-26.092-7.13-39.216-.827-5.371-1.572-10.754-2.453-16.117-.705-4.296-1.216-8.226-3.501-11.98-5.92-9.723-14.357-15.7-24.447-20.499-.27-.128-.541-.249-.81-.375a2.37 2.37 0 0 0 .87-1.172l2.28-6.385c6.41 3.8 14.378 6.71 20.874 1.334 2.845-2.355 3.602-6.486 5.038-9.728.931-2.101 1.623-4.31 2.574-6.403.623-1.373 1.282-2.528 2.356-3.666 1.622-1.717 3.808-2.364 5.55-3.847 3.521-2.997.947-6.387-.764-9.572-2.529-4.704-3.421-9.741-1.698-14.845 1.517-4.495 3.514-8.443 3.676-13.284.056-1.677-1.363-2.418-2.655-2.234.364 1.533.512 3.131.296 4.85.216-1.719.068-3.317-.296-4.85-1.037.148-1.994.89-2.039 2.234-.077 2.31-.68 4.416-1.429 6.49-1.661-1.423-3.686-2.158-5.685-3.063a2.99 2.99 0 0 0-1.268-.27c2.957-1.462 5.546-3.682 7.945-6.578.696-.84.697-1.815.329-2.606-1.48 1.11-3.303 1.873-4.597 3.168 1.294-1.295 3.117-2.059 4.597-3.168-.644-1.38-2.421-2.194-3.648-.712-2.842 3.43-5.727 5.743-9.496 6.714.117-.185.241-.364.356-.55 1.578-2.586-2.479-4.947-4.053-2.37-2.675 4.378-6.057 8.243-10.083 11.416-3.438-4.157-9.83-3.364-12.597 2.183-1.182 2.369-1.685 5.17-1.582 7.979a2.253 2.253 0 0 0-1.077-.622c-9.261-2.43-13.223 6.225-16.63 13.454a205.96 205.96 0 0 0-5.928-2.108c-.696-6.655-2.264-13.306-4.275-19.653-1.812-5.718-3.838-10.006-1.72-15.984 1.898-5.357 5.66-10.052 9.682-13.978 16.675-16.283 45.42-9.294 56.897 9.769.763 1.268 2.127 1.343 3.136.787-.704-1.345-1.411-2.7-2.015-4.11.604 1.41 1.31 2.765 2.015 4.11 1.048-.576 1.713-1.833.916-3.155C147.472 1.815 117.222-7.8 98.342 7.685c-8.003 6.563-16.869 17.364-15.331 28.46.435 3.14 1.866 6.066 2.819 9.071a109.08 109.08 0 0 1 2.677 10.146c.6 2.804 1.13 5.65 1.446 8.51L85.64 84.718a2.49 2.49 0 0 0-.03.788c.258 2.356 4.001 3.139 4.556.46l3.656-17.674c2.451.832 4.879 1.739 7.306 2.635.9.334 2.228-.208 2.65-1.079a142.34 142.34 0 0 1 3.87-7.466c2.063-3.681 3.7-6.786 8.293-5.58 1.238.324 2.17-.303 2.617-1.188.553 3.073 1.839 5.987 3.807 8.159 2.033 2.243 5.344-1.084 3.318-3.319-2.207-2.436-2.861-6.2-2.631-9.391.11-1.515.413-3.162 1.217-4.476 1.36-2.228 4.114-2.887 5.197.124.67 1.86 2.864 1.958 3.99.995.201-.075.404-.172.608-.325a49.972 49.972 0 0 0 8.391-7.94c2.553-.047 4.861-.489 6.98-1.296a2.289 2.289 0 0 0-.283.388c-.588 1.005-.318 2.685.842 3.21 1.855.84 3.954 1.444 5.394 2.951.293.307.612.497.936.604-.056.152-.114.301-.168.454-1.3 3.666-1.645 7.213-.92 11.042.362 1.912.978 3.746 1.744 5.532.647 1.51 2.528 3.658 2.555 5.292.024 1.42-.506 1.219-1.698 1.948-.777.476-1.535.992-2.244 1.567a16.691 16.691 0 0 0-3.18 3.434c-.782 1.125-1.44 2.367-2.036 3.657-.86-.56-1.562-1.241-2.304-2.157-.797-.987-2.488-.83-3.318 0-.975.974-.8 2.33 0 3.318 1.051 1.3 2.342 2.423 3.814 3.224-.5 1.306-.992 2.6-1.521 3.826-.628 1.451-.84 3.251-1.696 4.586-1.383 2.156-4.422 2.786-6.78 2.783-4.676-.005-8.312-2.638-12.046-5.089-1.353-.888-2.967.056-3.448 1.403l-3.319 9.295c-.09.253-.123.488-.132.714-11.26-4.86-23.04-8.289-34.783-11.817-.088 1.304-.14 2.583-1.259 3.33 1.119-.747 1.171-2.026 1.259-3.33-.213-.064-.425-.127-.637-.192-2.003-.602-3.211 1.374-2.815 2.94.209-.07.413-.147.629-.2-.216.053-.42.13-.629.2.177.7.674 1.318 1.567 1.586 12.07 3.632 24.397 6.953 35.892 12.2 9.966 4.55 18.952 9.623 25.056 19.094 2.472 3.836 2.997 7.47 3.74 11.995.826 5.026 1.537 10.07 2.3 15.105 1.74 11.501 3.907 22.94 6.154 34.353a1390.048 1390.048 0 0 0 4.043 19.81c-1.01 1.423.256 4.133 2.585 3.736l24.124-4.125 6.033-1.03c.558-.096 1.13-.167 1.682-.288.27.35.749.861.858.974.678.7 1.224 1.537 1.713 2.374.391.67.722 1.37 1.023 2.083 1.347-.84 2.603-1.884 3.88-2.864a21.83 21.83 0 0 0-2.222-3.613c-1.438-1.88-3.234-3.748-5.708-3.616-1.38.074-2.829.484-4.188.716l-25.278 4.321c-.739-3.468-1.47-6.939-2.187-10.414.318.172.694.278 1.147.268 9.89-.21 17.396-6.818 26.317-10.209 4.268-1.622 8.714-2.22 12.638.65 2.945 2.155 5.587 5.08 8.087 7.73.74.784 1.635.86 2.39.543a13.242 13.242 0 0 1-1.046 1.657c-2.345 3.095-4.707 5.51-8.098 7.431-1.5.85-1.371 2.535-.496 3.549.952-.65 1.936-1.214 3.004-1.57-1.068.356-2.052.92-3.004 1.57.658.761 1.735 1.145 2.865.504 3.994-2.264 6.83-5.192 9.593-8.831 1.613-2.125 2.618-4.352 3.697-6.773.847-1.9 2.86-3.555 4.045-1.98.841 1.119 2.589 1.725 3.686.476 1.55-1.765 3.558-2.247 5.066-.094.91 1.299 2.474 1.517 3.686.474 1.512-1.3 4.494-2.732 5.209-1.035.637 1.51 2.595 2.476 3.923 1.035 3.224-3.5 5.544.71 7.02 3.439h5.596c-1.328-2.622-2.73-5.564-4.807-7.41H248.1h4.878a7.986 7.986 0 0 0-1.07-.814c-2.52-1.578-5.563-1.528-8.019-.145a6.865 6.865 0 0 0-3.64-1.673c-2.18-.31-3.98.547-5.63 1.75-2.736-2.418-6.1-2.65-9.105-.317-2.815-1.73-6.489-1.395-8.799 1.61-.95 1.234-1.598 2.66-2.231 4.102a2.422 2.422 0 0 0-.516-.817c-3.272-3.467-6.809-7.31-11.036-9.5 1.165.399 2.558.013 2.889-1.533l9.793-45.865h88.677l-9.975 50.91h-32.574c-1.486 0-2.238 1.137-2.263 2.292h2.016-2.016c-.025 1.191.726 2.402 2.263 2.402h34.5c.965 0 2.066-.723 2.262-1.722l10.895-55.606c.29-1.477-.647-2.97-2.263-2.97h-93.418c-.98 0-2.05.724-2.262 1.723-3.387 15.863-6.775 31.725-10.161 47.588-.234 1.093.244 1.952.967 2.452-1.876-.878-3.89-1.42-6.075-1.46.763-.125 1.433-.634 1.643-1.647 3.17-15.28 6.338-30.562 9.507-45.842.446-2.15.47-5.15 3.013-5.703 1.309-.285 3.02 0 4.347 0h81.279c4.889 0 10.56-.81 15.398 0 2.373.396 2.58 1.166 2.215 3.028a521530.913 521530.913 0 0 0-10.887 55.567c-.316 1.616-.696 7.215-3.01 7.482-1.157.133-1.861.93-2.12 1.833h1.258-1.258c-.404 1.409.291 3.072 2.12 2.86 4.423-.509 6.082-3.2 6.81-7.221.569-3.14 1.228-6.267 1.841-9.399l6.215-31.717c1.269-6.476 3.276-13.213 3.878-19.793.7-7.662-7.027-7.334-12.202-7.334m-192.14-65.31c1.565.783 2.348-1.564 3.912-.782-1.564-.782-2.347 1.565-3.911.783m80.82 149.34c.545-.076.318.148 0 0" fill="#323232" fill-rule="evenodd" data-name="パス 5272"/><path d="M199.251 212.162c1.284 4.985.784 10.015-1.085 14.772-.426 1.083-.012 1.926.718 2.4a4.252 4.252 0 0 0 .53-1.58l-.052.001.052-.001a17.505 17.505 0 0 0 3.558-.357c2.424-6.77 2.296-14.814-.93-21.337-1.276.98-2.532 2.025-3.88 2.865.442 1.05.804 2.134 1.089 3.237" fill="#323232" fill-rule="evenodd" data-name="パス 5273"/><path d="M151.664 50.54c-3.02 0-3.025 4.694 0 4.694 3.02 0 3.025-4.694 0-4.694" fill="#323232" fill-rule="evenodd" data-name="パス 5274"/><path d="M78.374 92.545c-1.487.967-2.834 2.111-4.176 3.006 1.342-.895 2.689-2.039 4.176-3.006-.575-1.05-1.84-1.728-3.175-.95-4.987 2.907-9.959 5.802-14.237 9.726-5.296 4.859-9.118 11.23-12.104 17.71-6.023 13.071-8.787 27.312-10.452 41.526-.14 1.204.539 1.911 1.42 2.143-.183-1.522-.353-3.044-.048-4.567-.305 1.523-.135 3.045.047 4.567 1.31.346 3.067-.368 3.275-2.143 1.561-13.326 4.163-26.9 9.81-39.157 2.74-5.944 6.136-11.823 10.926-16.352 4.076-3.855 8.92-6.595 13.732-9.4 1.277-.745 1.359-2.095.806-3.103" fill="#323232" fill-rule="evenodd" data-name="パス 5275"/><path d="M102.534 146.143c-.963-2.846-5.498-1.625-4.526 1.247l9.222 27.273c.963 2.846 5.497 1.625 4.526-1.248l-9.222-27.272" fill="#323232" fill-rule="evenodd" data-name="パス 5276"/><path d="M197.77 230.637c-1.373 1.167-3.408 1.811-5.449 1.811 2.041 0 4.076-.644 5.45-1.81-.354-1.082-1.38-2.015-2.806-1.785-7.789 1.258-15.493 2.835-23.206 4.48a394.92 394.92 0 0 1-11.167 2.22c-5.397.99-11.26 2.601-16.775 1.934-5-.605-5.458-2.008-6.93-6.16-1.45-4.09-2.665-8.267-3.856-12.438-6.533-22.863-12.333-46.18-16.493-69.6-.566-3.188-1.502-6.745-1.268-10.007.086-1.197 1.898-5.388 2.93-7.458 1.937-3.888 4.683-9.34 9.036-10.951 2.808-1.04 1.594-5.577-1.248-4.526-7.467 2.762-11.632 11.723-14.271 18.666-1.282 3.369-1.163 5.883-.684 9.397 1.52 11.147 4.129 22.184 6.65 33.137 3.11 13.512 6.44 26.986 10.185 40.338 1.344 4.793 2.714 9.593 4.355 14.294.52 1.49 1.013 3.187 1.78 4.677l5.135.696-5.135-.696c.442.858.974 1.649 1.658 2.287 3.91 3.647 10.229 3.417 15.119 2.786 5.826-.752 11.633-1.905 17.39-3.064 9.347-1.882 18.623-3.965 28.043-5.486 1.54-.248 1.937-1.58 1.558-2.742" fill="#323232" fill-rule="evenodd" data-name="パス 5277"/><path d="M291.99 192.003h4.76c-.055-1.127-.801-2.213-2.256-2.213h-31.39c-1.576 0-2.323 1.276-2.256 2.498h2.927-2.927c.062 1.12.808 2.196 2.255 2.196h31.39c1.568 0 2.316-1.264 2.257-2.48h-4.76Z" fill="#323232" fill-rule="evenodd" data-name="パス 5278"/><path d="M201.652 200.035c2.903-1.166 6.023-2.37 6.723-5.805.693-3.396-1.822-7.026-5.366-7.124-2.483-.069-5.04.516-7.542 1.322-.27-1.748-2.434-3.109-3.878-1.412l-3.8 4.466c-1.365 1.605-.114 4.82 2.284 3.923 2.284-.856 4.532-1.746 6.881-2.396.071-.02.14-.044.211-.063 1.426-.384 4.143-1.559 5.617-1.14 3.23.917-1.29 3.266-2.378 3.704a2.49 2.49 0 0 0-.842.548c-1.603 1.594-.372 4.967 2.09 3.977" fill="#323232" fill-rule="evenodd" data-name="パス 5279"/><path d="M95.618 188.277c-1.111-6.663-1.518-14.284-9.083-16.963-4.358-1.543-9.697-1.52-14.227-2.105l-32.259-4.168c.075 1.524-.082 3.049-.92 4.574 9.074 1.172 18.149 2.345 27.223 3.519 5.552.717 11.214 1.174 16.726 2.16 6.357 1.138 6.756 6.684 7.617 11.847 2.491 14.952 4.984 29.902 7.476 44.854l4.844.657-7.397-44.375" fill="#323232" fill-rule="evenodd" data-name="パス 5280"/><path d="m40.05 165.04-22.082-2.853c-4.861-.628-11.127-2.541-15.188 1.147-4.768 4.33-2.153 11.775-1.244 17.243l6.518 39.193 4.843.657-5.258-31.62c-.985-5.922-2.576-12.055-3.002-18.05-.48-6.756 7.085-4.683 11.168-4.156l23.324 3.014c.838-1.524.995-3.05.92-4.574" fill="#323232" fill-rule="evenodd" data-name="パス 5281"/><path d="M210.832 59.185c1.415 7.064 5.603 13.415 11.6 17.428 3.086 2.065 6.401 3.25 9.979 4.138 1.821.452 2.381 1.05 3.027 2.737.726 1.895 1.422 3.802 2.128 5.705.496-1.066 1.05-2.105 1.315-2.817.453-1.214.79-2.653 1.414-3.794 1.349-2.458 5.251-2.326 7.735-3.328 3.122-1.258 6.031-3.16 8.47-5.473 5.512-5.232 8.438-12.34 8.575-19.897-.307-17.07-16.105-30.509-33.13-26.775-14.368 3.151-24.017 17.574-21.113 32.076m16.481-5.669c2.33 1.846 4.662 3.691 6.993 5.536l12.8-14.483c2.005-2.269 5.312 1.063 3.318 3.319l-14.165 16.03c-.916 1.035-2.374.748-3.319 0l-8.946-7.083c-2.368-1.875.975-5.174 3.32-3.319" fill="#fff" fill-rule="evenodd" data-name="パス 5282"/><path d="m231.097 85.229 2.424 6.505c.77 2.062 1.422 4.895 4.177 4.895 2.748 0 3.408-2.833 4.177-4.895l2.42-6.493c14.772-3.236 25.198-16.2 25.474-31.357-.357-19.838-18.31-35.12-38.038-31.508-19.746 3.616-31.329 25.433-23.614 43.865 4.072 9.731 12.751 16.744 22.98 18.988m.848-58.12c17.025-3.734 32.824 9.705 33.13 26.775-.137 7.557-3.063 14.666-8.575 19.897-2.438 2.314-5.347 4.216-8.47 5.474-2.484 1.001-6.386.869-7.734 3.328-.626 1.14-.962 2.58-1.415 3.793-.265.712-.82 1.751-1.314 2.817-.706-1.903-1.403-3.81-2.129-5.705-.645-1.687-1.205-2.285-3.027-2.736-3.577-.888-6.893-2.074-9.979-4.139-5.997-4.013-10.185-10.363-11.6-17.428-2.904-14.502 6.745-28.925 21.113-32.076" fill="#323232" fill-rule="evenodd" data-name="パス 5283"/><path d="M244.266 168.114h18.884c3.374-.442 3.61-9.43 4.018-11.608.358-1.91 2.495-7.338.093-8.072-2.47-.756-6.363 0-8.92 0h-12.174c-2.486 0-5.81-.848-7.118 2.101-1.152 2.598-1.191 6.348-1.712 9.125-.31 1.654-2.454 7.514-.508 8.454 1.643.793 5.663 0 7.437 0m-.02-16.376 6.982 6.594 10.667-6.96c2.54-1.659 4.89 2.407 2.37 4.052l-11.54 7.53c-.08.052-.158.083-.238.124-.84.702-2.102.911-3.125-.054-2.81-2.656-5.623-5.312-8.435-7.967-2.201-2.08 1.124-5.392 3.32-3.319" fill="#fff" fill-rule="evenodd" data-name="パス 5284"/><path d="M263.15 172.807c.3 0 .561-.056.802-.14 4.744-.978 5.82-4.672 6.643-9.059.806-4.298 1.818-8.61 2.428-12.94.626-4.44-2.113-6.821-6.311-6.928-4.452-.114-8.921 0-13.374 0-3.91 0-7.886-.209-11.791 0-4.55.243-6.615 3.366-7.381 7.45-.876 4.666-1.858 9.323-2.629 14.006-.683 4.156 1.018 7.388 5.536 7.611 8.452.417 17.016.022 25.486.003.183.021.377.026.59-.003m-25.813-13.147c.522-2.777.561-6.527 1.713-9.125 1.308-2.949 4.632-2.101 7.118-2.101h12.173c2.557 0 6.452-.756 8.921 0 2.402.734.265 6.162-.094 8.072-.408 2.178-.644 11.166-4.018 11.608h-18.884c-1.773 0-5.794.793-7.437 0-1.945-.94.198-6.8.508-8.454" fill="#323232" fill-rule="evenodd" data-name="パス 5285"/><path d="M249.362 163.024c1.023.966 2.285.757 3.125.054.08-.041.158-.071.239-.124l11.538-7.53c2.52-1.645.171-5.71-2.369-4.053l-10.667 6.962-6.982-6.594c-2.195-2.074-5.52 1.239-3.319 3.318l8.435 7.967" fill="#323232" fill-rule="evenodd" data-name="パス 5286"/><path d="m223.994 56.835 8.946 7.083c.945.748 2.403 1.036 3.318 0l14.166-16.03c1.994-2.255-1.314-5.587-3.32-3.319l-12.798 14.484-6.993-5.537c-2.344-1.855-5.687 1.444-3.32 3.32" fill="#f6df6d" fill-rule="evenodd" data-name="パス 5287"/></g></g></g></g><defs><clipPath id="a"><path d="M0 0h318.48v242.298H0V0z" data-name="長方形 1274"/></clipPath></defs></svg>