<svg xmlns="http://www.w3.org/2000/svg" width="63.464" height="75.429" viewBox="441 7814.571 63.464 75.429"><g data-name="グループ 2816"><path d="M483.067 7828.847c0 5.146-4.17 9.321-9.32 9.321-5.145 0-9.313-4.175-9.313-9.321a9.313 9.313 0 0 1 9.314-9.317c5.149 0 9.319 4.17 9.319 9.317" fill="#f8b500" fill-rule="evenodd" data-name="パス 3904"/><path d="M504.464 7823.888c0 5.138-4.167 9.314-9.32 9.314-5.148 0-9.315-4.176-9.315-9.314a9.313 9.313 0 0 1 9.316-9.316c5.152 0 9.319 4.17 9.319 9.316" fill="#9cc948" fill-rule="evenodd" data-name="パス 3905"/><path d="M465.657 7873.566a8.218 8.218 0 0 1-8.217-8.217v-9.655a24.528 24.528 0 0 0 8.217 1.435h24.654v-16.437h-24.654c-4.531 0-8.195-3.664-8.217-8.198v-8.239H441v41.094c0 13.61 11.04 24.651 24.657 24.651h32.876v-16.434h-32.876Z" fill="#221815" fill-rule="evenodd" data-name="パス 3906"/></g></svg>