<svg xmlns="http://www.w3.org/2000/svg" xmlns:xlink="http://www.w3.org/1999/xlink" width="301.615" height="295" viewBox="0 0 301.615 295">
  <defs>
    <clipPath id="clip-path">
      <rect id="矩形_1305" data-name="矩形 1305" width="111.664" height="137.635" fill="none"/>
    </clipPath>
    <clipPath id="clip-path-2">
      <rect id="矩形_1259" data-name="矩形 1259" width="188.864" height="165.606" fill="rgba(0,0,0,0)"/>
    </clipPath>
  </defs>
  <g id="组_3382" data-name="组 3382" transform="translate(-507.385 -2963.535)">
    <circle id="椭圆_189" data-name="椭圆 189" cx="147.5" cy="147.5" r="147.5" transform="translate(514 2963.535)" fill="#fff2d6"/>
    <g id="组_2627" data-name="组 2627" transform="translate(678.5 3005.831)">
      <g id="组_2626" data-name="组 2626" clip-path="url(#clip-path)">
        <path id="路径_5540" data-name="路径 5540" d="M35.8,37.4H75.08l4.5-5.934a4.07,4.07,0,0,1-.375-.295L55.553,10.015H10V99.151H25.534a3.328,3.328,0,0,1,2.136.7l4.617-6.08V40.918A3.568,3.568,0,0,1,35.8,37.4" transform="translate(-2.966 -2.97)" fill="#fff"/>
        <path id="路径_5541" data-name="路径 5541" d="M7.034,96.181V7.045H52.586L76.244,28.2a4.053,4.053,0,0,0,.375.3c3.345,2.352,7.859-2.354,4.6-5.269l-12.4-11.094C64.739,8.49,60.8,4.3,56.408,1.041,54.761-.182,53.2.01,51.274.01H3.517A3.568,3.568,0,0,0,0,3.527V99.7a3.568,3.568,0,0,0,3.517,3.517H22.569c3.641,0,4.356-4.55,2.136-6.331a3.329,3.329,0,0,0-2.136-.7Z" transform="translate(0 0)" fill="#323232"/>
        <path id="路径_5542" data-name="路径 5542" d="M51.682,148.083h68.18v-68.9L97.235,58.947H51.682v89.136ZM67.658,89.844H104.4c4.534,0,4.526,7.034,0,7.034H67.658c-4.534,0-4.526-7.034,0-7.034m.375,14.995h36.738c4.534,0,4.526,7.034,0,7.034H68.033c-4.534,0-4.526-7.034,0-7.034m37.112,22.029H68.408c-4.534,0-4.526-7.034,0-7.034h36.737c4.534,0,4.527,7.034,0,7.034M94.131,66.927c0-4.534,7.034-4.526,7.034,0V74.1H110.4c4.534,0,4.527,7.034,0,7.034H97.648a3.568,3.568,0,0,1-3.517-3.517Z" transform="translate(-15.328 -17.482)" fill="#fff"/>
        <path id="路径_5543" data-name="路径 5543" d="M122.9,72.159,110.5,61.066c-4.074-3.644-8.011-7.833-12.4-11.094-1.648-1.223-3.21-1.03-5.134-1.03H45.2a3.568,3.568,0,0,0-3.517,3.517v96.17a3.568,3.568,0,0,0,3.517,3.517h75.214a3.568,3.568,0,0,0,3.517-3.517v-73.4a2.988,2.988,0,0,0-1.031-3.068M48.717,55.977H94.269L116.9,76.212v68.9H48.717V55.977Z" transform="translate(-12.362 -14.512)" fill="#323232"/>
        <path id="路径_5544" data-name="路径 5544" d="M72.962,109.905H109.7c4.527,0,4.534-7.034,0-7.034H72.962c-4.527,0-4.534,7.034,0,7.034" transform="translate(-20.631 -30.509)" fill="#64c8e6"/>
        <path id="路径_5545" data-name="路径 5545" d="M73.495,131.222h36.737c4.527,0,4.534-7.034,0-7.034H73.495c-4.527,0-4.534,7.034,0,7.034" transform="translate(-20.789 -36.832)" fill="#64c8e6"/>
        <path id="路径_5546" data-name="路径 5546" d="M110.765,145.505H74.028c-4.527,0-4.534,7.034,0,7.034h36.738c4.526,0,4.534-7.034,0-7.034" transform="translate(-20.947 -43.154)" fill="#64c8e6"/>
        <path id="路径_5547" data-name="路径 5547" d="M115.545,83.066h12.748c4.527,0,4.534-7.034,0-7.034h-9.231V68.859c0-4.526-7.034-4.534-7.034,0v10.69a3.568,3.568,0,0,0,3.517,3.517" transform="translate(-33.225 -19.415)" fill="#323232"/>
      </g>
    </g>
    <g id="组_2575" data-name="组 2575" transform="translate(507.385 3050.633)">
      <g id="组_2574" data-name="组 2574" clip-path="url(#clip-path-2)">
        <path id="路径_5169" data-name="路径 5169" d="M20.24,131.248a1.749,1.749,0,0,1-.145-.324.378.378,0,0,0-.364-.321c.039.148.074.295.124.443a2.877,2.877,0,0,0,.385.2" fill="#ffe164"/>
        <path id="路径_5170" data-name="路径 5170" d="M22.338,136.614a6.751,6.751,0,0,1-.477-.988c-.1-.286-.206-.573-.308-.86-.04-.094-.083-.188-.124-.282-.419-.962-1.16-2.206-1.574-3.438-.4-.264-.305-.44-.124-.443a3.721,3.721,0,0,1-.108-1.78,2.273,2.273,0,0,1,2.767-1.572c1.706.5,2.226,2.822,2.768,4.27.253.674.492,1.353.731,2.032.106.218.208.436.3.653.036.082.064.167.1.249.095.1.173.3.277.423a9.029,9.029,0,0,0,.87.9,2.257,2.257,0,0,0,1.772.771,2.941,2.941,0,0,0,2.086-1.562,1.24,1.24,0,0,0,.1-1.207q-1.491-4.128-3.181-8.176c-.8-1.909-1.384-4.6-3.044-5.95-1.707-1.393-3.464-.211-4.341,1.548a8.237,8.237,0,0,0-.539,1.774c.019-.155-.026.47-.018.663.071,1.837-2.609,3.132-3.841,1.591a2.288,2.288,0,0,0-4.14.874c-.032.106-.116.5-.148.622-.005.065-.013.131-.016.2a2.286,2.286,0,0,1-3.386,1.942c.948.4.023.011-.164-.061-.333-.128-.664-.26-1-.38a5.281,5.281,0,0,0-1.039-.339c-.064-.008-.1-.016-.136-.023a.759.759,0,0,1-.223.087c-1.388.4-1.484.968-1.646,2.415-.217,1.926.946,3.649,1.647,5.363.473,1.157.938,2.318,1.407,3.478.727,1.795,2.789,5.4,5.078,2.827.961-1.08.247-2.677-.15-3.848-.547-1.615-1.181-3.2-1.829-4.776-.975-2.364,3.069-4.026,4.112-1.734a83.711,83.711,0,0,0,3.946,7.533c-.037-.064.044.033.124.131.069.021.455.3.568.35a2.077,2.077,0,0,0,1.7.113c-.231.11.963-.989.824-.845.209-.216.325-.178.49-.507a2.3,2.3,0,0,0,.1-1.177c-.018-.179-.136-.529-.209-.859" fill="#fff"/>
        <path id="路径_5171" data-name="路径 5171" d="M112.114,91.8a1.894,1.894,0,0,0-.246.04c.115,0,.226-.011.246-.04" fill="#ffe164"/>
        <path id="路径_5172" data-name="路径 5172" d="M106.741,88.992c.126.224.243.455.389.667.033.048.068.1.1.143.131.123.241.279.366.41q.218.227.453.435c.041.036.2.155.263.209l.146.1q.2.127.4.242c.153.087.311.163.468.244l.015.008c.283.092.559.194.849.264.146.036.3.06.443.09l.091.015c.3.016.589.031.885.019.031,0,.133,0,.237,0l.043-.01c.061-.014.125-.022.186-.033a7.2,7.2,0,0,0,.915-.24c.079-.027.158-.062.238-.085l.055-.015c.062-.036.125-.076.159-.094.267-.139.515-.3.766-.464l.031-.019c.011-.01.013-.014.027-.026.113-.1.23-.2.34-.309.127-.124.245-.256.367-.386.024-.026.048-.054.071-.083.173-.276.366-.536.521-.825.045-.083.086-.169.127-.256Z" fill="#fff"/>
        <path id="路径_5173" data-name="路径 5173" d="M91.911,126.964c-.184.678-.39,1.381-.617,2.1a2.218,2.218,0,0,1,1.928.05c5.811,2.836,13.17,2.981,19.493,2.761,6.224-.217,13.465-.9,18.845-4.361-.067-.617-.113-1.236-.142-1.856-.029-.069-.064-.13-.088-.2-1.026-3.272-1.812-6.635-2.516-9.989a76.033,76.033,0,0,1-1.35-7.7,30.221,30.221,0,0,1-21,4.8,31.839,31.839,0,0,1-14.074-5.944c.261.955.5,1.915.7,2.885,1.194,5.74.335,11.86-1.182,17.457" fill="#fff"/>
        <path id="路径_5174" data-name="路径 5174" d="M161.87,98.784c.687-6.277-.687-12.573-2.265-18.614-1.758-6.733-3.678-13.426-5.525-20.135q-2.8-10.179-5.6-20.357c-1.674-6.051-3.4-12.162-6.179-17.816A45.161,45.161,0,0,0,132.683,8.57,15.217,15.217,0,0,0,120.13,4.626c-1.813.2-2.47-1.514-2-2.886a11.094,11.094,0,0,0-3.615.53c1.792,1.46-.343,4.709-2.76,3.575C106.749,3.5,100.05,5.331,95.227,7.3A25.547,25.547,0,0,0,82.948,18.214a78.1,78.1,0,0,0-6.659,15.24c-2.26,6.515-4.342,13.09-6.418,19.665S65.727,66.272,63.5,72.8c-2.171,6.344-4.648,12.81-5.011,19.573s2.1,12.438,5.443,18.159c3.193,5.462,6.161,10.675,7.648,16.878,1.205,5.031,2.69,10.884-1.012,15.251-2.39,2.819-5.862,4.659-9.3,4.443,1.2,2.419,3.487,2.619,5.734,2.632-.69-1.416-.079-3.4,1.864-3.169,6.086.741,10.61-3.932,13.58-8.708A46.894,46.894,0,0,0,88.7,120.529a32.412,32.412,0,0,0,.347-7.833,38.757,38.757,0,0,0-2.623-9.734C80.975,88.054,71.14,72.05,78.5,56.032a2.26,2.26,0,0,1,.374-.563A1.9,1.9,0,0,1,80.48,53.4C97.119,50,110.7,35.193,114.287,18.827c.447-2.044,2.823-1.978,3.883-.726,1.419-.144,2.761-.257,3.859.5a2.275,2.275,0,0,1,3.29-1.494c12.566,6.78,18.173,22.819,18.265,36.686.13-.025.261-.053.385-.073a7.5,7.5,0,0,1,6.24,1.7c3.184,2.66,3.973,7.177,3.426,11.1a16.908,16.908,0,0,1-3.693,8,6.365,6.365,0,0,1,2.36,4.874,2.084,2.084,0,0,1-.047.472,6.342,6.342,0,0,1-4.965,5.722,6.734,6.734,0,0,1-4.128-.515c-.04-.019-.076-.047-.115-.066a32.446,32.446,0,0,1-1.77,5.751,39.8,39.8,0,0,1-8.2,12.409q-.621.635-1.274,1.232a43.626,43.626,0,0,0,1.351,9.887c2.134-6.082,5.886-11.631,9.676-16.93,1.672-2.338,5.573-.088,3.885,2.271-6.356,8.887-12.8,18.618-10.289,30.037,1.96,8.9,8.692,15.423,18.015,15.643a2.165,2.165,0,0,1,2.16,2.15,3.912,3.912,0,0,0,3.569-1.17,14.929,14.929,0,0,1-9.224-6.291c-2.54-4.056-2.466-9.18-1.21-13.65,2.726-9.695,11.014-17.319,12.133-27.554" fill="#323232"/>
        <path id="路径_5175" data-name="路径 5175" d="M118.17,18.1a2.165,2.165,0,0,1,.455,1.923C114.8,37.5,100.243,53.461,82.59,57.51a2.4,2.4,0,0,1-.207.793c-4.07,8.862-1.423,18.609,1.86,27.258,1.231,3.242,2.645,6.452,4.009,9.683a2.044,2.044,0,0,1,.944.959c3.59,7.032,12.233,11.683,19.964,12.161,8.309.513,16.033-3.231,21.579-9.276a34.866,34.866,0,0,0,6.724-10.819,36.643,36.643,0,0,0,1.956-8.214,16.012,16.012,0,0,1,.5-2.825,2.6,2.6,0,0,1,.547-.92,7.087,7.087,0,0,1,.728-1.09,6.254,6.254,0,0,1,4.193-2.14,15.771,15.771,0,0,0,3.094-4.516,10.277,10.277,0,0,0,.187-7.827,4.331,4.331,0,0,0-2.691-2.615,4.21,4.21,0,0,0-2.195.266,5.121,5.121,0,0,1-.568.223.724.724,0,0,0-.282.126c-.275.365-.235.166,0,0,.07-.093.153-.21.266-.389-1.125,1.778-4.335,1.2-4.193-1.136C139.8,44.221,135.3,27.6,123.048,20.994a1.969,1.969,0,0,1-1.019-2.391c-1.1-.759-2.441-.646-3.859-.5m-6.715,56.375c2.9,0,2.895,4.5,0,4.5s-2.9-4.5,0-4.5M98.237,61.4c-2.9,0-2.9-4.5,0-4.5s2.9,4.5,0,4.5M118.2,93.286a9.328,9.328,0,0,1-9.577,2.663,10.634,10.634,0,0,1-7.165-8.61c0-.032,0-.064,0-.1a2.446,2.446,0,0,1-.078-.5,2.1,2.1,0,0,1,.763-1.661,2.026,2.026,0,0,1,.19-.154,2.373,2.373,0,0,1,.6-.306c.037-.012.059-.038.1-.048s.075-.011.113-.018a1.879,1.879,0,0,1,.2-.032c.051-.005.1-.014.152-.016s.09-.015.136-.015h14.88a2.272,2.272,0,0,1,2.25,2.25,11.045,11.045,0,0,1-2.558,6.545M124.283,61.4c-2.9,0-2.895-4.5,0-4.5s2.9,4.5,0,4.5m6.982-12.8a2.308,2.308,0,0,1,.807,3.078,2.262,2.262,0,0,1-3.078.808,14.222,14.222,0,0,0-1.259-.785q-.326-.178-.66-.339c-.042-.02-.376-.164-.455-.2l-.377-.141c-.233-.083-.469-.159-.706-.23q-.667-.2-1.352-.33a5.153,5.153,0,0,0-.64-.109c.6.041-.217-.016-.324-.025a14.384,14.384,0,0,0-1.483-.041,6.989,6.989,0,0,0-1.294.093c.581-.129-.211.041-.318.062-.244.046-.485.1-.726.159a2.3,2.3,0,0,1-2.767-1.572,2.27,2.27,0,0,1,1.571-2.767,16.381,16.381,0,0,1,13.061,2.341" fill="#fff"/>
        <path id="路径_5176" data-name="路径 5176" d="M64.159,136.084A58,58,0,0,0,51.247,141.2c-.485,4.7-1.7,9.132-4.977,12.775q.514,4.848,1.03,9.7H184.182c-1.055-1.931-1.935-3.973-2.93-5.93a59.807,59.807,0,0,0-5.407-9.062,28.766,28.766,0,0,0-7.9-6.737,84.657,84.657,0,0,0-10.461-5.624,2.174,2.174,0,0,1-1.052-2.383,16.44,16.44,0,0,1-3.078-2.161,11.012,11.012,0,0,0,.794,4.676c1.6,3.777,5.6,5.505,9.443,6.01a2.306,2.306,0,0,1,2.25,2.25c-.012,1.1-1.035,2.41-2.25,2.25a26.68,26.68,0,0,1-3.424-.677,3.908,3.908,0,0,1-3.569,1.17,2.082,2.082,0,0,1-2.16,2.351,22.751,22.751,0,0,1-13.227-4.3,24.61,24.61,0,0,1-8.742-13.323c-5.857,3.206-13.278,3.973-19.757,4.2-7.19.25-15.189-.166-21.764-3.375a2.113,2.113,0,0,1-.8-.656c-3.616,9.423-10.6,20.02-21.289,18.72A2.331,2.331,0,0,1,67,149.733c-2.248-.013-4.536-.213-5.734-2.631a8.616,8.616,0,0,1-4.781-1.829,2.3,2.3,0,0,1-.807-3.078,2.265,2.265,0,0,1,3.078-.808c2.621,2.02,5.28,1.369,7.594-.826,2.339-2.217,2.342-4.979,1.782-7.99-.052-.281-.113-.567-.167-.85-.573.71-1.887.432-2.9.554a2.475,2.475,0,0,1,.669,1.041,2.281,2.281,0,0,1-1.571,2.768" fill="#ffe164"/>
        <path id="路径_5177" data-name="路径 5177" d="M41.689,153.209c.069-1.426,1.42-2.244,2.176-3.337a18.908,18.908,0,0,0,2.864-8.74c.709-6.48.1-13.071,1.5-19.48a25.659,25.659,0,0,1,1.555-4.789c.524-1.2,1.487-2.432,1.556-3.777.072-1.41-1.281-3.053-2.679-2.963s-2.178,1.626-2.761,2.695c-.864,1.582-1.657,3.2-2.4,4.848a71.735,71.735,0,0,0-3.646,10.272c-.774,2.791-5.114,1.6-4.339-1.2.332-1.2.7-2.383,1.09-3.561-2.119-6.21-4.2-12.432-6.415-18.611q-1.52-4.245-3.121-8.462c-.625-1.646-1.22-3.316-1.908-4.936-.4-.945-1.017-2.713-2.013-3.232-1.523-.8-3.272,1.516-3.272,2.906,0,1.936,1.156,4.216,1.759,6.038,2.2,6.657,4.535,13.272,6.926,19.863a18.4,18.4,0,0,1,3.142,5.651c1.42,3.367,2.786,6.749,4.027,10.187a2.316,2.316,0,0,1,.127.592,6.564,6.564,0,0,1-2.43,6.16,6.611,6.611,0,0,1-6.892,1.138,5.7,5.7,0,0,1-.486.881,5.034,5.034,0,0,1-1.016,1.109c-.332.287-.463.385-.435.331a4.06,4.06,0,0,1-.434.51,5.1,5.1,0,0,1-2.935,1.292A7.418,7.418,0,0,1,17,143.736a5.932,5.932,0,0,1-.565.963,7.417,7.417,0,0,1-5.691,2.891c-.161,0-.317-.013-.473-.023a23.409,23.409,0,0,0,4.3,7.842,20.167,20.167,0,0,0,3.03,2.684c.878.636,1.929,1.106,2.3,2.206s.641,2.238.925,3.368H42.8l-.99-9.319a7.7,7.7,0,0,1-.121-1.139" fill="#fff"/>
        <path id="路径_5178" data-name="路径 5178" d="M19.855,131.046c-.05-.148-.085-.295-.124-.443-.181,0-.28.179.124.443" fill="#323232"/>
        <path id="路径_5179" data-name="路径 5179" d="M46.27,153.971c3.273-3.643,4.492-8.078,4.977-12.775a58,58,0,0,1,12.912-5.112,2.25,2.25,0,0,0-1.2-4.339,74.383,74.383,0,0,0-11.4,4.2c.14-4.473.107-8.985,1-13.094a22,22,0,0,1,1.218-3.986,36.12,36.12,0,0,0,1.72-3.73,7.252,7.252,0,0,0-.922-6.24,6.833,6.833,0,0,0-10.652-1.1c-2.266,2.3-3.575,5.845-4.828,8.775-1.532-4.5-3.069-9.006-4.675-13.484q-1.878-5.238-3.882-10.43c-1.1-2.847-2.073-6.2-4.562-8.173s-5.5-1.226-7.831.638A7.3,7.3,0,0,0,15.5,92.062a46.2,46.2,0,0,0,2.268,7.432q1.329,3.97,2.714,7.921c.822,2.355,1.667,4.7,2.506,7.051-2.906.292-5.393,2.737-6.541,5.586a7.3,7.3,0,0,0-4.737.319,6.618,6.618,0,0,0-3.4,3.54,9.07,9.07,0,0,0-1.063-.275,6.6,6.6,0,0,0-5.553,2.04A8.428,8.428,0,0,0,0,130.978c-.051,2.23.963,4.2,1.836,6.146.906,2.024,1.551,4.08,2.613,5.971a32.42,32.42,0,0,0,3.077,9.417,23.252,23.252,0,0,0,4.9,7.124,28.127,28.127,0,0,0,3.338,2.63q.191.7.379,1.4h4.677c-.284-1.129-.555-2.27-.924-3.367s-1.422-1.57-2.3-2.206a20.167,20.167,0,0,1-3.03-2.685,23.4,23.4,0,0,1-4.3-7.841c.156.01.312.026.473.022A7.41,7.41,0,0,0,16.43,144.7a5.881,5.881,0,0,0,.565-.962,7.425,7.425,0,0,0,4.237.861,5.094,5.094,0,0,0,2.935-1.292,4.05,4.05,0,0,0,.434-.509c-.028.053.1-.045.435-.332a5.029,5.029,0,0,0,1.016-1.108,5.664,5.664,0,0,0,.486-.882,6.611,6.611,0,0,0,6.892-1.137,6.565,6.565,0,0,0,2.43-6.161,2.324,2.324,0,0,0-.127-.592c-1.241-3.437-2.607-6.819-4.027-10.186a18.418,18.418,0,0,0-3.142-5.652c-2.391-6.59-4.725-13.206-6.926-19.862-.6-1.823-1.759-4.1-1.759-6.038,0-1.39,1.75-3.7,3.272-2.907,1,.52,1.611,2.288,2.013,3.233.688,1.62,1.283,3.29,1.909,4.935q1.6,4.216,3.12,8.463c2.211,6.178,4.3,12.4,6.415,18.61-.388,1.179-.758,2.363-1.09,3.561-.775,2.8,3.565,3.988,4.339,1.2A71.679,71.679,0,0,1,43.5,117.667c.739-1.644,1.533-3.266,2.4-4.848.583-1.069,1.364-2.606,2.761-2.7s2.751,1.554,2.679,2.964c-.069,1.344-1.031,2.576-1.556,3.777a25.673,25.673,0,0,0-1.555,4.788c-1.4,6.41-.79,13-1.5,19.481a18.912,18.912,0,0,1-2.864,8.74c-.756,1.093-2.107,1.911-2.176,3.337a7.806,7.806,0,0,0,.121,1.138l.99,9.319h4.5q-.514-4.848-1.03-9.7m-21.1-34.315c1.659,1.354,2.246,4.041,3.044,5.949q1.692,4.05,3.181,8.176a1.242,1.242,0,0,1-.1,1.208,2.944,2.944,0,0,1-2.086,1.562,2.255,2.255,0,0,1-1.772-.772,9.022,9.022,0,0,1-.869-.9c-.1-.12-.182-.326-.278-.422-.033-.082-.061-.168-.1-.249-.1-.217-.2-.435-.3-.654-.239-.679-.479-1.357-.731-2.031-.542-1.449-1.063-3.771-2.768-4.27a2.275,2.275,0,0,0-2.768,1.571,3.727,3.727,0,0,0,.109,1.781.377.377,0,0,1,.363.321,1.844,1.844,0,0,0,.145.323,3.077,3.077,0,0,1-.385-.2c.414,1.232,1.156,2.476,1.575,3.437l.124.282c.1.287.2.574.307.86a6.768,6.768,0,0,0,.478.989c.073.33.19.679.209.858a2.3,2.3,0,0,1-.1,1.177c-.165.329-.281.291-.49.507.139-.143-1.054.956-.823.845a2.077,2.077,0,0,1-1.7-.112c-.114-.047-.5-.33-.568-.35-.08-.1-.161-.2-.124-.131a83.993,83.993,0,0,1-3.947-7.534c-1.043-2.291-5.086-.63-4.112,1.734.649,1.576,1.283,3.162,1.83,4.776.4,1.171,1.111,2.769.149,3.849-2.288,2.568-4.35-1.033-5.077-2.828-.469-1.159-.935-2.32-1.408-3.478-.7-1.713-1.863-3.436-1.647-5.362.163-1.447.259-2.019,1.647-2.416a.786.786,0,0,0,.222-.086c.035.007.073.014.137.022a5.324,5.324,0,0,1,1.039.339c.337.12.668.253,1,.381.187.072,1.112.463.164.061a2.286,2.286,0,0,0,3.386-1.943c0-.065.01-.131.016-.2.032-.119.116-.515.147-.621a2.287,2.287,0,0,1,4.14-.874c1.233,1.54,3.912.245,3.841-1.591-.007-.194.038-.819.019-.663a8.265,8.265,0,0,1,.538-1.774c.877-1.759,2.635-2.942,4.342-1.548" fill="#323232"/>
        <path id="路径_5180" data-name="路径 5180" d="M114.287,18.827C110.7,35.193,97.119,50,80.48,53.4a1.9,1.9,0,0,0-1.608,2.07,2.26,2.26,0,0,0-.374.563c-7.358,16.018,2.477,32.022,7.929,46.93A38.757,38.757,0,0,1,89.05,112.7a32.362,32.362,0,0,1-.348,7.833,46.875,46.875,0,0,1-6.262,17.327c-2.97,4.776-7.494,9.449-13.58,8.708-2.868-.349-2.843,4.154,0,4.5,10.687,1.3,17.674-9.3,21.289-18.719a2.121,2.121,0,0,0,.8.655c6.576,3.21,14.574,3.626,21.765,3.376,6.478-.226,13.9-.992,19.756-4.2a24.61,24.61,0,0,0,8.742,13.323,22.744,22.744,0,0,0,13.228,4.3c2.9.069,2.9-4.432,0-4.5-9.323-.22-16.055-6.74-18.015-15.643-2.513-11.419,3.933-21.15,10.289-30.037,1.688-2.359-2.213-4.609-3.885-2.271-3.79,5.3-7.542,10.848-9.676,16.93a43.618,43.618,0,0,1-1.351-9.887q.651-.6,1.274-1.231a39.811,39.811,0,0,0,8.2-12.41A32.5,32.5,0,0,0,143.047,85c.039.02.075.047.115.066a6.734,6.734,0,0,0,4.128.515,6.342,6.342,0,0,0,4.965-5.722,2.139,2.139,0,0,0,.047-.471,6.367,6.367,0,0,0-2.36-4.875,16.917,16.917,0,0,0,3.693-8c.547-3.918-.242-8.436-3.426-11.1a7.5,7.5,0,0,0-6.24-1.7c-.124.02-.256.048-.385.073-.092-13.867-5.7-29.9-18.265-36.686-2.549-1.376-4.824,2.508-2.271,3.885C135.3,27.6,139.8,44.221,139.007,57.212c-.143,2.336,3.067,2.914,4.192,1.136-.113.179-.2.3-.266.389a.731.731,0,0,1,.282-.126,5.233,5.233,0,0,0,.569-.223,4.218,4.218,0,0,1,2.194-.266,4.329,4.329,0,0,1,2.691,2.615,10.277,10.277,0,0,1-.187,7.827,15.746,15.746,0,0,1-3.093,4.516,6.256,6.256,0,0,0-4.193,2.14,7.016,7.016,0,0,0-.728,1.09,2.564,2.564,0,0,0-.547.921,15.894,15.894,0,0,0-.5,2.824,36.645,36.645,0,0,1-1.957,8.214,34.852,34.852,0,0,1-6.724,10.82c-5.546,6.044-13.269,9.788-21.579,9.275-7.731-.478-16.374-5.129-19.964-12.161a2.044,2.044,0,0,0-.943-.958c-1.364-3.232-2.779-6.442-4.01-9.684-3.283-8.649-5.93-18.4-1.859-27.258a2.4,2.4,0,0,0,.206-.793c17.653-4.049,32.207-20.01,36.035-37.486.619-2.823-3.718-4.029-4.338-1.2m31.4,62.383c-.077-.017-.154-.034-.23-.055-.059-.016-.115-.036-.172-.055.035.02.055.029.1.057-.037-.023-.077-.042-.115-.063l-.123-.039c-.117-.038-.15-.092-.055-.058a1.91,1.91,0,0,1-.178-.1c-.026-.016-.051-.034-.076-.052-.071-.07-.142-.142-.212-.217.078.1.015.093-.057-.017-.027-.041-.053-.083-.081-.124-.025-.025-.049-.054-.076-.078.034.03.045.045.071.069-.03-.044-.061-.089-.089-.135s-.069-.12-.1-.181c.014.048.023.071.042.14-.015-.055-.034-.109-.053-.162-.053-.109-.076-.211-.06-.187-.019-.056-.04-.111-.055-.169s-.022-.1-.032-.146a4.24,4.24,0,0,1,0-.465c-.009.042-.018.08-.031.135.014-.057.023-.115.034-.173.013-.158.074-.341.037-.142.03-.116.064-.23.1-.344.04-.075.079-.151.122-.224.027-.045.057-.089.085-.132-.025.024-.034.036-.067.065a.984.984,0,0,0,.077-.081c.017-.025.034-.051.05-.077.072-.115.143-.15.109-.09.042-.047.085-.1.131-.138l.084-.071c.066-.047.154-.114.249-.175l.035-.01c.1-.033.206-.072.311-.1.043-.012.15-.033.242-.052.12-.008.27-.019.321-.018s.121.005.181.009c.166.041.329.087.493.137.077.04.154.079.228.123.056.033.11.068.164.1.113.111.224.222.335.335.038.057.077.113.112.173s.081.146.12.219c.048.154.09.307.129.463,0-.055-.005-.094-.005-.176,0,.065.006.132.011.2.006.023.014.046.02.069a.352.352,0,0,1,.007.069c0,.027-.008.053-.009.081,0,0-.005-.03-.008-.042,0,.026,0,.052,0,.078,0,.114-.01.227-.014.341v.016c-.031.1-.069.2-.087.254-.006.019-.014.05-.021.076-.089.157-.179.309-.275.461-.034.039-.069.078-.1.114-.16.164-.641.446-.024.07-.152.092-.291.2-.447.291-.046.026-.093.049-.139.073-.144.044-.286.087-.433.121.052,0,.083,0,.158,0a1.664,1.664,0,0,0-.2.015l-.015,0c-.126.026-.213.013-.163,0-.118,0-.236,0-.353-.009m-.528-3.508a.453.453,0,0,1,.225-.086c.006,0-.123.048-.225.086m-38.695,34.864a30.232,30.232,0,0,0,21-4.8,76.315,76.315,0,0,0,1.35,7.7c.705,3.354,1.49,6.717,2.517,9.989.023.075.059.136.087.2.03.619.075,1.238.143,1.856-5.38,3.458-12.621,4.144-18.845,4.361-6.323.22-13.682.075-19.494-2.761a2.215,2.215,0,0,0-1.928-.05c.227-.72.434-1.423.617-2.1,1.517-5.6,2.377-11.717,1.182-17.458-.2-.97-.442-1.929-.7-2.884a31.856,31.856,0,0,0,14.074,5.944" fill="#323232"/>
        <path id="路径_5181" data-name="路径 5181" d="M60.55,113.665a71.688,71.688,0,0,1,5.074,9.476,49.753,49.753,0,0,1,2.5,9.43c.56,3.012.557,5.773-1.782,7.99-2.314,2.195-4.974,2.846-7.594.827a2.264,2.264,0,0,0-3.078.807,2.3,2.3,0,0,0,.807,3.078c4.662,3.593,10.552,1.55,14.083-2.615,3.7-4.366,2.217-10.219,1.011-15.251-1.486-6.2-4.454-11.415-7.648-16.877-3.345-5.721-5.806-11.4-5.442-18.159s2.84-13.229,5.01-19.573c2.232-6.525,4.3-13.1,6.376-19.678s4.158-13.15,6.417-19.665a78.217,78.217,0,0,1,6.659-15.24A25.556,25.556,0,0,1,95.226,7.3c4.824-1.972,11.522-3.807,16.528-1.458,2.607,1.223,4.894-2.655,2.272-3.885-4.721-2.215-10.1-1.837-15.047-.6a32.3,32.3,0,0,0-13.316,6.5c-8.454,7.284-11.945,19.012-15.35,29.216-4.387,13.144-8.494,26.38-12.871,39.53C55.4,82.742,53.6,89.229,53.986,95.764c.384,6.594,3.264,12.312,6.564,17.9" fill="#323232"/>
        <path id="路径_5182" data-name="路径 5182" d="M120.13,4.626A15.217,15.217,0,0,1,132.683,8.57,45.174,45.174,0,0,1,142.3,21.862c2.779,5.654,4.5,11.765,6.179,17.816q2.815,10.174,5.6,20.357c1.847,6.709,3.767,13.4,5.525,20.135,1.578,6.042,2.952,12.337,2.265,18.614-1.119,10.235-9.407,17.859-12.133,27.554-1.256,4.47-1.33,9.594,1.21,13.65,2.783,4.445,7.658,6.312,12.647,6.968,1.215.16,2.238-1.149,2.25-2.25a2.3,2.3,0,0,0-2.25-2.25c-3.847-.506-7.842-2.234-9.443-6.011-1.62-3.824-.557-8.378,1.025-12.026,1.969-4.536,4.794-8.753,7.072-13.143a33.643,33.643,0,0,0,4.291-15.708c.026-6.281-1.473-12.491-3.108-18.516-1.843-6.8-3.737-13.585-5.607-20.377-1.842-6.69-3.653-13.391-5.533-20.071a97.714,97.714,0,0,0-6.253-17.3,46.5,46.5,0,0,0-10.9-14.556A19.361,19.361,0,0,0,120.13.126c-2.849.309-2.88,4.812,0,4.5" fill="#323232"/>
        <path id="路径_5183" data-name="路径 5183" d="M142.933,58.738c-.235.166-.274.364,0,0" fill="#323232"/>
        <path id="路径_5184" data-name="路径 5184" d="M127.075,51.355q.334.161.66.339a14.222,14.222,0,0,1,1.259.785,2.262,2.262,0,0,0,3.078-.808,2.307,2.307,0,0,0-.807-3.078,16.384,16.384,0,0,0-13.06-2.341,2.27,2.27,0,0,0-1.572,2.767,2.3,2.3,0,0,0,2.768,1.572c.24-.058.482-.113.725-.159.107-.021.9-.19.318-.062a7,7,0,0,1,1.295-.093,14.1,14.1,0,0,1,1.482.042c.108.008.92.065.324.024a5.608,5.608,0,0,1,.641.109c.455.088.907.2,1.351.33.238.071.473.147.706.23l.378.141c.079.038.412.182.454.2" fill="#323232"/>
        <path id="路径_5185" data-name="路径 5185" d="M124.284,56.9c-2.9,0-2.9,4.5,0,4.5s2.9-4.5,0-4.5" fill="#323232"/>
        <path id="路径_5186" data-name="路径 5186" d="M111.455,74.477c-2.9,0-2.9,4.5,0,4.5s2.9-4.5,0-4.5" fill="#323232"/>
        <path id="路径_5187" data-name="路径 5187" d="M98.237,61.4c2.9,0,2.9-4.5,0-4.5s-2.9,4.5,0,4.5" fill="#323232"/>
        <path id="路径_5188" data-name="路径 5188" d="M188.539,162.254c-1.346-2.278-2.363-4.764-3.569-7.117a59.766,59.766,0,0,0-5.821-9.493,32.977,32.977,0,0,0-8.54-7.344,83.99,83.99,0,0,0-10.851-5.872,2.321,2.321,0,0,0-3.078.808,2.265,2.265,0,0,0,.807,3.078,84.657,84.657,0,0,1,10.461,5.624,28.734,28.734,0,0,1,7.9,6.737,59.9,59.9,0,0,1,5.408,9.062c.994,1.957,1.874,4,2.929,5.93h4.66a2.121,2.121,0,0,0-.3-1.413" fill="#323232"/>
        <path id="路径_5189" data-name="路径 5189" d="M184.182,163.667c.157.286.3.578.471.858,1.183,2,3.92.935,4.189-.858Z" fill="#323232"/>
        <path id="路径_5190" data-name="路径 5190" d="M147.777,78.934c0,.082,0,.121.005.177l.006.022c0-.067-.011-.133-.011-.2" fill="#fff"/>
        <path id="路径_5191" data-name="路径 5191" d="M147.806,79.351c0-.028.007-.053.009-.081a.358.358,0,0,0-.008-.069c-.005-.023-.013-.045-.019-.069.005.059.007.118.01.177a.241.241,0,0,0,.008.042" fill="#fff"/>
        <path id="路径_5192" data-name="路径 5192" d="M146.2,81.22l.015,0-.083.006c-.032,0-.063,0-.1,0-.05.014.037.027.163,0" fill="#fff"/>
        <path id="路径_5193" data-name="路径 5193" d="M146.416,81.2c-.075,0-.106,0-.158,0-.014,0-.027.009-.041.012a1.7,1.7,0,0,1,.2-.015" fill="#fff"/>
        <path id="路径_5194" data-name="路径 5194" d="M146.691,81.084c.046-.024.093-.048.138-.073.156-.088.3-.2.448-.292-.617.376-.136.1.024-.069.035-.037.07-.075.1-.115.1-.151.186-.3.275-.46.007-.026.015-.057.021-.077.018-.058.056-.156.087-.254v-.016c0-.114.013-.227.014-.341,0-.026,0-.052,0-.078a1.273,1.273,0,0,1-.016-.2c-.039-.156-.081-.309-.129-.463-.039-.074-.077-.148-.12-.22s-.074-.115-.112-.172c-.111-.113-.222-.224-.335-.335-.054-.036-.109-.071-.164-.1-.074-.044-.152-.082-.228-.122-.164-.051-.327-.1-.493-.138-.06,0-.12-.007-.181-.008s-.2.01-.321.018c-.093.018-.2.039-.242.052-.106.029-.207.067-.311.1l-.035.011c-.095.061-.184.127-.25.175-.033.028-.067.055-.083.071a1.708,1.708,0,0,0-.131.138,1.141,1.141,0,0,1-.169.182c-.029.044-.058.087-.085.132-.044.074-.082.15-.122.225-.037.113-.071.228-.1.344-.008.04-.022.1-.04.18a3.986,3.986,0,0,0,0,.464c.01.049.02.1.032.147s.036.113.055.169a1.607,1.607,0,0,1,.071.209c.032.061.066.121.1.18s.059.091.089.136a1.688,1.688,0,0,1,.143.15c.069.075.14.147.212.217.024.018.05.036.076.052.057.036.117.066.178.1a1.479,1.479,0,0,1,.194.1c.057.019.113.04.172.056.076.021.153.037.23.054.117.007.235.011.353.01a1.357,1.357,0,0,1,.218-.015c.147-.034.289-.077.433-.121" fill="#fff"/>
        <path id="路径_5195" data-name="路径 5195" d="M145.383,81.157c-.044-.028-.064-.037-.1-.057l-.016-.006c.038.021.079.04.115.063" fill="#fff"/>
        <path id="路径_5196" data-name="路径 5196" d="M144.411,80.412c.026.024.05.053.076.078l-.006-.009c-.026-.024-.037-.039-.07-.069" fill="#fff"/>
        <path id="路径_5197" data-name="路径 5197" d="M144.281,80.143c.019.054.037.108.053.163-.02-.07-.028-.092-.043-.14l0-.007-.007-.016" fill="#fff"/>
        <path id="路径_5198" data-name="路径 5198" d="M144.281,80.143c-.021-.062-.039-.124-.06-.186-.017-.025.006.077.06.186" fill="#fff"/>
        <path id="路径_5199" data-name="路径 5199" d="M145.145,81.055l.123.04c-.059-.032-.117-.066-.178-.1-.1-.034-.062.019.055.057" fill="#fff"/>
        <path id="路径_5200" data-name="路径 5200" d="M144.568,80.614c.072.11.135.12.057.017-.046-.049-.092-.095-.138-.141.028.041.054.083.081.124" fill="#fff"/>
        <path id="路径_5201" data-name="路径 5201" d="M144.169,79c.038-.2-.024-.016-.037.142l.008-.045c.008-.033.021-.064.029-.1" fill="#fff"/>
        <path id="路径_5202" data-name="路径 5202" d="M144.132,79.139c-.011.057-.02.116-.033.172.013-.054.021-.092.031-.134a.107.107,0,0,1,0-.018l0-.02" fill="#fff"/>
        <path id="路径_5203" data-name="路径 5203" d="M144.538,78.2l-.049.077c.053-.055.106-.109.158-.167.034-.06-.037-.025-.109.09" fill="#fff"/>
        <path id="路径_5204" data-name="路径 5204" d="M145.383,77.616a.453.453,0,0,0-.225.086c.1-.038.231-.085.225-.086" fill="#fff"/>
        <path id="路径_5205" data-name="路径 5205" d="M144.411,78.361c.033-.029.041-.041.067-.066l.01-.015c-.026.027-.05.057-.077.081" fill="#fff"/>
        <path id="路径_5206" data-name="路径 5206" d="M145.268,81.1l.016,0a1.417,1.417,0,0,0-.194-.1c.061.031.119.065.178.1" fill="#323232"/>
        <path id="路径_5207" data-name="路径 5207" d="M146.217,81.216l.04-.011a1.426,1.426,0,0,0-.218.014c.032,0,.063,0,.1,0l.083-.006" fill="#323232"/>
        <path id="路径_5208" data-name="路径 5208" d="M144.482,80.482l.006.008c.045.046.091.093.136.142a1.51,1.51,0,0,0-.142-.15" fill="#323232"/>
        <path id="路径_5209" data-name="路径 5209" d="M147.788,79.132l-.006-.022a1.182,1.182,0,0,0,.016.2c0-.059-.005-.118-.01-.177" fill="#323232"/>
        <path id="路径_5210" data-name="路径 5210" d="M144.281,80.143l.007.016,0,.007a1.522,1.522,0,0,0-.07-.209c.021.062.039.124.06.186" fill="#323232"/>
        <path id="路径_5211" data-name="路径 5211" d="M144.141,79.093l-.009.045,0,.02v.018c.018-.077.032-.139.04-.18-.009.033-.022.064-.029.1" fill="#323232"/>
        <path id="路径_5212" data-name="路径 5212" d="M144.647,78.113c-.052.058-.1.112-.159.167l-.01.015a1.1,1.1,0,0,0,.169-.182" fill="#323232"/>
        <path id="路径_5213" data-name="路径 5213" d="M103.628,84.491c-.046,0-.091.012-.137.015s-.1.011-.151.016-.132.016-.2.032c-.037.008-.076.008-.112.018s-.06.037-.1.049a2.337,2.337,0,0,0-.6.305,1.917,1.917,0,0,0-.191.154,2.1,2.1,0,0,0-.762,1.661,2.455,2.455,0,0,0,.078.5c0,.032,0,.064,0,.1a10.634,10.634,0,0,0,7.165,8.61,9.332,9.332,0,0,0,9.577-2.663,11.048,11.048,0,0,0,2.558-6.546,2.274,2.274,0,0,0-2.25-2.25h-14.88Zm8.24,7.346a1.921,1.921,0,0,1,.246-.04c-.02.03-.131.038-.246.04m3.177-1.765c-.023.029-.047.057-.071.083-.122.13-.24.262-.367.386-.11.108-.226.207-.34.31l-.027.025-.031.019c-.251.164-.5.326-.765.465-.035.017-.1.057-.16.093l-.055.016c-.08.023-.159.058-.238.084a7.034,7.034,0,0,1-.915.24c-.061.012-.124.019-.186.033l-.042.011c-.1,0-.207,0-.237,0-.3.012-.59,0-.886-.019-.007,0-.051-.008-.091-.014-.147-.03-.3-.054-.443-.09-.29-.071-.566-.173-.849-.265l-.015-.008c-.156-.08-.315-.157-.468-.243q-.2-.115-.4-.243l-.146-.1c-.067-.055-.222-.174-.263-.21-.157-.138-.308-.284-.453-.435-.125-.13-.235-.286-.366-.41-.035-.047-.07-.094-.1-.142-.146-.213-.263-.443-.389-.668h8.952c-.041.087-.082.173-.127.257-.155.289-.348.548-.521.824" fill="#323232"/>
      </g>
    </g>
  </g>
</svg>
