<svg xmlns="http://www.w3.org/2000/svg" xmlns:xlink="http://www.w3.org/1999/xlink" width="303.565" height="295" viewBox="0 0 303.565 295">
  <defs>
    <clipPath id="clip-path">
      <rect id="長方形_13719" data-name="長方形 13719" width="160.799" height="227.189" fill="#ffdf29"/>
    </clipPath>
    <clipPath id="clip-path-2">
      <rect id="長方形_13721" data-name="長方形 13721" width="122.771" height="151.874" fill="none"/>
    </clipPath>
  </defs>
  <g id="img_provider01" transform="translate(-20352.436 -11318)">
    <circle id="楕円形_200" data-name="楕円形 200" cx="147.5" cy="147.5" r="147.5" transform="translate(20352.436 11318)" fill="#e8f7fc"/>
    <g id="グループ_62196" data-name="グループ 62196" transform="translate(20495.201 11382.222)">
      <g id="グループ_62195" data-name="グループ 62195" clip-path="url(#clip-path)">
        <path id="パス_109109" data-name="パス 109109" d="M190.894,12.194l5.178-8.285.735-1.175a1.844,1.844,0,0,0-.655-2.5,1.866,1.866,0,0,0-2.5.655l-5.178,8.285-.735,1.175a1.845,1.845,0,0,0,.656,2.5,1.864,1.864,0,0,0,2.5-.656" transform="translate(-50.449 0)" fill="#323232"/>
        <path id="パス_109110" data-name="パス 109110" d="M198.331,27.689,208.68,22l1.476-.812a1.828,1.828,0,0,0-1.845-3.156l-10.348,5.692-1.477.812a1.828,1.828,0,1,0,1.845,3.155" transform="translate(-52.628 -4.788)" fill="#323232"/>
        <path id="パス_109111" data-name="パス 109111" d="M202.257,45.7H212.9a1.827,1.827,0,0,0,0-3.655H202.257a1.827,1.827,0,1,0,0,3.655" transform="translate(-53.93 -11.313)" fill="#323232"/>
        <path id="パス_109112" data-name="パス 109112" d="M131.4,200.369c-.025-.638-.335-.783-.932-.795-7.585-.148-15.186,0-22.774,0h-4.247c-.653,0-1.4-.151-1.5.615a17.885,17.885,0,0,0,0,2.392V227.2c1.77.182,3.311,1.426,4.689,2.653.257.23.52.452.779.68,1.606,1.411,3.234,2.8,4.863,4.183,1.986,1.688,3.978,3.369,5.941,5.082.826.72,1.63,1.466,2.454,2.188a4.175,4.175,0,0,0,1.237.766,1.465,1.465,0,0,1,.287,0l.019-.008a1.251,1.251,0,0,0-.116-.446c-.024-.048-.156-.255-.188-.311-.133-.183-.281-.357-.42-.535l-2.145-2.733-5.106-6.5-1.273-1.62q-2.024-2.578-4.049-5.155c-1.524-1.946-2.968-4.059-2.433-6.652a4.519,4.519,0,0,1,6.214-3.134,9.324,9.324,0,0,1,3.4,2.627q1.377,1.466,2.76,2.927,2.994,3.166,6,6.324,3.174,3.34,6.347,6.681.057-9.842.115-19.684.033-5.737.067-11.473c.005-.893.05-1.8.016-2.69m-23.888,6.755a1.828,1.828,0,0,1,0-3.655,1.828,1.828,0,0,1,0,3.655" transform="translate(-27.418 -53.682)" fill="#fff"/>
        <path id="パス_109113" data-name="パス 109113" d="M144.2,271.745a25.789,25.789,0,0,1-.1-5.478c.07-1.51.007-3.013-.037-4.522a48.739,48.739,0,0,0-.77-8.672,15.529,15.529,0,0,0-1.183-3.7,18.623,18.623,0,0,0-2.5-3.516c-1.693-2.049-3.457-4.04-5.232-6.018q-.012,2.085-.025,4.17a1.772,1.772,0,0,1-.261.939q1.149,1.217,2.3,2.433c1.61,1.713-.97,4.3-2.585,2.585l-.264-.279c-6.785-7.213-13.648-14.353-20.431-21.567a6.977,6.977,0,0,0-2-1.83,2.433,2.433,0,0,0-1.012-.167c-.276.049-.213.02-.367.192.2-.219-.1.281-.115.224a2.519,2.519,0,0,1-.084.282c-.008.1-.015.2-.015.286,0,.011.041.345.036.377a6.642,6.642,0,0,0,1.425,2.495c.742.955,1.493,1.9,2.24,2.852l9.427,12c1.155,1.471,2.705,3.028,2.761,4.994a3.7,3.7,0,0,1-3.84,3.75c-2.2-.007-3.747-1.662-5.271-3.019-2.93-2.61-5.953-5.117-8.937-7.665-1.4-1.2-2.805-2.4-4.177-3.632a5.341,5.341,0,0,0-1.713-1.2.894.894,0,0,0-.684-.045,1.515,1.515,0,0,0-.625.392c-.191.821.04,1.237.7,2.016.7.819,1.387,1.644,2.108,2.441,1.689,1.868,3.478,3.647,5.294,5.393,3.632,3.492,7.393,6.851,11.218,10.13a1.394,1.394,0,0,1,.252.287,1.907,1.907,0,0,1-.252,2.3,1.874,1.874,0,0,1-2.585,0q-1.285-1.1-2.558-2.216c-4.059-3.558-8.068-7.195-11.837-11.06-.044-.045-.087-.091-.132-.136a2.592,2.592,0,0,0-.06,1.009,4.033,4.033,0,0,0,.115.471c0,.016,0,.021.006.033.18.27.332.554.524.819.107.148.367.464.613.751.3.347.6.686.909,1.023.6.66,1.22,1.305,1.83,1.957,1.385,1.48,2.581,3.121,3.94,4.628,1.529,1.7,3.166,3.29,4.779,4.905a1.828,1.828,0,0,1-2.584,2.585c-1.908-1.909-3.839-3.794-5.6-5.839-1.167-1.353-2.283-2.721-3.471-4.045-.383,2.466,2.264,5.13,3.694,6.769,1.968,2.253,3.942,4.472,6.078,6.57,2.011,1.974,4.082,3.889,6.048,5.909a39.188,39.188,0,0,1,8.568,12.53h1.013l.018-.008,18.464-8.667a19.17,19.17,0,0,1-3.058-7.213" transform="translate(-26.936 -60.841)" fill="#fff"/>
        <path id="パス_109114" data-name="パス 109114" d="M75.767,212.264c-.041-.164-.088-.327-.144-.488-.029-.036-.175-.333-.207-.387-.017-.029-.029-.047-.04-.064-.05-.059-.1-.121-.156-.174s-.214-.188-.281-.25-.254-.156-.308-.188-.12-.061-.181-.091c-.211-.069-.42-.124-.635-.178l-.05-.013h-.048c-.2-.005-.387-.007-.583,0a.425.425,0,0,1-.081,0c-.022.007-.04.013-.074.022-.176.048-.352.093-.526.147a1.473,1.473,0,0,0-.151.078c-.047.031-.187.132-.262.181-.068.072-.186.189-.213.219.3-.33-.2.4-.045.058-.044.094-.077.194-.116.289q-.725,1.8-1.442,3.6l-2.908,7.268a1.911,1.911,0,0,1-1.762,1.341,1.863,1.863,0,0,1-1.762-1.341l-1-3.656a17.64,17.64,0,0,1-.356-3.029c-.319-3.384-.767-6.524-1.218-9.741-.911-6.506-1.932-13-2.813-19.508-.149-1.1-.267-2.213-.416-3.317a8.177,8.177,0,0,0-.586-2.175,1.283,1.283,0,0,0-1.238-.856c-2.366-.211-2.389,1.832-2.206,3.669l2.509,25.218a6.968,6.968,0,0,1,2.181,2.094,26.922,26.922,0,0,1,3.31,7.582c.765,2.677.468,6.084-1.954,7.827-.1.071-.2.137-.309.2a6.466,6.466,0,0,1-3.482.992,4.369,4.369,0,0,1-.98-.153,5.576,5.576,0,0,1-1.714,3.144,5.76,5.76,0,0,1-3.986,1.483,6.32,6.32,0,0,1-2.412-.578l-.03.043A42.883,42.883,0,0,1,55.764,244.6a1.875,1.875,0,0,1-.656,2.5,1.838,1.838,0,0,1-2.5-.656,40.123,40.123,0,0,0-8.156-12.386,1.848,1.848,0,0,1-.406-.656,4.94,4.94,0,0,1-4-1.39c-1.327-1.278-2.066-2.99-3.071-4.5a1.828,1.828,0,1,1,3.155-1.845c.456.684.841,1.413,1.27,2.113.224.368.49.71.713,1.077l.007.012.026.029c.064.072.124.148.189.22.142.158.293.3.447.447.007.007.016.013.024.02.189.1.159.1.086.058.035.024.07.047.105.067s.068.034.1.053a1.024,1.024,0,0,1,.2.053c.153,0,.361-.029.4-.032-.371.026-.093-.013.1-.058a.445.445,0,0,0,.134-.077.06.06,0,0,1,.055-.05l.015-.016c.024-.026.053-.061.082-.091.044-.062.1-.143.152-.222,0-.015.007-.025.015-.046.019-.057.04-.113.058-.17.05-.156.091-.313.125-.472.013-.06.023-.121.036-.182.076-.358-.017.116-.012.113.107-.061.036-.883.03-1.015,0-.032,0-.155,0-.272,0-.015-.01-.047-.025-.118s-.022-.121-.034-.182a6.93,6.93,0,0,0-.265-.952c-.047-.134-.1-.267-.15-.4-.03-.076-.072-.173-.1-.226-.311-.673-.621-1.345-.957-2.006q-.615-1.209-1.278-2.394c-.012-.022-.026-.039-.037-.062-.129-.272-.243-.542-.346-.811A2.421,2.421,0,0,0,39,219.067a2.927,2.927,0,0,0-2.682,2,1.981,1.981,0,0,1-.2.428c-.01.039-.012.08-.026.12-.85,2.45-.569,5.181-.143,7.716s1.061,5.03,1.595,7.544c.606,2.849,1,5.758,1.362,8.647a30.268,30.268,0,0,1-.029,9.851,57.034,57.034,0,0,1-2.6,8.271c6.059,4.661,15.1,7.465,22.3,4.151l.026-.009.481-1.4,5.365-15.567a2.075,2.075,0,0,1,.629-.918,1.944,1.944,0,0,1,.319-.461c.241-.255.469-.518.69-.786,3.608-4.39,4.489-10.474,5.437-15.909.885-5.078,2.215-10.021,3.363-15.04.315-1.378.751-3.012.9-4.272a6.012,6.012,0,0,0,.023-.827c-.005-.291.045,0-.043-.35" transform="translate(-9.563 -48.43)" fill="#fff"/>
        <path id="パス_109115" data-name="パス 109115" d="M64.4,230.962c-.377-1.2-.8-2.431-1.287-3.592a16.078,16.078,0,0,0-1.256-2.484c-.69-1.056-1.578-1.892-2.544-1.374a2.929,2.929,0,0,0-1.3,2.256c-.164,1.5.621,3.006,1.1,4.378.011.031.012.061.02.092a1.962,1.962,0,0,1,.3.576c.1.317.223.624.335.937l.022.049c.056.125.114.249.172.373.261.557.522,1.116.727,1.7.07.2.122.4.178.606.029.029.061.049.088.08.816.967,1.18,1.241,2.2.895a1.849,1.849,0,0,0,1.381-1.3c.021-.064.042-.128.061-.2a5.518,5.518,0,0,0-.2-2.99" transform="translate(-15.606 -60.098)" fill="#fff"/>
        <path id="パス_109116" data-name="パス 109116" d="M45.573,247.906c-.023-.016-.047-.031-.07-.045a.73.73,0,0,0,.07.045" transform="translate(-12.244 -66.692)" fill="#fab4b4"/>
        <path id="パス_109117" data-name="パス 109117" d="M48.072,232.152c.684,1.213,1.334,2.452,1.928,3.712a11.743,11.743,0,0,1,1.416,5.057c0,.03,0,.06,0,.09.046.031.091.064.139.092.131.077.273.137.4.215.038.014.076.028.115.04a4.267,4.267,0,0,0,.425.119c.037.009.085.012.132.018.224,0,.459-.013.682-.006.036-.007.072-.015.107-.024.1-.023.191-.051.285-.083.015-.005.037-.015.057-.023.073-.038.148-.073.219-.115a3.83,3.83,0,0,1,.326-.213l-.056.026c-.143.119-.284.132,0,0,.009-.007.017-.012.025-.02.084-.077.164-.159.24-.244l.005-.007a4.59,4.59,0,0,1,.311-.558c.009-.026.018-.053.026-.08.034-.11.061-.221.086-.333-.02.019-.03-.052.025-.186,0-.105.012-.209.011-.314q0-.21-.02-.42c-.007-.071-.015-.141-.023-.211,0-.026-.015-.122-.024-.19s-.018-.124-.02-.14c-.015-.1-.031-.193-.047-.289q-.039-.232-.086-.463c-.053-.261-.113-.521-.185-.778-.059-.212-.126-.422-.2-.629-.026-.069-.053-.137-.079-.2a24.878,24.878,0,0,1-1.147-2.768c-.016-.05-.019-.1-.03-.151a2.639,2.639,0,0,1-.294-.518c-.615-1.46-1.335-3.881-3.17-3.854a1.876,1.876,0,0,0-1.675,1.026,2.038,2.038,0,0,0-.137,1.876,5.957,5.957,0,0,1,.234.549" transform="translate(-12.828 -61.537)" fill="#fff"/>
        <path id="パス_109118" data-name="パス 109118" d="M199.3,212.349c.032.042.131.166.012.014l-.012-.014" transform="translate(-53.627 -57.137)" fill="#fab4b4"/>
        <path id="パス_109119" data-name="パス 109119" d="M47.508,247.2s-.024.069-.048.133c.033-.056.056-.106.048-.133" transform="translate(-12.77 -66.513)" fill="#fab4b4"/>
        <path id="パス_109120" data-name="パス 109120" d="M47.728,244.293s.024.133.035.2a.441.441,0,0,0-.035-.2" transform="translate(-12.842 -65.732)" fill="#fab4b4"/>
        <path id="パス_109121" data-name="パス 109121" d="M117.351,114.948c0-.029-.007-.064-.012-.1a.61.61,0,0,0,.012.1" transform="translate(-31.573 -30.902)" fill="#fab4b4"/>
        <path id="パス_109122" data-name="パス 109122" d="M45.444,247.823a.474.474,0,0,1,.043.028l-.016-.013-.027-.015" transform="translate(-12.228 -66.682)" fill="#fab4b4"/>
        <path id="パス_109123" data-name="パス 109123" d="M129.809,258.606c-.005,0-.01.007-.015.014h.007c.02-.022.049-.05.091-.09l-.083.077" transform="translate(-34.924 -69.563)" fill="#fab4b4"/>
        <path id="パス_109124" data-name="パス 109124" d="M138.964,310.281h-1.013c.054.134.116.262.169.4l.844-.4" transform="translate(-37.119 -83.488)" fill="#fab4b4"/>
        <path id="パス_109125" data-name="パス 109125" d="M117.362,115.065l0-.012-.01-.068a.614.614,0,0,1,.007.08" transform="translate(-31.577 -30.939)" fill="#fab4b4"/>
        <path id="パス_109126" data-name="パス 109126" d="M129.692,258.689l-.023.018a.216.216,0,0,1,.024-.014v0" transform="translate(-34.89 -69.606)" fill="#fab4b4"/>
        <path id="パス_109127" data-name="パス 109127" d="M46.059,248.151a1.006,1.006,0,0,0-.1-.023.061.061,0,0,1,.012.007l0,0a.251.251,0,0,0,.089.014" transform="translate(-12.365 -66.764)" fill="#fab4b4"/>
        <path id="パス_109128" data-name="パス 109128" d="M109.617,140.363c.069.031.071.029,0,0" transform="translate(-29.495 -37.768)" fill="#fab4b4"/>
        <path id="パス_109129" data-name="パス 109129" d="M132.339,88.936l-.009,0c-.2-.035-.107-.01.009,0" transform="translate(-35.576 -23.925)" fill="#fab4b4"/>
        <path id="パス_109130" data-name="パス 109130" d="M57.672,243.571a.582.582,0,0,0-.023.061v.039a.32.32,0,0,1,.024-.1" transform="translate(-15.511 -65.538)" fill="#fab4b4"/>
        <path id="パス_109131" data-name="パス 109131" d="M71.66,187.477c.013.1.018.134,0,0" transform="translate(-19.282 -50.445)" fill="#fab4b4"/>
        <path id="パス_109132" data-name="パス 109132" d="M163.149,302.515l-1.36.638-10.732,5.038H165.93c-.412-.871-.822-1.743-1.246-2.609-.5-1.023-1-2.053-1.534-3.068" transform="translate(-40.645 -81.398)" fill="#ffdf29"/>
        <path id="パス_109133" data-name="パス 109133" d="M193.6,278.608c-.626-4.927-.845-9.919-1.137-14.873-.412-6.993-.766-13.989-1.153-20.983-.344-6.23-.68-12.464-1.2-18.681-.094-1.112-.194-2.225-.314-3.335-.05-.466-.1-.93-.162-1.4-.008-.061-.012-.1-.016-.131s-.007-.044-.013-.086c-.025-.168-.049-.336-.075-.5a28.89,28.89,0,0,0-2.606-8.052,19.351,19.351,0,0,0-1.177-2.05c-.115-.173-.237-.342-.355-.514-.049-.069-.1-.137-.151-.205-.224-.284-.46-.561-.705-.827a15.782,15.782,0,0,0-1.525-1.433l-.144-.114-.084-.063c-.137-.1-.275-.2-.414-.3q-.424-.293-.866-.56a37.429,37.429,0,0,0-8.144-3.422,1.914,1.914,0,0,1-2.232-.268c-.143-.124-.281-.253-.421-.38a9.5,9.5,0,0,1-5.018-.175,1.9,1.9,0,0,1-2.7,2.117,27.635,27.635,0,0,1-7.592-5.611,16.886,16.886,0,0,1-1.069-1.315l-.274.244-6.718,5.972c-.034.03-.071.051-.106.079-.018.524-.04,1.036-.043,1.515q-.036,6.351-.074,12.7l-.061,10.488a1.741,1.741,0,0,1,.691.482c2.725,3.03,5.473,6.047,8.022,9.229a16.78,16.78,0,0,1,2.452,3.794,20.646,20.646,0,0,1,1.32,4.288,56.12,56.12,0,0,1,.818,9.125c.044,1.5.115,2.988.048,4.484a20.23,20.23,0,0,0,.061,5.2,17.387,17.387,0,0,0,2.461,5.618,1.974,1.974,0,0,1,.924.759,58.546,58.546,0,0,1,2.917,5.5q.894,1.822,1.751,3.663a2.3,2.3,0,0,1,.208.79h24.987c-.036-.259-.075-.518-.107-.776" transform="translate(-39.566 -52.591)" fill="#fbdf55"/>
        <path id="パス_109134" data-name="パス 109134" d="M143.979,155.909c-3.56-3.246-5.858-7.426-5.7-12.361.138-4.393,1.711-8.583,2.461-12.88,1.713-9.823-2.3-19.331-4.283-28.78-2.4-11.413-3.582-23.015-5.369-34.526-1.318-8.485-3.828-16.909-9.732-23.381a36.883,36.883,0,0,0-10.242-7.788c-3.461-1.816-7.981-3.732-11.852-3.168a1.874,1.874,0,0,1-2.248-1.276,1.957,1.957,0,0,1,.129-1.267,13.313,13.313,0,0,0-2.988-.517,1.928,1.928,0,0,1,.569,1.314,1.874,1.874,0,0,1-1.827,1.827c-1.274.1-2.538.254-3.8.478-9.89,1.764-19.486,7.133-25.072,15.654-3.2,4.88-4.779,10.6-5.872,16.281-1.2,6.2-1.729,12.512-2.862,18.726-1.7,9.3-5.724,18.036-7.315,27.359q-.065.383-.121.767l-.007.049,0,.014c-.01.08-.02.162-.029.242-.036.368-.064.735-.075,1.1a21.752,21.752,0,0,0,.084,2.555c.091,1.043.151,1.439.3,2.384s.337,1.9.529,2.851c.826,4.059,1.859,8.079,2.451,12.183.576,4,.876,8.221-.356,12.136a14.421,14.421,0,0,1-1.649,3.484A20.428,20.428,0,0,0,53.8,147.94c.079-.036.157-.075.236-.112q-.084-.855-.17-1.711l-.254-2.553c-.021-.217-.047-.433-.065-.651l0-.035c-.02-.163-.061-.536-.067-.645a6.084,6.084,0,0,1,2.5-5.328,5.769,5.769,0,0,1,6.491.112,4.9,4.9,0,0,1,.7.682c1.6-6.21.407-12.894-.653-19.09a1.869,1.869,0,0,1,1.276-2.248,1.842,1.842,0,0,1,2.248,1.276,82.719,82.719,0,0,1,1.521,12.926,26.547,26.547,0,0,1-1.572,10.273,17.231,17.231,0,0,1-1.033,2.082c.048.412.093.824.144,1.235.034.268.069.536.1.8.005.042.01.082.015.118.02.148.04.3.061.446s.045.311.066.466a2.114,2.114,0,0,1,1.658.488l2.47,1.986,14.244,11.457v-4.938A4.406,4.406,0,0,1,87.97,150.3c2.559-.1,5.145,0,7.706,0H114.6a7.748,7.748,0,0,1,3.493.441,3.823,3.823,0,0,1,1.929,2.036l5.657-5.028c.019-.018.04-.028.06-.045a18.018,18.018,0,0,1-.751-2.058,2.157,2.157,0,0,1-1.491-.133c-4.338-1.986-6.619-6.548-7.788-10.943a53.587,53.587,0,0,1-1.478-10.086,30.529,30.529,0,0,1-10.588,6.929c-6.148,2.271-13.049,1.005-18.866-1.639a30.468,30.468,0,0,1-6.225-3.787,46.433,46.433,0,0,1-1.4,9c-.976,3.6-2.631,7.29-5.6,9.68a1.871,1.871,0,0,1-2.585,0,1.839,1.839,0,0,1,0-2.584c2.586-2.083,3.905-5.176,4.727-8.318A47.5,47.5,0,0,0,75.029,123.6a1.913,1.913,0,0,1,.162-.7,31.041,31.041,0,0,1-7.561-14.3c-.435-2.041-.7-4.114-1.007-6.18a1.789,1.789,0,0,1-1.186-.191c-5.315-2.784-9.046-8.33-8-14.461.772-4.536,4.533-10.484,9.908-8.242a1.874,1.874,0,0,1,1.276,2.248,1.838,1.838,0,0,1-2.248,1.276,4.312,4.312,0,0,0-1.25-.348,3.472,3.472,0,0,1-.378.018c-.165.04-.473.132-.441.119a4.094,4.094,0,0,0-1.471,1.252,10.164,10.164,0,0,0-1.9,4.812c-.526,4.1,2.134,7.6,5.46,9.658a1.7,1.7,0,0,1,1.107-.912,1.843,1.843,0,0,1,2.248,1.276c.538,3.047.817,6.149,1.508,9.169a28.383,28.383,0,0,0,3.756,8.727,26.431,26.431,0,0,0,12.868,10.32c5.309,2.037,11.217,2.634,16.438.026a30.661,30.661,0,0,0,12.584-12A37.715,37.715,0,0,0,121.265,99.2a1.882,1.882,0,0,1,1.556-1.8,11.278,11.278,0,0,0,6.262-8.015,7.5,7.5,0,0,0-.832-5.481c-.657-1.026-1.671-2.226-2.844-1.784a1.841,1.841,0,0,1-2.248-1.276,1.878,1.878,0,0,1,1.276-2.248c2.6-.979,4.976.774,6.475,2.761a10.489,10.489,0,0,1,1.922,7.464,14.8,14.8,0,0,1-8.022,11.665c-.621,6.574-2.288,13.1-6.057,18.612-.375.547-.773,1.088-1.184,1.622a1.926,1.926,0,0,1,.12.556,62.769,62.769,0,0,0,1.433,11.886c.857,3.416,2.248,6.714,5.095,8.569-.626-5.76.648-11.984,1.327-17.616a1.872,1.872,0,0,1,1.827-1.827,1.837,1.837,0,0,1,1.827,1.827c-.362,3-.8,5.991-1.13,9-.476,4.328-.8,8.54.661,12.467a14.1,14.1,0,0,0,3.082,4.667,25.653,25.653,0,0,0,6.294,4.449,1.619,1.619,0,0,1,.855,1.038,9.5,9.5,0,0,0,5.018.175M68.745,77.537c.115,2.355-3.541,2.341-3.655,0A31.882,31.882,0,0,1,78.84,48.878a1.841,1.841,0,0,1,2.5.656,1.88,1.88,0,0,1-.656,2.5,29.467,29.467,0,0,0-8.918,10.242,29.842,29.842,0,0,0-3.021,15.262m3.574-1.332c-2.293.527-3.263-3-.971-3.525a26.7,26.7,0,0,0,10.367-4.808,34.737,34.737,0,0,0,7.83-8.821c1.273-1.972,4.435-.137,3.156,1.845a38.709,38.709,0,0,1-8.607,9.719,30.135,30.135,0,0,1-11.775,5.589M83.482,86.913a1.828,1.828,0,0,1,0-3.655,1.828,1.828,0,0,1,0,3.655m.583-10.837a1.866,1.866,0,0,1-1.827-1.827,1.841,1.841,0,0,1,1.827-1.827,10.62,10.62,0,0,0,5.749-1.238,43.428,43.428,0,0,0,7.714-4.725,27.088,27.088,0,0,0,9.248-13.451c.683-2.248,4.21-1.284,3.525.971a30.65,30.65,0,0,1-3.526,7.672A33.84,33.84,0,0,1,95.843,71.979c-3.5,2.183-7.5,4.48-11.778,4.1M98.52,91c.015.258.034.515.061.772,0,.011.017.129.03.238a.5.5,0,0,1,.022.168v.01a11.35,11.35,0,0,0,.355,1.516,1.828,1.828,0,0,1-3.525.971,18.641,18.641,0,0,1-.57-6.712,30.765,30.765,0,0,1,.477-3.826,1.828,1.828,0,0,1,3.525.971c-.062.316-.111.635-.158.954,0,.031-.009.061-.012.091-.022.178-.044.356-.064.534q-.069.636-.113,1.275A24.355,24.355,0,0,0,98.52,91m-3.107,8.183.251,0,1.747.018a1.918,1.918,0,0,1,1.292.535,1.835,1.835,0,0,1,.47.806c.021.162.043.324.065.486a1.878,1.878,0,0,1-1.827,1.827l-.251,0-1.747-.018a1.911,1.911,0,0,1-1.292-.535,1.821,1.821,0,0,1-.47-.806l-.066-.486a1.878,1.878,0,0,1,1.827-1.827m7.47,13.915a12.194,12.194,0,0,1-12.789.17,1.827,1.827,0,1,1,1.844-3.155c.2.121.4.238.614.346.117.06.235.116.354.172l.037.018a11.692,11.692,0,0,0,1.259.407q.315.08.632.14c.106.02.214.034.32.056l.026.006.053,0a12.7,12.7,0,0,0,1.3.064c.245,0,.489-.013.732-.031.108-.008.216-.024.324-.029h.015a12.157,12.157,0,0,0,1.318-.292q.344-.1.679-.228l.167-.069.123-.059a8.561,8.561,0,0,0,1.145-.673,1.828,1.828,0,1,1,1.845,3.155M108.2,86.913a1.828,1.828,0,0,1,0-3.655,1.828,1.828,0,0,1,0,3.655m7.758-11.867a1.85,1.85,0,0,1-2.584,0c-.2-.2-.411-.387-.623-.572l-.074-.063c-.088-.066-.178-.132-.27-.194a8.533,8.533,0,0,0-1.214-.7c-.02-.009-.113-.047-.165-.069l-.161-.057c-.208-.072-.419-.135-.632-.189s-.414-.094-.623-.132c-.077-.006-.156-.015-.233-.021a8.452,8.452,0,0,0-1.262.019c-.089.019-.181.031-.271.05q-.306.062-.607.151c-.2.058-.388.134-.583.2l-.022.011c-.083.041-.168.08-.251.124a8.036,8.036,0,0,0-1.077.672,1.847,1.847,0,0,1-2.5-.655,1.873,1.873,0,0,1,.655-2.5,9.1,9.1,0,0,1,6.058-1.715,10.449,10.449,0,0,1,6.437,3.052,1.858,1.858,0,0,1,0,2.584m4.166,1.985a59.576,59.576,0,0,0-2.285-13.383c-1.181-4.146-2.82-8.641-5.636-11.863a1.828,1.828,0,1,1,2.585-2.585c3.255,3.725,5.139,8.519,6.5,13.216a63.933,63.933,0,0,1,2.49,14.615c.115,2.355-3.541,2.341-3.655,0" transform="translate(-12.844 -8.063)" fill="#fff"/>
        <path id="パス_109135" data-name="パス 109135" d="M100.429,260.992a73.513,73.513,0,0,1-6.321-7.371c-1.953-2.685-3.014-5.831-1.476-8.971a1.394,1.394,0,0,1,.16-.244,9.977,9.977,0,0,1-1.478-2.218,5.816,5.816,0,0,1,.624-5.881c-.732-.822-1.444-1.661-2.114-2.527A5.209,5.209,0,0,1,88.6,229.9a3.984,3.984,0,0,1,1-2.44c.111-.115.229-.22.348-.325v-18.26l-2.2-1.767-15.565-12.52c.767,5.312,1.576,10.617,2.305,15.935.41,2.99.827,5.983,1.108,8.988l1.419-3.547a15.463,15.463,0,0,1,1.324-3.019,5.552,5.552,0,0,1,5.18-2.209,5.962,5.962,0,0,1,4.863,3.311c1.263,2.754.147,5.924-.492,8.705-.609,2.649-1.326,5.271-1.944,7.918-.667,2.853-1.16,5.733-1.674,8.616-1.061,5.953-2.495,12.149-6.781,16.675-.04.043-.084.072-.126.11l-.642,1.861L72,271.647a1.923,1.923,0,0,1,.429,1.729l-.213.8-1.324,4.974H115.96a29.868,29.868,0,0,0-3.383-5.606c-3.533-4.643-8.137-8.349-12.149-12.551" transform="translate(-19.075 -52.358)" fill="#fbdf55"/>
        <path id="パス_109136" data-name="パス 109136" d="M18.771,279.282c1.466-3.823,2.786-7.7,4.252-11.525a1.9,1.9,0,0,1,1.753-1.324,41.108,41.108,0,0,0,2.572-8.852,35.571,35.571,0,0,0-.586-9.593c-.384-2.6-.824-5.165-1.4-7.726a75.966,75.966,0,0,1-1.493-7.944,16.434,16.434,0,0,1,.484-7.258,2.2,2.2,0,0,1,.2-.411c.012-.046.015-.089.031-.137a6.68,6.68,0,0,1,6.206-4.688,7.189,7.189,0,0,1,2.111.3,6.068,6.068,0,0,1,.3-.678,5.546,5.546,0,0,1,4.026-3,5.671,5.671,0,0,1,3.188.394,6.438,6.438,0,0,1,1.851-3.037,5.008,5.008,0,0,1,2.272-1.183c-.465-4.5-.9-9.007-1.343-13.51q-.136-1.362-.271-2.725a26.394,26.394,0,0,1-8.956,1.8,1.443,1.443,0,0,1-.606.562c-1.063.5-2.131,1-3.2,1.493-7.813,3.629-16.975,7.816-19.523,16.823a23.376,23.376,0,0,0-.559,2.621v0c-.016.129-.033.257-.048.386-.1.817-.184,1.637-.268,2.456-.253,2.482-.479,4.967-.7,7.451q-.929,10.409-1.76,20.827-.815,9.985-1.6,19.972-.349,4.427-.693,8.854H18.69a1.321,1.321,0,0,1,.08-.354" transform="translate(-1.345 -52.843)" fill="#fbdf55"/>
        <path id="パス_109137" data-name="パス 109137" d="M55.924,306.7l.213-.8.629-2.362c-8.3,2.837-17.721-.016-24.57-5.252-1.081,2.919-2.117,5.856-3.221,8.767H55.869a1.758,1.758,0,0,1,.056-.354" transform="translate(-7.796 -80.26)" fill="#ffdf29"/>
        <path id="パス_109138" data-name="パス 109138" d="M57.616,243.855c.01-.009.02-.035.022-.1,0-.017,0-.034,0-.051-.005.041-.009.083-.015.116,0,.01-.006.02-.008.031" transform="translate(-15.503 -65.575)" fill="#fab4b4"/>
        <path id="パス_109139" data-name="パス 109139" d="M188.714,234.263c-.021-.137-.039-.273-.061-.41-.01-.078-.02-.156-.03-.235q-.079-.647-.145-1.3c-.108-1.053-.2-2.108-.284-3.163-.224-2.8-.4-5.606-.574-8.412-.429-7.06-.786-14.124-1.172-21.187-.354-6.458-.7-12.921-1.217-19.368-.181-2.244-.381-4.487-.7-6.717A31.546,31.546,0,0,0,182.3,165.8a19.083,19.083,0,0,0-5.828-8.013,31.924,31.924,0,0,0-9.237-4.473c-.994-.344-1.993-.672-2.993-1a1.92,1.92,0,0,0-.473-.088,13.492,13.492,0,0,1-2.866-4.011,10.786,10.786,0,0,1-.857-4.907c.116-3.69,1.476-7.447,2.195-11.174a40.583,40.583,0,0,0-.153-14.893c-.9-5.051-2.492-9.944-3.638-14.94-2.656-11.575-3.867-23.454-5.581-35.188-1.31-8.966-3.913-17.745-9.816-24.808a38.919,38.919,0,0,0-10.411-8.64c-3.973-2.3-8.455-4.238-13.083-4.56a14.669,14.669,0,0,0-3.156.157,1.549,1.549,0,0,0-1.147.981,66.02,66.02,0,0,1,6.39,2.535,66.02,66.02,0,0,0-6.39-2.535,1.956,1.956,0,0,0-.129,1.267,1.875,1.875,0,0,0,2.248,1.276c3.871-.565,8.391,1.351,11.852,3.168a36.869,36.869,0,0,1,10.242,7.788c5.9,6.472,8.414,14.895,9.732,23.38,1.787,11.511,2.969,23.113,5.369,34.527,1.987,9.449,6,18.957,4.283,28.779-.75,4.3-2.323,8.488-2.461,12.88-.161,5.129,2.323,9.445,6.124,12.742a1.914,1.914,0,0,0,2.232.268,37.393,37.393,0,0,1,8.144,3.422q.441.268.866.56c.14.1.277.2.414.3l.084.062.144.115a15.784,15.784,0,0,1,1.525,1.433c.246.266.482.542.705.827.051.068.1.136.151.205.118.171.24.341.355.514a19.154,19.154,0,0,1,1.177,2.05,28.891,28.891,0,0,1,2.606,8.052c.026.168.05.336.075.5.007.042.01.061.013.086s.008.07.016.131c.057.465.112.93.162,1.4.119,1.11.22,2.223.314,3.335.523,6.217.859,12.451,1.2,18.681.387,6.994.741,13.99,1.153,20.982.292,4.955.51,9.946,1.137,14.874.033.259.072.518.107.776h3.641a2.639,2.639,0,0,0-.031-.354m-12.075-71.227.012.014c.119.152.02.028-.012-.014" transform="translate(-30.964 -7.824)" fill="#323232"/>
        <path id="パス_109140" data-name="パス 109140" d="M119.478,61.02a27.088,27.088,0,0,1-9.248,13.451,43.454,43.454,0,0,1-7.714,4.725,10.621,10.621,0,0,1-5.749,1.238,1.841,1.841,0,0,0-1.827,1.827,1.866,1.866,0,0,0,1.827,1.827c4.281.383,8.279-1.915,11.778-4.1a33.839,33.839,0,0,0,10.932-10.327A30.61,30.61,0,0,0,123,61.992c.686-2.255-2.84-3.219-3.524-.971" transform="translate(-25.545 -16.075)" fill="#323232"/>
        <path id="パス_109141" data-name="パス 109141" d="M80.53,86.6a30.135,30.135,0,0,0,11.775-5.589,38.7,38.7,0,0,0,8.607-9.719c1.278-1.982-1.884-3.816-3.156-1.845a34.741,34.741,0,0,1-7.83,8.822,26.708,26.708,0,0,1-10.367,4.807c-2.291.527-1.322,4.052.971,3.525" transform="translate(-21.055 -18.459)" fill="#323232"/>
        <path id="パス_109142" data-name="パス 109142" d="M87.057,58.9a1.881,1.881,0,0,0,.656-2.5,1.842,1.842,0,0,0-2.5-.655A31.884,31.884,0,0,0,71.463,84.4c.114,2.34,3.769,2.354,3.655,0a29.85,29.85,0,0,1,3.02-15.262A29.467,29.467,0,0,1,87.057,58.9" transform="translate(-19.217 -14.928)" fill="#323232"/>
        <path id="パス_109143" data-name="パス 109143" d="M143.663,83.917c.114,2.341,3.769,2.355,3.655,0a63.933,63.933,0,0,0-2.49-14.615c-1.362-4.7-3.246-9.491-6.5-13.216a1.828,1.828,0,0,0-2.585,2.585c2.816,3.222,4.455,7.717,5.636,11.863a59.579,59.579,0,0,1,2.285,13.383" transform="translate(-36.384 -14.949)" fill="#323232"/>
        <path id="パス_109144" data-name="パス 109144" d="M123.64,85.634a1.873,1.873,0,0,0-.655,2.5,1.847,1.847,0,0,0,2.5.656,7.922,7.922,0,0,1,1.077-.673c.083-.043.168-.083.251-.124l.022-.011c.194-.067.385-.142.583-.2s.4-.11.607-.151c.09-.018.182-.031.271-.05a8.452,8.452,0,0,1,1.262-.019c.077.006.155.015.233.021.209.038.417.079.623.132s.424.118.632.189l.161.057.165.069a8.53,8.53,0,0,1,1.214.7c.091.063.181.128.27.194l.074.063c.213.186.422.374.623.572a1.827,1.827,0,1,0,2.584-2.584,10.449,10.449,0,0,0-6.437-3.052,9.1,9.1,0,0,0-6.058,1.715m6.146,1.948c-.116-.012-.2-.037-.009,0l.009,0" transform="translate(-33.023 -22.571)" fill="#323232"/>
        <path id="パス_109145" data-name="パス 109145" d="M129.807,106.532a1.828,1.828,0,0,0,0-3.655,1.828,1.828,0,0,0,0,3.655" transform="translate(-34.453 -27.681)" fill="#323232"/>
        <path id="パス_109146" data-name="パス 109146" d="M95.991,106.532a1.828,1.828,0,0,0,0-3.655,1.828,1.828,0,0,0,0,3.655" transform="translate(-25.354 -27.681)" fill="#323232"/>
        <path id="パス_109147" data-name="パス 109147" d="M116,106.141c.02-.178.042-.357.063-.534l.013-.091c.047-.319.1-.637.158-.954a1.828,1.828,0,0,0-3.525-.971,30.751,30.751,0,0,0-.477,3.826,18.641,18.641,0,0,0,.57,6.712,1.828,1.828,0,0,0,3.525-.971,11.35,11.35,0,0,1-.355-1.516v-.01l0,.012a.61.61,0,0,0-.007-.08.61.61,0,0,1-.012-.1c-.013-.109-.029-.227-.03-.238-.026-.257-.046-.514-.061-.772a24.216,24.216,0,0,1,.029-3.038q.044-.638.113-1.275" transform="translate(-30.179 -27.517)" fill="#323232"/>
        <path id="パス_109148" data-name="パス 109148" d="M117.361,115.016a.536.536,0,0,0-.022-.168c0,.037.008.071.012.1l.01.068" transform="translate(-31.573 -30.902)" fill="#323232"/>
        <path id="パス_109149" data-name="パス 109149" d="M111,125.2a2.032,2.032,0,0,0-.535,1.292c.022.162.043.324.065.486a1.828,1.828,0,0,0,.47.806,1.916,1.916,0,0,0,1.292.535l1.746.017.251,0a1.878,1.878,0,0,0,1.827-1.827c-.022-.162-.043-.324-.065-.486a1.824,1.824,0,0,0-.47-.806,1.91,1.91,0,0,0-1.292-.535l-1.746-.018-.251,0A2.033,2.033,0,0,0,111,125.2" transform="translate(-29.723 -33.543)" fill="#323232"/>
        <path id="パス_109150" data-name="パス 109150" d="M108.172,139.975c-.118-.057-.237-.113-.354-.173-.209-.107-.413-.224-.613-.346a1.828,1.828,0,1,0-1.845,3.156,12.194,12.194,0,0,0,12.789-.171,1.828,1.828,0,1,0-1.845-3.155,8.565,8.565,0,0,1-1.145.674l-.123.058c-.056.023-.148.063-.166.069q-.335.127-.68.229a11.979,11.979,0,0,1-1.318.292h-.015c-.107.006-.216.021-.324.029q-.365.029-.732.032c-.436,0-.868-.024-1.3-.064l-.053,0-.026-.007c-.106-.022-.213-.036-.32-.056q-.318-.061-.632-.14a11.693,11.693,0,0,1-1.259-.408l-.037-.017m.061.028c.071.029.069.031,0,0" transform="translate(-28.11 -37.407)" fill="#323232"/>
        <path id="パス_109151" data-name="パス 109151" d="M57.61,243.84c0-.01.006-.02.008-.031.007-.033.01-.075.015-.116v-.039c-.055.135-.045.205-.025.186" transform="translate(-15.497 -65.56)" fill="#323232"/>
        <path id="パス_109152" data-name="パス 109152" d="M56.607,245.607c-.284.132-.143.119,0,0" transform="translate(-15.187 -66.086)" fill="#323232"/>
        <path id="パス_109153" data-name="パス 109153" d="M45.481,247.842l.016.013c.023.015.047.029.07.045.072.041.1.041-.086-.058" transform="translate(-12.238 -66.687)" fill="#323232"/>
        <path id="パス_109154" data-name="パス 109154" d="M108.93,208.582a1.828,1.828,0,0,0,0-3.655,1.828,1.828,0,0,0,0,3.655" transform="translate(-28.835 -55.14)" fill="#323232"/>
        <path id="パス_109155" data-name="パス 109155" d="M128.944,233.874q-.854-1.841-1.75-3.663a58.619,58.619,0,0,0-2.917-5.5,1.972,1.972,0,0,0-.925-.759,17.4,17.4,0,0,1-2.461-5.618,20.267,20.267,0,0,1-.061-5.2c.067-1.5,0-2.988-.048-4.484a56.2,56.2,0,0,0-.817-9.125,20.605,20.605,0,0,0-1.321-4.288,16.755,16.755,0,0,0-2.452-3.794c-2.549-3.182-5.3-6.2-8.022-9.229a1.753,1.753,0,0,0-.691-.483q.031-5.243.061-10.487l.075-12.7c0-.479.024-.992.043-1.515.035-.028.072-.05.106-.08l6.717-5.971.275-.244a16.859,16.859,0,0,0,1.069,1.315,27.627,27.627,0,0,0,7.593,5.611c2.074,1.107,3.922-2.047,1.844-3.155a25.688,25.688,0,0,1-6.293-4.449,14.1,14.1,0,0,1-3.083-4.668c-1.459-3.927-1.137-8.14-.661-12.467.33-3,.769-6,1.13-8.995a1.837,1.837,0,0,0-1.827-1.827,1.872,1.872,0,0,0-1.827,1.827c-.679,5.632-1.952,11.856-1.327,17.615-2.847-1.855-4.239-5.154-5.095-8.569a62.651,62.651,0,0,1-1.433-11.886,1.956,1.956,0,0,0-.12-.556c.411-.534.809-1.074,1.183-1.621,3.77-5.514,5.436-12.038,6.058-18.612a14.8,14.8,0,0,0,8.021-11.665,10.493,10.493,0,0,0-1.922-7.464c-1.5-1.986-3.875-3.739-6.475-2.761a1.879,1.879,0,0,0-1.276,2.248,1.841,1.841,0,0,0,2.248,1.276c1.173-.441,2.187.758,2.844,1.784a7.506,7.506,0,0,1,.833,5.482,11.279,11.279,0,0,1-6.262,8.014,1.884,1.884,0,0,0-1.557,1.8,37.7,37.7,0,0,1-4.363,15.966,30.653,30.653,0,0,1-12.584,12c-5.222,2.609-11.128,2.011-16.439-.026a26.431,26.431,0,0,1-12.868-10.32,28.379,28.379,0,0,1-3.756-8.726c-.691-3.019-.97-6.122-1.508-9.169a1.843,1.843,0,0,0-2.248-1.276,1.7,1.7,0,0,0-1.108.913c-3.326-2.056-5.986-5.559-5.459-9.658a10.156,10.156,0,0,1,1.9-4.812,4.094,4.094,0,0,1,1.471-1.253c-.031.013.276-.078.441-.119a3.309,3.309,0,0,0,.379-.018,4.338,4.338,0,0,1,1.249.348,1.837,1.837,0,0,0,2.248-1.276A1.874,1.874,0,0,0,54.5,79.338c-5.375-2.242-9.135,3.707-9.907,8.243-1.044,6.131,2.688,11.677,8,14.461a1.79,1.79,0,0,0,1.186.191c.3,2.066.571,4.139,1.006,6.181a31.042,31.042,0,0,0,7.561,14.3,1.9,1.9,0,0,0-.161.7,47.557,47.557,0,0,1-1.33,10.163c-.821,3.141-2.141,6.235-4.726,8.317a1.839,1.839,0,0,0,0,2.585,1.87,1.87,0,0,0,2.584,0c2.969-2.392,4.625-6.081,5.6-9.681a46.527,46.527,0,0,0,1.4-9,30.413,30.413,0,0,0,6.224,3.788c5.817,2.644,12.719,3.91,18.866,1.639a30.517,30.517,0,0,0,10.589-6.93,53.568,53.568,0,0,0,1.477,10.086c1.169,4.4,3.45,8.958,7.788,10.943a2.149,2.149,0,0,0,1.491.133,18.1,18.1,0,0,0,.751,2.058c-.019.016-.04.028-.059.045l-5.657,5.029a3.818,3.818,0,0,0-1.929-2.036,7.738,7.738,0,0,0-3.493-.441H82.832c-2.561,0-5.146-.105-7.706,0a4.406,4.406,0,0,0-4.253,4.678v4.937L56.63,148.269l-2.47-1.987a2.112,2.112,0,0,0-1.658-.488c-.022-.156-.045-.311-.067-.466s-.04-.3-.061-.447c0-.036-.01-.075-.015-.117q-.053-.4-.1-.8c-.052-.412-.1-.823-.145-1.235a17.244,17.244,0,0,0,1.034-2.082,26.558,26.558,0,0,0,1.571-10.273A82.642,82.642,0,0,0,53.2,117.445a1.843,1.843,0,0,0-2.248-1.276,1.871,1.871,0,0,0-1.277,2.248c1.061,6.2,2.256,12.88.654,19.09a4.953,4.953,0,0,0-.7-.683,5.769,5.769,0,0,0-6.491-.111,6.08,6.08,0,0,0-2.5,5.328c.006.11.047.483.067.645,0,.012,0,.024,0,.036.018.217.043.434.064.651l.254,2.553q.084.855.17,1.71c-.079.037-.157.077-.237.112a20.4,20.4,0,0,1-4.693,1.433,14.445,14.445,0,0,0,1.65-3.483c1.231-3.916.932-8.138.356-12.137-.591-4.1-1.626-8.124-2.451-12.182-.193-.947-.374-1.9-.53-2.852s-.214-1.341-.3-2.384a21.44,21.44,0,0,1-.084-2.555c.012-.369.039-.737.075-1.1.008-.081.018-.162.029-.243v-.013l.007-.05q.057-.384.122-.766c1.591-9.324,5.619-18.063,7.314-27.359,1.133-6.214,1.667-12.522,2.862-18.726,1.093-5.677,2.673-11.4,5.872-16.281,5.585-8.521,15.181-13.89,25.071-15.654,1.258-.224,2.522-.377,3.8-.478a1.873,1.873,0,0,0,1.827-1.827,1.93,1.93,0,0,0-.569-1.314,10.738,10.738,0,0,0-2.317.129,10.738,10.738,0,0,1,2.317-.129,1.6,1.6,0,0,0-1.258-.513C69.358,30.106,58.8,34.672,51.53,42.685A37.421,37.421,0,0,0,43.617,56.92c-1.923,6.147-2.714,12.567-3.59,18.925-.389,2.823-.747,5.667-1.346,8.455-.476,2.215-1.091,4.4-1.721,6.575-1.427,4.924-3.014,9.8-4.29,14.772a30.963,30.963,0,0,0-1.249,11.4c.476,4.112,1.5,8.129,2.354,12.174a42.572,42.572,0,0,1,1.281,11.888,12.574,12.574,0,0,1-.374,2.541q-.149.635-.351,1.255c-.067.2-.139.407-.216.609q-.048.129-.1.257l-.017.042c-.008.015-.023.048-.055.113a10.39,10.39,0,0,1-3.2,4.047,16,16,0,0,1-2.624,1.557,1.364,1.364,0,0,0-.24.156c-7.72,3.567-16.138,7.344-20.348,15.085-2.579,4.742-2.746,10.2-3.23,15.457-.621,6.748-1.182,13.5-1.737,20.254Q1.7,212.967.879,223.457q-.3,3.749-.589,7.5c-.1,1.219-.259,2.455-.287,3.678l0,.034H3.655q.343-4.428.693-8.855.787-9.986,1.6-19.971.85-10.416,1.761-20.827c.221-2.485.447-4.97.7-7.452.083-.819.169-1.638.268-2.456l.048-.386v0a23.2,23.2,0,0,1,.56-2.62c2.547-9.008,11.709-13.194,19.522-16.824,1.067-.5,2.135-.99,3.2-1.493a1.443,1.443,0,0,0,.606-.562,26.412,26.412,0,0,0,8.956-1.8q.136,1.363.271,2.725c.448,4.5.879,9.008,1.343,13.51a5.008,5.008,0,0,0-2.272,1.183,6.437,6.437,0,0,0-1.851,3.037,5.659,5.659,0,0,0-3.188-.394,5.547,5.547,0,0,0-4.026,3,6.076,6.076,0,0,0-.3.678,7.212,7.212,0,0,0-2.111-.306,6.681,6.681,0,0,0-6.206,4.689c-.016.047-.019.091-.031.137a2.127,2.127,0,0,0-.2.41,16.437,16.437,0,0,0-.485,7.259,76.039,76.039,0,0,0,1.493,7.944c.58,2.561,1.019,5.127,1.4,7.725A35.546,35.546,0,0,1,26,212.609a41.113,41.113,0,0,1-2.572,8.853,1.9,1.9,0,0,0-1.753,1.323c-1.466,3.824-2.785,7.7-4.252,11.526a1.315,1.315,0,0,0-.08.354h3.834c1.1-2.912,2.141-5.848,3.222-8.768,6.85,5.236,16.266,8.088,24.569,5.252q-.315,1.181-.629,2.362-.106.4-.213.8a1.748,1.748,0,0,0-.055.354h3.744l1.324-4.975.213-.8a1.923,1.923,0,0,0-.429-1.729l4.728-13.717.641-1.861c.042-.037.086-.067.126-.109,4.285-4.527,5.719-10.723,6.781-16.676.514-2.882,1.006-5.763,1.673-8.616.619-2.647,1.336-5.269,1.944-7.918.64-2.78,1.756-5.951.493-8.705a5.962,5.962,0,0,0-4.863-3.31,5.55,5.55,0,0,0-5.18,2.208,15.45,15.45,0,0,0-1.324,3.02l-1.42,3.546c-.28-3-.7-6-1.107-8.988-.729-5.317-1.539-10.623-2.305-15.934L68.676,162.62l2.2,1.768v18.259c-.119.1-.238.211-.348.325a3.98,3.98,0,0,0-1,2.44,5.208,5.208,0,0,0,1.224,3.882c.671.866,1.383,1.7,2.115,2.527a5.818,5.818,0,0,0-.625,5.882,9.993,9.993,0,0,0,1.479,2.218,1.38,1.38,0,0,0-.16.244c-1.537,3.141-.477,6.286,1.476,8.972a73.508,73.508,0,0,0,6.321,7.37c4.011,4.2,8.616,7.909,12.149,12.551a29.846,29.846,0,0,1,3.382,5.607h3.948a39.184,39.184,0,0,0-8.568-12.531c-1.967-2.02-4.037-3.934-6.048-5.909-2.136-2.1-4.11-4.316-6.077-6.57-1.431-1.639-4.078-4.3-3.695-6.768,1.188,1.324,2.3,2.691,3.471,4.044,1.764,2.045,3.7,3.929,5.6,5.839a1.829,1.829,0,0,0,2.585-2.585c-1.614-1.615-3.25-3.209-4.78-4.905-1.359-1.506-2.554-3.147-3.94-4.628-.61-.652-1.228-1.3-1.83-1.957-.308-.337-.613-.677-.909-1.024-.246-.287-.505-.6-.613-.751-.192-.265-.344-.549-.523-.819,0-.012,0-.017-.007-.033a3.885,3.885,0,0,1-.114-.471,2.579,2.579,0,0,1,.06-1.009l.131.137c3.769,3.866,7.779,7.5,11.837,11.06Q88.689,206.9,89.974,208a1.874,1.874,0,0,0,2.584,0,1.907,1.907,0,0,0,.252-2.3,1.414,1.414,0,0,0-.252-.287c-3.824-3.279-7.586-6.638-11.218-10.13-1.816-1.745-3.6-3.524-5.294-5.393-.721-.8-1.411-1.623-2.108-2.441-.664-.778-.895-1.2-.7-2.016a1.509,1.509,0,0,1,.625-.393.894.894,0,0,1,.684.045,5.341,5.341,0,0,1,1.713,1.2c1.371,1.234,2.774,2.434,4.177,3.632,2.984,2.548,6.007,5.054,8.937,7.665,1.523,1.357,3.074,3.013,5.271,3.019a3.7,3.7,0,0,0,3.84-3.75c-.055-1.967-1.606-3.524-2.761-4.994q-4.713-6-9.426-12c-.747-.95-1.5-1.9-2.24-2.851a6.645,6.645,0,0,1-1.425-2.5c.005-.032-.035-.365-.035-.376,0-.091.007-.19.015-.287a2.683,2.683,0,0,0,.083-.282c.012.056.312-.444.115-.224.154-.172.092-.143.367-.192a2.445,2.445,0,0,1,1.012.167,6.978,6.978,0,0,1,2,1.83c6.783,7.215,13.646,14.355,20.431,21.567l.264.279c1.615,1.717,4.2-.871,2.585-2.585q-1.147-1.219-2.3-2.433a1.772,1.772,0,0,0,.261-.939l.024-4.17c1.775,1.979,3.539,3.969,5.232,6.019a18.656,18.656,0,0,1,2.5,3.515,15.556,15.556,0,0,1,1.183,3.7,48.793,48.793,0,0,1,.77,8.671c.044,1.509.107,3.012.037,4.522a25.84,25.84,0,0,0,.1,5.478,19.17,19.17,0,0,0,3.058,7.213l-18.464,8.667-.018.009h8.566l10.732-5.038,1.36-.639c.531,1.015,1.033,2.046,1.534,3.068.424.865.835,1.737,1.246,2.609h3.869a2.325,2.325,0,0,0-.209-.791M52.378,144.9c.018.134.013.1,0,0m-9.963,28.637a2.929,2.929,0,0,1,1.3-2.256c.965-.518,1.854.317,2.544,1.374a16.031,16.031,0,0,1,1.255,2.484c.49,1.161.91,2.391,1.288,3.593a5.524,5.524,0,0,1,.2,2.99c-.018.071-.039.135-.061.2a1.85,1.85,0,0,1-1.381,1.3c-1.017.346-1.381.072-2.2-.895a1.143,1.143,0,0,0-.088-.08c-.055-.2-.107-.407-.177-.606-.2-.58-.466-1.14-.727-1.7-.058-.124-.116-.248-.172-.373-.008-.016-.015-.033-.022-.049-.113-.313-.235-.621-.335-.937a1.962,1.962,0,0,0-.3-.576c-.009-.031-.01-.062-.02-.092-.48-1.372-1.265-2.88-1.1-4.378m-7.268,2.521a1.878,1.878,0,0,1,1.675-1.026c1.835-.027,2.555,2.394,3.17,3.854a2.661,2.661,0,0,0,.294.518c.011.05.013.1.029.151a25.159,25.159,0,0,0,1.147,2.768c.027.068.054.136.08.2.075.207.142.417.2.629.072.257.132.517.185.778.031.153.059.308.086.463.017.1.032.193.047.289,0,.016.012.083.021.14s.021.164.024.19c.008.07.017.14.023.211.013.14.02.28.02.42,0,.105-.006.209-.011.314.009-.022.011-.037.023-.061a.341.341,0,0,0-.024.1c0,.017,0,.034,0,.051,0,.061-.012.086-.021.1-.025.112-.053.223-.086.333-.008.026-.017.053-.026.08a4.6,4.6,0,0,0-.312.558l0,.006q-.115.128-.24.245c-.008.008-.017.013-.025.02l.056-.026a3.737,3.737,0,0,0-.327.213c-.071.042-.145.077-.219.115-.02.009-.042.018-.057.023-.094.031-.189.059-.284.083l-.107.024c-.224-.007-.458,0-.683.006-.047-.006-.094-.01-.132-.018q-.215-.049-.425-.119l-.115-.04c-.129-.077-.273-.137-.4-.215-.048-.029-.093-.061-.14-.092,0-.03,0-.061,0-.091a11.743,11.743,0,0,0-1.417-5.057c-.594-1.26-1.243-2.5-1.927-3.712-.075-.186-.143-.376-.234-.549a2.04,2.04,0,0,1,.137-1.876m-.227,10.574c-.011-.07-.034-.2-.035-.2a.427.427,0,0,1,.035.2m18.31-8.563,1,3.655a1.861,1.861,0,0,0,1.762,1.341,1.911,1.911,0,0,0,1.762-1.341l2.908-7.267q.721-1.8,1.442-3.6c.039-.1.072-.2.115-.289-.158.337.346-.388.045-.058.028-.03.145-.147.213-.218.075-.05.215-.15.262-.181a1.405,1.405,0,0,1,.151-.079c.174-.053.349-.1.526-.146l.075-.022a.609.609,0,0,0,.081,0c.2,0,.387,0,.583,0H64.2l.049.014c.216.053.424.108.636.177.061.029.124.058.181.091s.227.14.307.188c.067.063.241.211.281.251s.105.114.156.173c.011.018.023.036.039.064.032.053.178.352.208.387.056.16.1.323.144.488.088.354.037.059.043.35a6.12,6.12,0,0,1-.024.827c-.147,1.26-.583,2.894-.9,4.272-1.148,5.019-2.478,9.962-3.364,15.04-.947,5.434-1.83,11.518-5.437,15.909-.22.268-.448.531-.689.786a1.919,1.919,0,0,0-.319.46,2.079,2.079,0,0,0-.629.918l-5.366,15.567q-.24.7-.481,1.4l-.025.009c-7.208,3.315-16.246.51-22.3-4.15a57.154,57.154,0,0,0,2.6-8.271,30.273,30.273,0,0,0,.028-9.852c-.365-2.889-.757-5.8-1.362-8.647-.535-2.514-1.169-5.007-1.6-7.543s-.708-5.267.143-7.716c.014-.04.015-.08.026-.121a1.989,1.989,0,0,0,.2-.427,2.928,2.928,0,0,1,2.683-2.006,2.421,2.421,0,0,1,2.294,1.007c.1.269.219.539.346.811.011.023.026.039.037.061q.666,1.183,1.278,2.395c.336.661.646,1.333.957,2.006.024.053.066.149.1.225.052.132.1.265.15.4a6.927,6.927,0,0,1,.264.952c.012.06.022.121.034.181s.022.1.026.118c0,.118,0,.24,0,.273.007.132.078.954-.03,1.015,0,0,.088-.471.012-.114-.012.061-.023.122-.036.183a4.568,4.568,0,0,1-.125.471c-.018.057-.039.113-.058.17-.007.021-.01.031-.015.047-.049.078-.107.159-.151.222-.029.03-.058.065-.082.091l-.015.015a.063.063,0,0,0-.056.051.458.458,0,0,1-.133.076c-.189.046-.467.085-.1.058-.044,0-.252.029-.406.033a.973.973,0,0,0-.2-.053c-.036-.018-.074-.035-.1-.053s-.071-.043-.105-.067a.73.73,0,0,1-.07-.045c-.015-.009-.029-.02-.043-.028l.027.015-.024-.02c-.154-.145-.306-.289-.447-.447-.064-.072-.125-.148-.189-.221l-.026-.029-.007-.012c-.223-.366-.489-.71-.713-1.077-.428-.7-.814-1.429-1.269-2.113a1.828,1.828,0,1,0-3.156,1.845c1.006,1.509,1.745,3.22,3.071,4.5a4.938,4.938,0,0,0,4,1.391,1.844,1.844,0,0,0,.406.656,40.1,40.1,0,0,1,8.156,12.387,1.839,1.839,0,0,0,2.5.656,1.877,1.877,0,0,0,.656-2.5,42.9,42.9,0,0,0-8.674-13.069c.01-.014.02-.029.029-.043a6.313,6.313,0,0,0,2.412.578,5.761,5.761,0,0,0,3.987-1.482,5.583,5.583,0,0,0,1.714-3.144,4.314,4.314,0,0,0,.98.154,6.47,6.47,0,0,0,3.481-.992c.106-.067.211-.132.31-.2,2.422-1.744,2.719-5.151,1.954-7.828a26.906,26.906,0,0,0-3.309-7.581,6.968,6.968,0,0,0-2.181-2.094q-1.254-12.61-2.509-25.218c-.183-1.838-.159-3.881,2.206-3.669a1.281,1.281,0,0,1,1.238.855,8.175,8.175,0,0,1,.586,2.176c.15,1.1.267,2.213.417,3.316.882,6.51,1.9,13,2.813,19.508.45,3.217.9,6.357,1.218,9.74a17.649,17.649,0,0,0,.357,3.03M34.737,188.554c.009.026-.015.077-.048.132l.048-.132m-1.043.7a.23.23,0,0,1-.089-.014l0,0-.011-.007c.022,0,.061.013.1.023m61.19,7.656.083-.077c-.042.04-.07.068-.091.09H94.87c0-.007.01-.015.015-.014m-.082.044a.179.179,0,0,0-.024.015l.023-.019v0m9.165-39.71q-.033,5.736-.067,11.473-.058,9.842-.115,19.685-3.172-3.343-6.347-6.682-3-3.159-6-6.323-1.383-1.461-2.76-2.927a9.319,9.319,0,0,0-3.4-2.627,4.519,4.519,0,0,0-6.214,3.134c-.535,2.593.91,4.706,2.434,6.652q2.021,2.58,4.048,5.155.637.81,1.273,1.62,2.553,3.25,5.106,6.5l2.146,2.733c.14.178.287.352.42.535.031.056.164.263.187.311a1.266,1.266,0,0,1,.117.446l-.019.008a1.469,1.469,0,0,0-.288,0,4.2,4.2,0,0,1-1.237-.767c-.824-.722-1.628-1.468-2.454-2.188-1.964-1.713-3.956-3.394-5.941-5.081-1.629-1.384-3.257-2.772-4.863-4.183-.259-.227-.522-.45-.779-.68-1.378-1.227-2.919-2.471-4.689-2.653V156.772a17.887,17.887,0,0,1,0-2.392c.107-.767.85-.615,1.5-.615h4.247c7.586,0,15.189-.148,22.774,0,.6.012.907.156.931.795.035.893-.01,1.8-.015,2.69" transform="translate(0 -7.872)" fill="#323232"/>
      </g>
    </g>
    <g id="グループ_62199" data-name="グループ 62199" transform="translate(20377.164 11346.696)">
      <g id="グループ_62198" data-name="グループ 62198" transform="translate(0 0)" clip-path="url(#clip-path-2)">
        <path id="パス_109156" data-name="パス 109156" d="M98.309,18.336v107.12a4.115,4.115,0,0,1-4.12,3.987H18.722v8.421h88.82V18.336Z" transform="translate(6.989 6.035)" fill="#fff"/>
        <path id="パス_109157" data-name="パス 109157" d="M94.819,125.529V6H6V125.529Zm-61.3-76.122c5.147-2.916,11.176-2.291,16.892-2.291s11.745-.625,16.892,2.291c6.847,3.878,8.585,10.533,8.585,17.68,0,5.14-8.24,5.13-8.24,0,0-6.254-1.9-11.3-9.238-12-2.615-.247-5.363,0-8,0a78.508,78.508,0,0,0-8.144,0c-7.262.774-9.093,5.835-9.093,12,0,5.14-8.24,5.13-8.24,0,0-7.147,1.737-13.8,8.585-17.68M73.28,108.056H27.54c-5.311,0-5.3-7.975,0-7.975H73.28c5.311,0,5.3,7.975,0,7.975m0-14.619H27.54c-5.311,0-5.3-7.975,0-7.975H73.28c5.311,0,5.3,7.975,0,7.975M63.514,32.3a13.1,13.1,0,0,1-26.09,1.175A3.954,3.954,0,0,1,37.3,32.3a3.983,3.983,0,0,1,.122-1.187A13.043,13.043,0,0,1,50.9,19.648c6.9.286,12.652,5.911,12.615,12.657" transform="translate(2.24 1.975)" fill="#fff"/>
        <path id="パス_109158" data-name="パス 109158" d="M34.8,26.917c.336,6.037,9.73,6.094,9.73,0s-9.393-6.04-9.73,0" transform="translate(12.99 7.362)" fill="#fff"/>
        <path id="パス_109159" data-name="パス 109159" d="M1.233,134.323c.027.024.052.051.081.073a3.865,3.865,0,0,0,2.806,1.082H17.471v12.409a3.621,3.621,0,0,0,1.1,2.7c.043.048.089.09.133.136.027.024.052.051.08.073a3.867,3.867,0,0,0,2.806,1.082h97.06a4.114,4.114,0,0,0,4.12-3.987V20.384a4.114,4.114,0,0,0-4.12-3.987H105.3V3.987A4.114,4.114,0,0,0,101.179,0H4.12A4.114,4.114,0,0,0,0,3.987v127.5a3.621,3.621,0,0,0,1.1,2.7c.041.048.088.089.132.136M8.24,7.975H97.059V127.5H8.24V7.975ZM114.531,143.9H25.711v-8.421h75.467a4.115,4.115,0,0,0,4.12-3.987V24.371h9.233V143.9Z" transform="translate(0 0)" fill="#323232"/>
        <path id="パス_109160" data-name="パス 109160" d="M68.506,65.785H22.767c-5.3,0-5.311,7.975,0,7.975H68.506c5.3,0,5.311-7.975,0-7.975" transform="translate(7.013 21.652)" fill="#323232"/>
        <path id="パス_109161" data-name="パス 109161" d="M68.506,76.784H22.767c-5.3,0-5.311,7.975,0,7.975H68.506c5.3,0,5.311-7.975,0-7.975" transform="translate(7.013 25.272)" fill="#323232"/>
        <path id="パス_109162" data-name="パス 109162" d="M28.92,27.741a3.9,3.9,0,0,0-.122,1.187,3.909,3.909,0,0,0,.119,1.175,13.1,13.1,0,0,0,26.09-1.175c.036-6.747-5.721-12.372-12.617-12.657A13.041,13.041,0,0,0,28.92,27.741m8.118,1.187c.336-6.04,9.73-6.087,9.73,0s-9.393,6.037-9.73,0" transform="translate(10.748 5.351)" fill="#78c8e6"/>
        <path id="パス_109163" data-name="パス 109163" d="M28.027,56.919c0-6.162,1.831-11.223,9.093-12a78.508,78.508,0,0,1,8.144,0c2.635,0,5.383-.247,8,0,7.34.7,9.237,5.743,9.237,12,0,5.132,8.24,5.14,8.24,0,0-7.147-1.737-13.8-8.585-17.68-5.147-2.916-11.177-2.291-16.892-2.291s-11.745-.625-16.892,2.291c-6.847,3.878-8.585,10.533-8.585,17.68,0,5.132,8.24,5.14,8.24,0" transform="translate(7.387 12.142)" fill="#78c8e6"/>
      </g>
    </g>
  </g>
</svg>
