<svg xmlns="http://www.w3.org/2000/svg" xmlns:xlink="http://www.w3.org/1999/xlink" width="295" height="295" viewBox="0 0 295 295">
  <defs>
    <clipPath id="clip-path">
      <rect id="矩形_1260" data-name="矩形 1260" width="210.803" height="232.504" fill="none"/>
    </clipPath>
  </defs>
  <g id="组_3383" data-name="组 3383" transform="translate(-1095 -2994.915)">
    <circle id="椭圆_190" data-name="椭圆 190" cx="147.5" cy="147.5" r="147.5" transform="translate(1095 2994.915)" fill="#fff2d6"/>
    <g id="组_2577" data-name="组 2577" transform="translate(1137.774 3034.637)">
      <g id="组_2576" data-name="组 2576" clip-path="url(#clip-path)">
        <path id="路径_5214" data-name="路径 5214" d="M76.839,255.094c-1.566-5-3.352-10.056-3.879-15.277-.6-5.934-3.8-13.026-10.212-14.626a2.224,2.224,0,0,1-1.388-.956q-.995.107-1.99.2a17.872,17.872,0,0,1,9.549,12.777c.539,3.092-4.189,4.408-4.73,1.3A13.477,13.477,0,0,0,53.6,227.467a2.062,2.062,0,0,1-2.72-.476,16.853,16.853,0,0,1-1.094-1.4c-3.406-4.814-3.219-10.07-3.822-15.91-.144-1.393-.395-3.128-2.087-3.41-3.361-.562-2.645,7.192-2.593,8.79.125,3.834.614,7.622.607,11.463,0,0,0,.218,0,.29-.028,3.161-4.934,3.158-4.9,0,0-.215,0-.451-.012-.7-3.167-1.8-5.623-7.041-7.334-9.519l-7.964-11.534c.913,4.052,3.906,8.046,5.643,11.48a45.026,45.026,0,0,0,4.652,7.266,163.746,163.746,0,0,0,13.99,15.4c2.459,2.455,6.147,4.915,8.069,7.827,2.008,3.042,2.477,7.876,3.487,11.368a2.425,2.425,0,0,1,.063,1.138,46.741,46.741,0,0,0,19.26-4.447" transform="translate(-4.924 -46.591)" fill="#fff"/>
        <path id="路径_5215" data-name="路径 5215" d="M235.2,102.118a34.017,34.017,0,0,0,5.267-.381,5.746,5.746,0,0,0-3.671-2.1,9.948,9.948,0,0,0-4.183-.1c-3.286,1.186,1.094,2.576,2.587,2.58" transform="translate(-52.58 -22.572)" fill="#fff"/>
        <path id="路径_5216" data-name="路径 5216" d="M70.363,203.049a2.176,2.176,0,0,0,.225-3.074,2.082,2.082,0,0,0-2.454-.07l2.23,3.145" transform="translate(-15.48 -45.336)" fill="#fff"/>
        <path id="路径_5217" data-name="路径 5217" d="M93.057,216.408a10.5,10.5,0,0,1,.236-1.24,5.791,5.791,0,0,0-.283,2.111,6.627,6.627,0,0,1,.047-.872" transform="translate(-21.129 -48.887)" fill="#78c8e6"/>
        <path id="路径_5218" data-name="路径 5218" d="M74.659,209.216l2.1,2.955a2.452,2.452,0,0,0-2.1-2.955" transform="translate(-16.963 -47.535)" fill="#fff"/>
        <path id="路径_5219" data-name="路径 5219" d="M94.361,210.838c2.4-4,8.255-2.148,13.281.2a12.58,12.58,0,0,0-3.387-3.4,55.6,55.6,0,0,0-5.7-3.1,33.458,33.458,0,0,0-4.189,6.3" transform="translate(-21.439 -46.472)" fill="#fff"/>
        <path id="路径_5220" data-name="路径 5220" d="M62.442,184.659c-.186-.327-.741-.342-1.576-.1a3.357,3.357,0,0,0-2.063,1.736l2.062,2.908c1.137-1.477,2.339-3.206,1.578-4.541" transform="translate(-13.36 -41.895)" fill="#fff"/>
        <path id="路径_5221" data-name="路径 5221" d="M221.376,269.009c1.457-4.073,2.725-8.22,3.937-12.37,4.985-17.066,9.321-35.216,8.624-53.11a47.785,47.785,0,0,0-8.328-25.327c-3.2-4.813-6.449-7.389-12.117-8.893-7.1-1.883-14.536-1.335-21.654.118a2.6,2.6,0,0,1-2.78-3.726q-1.161.079-2.3.253c.154.656.289,1.319.379,2,.857,6.445-1.818,13.125-7.845,16.051-2.831,1.374-5.315-2.858-2.476-4.236,5.369-2.607,6.206-7.638,5.044-12.57q-1.007.367-2.008.829a2.362,2.362,0,0,1-1.078,2.549c-9.311,6.022-20.674,7.609-30.275,13.032-11.817,6.674-16.136,18.552-17.5,31.455-1.951,18.445-3.95,36.819-7.2,55.086h31.4q3.933-19.67,7.866-39.341c.62-3.1,5.347-1.779,4.73,1.3l-7.6,38.037h61.064a2.307,2.307,0,0,1,.122-1.144m-59.114-49.236a36.743,36.743,0,0,0-17.392-22.5c-2.743-1.57-.269-5.807,2.475-4.236a41.731,41.731,0,0,1,19.647,25.433c.828,3.056-3.9,4.348-4.73,1.3" transform="translate(-28.127 -37.648)" fill="#f6df6d"/>
        <path id="路径_5222" data-name="路径 5222" d="M181.416,144.432q1-.46,2.008-.828a25.543,25.543,0,0,0-3.649-8.144c-4.1-6.079-9.369-11.137-12.992-17.574a66.385,66.385,0,0,1-7.92-39.872,2.625,2.625,0,0,1,.081-.379q-.422-.145-.842-.27a2.034,2.034,0,0,1-1.769.607,28.116,28.116,0,0,1-21.943-13.816,2.341,2.341,0,0,1-.343-1.447,2.615,2.615,0,0,1-2.344-.87c-.374.652-.721,1.32-1.029,2a2.719,2.719,0,0,1,2.625,3.741c-1.826,4.216-2.79,9.107-1.452,13.6,1.079,3.624,3.426,6.6,3.811,10.464a18.428,18.428,0,0,1-1.872,9.426c-.648,1.42-2.93,3.945-2.949,5.517-.015,1.308.135.642,1.147,1.5.526.445,1.187.781,1.733,1.217a21.261,21.261,0,0,1,6.07,8.35l.007-.007c.022-.025.134-.159.2-.242l.23-.325c.1-.145.194-.29.29-.435.23-.347.458-.695.7-1.033a2.519,2.519,0,0,1,3.356-.88,2.464,2.464,0,0,1,.879,3.356c-.666.934-1.252,1.91-1.988,2.8a6.465,6.465,0,0,1-1.845,1.5c.435,1.242.859,2.492,1.308,3.734,3.862,10.7,14.52,5.583,21.417,1.152a2.473,2.473,0,0,1,3.691,2.118q.023,7.989.045,15.978a2.435,2.435,0,0,1-3.591,2.112c-.029.476-.042.938-.046,1.373a62.6,62.6,0,0,0,13.422-6.111,2.316,2.316,0,0,1,3.554,1.686M140.1,93.9c-3.162,0-3.156-4.9,0-4.9s3.157,4.9,0,4.9m-.442-12.321a1.714,1.714,0,0,0-2.158.584c-1.679,2.668-5.923.2-4.236-2.476a6.713,6.713,0,0,1,8.869-2.344c2.79,1.488.308,5.72-2.476,4.236" transform="translate(-29.689 -14.05)" fill="#fff"/>
        <path id="路径_5223" data-name="路径 5223" d="M165.323,71.587c-.031.277-.046.553-.073.829a7.312,7.312,0,0,1,3.192-.764A33.417,33.417,0,0,0,150.9,59.136c-3.02-.907-1.726-5.641,1.3-4.73a38.494,38.494,0,0,1,25.633,25.2,2.181,2.181,0,0,1-.11,1.726,20.466,20.466,0,0,1,.062,6.62,16.663,16.663,0,0,0,2.728,2,2.309,2.309,0,0,1,3.17-.76c3.934,2.26,8.13,3.4,12.26.944,3.437-2.045,5.773-5.576,7.785-8.927a2.426,2.426,0,0,1,3.887-.362,13.283,13.283,0,0,1,7.311-1.177c4.043.444,7.523,2.424,8.955,5.895a7.909,7.909,0,0,0,5.368-7.413c.225-2.818-.43-5.306-3.032-6.744-5.379-2.972-12.172-.116-14.725,5.064-1.3,2.634-5.036.67-4.443-1.886a2.466,2.466,0,0,1-.256-.689c-1.874-9.168-3.552-18.985-8.58-27.046-4.777-7.659-12.493-11.559-21.233-12.869a37.965,37.965,0,0,0-39.468,20.2,2.25,2.25,0,0,1,2.662,1.074,22.988,22.988,0,0,0,17.706,11.387,2.657,2.657,0,0,1,1.769,4.3q.421.125.842.27c.695-2.716,5.162-2.617,4.825.379" transform="translate(-31.245 -7.623)" fill="#fff"/>
        <path id="路径_5224" data-name="路径 5224" d="M193.347,107.953a25.941,25.941,0,0,1-4.072-1.911,2.319,2.319,0,0,1-.694-3.476,16.631,16.631,0,0,1-2.728-2,18.015,18.015,0,0,1-4.219,9.388c-2.13,2.342-5.589-1.138-3.469-3.468,2.442-2.685,3.134-6.788,2.906-10.307a10.945,10.945,0,0,0-1.422-5.123c-1.593-2.488-4.667-2.866-5.806.3a2.475,2.475,0,0,1-.84,1.161,61.827,61.827,0,0,0,14.228,38.535c4.348,5.281,9.119,10.718,10.709,17.5q1.137-.174,2.3-.252a2.107,2.107,0,0,1,1.476-1c1.929-.394,3.928-.731,5.96-.985a2.414,2.414,0,0,1-1.111-1.9q-1.012-13.006-2.022-26.012a2.489,2.489,0,0,1,.005-.253,33.465,33.465,0,0,1-9.209,2.3c-3.141.332-3.108-4.578,0-4.9a27.249,27.249,0,0,0,4.263-.806c-3.046-1.346-5.922-3.607-6.253-6.781" transform="translate(-39.307 -20.24)" fill="#fff"/>
        <path id="路径_5225" data-name="路径 5225" d="M219.221,103.9a21.711,21.711,0,0,1-8.519,7.347,14.917,14.917,0,0,1-11.375.07c.332,3.175,3.207,5.435,6.253,6.781,6.223-1.694,12.464-5.727,13.232-12.4a2.544,2.544,0,0,1,.6-1.4c-.066-.13-.138-.253-.195-.392" transform="translate(-45.288 -23.607)" fill="#fff"/>
        <path id="路径_5226" data-name="路径 5226" d="M121.043,202.6c-.389-.395-.808-.766-1.233-1.131a2.235,2.235,0,0,1-3.307.991q-7.976-5.055-16.251-9.636c-3.13-1.738-6.289-3.454-9.55-4.936-.842-.383-7.833-3.558-5.944.616.389.862,3.049,1.957,3.855,2.413,1.627.923,3.282,1.8,4.94,2.662,3.132,1.634,6.314,3.178,9.42,4.862,5.01,2.716,8.012,7.408,9.954,12.66a1.878,1.878,0,0,1,.243.808,1.949,1.949,0,0,1-.652,1.84,2.519,2.519,0,0,1-3.071.692c-2.679-1.263-5.344-2.555-8.016-3.832-1.269-.607-3.755-2.061-4.923-1.034-2,1.757,2.038,3.8,3.315,4.642,2.932,1.94,5.3,2.958,7.1,6.133,1.92,3.39,3.7,6.683,6.476,9.488a2.262,2.262,0,0,1,.318,2.924c.593.194,1.213.338,1.829.48.646-6.633,1.342-13.255,2.46-19.794a51.436,51.436,0,0,1,3.042-10.848" transform="translate(-19.184 -42.345)" fill="#fff"/>
        <path id="路径_5227" data-name="路径 5227" d="M65.562,280.184l3.183,14.671H96.288q-2.8-10.215-5.591-20.43a51.624,51.624,0,0,1-25.135,5.759" transform="translate(-14.896 -62.35)" fill="#f6df6d"/>
        <path id="路径_5228" data-name="路径 5228" d="M142.18,96.977c-3.156,0-3.162,4.906,0,4.906s3.161-4.906,0-4.906" transform="translate(-31.765 -22.033)" fill="#323232"/>
        <path id="路径_5229" data-name="路径 5229" d="M166.506,129.978a2.473,2.473,0,0,0-3.691-2.117c-6.9,4.43-17.554,9.548-21.417-1.153-.448-1.242-.873-2.492-1.308-3.734a6.468,6.468,0,0,0,1.845-1.5c.736-.886,1.321-1.862,1.988-2.8a2.465,2.465,0,0,0-.88-3.356,2.519,2.519,0,0,0-3.355.88c-.242.339-.471.686-.7,1.034-.1.145-.192.291-.29.434-.023.034-.155.218-.23.325-.07.082-.18.217-.2.242l-.007.006a21.254,21.254,0,0,0-6.07-8.349c-.546-.437-1.207-.772-1.733-1.218-1.012-.856-1.162-.19-1.147-1.5.019-1.571,2.3-4.1,2.949-5.517a18.427,18.427,0,0,0,1.872-9.426c-.385-3.861-2.733-6.839-3.811-10.464-1.338-4.5-.374-9.387,1.452-13.6a2.719,2.719,0,0,0-2.625-3.74,13.959,13.959,0,0,0-1.395,5.722,13.959,13.959,0,0,1,1.395-5.722,1.925,1.925,0,0,0-1.611,1.264,28.377,28.377,0,0,0-2.7,12.879c.284,4.993,3.42,8.58,4.325,13.3,1.135,5.931-3.485,9.288-4.943,14.372-1.231,4.294,2.219,5.319,4.971,7.539,6.93,5.593,5.369,16.18,12.117,21.565,6.285,5.015,13.94,2.5,20.311-1.038q.016,5.824.032,11.647a2.223,2.223,0,0,0,1.314,2.111,9.454,9.454,0,0,1,.767-3.522,9.454,9.454,0,0,0-.767,3.522,2.435,2.435,0,0,0,3.591-2.111q-.022-7.989-.045-15.979" transform="translate(-28.163 -14.635)" fill="#323232"/>
        <path id="路径_5230" data-name="路径 5230" d="M117.483,196.741c-6.522-4.132-13.2-8.071-20.019-11.684-4.418-2.339-13.336-8.41-17.851-3.1-6.268,7.375,5.778,12.236,10.684,14.747-3.36,4.23-7.372,10.791-5.071,15.5,2.092,4.286,8.767,7.4,13.3,7.508a2.381,2.381,0,0,0,1.142-.245c1.43,1.4,2.148,3.215,3.233,5.039a37.728,37.728,0,0,0,5.522,7.313,2.375,2.375,0,0,0,3.787-.545,4.872,4.872,0,0,1-3.114-2.458,4.872,4.872,0,0,0,3.114,2.458,2.262,2.262,0,0,0-.318-2.924c-2.777-2.805-4.556-6.1-6.477-9.488-1.8-3.175-4.163-4.193-7.1-6.133-1.277-.845-5.314-2.886-3.315-4.642,1.168-1.027,3.654.427,4.923,1.034,2.672,1.277,5.337,2.57,8.015,3.832a2.52,2.52,0,0,0,3.071-.692,1.949,1.949,0,0,0,.653-1.841,1.889,1.889,0,0,0-.243-.808c-1.942-5.252-4.944-9.944-9.954-12.66-3.106-1.683-6.287-3.228-9.42-4.862-1.658-.865-3.313-1.738-4.94-2.662-.807-.457-3.465-1.551-3.855-2.413-1.889-4.174,5.1-1,5.944-.616,3.261,1.481,6.42,3.2,9.55,4.936q8.256,4.585,16.252,9.635a2.235,2.235,0,0,0,3.307-.99c-1.5-1.291-3.06-2.537-3.49-4.686.43,2.149,1.988,3.395,3.49,4.686a2.4,2.4,0,0,0-.831-3.246M94.8,198.929a55.581,55.581,0,0,1,5.7,3.1,12.572,12.572,0,0,1,3.387,3.4c-5.026-2.349-10.886-4.2-13.281-.2a33.467,33.467,0,0,1,4.189-6.3" transform="translate(-17.687 -40.86)" fill="#323232"/>
        <path id="路径_5231" data-name="路径 5231" d="M174.842,166.416a62.556,62.556,0,0,1-13.422,6.11c0,.291,0,.572,0,.828,0-.257,0-.538,0-.828-6.424,2.263-12.972,4.266-18.672,8.026a37.236,37.236,0,0,0-14.219,17.425,6.17,6.17,0,0,1,1.818,3.175,6.17,6.17,0,0,0-1.818-3.175,51.423,51.423,0,0,0-3.041,10.848c-1.119,6.539-1.815,13.161-2.461,19.794a9.711,9.711,0,0,1,3.232,1.149,9.711,9.711,0,0,0-3.232-1.149c-.688,7.066-1.32,14.143-2.341,21.146-1,6.834-2.068,13.662-3.3,20.458h4.956c3.253-18.267,5.252-36.641,7.2-55.085,1.366-12.9,5.684-24.781,17.5-31.455,9.6-5.423,20.964-7.01,30.275-13.032A2.363,2.363,0,0,0,178.4,168.1c-.756.348-1.51.733-2.264,1.165.754-.431,1.508-.817,2.264-1.165a2.316,2.316,0,0,0-3.554-1.686" transform="translate(-26.67 -37.719)" fill="#323232"/>
        <path id="路径_5232" data-name="路径 5232" d="M177.028,250.739c.617-3.083-4.111-4.4-4.73-1.3q-3.933,19.669-7.866,39.34h4.992l7.6-38.036" transform="translate(-37.359 -56.271)" fill="#323232"/>
        <path id="路径_5233" data-name="路径 5233" d="M172.838,226.4a41.727,41.727,0,0,0-19.647-25.434c-2.744-1.571-5.218,2.666-2.475,4.236a36.739,36.739,0,0,1,17.392,22.5c.825,3.043,5.559,1.751,4.73-1.3" transform="translate(-33.972 -45.583)" fill="#323232"/>
        <path id="路径_5234" data-name="路径 5234" d="M32.121,170.34c-.87-.682-3.641.151-4.532.252l-9.708,1.1-8.688.988c-.248.028-1.727.033-1.83.208.071-.121.587.526,1.087,1.2l24.257-2.927-.587-.828" transform="translate(-1.673 -38.641)" fill="#fff"/>
        <path id="路径_5235" data-name="路径 5235" d="M72.72,222.007l-11.663,1.5q.116.335.253.665l.867-.1,9.183-1.09c1.99-.236,2.067-.182,1.36-.978" transform="translate(-13.872 -50.441)" fill="#fff"/>
        <path id="路径_5236" data-name="路径 5236" d="M42.654,195.154c3.668.7,5.594,3.48,6.082,7.01.3,2.159.308,4.313.471,6.409l9.249-1.193-21.3-30.043L12.846,180.27l5.31,7.69,12.1,17.532,4.046,5.859c-.532-8.206-.09-17.807,8.349-16.2" transform="translate(-2.919 -40.291)" fill="#f6df6d"/>
        <path id="路径_5237" data-name="路径 5237" d="M80.094,245.068A2.467,2.467,0,0,0,76.73,243.5c-.74-2.4-1.463-4.8-2.148-7.219-1.175-4.144-.944-8.685-2.489-12.682a22.254,22.254,0,0,0-8.757-10.873c1.355-1.589,1.094-3.934-.012-6.141,3.049-4.1,1.811-9.938-2.594-11.916a6.4,6.4,0,0,0-1.356-5.8,6.6,6.6,0,0,0-7.42-1.838,15.7,15.7,0,0,0,2.344-4.043,6.636,6.636,0,0,0-2.128-7.176c-2.92-2.106-6.906-.787-9.305,1.662l-4.981-7.026-3.108-4.383a2.539,2.539,0,0,0-.423-.553c-2.326-2.278-4.873-1.6-7.767-1.267l-13.464,1.531a65.167,65.167,0,0,0-7.847.9c-5.6,1.352-3.67,6.553-1.4,9.838q4.464,6.464,8.927,12.928a2.192,2.192,0,0,0-.559,1.155c-.8,4.5.591,8.344,2.677,12.3,1.828,3.47,3.531,7.119,5.67,10.41,3.9,6,8.908,11.332,13.859,16.46,3.336,3.456,6.9,8,10.912,10.731a16.571,16.571,0,0,0,1.024,3.459q.871,3.009,1.74,6.019c-.056-.005-.111-.008-.168-.013-1.681-.164-2.672,1.692-2.366,3.105q1.808,8.332,3.616,16.665h5.014q-1.593-7.335-3.183-14.671a51.619,51.619,0,0,0,25.134-5.759q2.8,10.215,5.591,20.43h5.087Q83.47,257.4,80.094,245.068M60.158,201.873l-2.094-2.955a2.452,2.452,0,0,1,2.094,2.955m-2.3,7.907-9.184,1.09-.867.1q-.137-.33-.253-.665l11.663-1.5c.707.8.63.742-1.359.978m-2.381-17.9a2.177,2.177,0,0,1-.225,3.074l-2.23-3.145a2.081,2.081,0,0,1,2.454.07m-7.6-11.978c.835-.24,1.39-.224,1.576.1.761,1.335-.441,3.064-1.578,4.541l-2.062-2.908a3.356,3.356,0,0,1,2.063-1.736M6.059,171.485c.1-.175,1.582-.18,1.83-.208l8.687-.988q4.855-.552,9.708-1.1c.89-.1,3.662-.934,4.532-.251l.587.828L7.145,172.69c-.5-.678-1.015-1.326-1.087-1.2m4.236,5.73,24.311-2.934,21.3,30.043-9.249,1.194c-.163-2.1-.173-4.25-.471-6.41-.488-3.53-2.413-6.311-6.082-7.01-8.439-1.609-8.881,7.991-8.348,16.2l-4.046-5.859L15.6,184.905l-5.31-7.69m42.726,72.971a2.425,2.425,0,0,0-.063-1.138c-1.01-3.492-1.478-8.326-3.486-11.368-1.923-2.912-5.611-5.372-8.07-7.828a163.542,163.542,0,0,1-13.99-15.4,45.06,45.06,0,0,1-4.652-7.266c-1.736-3.434-4.73-7.428-5.643-11.481l7.964,11.534c1.711,2.478,4.168,7.723,7.335,9.519.008.249.012.485.011.7-.028,3.158,4.877,3.161,4.906,0,0-.073,0-.29,0-.29.008-3.841-.481-7.629-.607-11.463-.052-1.6-.768-9.352,2.594-8.79,1.691.282,1.942,2.016,2.086,3.409.6,5.84.417,11.1,3.823,15.91a16.672,16.672,0,0,0,1.093,1.4,2.062,2.062,0,0,0,2.721.475,13.481,13.481,0,0,1,10.594,11.049c.541,3.1,5.269,1.788,4.73-1.3a17.872,17.872,0,0,0-9.549-12.775q.995-.1,1.99-.2a2.217,2.217,0,0,0,1.387.956c6.416,1.6,9.612,8.692,10.212,14.625.528,5.223,2.312,10.281,3.879,15.278a46.749,46.749,0,0,1-19.26,4.447" transform="translate(-0.368 -37.236)" fill="#323232"/>
        <path id="路径_5238" data-name="路径 5238" d="M142.786,81.664a6.712,6.712,0,0,0-8.869,2.345c-1.687,2.679,2.556,5.144,4.236,2.476a1.714,1.714,0,0,1,2.158-.585c2.784,1.485,5.266-2.748,2.476-4.236" transform="translate(-30.338 -18.372)" fill="#323232"/>
        <path id="路径_5239" data-name="路径 5239" d="M6.775,40.451A28.812,28.812,0,0,0,18.9,58.666,32.124,32.124,0,0,0,29.328,62.99a3.738,3.738,0,0,1,3.165,2.861c.758,1.981,1.486,3.974,2.224,5.962.518-1.114,1.1-2.2,1.374-2.944A30.532,30.532,0,0,1,37.568,64.9c1.41-2.57,5.488-2.432,8.084-3.478a28.413,28.413,0,0,0,8.852-5.72,29.075,29.075,0,0,0,8.963-20.8C63.147,17.069,46.635,3.024,28.842,6.926,13.825,10.22,3.74,25.293,6.775,40.451M24,34.526l7.309,5.786L44.686,25.175c2.1-2.372,5.553,1.111,3.468,3.468L33.35,45.4a2.5,2.5,0,0,1-3.469,0l-9.349-7.4c-2.475-1.96,1.019-5.408,3.468-3.469" transform="translate(-1.417 -1.425)" fill="#fff"/>
        <path id="路径_5240" data-name="路径 5240" d="M26.537,66.246l2.534,6.8c.8,2.155,1.486,5.116,4.366,5.116S37,75.2,37.8,73.045l2.53-6.787A33.976,33.976,0,0,0,66.956,33.486C66.583,12.752,47.819-3.22,27.2.555,6.562,4.335-5.543,27.136,2.518,46.4A33.841,33.841,0,0,0,26.537,66.246M27.424,5.5C45.218,1.6,61.729,15.644,62.05,33.486a29.073,29.073,0,0,1-8.963,20.8A28.412,28.412,0,0,1,44.236,60c-2.6,1.046-6.675.908-8.084,3.478a30.341,30.341,0,0,0-1.478,3.965c-.277.743-.856,1.829-1.374,2.943-.737-1.988-1.466-3.981-2.224-5.962a3.737,3.737,0,0,0-3.165-2.86,32.142,32.142,0,0,1-10.429-4.325A28.81,28.81,0,0,1,5.358,39.027C2.323,23.869,12.408,8.8,27.424,5.5" transform="translate(0 0)" fill="#323232"/>
        <path id="路径_5241" data-name="路径 5241" d="M24.485,43.32l9.35,7.4a2.5,2.5,0,0,0,3.468,0L52.108,33.969c2.083-2.358-1.373-5.84-3.469-3.469L35.262,45.638l-7.309-5.787C25.5,37.912,22.01,41.36,24.485,43.32" transform="translate(-5.37 -6.75)" fill="#f6df6d"/>
        <path id="路径_5242" data-name="路径 5242" d="M192.037,179.846c-2.839,1.378-.355,5.61,2.476,4.236,6.028-2.926,8.7-9.606,7.845-16.05-.091-.682-.226-1.347-.379-2a25.483,25.483,0,0,0-4.9,1.248c1.161,4.93.325,9.963-5.044,12.569" transform="translate(-43.347 -37.722)" fill="#323232"/>
        <path id="路径_5243" data-name="路径 5243" d="M182.6,124.529A61.823,61.823,0,0,1,168.37,85.994a2.481,2.481,0,0,0,.84-1.16c1.138-3.165,4.213-2.787,5.806-.3a10.957,10.957,0,0,1,1.422,5.124c.227,3.518-.464,7.621-2.906,10.306-2.121,2.332,1.339,5.811,3.468,3.468a18.016,18.016,0,0,0,4.219-9.388c-.407-.361-.8-.731-1.172-1.1.372.372.764.743,1.172,1.1a20.461,20.461,0,0,0-.063-6.619,2.18,2.18,0,0,0,.11-1.726,38.5,38.5,0,0,0-25.633-25.2c-3.029-.91-4.325,3.823-1.3,4.73a33.423,33.423,0,0,1,17.541,12.515,7.318,7.318,0,0,0-3.192.764c.028-.277.042-.552.073-.829.338-3-4.129-3.1-4.825-.379,2.1.724,4.206,1.737,6.31,1.737-2.1,0-4.206-1.013-6.31-1.737a2.623,2.623,0,0,0-.08.379,66.387,66.387,0,0,0,7.92,39.873c3.623,6.437,8.9,11.495,12.992,17.574a25.52,25.52,0,0,1,3.648,8.143,25.546,25.546,0,0,1,4.9-1.247c-1.59-6.78-6.362-12.217-10.709-17.5" transform="translate(-34.674 -13.72)" fill="#323232"/>
        <path id="路径_5244" data-name="路径 5244" d="M240.261,168.3a51.829,51.829,0,0,0-10.287-26.219c-6.667-8.978-17.778-10.941-28.477-10.155a2.111,2.111,0,0,0,.453-1.567l-2.022-26.012a2.426,2.426,0,0,0-1.327-2.034c4.606-2.738,8.185-6.828,9.343-12.361a19.966,19.966,0,0,0,7.063.566c.878-.065,1.793-.149,2.722-.261a16.543,16.543,0,0,1-4.59,6c-2.461,1.978,1.029,5.43,3.468,3.469,3.485-2.8,6.065-6.228,6.472-10.553a13.206,13.206,0,0,0,7.208-4.78c2.846-4.061,3.607-10.906.807-15.167-4.884-7.434-15.449-6.42-21.655-1.195-1.921-9.429-4.107-19.261-9.809-27.124-5.764-7.947-14.4-11.952-23.962-13.255a42.743,42.743,0,0,0-44.29,23.508,2.46,2.46,0,0,0,.425,2.821,36.72,36.72,0,0,1,2.482-3.724,36.72,36.72,0,0,0-2.482,3.724,2.617,2.617,0,0,0,2.345.87,2.34,2.34,0,0,0,.342,1.447,28.116,28.116,0,0,0,21.943,13.816,2.034,2.034,0,0,0,1.769-.607,9.4,9.4,0,0,0-2.659-.446,9.4,9.4,0,0,1,2.659.446,2.657,2.657,0,0,0-1.769-4.3,22.99,22.99,0,0,1-17.706-11.387,2.252,2.252,0,0,0-2.663-1.075,37.968,37.968,0,0,1,39.469-20.2c8.74,1.311,16.456,5.21,21.233,12.869,5.028,8.062,6.706,17.879,8.58,27.046a2.462,2.462,0,0,0,.256.689c-.594,2.555,3.145,4.519,4.443,1.885,2.553-5.18,9.345-8.036,14.725-5.063,2.6,1.437,3.257,3.927,3.032,6.743a7.907,7.907,0,0,1-5.368,7.413c-1.432-3.47-4.912-5.451-8.955-5.894a13.283,13.283,0,0,0-7.311,1.177,2.426,2.426,0,0,0-3.887.362c-2.012,3.351-4.349,6.883-7.786,8.927-4.13,2.457-8.326,1.315-12.26-.944a2.309,2.309,0,0,0-3.17.76,6.863,6.863,0,0,0,5.094.983,6.863,6.863,0,0,1-5.094-.983,2.319,2.319,0,0,0,.695,3.476,25.934,25.934,0,0,0,4.071,1.911,6.521,6.521,0,0,1,.328-2.769,6.521,6.521,0,0,0-.328,2.769,14.91,14.91,0,0,0,11.373-.07,21.7,21.7,0,0,0,8.52-7.347c.056.138.129.263.195.392a2.549,2.549,0,0,0-.6,1.4c-.767,6.675-7.009,10.708-13.233,12.4.206.09.41.18.616.262.818.818-1.634,2.453-.817,4.088-.818-1.635,1.634-3.27.817-4.088-.206-.082-.41-.172-.616-.262a27.15,27.15,0,0,1-4.263.805c-3.108.328-3.141,5.237,0,4.906a33.467,33.467,0,0,0,9.209-2.305,2.513,2.513,0,0,0-.005.254q1.011,13.006,2.022,26.012a2.415,2.415,0,0,0,1.111,1.9c-2.032.253-4.031.59-5.96.985a2.1,2.1,0,0,0-1.476,1,33.881,33.881,0,0,1,6.519.223,33.881,33.881,0,0,0-6.519-.223,2.6,2.6,0,0,0,2.78,3.726c7.117-1.454,14.556-2,21.655-.119,5.668,1.5,8.92,4.08,12.117,8.893a47.792,47.792,0,0,1,8.328,25.327c.7,17.893-3.64,36.043-8.624,53.11-1.213,4.151-2.48,8.3-3.937,12.37a2.355,2.355,0,0,0-.143.92H227.9a243.145,243.145,0,0,0,10.275-39.27c1.779-10.133,3.046-20.614,2.083-30.9m-30.436-85.14a9.948,9.948,0,0,1,4.183.1,5.748,5.748,0,0,1,3.671,2.1,34.019,34.019,0,0,1-5.267.381c-1.493,0-5.873-1.394-2.587-2.58" transform="translate(-29.789 -6.193)" fill="#323232"/>
      </g>
    </g>
  </g>
</svg>
