<svg xmlns="http://www.w3.org/2000/svg" xmlns:xlink="http://www.w3.org/1999/xlink" width="318.615" height="295" viewBox="0 0 318.615 295">
  <defs>
    <clipPath id="clip-path">
      <rect id="矩形_1274" data-name="矩形 1274" width="318.479" height="242.298" fill="none"/>
    </clipPath>
  </defs>
  <g id="组_3384" data-name="组 3384" transform="translate(-501.385 -3609.535)">
    <circle id="椭圆_191" data-name="椭圆 191" cx="147.5" cy="147.5" r="147.5" transform="translate(525 3609.535)" fill="#fff2d6"/>
    <g id="组_2584" data-name="组 2584" transform="translate(501.385 3635.857)">
      <g id="组_2583" data-name="组 2583" clip-path="url(#clip-path)">
        <path id="路径_5257" data-name="路径 5257" d="M390.259,262.532c-1.829.211-2.524-1.452-2.121-2.861h-.821a2.23,2.23,0,0,1-2.256,2.481h-31.39a2.195,2.195,0,0,1-2.255-2.2h-3.064c.4.79.793,1.553,1.2,2.244,1.936,3.326,3.982,7.309.293,10.229a6.522,6.522,0,0,1-2.294,1.2h18.382c.56,0,1.119,0,1.678,0s4.638-.071,4.031.107c1.338-.393,2.928-1.667,4.167-2.325l5.774-3.061,6.293-3.337a2.228,2.228,0,0,1,2.4.126l3.019-2.9.515-.905a7.894,7.894,0,0,1-3.551,1.2" transform="translate(-90.567 -67.668)" fill="#fff"/>
        <path id="路径_5258" data-name="路径 5258" d="M267.9,256.091a62.8,62.8,0,0,0-8.088-7.73c-3.923-2.87-8.369-2.271-12.637-.649-8.921,3.39-16.428,10-26.319,10.208a2.26,2.26,0,0,1-1.146-.268q1.077,5.212,2.186,10.414l25.279-4.321a37.687,37.687,0,0,1,4.187-.716c2.475-.132,4.27,1.736,5.708,3.616a21.962,21.962,0,0,1,2.222,3.613c.447-.343.9-.674,1.356-.987a2.245,2.245,0,0,1,.5-3.548,25.912,25.912,0,0,0,8.1-7.433,13.275,13.275,0,0,0,1.046-1.657,2.052,2.052,0,0,1-2.39-.542m-2.273,2.336c-.7,3.434-3.821,4.639-6.723,5.805-2.463.989-3.693-2.383-2.09-3.977a2.515,2.515,0,0,1,.841-.549c1.088-.437,5.608-2.786,2.378-3.7-1.474-.418-4.191.756-5.617,1.14-.071.019-.14.043-.211.063-2.349.65-4.6,1.54-6.882,2.4-2.4.9-3.648-2.318-2.283-3.923l3.8-4.466c1.443-1.7,3.608-.336,3.877,1.412a22.922,22.922,0,0,1,7.542-1.322c3.544.1,6.059,3.728,5.367,7.124" transform="translate(-57.256 -64.197)" fill="#fff"/>
        <path id="路径_5259" data-name="路径 5259" d="M263.608,275.12c.318.149.545-.076,0,0" transform="translate(-68.694 -71.689)" fill="#78c8e6"/>
        <path id="路径_5260" data-name="路径 5260" d="M326.652,263.688c-.946-1.7-2.054-3.3-2.986-5.01l-.273-.5h0c-1.475-2.728-3.8-6.939-7.02-3.438-1.327,1.441-3.286.475-3.923-1.035-.715-1.7-3.7-.266-5.209,1.035a2.392,2.392,0,0,1-3.686-.475c-1.508-2.152-3.516-1.67-5.066.095-1.1,1.25-2.845.643-3.686-.475-1.185-1.576-3.2.081-4.045,1.979a32.626,32.626,0,0,1-3.7,6.772,31.048,31.048,0,0,1-9.593,8.832,2.2,2.2,0,0,1-2.864-.505c-.458.313-.909.644-1.357.987a27.948,27.948,0,0,1,.93,21.336,13.33,13.33,0,0,0,6.256-3.139,2.311,2.311,0,0,1,.934-3.945c8.772-2.175,17-5.14,23.22-11.947,3.982-4.36,7.03-10.266,11.5-14.1,4.857-4.162,6.13,5.3,9.4,6.686,3.309,1.4,2.005-1.623,1.156-3.149" transform="translate(-71.205 -65.885)" fill="#fff"/>
        <path id="路径_5261" data-name="路径 5261" d="M263.728,239.515a2.723,2.723,0,0,1-1.49-.745l-.169.9c.06-.009.119-.021.179-.029a14.668,14.668,0,0,1,1.48-.126" transform="translate(-68.293 -62.221)" fill="#78c8e6"/>
        <path id="路径_5262" data-name="路径 5262" d="M331.959,276.129h6.577a8.433,8.433,0,0,1-4.09-2.828,36.159,36.159,0,0,1-3.142-4.035c-2.522,2.946-4.763,6.139-7.211,9.15h5.6a2.21,2.21,0,0,1,2.262-2.287" transform="translate(-84.456 -70.168)" fill="#fff"/>
        <path id="路径_5263" data-name="路径 5263" d="M190.382,24.082c-1.009.555-3.486,2.691-4.249,1.423-11.477-19.063-40.222-26.052-56.9-9.769-4.02,3.926-7.784,8.621-9.682,13.978-2.118,5.978-.092,10.265,1.72,15.985A100.1,100.1,0,0,1,125.55,65.35c1.988.666,3.96,1.382,5.927,2.109,3.408-7.23,7.37-15.884,16.631-13.454a2.243,2.243,0,0,1,1.077.622,16.641,16.641,0,0,1,1.582-7.979c2.766-5.547,9.159-6.34,12.6-2.183a43.032,43.032,0,0,0,10.083-11.416c1.574-2.577,5.632-.215,4.053,2.369-.115.188-.239.366-.356.552,3.769-.971,6.654-3.284,9.5-6.715,1.227-1.481,3.033.86,3.676,2.241a9.136,9.136,0,0,0,.782-1.2,2.841,2.841,0,0,0,.328-2.148,26.254,26.254,0,0,0-1.043-4.066" transform="translate(-30.919 -1.73)" fill="#f6df6d"/>
        <path id="路径_5264" data-name="路径 5264" d="M213.434,39.063c-.189.169-.384.331-.588.484.367.79.14.634-.556,1.475a24.548,24.548,0,0,1-7.945,6.579,2.993,2.993,0,0,1,1.268.269,22.644,22.644,0,0,1,5.685,3.063,20.927,20.927,0,0,0,1.43-6.491,2.265,2.265,0,0,1,2.038-2.234,12.691,12.691,0,0,0-1.332-3.146" transform="translate(-53.25 -10.179)" fill="#fff"/>
        <path id="路径_5265" data-name="路径 5265" d="M186.881,75.769a26.584,26.584,0,0,1-1.744-5.532,20.524,20.524,0,0,1,.92-11.042c.054-.152.112-.3.168-.453a2.294,2.294,0,0,1-.936-.6c-1.44-1.507-3.539-2.112-5.394-2.951a2.352,2.352,0,0,1-.559-3.6,20.472,20.472,0,0,1-6.979,1.3,49.933,49.933,0,0,1-8.391,7.938,2.323,2.323,0,0,1-.607.325,2.511,2.511,0,0,1-3.991-.995c-1.083-3.011-3.837-2.352-5.2-.124a10.063,10.063,0,0,0-1.217,4.476c-.229,3.19.424,6.954,2.632,9.391,2.024,2.235-1.287,5.563-3.319,3.319a16.55,16.55,0,0,1-3.806-8.159,2.191,2.191,0,0,1-2.618,1.187c-4.592-1.2-6.23,1.9-8.292,5.581-1.369,2.445-2.649,4.945-3.871,7.467a2.35,2.35,0,0,1-2.65,1.079c-2.426-.9-4.854-1.8-7.305-2.635l-3.656,17.673c-.555,2.679-4.3,1.9-4.556-.46a5.064,5.064,0,0,0-.766,2.8c11.743,3.529,23.525,6.958,34.783,11.817a2.351,2.351,0,0,1,.132-.714l3.319-9.3a2.375,2.375,0,0,1,3.448-1.4c3.734,2.451,7.37,5.083,12.046,5.089,2.359,0,5.4-.626,6.78-2.783.856-1.335,1.068-3.134,1.7-4.586.529-1.226,1.021-2.521,1.521-3.826a12.886,12.886,0,0,1-3.814-3.224,2.4,2.4,0,0,1,0-3.319,2.362,2.362,0,0,1,3.318,0,9.792,9.792,0,0,0,2.3,2.158,23.953,23.953,0,0,1,2.037-3.657,16.648,16.648,0,0,1,3.179-3.433,20.732,20.732,0,0,1,2.244-1.568c1.191-.729,1.722-.528,1.7-1.948-.028-1.633-1.908-3.782-2.556-5.292m-5.316-7.092c-3.025,0-3.02-4.694,0-4.694s3.02,4.694,0,4.694" transform="translate(-29.901 -13.443)" fill="#fff"/>
        <path id="路径_5266" data-name="路径 5266" d="M368.834,233.779c2.314-.266,2.693-5.866,3.009-7.481l2.651-13.529q3.218-16.42,6.434-32.842.9-4.6,1.8-9.2c.365-1.862.158-2.632-2.215-3.029-4.839-.809-10.509,0-15.4,0H283.838a22.18,22.18,0,0,0-4.347,0c-2.543.554-2.567,3.554-3.013,5.7q-4.754,22.921-9.507,45.842a1.956,1.956,0,0,1-1.643,1.648,14.8,14.8,0,0,1,6.075,1.458,2.292,2.292,0,0,1-.967-2.452q5.08-23.794,10.161-47.588a2.377,2.377,0,0,1,2.263-1.723h93.418a2.38,2.38,0,0,1,2.263,2.97q-5.447,27.8-10.894,55.605a2.374,2.374,0,0,1-2.263,1.723h-34.5a2.222,2.222,0,0,1-2.263-2.4h-6.5c2.077,1.846,3.479,4.788,4.807,7.41h3.064a2.233,2.233,0,0,1,2.255-2.5h31.39a2.2,2.2,0,0,1,2.256,2.214h.821a2.456,2.456,0,0,1,2.121-1.833" transform="translate(-69.142 -43.608)" fill="#fff"/>
        <path id="路径_5267" data-name="路径 5267" d="M333.26,228.994h32.575l9.975-50.911H287.132q-4.9,22.933-9.793,45.865a2.085,2.085,0,0,1-2.889,1.534c4.228,2.19,7.764,6.032,11.036,9.5a2.422,2.422,0,0,1,.515.817,19.342,19.342,0,0,1,2.232-4.1,6.5,6.5,0,0,1,8.8-1.61,6.708,6.708,0,0,1,9.1.316,7.535,7.535,0,0,1,5.631-1.749,6.863,6.863,0,0,1,3.639,1.673,7.8,7.8,0,0,1,8.019.144,8.105,8.105,0,0,1,1.07.814H331a2.211,2.211,0,0,1,2.263-2.291m-24.668-9.78c-4.517-.223-6.218-3.455-5.534-7.611.77-4.683,1.752-9.34,2.628-14.005.766-4.084,2.832-7.208,7.381-7.451,3.906-.208,7.881,0,11.791,0,4.453,0,8.922-.114,13.374,0,4.2.107,6.937,2.489,6.312,6.928-.611,4.331-1.622,8.641-2.428,12.94-.824,4.387-1.9,8.08-6.643,9.059a4.182,4.182,0,0,1-1.394.143c-8.469.018-17.034.414-25.486,0" transform="translate(-71.519 -46.407)" fill="#f6df6d"/>
        <path id="路径_5268" data-name="路径 5268" d="M212.2,259.025a23.714,23.714,0,0,0,1.085-14.771,23.321,23.321,0,0,0-1.089-3.237,9.4,9.4,0,0,1-5.058,1.62,9.4,9.4,0,0,0,5.058-1.62,17.807,17.807,0,0,0-1.022-2.083,12.264,12.264,0,0,0-1.713-2.374c-.109-.113-.588-.623-.858-.974-.553.121-1.125.191-1.682.287l-6.033,1.031-24.125,4.124a2.525,2.525,0,0,1-2.585-3.736q-2.1-9.889-4.042-19.81c-2.247-11.412-4.414-22.851-6.155-34.353-.762-5.035-1.474-10.079-2.3-15.1-.743-4.525-1.268-8.159-3.741-12-6.1-9.471-15.09-14.543-25.056-19.093-11.495-5.248-23.822-8.568-35.892-12.2a2.187,2.187,0,0,1-1.567-1.587,12.852,12.852,0,0,0-3.018,1.488,2.207,2.207,0,0,1-.807,3.1c-4.811,2.805-9.656,5.546-13.732,9.4-4.791,4.529-8.187,10.408-10.926,16.352-5.647,12.256-8.25,25.831-9.81,39.157a2.591,2.591,0,0,1-3.274,2.144c.093.78.186,1.56.223,2.34L86.343,201.3c4.531.586,9.87.562,14.228,2.105,7.565,2.679,7.972,10.3,9.082,16.963q3.7,22.187,7.4,44.375l30.989,4.2a36.132,36.132,0,0,1-1.78-4.677c-1.641-4.7-3.012-9.5-4.355-14.295-3.744-13.352-7.074-26.825-10.185-40.338-2.522-10.952-5.13-21.99-6.65-33.137-.479-3.514-.6-6.028.682-9.4,2.64-6.942,6.8-15.9,14.272-18.666,2.842-1.051,4.056,3.487,1.247,4.526-4.354,1.611-7.1,7.063-9.037,10.951-1.031,2.07-2.843,6.261-2.929,7.458-.234,3.262.7,6.82,1.268,10.006a700.15,700.15,0,0,0,16.493,69.6c1.192,4.172,2.407,8.349,3.857,12.438,1.472,4.153,1.928,5.556,6.93,6.161,5.515.667,11.378-.945,16.776-1.934q5.6-1.026,11.166-2.221c7.714-1.645,15.417-3.222,23.206-4.479a2.5,2.5,0,0,1,2.806,1.784,5.042,5.042,0,0,0,1.114-1.305,1.864,1.864,0,0,1-.719-2.4m-86.409-53.518c.972,2.873-3.564,4.094-4.526,1.247q-4.612-13.635-9.223-27.272c-.971-2.873,3.564-4.093,4.527-1.247q4.611,13.637,9.222,27.272" transform="translate(-14.036 -32.091)" fill="#fff"/>
        <path id="路径_5269" data-name="路径 5269" d="M92.32,245.6c-.861-5.163-1.259-10.71-7.616-11.846-5.512-.986-11.175-1.444-16.726-2.162l-27.224-3.518c-.046.084-.082.168-.133.251.051-.084.087-.167.133-.251l-23.324-3.014c-4.083-.528-11.648-2.6-11.167,4.156.427,5.994,2.016,12.127,3,18.05q2.63,15.81,5.259,31.619L99.8,290.458Q96.058,268.032,92.32,245.6" transform="translate(-1.626 -58.464)" fill="#fff"/>
        <path id="路径_5270" data-name="路径 5270" d="M268.977,309.475a2.574,2.574,0,0,0,3.807-1.151c.1-.258.187-.524.28-.785a17.492,17.492,0,0,1-3.558.356,4.252,4.252,0,0,1-.529,1.579" transform="translate(-70.093 -80.142)" fill="#323232"/>
        <path id="路径_5271" data-name="路径 5271" d="M373.188,265.24l-2.02,1.942,2.02-1.942a2.228,2.228,0,0,0-2.4-.126l-6.294,3.337-5.773,3.062c-1.239.657-2.83,1.931-4.167,2.324.606-.178-3.486-.111-4.031-.107s-1.119,0-1.679,0H330.458a6.51,6.51,0,0,0,2.294-1.2c3.689-2.92,1.643-6.9-.294-10.229-.4-.691-.8-1.454-1.2-2.243h-5.6c.094.174.186.344.273.5.932,1.707,2.041,3.312,2.986,5.01.85,1.526,2.153,4.554-1.156,3.15-3.275-1.39-4.547-10.849-9.4-6.686-4.475,3.835-7.523,9.741-11.505,14.1-6.218,6.807-14.448,9.771-23.22,11.947a2.311,2.311,0,0,0-.934,3.945,16.147,16.147,0,0,0,1.868-1.979,16.147,16.147,0,0,1-1.868,1.979,2.2,2.2,0,0,0,2.182.581c11.072-2.745,20.191-6.958,27.585-15.791.22-.262.427-.535.643-.8h0c2.448-3.012,4.689-6.2,7.211-9.15a36.24,36.24,0,0,0,3.142,4.035,8.433,8.433,0,0,0,4.09,2.828h-6.577a2.21,2.21,0,0,0-2.262,2.287h0a2.222,2.222,0,0,0,2.262,2.407c9.471,0,18.941.021,28.412,0,4.932-.011,7.281-.52,11.124-2.557l12.635-6.7c1.772-.94,1.318-3.035.035-3.928" transform="translate(-73.478 -67.768)" fill="#323232"/>
        <path id="路径_5272" data-name="路径 5272" d="M334.892,119.4H247.846c-4.282,0-11.124-1.239-14.152,2.547-2.009,2.513-2.3,6.937-2.941,10.049q-1.67,8.053-3.34,16.107-2.726,13.144-5.452,26.288a2.27,2.27,0,0,0,.641,2.158l.576-3.07-.576,3.07a2.726,2.726,0,0,0,1.49.745,14.686,14.686,0,0,0-1.48.126c-.06.008-.119.02-.179.029l-.966,5.151.966-5.151c-10.852,1.58-19.069,11.345-30.17,11.581a2.175,2.175,0,0,0-1.849.989c-2.653-13.022-5.109-26.092-7.129-39.216-.827-5.371-1.573-10.754-2.453-16.117-.705-4.3-1.216-8.226-3.5-11.981-5.919-9.722-14.357-15.7-24.447-20.5-.269-.128-.541-.249-.81-.375a2.371,2.371,0,0,0,.87-1.172l2.28-6.386c6.409,3.8,14.378,6.709,20.874,1.334,2.845-2.354,3.6-6.485,5.038-9.728.931-2.1,1.623-4.311,2.573-6.4a12.592,12.592,0,0,1,2.357-3.666c1.622-1.717,3.808-2.364,5.549-3.846,3.522-3,.948-6.388-.764-9.572-2.528-4.7-3.421-9.741-1.7-14.844,1.517-4.5,3.514-8.443,3.676-13.285a2.179,2.179,0,0,0-2.655-2.233,13.457,13.457,0,0,1,.3,4.85,13.457,13.457,0,0,0-.3-4.85,2.264,2.264,0,0,0-2.039,2.233,20.952,20.952,0,0,1-1.429,6.491,22.664,22.664,0,0,0-5.685-3.064,2.99,2.99,0,0,0-1.268-.269,24.541,24.541,0,0,0,7.945-6.579,2.382,2.382,0,0,0,.329-2.606c-1.48,1.109-3.3,1.873-4.6,3.168,1.294-1.295,3.117-2.059,4.6-3.168-.643-1.381-2.421-2.195-3.648-.713-2.842,3.431-5.727,5.744-9.5,6.715.117-.185.241-.364.356-.551,1.579-2.585-2.479-4.946-4.053-2.369A43.029,43.029,0,0,1,161.1,42.735c-3.438-4.157-9.83-3.364-12.6,2.183a16.627,16.627,0,0,0-1.582,7.978,2.253,2.253,0,0,0-1.077-.622c-9.261-2.429-13.223,6.225-16.631,13.454-1.967-.727-3.94-1.442-5.927-2.108a100.119,100.119,0,0,0-4.275-19.653c-1.812-5.719-3.838-10.006-1.72-15.985,1.9-5.357,5.661-10.052,9.682-13.978,16.675-16.283,45.42-9.294,56.9,9.769a2.246,2.246,0,0,0,3.137.787c-.7-1.345-1.412-2.7-2.015-4.11.6,1.409,1.31,2.765,2.015,4.11a2.187,2.187,0,0,0,.916-3.156C176.131,1.815,145.881-7.8,127,7.685c-8,6.562-16.868,17.364-15.331,28.459.436,3.14,1.866,6.066,2.819,9.072q1.585,5,2.677,10.145c.6,2.8,1.129,5.651,1.446,8.51Q116.454,74.3,114.3,84.718a2.49,2.49,0,0,0-.03.788,3.054,3.054,0,0,1,1.1-.907,3.054,3.054,0,0,0-1.1.907c.258,2.356,4,3.139,4.556.46q1.828-8.837,3.656-17.674c2.451.833,4.879,1.739,7.305,2.635a2.349,2.349,0,0,0,2.65-1.079c1.222-2.521,2.5-5.021,3.871-7.467,2.062-3.681,3.7-6.786,8.292-5.58a2.19,2.19,0,0,0,2.617-1.187,16.548,16.548,0,0,0,3.807,8.159c2.033,2.243,5.344-1.084,3.318-3.318-2.208-2.436-2.862-6.2-2.632-9.391a10.063,10.063,0,0,1,1.217-4.476c1.361-2.227,4.114-2.887,5.2.124a2.51,2.51,0,0,0,3.991,1,2.356,2.356,0,0,0,.607-.325,49.972,49.972,0,0,0,8.392-7.939,20.493,20.493,0,0,0,6.979-1.3,2.289,2.289,0,0,0-.282.387,2.365,2.365,0,0,0,.841,3.211c1.855.839,3.954,1.444,5.394,2.951a2.282,2.282,0,0,0,.936.6c-.055.152-.114.3-.168.454a20.514,20.514,0,0,0-.92,11.042,26.584,26.584,0,0,0,1.744,5.532c.648,1.511,2.528,3.659,2.555,5.292.024,1.42-.506,1.219-1.7,1.948a20.732,20.732,0,0,0-2.244,1.568,16.691,16.691,0,0,0-3.179,3.433,24.116,24.116,0,0,0-2.037,3.657,9.785,9.785,0,0,1-2.3-2.157,2.361,2.361,0,0,0-3.318,0,2.4,2.4,0,0,0,0,3.318,12.866,12.866,0,0,0,3.814,3.224c-.5,1.306-.992,2.6-1.521,3.826-.628,1.451-.84,3.251-1.7,4.586-1.383,2.157-4.422,2.787-6.78,2.784-4.676-.006-8.312-2.638-12.046-5.089a2.375,2.375,0,0,0-3.447,1.4l-3.319,9.3a2.351,2.351,0,0,0-.132.714c-11.259-4.86-23.041-8.289-34.783-11.817-.087,1.3-.14,2.584-1.258,3.33,1.119-.746,1.171-2.026,1.258-3.33l-.637-.192a2.314,2.314,0,0,0-2.815,2.939c.209-.069.413-.146.629-.2-.216.054-.42.132-.629.2a2.187,2.187,0,0,0,1.567,1.587c12.069,3.632,24.4,6.953,35.892,12.2,9.967,4.55,18.953,9.622,25.056,19.093,2.473,3.837,3,7.47,3.741,12,.825,5.026,1.536,10.069,2.3,15.1,1.741,11.5,3.908,22.941,6.155,34.353q1.953,9.918,4.042,19.81a2.525,2.525,0,0,0,2.585,3.736l24.125-4.124,6.033-1.031c.558-.1,1.129-.166,1.682-.287.27.35.748.861.858.974a12.265,12.265,0,0,1,1.713,2.374,17.875,17.875,0,0,1,1.023,2.083c1.347-.84,2.6-1.885,3.88-2.864a21.831,21.831,0,0,0-2.222-3.613c-1.437-1.88-3.233-3.748-5.707-3.616a37.566,37.566,0,0,0-4.188.716L193.3,203.869q-1.108-5.2-2.186-10.415a2.253,2.253,0,0,0,1.146.268c9.89-.211,17.4-6.818,26.318-10.209,4.268-1.622,8.714-2.22,12.637.65a62.805,62.805,0,0,1,8.088,7.731,2.052,2.052,0,0,0,2.389.542,13.242,13.242,0,0,1-1.046,1.657,25.9,25.9,0,0,1-8.1,7.432,2.245,2.245,0,0,0-.5,3.548,12.225,12.225,0,0,1,3-1.569,12.225,12.225,0,0,0-3,1.569,2.2,2.2,0,0,0,2.864.5,31.045,31.045,0,0,0,9.593-8.832,32.616,32.616,0,0,0,3.7-6.773c.847-1.9,2.861-3.554,4.045-1.979.841,1.118,2.589,1.724,3.686.475,1.55-1.764,3.558-2.247,5.066-.094a2.393,2.393,0,0,0,3.686.475c1.512-1.3,4.494-2.732,5.209-1.036.637,1.511,2.6,2.476,3.923,1.036,3.225-3.5,5.545.709,7.02,3.438h5.6c-1.328-2.621-2.73-5.563-4.807-7.41h0a7.986,7.986,0,0,0-1.071-.814,7.8,7.8,0,0,0-8.018-.145,6.865,6.865,0,0,0-3.64-1.673,7.532,7.532,0,0,0-5.631,1.75,6.707,6.707,0,0,0-9.1-.316,6.5,6.5,0,0,0-8.8,1.609,19.343,19.343,0,0,0-2.232,4.1,2.422,2.422,0,0,0-.515-.817c-3.273-3.468-6.809-7.31-11.036-9.5a2.084,2.084,0,0,0,2.889-1.534q4.9-22.933,9.793-45.865h88.677q-4.987,25.455-9.975,50.911H290.4a2.211,2.211,0,0,0-2.263,2.291h0a2.222,2.222,0,0,0,2.263,2.4h34.5a2.374,2.374,0,0,0,2.263-1.723q5.448-27.8,10.894-55.605a2.38,2.38,0,0,0-2.263-2.97H242.376a2.377,2.377,0,0,0-2.263,1.723q-5.081,23.794-10.161,47.588a2.292,2.292,0,0,0,.967,2.452,14.816,14.816,0,0,0-6.075-1.459,1.956,1.956,0,0,0,1.643-1.647q4.754-22.921,9.507-45.843c.446-2.15.47-5.149,3.013-5.7a22.179,22.179,0,0,1,4.347,0h81.279c4.889,0,10.56-.809,15.4,0,2.373.4,2.581,1.167,2.215,3.029q-.9,4.6-1.8,9.2-3.218,16.42-6.434,32.842L331.36,182.69c-.316,1.615-.7,7.214-3.009,7.481A2.455,2.455,0,0,0,326.23,192h0c-.4,1.409.291,3.072,2.121,2.861,4.422-.509,6.081-3.2,6.809-7.222.569-3.14,1.228-6.267,1.841-9.4q3.108-15.859,6.215-31.718c1.269-6.476,3.276-13.213,3.878-19.793.7-7.663-7.027-7.334-12.2-7.334M142.752,54.091c1.565.782,2.347-1.565,3.911-.782-1.564-.782-2.346,1.565-3.911.782m80.82,149.34c.545-.076.318.149,0,0" transform="translate(-28.659 0)" fill="#323232"/>
        <path id="路径_5273" data-name="路径 5273" d="M269.03,284.784a23.721,23.721,0,0,1-1.085,14.772,1.864,1.864,0,0,0,.719,2.4,4.252,4.252,0,0,0,.529-1.579h0a4.7,4.7,0,0,0-.052-1.563,4.7,4.7,0,0,1,.052,1.563,17.505,17.505,0,0,0,3.559-.357,27.948,27.948,0,0,0-.93-21.336c-1.276.98-2.532,2.025-3.88,2.864a23.425,23.425,0,0,1,1.089,3.237" transform="translate(-69.779 -72.622)" fill="#323232"/>
        <path id="路径_5274" data-name="路径 5274" d="M204.316,68.352c-3.02,0-3.025,4.694,0,4.694s3.025-4.694,0-4.694" transform="translate(-52.652 -17.812)" fill="#323232"/>
        <path id="路径_5275" data-name="路径 5275" d="M91.9,124.707c-1.488.967-2.835,2.111-4.177,3.006,1.342-.895,2.689-2.039,4.177-3.006a2.225,2.225,0,0,0-3.176-.95c-4.987,2.907-9.958,5.8-14.237,9.725-5.3,4.859-9.118,11.23-12.1,17.71-6.022,13.071-8.787,27.312-10.452,41.526a1.841,1.841,0,0,0,1.419,2.144,14.364,14.364,0,0,1-.047-4.567,14.364,14.364,0,0,0,.047,4.567,2.591,2.591,0,0,0,3.275-2.144c1.561-13.326,4.163-26.9,9.81-39.157,2.739-5.944,6.136-11.823,10.926-16.352,4.076-3.855,8.92-6.595,13.732-9.4a2.206,2.206,0,0,0,.807-3.1" transform="translate(-13.529 -32.162)" fill="#323232"/>
        <path id="路径_5276" data-name="路径 5276" d="M137.027,197.078c-.963-2.846-5.5-1.624-4.526,1.247l9.222,27.273c.963,2.846,5.5,1.624,4.526-1.248l-9.222-27.272" transform="translate(-34.493 -50.935)" fill="#323232"/>
        <path id="路径_5277" data-name="路径 5277" d="M236.784,271.586a8.58,8.58,0,0,1-5.449,1.811,8.58,8.58,0,0,0,5.449-1.811,2.5,2.5,0,0,0-2.805-1.784c-7.789,1.258-15.493,2.835-23.206,4.479q-5.568,1.187-11.167,2.221c-5.4.989-11.261,2.6-16.776,1.934-5-.6-5.458-2.008-6.93-6.16-1.45-4.09-2.665-8.267-3.856-12.438a700.206,700.206,0,0,1-16.493-69.6c-.566-3.187-1.5-6.744-1.267-10.006.086-1.2,1.9-5.388,2.929-7.458,1.938-3.889,4.683-9.34,9.037-10.951,2.808-1.039,1.594-5.577-1.248-4.526-7.467,2.762-11.632,11.723-14.271,18.666-1.282,3.369-1.162,5.883-.683,9.4,1.52,11.147,4.128,22.185,6.65,33.137,3.111,13.512,6.44,26.986,10.185,40.338,1.344,4.793,2.714,9.593,4.355,14.294a36.137,36.137,0,0,0,1.78,4.677l5.134.7-5.134-.7a8.241,8.241,0,0,0,1.658,2.287c3.909,3.647,10.229,3.417,15.119,2.786,5.826-.752,11.633-1.905,17.39-3.064,9.348-1.882,18.624-3.965,28.043-5.486a1.959,1.959,0,0,0,1.558-2.742" transform="translate(-39.013 -40.949)" fill="#323232"/>
        <path id="路径_5278" data-name="路径 5278" d="M383.919,258.891h4.761a2.2,2.2,0,0,0-2.257-2.213h-31.39a2.232,2.232,0,0,0-2.255,2.5h0a2.195,2.195,0,0,0,2.255,2.2h31.39a2.231,2.231,0,0,0,2.257-2.481Z" transform="translate(-91.929 -66.888)" fill="#323232"/>
        <path id="路径_5279" data-name="路径 5279" d="M267.636,265.672c2.9-1.166,6.023-2.371,6.723-5.805.693-3.4-1.823-7.027-5.367-7.124a22.925,22.925,0,0,0-7.542,1.322c-.27-1.749-2.434-3.109-3.878-1.412l-3.8,4.466c-1.365,1.6-.115,4.821,2.283,3.923,2.284-.855,4.533-1.746,6.882-2.4.071-.02.14-.044.211-.063,1.426-.384,4.143-1.559,5.617-1.14,3.229.918-1.29,3.266-2.378,3.7a2.49,2.49,0,0,0-.842.549c-1.6,1.594-.373,4.967,2.09,3.977" transform="translate(-65.984 -65.636)" fill="#323232"/>
        <path id="路径_5280" data-name="路径 5280" d="M109.407,246.442c-1.111-6.663-1.517-14.284-9.083-16.963-4.357-1.543-9.7-1.519-14.227-2.1l-32.258-4.169a8.268,8.268,0,0,1-.921,4.574L80.142,231.3c5.552.717,11.215,1.175,16.726,2.161,6.357,1.137,6.756,6.684,7.617,11.846q3.738,22.427,7.476,44.854l4.844.657q-3.7-22.187-7.4-44.375" transform="translate(-13.79 -58.165)" fill="#323232"/>
        <path id="路径_5281" data-name="路径 5281" d="M40.049,221.828l-22.081-2.853c-4.862-.628-11.127-2.541-15.188,1.147C-1.987,224.452.627,231.9,1.537,237.364q3.259,19.6,6.518,39.193l4.842.657Q10.268,261.4,7.639,245.595c-.985-5.923-2.575-12.055-3-18.05-.481-6.756,7.085-4.683,11.168-4.156L39.129,226.4a8.276,8.276,0,0,0,.921-4.575" transform="translate(0 -56.787)" fill="#323232"/>
        <path id="路径_5282" data-name="路径 5282" d="M284.954,68.518a27.569,27.569,0,0,0,11.6,17.428,30.729,30.729,0,0,0,9.978,4.138,3.578,3.578,0,0,1,3.028,2.737c.725,1.9,1.422,3.8,2.128,5.7.5-1.065,1.049-2.105,1.315-2.816a29.212,29.212,0,0,1,1.414-3.794c1.349-2.459,5.251-2.327,7.735-3.328a27.183,27.183,0,0,0,8.47-5.474,27.815,27.815,0,0,0,8.576-19.9c-.308-17.071-16.105-30.51-33.13-26.776a27.658,27.658,0,0,0-21.113,32.076m16.481-5.669,6.993,5.536,12.8-14.483c2.005-2.269,5.313,1.063,3.318,3.318q-7.083,8.016-14.165,16.03a2.393,2.393,0,0,1-3.319,0l-8.946-7.082c-2.368-1.875.975-5.174,3.319-3.319" transform="translate(-74.122 -9.333)" fill="#fff"/>
        <path id="路径_5283" data-name="路径 5283" d="M303.594,92.928l2.425,6.505c.769,2.061,1.422,4.895,4.177,4.895s3.408-2.833,4.177-4.895l2.421-6.493a32.508,32.508,0,0,0,25.473-31.356c-.357-19.838-18.31-35.12-38.038-31.508C284.482,33.691,272.9,55.508,280.613,73.94a32.376,32.376,0,0,0,22.98,18.988m.849-58.12c17.025-3.734,32.823,9.7,33.13,26.776A27.818,27.818,0,0,1,329,81.48a27.185,27.185,0,0,1-8.469,5.474c-2.484,1-6.387.869-7.735,3.328a29.059,29.059,0,0,0-1.414,3.793c-.265.711-.819,1.751-1.314,2.816-.706-1.9-1.4-3.809-2.129-5.7a3.574,3.574,0,0,0-3.028-2.737,30.753,30.753,0,0,1-9.978-4.138,27.382,27.382,0,0,1,9.513-49.5" transform="translate(-72.497 -7.699)" fill="#323232"/>
        <path id="路径_5284" data-name="路径 5284" d="M327.447,220.308h18.885c3.374-.442,3.609-9.43,4.018-11.607.358-1.911,2.495-7.339.093-8.073-2.47-.756-6.363,0-8.921,0H329.348c-2.485,0-5.81-.847-7.118,2.1-1.152,2.6-1.191,6.348-1.712,9.125-.31,1.654-2.453,7.514-.508,8.454,1.643.793,5.663,0,7.437,0m-.019-16.376,6.982,6.594,10.667-6.961c2.54-1.658,4.889,2.408,2.369,4.053l-11.538,7.53a2.529,2.529,0,0,1-.239.123,2.264,2.264,0,0,1-3.125-.054l-8.435-7.966c-2.2-2.08,1.124-5.393,3.319-3.319" transform="translate(-83.181 -52.194)" fill="#fff"/>
        <path id="路径_5285" data-name="路径 5285" d="M344.7,223.433a2.409,2.409,0,0,0,.8-.14c4.743-.978,5.819-4.672,6.643-9.059.806-4.3,1.818-8.61,2.428-12.94.626-4.439-2.113-6.821-6.312-6.928-4.452-.114-8.921,0-13.374,0-3.91,0-7.886-.209-11.791,0-4.549.243-6.615,3.367-7.381,7.451-.875,4.665-1.858,9.322-2.629,14.005-.683,4.156,1.018,7.388,5.535,7.611,8.452.417,17.017.021,25.486,0a2.4,2.4,0,0,0,.591,0m-25.813-13.147c.521-2.777.561-6.528,1.712-9.125,1.308-2.949,4.632-2.1,7.118-2.1H339.89c2.557,0,6.451-.756,8.921,0,2.4.734.265,6.162-.094,8.073-.408,2.178-.644,11.165-4.018,11.607H325.815c-1.774,0-5.794.793-7.438,0-1.945-.94.2-6.8.509-8.454" transform="translate(-81.549 -50.626)" fill="#323232"/>
        <path id="路径_5286" data-name="路径 5286" d="M334.017,216.235a2.264,2.264,0,0,0,3.125.054,2.641,2.641,0,0,0,.239-.124l11.538-7.53c2.52-1.644.171-5.71-2.369-4.053l-10.667,6.962-6.982-6.594c-2.2-2.073-5.52,1.239-3.319,3.318l8.435,7.967" transform="translate(-84.655 -53.211)" fill="#323232"/>
        <path id="路径_5287" data-name="路径 5287" d="M302.65,72.276l8.946,7.082a2.391,2.391,0,0,0,3.318,0L329.08,63.329c1.993-2.256-1.314-5.588-3.319-3.319l-12.8,14.484-6.993-5.537c-2.344-1.855-5.688,1.444-3.319,3.319" transform="translate(-78.656 -15.44)" fill="#f6df6d"/>
      </g>
    </g>
  </g>
</svg>
