<svg xmlns="http://www.w3.org/2000/svg" width="224.613" height="224.613" viewBox="0 0 224.613 224.613">
  <g id="组_1948" data-name="组 1948" transform="translate(-501.145 -39.222) rotate(-13)">
    <circle id="椭圆_177" data-name="椭圆 177" cx="88.41" cy="88.41" r="88.41" transform="translate(475.231 197.231)" fill="#fd4842"/>
    <g id="椭圆_178" data-name="椭圆 178" transform="translate(470 192)" fill="none" stroke="#fd4842" stroke-width="1">
      <circle cx="93.642" cy="93.642" r="93.642" stroke="none"/>
      <circle cx="93.642" cy="93.642" r="93.142" fill="none"/>
    </g>
    <path id="路径_50" data-name="路径 50" d="M1.921,8.659a1.022,1.022,0,0,1-.725.324A1.353,1.353,0,0,1,0,7.718.855.855,0,0,1,.254,7.1,20.97,20.97,0,0,0,5.182.69.873.873,0,0,1,6.015.145a1.259,1.259,0,0,1,1.23,1.16.648.648,0,0,1-.073.362A25.7,25.7,0,0,1,1.921,8.659m3.768,5.435V31.631a1.148,1.148,0,0,1-2.285,0V16.886c-.542.578-1.049,1.05-1.449,1.446a1.254,1.254,0,0,1-.869.4A1.246,1.246,0,0,1,0,17.426a1.1,1.1,0,0,1,.362-.831A23.454,23.454,0,0,0,6.051,9.276a.959.959,0,0,1,.869-.653,1.321,1.321,0,0,1,1.2,1.23.971.971,0,0,1-.11.437,26.41,26.41,0,0,1-2.317,3.8M9.6,31.051H9.493a1.32,1.32,0,0,1-1.2-1.378,1,1,0,0,1,.942-1.049c1.74-.146,3.477-.291,5.144-.472V21.7H9.746a1.051,1.051,0,1,1,0-2.1h4.637V16.886c0-1.378,2.32-1.378,2.32,0V19.6h4.745a1.051,1.051,0,1,1,0,2.1H16.7V27.9c1.848-.216,3.623-.47,5.217-.723H22.1a.915.915,0,0,1,.869,1.012,1.129,1.129,0,0,1-.869,1.162c-3.334.578-7.971,1.23-12.5,1.7m.472-17.065a1.051,1.051,0,1,1,0-2.1h4.311V6.231H10.434a1.051,1.051,0,0,1,0-2.1h3.949V1.014A1.017,1.017,0,0,1,15.506,0a1.113,1.113,0,0,1,1.2,1.087V4.13h3.912a1.051,1.051,0,0,1,0,2.1H16.7v5.654H20.76a1.051,1.051,0,0,1,0,2.1Zm19.781-1.268V29.276c0,2.174-.58,3.3-2.9,3.3a14.106,14.106,0,0,1-2.9-.362,1.266,1.266,0,0,1-.977-1.27.955.955,0,0,1,.9-1.05.826.826,0,0,1,.291.035,11.99,11.99,0,0,0,2.317.4c.906,0,.944-.507.944-1.557V12.719h-4.06a1.007,1.007,0,0,1-1.014-1.087,1,1,0,0,1,1.014-1.052h8.117c1.268,0,1.268,2.139,0,2.139Zm-5.4-8.553a1,1,0,0,1-1.087-1.052,1.044,1.044,0,0,1,1.087-1.085h6.666a.994.994,0,0,1,.944,1.085.942.942,0,0,1-.944,1.052Z" transform="translate(507.142 245.671)" fill="#fff"/>
    <path id="路径_51" data-name="路径 51" d="M20.892,23.773c-2.608.216-5.107.352-7.389.352C5.541,24.125,0,22.5,0,16.952,0,13.5,2.771,10.786,7.959,8.964c-.162-2.688-.434-5.132-.733-7.8V1.033A1.116,1.116,0,0,1,8.45,0,1.037,1.037,0,0,1,9.563.979c.136,2.472.272,4.808.38,7.361A55.53,55.53,0,0,1,20.077,6.628h.136a1.008,1.008,0,0,1,1.087,1,.926.926,0,0,1-.925.979C8.15,9.455,1.984,12.85,1.984,16.9c0,3.7,3.94,5.163,11.354,5.163,2.174,0,4.618-.136,7.363-.355h.136a.969.969,0,0,1,1.059,1,1.041,1.041,0,0,1-1,1.061" transform="translate(542.133 249.74)" fill="#fff"/>
    <path id="路径_52" data-name="路径 52" d="M32.5,30.978a1.516,1.516,0,0,1-1.376,1.559,1.221,1.221,0,0,1-.688-.183c-4.348-2.536-10.8-9.673-14.024-18.948C14.529,22.281,8.225,29.565,1.813,32.5a1.258,1.258,0,0,1-.58.146A1.347,1.347,0,0,1,0,31.2a1.232,1.232,0,0,1,.69-1.16C9.964,25.761,14.928,15.724,14.928,7.645V1.305a1.287,1.287,0,1,1,2.573,0V7.645c0,6.668,6.555,17.79,14.456,22.354a1.042,1.042,0,0,1,.542.979" transform="translate(567.412 245.671)" fill="#fff"/>
    <path id="路径_53" data-name="路径 53" d="M22.441,11.629c-2.174.6-4.076,1.2-5.705,1.766V18.5c0,1.169-1.982,1.169-1.982,0l.054-4.346C9.619,16.3,7.769,18.447,7.769,20.269c0,1.709,2.174,2.254,7.473,2.254a37.156,37.156,0,0,0,5.705-.38h.134a.836.836,0,0,1,.817.9.943.943,0,0,1-.9.951,44.1,44.1,0,0,1-5.813.3c-6.656,0-9.265-1.061-9.265-3.912,0-3.287,3.613-5.842,8.83-7.962C14.536,10.568,13.585,9.7,12.063,9.7c-3.4,0-7.363,3.1-10.216,7.255a.976.976,0,0,1-.841.517A1.067,1.067,0,0,1,0,16.438a1.1,1.1,0,0,1,.244-.653A37.259,37.259,0,0,0,6.983,4.973C5.109,5,3.233,5,1.467,4.973a.856.856,0,0,1-.787-.925.755.755,0,0,1,.761-.815c1.3.056,2.58.082,3.912.082.733,0,1.493-.026,2.254-.026.3-.9.571-1.794.843-2.717A.824.824,0,0,1,9.291,0a.958.958,0,0,1,1.061.843.718.718,0,0,1-.028.244c-.216.707-.434,1.413-.7,2.146,3.477-.108,6.926-.324,10.27-.65h.106a.812.812,0,0,1,.817.869.8.8,0,0,1-.761.869c-3.775.3-7.5.491-11.084.6a33.838,33.838,0,0,1-2.989,5.623A9.075,9.075,0,0,1,12.009,8.07c2.416,0,4.074,1.087,4.564,3.613,1.683-.6,3.449-1.2,5.3-1.737a1.316,1.316,0,0,1,.326-.056.864.864,0,0,1,.841.925.808.808,0,0,1-.6.815" transform="translate(600.868 249.74)" fill="#fff"/>
    <path id="路径_54" data-name="路径 54" d="M32.57,26.9a1.122,1.122,0,0,1-1.087,1.125.947.947,0,0,1-.723-.362c-.472-.545-.979-1.233-1.521-1.85-2.9.326-7.248.545-11.7.688V31.61c0,1.341-2.317,1.341-2.317,0V26.574c-5.651.146-11.268.218-14.022.218A1.18,1.18,0,0,1,0,25.6a.932.932,0,0,1,1.014-.942H1.05c2.428.073,6.45.143,10.944.143.07-.035.143-.035.181-.07a1.718,1.718,0,0,0,.688-.329,62.741,62.741,0,0,0-7.5-2.789.67.67,0,0,1-.507-.65,1.228,1.228,0,0,1,1.23-1.125.928.928,0,0,1,.437.073c.941.364,2.137.869,3.224,1.341a33.985,33.985,0,0,0,5.182-3.224,1.266,1.266,0,0,1,.8-.291.992.992,0,0,1,.977.942.781.781,0,0,1-.4.688,32.563,32.563,0,0,1-4.567,2.646c1.017.472,2.1,1.014,3.08,1.449A68.529,68.529,0,0,0,22.535,19a1.168,1.168,0,0,1,.618-.216,1.139,1.139,0,0,1,1.085,1.087.9.9,0,0,1-.47.761c-2.611,1.449-5.327,2.933-7.9,4.13,4.168-.073,8.443-.181,11.885-.47-.472-.545-1.014-1.125-1.559-1.7a.752.752,0,0,1-.251-.545,1.065,1.065,0,0,1,1.049-.977,1.016,1.016,0,0,1,.761.326c1.559,1.594,3.08,3.043,4.529,4.745a1.13,1.13,0,0,1,.289.761M1.7,32.12a1.639,1.639,0,0,1-.364.07A1.308,1.308,0,0,1,.035,31a.712.712,0,0,1,.58-.688,31.292,31.292,0,0,0,6.922-2.789,1.11,1.11,0,0,1,.65-.183,1.076,1.076,0,0,1,1.052,1.052.828.828,0,0,1-.434.688A35.978,35.978,0,0,1,1.7,32.12M9.347,16.612v1.665a.979.979,0,1,1-1.956,0V16.612H.761c-.871,0-.871-1.632,0-1.632h6.63V13.316H3.914c-1.848,0-2.864-.8-2.864-2.355V7.335c0-1.557,1.017-2.355,2.864-2.355H7.391V3.5H1.122a.8.8,0,0,1,0-1.594H7.391V.815c0-1.087,1.956-1.087,1.956,0V1.9h6.7a.8.8,0,0,1,0,1.594h-6.7V4.98h3.66c1.848,0,2.86.833,2.86,2.355v3.625c0,1.521-1.012,2.355-2.86,2.355H9.347V14.98h7.138c.833,0,.833,1.632,0,1.632ZM7.391,6.467H3.7a.617.617,0,0,0-.653.688V8.422H7.391Zm0,3.226H3.043v1.449c0,.362.108.688.653.688h3.7Zm6.485-2.538a.645.645,0,0,0-.688-.688H9.347V8.422h4.529Zm0,2.538H9.347v2.137h3.841a.611.611,0,0,0,.688-.688Zm15.977-2.5H28.44c-1.557,0-2.355-.8-2.355-2.174V3.6c0-.472-.181-.653-.688-.653H22.5c-.545,0-.725.256-.725.761a4.747,4.747,0,0,1-3.224,4.276.969.969,0,0,1-.434.11,1.186,1.186,0,0,1-1.125-1.16.769.769,0,0,1,.507-.761c1.885-.833,2.137-1.451,2.137-3.008,0-1.341.8-2.1,2.684-2.1h3.005c2.32,0,2.935.942,2.935,2.428v.942c0,.688,0,.871.761.871h.761c.507,0,.8-.075.906-2.066a.8.8,0,0,1,.834-.763.95.95,0,0,1,.977.979v.073c-.143,2.465-.758,3.66-2.644,3.66M32.57,17.337a1.058,1.058,0,0,1-1.012,1.122c-.075,0-.146-.035-.218-.035a30.356,30.356,0,0,1-6.6-2.031,22.23,22.23,0,0,1-6.159,1.7h-.218a1.079,1.079,0,0,1-1.049-1.087.806.806,0,0,1,.8-.831,20.075,20.075,0,0,0,4.891-.8,39.238,39.238,0,0,1-3.949-2.573.678.678,0,0,1-.291-.542,1.058,1.058,0,0,1,1.014-.979,1.079,1.079,0,0,1,.688.254,19.243,19.243,0,0,0,4.2,2.792,9.06,9.06,0,0,0,3.841-2.9.7.7,0,0,0,.11-.362.391.391,0,0,0-.4-.434H18.116a.913.913,0,0,1-.944-.942.858.858,0,0,1,.944-.871H28.586c1.559,0,2.174.871,2.174,1.813a2.971,2.971,0,0,1-.653,1.775,10.737,10.737,0,0,1-3.623,2.932,30.423,30.423,0,0,0,5.4,1.125.8.8,0,0,1,.688.871M32.643,31a1.012,1.012,0,0,1-.979,1.05,1.236,1.236,0,0,1-.578-.143c-1.74-.833-4.022-1.921-7.1-3.153a.86.86,0,0,1-.58-.761,1.034,1.034,0,0,1,1.122-.942,2,2,0,0,1,.618.108c2.827,1.052,4.928,1.958,6.849,2.862a1.061,1.061,0,0,1,.65.979" transform="translate(507.29 292.735)" fill="#fff"/>
    <path id="路径_55" data-name="路径 55" d="M4.6,2.681A54.161,54.161,0,0,0,2.644,16.63v1.233A62.658,62.658,0,0,0,3.658,29.6,1.561,1.561,0,0,1,3.7,30a1.466,1.466,0,0,1-1.486,1.484A1.432,1.432,0,0,1,.761,30.18,80.542,80.542,0,0,1,0,18.332V16.56A66.016,66.016,0,0,1,1.921,2.066a1.271,1.271,0,0,1,1.3-1.049A1.372,1.372,0,0,1,4.675,2.285a1.572,1.572,0,0,1-.073.4m26.447,7.826c-.362.073-.8.11-1.268.183-1.338.143-3.043.289-4.891.362.038,2.681.073,5.363.073,7.68,0,8.877-2.355,12.357-10.615,13.733a1.532,1.532,0,0,1-.4.035,1.275,1.275,0,0,1-1.378-1.3,1.22,1.22,0,0,1,.979-1.27c7.356-1.411,8.913-3.44,8.913-11.195,0-2.317-.035-4.926-.146-7.572-1.918.073-3.912.073-5.94.073-2.827,0-5.616-.035-8.079-.143A1.368,1.368,0,0,1,6.992,9.673a1.084,1.084,0,0,1,1.2-1.122H8.3c3.005.218,6.485.291,9.854.291,1.413,0,2.789,0,4.092-.038-.07-2.571-.216-5.036-.4-7.138V1.559c0-.615.653-.941,1.305-.941s1.266.289,1.341.941c.181,1.993.289,4.564.362,7.173,2.428-.108,4.491-.289,5.9-.47H30.9a1.1,1.1,0,0,1,.979,1.2.982.982,0,0,1-.834,1.05M28.7,7.429a.842.842,0,0,1-.833-.58A18.958,18.958,0,0,0,25.8,2.43a.706.706,0,0,1-.146-.437,1.073,1.073,0,0,1,1.087-.906,1.028,1.028,0,0,1,.871.472,24.346,24.346,0,0,1,2.137,4.456,1.262,1.262,0,0,1,.035.362A1.082,1.082,0,0,1,28.7,7.429m3.332-1.521a.88.88,0,0,1-.834-.58,21.056,21.056,0,0,0-1.956-3.949.7.7,0,0,1-.146-.434A1.073,1.073,0,0,1,30.18,0a.929.929,0,0,1,.834.509,27.489,27.489,0,0,1,2.029,4.128,1.035,1.035,0,0,1,.073.329,1.068,1.068,0,0,1-1.087.942" transform="translate(544.455 292.496)" fill="#fff"/>
    <path id="路径_56" data-name="路径 56" d="M6.45,11.232a.971.971,0,0,0-.11.47.683.683,0,0,0,.146.434c2.1,3.55,3.008,6.377,3.008,8.478,0,2.789-1.629,4.24-4.24,4.24a10.781,10.781,0,0,1-1.484-.146,1.207,1.207,0,0,1-.8-1.233c0-.507.253-1.014.761-1.014a.45.45,0,0,1,.218.038,5.624,5.624,0,0,0,1.233.178c1.376,0,2.064-.8,2.064-2.245,0-1.667-.906-4.2-2.754-7.426a3,3,0,0,1-.472-1.413,1.866,1.866,0,0,1,.146-.725L6.884,3.984a1.317,1.317,0,0,0,.07-.362c0-.218-.108-.364-.4-.364H2.935c-.472,0-.653.218-.653.726v27.5a1.142,1.142,0,0,1-2.282,0V4.092C0,2.137.941,1.014,2.789,1.014H6.738c1.629,0,2.609.942,2.609,2.209a2.888,2.888,0,0,1-.218,1.087ZM31.7,29.673a1.547,1.547,0,0,1-1.341,1.413.7.7,0,0,1-.542-.254c-5.724-6.487-6.7-16.522-7.429-23.768h-1.23a20.026,20.026,0,0,1-2.573,3.116C21.847,14.348,23,19.673,23,25.505c0,4.13-.9,7.318-4.818,7.318a12.566,12.566,0,0,1-3.442-.615,1.147,1.147,0,0,1-.761-1.2c0-.615.326-1.2.906-1.2a1.638,1.638,0,0,1,.364.07,9.4,9.4,0,0,0,2.86.58c2.174,0,2.573-1.667,2.573-5.144,0-.906-.038-1.775-.073-2.571a37.568,37.568,0,0,1-10.65,6.52,1.114,1.114,0,0,1-.472.108,1.362,1.362,0,0,1-1.305-1.376,1.116,1.116,0,0,1,.833-1.05,30.9,30.9,0,0,0,11.34-6.849,20.259,20.259,0,0,0-.869-3.8,30.648,30.648,0,0,1-7.9,4.783,1.252,1.252,0,0,1-.472.108,1.181,1.181,0,0,1-1.087-1.268.878.878,0,0,1,.542-.906,26.221,26.221,0,0,0,8.117-4.71,15.4,15.4,0,0,0-1.883-2.827A24.149,24.149,0,0,1,10.542,14.6a.627.627,0,0,1-.254.035A1.309,1.309,0,0,1,9.166,13.3a.948.948,0,0,1,.653-.941c3.912-1.376,6.7-2.717,8.659-5.29H11.051a1.087,1.087,0,0,1,0-2.174h4.527a36.844,36.844,0,0,0-2.1-3.261.854.854,0,0,1-.181-.472c0-.615.725-1.122,1.378-1.122a1,1,0,0,1,.9.545,28.043,28.043,0,0,1,2.1,4.311h6.015A28.067,28.067,0,0,0,25.869.615,1.011,1.011,0,0,1,26.848,0a1.243,1.243,0,0,1,1.3,1.052.775.775,0,0,1-.073.4A24.9,24.9,0,0,1,25.94,4.891h4.24a1.087,1.087,0,0,1,0,2.174H24.418a78.576,78.576,0,0,0,1.017,8.551,19.662,19.662,0,0,0,3.332-4.891.635.635,0,0,1,.617-.364,1.433,1.433,0,0,1,1.338,1.16.587.587,0,0,1-.108.326,23.924,23.924,0,0,1-4.745,5.94c1.05,4.529,2.752,8.478,5.579,11.27a.846.846,0,0,1,.254.615" transform="translate(580.288 292.79)" fill="#fff"/>
    <path id="路径_57" data-name="路径 57" d="M1.466,31.131C.383,30.95-.173,29.745.048,28.431s1.132-2.275,2.214-2.094,1.636,1.383,1.418,2.7-1.132,2.275-2.214,2.1m2.7-8.61c-.2.96-.862,1.367-1.482,1.263a1.331,1.331,0,0,1-.993-1.674l2.977-20.8c.31-2.094,3.79-1.517,3.4.566Z" transform="translate(619.431 294.074)" fill="#fff"/>
  </g>
</svg>
