<svg xmlns="http://www.w3.org/2000/svg" width="29.994" height="30" viewBox="0 0 29.994 30">
  <g id="组_2330" data-name="组 2330" transform="translate(11599.261 -10272.076)">
    <path id="路径_1229" data-name="路径 1229" d="M102.128,352.43a15,15,0,1,1,15-15,15.015,15.015,0,0,1-15,15m0-28.7a13.7,13.7,0,1,0,13.7,13.7,13.714,13.714,0,0,0-13.7-13.7" transform="translate(-11686.392 9949.646)" fill="#2ca6e0"/>
    <path id="路径_1230" data-name="路径 1230" d="M90.33,324.013a1.956,1.956,0,1,1-1.956,1.956,1.958,1.958,0,0,1,1.956-1.956" transform="translate(-11680.464 9957.197)" fill="#2ca6e0"/>
    <path id="路径_1231" data-name="路径 1231" d="M92.365,324.013a1.956,1.956,0,1,1-1.956,1.956,1.958,1.958,0,0,1,1.956-1.956" transform="translate(-11670.754 9957.197)" fill="#2ca6e0"/>
    <path id="路径_1232" data-name="路径 1232" d="M95.551,325.367a7.178,7.178,0,0,1,7.034,5.747.652.652,0,0,1-.508.767.621.621,0,0,1-.768-.508,5.873,5.873,0,0,0-11.512,0,.608.608,0,0,1-.762.508.651.651,0,0,1-.514-.767,7.181,7.181,0,0,1,7.028-5.747" transform="translate(-11679.813 9963.656)" fill="#2ca6e0"/>
  </g>
</svg>
