<svg id="组_1052" data-name="组 1052" xmlns="http://www.w3.org/2000/svg" width="30" height="30" viewBox="0 0 30 30">
  <path id="路径_1233" data-name="路径 1233" d="M88.468,352.431a15,15,0,1,1,15-15,15.015,15.015,0,0,1-15,15m0-28.7a13.7,13.7,0,1,0,13.7,13.7,13.706,13.706,0,0,0-13.7-13.7" transform="translate(-73.471 -322.431)" fill="#f29600"/>
  <path id="路径_1234" data-name="路径 1234" d="M87.329,327.125H75.586a.652.652,0,0,1,0-1.3H87.329a.652.652,0,1,1,0,1.3" transform="translate(-66.464 -306.26)" fill="#f29600"/>
  <path id="路径_1235" data-name="路径 1235" d="M78.626,325.543h-3.26a.652.652,0,1,1,0-1.3h3.26a.652.652,0,0,1,0,1.3" transform="translate(-67.541 -313.806)" fill="#f29600"/>
  <path id="路径_1236" data-name="路径 1236" d="M80.547,325.543h-3.26a.652.652,0,0,1,0-1.3h3.26a.652.652,0,0,1,0,1.3" transform="translate(-58.378 -313.806)" fill="#f29600"/>
</svg>
