<svg id="组_1059" data-name="组 1059" xmlns="http://www.w3.org/2000/svg" width="30" height="30" viewBox="0 0 30 30">
  <path id="路径_1225" data-name="路径 1225" d="M74.811,352.43a15,15,0,1,1,15-15,15.016,15.016,0,0,1-15,15m0-28.7a13.7,13.7,0,1,0,13.7,13.7,13.716,13.716,0,0,0-13.7-13.7" transform="translate(-59.811 -322.43)" fill="#e50012"/>
  <path id="路径_1226" data-name="路径 1226" d="M63.011,324.013a1.956,1.956,0,1,1-1.957,1.956,1.958,1.958,0,0,1,1.957-1.956" transform="translate(-53.88 -314.878)" fill="#e50012"/>
  <path id="路径_1227" data-name="路径 1227" d="M65.045,324.013a1.956,1.956,0,1,1-1.957,1.956,1.958,1.958,0,0,1,1.957-1.956" transform="translate(-44.176 -314.878)" fill="#e50012"/>
  <path id="路径_1228" data-name="路径 1228" d="M68.237,331.9a7.561,7.561,0,0,1-1.431-.138,7.181,7.181,0,0,1-5.6-5.6.651.651,0,0,1,.508-.767.62.62,0,0,1,.768.507,5.875,5.875,0,0,0,11.514,0,.608.608,0,0,1,.762-.507.651.651,0,0,1,.514.767,7.177,7.177,0,0,1-7.03,5.741" transform="translate(-53.237 -308.415)" fill="#e50012"/>
</svg>
