<svg xmlns="http://www.w3.org/2000/svg" width="13.304" height="18" viewBox="0 0 13.304 18">
  <g id="组_1325" data-name="组 1325" transform="translate(-320 -2384)">
    <path id="路径_1603" data-name="路径 1603" d="M10.826,2.565A1.565,1.565,0,1,1,12.391,4.13,1.57,1.57,0,0,1,10.826,2.565Zm-4.5,15.261a.587.587,0,1,0,.587.587A.591.591,0,0,0,6.326,17.826Zm6.652,0a.587.587,0,1,0,.587.587A.591.591,0,0,0,12.978,17.826Zm2.731-2.739a.564.564,0,0,0-.462.235,2.346,2.346,0,0,1-1.878.939h-.2v-4.7L9.793,9.476,11.2,7.214a5.093,5.093,0,0,0,4.32,2.395V8.043A3.521,3.521,0,0,1,12.29,5.915l-.407-.947a1.429,1.429,0,0,0-1.291-.837H6.13L4.174,7.261l1.33.83L6.991,5.7H8.83L6.952,8.7a1.57,1.57,0,0,0-.164,1.307l1.049,3.248L5.395,16.2a2.318,2.318,0,0,1-1.338-.877.578.578,0,0,0-.47-.235A.586.586,0,0,0,3,15.674a.612.612,0,0,0,.117.352,3.5,3.5,0,0,0,2.817,1.409H13.37a3.5,3.5,0,0,0,2.817-1.409.612.612,0,0,0,.117-.352A.593.593,0,0,0,15.71,15.087Zm-4.1,1.174H7.383l2.27-2.739L8.87,10.939l2.739,1.722Z" transform="translate(317 2383)" fill="#fcaa29"/>
  </g>
</svg>
