<svg xmlns="http://www.w3.org/2000/svg" width="18" height="13.713" viewBox="0 0 18 13.713">
  <g id="toys_black_24dp" transform="translate(-0.997 -4)">
    <path id="路径_1587" data-name="路径 1587" d="M19,12.57a3.422,3.422,0,0,0-2.785-3.36L15.055,5.757A2.552,2.552,0,0,0,12.621,4H8.233A2.552,2.552,0,0,0,5.8,5.757L5.122,7.771l-1.2-1.2.249-.249A.854.854,0,1,0,2.962,5.114L1.248,6.828A.854.854,0,0,0,2.457,8.037l.257-.257L4.248,9.314a3.412,3.412,0,0,0-.634,6.239A2.56,2.56,0,0,0,8.559,16H12.3a2.56,2.56,0,0,0,4.945-.446A3.431,3.431,0,0,0,19,12.57ZM6.142,16A.857.857,0,1,1,7,15.142.86.86,0,0,1,6.142,16ZM9.57,9.142H6.493l-.017-.017L7.419,6.3a.857.857,0,0,1,.814-.583H9.57Zm1.714-3.428h1.337a.857.857,0,0,1,.814.583l.943,2.845H11.284ZM14.712,16a.857.857,0,1,1,.857-.857A.86.86,0,0,1,14.712,16Z" transform="translate(0)" fill="#fcaa29"/>
  </g>
</svg>
