<svg xmlns="http://www.w3.org/2000/svg" width="15.429" height="18" viewBox="0 0 15.429 18">
  <path id="路径_1591" data-name="路径 1591" d="M10.714,19a7.715,7.715,0,0,0,7.714-7.714A7.715,7.715,0,0,0,10.714,19ZM5.229,8.929a2.145,2.145,0,0,0,3.36,1.766l-.017.163a2.143,2.143,0,1,0,4.286,0l-.017-.163a2.112,2.112,0,0,0,1.217.377A2.138,2.138,0,0,0,14.974,7,2.14,2.14,0,1,0,12.84,3.306l.017-.163a2.143,2.143,0,1,0-4.286,0l.017.163a2.112,2.112,0,0,0-1.217-.377A2.138,2.138,0,0,0,6.454,7,2.135,2.135,0,0,0,5.229,8.929Zm5.486-4.071A2.143,2.143,0,1,1,8.571,7,2.144,2.144,0,0,1,10.714,4.857ZM3,11.286A7.715,7.715,0,0,0,10.714,19,7.715,7.715,0,0,0,3,11.286Z" transform="translate(-3 -1)" fill="#fcaa29"/>
</svg>
