<svg xmlns="http://www.w3.org/2000/svg" width="18" height="13.116" viewBox="0 0 18 13.116">
  <path id="路径_1589" data-name="路径 1589" d="M20.369,15.39,19.348,8.214A3.744,3.744,0,0,0,15.638,5H7.15A3.744,3.744,0,0,0,3.44,8.214L2.418,15.39a2.385,2.385,0,0,0,2.361,2.726h0a2.375,2.375,0,0,0,1.686-.7l2.117-2.108H14.2l2.108,2.108a2.391,2.391,0,0,0,1.686.7h0A2.386,2.386,0,0,0,20.369,15.39Zm-9.912-4.769H8.583V12.5H7.646V10.621H5.772V9.684H7.646V7.811h.937V9.684h1.874ZM14.2,9.684a.937.937,0,1,1,.937-.937A.94.94,0,0,1,14.2,9.684ZM16.078,12.5a.937.937,0,1,1,.937-.937A.94.94,0,0,1,16.078,12.5Z" transform="translate(-2.394 -5)" fill="#fcaa29"/>
</svg>
