<svg xmlns="http://www.w3.org/2000/svg" width="20" height="15" viewBox="0 0 20 15">
  <path id="路径_1607" data-name="路径 1607" d="M18.333,3H5.833a1.568,1.568,0,0,0-1.325.733L0,10.5l4.508,6.758A1.679,1.679,0,0,0,5.892,18H18.333A1.672,1.672,0,0,0,20,16.333V4.667A1.672,1.672,0,0,0,18.333,3ZM7.5,11.75A1.25,1.25,0,1,1,8.75,10.5,1.248,1.248,0,0,1,7.5,11.75Zm4.167,0a1.25,1.25,0,1,1,1.25-1.25A1.248,1.248,0,0,1,11.667,11.75Zm4.167,0a1.25,1.25,0,1,1,1.25-1.25A1.248,1.248,0,0,1,15.833,11.75Z" transform="translate(0 -3)" fill="#fcaa29"/>
</svg>
