<svg xmlns="http://www.w3.org/2000/svg" width="17.859" height="17" viewBox="0 0 17.859 17">
  <g id="组_1322" data-name="组 1322" transform="translate(-357 -2679)">
    <rect id="矩形_496" data-name="矩形 496" width="3.4" height="9.35" transform="translate(357 2686.65)" fill="#fcaa29"/>
    <path id="路径_1597" data-name="路径 1597" d="M15.1,3.063A3.074,3.074,0,0,1,17.395,2,2.776,2.776,0,0,1,20.2,4.8c0,1.93-2.473,4.165-5.1,6.545C12.473,8.961,10,6.726,10,4.8A2.776,2.776,0,0,1,12.8,2,3.074,3.074,0,0,1,15.1,3.063Z" transform="translate(354.65 2677)" fill="#fcaa29"/>
    <path id="路径_1598" data-name="路径 1598" d="M18.05,16.1H12.1l-1.776-.62.28-.8,1.5.569h2.4a1,1,0,0,0,1-1h0a1.021,1.021,0,0,0-.655-.943L8.674,11H7v7.667l5.95,1.683,6.809-2.55h0A1.712,1.712,0,0,0,18.05,16.1Z" transform="translate(355.1 2675.65)" fill="#fcaa29"/>
  </g>
</svg>
