<svg xmlns="http://www.w3.org/2000/svg" width="16.198" height="18" viewBox="0 0 16.198 18">
  <path id="路径_1580" data-name="路径 1580" d="M17.9,10.423,12,7.8V6.5a.9.9,0,0,0-.9-.9h0a.9.9,0,1,1,.9-.9h1.8a2.7,2.7,0,1,0-3.6,2.538V7.8L4.3,10.432A2.155,2.155,0,0,0,3,12.412v.009A2.174,2.174,0,0,0,5.178,14.6H6.6V20h9V14.6h1.422A2.174,2.174,0,0,0,19.2,12.421v-.009A2.177,2.177,0,0,0,17.9,10.423ZM17.021,12.8H15.6v-.9h-9v.9H5.178a.382.382,0,0,1-.378-.387.365.365,0,0,1,.225-.342L11.1,9.37l6.074,2.7a.388.388,0,0,1,.225.351A.38.38,0,0,1,17.021,12.8Z" transform="translate(-3 -1.998)" fill="#fcaa00"/>
</svg>
