<svg xmlns="http://www.w3.org/2000/svg" width="18.943" height="18" viewBox="0 0 18.943 18">
  <g id="组_1318" data-name="组 1318" transform="translate(-349 -1992)">
    <circle id="椭圆_154" data-name="椭圆 154" cx="2.368" cy="2.368" r="2.368" transform="translate(349 1995.789)" fill="#fcaa29"/>
    <circle id="椭圆_155" data-name="椭圆 155" cx="2.368" cy="2.368" r="2.368" transform="translate(353.262 1992)" fill="#fcaa29"/>
    <circle id="椭圆_156" data-name="椭圆 156" cx="2.368" cy="2.368" r="2.368" transform="translate(358.945 1992)" fill="#fcaa29"/>
    <circle id="椭圆_157" data-name="椭圆 157" cx="2.368" cy="2.368" r="2.368" transform="translate(363.207 1995.789)" fill="#fcaa29"/>
    <path id="路径_1584" data-name="路径 1584" d="M16.635,14.63c-.824-.966-1.515-1.79-2.349-2.756a4.018,4.018,0,0,0-1.658-1.25,1.918,1.918,0,0,0-.313-.085,4.767,4.767,0,0,0-.739-.038,3.973,3.973,0,0,0-.748.047,1.918,1.918,0,0,0-.313.085,4.08,4.08,0,0,0-1.658,1.25c-.824.966-1.515,1.79-2.349,2.756-1.241,1.241-2.766,2.614-2.482,4.537a2.974,2.974,0,0,0,2.207,2.2c.691.142,2.9-.417,5.247-.417h.17c2.349,0,4.556.549,5.247.417a2.988,2.988,0,0,0,2.207-2.2c.294-1.932-1.231-3.306-2.472-4.546Z" transform="translate(346.895 1988.604)" fill="#fcaa29"/>
  </g>
</svg>
