<svg xmlns="http://www.w3.org/2000/svg" width="18" height="13.909" viewBox="0 0 18 13.909">
  <g id="组_1324" data-name="组 1324" transform="translate(-327 -2227)">
    <path id="路径_1599" data-name="路径 1599" d="M17.364,4.909A9.658,9.658,0,0,0,14.5,4.5,7.609,7.609,0,0,0,10,5.727,7.609,7.609,0,0,0,5.5,4.5,7.609,7.609,0,0,0,1,5.727V17.714a.44.44,0,0,0,.409.409c.082,0,.123-.041.2-.041a9.986,9.986,0,0,1,3.886-.9A7.609,7.609,0,0,1,10,18.409a9.855,9.855,0,0,1,4.5-1.227,8.328,8.328,0,0,1,3.886.859.369.369,0,0,0,.2.041A.44.44,0,0,0,19,17.673V5.727A5.58,5.58,0,0,0,17.364,4.909Zm0,11.045a9.508,9.508,0,0,0-2.864-.409A9.855,9.855,0,0,0,10,16.773V7.364a9.855,9.855,0,0,1,4.5-1.227,9.508,9.508,0,0,1,2.864.409Z" transform="translate(326 2222.5)" fill="#fcaa29"/>
    <path id="路径_1600" data-name="路径 1600" d="M16.682,10.227a9.568,9.568,0,0,1,2.045.213V9.2A11.048,11.048,0,0,0,16.682,9,9.415,9.415,0,0,0,13,9.679v1.358A7.6,7.6,0,0,1,16.682,10.227Z" transform="translate(323.818 2221.682)" fill="#fcaa29"/>
    <path id="路径_1601" data-name="路径 1601" d="M13,12.339V13.7a7.6,7.6,0,0,1,3.682-.81,9.568,9.568,0,0,1,2.045.213V11.856a11.048,11.048,0,0,0-2.045-.2A9.565,9.565,0,0,0,13,12.339Z" transform="translate(323.818 2221.198)" fill="#fcaa29"/>
    <path id="路径_1602" data-name="路径 1602" d="M16.682,14.33A9.415,9.415,0,0,0,13,15.009v1.358a7.6,7.6,0,0,1,3.682-.81,9.568,9.568,0,0,1,2.045.213V14.526A10.388,10.388,0,0,0,16.682,14.33Z" transform="translate(323.818 2220.713)" fill="#fcaa29"/>
  </g>
</svg>
