<svg xmlns="http://www.w3.org/2000/svg" width="16.2" height="18" viewBox="0 0 16.2 18">
  <g id="组_1327" data-name="组 1327" transform="translate(-347 -2131)">
    <path id="路径_1610" data-name="路径 1610" d="M14.35,6.05c0-.756,1.35-2.25,1.35-2.25s1.35,1.494,1.35,2.25a1.35,1.35,0,1,1-2.7,0Zm3.6,7.65a2.251,2.251,0,0,0,2.25-2.25c0-1.5-2.25-4.05-2.25-4.05S15.7,9.947,15.7,11.45A2.251,2.251,0,0,0,17.95,13.7Zm-5.85-.9H10.3V11H8.5v1.8H6.7v1.8H8.5v1.8h1.8V14.6h1.8ZM14.8,11v9H4V11A5.4,5.4,0,0,1,8.5,5.681V3.8H6.7V2h5.4a4.506,4.506,0,0,1,2.691.909L13.5,4.2a2.769,2.769,0,0,0-1.4-.4H10.3V5.681A5.4,5.4,0,0,1,14.8,11Z" transform="translate(343 2129)" fill="#fcaa29"/>
  </g>
</svg>
