<svg xmlns="http://www.w3.org/2000/svg" width="18" height="17.998" viewBox="0 0 18 17.998">
  <g id="组_1326" data-name="组 1326" transform="translate(-412.25 -1401.249)">
    <path id="路径_1578" data-name="路径 1578" d="M16.238,11.509l1.57-1.57-3.75-3.75-1.57,1.57L8.349,3.63a2,2,0,0,0-2.83,0l-1.9,1.9a2,2,0,0,0,0,2.83l4.129,4.129L3,17.248V21H6.75l4.759-4.759,4.129,4.129a2,2,0,0,0,2.83,0l1.9-1.9a2,2,0,0,0,0-2.83Zm-7.059-.44L5.04,6.94l1.89-1.9h0L8.2,6.31,7.02,7.5l1.41,1.41,1.19-1.19,1.45,1.45Zm7.879,7.889-4.129-4.129,1.9-1.9,1.45,1.45-1.19,1.19,1.41,1.41,1.19-1.19,1.27,1.27Z" transform="translate(409.25 1398.25)" fill="#fcaa29"/>
    <path id="路径_1579" data-name="路径 1579" d="M20.709,7.04a1,1,0,0,0,0-1.41L18.37,3.29a1.009,1.009,0,0,0-1.41,0L15.13,5.12l3.75,3.75Z" transform="translate(409.248 1398.248)" fill="#fcaa29"/>
  </g>
</svg>
