<svg xmlns="http://www.w3.org/2000/svg" width="20" height="18" viewBox="0 0 20 18">
  <g id="组_1321" data-name="组 1321" transform="translate(-311 -2342)">
    <circle id="椭圆_159" data-name="椭圆 159" cx="3.2" cy="3.2" r="3.2" transform="translate(317.8 2348.801)" fill="#fcaa29"/>
    <path id="路径_1593" data-name="路径 1593" d="M9,2,7.17,4H4A2.006,2.006,0,0,0,2,6V18a2.006,2.006,0,0,0,2,2H20a2.006,2.006,0,0,0,2-2V6a2.006,2.006,0,0,0-2-2H16.83L15,2Zm3,15a5,5,0,1,1,5-5A5,5,0,0,1,12,17Z" transform="translate(309 2340)" fill="#fcaa29"/>
  </g>
</svg>
