<svg xmlns="http://www.w3.org/2000/svg" width="19.987" height="15.645" viewBox="0 0 19.987 15.645">
  <g id="icon_ul02_02" transform="translate(-240.661 -533.686)">
    <path id="路径_1815" data-name="路径 1815" d="M-165.246,339.089" transform="translate(416.242 197.586)" fill="#fcaa00"/>
    <path id="路径_1816" data-name="路径 1816" d="M-158.453,345.4a3.024,3.024,0,0,0,.794-2.019l-3.991-3.991a3.868,3.868,0,0,0-1.587.008,3.309,3.309,0,0,0-.378-.217,3.96,3.96,0,0,0-1.775-.381l-.09,0-.741.74.116-.012a.3.3,0,0,0,.046-.009,3.463,3.463,0,0,1,.714-.07,3.393,3.393,0,0,1,1.282.244,3.019,3.019,0,0,0-.753.551l-2.519,2.518h0l-.022.022a.907.907,0,0,0-.039,1.243.564.564,0,0,0,.039.043.909.909,0,0,0,1.286,0l1.385-1.385a3.082,3.082,0,0,0,.7.164,3.438,3.438,0,0,0,.852-.014,6.541,6.541,0,0,0,.923-.182l3.265,3.264.046-.041.471.471a.624.624,0,0,1,.183.443.622.622,0,0,1-.183.443.624.624,0,0,1-.443.183.624.624,0,0,1-.443-.183.328.328,0,0,0-.231-.1.323.323,0,0,0-.23.1.324.324,0,0,0-.1.231.326.326,0,0,0,.1.231.627.627,0,0,1,.183.443.62.62,0,0,1-.185.442.622.622,0,0,1-.442.185.62.62,0,0,1-.443-.185.329.329,0,0,0-.231-.094.327.327,0,0,0-.231.094.334.334,0,0,0-.1.232.328.328,0,0,0,.1.23.621.621,0,0,1,.183.443.621.621,0,0,1-.183.443.624.624,0,0,1-.443.183.624.624,0,0,1-.443-.183l-.276-.276v0a.332.332,0,0,0-.23-.094.334.334,0,0,0-.232.1.327.327,0,0,0-.094.231.326.326,0,0,0,.094.23.621.621,0,0,1,.183.444.615.615,0,0,1-.183.442.62.62,0,0,1-.442.185.623.623,0,0,1-.443-.185l-.2-.2.068-.067a.907.907,0,0,0,0-1.281.906.906,0,0,0-1.281,0l-.068.068-.034-.034a.9.9,0,0,0-.163-1.051.9.9,0,0,0-1.051-.163l-.067-.067a.9.9,0,0,0-.161-1.051.9.9,0,0,0-1.051-.161l-.068-.067a.9.9,0,0,0-.161-1.051.9.9,0,0,0-1.051-.163l-.327-.327-.021-.018s-.052-.047-.129-.123c-.04-.041-.09-.093-.145-.154l-.006-.008h0a3.551,3.551,0,0,1-.546-.8,2.418,2.418,0,0,1-.216-.659l-.537.537a3.475,3.475,0,0,0,.165.407,4.19,4.19,0,0,0,.647.952v0l.006.008h0c.062.07.12.13.169.18.077.077.133.128.158.147l.285.285-.527.527a.907.907,0,0,0,0,1.281.908.908,0,0,0,1.281,0,.9.9,0,0,0,0,1.28.9.9,0,0,0,1.28,0,.905.905,0,0,0,0,1.281.908.908,0,0,0,1.281,0l.526-.527-.261.262a.9.9,0,0,0,0,1.281.9.9,0,0,0,1.28,0l.262-.262.2.2a1.274,1.274,0,0,0,.905.374,1.273,1.273,0,0,0,.9-.374,1.277,1.277,0,0,0,.364-.746,1.242,1.242,0,0,0,.356.052,1.279,1.279,0,0,0,.905-.374,1.284,1.284,0,0,0,.374-.9c0-.025,0-.049,0-.072l.071,0a1.273,1.273,0,0,0,.905-.374,1.271,1.271,0,0,0,.374-.9c0-.023,0-.049,0-.072.023,0,.046,0,.071,0a1.274,1.274,0,0,0,.9-.374,1.273,1.273,0,0,0,.374-.9,1.266,1.266,0,0,0-.374-.905Z" transform="translate(414.613 197.5)" fill="#fcaa00"/>
    <path id="路径_1817" data-name="路径 1817" d="M-167.841,336.876l-5.41,5.407,2.244,2.243,5.409-5.408Zm-2.7,5.738a.56.56,0,0,1-.791,0,.56.56,0,0,1,0-.791.56.56,0,0,1,.791,0,.56.56,0,0,1,0,.791" transform="translate(413.912 196.942)" fill="#fcaa00"/>
    <path id="路径_1818" data-name="路径 1818" d="M-161.454,336.774l-2.244,2.241,5.41,5.409,2.243-2.241Zm2.7,5.738a.56.56,0,0,1,0-.791.56.56,0,0,1,.791,0,.56.56,0,0,1,0,.791.56.56,0,0,1-.791,0" transform="translate(416.693 196.912)" fill="#fcaa00"/>
  </g>
</svg>
