<svg xmlns="http://www.w3.org/2000/svg" width="19.306" height="16.551" viewBox="0 0 19.306 16.551">
  <path id="icon_ul02_01" d="M-156.025,315.926a4.719,4.719,0,0,1,1.893.385,4.98,4.98,0,0,1,1.55,1.046,4.891,4.891,0,0,1,1.046,1.55,4.692,4.692,0,0,1,.385,1.893,4.8,4.8,0,0,1-.371,1.868,4.808,4.808,0,0,1-1.06,1.577l-8.222,8.232-8.222-8.232a4.839,4.839,0,0,1-1.06-1.577,4.8,4.8,0,0,1-.371-1.868,4.725,4.725,0,0,1,.385-1.893,4.957,4.957,0,0,1,1.046-1.55,4.982,4.982,0,0,1,1.55-1.046,4.719,4.719,0,0,1,1.893-.385,4.657,4.657,0,0,1,1.407.2,4.873,4.873,0,0,1,1.14.533,6.688,6.688,0,0,1,.994.783c.314.3.632.615.96.955l.277.289.306-.316c.326-.334.646-.65.955-.945a6.218,6.218,0,0,1,.984-.779,4.718,4.718,0,0,1,1.132-.523,4.731,4.731,0,0,1,1.4-.193" transform="translate(170.456 -315.926)" fill="#fcaa00"/>
</svg>
