<svg xmlns="http://www.w3.org/2000/svg" width="462.199" height="61" viewBox="0 0 462.199 61">
  <g id="hd_secret" transform="translate(-11234.4 916)">
    <g id="長方形_1163" data-name="長方形 1163" transform="translate(11605 -916)" fill="#fbe46c" stroke="#323232" stroke-width="2">
      <rect width="61" height="61" stroke="none"/>
      <rect x="1" y="1" width="59" height="59" fill="none"/>
    </g>
    <g id="長方形_1162" data-name="長方形 1162" transform="translate(11546 -916)" fill="#fbe46c" stroke="#323232" stroke-width="2">
      <rect width="61" height="61" stroke="none"/>
      <rect x="1" y="1" width="59" height="59" fill="none"/>
    </g>
    <path id="パス_106472" data-name="パス 106472" d="M24.78-19.23a6.054,6.054,0,0,1-2.37.27l-6.66.03c.09-.96.09-1.23.12-1.89.06-1.56.06-1.56.12-2.19,0-.21.03-.39.03-.57a8.728,8.728,0,0,1,.12-.93l-4.02-.09a5.824,5.824,0,0,1,.09,1.17v.75c0,.87-.06,2.61-.15,3.75l-5.25.03a17.21,17.21,0,0,1-3.33-.24l.03,3.69a21.305,21.305,0,0,1,3.24-.15l4.98-.03c-.03.21-.09.51-.15.93a15.4,15.4,0,0,1-1.53,5.22,16.892,16.892,0,0,1-7.8,7.56,11.828,11.828,0,0,1,2.7,3.18,22,22,0,0,0,8.1-8.31,21.963,21.963,0,0,0,2.4-8.58l6.99-.03a67.346,67.346,0,0,1-.66,9.6c-.48,2.61-.93,3.27-2.22,3.27a15.555,15.555,0,0,1-3.96-.69A9.067,9.067,0,0,1,16.29.36a22.88,22.88,0,0,0,3.72.33c3.6,0,4.65-1.23,5.43-6.42.3-1.98.63-6.6.72-9.99a4.687,4.687,0,0,1,.33-2.01Zm11.34-4.44a18.941,18.941,0,0,1,.12,2.7v8.25a21.635,21.635,0,0,1-.15,2.7H40.2a14.481,14.481,0,0,1-.12-2.64v-8.28a15.249,15.249,0,0,1,.12-2.7Zm13.53.06a15.8,15.8,0,0,1,.15,2.85v3.75c0,2.4-.03,3.72-.15,5.01-.33,3.96-1.32,5.79-4.14,7.65a16.182,16.182,0,0,1-6.48,2.4,10.249,10.249,0,0,1,2.1,3.57A25.376,25.376,0,0,0,46.98-.69a11.49,11.49,0,0,0,5.91-6.99c.54-1.89.75-4.41.78-9.09v-4.05a14.23,14.23,0,0,1,.15-2.79Zm19.32,3.18a15.228,15.228,0,0,1,.15-2.79H65.1a15.845,15.845,0,0,1,.12,2.76l.03,13.92a22.606,22.606,0,0,0,.09,2.76A4.147,4.147,0,0,0,66.81-.72C67.98.18,70.05.57,73.83.57c1.83,0,5.61-.18,7.38-.36,3.18-.3,3.33-.33,3.96-.33l-.18-3.99a17.725,17.725,0,0,1-3.42.72,56.576,56.576,0,0,1-6.96.48c-2.91,0-4.62-.24-5.13-.78-.42-.42-.54-1.11-.54-2.85a1.991,1.991,0,0,1,.03-.39v-3.96a50.794,50.794,0,0,0,12.81-4.14c1.59-.78,2.49-1.2,2.7-1.29l-2.4-3.39c-1.95,1.83-8.58,4.5-13.11,5.34Zm12.12-3.24a19.187,19.187,0,0,1,2.97,4.59l2.16-.99a19.074,19.074,0,0,0-3-4.56Zm8.76,1.77a17.65,17.65,0,0,0-2.94-4.35l-2.07.96a22.326,22.326,0,0,1,2.88,4.47ZM102.06,1.35a32.982,32.982,0,0,1-.12-3.33V-9.9a15.51,15.51,0,0,0-.12-2.04,9.693,9.693,0,0,0,1.02.51A70.978,70.978,0,0,1,113.46-5.7l2.1-3.54a88.138,88.138,0,0,0-13.62-6.33v-5.58a20.111,20.111,0,0,1,.12-3.15H97.95a19.283,19.283,0,0,1,.18,3.06V-2.01a20.21,20.21,0,0,1-.18,3.36ZM142.8-24.36a15.777,15.777,0,0,1-3.63,1.41,51.787,51.787,0,0,1-12.84,1.74c-.45,0-.93,0-1.86-.06a12.59,12.59,0,0,1,1.11,3.24,67.131,67.131,0,0,0,8.31-.69c0,2.1,0,3.27-.06,4.53h-7.68a18.6,18.6,0,0,1-3.66-.21v3.6a27.412,27.412,0,0,1,3.6-.15h7.41a17.259,17.259,0,0,1-.33,2.01,9.574,9.574,0,0,1-3.45,5.1,13.835,13.835,0,0,1-4.65,2.52,9.718,9.718,0,0,1,2.61,3.18,18.7,18.7,0,0,0,2.79-1.5,15.513,15.513,0,0,0,4.89-4.77,15.727,15.727,0,0,0,2.01-6.54H144a27.412,27.412,0,0,1,3.6.15v-3.6a18.6,18.6,0,0,1-3.66.21h-6.36c.06-1.02.06-1.02.09-5.07a37.1,37.1,0,0,0,5.01-1.23c2.16-.72,2.16-.72,2.52-.81Zm16.53,9.84-2.49.42a16.826,16.826,0,0,1-2.85.27l.63,3.42a15.426,15.426,0,0,1,2.64-.66l2.58-.42L161.88-.3a12.51,12.51,0,0,1,.24,2.43l3.75-.66a11.484,11.484,0,0,1-.57-2.43l-2.13-11.1,7.05-1.17a9.238,9.238,0,0,0,1.11-.21,14.129,14.129,0,0,1-5.1,5.37,8.453,8.453,0,0,1,2.79,2.13,17.039,17.039,0,0,0,5.91-7.8,6.868,6.868,0,0,1,.75-1.44l-2.1-1.89a7.572,7.572,0,0,1-1.98.51l-8.97,1.5-.45-2.31a11.785,11.785,0,0,1-.3-2.31l-3.57.54a9.437,9.437,0,0,1,.57,2.25Zm25.47-1.8a30.014,30.014,0,0,1,2.73,7.26l3.39-1.08a34.6,34.6,0,0,0-2.94-7.11Zm6.42-1.26a32.989,32.989,0,0,1,2.73,7.05l3.33-1.05a29.471,29.471,0,0,0-2.91-6.9Zm10.32-.3a13.307,13.307,0,0,1-.54,3.45c-1.29,4.8-3.3,7.86-6.81,10.41a19.46,19.46,0,0,1-5.1,2.76,10.9,10.9,0,0,1,2.4,2.97c4.44-2.25,6.93-4.2,9.15-7.23a25.609,25.609,0,0,0,4.14-9.99,6.315,6.315,0,0,1,.42-1.53ZM222.06,1.35a32.982,32.982,0,0,1-.12-3.33V-9.9a15.511,15.511,0,0,0-.12-2.04,9.69,9.69,0,0,0,1.02.51A70.978,70.978,0,0,1,233.46-5.7l2.1-3.54a88.138,88.138,0,0,0-13.62-6.33v-5.58a20.111,20.111,0,0,1,.12-3.15h-4.11a19.281,19.281,0,0,1,.18,3.06V-2.01a20.209,20.209,0,0,1-.18,3.36Zm35.28-20.58a6.557,6.557,0,0,1,3.03.9,7.432,7.432,0,0,1,3.69,6.66,8.4,8.4,0,0,1-4.17,7.5,15.944,15.944,0,0,1-5.97,1.65A9.57,9.57,0,0,1,255.75.99a19.613,19.613,0,0,0,4.71-1.26,11.557,11.557,0,0,0,7.29-11.19c0-6.75-4.68-11.13-11.88-11.13a13.467,13.467,0,0,0-10.32,4.2,12.887,12.887,0,0,0-3.3,8.73c0,4.83,2.46,8.31,5.88,8.31,2.46,0,4.38-1.77,6.09-5.64A43.4,43.4,0,0,0,257.34-19.23Zm-3.66.03a39.537,39.537,0,0,1-2.49,10.14c-1.08,2.58-2.1,3.84-3.09,3.84-1.32,0-2.37-1.95-2.37-4.41a10.044,10.044,0,0,1,4.08-8.1A7.637,7.637,0,0,1,253.68-19.2Z" transform="translate(11264 -864)" fill="#333"/>
    <path id="パス_106471" data-name="パス 106471" d="M25.165-1.715V.42h4.69a23.087,23.087,0,0,1-.175-3.6V-22.4a21.234,21.234,0,0,1,.1-2.905c-1.225.07-1.225.07-3.045.07H9.9A23.526,23.526,0,0,1,5.39-25.48v4.55A34.251,34.251,0,0,1,9.87-21.1H25.2v15.26H9.275A22.5,22.5,0,0,1,4.9-6.09v4.515a39.124,39.124,0,0,1,4.3-.14Z" transform="translate(11559 -866)" fill="#333"/>
    <g id="楕円形_187" data-name="楕円形 187" transform="translate(11574 -909)" fill="#333" stroke="#333" stroke-width="1">
      <circle cx="3" cy="3" r="3" stroke="none"/>
      <circle cx="3" cy="3" r="2.5" fill="none"/>
    </g>
    <g id="楕円形_188" data-name="楕円形 188" transform="translate(11633 -909)" fill="#333" stroke="#333" stroke-width="1">
      <circle cx="3" cy="3" r="3" stroke="none"/>
      <circle cx="3" cy="3" r="2.5" fill="none"/>
    </g>
    <path id="パス_106470" data-name="パス 106470" d="M2.975-23.975a42.344,42.344,0,0,1,3.99,10.43l4.3-1.33a44.638,44.638,0,0,0-4.235-10.29Zm9.2-1.75a44.159,44.159,0,0,1,3.92,10.15l4.27-1.365a44.842,44.842,0,0,0-4.2-9.905Zm14.945-.35a27.587,27.587,0,0,1-1.75,8.225A23.012,23.012,0,0,1,19.25-8.225a27.277,27.277,0,0,1-9.835,6.09,13.405,13.405,0,0,1,3.08,3.92C23-3.325,28.56-10.36,31.045-21.595a15.616,15.616,0,0,1,.875-3.4Z" transform="translate(11618 -866)" fill="#333"/>
    <path id="パス_4703" data-name="パス 4703" d="M-7069.947,1555.956l12,30" transform="translate(18306.947 -2445.957)" fill="none" stroke="#323232" stroke-linecap="round" stroke-width="4"/>
    <path id="パス_4704" data-name="パス 4704" d="M-7057.947,1555.956l-12,30" transform="translate(18751.947 -2445.957)" fill="none" stroke="#323232" stroke-linecap="round" stroke-width="4"/>
  </g>
</svg>
