<svg xmlns="http://www.w3.org/2000/svg" width="491.199" height="61" viewBox="0 0 491.199 61">
  <g id="hd_secret" transform="translate(-873.4 -226)">
    <g id="矩形_1163" data-name="矩形 1163" transform="translate(1273 226)" fill="#fbe46c" stroke="#323232" stroke-width="2">
      <rect width="61" height="61" stroke="none"/>
      <rect x="1" y="1" width="59" height="59" fill="none"/>
    </g>
    <g id="矩形_1162" data-name="矩形 1162" transform="translate(1214 226)" fill="#fbe46c" stroke="#323232" stroke-width="2">
      <rect width="61" height="61" stroke="none"/>
      <rect x="1" y="1" width="59" height="59" fill="none"/>
    </g>
    <path id="路径_4706" data-name="路径 4706" d="M15.99-13.02h7.05a31.324,31.324,0,0,1,3.48.18v-3.57a30.556,30.556,0,0,1-3.48.18H15.99v-5.13a24.207,24.207,0,0,1,.21-3.45H12.27a25.681,25.681,0,0,1,.21,3.45V-1.98H5.64A39.586,39.586,0,0,1,1.5-2.16v3.6a37.5,37.5,0,0,1,4.14-.21H24.69a32.734,32.734,0,0,1,3.99.21v-3.6a38.528,38.528,0,0,1-4.05.18H15.99Zm27.63-3.72H36.9a29.309,29.309,0,0,1-3.72-.18v3.36a34.9,34.9,0,0,1,3.75-.18h6.69v3.63H35.25a28.778,28.778,0,0,1-3.69-.18V-6.9a30.1,30.1,0,0,1,3.69-.18h8.37v4.95c0,.72-.27.93-1.14.93a37.355,37.355,0,0,1-5.01-.42,9.188,9.188,0,0,1,.9,3.27c1.71.15,3.18.21,4.08.21a9.614,9.614,0,0,0,3.36-.48c.75-.33,1.17-1.26,1.17-2.58V-7.08h7.68a29.9,29.9,0,0,1,3.66.18v-3.39a28.573,28.573,0,0,1-3.66.18H46.98v-3.63h6.27a31.139,31.139,0,0,1,3.69.18v-3.36a29.845,29.845,0,0,1-3.75.18H46.98v-3.9a80,80,0,0,0,9.09-1.68l-2.46-3a21.023,21.023,0,0,1-5.55,1.44,93.1,93.1,0,0,1-13.44,1.02H33.15a16.617,16.617,0,0,1,1.11,3.09c3.93-.09,5.43-.18,9.36-.54ZM67.92.72c-.03-.39-.03-.63-.03-.81,0-2.13,1.02-5.61,2.67-9.09l-2.4-1.08A30.6,30.6,0,0,0,66.6-6.3c.03-.75.06-.99.06-1.65a50.089,50.089,0,0,1,.45-6.63A41.361,41.361,0,0,1,69-23.55l-3.96-.42a19.63,19.63,0,0,1-.45,2.79A57.594,57.594,0,0,0,63.36-9.45a52.328,52.328,0,0,0,.78,8.97c.09.69.12.87.15,1.41Zm4.14-17.97a35.613,35.613,0,0,0,5.4.33,53.736,53.736,0,0,0,6.42-.36c1.44-.18,1.89-.24,2.13-.27l-.18-3.63a33.082,33.082,0,0,1-8.16.81,21.631,21.631,0,0,1-5.55-.48Zm2.07,4.95c-1.86,2.22-2.76,4.23-2.76,6.18a5.025,5.025,0,0,0,.9,2.94c1.32,1.77,3.72,2.61,7.44,2.61a36.995,36.995,0,0,0,6.21-.57,10.027,10.027,0,0,1,1.23-.18l-.3-3.81a21.083,21.083,0,0,1-7.14,1.14c-3.12,0-4.77-.9-4.77-2.61,0-1.29.63-2.58,2.13-4.32Zm21.84.03a48.423,48.423,0,0,1,6,5.79,49.387,49.387,0,0,1,5.79,7.56l3.15-2.52c-1.56-2.13-2.7-3.57-3.96-5.01a46.4,46.4,0,0,0,9.69-11.37,9.367,9.367,0,0,1,1.32-1.77l-2.1-2.37a7.856,7.856,0,0,1-2.49.24l-16.68.03a21.881,21.881,0,0,1-3.9-.21v3.81a32.537,32.537,0,0,1,3.84-.15h14.31c.63,0,1.08-.03,1.38-.06a.77.77,0,0,0-.06.15,2.1,2.1,0,0,0-.18.27,39.68,39.68,0,0,1-3.66,4.89,36.842,36.842,0,0,1-3.93,3.78c-.21-.18-.21-.18-1.86-1.86-1.23-1.2-2.13-2.01-3.72-3.33Zm28.83-4.05a30.013,30.013,0,0,1,2.73,7.26l3.39-1.08a34.6,34.6,0,0,0-2.94-7.11Zm6.42-1.26a32.989,32.989,0,0,1,2.73,7.05l3.33-1.05a29.471,29.471,0,0,0-2.91-6.9Zm10.32-.3a13.308,13.308,0,0,1-.54,3.45c-1.29,4.8-3.3,7.86-6.81,10.41a19.46,19.46,0,0,1-5.1,2.76,10.9,10.9,0,0,1,2.4,2.97c4.44-2.25,6.93-4.2,9.15-7.23a25.609,25.609,0,0,0,4.14-9.99,6.315,6.315,0,0,1,.42-1.53Zm31.26-6.48a15.777,15.777,0,0,1-3.63,1.41,51.787,51.787,0,0,1-12.84,1.74c-.45,0-.93,0-1.86-.06a12.59,12.59,0,0,1,1.11,3.24,67.131,67.131,0,0,0,8.31-.69c0,2.1,0,3.27-.06,4.53h-7.68a18.6,18.6,0,0,1-3.66-.21v3.6a27.411,27.411,0,0,1,3.6-.15h7.41a17.256,17.256,0,0,1-.33,2.01,9.574,9.574,0,0,1-3.45,5.1,13.835,13.835,0,0,1-4.65,2.52,9.718,9.718,0,0,1,2.61,3.18,18.7,18.7,0,0,0,2.79-1.5,15.513,15.513,0,0,0,4.89-4.77,15.727,15.727,0,0,0,2.01-6.54H174a27.412,27.412,0,0,1,3.6.15v-3.6a18.6,18.6,0,0,1-3.66.21h-6.36c.06-1.02.06-1.02.09-5.07a37.1,37.1,0,0,0,5.01-1.23c2.16-.72,2.16-.72,2.52-.81Zm9.66,5.1a31.5,31.5,0,0,1,7.65,6.09l2.58-3.27a42.488,42.488,0,0,0-7.74-5.79ZM183.51.54a10.62,10.62,0,0,1,1.98-.51,32.4,32.4,0,0,0,11.43-4.5c4.11-2.73,6.96-6.27,9.51-11.76a12.936,12.936,0,0,1-3.18-2.94,25.05,25.05,0,0,1-3.06,6,20.044,20.044,0,0,1-8.91,7.35A28.586,28.586,0,0,1,182.4-3.6ZM232.95-20.4l1.59-.57a14.091,14.091,0,0,0-2.31-3.87l-2.4.84a16.445,16.445,0,0,1,2.07,3.45,8.257,8.257,0,0,1-1.5.09l-6.57.09c-.63.03-1.11.03-1.44.06.42-.78.63-1.23,1.17-2.43a4.165,4.165,0,0,1,.6-1.08l-4.11-.84a11.3,11.3,0,0,1-1.53,3.99,23.078,23.078,0,0,1-7.77,8.7,7.971,7.971,0,0,1,2.91,2.58,29.016,29.016,0,0,0,7.02-7.71l9.03-.12a23.87,23.87,0,0,1-8.76,12.66,26.043,26.043,0,0,1-6.57,3.51,9.244,9.244,0,0,1,2.55,3.15,29.883,29.883,0,0,0,10.68-7.59,31.117,31.117,0,0,0,6.15-11.58,5.332,5.332,0,0,1,.75-1.8Zm5.25-1.74a15.646,15.646,0,0,0-2.31-3.72l-2.34.9a19.3,19.3,0,0,1,2.25,3.81Zm19.95,6.18v-1.95c2.37-.06,2.91-.06,3.63-.06,2.49,0,3.93.06,5.04.15l-.03-3.45c-1.11.12-3.45.18-8.67.21a23.58,23.58,0,0,1,.15-3.57l-3.78.03a16.278,16.278,0,0,1,.18,3.63c-1.56.06-1.56.06-2.55.09-2.46.06-2.76.06-4.71.12-3.87.15-4.35.15-5.1.15a13.064,13.064,0,0,1-1.47-.06l.12,3.57c.81-.12.81-.12,5.34-.45,1.32-.09,4.14-.18,8.43-.3,0,.81,0,2.49.03,2.55a1.236,1.236,0,0,0,.03.36,5.013,5.013,0,0,0-3.12-.9c-3.48,0-5.97,2.28-5.97,5.46a4.688,4.688,0,0,0,2.07,4.05,5.529,5.529,0,0,0,3.48,1.08,4.942,4.942,0,0,0,4.41-2.13c-.24,1.68-1.44,3.21-3.48,4.38a14.158,14.158,0,0,1-5.1,1.74,9.846,9.846,0,0,1,2.13,3.39,20.972,20.972,0,0,0,5.43-2.46,9.625,9.625,0,0,0,4.47-8.1,9.13,9.13,0,0,0-.96-4.23c0-.36-.03-.6-.03-.72Zm-3.45,4.95a2.734,2.734,0,0,1-2.94,2.7,2.368,2.368,0,0,1-2.55-2.37,2.628,2.628,0,0,1,2.79-2.4C253.65-13.08,254.7-12.27,254.7-11.01Zm25.92-1.44a11.777,11.777,0,0,0,1.23-.78c.6-.39,2.76-2.01,3.3-2.46,1.02-.87,3.21-2.82,4.71-4.2a6.43,6.43,0,0,1,1.56-1.23l-1.86-2.64a4.42,4.42,0,0,1-1.86.39c-2.91.21-6.57.36-9.12.36a27.132,27.132,0,0,1-3.54-.18l.15,3.6a10.12,10.12,0,0,1,1.44-.15c5.43-.24,7.35-.36,8.49-.51l.03.03-.54.54a100.17,100.17,0,0,1-8.97,7.8,26.98,26.98,0,0,1-4.23,2.82l2.04,3.24a18.485,18.485,0,0,1,12.36-5.04c3.63,0,5.94,1.53,5.94,3.87,0,2.13-1.08,3.42-3.57,4.35a8.068,8.068,0,0,0-1.38-2.7,6.457,6.457,0,0,0-5.19-2.46c-3,0-5.16,1.8-5.16,4.29a4.282,4.282,0,0,0,1.8,3.45,10.149,10.149,0,0,0,5.82,1.38,14.843,14.843,0,0,0,7.26-1.71,7.331,7.331,0,0,0,4.08-6.63c0-4.11-3.3-6.75-8.43-6.75a14.644,14.644,0,0,0-6.3,1.38Zm4.32,10.68a8.12,8.12,0,0,1-1.56.12c-2.22,0-3.57-.69-3.57-1.89,0-.84.69-1.38,1.77-1.38C283.26-4.92,284.4-3.84,284.94-1.77Z" transform="translate(903 278)" fill="#333"/>
    <g id="组_2450" data-name="组 2450" transform="translate(-9 -2)">
      <path id="路径_4707" data-name="路径 4707" d="M34.405-7.91a55.526,55.526,0,0,0-3.045-9.275l-2.8.945A38.044,38.044,0,0,0,30.625-21.6c.91-2.87,1.155-3.6,1.4-4.27L28.175-27.3a26.911,26.911,0,0,1-1.015,4.725,40.784,40.784,0,0,1-5,10.745v-6.895a19.356,19.356,0,0,1,.175-3.4H18.305a20.44,20.44,0,0,1,.21,3.36V-7.385a33.651,33.651,0,0,1-8.26,6.055,9.28,9.28,0,0,1,2.2,3.045,44.125,44.125,0,0,0,6.055-4.55v1.82c0,1.365.28,2.1.945,2.485.84.56,2.275.77,4.83.77,3.99,0,5.25-.28,6.16-1.33.84-.945,1.225-2.73,1.435-6.685a12.492,12.492,0,0,1-3.64-1.365c-.1,3.08-.28,4.69-.56,5.215-.28.49-.945.63-2.9.63-2.17,0-2.625-.175-2.625-.945v-4.1a40.047,40.047,0,0,0,6.125-9.31,41.629,41.629,0,0,1,2.555,8.82ZM6.37-20.335H4.41a14.824,14.824,0,0,1-2.59-.175v3.71a14.839,14.839,0,0,1,2.485-.175H5.81A40.045,40.045,0,0,1,4.305-13.16,22.151,22.151,0,0,1,.84-7.56,12.654,12.654,0,0,1,2.66-3.78a27.266,27.266,0,0,0,3.99-8.155,46.359,46.359,0,0,0-.28,4.69V-1.12a31.8,31.8,0,0,1-.21,4.1h3.955a29.831,29.831,0,0,1-.175-4.13v-7.6a36.057,36.057,0,0,0-.175-4.1A22.829,22.829,0,0,0,11.48-9.52a18.192,18.192,0,0,1,2.03-2.765,14.678,14.678,0,0,1-3.36-4.69h1.085a17.359,17.359,0,0,1,2.59.14v-3.64a15.02,15.02,0,0,1-2.485.14H9.94V-24.99a33.621,33.621,0,0,0,3.465-1.225c.385-.175.525-.21.84-.35l-2.31-3.01C10.15-28.315,6.02-27.16,1.75-26.74a10.4,10.4,0,0,1,1.4,3.22c1.715-.28,2.31-.385,3.22-.56ZM16.7-26.425a29.533,29.533,0,0,1,7.28,4.585l2.2-3.22a34.923,34.923,0,0,0-7.28-4.2ZM14.56-17.4a27.459,27.459,0,0,1-.84,5.04A20.659,20.659,0,0,1,11.83-7.28l3.29,1.645a35.568,35.568,0,0,0,2.59-10.71Z" transform="translate(1236 278)" fill="#333"/>
      <g id="椭圆_187" data-name="椭圆 187" transform="translate(1251 235)" fill="#333" stroke="#333" stroke-width="1">
        <circle cx="3" cy="3" r="3" stroke="none"/>
        <circle cx="3" cy="3" r="2.5" fill="none"/>
      </g>
    </g>
    <g id="组_2451" data-name="组 2451" transform="translate(-9 -2)">
      <g id="椭圆_188" data-name="椭圆 188" transform="translate(1310 235)" fill="#333" stroke="#333" stroke-width="1">
        <circle cx="3" cy="3" r="3" stroke="none"/>
        <circle cx="3" cy="3" r="2.5" fill="none"/>
      </g>
      <path id="路径_4708" data-name="路径 4708" d="M30.275-11.2a29.446,29.446,0,0,1,3.465.14v-3.815a15.913,15.913,0,0,1-2.415.21V-21.42a20.261,20.261,0,0,1,.14-2.8,19.861,19.861,0,0,1-2.835.14H24.15v-1.54a30.621,30.621,0,0,1,.175-3.78h-4.1a17.046,17.046,0,0,1,.21,3.08v2.24H18.55a15.01,15.01,0,0,1-3.22-.21v3.78a24.824,24.824,0,0,1,3.15-.175h1.96c-.035,2.73-.07,4.305-.175,6.02h-2.73a24.266,24.266,0,0,1-3.605-.21v3.815a23.213,23.213,0,0,1,3.675-.14h2.24c-.945,4.97-2.8,7.84-6.72,10.43V-6.055a14.046,14.046,0,0,1,.1-2.555,13.834,13.834,0,0,1-2.1.105H5.075A17.625,17.625,0,0,1,2.73-8.61a19.48,19.48,0,0,1,.14,2.73V-.49C2.87.525,2.8,1.75,2.7,2.835H6.2V1.015h3.71V2.38h3.36c-.07-.91-.1-1.47-.14-2.66A9.319,9.319,0,0,1,15.3,2.975a16.808,16.808,0,0,0,5.285-5.5,20.924,20.924,0,0,0,2.275-5.74A18.532,18.532,0,0,0,26.81-1.4a19.079,19.079,0,0,0,5.32,4.235,10.654,10.654,0,0,1,2.1-3.92,16.024,16.024,0,0,1-5.95-4.48A20.532,20.532,0,0,1,25.235-11.2ZM23.87-14.665a56.435,56.435,0,0,0,.245-6.02h3.57v6.02ZM6.2-5.635h3.71V-1.96H6.2Zm-3.29-19.53a21.83,21.83,0,0,1,2.835-.14h4.725a22.178,22.178,0,0,1,2.835.14v-3.36a15.6,15.6,0,0,1-2.835.175H5.74a15.6,15.6,0,0,1-2.835-.175ZM1.75-20.125a21.489,21.489,0,0,1,2.835-.14h6.86a15.819,15.819,0,0,1,2.66.14v-3.43a18.646,18.646,0,0,1-2.835.14H4.585A15.6,15.6,0,0,1,1.75-23.59Zm1.155,4.9a17.725,17.725,0,0,1,2.205-.1h5.88a17.244,17.244,0,0,1,2.135.1V-18.48a15.4,15.4,0,0,1-2.135.1H5.11a17.725,17.725,0,0,1-2.205-.1Zm0,4.935a17.482,17.482,0,0,1,2.17-.105H10.92a17.341,17.341,0,0,1,2.205.105v-3.255a16,16,0,0,1-2.17.105H5.11a17.725,17.725,0,0,1-2.205-.105Z" transform="translate(1295 278)" fill="#333"/>
    </g>
    <path id="路径_4703" data-name="路径 4703" d="M-7069.947,1555.956l12,30" transform="translate(7945.947 -1303.957)" fill="none" stroke="#323232" stroke-linecap="round" stroke-width="4"/>
    <path id="路径_4704" data-name="路径 4704" d="M-7057.947,1555.956l-12,30" transform="translate(8419.947 -1303.957)" fill="none" stroke="#323232" stroke-linecap="round" stroke-width="4"/>
  </g>
</svg>
