<svg xmlns="http://www.w3.org/2000/svg" width="16" height="16" viewBox="0 0 16 16">
  <g id="グループ_1488" data-name="グループ 1488" transform="translate(-725 -467)">
    <circle id="楕円形_172" data-name="楕円形 172" cx="8" cy="8" r="8" transform="translate(725 467)" fill="#666"/>
    <path id="パス_1639" data-name="パス 1639" d="M7.2-4.109a5.042,5.042,0,0,1-.051-.7,1.888,1.888,0,0,1,.333-1.177,4.218,4.218,0,0,1,1.151-.96A3.459,3.459,0,0,0,9.8-8.062,2.413,2.413,0,0,0,10.108-9.3c0-1.369-1.292-2.367-3.058-2.367a3.683,3.683,0,0,0-2.431.755A3.134,3.134,0,0,0,3.57-9.124l1.075.166a2.516,2.516,0,0,1,.461-1.049,2.335,2.335,0,0,1,1.906-.806c1.215,0,2.06.665,2.06,1.625a1.526,1.526,0,0,1-.448,1.062,5.928,5.928,0,0,1-.87.691,3.677,3.677,0,0,0-1.126.96A2.319,2.319,0,0,0,6.154-4.94a3.95,3.95,0,0,1-.051.832ZM6.039-2.066v1.2H7.28v-1.2Z" transform="translate(726.161 481.512)" fill="#fff" stroke="#fff" stroke-width="1"/>
  </g>
</svg>
