<svg xmlns="http://www.w3.org/2000/svg" xmlns:xlink="http://www.w3.org/1999/xlink" width="54" height="54" viewBox="0 0 54 54">
  <defs>
    <clipPath id="clip-path">
      <rect id="長方形_1395" data-name="長方形 1395" width="54" height="54" fill="#f8bc04"/>
    </clipPath>
  </defs>
  <g id="グループ_20095" data-name="グループ 20095" transform="translate(-0.5 -0.5)">
    <g id="グループ_2837" data-name="グループ 2837" transform="translate(0.5 0.5)" clip-path="url(#clip-path)">
      <path id="パス_5733" data-name="パス 5733" d="M51.987,44.521H2.26A2.26,2.26,0,1,1,2.26,40H51.987a2.26,2.26,0,1,1,0,4.521" transform="translate(-0.541 4.665)" fill="#f8bc04"/>
      <path id="パス_5734" data-name="パス 5734" d="M13.3,40.254a2.261,2.261,0,0,1-2.26-2.26V16.521H6.521V37.993a2.26,2.26,0,0,1-4.521,0V14.26A2.261,2.261,0,0,1,4.26,12H13.3a2.261,2.261,0,0,1,2.26,2.26V37.993a2.261,2.261,0,0,1-2.26,2.26" transform="translate(-0.281 1.021)" fill="#f8bc04"/>
      <path id="パス_5735" data-name="パス 5735" d="M29.3,39.343a2.261,2.261,0,0,1-2.26-2.26V23.521H22.521V37.082a2.26,2.26,0,1,1-4.521,0V21.26A2.261,2.261,0,0,1,20.26,19H29.3a2.261,2.261,0,0,1,2.26,2.26V37.082a2.261,2.261,0,0,1-2.26,2.26" transform="translate(1.802 1.932)" fill="#f8bc04"/>
      <path id="パス_5736" data-name="パス 5736" d="M45.3,41.425a2.261,2.261,0,0,1-2.26-2.26V7.521H38.521V39.165a2.26,2.26,0,1,1-4.521,0V5.26A2.261,2.261,0,0,1,36.26,3H45.3a2.261,2.261,0,0,1,2.26,2.26v33.9a2.261,2.261,0,0,1-2.26,2.26" transform="translate(3.884 -0.151)" fill="#f8bc04"/>
    </g>
  </g>
</svg>
