<svg xmlns="http://www.w3.org/2000/svg" xmlns:xlink="http://www.w3.org/1999/xlink" width="59" height="59" viewBox="0 0 59 59">
  <defs>
    <clipPath id="clip-path">
      <rect id="長方形_1396" data-name="長方形 1396" width="59" height="59" transform="translate(0.171 0.171)" fill="#f8bc04"/>
    </clipPath>
  </defs>
  <g id="グループ_20127" data-name="グループ 20127" transform="translate(-0.171 0.281)">
    <g id="グループ_2839" data-name="グループ 2839" transform="translate(0 -0.451)" clip-path="url(#clip-path)">
      <path id="パス_5737" data-name="パス 5737" d="M20.274,52.048A17.774,17.774,0,1,1,38.048,34.274,17.795,17.795,0,0,1,20.274,52.048m0-31.87a14.1,14.1,0,1,0,14.1,14.1,14.113,14.113,0,0,0-14.1-14.1" transform="translate(0.564 4.161)" fill="#f8bc04"/>
      <path id="パス_5738" data-name="パス 5738" d="M34.274,52.048A17.774,17.774,0,1,1,52.048,34.274,17.795,17.795,0,0,1,34.274,52.048m0-31.87a14.1,14.1,0,1,0,14.1,14.1,14.113,14.113,0,0,0-14.1-14.1" transform="translate(3.725 4.161)" fill="#f8bc04"/>
      <path id="パス_5739" data-name="パス 5739" d="M27.274,38.048A17.774,17.774,0,1,1,45.048,20.274,17.795,17.795,0,0,1,27.274,38.048m0-31.87a14.1,14.1,0,1,0,14.1,14.1,14.113,14.113,0,0,0-14.1-14.1" transform="translate(2.145 1)" fill="#f8bc04"/>
    </g>
  </g>
</svg>
