<svg xmlns="http://www.w3.org/2000/svg" xmlns:xlink="http://www.w3.org/1999/xlink" width="70" height="63" viewBox="0 0 70 63">
  <defs>
    <clipPath id="clip-path">
      <rect id="長方形_1351" data-name="長方形 1351" width="34" height="33" transform="translate(-0.332 0)" fill="#f8bc04"/>
    </clipPath>
    <clipPath id="clip-path-2">
      <rect id="長方形_1352" data-name="長方形 1352" width="46" height="46" transform="translate(-0.247 0.363)" fill="#f8bc04"/>
    </clipPath>
  </defs>
  <g id="グループ_20168" data-name="グループ 20168" transform="translate(-746.668 -47)">
    <g id="グループ_20115" data-name="グループ 20115" transform="translate(747 47)">
      <g id="グループ_2750" data-name="グループ 2750" transform="translate(0 0)" clip-path="url(#clip-path)">
        <path id="パス_5678" data-name="パス 5678" d="M23.27,37.506H12.753a1.753,1.753,0,0,1,0-3.506H23.27a1.753,1.753,0,0,1,0,3.506" transform="translate(-1.417 -4.389)" fill="#f8bc04"/>
        <path id="パス_5679" data-name="パス 5679" d="M29.8,26.293H3.506A3.509,3.509,0,0,1,0,22.787V3.506A3.509,3.509,0,0,1,3.506,0H29.8A3.509,3.509,0,0,1,33.3,3.506V22.787A3.509,3.509,0,0,1,29.8,26.293M3.506,3.506h0l0,19.282H29.8V3.506Z" transform="translate(-0.058 -0.188)" fill="#f8bc04"/>
        <path id="パス_5680" data-name="パス 5680" d="M32.293,21.506H7.753a1.753,1.753,0,0,1,0-3.506h24.54a1.753,1.753,0,0,1,0,3.506" transform="translate(-0.8 -2.412)" fill="#f8bc04"/>
        <path id="パス_5681" data-name="パス 5681" d="M18.753,36.764A1.754,1.754,0,0,1,17,35.011V29.753a1.753,1.753,0,0,1,3.506,0v5.259a1.754,1.754,0,0,1-1.753,1.753" transform="translate(-2.159 -3.647)" fill="#f8bc04"/>
      </g>
    </g>
    <g id="グループ_20116" data-name="グループ 20116" transform="translate(770.916 63.637)">
      <g id="グループ_2752" data-name="グループ 2752" transform="translate(0 0)" clip-path="url(#clip-path-2)">
        <path id="パス_5682" data-name="パス 5682" d="M21.32,36.639a15.32,15.32,0,1,1,10.832-4.487,1.915,1.915,0,0,1-2.708-2.708,11.49,11.49,0,1,0-8.125,3.365,11.753,11.753,0,0,0,3.011-.4,1.915,1.915,0,0,1,.985,3.7,15.573,15.573,0,0,1-4,.525" transform="translate(-0.286 0.294)" fill="#f8bc04"/>
        <path id="パス_5683" data-name="パス 5683" d="M39.57,41.485a1.907,1.907,0,0,1-1.354-.561l-7.755-7.755a1.915,1.915,0,1,1,2.708-2.708l7.755,7.755a1.915,1.915,0,0,1-1.354,3.269" transform="translate(-1.303 -0.723)" fill="#f8bc04"/>
      </g>
    </g>
  </g>
</svg>
