<svg id="グループ_20167" data-name="グループ 20167" xmlns="http://www.w3.org/2000/svg" xmlns:xlink="http://www.w3.org/1999/xlink" width="56.834" height="55.179" viewBox="0 0 56.834 55.179">
  <defs>
    <clipPath id="clip-path">
      <rect id="長方形_1350" data-name="長方形 1350" width="56.834" height="55.179" fill="#f8bc04"/>
    </clipPath>
  </defs>
  <g id="グループ_2748" data-name="グループ 2748" clip-path="url(#clip-path)">
    <path id="パス_5672" data-name="パス 5672" d="M1.623,47.629A1.664,1.664,0,0,1,1,47.506a1.625,1.625,0,0,1-1-1.5V19.488A7.368,7.368,0,0,1,7.288,12.12H28.568A7.35,7.35,0,0,1,35.9,19.493v13.53a7.373,7.373,0,0,1-7.331,7.319H9.6L2.77,47.155a1.632,1.632,0,0,1-1.147.474M7.3,15.366a4.114,4.114,0,0,0-4.057,4.117V42.095L7.779,37.57A1.627,1.627,0,0,1,8.926,37.1H28.563a4.117,4.117,0,0,0,4.09-4.083V19.488a4.1,4.1,0,0,0-4.095-4.122Z" transform="translate(0 7.55)" fill="#f8bc04"/>
    <path id="パス_5673" data-name="パス 5673" d="M47.188,35.509a1.623,1.623,0,0,1-1.146-.472l-6.86-6.815H30.927a1.623,1.623,0,1,1,0-3.246h8.926A1.627,1.627,0,0,1,41,25.449l4.568,4.538V7.352a4.114,4.114,0,0,0-4.095-4.106H20.214a4.112,4.112,0,0,0-4.088,4.106v9.478a1.623,1.623,0,0,1-3.246,0V7.352A7.364,7.364,0,0,1,20.211,0H41.476a7.366,7.366,0,0,1,7.336,7.352V33.886a1.627,1.627,0,0,1-1.623,1.623" transform="translate(8.023)" fill="#f8bc04"/>
    <path id="パス_5674" data-name="パス 5674" d="M19.479,23.126H11.543a1.623,1.623,0,1,1,0-3.246h7.936a1.623,1.623,0,0,1,0,3.246" transform="translate(6.179 12.383)" fill="#f8bc04"/>
    <path id="パス_5675" data-name="パス 5675" d="M8.111,20.06A1.331,1.331,0,1,1,6.78,21.391,1.331,1.331,0,0,1,8.111,20.06" transform="translate(4.223 12.495)" fill="#f8bc04"/>
    <path id="パス_5676" data-name="パス 5676" d="M32.009,11.066H24.073a1.623,1.623,0,0,1,0-3.246h7.936a1.623,1.623,0,1,1,0,3.246" transform="translate(13.984 4.871)" fill="#f8bc04"/>
    <path id="パス_5677" data-name="パス 5677" d="M20.641,8.01A1.331,1.331,0,1,1,19.31,9.341,1.331,1.331,0,0,1,20.641,8.01" transform="translate(12.028 4.989)" fill="#f8bc04"/>
  </g>
</svg>
