<svg xmlns="http://www.w3.org/2000/svg" width="47.033" height="56.537" viewBox="0 0 47.033 56.537">
  <g id="グループ_20169" data-name="グループ 20169" transform="translate(18175.307 16087.19)">
    <path id="パス_51369" data-name="パス 51369" d="M358.609,109.715a7.413,7.413,0,1,0,7.413,7.413,7.41,7.41,0,0,0-7.413-7.413m0,12.224a4.811,4.811,0,1,1,4.808-4.811,4.808,4.808,0,0,1-4.808,4.811" transform="translate(-18526 -16176.057)" fill="#f8bc04" stroke="#f8bc04" stroke-linecap="round" stroke-linejoin="round" stroke-width="1"/>
    <path id="パス_51370" data-name="パス 51370" d="M385.132,110.473H358.67a1.3,1.3,0,0,0,0,2.6h26.462a1.3,1.3,0,0,0,0-2.6" transform="translate(-18515.205 -16174.731)" fill="#f8bc04" stroke="#f8bc04" stroke-linecap="round" stroke-linejoin="round" stroke-width="1"/>
    <path id="パス_51371" data-name="パス 51371" d="M372.921,113.407H358.67a1.3,1.3,0,0,0,0,2.6h14.252a1.3,1.3,0,0,0,0-2.6" transform="translate(-18515.205 -16169.604)" fill="#f8bc04" stroke="#f8bc04" stroke-linecap="round" stroke-linejoin="round" stroke-width="1"/>
    <path id="パス_51372" data-name="パス 51372" d="M358.609,102.309a7.412,7.412,0,1,0,7.413,7.413,7.41,7.41,0,0,0-7.413-7.413m0,12.21a4.811,4.811,0,1,1,4.808-4.811,4.808,4.808,0,0,1-4.808,4.811" transform="translate(-18526 -16188.999)" fill="#f8bc04" stroke="#f8bc04" stroke-linecap="round" stroke-linejoin="round" stroke-width="1"/>
    <path id="パス_51373" data-name="パス 51373" d="M385.132,103.042H358.67a1.3,1.3,0,0,0,0,2.6h26.462a1.3,1.3,0,0,0,0-2.6" transform="translate(-18515.205 -16187.719)" fill="#f8bc04" stroke="#f8bc04" stroke-linecap="round" stroke-linejoin="round" stroke-width="1"/>
    <path id="パス_51374" data-name="パス 51374" d="M372.921,106.024H358.67a1.3,1.3,0,0,0,0,2.6h14.252a1.3,1.3,0,0,0,0-2.6" transform="translate(-18515.205 -16182.507)" fill="#f8bc04" stroke="#f8bc04" stroke-linecap="round" stroke-linejoin="round" stroke-width="1"/>
    <path id="パス_51375" data-name="パス 51375" d="M358.609,117.127a7.412,7.412,0,1,0,7.413,7.413,7.41,7.41,0,0,0-7.413-7.413m0,12.21a4.811,4.811,0,1,1,4.808-4.811,4.808,4.808,0,0,1-4.808,4.811" transform="translate(-18526 -16163.104)" fill="#f8bc04" stroke="#f8bc04" stroke-linecap="round" stroke-linejoin="round" stroke-width="1"/>
    <path id="パス_51376" data-name="パス 51376" d="M385.132,117.856H358.67a1.3,1.3,0,0,0,0,2.6h26.462a1.3,1.3,0,0,0,0-2.6" transform="translate(-18515.205 -16161.829)" fill="#f8bc04" stroke="#f8bc04" stroke-linecap="round" stroke-linejoin="round" stroke-width="1"/>
    <path id="パス_51377" data-name="パス 51377" d="M372.921,120.837H358.67a1.3,1.3,0,0,0,0,2.6h14.252a1.3,1.3,0,0,0,0-2.6" transform="translate(-18515.205 -16156.619)" fill="#f8bc04" stroke="#f8bc04" stroke-linecap="round" stroke-linejoin="round" stroke-width="1"/>
  </g>
</svg>
