<svg xmlns="http://www.w3.org/2000/svg" xmlns:xlink="http://www.w3.org/1999/xlink" width="72" height="53" viewBox="0 0 72 53">
  <defs>
    <clipPath id="clip-path">
      <rect id="長方形_1351" data-name="長方形 1351" width="31" height="31" transform="translate(-0.148 -0.343)" fill="#f8bc04" stroke="#f8bc04" stroke-linecap="round" stroke-linejoin="round" stroke-width="1"/>
    </clipPath>
    <clipPath id="clip-path-2">
      <rect id="長方形_1380" data-name="長方形 1380" width="42" height="42" transform="translate(0.153 -0.309)" fill="#f8bc04" stroke="#f8bc04" stroke-linecap="round" stroke-linejoin="round" stroke-width="1"/>
    </clipPath>
  </defs>
  <g id="グループ_20174" data-name="グループ 20174" transform="translate(-518.852 -2035.351)">
    <g id="グループ_2812" data-name="グループ 2812" transform="translate(519 2057.695)">
      <g id="グループ_2750" data-name="グループ 2750" transform="translate(0 0)" clip-path="url(#clip-path)">
        <path id="パス_5678" data-name="パス 5678" d="M22.391,37.255H12.627a1.627,1.627,0,0,1,0-3.255h9.764a1.627,1.627,0,0,1,0,3.255" transform="translate(-2.05 -6.45)" fill="#f8bc04" stroke="#f8bc04" stroke-linecap="round" stroke-linejoin="round" stroke-width="1"/>
        <path id="パス_5679" data-name="パス 5679" d="M27.664,24.409H3.255A3.258,3.258,0,0,1,0,21.155V3.255A3.258,3.258,0,0,1,3.255,0H27.664a3.258,3.258,0,0,1,3.255,3.255v17.9a3.258,3.258,0,0,1-3.255,3.255M3.255,3.255h0l0,17.9H27.664V3.255Z" transform="translate(0 -0.114)" fill="#f8bc04" stroke="#f8bc04" stroke-linecap="round" stroke-linejoin="round" stroke-width="1"/>
        <path id="パス_5680" data-name="パス 5680" d="M30.409,21.255H7.627a1.627,1.627,0,0,1,0-3.255H30.409a1.627,1.627,0,0,1,0,3.255" transform="translate(-1.118 -3.468)" fill="#f8bc04" stroke="#f8bc04" stroke-linecap="round" stroke-linejoin="round" stroke-width="1"/>
        <path id="パス_5681" data-name="パス 5681" d="M18.627,36.136A1.628,1.628,0,0,1,17,34.509V29.627a1.627,1.627,0,1,1,3.255,0v4.882a1.628,1.628,0,0,1-1.627,1.627" transform="translate(-3.168 -5.332)" fill="#f8bc04" stroke="#f8bc04" stroke-linecap="round" stroke-linejoin="round" stroke-width="1"/>
      </g>
    </g>
    <g id="グループ_2821" data-name="グループ 2821" transform="translate(548.699 2035.66)">
      <g id="グループ_2820" data-name="グループ 2820" transform="translate(0 0)" clip-path="url(#clip-path-2)">
        <path id="パス_5730" data-name="パス 5730" d="M23.45,24.341a4.95,4.95,0,1,1,4.95-4.95,4.956,4.956,0,0,1-4.95,4.95m0-7.2a2.25,2.25,0,1,0,2.25,2.25,2.253,2.253,0,0,0-2.25-2.25" transform="translate(-2.697 -2.191)" fill="#f8bc04" stroke="#f8bc04" stroke-linecap="round" stroke-linejoin="round" stroke-width="1"/>
        <path id="パス_5731" data-name="パス 5731" d="M29.451,31.5a1.351,1.351,0,0,1-1.35-1.35,4.95,4.95,0,0,0-9.9,0,1.35,1.35,0,1,1-2.7,0,7.651,7.651,0,1,1,15.3,0,1.351,1.351,0,0,1-1.35,1.35" transform="translate(-2.397 -2.997)" fill="#f8bc04" stroke="#f8bc04" stroke-linecap="round" stroke-linejoin="round" stroke-width="1"/>
        <path id="パス_5732" data-name="パス 5732" d="M22.051,39a1.346,1.346,0,0,1-.955-.4l-3.2-3.205H7.65a3.154,3.154,0,0,1-3.15-3.15V10.65A3.154,3.154,0,0,1,7.65,7.5h28.8a3.154,3.154,0,0,1,3.15,3.15v21.6a3.154,3.154,0,0,1-3.15,3.15H26.211l-3.2,3.205a1.346,1.346,0,0,1-.955.4M7.65,10.2a.45.45,0,0,0-.45.45v21.6a.451.451,0,0,0,.45.45h10.8a1.353,1.353,0,0,1,.955.4l2.645,2.646L24.7,33.1a1.354,1.354,0,0,1,.955-.4h10.8a.451.451,0,0,0,.45-.45V10.65a.451.451,0,0,0-.45-.45Z" transform="translate(-1.298 -1.498)" fill="#f8bc04" stroke="#f8bc04" stroke-linecap="round" stroke-linejoin="round" stroke-width="1"/>
      </g>
    </g>
  </g>
</svg>
