<svg xmlns="http://www.w3.org/2000/svg" xmlns:xlink="http://www.w3.org/1999/xlink" width="68.37" height="68.37" viewBox="0 0 68.37 68.37">
  <defs>
    <clipPath id="clip-path">
      <rect id="長方形_1397" data-name="長方形 1397" width="54.754" height="54.754" fill="#f8bc04"/>
    </clipPath>
  </defs>
  <g id="グループ_20125" data-name="グループ 20125" transform="translate(-0.017 15.955) rotate(-17)">
    <g id="グループ_2844" data-name="グループ 2844" transform="translate(0 0.056)" clip-path="url(#clip-path)">
      <path id="パス_5740" data-name="パス 5740" d="M47.253,44.4a1.715,1.715,0,0,1-.682-.141l-26.222-11.4a1.709,1.709,0,0,1-1.028-1.569v-4.56a1.71,1.71,0,0,1,3.42,0v3.44l22.8,9.913V8.819l-23.83,10.36a1.692,1.692,0,0,1-.682.143H7.92V29.582h6.27a1.71,1.71,0,0,1,0,3.42H6.21a1.71,1.71,0,0,1-1.71-1.71V17.611A1.709,1.709,0,0,1,6.21,15.9H20.675l25.9-11.258A1.71,1.71,0,0,1,48.963,6.21V42.693a1.709,1.709,0,0,1-1.71,1.71" transform="translate(0.63 0.579)" fill="#f8bc04"/>
      <path id="パス_5741" data-name="パス 5741" d="M22.331,45.881H13.21a1.71,1.71,0,0,1-1.71-1.71V28.21a1.71,1.71,0,1,1,3.42,0V42.461h5.7v-6.27a1.71,1.71,0,1,1,3.42,0v7.981a1.71,1.71,0,0,1-1.71,1.71" transform="translate(1.611 3.661)" fill="#f8bc04"/>
    </g>
  </g>
</svg>
