<svg xmlns="http://www.w3.org/2000/svg" xmlns:xlink="http://www.w3.org/1999/xlink" width="75.431" height="55.11" viewBox="0 0 75.431 55.11">
  <defs>
    <clipPath id="clip-path">
      <rect id="長方形_1379" data-name="長方形 1379" width="42.291" height="39.941" transform="translate(0)" fill="#f8bc04" stroke="#f8bc04" stroke-width="1"/>
    </clipPath>
    <clipPath id="clip-path-2">
      <rect id="長方形_1367" data-name="長方形 1367" width="31.892" height="31.892" fill="#f8bc04" stroke="#f8bc04" stroke-width="1"/>
    </clipPath>
  </defs>
  <g id="グループ_20175" data-name="グループ 20175" transform="translate(-1117.069 -1498.124)">
    <g id="グループ_20161" data-name="グループ 20161" transform="translate(1150.209 1513.292)">
      <g id="グループ_2818" data-name="グループ 2818" transform="translate(0 0)" clip-path="url(#clip-path)">
        <path id="パス_5724" data-name="パス 5724" d="M38.236,37.563H4.361A4.366,4.366,0,0,1,0,33.2V14.361A4.366,4.366,0,0,1,4.361,10H8.77a1.253,1.253,0,1,1,0,2.506H4.361a1.857,1.857,0,0,0-1.855,1.854V33.2a1.857,1.857,0,0,0,1.855,1.854H38.236A1.856,1.856,0,0,0,40.09,33.2V14.361a1.856,1.856,0,0,0-1.854-1.854h-.651a1.253,1.253,0,1,1,0-2.506h.651a4.366,4.366,0,0,1,4.36,4.36V33.2a4.366,4.366,0,0,1-4.36,4.36" transform="translate(0.137 2.244)" fill="#f8bc04" stroke="#f8bc04" stroke-width="1"/>
        <path id="パス_5725" data-name="パス 5725" d="M6.688,27.071a1.252,1.252,0,0,1-1.235-1.458l1.066-6.4a1.247,1.247,0,0,1,.35-.679L25.035.367A1.242,1.242,0,0,1,26,0a8.074,8.074,0,0,1,4.426,1.67,1.232,1.232,0,0,1,.212.208,8.3,8.3,0,0,1,1.809,4.553,1.255,1.255,0,0,1-.363.985L13.919,25.583a1.239,1.239,0,0,1-.668.348l-6.346,1.12a1.157,1.157,0,0,1-.218.02m2.236-7.05-.709,4.255,4.211-.743L29.88,6.08a5.807,5.807,0,0,0-1.1-2.513,5.574,5.574,0,0,0-2.4-1Z" transform="translate(1.512 -0.285)" fill="#f8bc04" stroke="#f8bc04" stroke-width="1"/>
        <path id="パス_5726" data-name="パス 5726" d="M30.528,22.507H19.253a1.253,1.253,0,1,1,0-2.506H30.528a1.253,1.253,0,1,1,0,2.506" transform="translate(4.688 4.772)" fill="#f8bc04" stroke="#f8bc04" stroke-width="1"/>
        <path id="パス_5727" data-name="パス 5727" d="M31.539,27.507H15.253a1.253,1.253,0,1,1,0-2.506H31.539a1.253,1.253,0,1,1,0,2.506" transform="translate(3.677 6.036)" fill="#f8bc04" stroke="#f8bc04" stroke-width="1"/>
        <path id="パス_5728" data-name="パス 5728" d="M22.818,12.285a1.249,1.249,0,0,1-.886-.367L16.654,6.64a1.253,1.253,0,0,1,1.771-1.771L23.7,10.146a1.253,1.253,0,0,1-.886,2.139" transform="translate(4.255 0.853)" fill="#f8bc04" stroke="#f8bc04" stroke-width="1"/>
        <path id="パス_5729" data-name="パス 5729" d="M21.921,18.127a1.253,1.253,0,0,1-.886-2.139l6.133-6.134,1.115.616-1.031-.712a.542.542,0,0,0-.137-.754,1.3,1.3,0,0,1-.175-.145l-1.6-1.606a1.253,1.253,0,0,1,1.771-1.771l1.535,1.535a3.049,3.049,0,0,1,.289,4.619L22.807,17.76a1.249,1.249,0,0,1-.886.367" transform="translate(5.363 1.009)" fill="#f8bc04" stroke="#f8bc04" stroke-width="1"/>
      </g>
    </g>
    <g id="グループ_2795" data-name="グループ 2795" transform="translate(1117.069 1510.585) rotate(-23)">
      <g id="グループ_2794" data-name="グループ 2794" clip-path="url(#clip-path-2)">
        <path id="パス_5702" data-name="パス 5702" d="M13.953,19.268H2.591A2.6,2.6,0,0,1,0,16.677V1.329a1.329,1.329,0,0,1,2.658,0V16.61h11.3a1.329,1.329,0,1,1,0,2.658" transform="translate(2.658 12.624)" fill="#f8bc04" stroke="#f8bc04" stroke-width="1"/>
        <path id="パス_5703" data-name="パス 5703" d="M18.6,26.577H2.658A2.66,2.66,0,0,1,0,23.919V2.658A2.66,2.66,0,0,1,2.658,0H18.6a1.329,1.329,0,1,1,0,2.658H2.658V23.919H18.6V5.621a1.329,1.329,0,0,1,2.658,0v18.3A2.66,2.66,0,0,1,18.6,26.577" transform="translate(7.973 0)" fill="#f8bc04" stroke="#f8bc04" stroke-width="1"/>
        <path id="パス_5704" data-name="パス 5704" d="M6.644,2.658H1.329A1.329,1.329,0,1,1,1.329,0H6.644a1.329,1.329,0,1,1,0,2.658" transform="translate(14.617 6.644)" fill="#f8bc04" stroke="#f8bc04" stroke-width="1"/>
        <path id="パス_5705" data-name="パス 5705" d="M6.644,2.658H1.329A1.329,1.329,0,1,1,1.329,0H6.644a1.329,1.329,0,1,1,0,2.658" transform="translate(14.617 11.959)" fill="#f8bc04" stroke="#f8bc04" stroke-width="1"/>
        <path id="パス_5706" data-name="パス 5706" d="M2.658,2.658H1.329A1.329,1.329,0,1,1,1.329,0H2.658a1.329,1.329,0,1,1,0,2.658" transform="translate(14.617 17.275)" fill="#f8bc04" stroke="#f8bc04" stroke-width="1"/>
      </g>
    </g>
  </g>
</svg>
