<svg xmlns="http://www.w3.org/2000/svg" width="54.693" height="52.438" viewBox="0 0 54.693 52.438">
  <path id="パス_64707" data-name="パス 64707" d="M256.853,153.7a2.853,2.853,0,0,1-2.776-3.486l3.447-15.2-11.7-10.261a2.852,2.852,0,0,1,1.614-4.988l15.48-1.4,6.119-14.323a2.851,2.851,0,0,1,5.242,0l6.119,14.326,15.478,1.4a2.853,2.853,0,0,1,1.619,4.988l-11.7,10.258,3.447,15.2a2.848,2.848,0,0,1-4.241,3.079l-13.347-7.975-13.347,7.98a2.875,2.875,0,0,1-1.462.4m14.809-11.822a2.868,2.868,0,0,1,1.462.4l12.6,7.535-3.257-14.344a2.851,2.851,0,0,1,.9-2.776l11.049-9.689L279.8,121.679a2.85,2.85,0,0,1-2.369-1.726l-5.768-13.517-5.776,13.517a2.84,2.84,0,0,1-2.362,1.721L248.909,123l11.046,9.689a2.845,2.845,0,0,1,.9,2.779L257.6,149.812l12.6-7.533a2.875,2.875,0,0,1,1.462-.4m-8.86-23.234,0,0Zm17.715-.008,0,.005,0-.005" transform="translate(-244.316 -101.809)" fill="#f8bc04" stroke="#f8bc04" stroke-linecap="round" stroke-linejoin="round" stroke-width="1"/>
</svg>
