<svg xmlns="http://www.w3.org/2000/svg" xmlns:xlink="http://www.w3.org/1999/xlink" width="157.078" height="50.695" viewBox="0 0 157.078 50.695">
  <defs>
    <clipPath id="clip-path">
      <rect id="矩形_1009" data-name="矩形 1009" width="157.077" height="50.695" fill="none"/>
    </clipPath>
  </defs>
  <g id="hd_coupon" transform="translate(-8156.553 -2803.412)">
    <g id="组_2284" data-name="组 2284" transform="translate(8156.553 2803.412)">
      <g id="组_2283" data-name="组 2283" transform="translate(0 0)" clip-path="url(#clip-path)">
        <path id="路径_3939" data-name="路径 3939" d="M107.439,22.983a13.875,13.875,0,0,0,16.574-4.9s-1.45-.222-2.643-.408c-2.041-.317-4.836-.787-7.017-.014a13.607,13.607,0,0,0-6.914,5.325" transform="translate(26.084 4.185)" fill="#f7b400"/>
        <path id="路径_3940" data-name="路径 3940" d="M105.924,23.62a13.144,13.144,0,0,0,8.4-2.211,13.355,13.355,0,0,0,5.351-6.757s-1.558.214-2.694.354a14.861,14.861,0,0,0-6.241,2.139,11.366,11.366,0,0,0-4.818,6.475" transform="translate(25.716 3.557)" fill="#f7b400"/>
        <path id="路径_3941" data-name="路径 3941" d="M93.224,40.8a9.555,9.555,0,1,1-6.281-17.35,11.656,11.656,0,0,0,9.568-6.769,9.557,9.557,0,0,1,18.14,3.213,11.649,11.649,0,0,0,6.669,9.617,9.555,9.555,0,1,1-11.83,14.157A11.681,11.681,0,0,0,93.224,40.8" transform="translate(18.982 2.728)" fill="#45b1e6"/>
        <path id="矩形_1006" data-name="矩形 1006" d="M.605,0H2.574A.606.606,0,0,1,3.18.606v.776a.6.6,0,0,1-.6.6H.6a.6.6,0,0,1-.6-.6V.605A.605.605,0,0,1,.605,0Z" transform="translate(121.134 20.299) rotate(-79.958)" fill="#fff"/>
        <path id="路径_3942" data-name="路径 3942" d="M103.5,17.227a.749.749,0,0,1-.871.608l-.477-.082a.751.751,0,0,1-.609-.871l.291-1.653a.75.75,0,0,1,.87-.606l.477.083a.754.754,0,0,1,.61.872Z" transform="translate(24.651 3.547)" fill="#fff"/>
        <path id="路径_3943" data-name="路径 3943" d="M100.3,22.011a5.347,5.347,0,0,0,5.247-2.124.175.175,0,0,0-.045-.237l-1.059-.716a.162.162,0,0,0-.224.063,3.736,3.736,0,0,1-6.569-1.16.162.162,0,0,0-.189-.134l-1.242.309a.173.173,0,0,0-.122.208,5.342,5.342,0,0,0,4.2,3.79" transform="translate(23.329 4.298)" fill="#fff"/>
        <path id="路径_3944" data-name="路径 3944" d="M107.15,29.475l-2-4.249a.485.485,0,0,0-.352-.263l-8.486-1.5a.49.49,0,0,0-.42.127L92.566,26.9a.488.488,0,0,0-.068.666l5.8,7.544a.49.49,0,0,0,.662.117l8.027-5.107a.48.48,0,0,0,.219-.326.491.491,0,0,0-.055-.322" transform="translate(22.432 5.696)" fill="#fff"/>
        <path id="路径_3945" data-name="路径 3945" d="M100.369,26.065l-1.1-.194.194-1.1-2.2-.389-.194,1.1-1.1-.194-.389,2.2,1.1.194L95.9,32.1l2.2.389.777-4.409,1.1.194a1.118,1.118,0,0,1,.907,1.3l-.778,4.411,2.2.389.778-4.411a3.359,3.359,0,0,0-2.724-3.89" transform="translate(23.203 5.919)" fill="#45b1e6"/>
        <path id="路径_3946" data-name="路径 3946" d="M99.6,23.106a21.707,21.707,0,0,0,12.716-2.023.5.5,0,0,1,.68.283.744.744,0,0,1-.155.9A20.018,20.018,0,0,1,98.01,26.554c-5.725-.531-7.464-4.268-6.664-8.4.129-.666.57-1.008.775-.838a.717.717,0,0,1,.158.285c.782,2.99,3.211,4.9,7.321,5.508" transform="translate(22.132 4.193)" fill="#f7b400"/>
        <path id="路径_3947" data-name="路径 3947" d="M71.223,21.29a13.875,13.875,0,0,0,13.9-10.277s-1.439.288-2.623.522c-2.027.4-4.813.913-6.6,2.386a13.607,13.607,0,0,0-4.674,7.368" transform="translate(17.292 2.674)" fill="#9bc948"/>
        <path id="路径_3948" data-name="路径 3948" d="M69.8,22.372a13.135,13.135,0,0,0,7.139-4.952A13.35,13.35,0,0,0,79.66,9.241s-1.392.734-2.411,1.255a14.843,14.843,0,0,0-5.133,4.145A11.366,11.366,0,0,0,69.8,22.372" transform="translate(16.943 2.244)" fill="#9bc948"/>
        <path id="路径_3949" data-name="路径 3949" d="M63,43.853A9.555,9.555,0,1,1,51.165,29.7a11.652,11.652,0,0,0,6.676-9.634,9.557,9.557,0,0,1,18.145-3.185,11.651,11.651,0,0,0,9.557,6.756,9.555,9.555,0,1,1-6.276,17.349A11.678,11.678,0,0,0,63,43.853" transform="translate(11.075 2.773)" fill="#f7b400"/>
        <path id="矩形_1007" data-name="矩形 1007" d="M.6,0h.779a.6.6,0,0,1,.6.6V2.576a.6.6,0,0,1-.6.6H.605A.605.605,0,0,1,0,2.574V.6A.6.6,0,0,1,.6,0Z" transform="translate(73.969 18.616) rotate(-10.042)" fill="#fff"/>
        <path id="路径_3950" data-name="路径 3950" d="M65.846,16.368a.749.749,0,0,1-.61.869l-.477.087a.751.751,0,0,1-.87-.61L63.6,15.059a.75.75,0,0,1,.61-.867l.477-.083a.75.75,0,0,1,.871.609Z" transform="translate(15.437 3.423)" fill="#fff"/>
        <path id="路径_3951" data-name="路径 3951" d="M64.532,22.2a5.343,5.343,0,0,0,4.2-3.79.174.174,0,0,0-.123-.208l-1.239-.311a.163.163,0,0,0-.189.137,3.737,3.737,0,0,1-6.571,1.157.162.162,0,0,0-.224-.062l-1.059.716a.172.172,0,0,0-.045.236A5.343,5.343,0,0,0,64.532,22.2" transform="translate(14.387 4.343)" fill="#fff"/>
        <path id="路径_3952" data-name="路径 3952" d="M73.306,27.09l-3.329-3.31a.489.489,0,0,0-.421-.128l-8.486,1.5a.492.492,0,0,0-.352.263l-2,4.249a.494.494,0,0,0-.053.322.488.488,0,0,0,.217.327l8.03,5.107a.484.484,0,0,0,.354.073.49.49,0,0,0,.308-.191l5.8-7.544a.486.486,0,0,0-.068-.665" transform="translate(14.242 5.741)" fill="#fff"/>
        <path id="路径_3953" data-name="路径 3953" d="M65.884,25.838l-1.1.194-.194-1.1-2.2.389.194,1.1-1.1.194.389,2.206,1.1-.2.778,4.409,2.2-.388-.778-4.409,1.1-.2a1.119,1.119,0,0,1,1.3.907h0l.778,4.411,2.2-.389-.778-4.411a3.358,3.358,0,0,0-3.89-2.723" transform="translate(14.925 6.053)" fill="#f7b400"/>
        <path id="路径_3954" data-name="路径 3954" d="M64.194,23.873a21.706,21.706,0,0,0,11.257-6.25.5.5,0,0,1,.737.034.745.745,0,0,1,.159.9,20.022,20.022,0,0,1-12.47,9.1c-5.561,1.459-8.472-1.458-9.134-5.616-.107-.671.191-1.143.442-1.054a.742.742,0,0,1,.245.214c1.757,2.543,4.694,3.506,8.764,2.672" transform="translate(13.285 4.244)" fill="#9bc948"/>
        <path id="路径_3955" data-name="路径 3955" d="M38.438,22.983a13.875,13.875,0,0,0,16.574-4.9s-1.45-.222-2.643-.408c-2.042-.317-4.836-.787-7.017-.014a13.607,13.607,0,0,0-6.914,5.325" transform="translate(9.332 4.185)" fill="#45b1e6"/>
        <path id="路径_3956" data-name="路径 3956" d="M36.922,23.62a13.144,13.144,0,0,0,8.4-2.211,13.355,13.355,0,0,0,5.351-6.757s-1.558.214-2.694.354a14.861,14.861,0,0,0-6.241,2.139,11.366,11.366,0,0,0-4.818,6.475" transform="translate(8.964 3.557)" fill="#45b1e6"/>
        <path id="路径_3957" data-name="路径 3957" d="M24.222,40.8a9.555,9.555,0,1,1-6.281-17.35,11.656,11.656,0,0,0,9.568-6.769,9.557,9.557,0,0,1,18.14,3.213,11.653,11.653,0,0,0,6.67,9.617A9.555,9.555,0,1,1,40.487,43.665,11.681,11.681,0,0,0,24.222,40.8" transform="translate(2.23 2.728)" fill="#9bc948"/>
        <path id="矩形_1008" data-name="矩形 1008" d="M.6,0H2.576a.6.6,0,0,1,.6.6v.778a.6.6,0,0,1-.6.6H.6a.6.6,0,0,1-.6-.6V.6A.6.6,0,0,1,.6,0Z" transform="translate(35.379 20.299) rotate(-79.958)" fill="#fff"/>
        <path id="路径_3958" data-name="路径 3958" d="M34.5,17.227a.749.749,0,0,1-.871.608l-.477-.082a.751.751,0,0,1-.609-.871l.291-1.653a.75.75,0,0,1,.87-.606l.477.083a.754.754,0,0,1,.61.872Z" transform="translate(7.898 3.547)" fill="#fff"/>
        <path id="路径_3959" data-name="路径 3959" d="M31.3,22.011a5.347,5.347,0,0,0,5.247-2.124.176.176,0,0,0-.045-.237l-1.059-.716a.162.162,0,0,0-.224.063,3.737,3.737,0,0,1-6.571-1.16.161.161,0,0,0-.189-.134l-1.24.309a.172.172,0,0,0-.122.208,5.342,5.342,0,0,0,4.2,3.79" transform="translate(6.577 4.298)" fill="#fff"/>
        <path id="路径_3960" data-name="路径 3960" d="M38.148,29.475l-2-4.249a.485.485,0,0,0-.352-.263l-8.486-1.5a.49.49,0,0,0-.42.127L23.563,26.9a.489.489,0,0,0-.16.285.483.483,0,0,0,.093.382l5.8,7.544a.488.488,0,0,0,.308.19.483.483,0,0,0,.355-.073l8.027-5.107A.48.48,0,0,0,38.2,29.8a.491.491,0,0,0-.055-.322" transform="translate(5.68 5.696)" fill="#fff"/>
        <path id="路径_3961" data-name="路径 3961" d="M31.367,26.065l-1.1-.194.194-1.1-2.2-.389-.2,1.1-1.1-.194-.389,2.2,1.1.194L26.894,32.1l2.2.389.778-4.409,1.1.194a1.118,1.118,0,0,1,.908,1.3l-.778,4.411,2.2.389.778-4.411a3.359,3.359,0,0,0-2.724-3.89" transform="translate(6.451 5.919)" fill="#9bc948"/>
        <path id="路径_3962" data-name="路径 3962" d="M30.6,23.106a21.707,21.707,0,0,0,12.716-2.023.5.5,0,0,1,.681.283.744.744,0,0,1-.157.9,20.018,20.018,0,0,1-14.833,4.291c-5.724-.531-7.463-4.268-6.663-8.4.129-.666.57-1.008.775-.838a.714.714,0,0,1,.157.285c.782,2.99,3.213,4.9,7.322,5.508" transform="translate(5.38 4.193)" fill="#45b1e6"/>
        <path id="路径_3963" data-name="路径 3963" d="M6.63,3.367S6.791.224,6.47.164s-1.764.4-1.638.691,1.8,2.512,1.8,2.512" transform="translate(1.171 0.039)" fill="#e3007f"/>
        <path id="路径_3964" data-name="路径 3964" d="M6.511,3.522s-.418-.554-.851-1.147a15.2,15.2,0,0,1-.968-1.4A.284.284,0,0,1,4.667.855a.5.5,0,0,1,.28-.384A2.652,2.652,0,0,1,5.43.239,3.426,3.426,0,0,1,6.438,0a.477.477,0,0,1,.106.01c.2.062.211.19.251.291a2.365,2.365,0,0,1,.068.4c.031.313.041.713.041,1.111,0,.8-.041,1.6-.041,1.6a.194.194,0,0,1-.138.176.177.177,0,0,1-.057.009.194.194,0,0,1-.157-.078m.157-.117.157-.118ZM5.974,2.144c.186.255.372.5.519.7.01-.29.019-.66.019-1.033,0-.342-.007-.685-.029-.959a2.427,2.427,0,0,0-.07-.464A3.322,3.322,0,0,0,5.091.849L5.075.862c.106.179.517.763.9,1.281" transform="translate(1.133 0)" fill="#e3007f"/>
        <path id="路径_3965" data-name="路径 3965" d="M5.244,4.3s-1.5-2.768-1.8-2.652S2.142,2.907,2.4,3.093,5.244,4.3,5.244,4.3" transform="translate(0.573 0.4)" fill="#e3007f"/>
        <path id="路径_3966" data-name="路径 3966" d="M5.209,4.522s-.646-.256-1.325-.536a15.031,15.031,0,0,1-1.557-.7A.309.309,0,0,1,2.2,3.033a1.758,1.758,0,0,1,.486-.886,2.607,2.607,0,0,1,.693-.63.244.244,0,0,1,.118-.03.473.473,0,0,1,.314.173,3.033,3.033,0,0,1,.266.322c.191.258.4.594.606.928.406.669.767,1.335.767,1.337l-.172.093.072-.183-.072.183.172-.093a.2.2,0,0,1-.025.222.2.2,0,0,1-.147.066.213.213,0,0,1-.073-.014m-1.174-.9c.291.121.578.236.809.329-.108-.19-.24-.421-.383-.66A7.956,7.956,0,0,0,3.5,1.9a3.208,3.208,0,0,0-.513.5A2.333,2.333,0,0,0,2.6,3c.183.1.839.382,1.438.626" transform="translate(0.535 0.361)" fill="#e3007f"/>
        <path id="路径_3967" data-name="路径 3967" d="M8.266,3.508S10.2,1.315,9.991,1.07,8.424.253,8.349.549s-.083,2.959-.083,2.959" transform="translate(2.007 0.113)" fill="#e3007f"/>
        <path id="路径_3968" data-name="路径 3968" d="M8.235,3.729a.2.2,0,0,1-.127-.184s0-.666.014-1.371A15.284,15.284,0,0,1,8.2.541.345.345,0,0,1,8.563.309,3.222,3.222,0,0,1,10.18.983a.277.277,0,0,1,.061.178,1.493,1.493,0,0,1-.306.656c-.168.25-.388.538-.608.814-.439.549-.875,1.044-.876,1.045L8.3,3.546l.147.129a.2.2,0,0,1-.147.067.193.193,0,0,1-.07-.014m.278-1.549c0,.3-.007.6-.01.834.107-.126.23-.272.357-.429A9.639,9.639,0,0,0,9.8,1.292a.806.806,0,0,0,.045-.1A3.488,3.488,0,0,0,8.567.7c-.022.216-.045.88-.053,1.481" transform="translate(1.968 0.075)" fill="#e3007f"/>
        <path id="路径_3969" data-name="路径 3969" d="M2.15,16.124a11.273,11.273,0,0,0,4.52,2.565s-1.063.124,8.742,9.73l6.325-2.479a65.782,65.782,0,0,1-8.058-7.273c-2.59-3.085-2.022-5.657-1.619-6.763.672-1.848,3.012-4.438,3.353-5.4.411-1.164-1.23-2.2-2.894-1.091a18.666,18.666,0,0,0-2.249,2.481A15.4,15.4,0,0,0,7.155,5.2c-2-1.043-3.7.481-3.588,1.355Z" transform="translate(0.522 1.178)" fill="#fff"/>
        <path id="路径_3970" data-name="路径 3970" d="M22.929,28.087s-1.823-1.408-3.971-3.2a54.989,54.989,0,0,1-5.984-5.59,8.132,8.132,0,0,1-2.145-5.266,6.484,6.484,0,0,1,.4-2.235,24.83,24.83,0,0,1,2.865-4.576,4.742,4.742,0,0,0,.485-.817.334.334,0,0,0,.021-.113.34.34,0,0,0-.154-.267.978.978,0,0,0-.614-.188,1.854,1.854,0,0,0-1.024.348,9.569,9.569,0,0,0-1.22,1.27C11.117,8,10.73,8.5,10.729,8.5a.749.749,0,0,1-1.148.04s-.1-.116-.285-.307-.44-.454-.734-.736A9.764,9.764,0,0,0,6.678,6.015a2.189,2.189,0,0,0-1.017-.267,1.709,1.709,0,0,0-1.419.718.441.441,0,0,0-.062.147A5.138,5.138,0,0,0,5.354,9.083a6.169,6.169,0,0,0,1.31,1.239,1.188,1.188,0,0,0,.6.162,1.075,1.075,0,0,0,.649-.21c.153-.123.189-.229.188-.293V9.966A.9.9,0,0,0,7.79,9.4a1.7,1.7,0,0,0-.38-.276.749.749,0,0,1,.641-1.353,3.131,3.131,0,0,1,.712.488,2.422,2.422,0,0,1,.826,1.608q0,.052,0,.116a1.886,1.886,0,0,1-.762,1.473,2.567,2.567,0,0,1-1.572.528,2.691,2.691,0,0,1-1.34-.36,7.285,7.285,0,0,1-1.727-1.593A6.6,6.6,0,0,1,2.7,6.815a1.45,1.45,0,0,1-.014-.2,2.22,2.22,0,0,1,.908-1.64,3.288,3.288,0,0,1,2.07-.728,3.684,3.684,0,0,1,1.71.437A12.847,12.847,0,0,1,10.091,6.9c.108-.13.226-.273.35-.42a9.79,9.79,0,0,1,1.53-1.545,3.347,3.347,0,0,1,1.857-.6,2.475,2.475,0,0,1,1.555.519,1.8,1.8,0,0,1,.6,2.046,5.7,5.7,0,0,1-.66,1.161c-.29.423-.636.9-.988,1.391a14.083,14.083,0,0,0-1.708,2.855,4.979,4.979,0,0,0-.3,1.721,6.633,6.633,0,0,0,1.795,4.3,53.9,53.9,0,0,0,5.8,5.4c2.124,1.775,3.922,3.164,3.925,3.167h0a.749.749,0,1,1-.916,1.184" transform="translate(0.651 1.032)" fill="#9bc948"/>
        <path id="路径_3971" data-name="路径 3971" d="M5.76,13.111a3.284,3.284,0,0,1-1.689-.534,7.479,7.479,0,0,1-1.722-1.624A5.165,5.165,0,0,1,1.193,8.76a2.573,2.573,0,0,1-.029-.372A2.463,2.463,0,0,1,2.506,6.273,4.389,4.389,0,0,1,3.7,5.8a.749.749,0,0,1,.308,1.466l-.046.011c-.04.01-.1.027-.174.052a2.824,2.824,0,0,0-.527.235c-.384.236-.6.475-.6.821a1.08,1.08,0,0,0,.011.148,4.042,4.042,0,0,0,.844,1.479A6.241,6.241,0,0,0,4.844,11.3a1.816,1.816,0,0,0,.916.318.818.818,0,0,0,.645-.327,1.948,1.948,0,0,0,.322-.56l.007-.022a.749.749,0,0,1,1.435.428,3.361,3.361,0,0,1-.487.952,2.373,2.373,0,0,1-1.916,1.028Z" transform="translate(0.283 1.405)" fill="#9bc948"/>
        <path id="路径_3972" data-name="路径 3972" d="M5,15.037a4.3,4.3,0,0,1-2.232-.949A7.279,7.279,0,0,1,.9,12.2a3.819,3.819,0,0,1-.661-2.016,2.647,2.647,0,0,1,.831-1.92,3.1,3.1,0,0,1,.824-.573h0A.748.748,0,0,1,2.5,9.058l-.014.006c-.017.01-.048.026-.087.051a1.628,1.628,0,0,0-.287.222,1.134,1.134,0,0,0-.377.844,2.353,2.353,0,0,0,.432,1.22,5.9,5.9,0,0,0,1.471,1.47,3.909,3.909,0,0,0,1.292.665,1.113,1.113,0,0,0,.358-.782.943.943,0,0,0-.107-.432h0a.749.749,0,0,1,1.237-.844,2.353,2.353,0,0,1,.368,1.278,2.7,2.7,0,0,1-.9,1.95,1.265,1.265,0,0,1-.877.332Z" transform="translate(0.058 1.852)" fill="#9bc948"/>
        <path id="路径_3973" data-name="路径 3973" d="M.478,13.851A2.7,2.7,0,0,1,0,12.312a3.671,3.671,0,0,1,.711-2.067.749.749,0,0,1,1.188.911l0,.009c-.01.014-.025.035-.045.066A2.689,2.689,0,0,0,1.7,11.5a1.99,1.99,0,0,0-.205.817A1.186,1.186,0,0,0,1.714,13a3.242,3.242,0,0,0,2.395,1.545.918.918,0,0,0,.107-.006.9.9,0,0,0,.1-.246,2.566,2.566,0,0,0,.073-.574.7.7,0,0,1,.006-.1.749.749,0,0,1,1.491.1.568.568,0,0,1-.006.082,3.01,3.01,0,0,1-.45,1.621,1.424,1.424,0,0,1-.9.587,2.4,2.4,0,0,1-.413.035,4.681,4.681,0,0,1-3.63-2.2" transform="translate(0 2.416)" fill="#9bc948"/>
        <path id="路径_3974" data-name="路径 3974" d="M17.8,29.259C10.388,23.225,7.06,18.4,6.329,17.267A11.764,11.764,0,0,1,1.764,14.6h0a.749.749,0,0,1,1.064-1.055,10.477,10.477,0,0,0,4.084,2.341l.1.027a.743.743,0,0,1,.454.343s.037.065.133.213.242.37.446.66c.409.58,1.043,1.43,1.937,2.493a65.373,65.373,0,0,0,8.77,8.479.749.749,0,0,1-.946,1.161" transform="translate(0.376 3.234)" fill="#9bc948"/>
        <path id="路径_3975" data-name="路径 3975" d="M120.124,6.629s-.162-3.143.159-3.2,1.764.4,1.638.691-1.8,2.512-1.8,2.512" transform="translate(29.154 0.831)" fill="#e3007f"/>
        <path id="路径_3976" data-name="路径 3976" d="M120.1,6.855a.2.2,0,0,1-.138-.176s-.041-.8-.041-1.6a6.848,6.848,0,0,1,.109-1.514c.04-.1.051-.23.247-.291a.534.534,0,0,1,.109-.01,3.672,3.672,0,0,1,1.49.471.492.492,0,0,1,.28.383.321.321,0,0,1-.022.116,15.7,15.7,0,0,1-.968,1.406c-.434.592-.853,1.147-.853,1.147a.2.2,0,0,1-.157.078.177.177,0,0,1-.057-.009m.057-.188.2-.01Zm.249-3a1.9,1.9,0,0,0-.055.333c-.029.288-.039.681-.039,1.073,0,.372.009.743.019,1.032.148-.2.333-.447.519-.7.387-.523.8-1.112.9-1.28a.519.519,0,0,0-.085-.065,2.321,2.321,0,0,0-.41-.2,3.4,3.4,0,0,0-.845-.213l0,.017" transform="translate(29.115 0.792)" fill="#e3007f"/>
        <path id="路径_3977" data-name="路径 3977" d="M121.712,7.564s1.5-2.768,1.8-2.652,1.3,1.258,1.039,1.443-2.841,1.209-2.841,1.209" transform="translate(29.549 1.192)" fill="#e3007f"/>
        <path id="路径_3978" data-name="路径 3978" d="M121.6,7.731a.193.193,0,0,1-.025-.222,18.3,18.3,0,0,1,1.639-2.587.47.47,0,0,1,.316-.172.215.215,0,0,1,.088.016,2.418,2.418,0,0,1,.723.643,1.784,1.784,0,0,1,.485.886.314.314,0,0,1-.123.257,15.377,15.377,0,0,1-1.56.7c-.679.28-1.322.536-1.324.536a.191.191,0,0,1-.073.014.2.2,0,0,1-.147-.066m.318-.037-.172-.092ZM123.5,5.2a2.5,2.5,0,0,0-.231.278c-.178.241-.386.57-.585.9-.181.3-.355.6-.492.84.231-.093.518-.209.812-.329.6-.245,1.259-.531,1.435-.625a2.246,2.246,0,0,0-.39-.6,2.983,2.983,0,0,0-.511-.5.239.239,0,0,0-.037.035" transform="translate(29.511 1.153)" fill="#e3007f"/>
        <path id="路径_3979" data-name="路径 3979" d="M118.467,6.771s-1.934-2.194-1.725-2.438,1.567-.817,1.642-.521.083,2.959.083,2.959" transform="translate(28.339 0.906)" fill="#e3007f"/>
        <path id="路径_3980" data-name="路径 3980" d="M118.358,6.938a23.436,23.436,0,0,1-1.484-1.86,1.469,1.469,0,0,1-.306-.655.261.261,0,0,1,.063-.179,3.213,3.213,0,0,1,1.614-.672.346.346,0,0,1,.365.23,14.322,14.322,0,0,1,.076,1.635c.011.7.014,1.372.014,1.372h-.2l.145-.129-.145.129h.2a.2.2,0,0,1-.125.184.236.236,0,0,1-.07.012.2.2,0,0,1-.148-.067m-1.345-2.384a2.909,2.909,0,0,0,.185.306c.158.235.374.518.589.788.184.231.368.451.518.63,0-.239,0-.533-.01-.835-.007-.6-.031-1.269-.053-1.48a3.436,3.436,0,0,0-1.271.495.765.765,0,0,0,.042.1" transform="translate(28.3 0.867)" fill="#e3007f"/>
        <path id="路径_3981" data-name="路径 3981" d="M128,19.387a11.272,11.272,0,0,1-4.52,2.565s-1.709,3.774-9.471,10.328l-5.236-3.418a58.959,58.959,0,0,0,7.7-6.932c2.591-3.085,2.022-5.657,1.619-6.763-.672-1.848-3.012-4.438-3.352-5.4-.413-1.164,1.23-2.2,2.893-1.091a18.668,18.668,0,0,1,2.249,2.481A15.384,15.384,0,0,1,123,8.468c2-1.043,3.7.481,3.587,1.355Z" transform="translate(26.408 1.971)" fill="#fff"/>
        <path id="路径_3982" data-name="路径 3982" d="M106.6,31.214a.747.747,0,0,1,.135-1.05s1.8-1.392,3.925-3.167a53.911,53.911,0,0,0,5.8-5.4,6.632,6.632,0,0,0,1.793-4.3,5.029,5.029,0,0,0-.3-1.722,24.685,24.685,0,0,0-2.694-4.244,5.736,5.736,0,0,1-.66-1.161,1.8,1.8,0,0,1,.6-2.046,2.467,2.467,0,0,1,1.555-.519,3.357,3.357,0,0,1,1.858.6,9.681,9.681,0,0,1,1.529,1.545c.124.147.244.29.352.42a12.847,12.847,0,0,1,2.72-2.215,3.683,3.683,0,0,1,1.71-.439,3.285,3.285,0,0,1,2.069.73,2.214,2.214,0,0,1,.907,1.639,1.559,1.559,0,0,1-.01.185,6.609,6.609,0,0,1-1.5,3.224,7.254,7.254,0,0,1-1.726,1.593,2.678,2.678,0,0,1-1.342.36,2.568,2.568,0,0,1-1.573-.527,1.887,1.887,0,0,1-.761-1.473,1.182,1.182,0,0,1,.006-.129,2.408,2.408,0,0,1,.825-1.594,3.011,3.011,0,0,1,.712-.488.748.748,0,0,1,.641,1.352l-.015.009c-.015.007-.042.022-.077.043a1.9,1.9,0,0,0-.255.191.93.93,0,0,0-.339.6v.016c0,.065.034.17.186.293a1.068,1.068,0,0,0,.65.209,1.184,1.184,0,0,0,.6-.162,6.186,6.186,0,0,0,1.309-1.238A5.152,5.152,0,0,0,126.4,9.882h0a.5.5,0,0,0-.063-.152,1.241,1.241,0,0,0-.291-.326,1.793,1.793,0,0,0-1.126-.393,2.171,2.171,0,0,0-1.017.267,13.056,13.056,0,0,0-2.619,2.218c-.181.191-.285.306-.285.306a.746.746,0,0,1-1.148-.04s-.388-.5-.855-1.049a9.537,9.537,0,0,0-1.22-1.269,1.85,1.85,0,0,0-1.025-.348.97.97,0,0,0-.614.188.336.336,0,0,0-.153.266.351.351,0,0,0,.021.114,4.8,4.8,0,0,0,.485.815c.267.391.611.862.971,1.366a15.139,15.139,0,0,1,1.9,3.213,6.539,6.539,0,0,1,.394,2.233,8.135,8.135,0,0,1-2.144,5.264,55.105,55.105,0,0,1-5.984,5.591c-2.148,1.795-3.966,3.2-3.971,3.2a.75.75,0,0,1-1.05-.135" transform="translate(25.843 1.824)" fill="#45b1e6"/>
        <path id="路径_3983" data-name="路径 3983" d="M120.084,15.345a3.322,3.322,0,0,1-.487-.952.749.749,0,1,1,1.435-.426l.007.021c.009.025.024.065.046.114a1.968,1.968,0,0,0,.205.357.864.864,0,0,0,.715.416,1.821,1.821,0,0,0,.916-.318,6.212,6.212,0,0,0,1.329-1.28,4.034,4.034,0,0,0,.843-1.474,1.211,1.211,0,0,0,.011-.152.882.882,0,0,0-.465-.738,2.89,2.89,0,0,0-.834-.372l-.046-.011a.749.749,0,0,1,.308-1.465,4.343,4.343,0,0,1,1.193.471,2.461,2.461,0,0,1,1.341,2.115,2.673,2.673,0,0,1-.027.368,5.152,5.152,0,0,1-1.156,2.195,7.441,7.441,0,0,1-1.724,1.626,3.289,3.289,0,0,1-1.689.533H122a2.369,2.369,0,0,1-1.915-1.028" transform="translate(29.028 2.197)" fill="#45b1e6"/>
        <path id="路径_3984" data-name="路径 3984" d="M121.784,17.963a2.69,2.69,0,0,1-.9-1.945,2.342,2.342,0,0,1,.369-1.279.749.749,0,1,1,1.235.846h0a.6.6,0,0,0-.042.088.931.931,0,0,0-.066.344,1.112,1.112,0,0,0,.358.78,3.924,3.924,0,0,0,1.292-.664,5.878,5.878,0,0,0,1.471-1.47,2.348,2.348,0,0,0,.433-1.222,1.117,1.117,0,0,0-.338-.805,1.72,1.72,0,0,0-.424-.317h0l-.006,0a.749.749,0,0,1,.61-1.367,2.969,2.969,0,0,1,.823.573,2.637,2.637,0,0,1,.833,1.919,3.819,3.819,0,0,1-.661,2.016,7.323,7.323,0,0,1-1.865,1.892,4.3,4.3,0,0,1-2.232.948h-.011a1.259,1.259,0,0,1-.88-.336" transform="translate(29.348 2.644)" fill="#45b1e6"/>
        <path id="路径_3985" data-name="路径 3985" d="M123.01,19.272a1.409,1.409,0,0,1-.894-.585,2.242,2.242,0,0,1-.334-.751,4,4,0,0,1-.122-.951.733.733,0,0,1,.015-.153.749.749,0,0,1,1.483.172,2.457,2.457,0,0,0,.035.374,1.321,1.321,0,0,0,.133.428.987.987,0,0,0,.108,0,3.238,3.238,0,0,0,2.394-1.542,1.2,1.2,0,0,0,.216-.695,2.24,2.24,0,0,0-.4-1.147l-.006-.009a.749.749,0,0,1,1.189-.91,3.663,3.663,0,0,1,.71,2.065,2.7,2.7,0,0,1-.477,1.54,4.683,4.683,0,0,1-3.63,2.195,2.5,2.5,0,0,1-.424-.036" transform="translate(29.537 3.208)" fill="#45b1e6"/>
        <path id="路径_3986" data-name="路径 3986" d="M110.951,32.414a.75.75,0,0,1,.107-1.054c7.262-5.908,10.487-10.6,11.154-11.631.1-.148.133-.213.133-.213a.743.743,0,0,1,.454-.343l.1-.029c.068-.021.171-.053.3-.1.261-.089.631-.227,1.055-.42a9.344,9.344,0,0,0,2.727-1.823h0a.748.748,0,0,1,1.063,1.054,11.763,11.763,0,0,1-4.565,2.672c-.731,1.136-4.056,5.958-11.472,11.992a.75.75,0,0,1-1.054-.108" transform="translate(26.896 4.026)" fill="#45b1e6"/>
      </g>
    </g>
  </g>
</svg>
