<svg xmlns="http://www.w3.org/2000/svg" width="302" height="43" viewBox="0 0 302 43">
  <g id="组_2334" data-name="组 2334" transform="translate(12759.292 22164)">
    <path id="多边形_76" data-name="多边形 76" d="M23,0l5.75,15.991L46,16.425,32.3,26.741,37.215,43,23,33.385,8.785,43,13.7,26.741,0,16.425l17.25-.433Z" transform="translate(-12759.292 -22164)" fill="#ffc400"/>
    <path id="多边形_77" data-name="多边形 77" d="M23.5,0l5.875,15.991L47,16.425,33.006,26.741,38.024,43,23.5,33.385,8.976,43l5.018-16.259L0,16.425l17.625-.433Z" transform="translate(-12631.292 -22164)" fill="#ffc400"/>
    <path id="多边形_78" data-name="多边形 78" d="M23.5,0l5.875,15.991L47,16.425,33.006,26.741,38.024,43,23.5,33.385,8.976,43l5.018-16.259L0,16.425l17.625-.433Z" transform="translate(-12695.292 -22164)" fill="#ffc400"/>
    <g id="多边形_79" data-name="多边形 79" transform="translate(-12567.292 -22164)" fill="#ffc400">
      <path d="M 36.32920074462891 41.79734039306641 L 23.2801399230957 32.97076034545898 L 23 32.78126907348633 L 22.7198600769043 32.97076034545898 L 9.670799255371094 41.79734039306641 L 14.17494010925293 26.8856201171875 L 14.27583026885986 26.55158996582031 L 13.99713039398193 26.34165954589844 L 1.446793437004089 16.88833618164062 L 17.26255989074707 16.49087905883789 L 17.60470008850098 16.48228073120117 L 17.72051048278809 16.16021919250488 L 23 1.477692008018494 L 28.27948951721191 16.16021919250488 L 28.39529991149902 16.48228073120117 L 28.73744010925293 16.49087905883789 L 44.55320739746094 16.88833618164062 L 32.00286865234375 26.34165954589844 L 31.72417068481445 26.55158996582031 L 31.82505989074707 26.8856201171875 L 36.32920074462891 41.79734039306641 Z" stroke="none"/>
      <path d="M 23 2.955368041992188 L 17.95940017700195 16.97352981567383 L 2.893577575683594 17.35213470458984 L 14.85536956787109 26.36215019226074 L 10.55637359619141 40.59468460083008 L 23 32.17761993408203 L 35.44362640380859 40.59468460083008 L 31.14463043212891 26.36215019226074 L 43.10642242431641 17.35213470458984 L 28.04059982299805 16.97352981567383 L 23 2.955368041992188 M 23 0 L 28.75 15.99103927612305 L 46 16.42453956604004 L 32.3036994934082 26.74103927612305 L 37.21477890014648 43 L 23 33.38491058349609 L 8.785221099853516 43 L 13.6963005065918 26.74103927612305 L 0 16.42453956604004 L 17.25 15.99103927612305 L 23 0 Z" stroke="none" fill="#fec42d"/>
    </g>
    <g id="多边形_80" data-name="多边形 80" transform="translate(-12503.292 -22164)" fill="#ffc400">
      <path d="M 36.32920074462891 41.79734039306641 L 23.2801399230957 32.97076034545898 L 23 32.78126907348633 L 22.7198600769043 32.97076034545898 L 9.670799255371094 41.79734039306641 L 14.17494010925293 26.8856201171875 L 14.27583026885986 26.55158996582031 L 13.99713039398193 26.34165954589844 L 1.446793437004089 16.88833618164062 L 17.26255989074707 16.49087905883789 L 17.60470008850098 16.48228073120117 L 17.72051048278809 16.16021919250488 L 23 1.477692008018494 L 28.27948951721191 16.16021919250488 L 28.39529991149902 16.48228073120117 L 28.73744010925293 16.49087905883789 L 44.55320739746094 16.88833618164062 L 32.00286865234375 26.34165954589844 L 31.72417068481445 26.55158996582031 L 31.82505989074707 26.8856201171875 L 36.32920074462891 41.79734039306641 Z" stroke="none"/>
      <path d="M 23 2.955368041992188 L 17.95940017700195 16.97352981567383 L 2.893577575683594 17.35213470458984 L 14.85536956787109 26.36215019226074 L 10.55637359619141 40.59468460083008 L 23 32.17761993408203 L 35.44362640380859 40.59468460083008 L 31.14463043212891 26.36215019226074 L 43.10642242431641 17.35213470458984 L 28.04059982299805 16.97352981567383 L 23 2.955368041992188 M 23 0 L 28.75 15.99103927612305 L 46 16.42453956604004 L 32.3036994934082 26.74103927612305 L 37.21477890014648 43 L 23 33.38491058349609 L 8.785221099853516 43 L 13.6963005065918 26.74103927612305 L 0 16.42453956604004 L 17.25 15.99103927612305 L 23 0 Z" stroke="none" fill="#fec42d"/>
    </g>
  </g>
</svg>
