<svg xmlns="http://www.w3.org/2000/svg" xmlns:xlink="http://www.w3.org/1999/xlink" width="275" height="232.127" viewBox="0 0 275 232.127">
  <defs>
    <clipPath id="clip-path">
      <rect id="矩形_1685" data-name="矩形 1685" width="240.074" height="51.421" fill="none"/>
    </clipPath>
  </defs>
  <g id="组_3148" data-name="组 3148" transform="translate(-789 -211.149)">
    <g id="组_1947" data-name="组 1947" transform="translate(789 211.149)">
      <path id="路径_3900" data-name="路径 3900" d="M173.461,246.353a6.043,6.043,0,1,0,6.046-6.043,6.051,6.051,0,0,0-6.046,6.043m.741,0a5.3,5.3,0,1,1,5.305,5.305,5.31,5.31,0,0,1-5.305-5.305" transform="translate(62.766 -96.354)" fill="#221815"/>
      <path id="路径_3901" data-name="路径 3901" d="M174.924,241.362h3.393a3.426,3.426,0,0,1,1.387.248,1.78,1.78,0,0,1,1.026,1.765,1.959,1.959,0,0,1-.279,1.1,2.03,2.03,0,0,1-.778.686,1.494,1.494,0,0,1,.661.466,1.628,1.628,0,0,1,.248.938l.033,1a3.079,3.079,0,0,0,.073.637.623.623,0,0,0,.327.455v.171h-1.244a.875.875,0,0,1-.073-.251,4.133,4.133,0,0,1-.062-.587l-.055-1.242a1.057,1.057,0,0,0-.527-.98,2.141,2.141,0,0,0-.89-.138h-2.231v3.2h-1.011Zm3.283,3.42a1.871,1.871,0,0,0,1.092-.286,1.171,1.171,0,0,0,.409-1.024,1.11,1.11,0,0,0-.569-1.088,1.812,1.812,0,0,0-.811-.154h-2.393v2.551Z" transform="translate(64.518 -95.094)" fill="#221815"/>
      <path id="路径_3902" data-name="路径 3902" d="M117.481,221.766H104.273v26.42h13.208Zm19.816,0v33.026a6.6,6.6,0,0,1-6.606,6.6v0h-13.21V274.6h13.21A19.813,19.813,0,0,0,150.5,254.792V221.766Z" transform="translate(-20.095 -118.563)" fill="#221815"/>
      <path id="路径_3903" data-name="路径 3903" d="M177.736,234.976a6.6,6.6,0,0,1-6.6-6.606v-6.6H157.922V274.6h13.212V247.032a19.69,19.69,0,0,0,6.6,1.154h26.422v-13.21Z" transform="translate(44.156 -118.563)" fill="#221815"/>
      <path id="路径_3904" data-name="路径 3904" d="M154.418,227.525a7.487,7.487,0,1,1-7.49-7.487,7.491,7.491,0,0,1,7.49,7.487" transform="translate(22.025 -120.632)" fill="#f8b500"/>
      <path id="路径_3905" data-name="路径 3905" d="M162.244,225.712a7.488,7.488,0,1,1-7.49-7.487,7.488,7.488,0,0,1,7.49,7.487" transform="translate(31.395 -122.803)" fill="#9cc948"/>
      <path id="路径_3906" data-name="路径 3906" d="M150.689,261.4h0a6.6,6.6,0,0,1-6.6-6.6v-7.76a19.713,19.713,0,0,0,6.6,1.154H170.5v-13.21H150.689a6.608,6.608,0,0,1-6.6-6.588v-6.621H130.873v33.026A19.816,19.816,0,0,0,150.689,274.6h26.422V261.4Z" transform="translate(11.762 -118.563)" fill="#221815"/>
      <path id="路径_3907" data-name="路径 3907" d="M104.539,228.368H97.931v-6.6H84.721v6.6h-6.6V241.58h6.6V268h13.21V241.58h6.608v0a6.6,6.6,0,0,1,6.6,6.6h0V274.6h13.21V248.181a19.813,19.813,0,0,0-19.809-19.814" transform="translate(-51.418 -118.563)" fill="#221815"/>
      <path id="路径_3908" data-name="路径 3908" d="M177.267,252.2a21.864,21.864,0,1,1-21.053-36.6,26.644,26.644,0,0,0,18.875-19.06,21.871,21.871,0,0,1,42.155.033,26.637,26.637,0,0,0,18.849,19.02A21.867,21.867,0,1,1,215.057,252.2a26.719,26.719,0,0,0-37.79,0" transform="translate(22.618 -167.961)" fill="#f8b500"/>
      <path id="矩形_794" data-name="矩形 794" d="M.884,0H4.256a.887.887,0,0,1,.887.887V7.343a.885.885,0,0,1-.885.885H.887A.887.887,0,0,1,0,7.341V.884A.884.884,0,0,1,.884,0Z" transform="translate(209.726 21.711)" fill="#fff"/>
      <path id="路径_3909" data-name="路径 3909" d="M172.444,190.965a1.944,1.944,0,0,1-1.943,1.945l-1.257,0a1.943,1.943,0,0,1-1.943-1.947v-4.336a1.942,1.942,0,0,1,1.943-1.945l1.257,0a1.941,1.941,0,0,1,1.943,1.945Z" transform="translate(55.39 -162.973)" fill="#fff"/>
      <path id="路径_3910" data-name="路径 3910" d="M172.307,200.192a13.834,13.834,0,0,0,12.419-7.775.452.452,0,0,0-.22-.585l-3.022-1.347a.427.427,0,0,0-.547.264,9.665,9.665,0,0,1-17.26,0,.424.424,0,0,0-.543-.259l-3.024,1.347a.455.455,0,0,0-.222.585,13.837,13.837,0,0,0,12.419,7.775" transform="translate(46.471 -156.056)" fill="#fff"/>
      <path id="路径_3911" data-name="路径 3911" d="M103.291,252.2A21.863,21.863,0,1,1,82.24,215.6a26.666,26.666,0,0,0,18.873-19.06,21.873,21.873,0,0,1,42.157.033,26.656,26.656,0,0,0,18.849,19.02A21.867,21.867,0,1,1,141.082,252.2a26.721,26.721,0,0,0-37.79,0" transform="translate(-65.969 -167.962)" fill="#9cc948"/>
      <path id="矩形_795" data-name="矩形 795" d="M.883,0H4.255A.885.885,0,0,1,5.14.885V7.344a.882.882,0,0,1-.882.882H.885A.885.885,0,0,1,0,7.341V.883A.883.883,0,0,1,.883,0Z" transform="translate(47.165 21.711)" fill="#fff"/>
      <path id="路径_3912" data-name="路径 3912" d="M98.474,190.965a1.941,1.941,0,0,1-1.947,1.943l-1.253,0a1.944,1.944,0,0,1-1.945-1.945v-4.343a1.94,1.94,0,0,1,1.945-1.938h1.253a1.942,1.942,0,0,1,1.947,1.945Z" transform="translate(-33.202 -162.973)" fill="#fff"/>
      <path id="路径_3913" data-name="路径 3913" d="M98.337,200.192a13.839,13.839,0,0,0,12.417-7.775.452.452,0,0,0-.22-.585l-3.022-1.347a.418.418,0,0,0-.541.264,9.672,9.672,0,0,1-17.267,0,.422.422,0,0,0-.543-.259l-3.02,1.347a.449.449,0,0,0-.222.585,13.839,13.839,0,0,0,12.417,7.775" transform="translate(-42.119 -156.056)" fill="#fff"/>
      <path id="路径_3914" data-name="路径 3914" d="M178.071,181.2a21.864,21.864,0,1,1,21.051,36.6,26.666,26.666,0,0,0-18.873,19.06,21.873,21.873,0,0,1-42.157-.033A26.647,26.647,0,0,0,119.245,217.8,21.866,21.866,0,1,1,140.281,181.2h0a26.724,26.724,0,0,0,37.793,0" transform="translate(-21.677 -174.805)" fill="#45b2e6"/>
      <path id="矩形_796" data-name="矩形 796" d="M.884,0h3.37A.886.886,0,0,1,5.14.886V7.342a.884.884,0,0,1-.884.884H.884A.884.884,0,0,1,0,7.342V.884A.884.884,0,0,1,.884,0Z" transform="translate(141.413 60.697)" fill="#fff"/>
      <path id="矩形_797" data-name="矩形 797" d="M.885,0H4.257a.885.885,0,0,1,.885.885V7.343a.883.883,0,0,1-.883.883H.885A.885.885,0,0,1,0,7.341V.885A.885.885,0,0,1,.885,0Z" transform="translate(128.447 60.697)" fill="#fff"/>
      <path id="路径_3915" data-name="路径 3915" d="M135.323,195.963A13.845,13.845,0,0,0,122.9,203.74a.454.454,0,0,0,.22.582l3.02,1.345a.421.421,0,0,0,.547-.264,9.672,9.672,0,0,1,17.265,0,.42.42,0,0,0,.543.262l3.022-1.347a.45.45,0,0,0,.22-.582,13.834,13.834,0,0,0-12.417-7.777" transform="translate(2.178 -149.465)" fill="#fff"/>
    </g>
    <g id="组_3147" data-name="组 3147" transform="translate(806.39 391.855)">
      <g id="组_3146" data-name="组 3146" transform="translate(0 0)" clip-path="url(#clip-path)">
        <path id="路径_5094" data-name="路径 5094" d="M9.066,10.928c-.661,1.323-1.518,2.684-2.334,4.006v19.1A1.039,1.039,0,0,1,5.64,35.126a1.049,1.049,0,0,1-1.127-1.088V18.046C3.074,19.914,1.984,21.2,1.984,21.2a1.086,1.086,0,0,1-.818.39A1.19,1.19,0,0,1,0,20.459a.956.956,0,0,1,.312-.7,56.461,56.461,0,0,0,6.808-9.8.969.969,0,0,1,.933-.622,1.154,1.154,0,0,1,1.166,1.091.945.945,0,0,1-.154.5M8.987,2.251a37.484,37.484,0,0,1-6.576,6.5.905.905,0,0,1-.659.273A1.192,1.192,0,0,1,.623,7.855a.966.966,0,0,1,.427-.818A32.815,32.815,0,0,0,7.2.969,1.071,1.071,0,0,1,8.053.5,1.189,1.189,0,0,1,9.219,1.629a1.03,1.03,0,0,1-.232.622m14.744,13h-13.3a1.09,1.09,0,1,1,0-2.179h5.487V7.308H11.36a1.089,1.089,0,1,1,0-2.176h4.553V1.864a1.108,1.108,0,1,1,2.215,0V5.131h4.4a1.089,1.089,0,1,1,0,2.176h-4.4v5.76h5.6a1.09,1.09,0,1,1,0,2.179m0,15.719a124.33,124.33,0,0,1-12.916,2.8h-.157a1.069,1.069,0,0,1-1.087-1.127,1.049,1.049,0,0,1,.932-1.09c1.595-.195,3.542-.545,5.41-.973V23.3H11.2a1.09,1.09,0,0,1,0-2.181h4.71V17.036a1.107,1.107,0,0,1,2.215,0V21.12h4.4a1.091,1.091,0,1,1,0,2.181h-4.4v6.765c2.8-.62,5.02-1.242,5.02-1.242a.748.748,0,0,1,.313-.04,1.163,1.163,0,0,1,1.088,1.206.953.953,0,0,1-.818.974m10.544-18.6H31.747V31c0,2.181-.661,3.814-4.24,3.814a23.859,23.859,0,0,1-2.957-.273,1.079,1.079,0,0,1-.935-1.09,1.154,1.154,0,0,1,1.091-1.168c.075,0,.154.04.232.04a14.133,14.133,0,0,0,2.684.154c1.518,0,1.946-.464,1.946-1.593V12.367H25.716a1.089,1.089,0,0,1,0-2.178h8.559a1.089,1.089,0,1,1,0,2.178m-.428-8.6h-7.7A1.1,1.1,0,0,1,25.017,2.64a1.071,1.071,0,0,1,1.127-1.09h7.7a1.075,1.075,0,0,1,1.131,1.09,1.1,1.1,0,0,1-1.131,1.128" transform="translate(0 0.238)" fill="#1a1311"/>
        <path id="路径_5095" data-name="路径 5095" d="M54.386,16.25a70.661,70.661,0,0,0-8.32,1.658,25.862,25.862,0,0,1,.2,3.619c0,1.286-.066,2.5-.066,3.551a1.014,1.014,0,1,1-2.029,0c0-1.115.1-2.638.1-4.159a19.69,19.69,0,0,0-.131-2.433c-4.871,1.521-9.472,3.852-9.506,7.2v.035c0,2.875,2.941,3.616,5.309,3.922a34.3,34.3,0,0,0,3.857.2c2.805,0,5.986-.236,9.3-.508h.1a.97.97,0,0,1,.982,1.017,1,1,0,0,1-.945,1.014c-2.977.235-5.851.371-8.454.371a41.223,41.223,0,0,1-5.208-.27c-3.315-.44-6.935-1.758-7-5.612V25.82c0-4.531,5.478-7.44,11.158-9.265a4.044,4.044,0,0,0-4.193-2.978c-3.077,0-7.205,2.47-10.551,7.1a.878.878,0,0,1-.712.374,1.142,1.142,0,0,1-1.081-1.115.9.9,0,0,1,.27-.644A78.414,78.414,0,0,0,35.549,7.863H28.614a.968.968,0,0,1-1.014-.98.943.943,0,0,1,1.014-.946h8.017c.709-1.251,1.352-2.5,1.894-3.651a.939.939,0,0,1,.88-.608A1.053,1.053,0,0,1,40.488,2.69a1.17,1.17,0,0,1-.1.44c-.44.879-.914,1.828-1.454,2.807h11.7a.941.941,0,0,1,1.016.946.967.967,0,0,1-1.016.98H37.849c-1.218,1.995-2.572,4.057-3.958,5.953a12.67,12.67,0,0,1,6.02-1.962,5.4,5.4,0,0,1,5.715,4.125,69.425,69.425,0,0,1,8.488-1.791h.171a.959.959,0,0,1,.98,1.048,1,1,0,0,1-.88,1.013" transform="translate(12.958 0.799)" fill="#1a1311"/>
        <path id="路径_5096" data-name="路径 5096" d="M70.04,35.715h-.115a1.206,1.206,0,0,1-1.168-1.206,1.14,1.14,0,0,1,1.05-1.165c7.548-.741,11.128-4.32,11.128-8.248,0-3.97-3.152-8.056-10.933-8.056a31.178,31.178,0,0,0-6.226.586V27.78c0,4.2-1.593,6.649-5.679,6.649-4.862,0-8.053-3.5-8.053-7.545,0-4.94,4.551-9.063,11.36-10.97V8.522H51.987a1.132,1.132,0,0,1-1.166-1.206,1.121,1.121,0,0,1,1.166-1.168H61.4V1.168A1.153,1.153,0,0,1,62.609,0a1.12,1.12,0,0,1,1.166,1.168v4.98H73a1.121,1.121,0,0,1,1.166,1.168A1.131,1.131,0,0,1,73,8.522H63.775v6.885a33.342,33.342,0,0,1,6.031-.546c9.884,0,13.5,5.485,13.5,10.273,0,4.822-3.969,9.571-13.268,10.58M61.4,18.206c-5.525,1.676-8.987,4.98-8.987,8.677,0,2.957,2.3,5.213,5.68,5.213,2.683,0,3.307-1.673,3.307-4.317Zm21.9-4.667a1.083,1.083,0,0,1-.974-.623,68.849,68.849,0,0,0-6.457-8.792.947.947,0,0,1-.31-.7,1.235,1.235,0,0,1,1.2-1.2,1.167,1.167,0,0,1,.858.39,88.8,88.8,0,0,1,6.73,9.105,1.28,1.28,0,0,1,.195.622,1.272,1.272,0,0,1-1.245,1.2" transform="translate(23.845 0)" fill="#1a1311"/>
        <path id="路径_5097" data-name="路径 5097" d="M110.047,30.234c-.35,3.074-1.323,4.708-5.057,4.708a30.868,30.868,0,0,1-3.659-.158,1.116,1.116,0,0,1-.972-1.127,1.177,1.177,0,0,1,1.168-1.208,1.645,1.645,0,0,0,.193.04,22.345,22.345,0,0,0,3.036.155c2.1,0,2.762-.777,3.033-2.724.353-2.916.74-11.4.781-20.034h-7c-1.441,17.623-7.938,24.9-7.938,24.9a1.085,1.085,0,0,1-.818.39,1.2,1.2,0,0,1-1.168-1.166,1.226,1.226,0,0,1,.313-.74,24.425,24.425,0,0,0,2.916-4.824,3.347,3.347,0,0,1-.545.312S84.6,32.1,77.64,33.658a.9.9,0,0,1-.31.037,1.119,1.119,0,0,1-1.091-1.128,1.088,1.088,0,0,1,.9-1.048c.582-.12,1.283-.272,1.866-.39V2.883a1.021,1.021,0,0,1,1.166-1.13h10.74a.994.994,0,0,1,1.128,1.13V27.2l1.595-.543a1.555,1.555,0,0,1,.43-.04,1.128,1.128,0,0,1,1.087,1.166.149.149,0,0,1-.037.118A57.514,57.514,0,0,0,99.271,9.886H94.915a1.149,1.149,0,1,1,0-2.3h4.512c.155-2.8.155-6.223.155-6.223A1.113,1.113,0,0,1,100.75.236a1.04,1.04,0,0,1,1.09,1.09v.506s0,2.919-.155,5.757H109.7a1.033,1.033,0,0,1,1.168,1.168c0,9.182-.43,18.326-.818,21.477M89.857,3.971H81.221V10.2h8.636Zm0,8.406H81.221v6.807h8.636Zm0,9.024H81.221v9.1c3.034-.818,6.3-1.868,8.636-2.566Z" transform="translate(36.326 0.112)" fill="#1a1311"/>
        <path id="路径_5098" data-name="路径 5098" d="M106.771,19.943c0,3.7.157,7.313.273,10.424v.08a1.134,1.134,0,0,1-1.208,1.168,1.1,1.1,0,0,1-1.168-1.09c-.154-3.192-.232-6.848-.232-10.662a156.443,156.443,0,0,1,.855-17.428,1.1,1.1,0,0,1,1.13-1.011,1.262,1.262,0,0,1,1.246,1.09v.078a143.838,143.838,0,0,0-.9,17.352m29.413-8.637h-6.228c.038,2.411.117,4.942.117,7.04,0,9.224-4.044,14.865-14.041,16.771a1.026,1.026,0,0,1-.312.037,1.1,1.1,0,0,1-1.091-1.245,1.084,1.084,0,0,1,.973-1.127c8.636-1.519,12.1-6.5,12.1-14.474,0-2.061-.077-4.514-.117-7H113.229a1.122,1.122,0,0,1-1.166-1.166,1.133,1.133,0,0,1,1.166-1.208h14.314c-.115-3.889-.19-4.9-.19-7.118a1.159,1.159,0,0,1,1.2-1.206,1.088,1.088,0,0,1,1.166,1.127c.04,2.606.077,3.269.155,7.2h6.3a1.132,1.132,0,0,1,1.163,1.208,1.121,1.121,0,0,1-1.163,1.166" transform="translate(49.762 0.289)" fill="#1a1311"/>
        <path id="路径_5099" data-name="路径 5099" d="M163.571,30.711a1.079,1.079,0,0,1-.7-.273,49.911,49.911,0,0,1-6.846-7.858c.078.818.12,1.634.12,2.452a31.926,31.926,0,0,1-.469,5.367c-.508,2.762-1.438,4.357-4.549,4.357a15.908,15.908,0,0,1-2.529-.233,1.142,1.142,0,0,1,.157-2.255c.077,0,.149.035.232.035a11.136,11.136,0,0,0,1.788.2c1.791,0,2.376-.777,2.681-2.489a30.15,30.15,0,0,0,.47-5.253c0-.583,0-1.165-.041-1.708a61.618,61.618,0,0,1-12.175,9.762,1.08,1.08,0,0,1-.583.155,1.146,1.146,0,0,1-1.087-1.127,1.042,1.042,0,0,1,.545-.9s8.476-5.057,12.872-10.855a20.948,20.948,0,0,0-1.047-3.657,40.615,40.615,0,0,1-8.987,6.808,1.358,1.358,0,0,1-.543.118,1.113,1.113,0,0,1-1.051-.895,5.3,5.3,0,0,1-5.68,5.253c-.273,0-.5-.041-.778-.041a1.1,1.1,0,0,1-1.048-1.127,1.05,1.05,0,0,1,1.048-1.09h.154a3.413,3.413,0,0,0,.625.038c2.336,0,3.422-1.633,3.422-3.811a10.971,10.971,0,0,0-4.2-8.017,1.143,1.143,0,0,1-.428-.856,1.272,1.272,0,0,1,.157-.582,58.923,58.923,0,0,0,3.7-8.676h-5.763V34.408a1.069,1.069,0,0,1-1.127,1.09,1.041,1.041,0,0,1-1.09-1.09V2.426a.984.984,0,0,1,1.09-1.088h8.4c.738,0,1.166.35,1.166.935a1.316,1.316,0,0,1-.12.5A63.34,63.34,0,0,1,137.43,12.5a13.186,13.186,0,0,1,4.4,9.182v.195a1.445,1.445,0,0,1,.545-.546s6.341-3.5,9.337-7.316a13.629,13.629,0,0,0-1.595-2.488,56.756,56.756,0,0,1-7.7,5.058,1.555,1.555,0,0,1-.545.117,1.152,1.152,0,0,1-1.085-1.168,1.015,1.015,0,0,1,.617-.933,38.069,38.069,0,0,0,8.287-5.72H142.1a1.1,1.1,0,0,1-1.131-1.13A1.073,1.073,0,0,1,142.1,6.668H147.5c-1.317-2.646-2.724-4.824-2.724-4.824a1.123,1.123,0,0,1-.149-.583A1.185,1.185,0,0,1,145.794.133a1.01,1.01,0,0,1,.9.582s1.283,2.139,2.643,4.748a1.085,1.085,0,0,1,.155.465.946.946,0,0,1-.462.74h5.717c.236-.5,1.711-3.189,2.956-5.835a1.028,1.028,0,0,1,.935-.622,1.085,1.085,0,0,1,1.127,1.05,1.254,1.254,0,0,1-.077.5c-.853,1.866-1.828,3.734-2.488,4.9H163.3a1.042,1.042,0,0,1,1.091,1.088,1.072,1.072,0,0,1-1.091,1.13h-10.62a4.779,4.779,0,0,0-.938,1.166c1.44,1.751,2.417,4.632,3.194,6.807a69.106,69.106,0,0,0,4.977-4.9,1.024,1.024,0,0,1,.818-.427,1.181,1.181,0,0,1,1.128,1.128,1.151,1.151,0,0,1-.273.738,52.981,52.981,0,0,1-5.639,5.485,43.146,43.146,0,0,0,8.363,9.884,1.009,1.009,0,0,1,.43.816,1.191,1.191,0,0,1-1.171,1.128" transform="translate(62.331 0.063)" fill="#1a1311"/>
        <path id="路径_5100" data-name="路径 5100" d="M160.43,35.273a2.277,2.277,0,0,1-2.858-1.36,2.258,2.258,0,1,1,4.243-1.546,2.407,2.407,0,0,1-1.385,2.906m4.605-33.2-3.276,24.14a1.142,1.142,0,0,1-.738.933A1.2,1.2,0,0,1,159.5,26.5a1.056,1.056,0,0,1-.04-.567l2.322-24.248A1.651,1.651,0,0,1,162.854.3,1.635,1.635,0,0,1,163.6.191a1.7,1.7,0,0,1,1.345,1.079,1.392,1.392,0,0,1,.087.8" transform="translate(75.014 0.087)" fill="#1a1311"/>
        <path id="路径_5101" data-name="路径 5101" d="M46.061,37.161a.33.33,0,0,1-.34-.341V31.362L43,35.757a.356.356,0,0,1-.288.192.348.348,0,0,1-.288-.192l-2.711-4.387v5.45a.341.341,0,1,1-.682,0V30.178a.334.334,0,0,1,.314-.374.37.37,0,0,1,.314.2l3.052,4.934L45.773,30a.371.371,0,0,1,.314-.2.333.333,0,0,1,.313.374v6.65a.329.329,0,0,1-.34.334" transform="translate(18.597 14.201)" fill="#1a1311"/>
        <path id="路径_5102" data-name="路径 5102" d="M51.091,37.165a.332.332,0,0,1-.3-.2l-.994-2.19H46.384l-.985,2.19a.324.324,0,0,1-.3.2.348.348,0,0,1-.357-.341.285.285,0,0,1,.035-.139l3.009-6.644a.342.342,0,0,1,.3-.244.347.347,0,0,1,.306.244l3.016,6.644a.278.278,0,0,1,.034.146.348.348,0,0,1-.357.334m-3-6.157L46.7,34.094h2.8Z" transform="translate(21.32 14.197)" fill="#1a1311"/>
        <path id="路径_5103" data-name="路径 5103" d="M55.33,36.14A3.122,3.122,0,0,1,52.863,37.2c-2.187,0-3.331-1.646-3.331-3.671s1.144-3.687,3.331-3.687a3.139,3.139,0,0,1,2.379.967.344.344,0,0,1,.1.226.351.351,0,0,1-.34.34.343.343,0,0,1-.244-.1,2.528,2.528,0,0,0-1.893-.75c-1.76,0-2.659,1.344-2.659,3.008s.9,2.991,2.659,2.991a2.53,2.53,0,0,0,1.971-.83.323.323,0,0,1,.244-.111.353.353,0,0,1,.341.341.317.317,0,0,1-.089.217" transform="translate(23.601 14.22)" fill="#1a1311"/>
        <path id="路径_5104" data-name="路径 5104" d="M60.088,37.154a.329.329,0,0,1-.338-.341V33.569h-4.6v3.244a.34.34,0,1,1-.679,0v-6.65a.34.34,0,1,1,.679,0v2.72h4.6v-2.72a.34.34,0,1,1,.679,0V36.82a.329.329,0,0,1-.341.334" transform="translate(25.956 14.208)" fill="#1a1311"/>
        <path id="路径_5105" data-name="路径 5105" d="M60.286,37.154a.337.337,0,0,1-.348-.341v-6.65a.337.337,0,0,1,.348-.343.332.332,0,0,1,.348.343V36.82a.331.331,0,0,1-.348.334" transform="translate(28.559 14.208)" fill="#1a1311"/>
        <path id="路径_5106" data-name="路径 5106" d="M72.025,30.243l-1.8,6.652a.364.364,0,0,1-.331.3.351.351,0,0,1-.331-.285l-1.614-5.469L66.34,36.905a.353.353,0,0,1-.331.285.362.362,0,0,1-.332-.3l-1.8-6.652a.467.467,0,0,1-.015-.1.34.34,0,0,1,.348-.332.32.32,0,0,1,.322.254l1.491,5.658,1.6-5.464a.332.332,0,0,1,.661,0l1.6,5.464,1.482-5.658a.322.322,0,0,1,.323-.254.34.34,0,0,1,.347.332.4.4,0,0,1-.007.1" transform="translate(30.43 14.206)" fill="#1a1311"/>
        <path id="路径_5107" data-name="路径 5107" d="M73.173,37.179c-2.2,0-3.34-1.648-3.34-3.679s1.143-3.679,3.34-3.679,3.349,1.649,3.349,3.679-1.143,3.679-3.349,3.679m0-6.678c-1.761,0-2.661,1.333-2.661,3s.9,3.006,2.661,3.006,2.668-1.342,2.668-3.006-.9-3-2.668-3" transform="translate(33.274 14.208)" fill="#1a1311"/>
        <path id="路径_5108" data-name="路径 5108" d="M81.213,37.179c-2.2,0-3.34-1.648-3.34-3.679s1.144-3.679,3.34-3.679,3.349,1.649,3.349,3.679-1.143,3.679-3.349,3.679m0-6.678c-1.76,0-2.661,1.333-2.661,3s.9,3.006,2.661,3.006,2.669-1.342,2.669-3.006-.9-3-2.669-3" transform="translate(37.105 14.208)" fill="#1a1311"/>
        <path id="路径_5109" data-name="路径 5109" d="M88.509,30.59H86.058v6.181a.34.34,0,1,1-.679,0V30.59h-2.4a.341.341,0,0,1,0-.682h5.528a.341.341,0,0,1,0,.682" transform="translate(39.38 14.25)" fill="#1a1311"/>
        <path id="路径_5110" data-name="路径 5110" d="M92.872,37.165a.33.33,0,0,1-.3-.2l-.994-2.19H88.167l-.986,2.19a.32.32,0,0,1-.3.2.349.349,0,0,1-.359-.341.285.285,0,0,1,.035-.139l3.009-6.644a.313.313,0,0,1,.61,0L93.2,36.685a.292.292,0,0,1,.034.146.349.349,0,0,1-.359.334m-3-6.157L88.48,34.094h2.8Z" transform="translate(41.227 14.197)" fill="#1a1311"/>
        <path id="路径_5111" data-name="路径 5111" d="M94.967,37.158c-1.665,0-3.008-.409-3.356-1.872a.291.291,0,0,1-.01-.089.367.367,0,0,1,.377-.343.333.333,0,0,1,.34.273c.217,1.045,1.15,1.376,2.65,1.376,1.422,0,2.318-.462,2.318-1.5,0-.927-1.1-1.127-2.588-1.282s-2.912-.376-2.912-1.912c0-.749.47-1.987,2.956-1.987,2.328,0,2.814.951,2.929,1.463,0,.03.007.055.007.081a.392.392,0,0,1-.393.366.313.313,0,0,1-.313-.254c-.1-.45-.636-1-2.231-1-1.761,0-2.277.622-2.277,1.326,0,.855.759,1.029,1.422,1.134.681.106,1.376.149,2.066.264,1.056.18,2.014.546,2.014,1.847,0,1.507-1.42,2.1-3,2.1" transform="translate(43.646 14.211)" fill="#1a1311"/>
        <path id="路径_5112" data-name="路径 5112" d="M99.973,37.171a2.653,2.653,0,0,1-2.981-2.73V30.162a.34.34,0,1,1,.679,0v4.245a2.307,2.307,0,0,0,4.595,0V30.162a.341.341,0,1,1,.682,0v4.279a2.647,2.647,0,0,1-2.975,2.73" transform="translate(46.215 14.209)" fill="#1a1311"/>
        <path id="路径_5113" data-name="路径 5113" d="M107.7,37.177a.344.344,0,0,1-.255-.123l-3.294-3.722-1.02.9V36.81a.34.34,0,1,1-.679,0V30.167a.34.34,0,1,1,.679,0v3.166L107,29.923a.309.309,0,0,1,.21-.089.354.354,0,0,1,.34.35.324.324,0,0,1-.114.244l-2.773,2.451,3.3,3.721a.343.343,0,0,1,.086.238.351.351,0,0,1-.338.34" transform="translate(48.818 14.211)" fill="#1a1311"/>
        <path id="路径_5114" data-name="路径 5114" d="M111.763,36.979h-4.428a.306.306,0,0,1-.34-.334V30.254a.309.309,0,0,1,.34-.34h4.387a.342.342,0,0,1,0,.684h-4.048v2.238h3.873a.344.344,0,0,1,0,.688h-3.873v2.782h4.09a.337.337,0,1,1,0,.673" transform="translate(50.981 14.253)" fill="#1a1311"/>
        <path id="路径_5115" data-name="路径 5115" d="M119.584,30.59h-2.448v6.181a.341.341,0,1,1-.682,0V30.59h-2.395a.341.341,0,0,1,0-.682h5.525a.341.341,0,0,1,0,.682" transform="translate(54.187 14.25)" fill="#1a1311"/>
        <path id="路径_5116" data-name="路径 5116" d="M123.95,37.165a.326.326,0,0,1-.3-.2l-1-2.19h-3.415l-.986,2.19a.318.318,0,0,1-.3.2.349.349,0,0,1-.357-.341.268.268,0,0,1,.034-.139l3.011-6.644a.309.309,0,0,1,.6,0l3.021,6.644a.263.263,0,0,1,.032.146.346.346,0,0,1-.354.334m-3-6.157-1.4,3.086h2.8Z" transform="translate(56.035 14.197)" fill="#1a1311"/>
        <path id="路径_5117" data-name="路径 5117" d="M123.44,37.154a.335.335,0,0,1-.345-.341v-6.65a.347.347,0,0,1,.694,0V36.82a.331.331,0,0,1-.348.334" transform="translate(58.652 14.208)" fill="#1a1311"/>
      </g>
    </g>
  </g>
</svg>
