<svg id="ico_post01" xmlns="http://www.w3.org/2000/svg" width="18.686" height="14.534" viewBox="0 0 18.686 14.534">
  <path id="路径_4712" data-name="路径 4712" d="M196.113,224.828a2.289,2.289,0,1,0,2.269,2.289A2.278,2.278,0,0,0,196.113,224.828Z" transform="translate(-186.769 -218.699)"/>
  <path id="路径_4713" data-name="路径 4713" d="M17.474,59.768h-2.14a1.212,1.212,0,0,1-1.106-.722l-.64-1.435a1.213,1.213,0,0,0-1.106-.721H6.205a1.215,1.215,0,0,0-1.107.721l-.64,1.435a1.212,1.212,0,0,1-1.106.722H1.213A1.218,1.218,0,0,0,0,60.991V70.2a1.218,1.218,0,0,0,1.213,1.223H17.474A1.219,1.219,0,0,0,18.686,70.2V60.991A1.219,1.219,0,0,0,17.474,59.768Zm-8.13,9.785a4.245,4.245,0,1,1,4.208-4.244A4.226,4.226,0,0,1,9.343,69.553Z" transform="translate(0 -56.89)"/>
</svg>
