<svg xmlns="http://www.w3.org/2000/svg" width="16.269" height="16.269" viewBox="0 0 16.269 16.269">
  <g id="ico_post04" transform="translate(0.001 -0.003)">
    <path id="路径_51274" data-name="路径 51274" d="M206.981,3.6a4.44,4.44,0,0,0-7.5-2.294l-2.105,2.105a1.087,1.087,0,1,0,1.538,1.538l2.105-2.106a2.269,2.269,0,1,1,3.208,3.209l-2.105,2.1a1.087,1.087,0,0,0,1.537,1.538l2.105-2.106a4.438,4.438,0,0,0,1.22-3.988Z" transform="translate(-190.794 0)"/>
    <path id="路径_51275" data-name="路径 51275" d="M8.151,202.143l-2.106,2.106a2.266,2.266,0,0,1-2.038.623,2.258,2.258,0,0,1-1.17-.623,2.266,2.266,0,0,1-.5-.75,2.264,2.264,0,0,1,.5-2.459l2.106-2.105A1.087,1.087,0,0,0,3.405,197.4L1.3,199.5a4.443,4.443,0,1,0,6.283,6.283l2.105-2.106a1.087,1.087,0,0,0-1.537-1.537Z" transform="translate(0 -190.814)"/>
    <path id="路径_51276" data-name="路径 51276" d="M165.343,159.877a1.088,1.088,0,0,0-1.537,0l-3.957,3.956a1.087,1.087,0,1,0,1.538,1.537l3.956-3.956A1.085,1.085,0,0,0,165.343,159.877Z" transform="translate(-154.463 -154.486)"/>
  </g>
</svg>
