<svg xmlns="http://www.w3.org/2000/svg" width="164" height="34" viewBox="0 0 164 34">
  <g id="btn_person" transform="translate(-1347 -413)">
    <rect id="矩形_554" data-name="矩形 554" width="164" height="34" rx="4" transform="translate(1347 413)" fill="#eeeeef"/>
    <path id="路径_4078" data-name="路径 4078" d="M3.318-10.178a9.861,9.861,0,0,1-1.792-.1v1.82A11.114,11.114,0,0,1,3.29-8.54H9.954a9.7,9.7,0,0,1-4.242,6.1A11.391,11.391,0,0,1,2.646-1.008,5.152,5.152,0,0,1,3.878.658,14.913,14.913,0,0,0,6.538-.728a12.21,12.21,0,0,0,3.486-3.388,14.417,14.417,0,0,0,1.89-4.522.926.926,0,0,0,.154.014,1.545,1.545,0,0,0,1.526-1.554,1.536,1.536,0,0,0-1.54-1.54,1.539,1.539,0,0,0-1.54,1.512,7.609,7.609,0,0,1-.77.028Zm8.736-.8a.789.789,0,0,1,.8.8.807.807,0,0,1-.8.8.807.807,0,0,1-.8-.8A.807.807,0,0,1,12.054-10.976ZM24.374-.812V.154H26.18a9.6,9.6,0,0,1-.056-1.218V-9.072c0-.518.014-.8.042-1.162-.322.028-.574.042-1.176.042H17.038c-.56,0-.854-.014-1.19-.042A9.3,9.3,0,0,1,15.9-9.058v8.022a9.355,9.355,0,0,1-.056,1.2h1.806v-.98Zm0-1.6h-6.72v-6.2h6.72Zm15.078-7.938a5.117,5.117,0,0,1-1.5.14H31.528a9.861,9.861,0,0,1-1.792-.1v1.82A11.114,11.114,0,0,1,31.5-8.568h6.664a9.7,9.7,0,0,1-4.242,6.1,11.391,11.391,0,0,1-3.066,1.428A5.152,5.152,0,0,1,32.088.63,13.631,13.631,0,0,0,37.3-2.94a13.16,13.16,0,0,0,2.87-5.866,2.105,2.105,0,0,1,.238-.63Zm12.1,1.3a5.251,5.251,0,0,1-.854,1.008,15.971,15.971,0,0,1-3.976,2.842A14.932,14.932,0,0,1,43.4-3.934a5.728,5.728,0,0,1,.868,1.456A19.751,19.751,0,0,0,48.23-4.256V-.5a8.394,8.394,0,0,1-.07,1.33L49.966.84A8.269,8.269,0,0,1,49.9-.5v-4.76a18.735,18.735,0,0,0,2.6-2.3,2.73,2.73,0,0,1,.476-.462ZM56.574-4.4a15.369,15.369,0,0,1,2.282-.07H66.29a15.369,15.369,0,0,1,2.282.07V-6.342a13.749,13.749,0,0,1-2.268.1H58.842a13.749,13.749,0,0,1-2.268-.1Zm15.848-6.552a7.037,7.037,0,0,1,.056,1.274c0,3.92-.322,5.726-1.33,7.336a5.752,5.752,0,0,1-1.442,1.61A4.983,4.983,0,0,1,71.12.63a8.915,8.915,0,0,0,1.932-2.59,13.109,13.109,0,0,0,1.134-5.754,29.257,29.257,0,0,1,.14-3.136Zm3.71-.1a6.059,6.059,0,0,1,.056.924v.42l-.07,7.9a6.274,6.274,0,0,1-.126,1.484l.9.952a6.093,6.093,0,0,1,.6-.252A9.246,9.246,0,0,0,80.472-1.3,8.688,8.688,0,0,0,82.7-4.564,5.868,5.868,0,0,1,81.382-5.88,6.841,6.841,0,0,1,80.01-3.318a5.628,5.628,0,0,1-2.142,1.6l.07-7.966a7.586,7.586,0,0,1,.1-1.33ZM84.7-8.47a1.547,1.547,0,0,1,.224-.014c.126,0,.126,0,.392.014.308,0,1.54.028,1.764.028,0,0,.182-.014.238-.014a.685.685,0,0,0-.112.182,18.542,18.542,0,0,1-1.68,2.394,8.576,8.576,0,0,1-1.26,1.246l1.274,1.26a6.3,6.3,0,0,1,1.218-1.274,4.733,4.733,0,0,1,2.87-1.442.768.768,0,0,1,.854.756,6.849,6.849,0,0,0-3.01,1.974,2.231,2.231,0,0,0-.616,1.554A2.03,2.03,0,0,0,87.878,0,6.013,6.013,0,0,0,91,.588,25.393,25.393,0,0,0,94.584.336,4.125,4.125,0,0,1,95.228.28l-.14-1.806a12.164,12.164,0,0,1-4.116.588c-1.694,0-2.366-.294-2.366-1.022a1.474,1.474,0,0,1,.728-1.148,8.508,8.508,0,0,1,1.344-.728V-3.5a11.083,11.083,0,0,1-.084,1.624l1.624-.042a5.748,5.748,0,0,1-.042-.742c0-.1,0-.224.014-.462v-.56c0-.2,0-.2-.014-.56V-4.4q1.806-.63,2.1-.714a12.358,12.358,0,0,1,1.554-.378L95.172-7.1a4.374,4.374,0,0,1-1.036.42q-.525.168-2.142.756a1.842,1.842,0,0,0-2-1.484,3.384,3.384,0,0,0-1.974.63c-.182.14-.182.14-.28.21l-.014-.028a7.245,7.245,0,0,0,1.288-1.862c1.414-.042,3.192-.154,4.214-.28.714-.084.714-.084,1.106-.112l-.1-1.6a18.913,18.913,0,0,1-3.668.476c-.77.042-.77.042-.882.056.028-.056.056-.1.126-.252a10.7,10.7,0,0,1,.56-1.26l-1.834-.2a5.545,5.545,0,0,1-.56,1.736,16.918,16.918,0,0,1-3.248-.182Zm18.172,3.892a15.1,15.1,0,0,1-.378,2.492,11.734,11.734,0,0,0-.322-1.9l-.952.2a14,14,0,0,1,.364,2.688l.672-.182a7.4,7.4,0,0,1-.6,1.246,3.633,3.633,0,0,1,1.12,1.092,12.929,12.929,0,0,0,1.176-4.718v3.6c0,.546-.014.84-.042,1.232h1.246c-.028-.308-.042-.686-.042-1.218V-1.792h.63v1.3c0,.742-.014,1.008-.042,1.358h1.134c-.028-.336-.042-.56-.042-1.358v-1.3h.658v1.3c0,.742-.014,1.008-.042,1.358h1.134C108.514.546,108.5.28,108.5-.49v-1.3h.658V-.5c0,.238-.042.28-.308.28a.863.863,0,0,1-.28-.028,2.915,2.915,0,0,1,.252,1.26.929.929,0,0,0,.182.014c1.022,0,1.344-.294,1.344-1.218V-4.172c0-.728.014-1.022.042-1.4a10.168,10.168,0,0,1-1.33.056h-3.85c-.462,0-.644,0-.91-.014.014-.364.028-.588.028-.658h4.62c.434,0,.966.014,1.148.042-.028-.308-.042-.616-.042-1.19v-.9c0-.56.014-.854.042-1.176-.294.028-.616.042-1.288.042h-4.592c-.658,0-.938-.014-1.288-.042a10.168,10.168,0,0,1,.056,1.33c0,1.134-.028,2-.084,3.01a13.344,13.344,0,0,0-.812-2.366l-.966.364a9.982,9.982,0,0,1,.406,1.078c-.5.056-.77.07-1.456.112.588-.742,1.652-2.3,2.086-3.024.28-.462.35-.574.462-.728L101.3-10.3a13.2,13.2,0,0,1-1.288,2.394c-.168-.238-.21-.308-.462-.63a21.582,21.582,0,0,0,1.274-2.254,4.488,4.488,0,0,1,.294-.518l-1.358-.546a8.8,8.8,0,0,1-1.022,2.31c-.14-.154-.28-.322-.42-.476l-.672,1.19a16.734,16.734,0,0,1,1.61,2.058l-.42.588c-.056.084-.056.084-.238.35h-.294a4.853,4.853,0,0,1-.658-.028l.126,1.428a5.608,5.608,0,0,1,.924-.1c.252-.014.476-.042.994-.084V-.532a10.425,10.425,0,0,1-.084,1.708h1.4a9.92,9.92,0,0,1-.084-1.708V-4.718c.378-.042.378-.042.938-.1.056.224.07.308.126.588Zm2.87,1.554h-.63V-4.256h.63Zm1.05,0V-4.256h.658v1.232Zm1.708,0V-4.256h.658v1.232Zm-4.13-5.138h4.3v.77h-4.3v-.77ZM98.126-3.948a15.038,15.038,0,0,1-.532,3.822l1.19.574a18.5,18.5,0,0,0,.518-4.2Zm4.34-5.964a7.365,7.365,0,0,1,1.12-.056h5.558a8.448,8.448,0,0,1,1.372.07v-1.456A10.118,10.118,0,0,1,109-11.27h-5.026a10.379,10.379,0,0,1-1.512-.084Zm16.8,3.92h2.688a9.9,9.9,0,0,1,1.33.056V-7.084a8.287,8.287,0,0,1-1.33.07h-2.688v-.672h2.688a8.145,8.145,0,0,1,1.33.056V-8.778a8.287,8.287,0,0,1-1.33.07h-2.688V-9.38h3.4a8.786,8.786,0,0,1,1.162.056v-1.3a8.992,8.992,0,0,1-1.372.07h-3.01a13.785,13.785,0,0,0,.728-1.218l-1.582-.2a5.665,5.665,0,0,1-.728,1.414H115.36a12.982,12.982,0,0,0,.77-1.176L114.506-12a4.541,4.541,0,0,1-.448.91,8.906,8.906,0,0,1-2.562,2.7,5.509,5.509,0,0,1,.728,1.372,7.726,7.726,0,0,0,1.288-1.218c-.028.392-.042.77-.042,1.218v1.736a8.5,8.5,0,0,1-.056,1.12c.336-.028.644-.042,1.19-.042h2.772v.742h-3.934a10.328,10.328,0,0,1-1.582-.07v1.414a9.925,9.925,0,0,1,1.582-.084h2.7a6.243,6.243,0,0,1-1.512.9,11.052,11.052,0,0,1-3.024.9,6.457,6.457,0,0,1,.784,1.4,12.937,12.937,0,0,0,2.492-.868,8.042,8.042,0,0,0,2.534-1.708c-.028.336-.042.6-.042.924V.168a3.976,3.976,0,0,1-.084.994h1.666a3.715,3.715,0,0,1-.084-1.008V-.658c0-.154-.014-.518-.042-.924A8.343,8.343,0,0,0,121.1-.014a13.909,13.909,0,0,0,2.8,1.022c.056-.112.1-.21.126-.266.084-.2.14-.322.154-.35a4.4,4.4,0,0,1,.518-.826A11.879,11.879,0,0,1,120.064-2.2h2.786a10.117,10.117,0,0,1,1.6.084V-3.528a10.546,10.546,0,0,1-1.6.07h-3.976V-4.2h3.7a8.483,8.483,0,0,1,1.344.07V-5.348a11.249,11.249,0,0,1-1.358.056h-3.29Zm-1.456,0v.7h-2.884v-.7Zm0-1.022h-2.884v-.672h2.884Zm0-1.694h-2.884V-9.38h2.884Z" transform="translate(1376 435)"/>
    <g id="定番ペンのフリーアイコン素材" transform="translate(1356.974 422.52)">
      <path id="路径_1881" data-name="路径 1881" d="M4.537,53.558l.05-.05,5.335-5.335.055-.055.055-.055,2.827-2.827a0,0,0,0,0,0,0L9.7,42.079h0L6.876,44.906l-.055.055-.055.055L1.381,50.4h0L0,54.937a0,0,0,0,0,0,0l4.468-1.36Zm-3.531.373L1.7,51.666h0l1.575,1.575a0,0,0,0,1,0,0l-2.265.689A0,0,0,0,1,1.006,53.931Z" transform="translate(0 -40.459)"/>
      <path id="路径_1882" data-name="路径 1882" d="M387.412,3.328a.9.9,0,0,0,0-1.275L386.1.743a.9.9,0,0,0-1.276,0l-.654.654a0,0,0,0,0,0,0l2.583,2.583h0Z" transform="translate(-373.649 0)"/>
    </g>
  </g>
</svg>
