<svg xmlns="http://www.w3.org/2000/svg" width="75.621" height="101.357" viewBox="0 0 75.621 101.357">
  <g id="edit_blog" transform="translate(-1082.352 -1767.3)">
    <path id="路径_51281" data-name="路径 51281" d="M9.867-10.959,8.8-10.517c.247.377.507.832.728,1.261a5.454,5.454,0,0,1-.611.026H2.9a14.475,14.475,0,0,1-1.547-.1V-7.5c.338-.026.949-.052,1.547-.052H8.944A8.169,8.169,0,0,1,7.423-3.887a8.522,8.522,0,0,1-5.1,3.055L3.744.728a10.384,10.384,0,0,0,5.226-3.6,13.407,13.407,0,0,0,1.963-4.732,4.244,4.244,0,0,1,.286-.9l-.832-.546.481-.195A17.145,17.145,0,0,0,9.867-10.959Zm1.82-.325-1.079.429A16.844,16.844,0,0,1,11.648-9.1l1.079-.468C12.48-10.023,12.012-10.816,11.687-11.284Zm2.951,2.067c.026.364.026.9.026,1.261V-1.6c0,.624-.039,1.755-.039,1.82h1.794c0-.039,0-.338-.013-.7h6.266c0,.377-.013.676-.013.7h1.794c0-.052-.026-1.3-.026-1.807v-6.37c0-.39,0-.871.026-1.261-.468.026-.962.026-1.287.026h-7.15C15.665-9.191,15.171-9.2,14.638-9.217ZM16.406-7.54h6.279v5.4H16.406Zm19.721-3.107-1.027.416a15.075,15.075,0,0,1,.949,1.677l-.091-.052a4.1,4.1,0,0,1-1.131.156h-2.6c.013-.026.026-.039.039-.065a13.487,13.487,0,0,1,.793-1.326l-1.911-.624a5.882,5.882,0,0,1-.585,1.352,11.243,11.243,0,0,1-4.056,4.186l1.456,1.092a14.607,14.607,0,0,0,3.289-3.146H34.9a9.2,9.2,0,0,1-1.846,3.536A10.4,10.4,0,0,1,27.82-.221l1.534,1.378a12.108,12.108,0,0,0,5.239-3.679,13.2,13.2,0,0,0,2.275-4.329,5.2,5.2,0,0,1,.429-.936l-1.1-.676.962-.4A16.525,16.525,0,0,0,36.127-10.647Zm1.534-.585-1.027.416a13.782,13.782,0,0,1,1.053,1.794l1.027-.442A18.561,18.561,0,0,0,37.661-11.232Zm7.657.806L43.6-10.569a7.227,7.227,0,0,1-.26,1.495h-.624A16.915,16.915,0,0,1,40.43-9.23v1.521c.715.052,1.664.078,2.2.078H42.8a12.758,12.758,0,0,1-2.873,3.588L41.314-3a14.968,14.968,0,0,1,1.209-1.43,3.167,3.167,0,0,1,2.028-.9,1,1,0,0,1,.91.442c-1.482.767-3.042,1.807-3.042,3.471S43.927.754,45.968.754A32.52,32.52,0,0,0,49.647.533L49.7-1.144a21.267,21.267,0,0,1-3.692.364c-1.274,0-1.885-.195-1.885-.91,0-.65.52-1.157,1.495-1.716-.013.572-.026,1.2-.065,1.586h1.56c-.013-.6-.039-1.56-.052-2.288.793-.364,1.534-.65,2.119-.884.442-.169,1.131-.429,1.547-.546l-.65-1.508c-.481.247-.936.455-1.443.676-.533.234-1.079.455-1.755.767a1.76,1.76,0,0,0-1.729-1,4.4,4.4,0,0,0-1.469.26,9.077,9.077,0,0,0,.741-1.326,38.726,38.726,0,0,0,4.238-.325L48.672-9.5a32.912,32.912,0,0,1-3.679.377A12.437,12.437,0,0,0,45.318-10.426Zm16.406,1.95v1.131H58.305V-8.476Zm.481,4.537v1.313h-3.9V-3.939ZM56.8-1.352h6.929V-5.226H58.305v-.858h4.914V-9.737H60.593c.156-.325.325-.7.481-1.079l-1.833-.208c-.065.364-.182.858-.3,1.287H56.8Zm-.858-7.4a10.41,10.41,0,0,0-2.171-1.963l-1.144.936a9.838,9.838,0,0,1,2.093,2.054Zm-.325,2.782h-3V-4.55h1.495v2.743a17.073,17.073,0,0,1-1.781,1.2L53.079,1c.715-.546,1.287-1.053,1.859-1.56A4.325,4.325,0,0,0,58.448.884c1.547.065,4.16.039,5.72-.039a8.1,8.1,0,0,1,.481-1.56c-1.729.13-4.654.169-6.175.1a3.2,3.2,0,0,1-2.86-1.274ZM68.731-8.684c.013-.7.013-1.417.013-2.145H67.223c0,.741,0,1.456-.013,2.145H65.689v1.508H67.2C67.106-4.134,66.755-1.651,65.3,0A4.073,4.073,0,0,1,66.43,1.131c1.677-1.924,2.132-4.836,2.262-8.307H70c-.078,4.342-.182,5.954-.429,6.305a.471.471,0,0,1-.442.234c-.247,0-.715-.013-1.235-.052A3.728,3.728,0,0,1,68.341.858,7.326,7.326,0,0,0,69.914.806a1.384,1.384,0,0,0,1-.663c.4-.6.494-2.587.611-8.125.013-.195.013-.7.013-.7Zm5.018,7.15V-8.047h1.677v6.513Zm-1.5-8V.858h1.5v-.9h1.677V.767h1.547v-10.3Z" transform="translate(1081 1867.5)" fill="#158acc"/>
    <g id="组_3367" data-name="组 3367" transform="translate(312.957 1436)">
      <g id="矩形_886" data-name="矩形 886" transform="translate(775.043 331.3)" fill="#fff" stroke="#158acc" stroke-width="1">
        <rect width="63.7" height="63.7" rx="31.85" stroke="none"/>
        <rect x="0.5" y="0.5" width="62.7" height="62.7" rx="31.35" fill="none"/>
      </g>
      <path id="路径_3919" data-name="路径 3919" d="M4.843,6.063h10.68V1.689H4.843V-8.7H.432V1.689h-10.68V6.063H.432V16.779H4.843Z" transform="translate(804.256 359.11)" fill="#158acc"/>
    </g>
  </g>
</svg>
