<svg id="ico_line" xmlns="http://www.w3.org/2000/svg" width="30.867" height="30.867" viewBox="0 0 30.867 30.867">
  <circle id="椭圆_279" data-name="椭圆 279" cx="15.434" cy="15.434" r="15.434" fill="#1ec755"/>
  <g id="组_3294" data-name="组 3294" transform="translate(7.349 8.084)">
    <g id="组_3293" data-name="组 3293" transform="translate(0 0)">
      <path id="路径_5174" data-name="路径 5174" d="M69.109,64.769c0-3.542-3.55-6.423-7.915-6.423s-7.915,2.881-7.915,6.423c0,3.175,2.816,5.834,6.619,6.337.258.056.609.17.7.39a1.626,1.626,0,0,1,.026.716s-.093.558-.113.678c-.034.2-.159.783.686.427a25.556,25.556,0,0,0,6.219-4.6h0a5.715,5.715,0,0,0,1.7-3.952" transform="translate(-53.279 -58.346)" fill="#fff"/>
      <path id="路径_5175" data-name="路径 5175" d="M201.527,125.612H199.3a.151.151,0,0,1-.151-.151v0h0v-3.448h0v0a.151.151,0,0,1,.151-.151h2.224a.152.152,0,0,1,.151.151v.561a.151.151,0,0,1-.151.151h-1.511v.583h1.511a.152.152,0,0,1,.151.151v.561a.151.151,0,0,1-.151.151h-1.511v.583h1.511a.152.152,0,0,1,.151.151v.561a.151.151,0,0,1-.151.151" transform="translate(-188.33 -117.144)" fill="#06c755"/>
      <path id="路径_5176" data-name="路径 5176" d="M90.653,125.612a.151.151,0,0,0,.151-.151V124.9a.152.152,0,0,0-.151-.151H89.142v-2.742a.151.151,0,0,0-.151-.151h-.561a.151.151,0,0,0-.151.151v3.452h0v0a.151.151,0,0,0,.151.151h2.224Z" transform="translate(-85.682 -117.144)" fill="#06c755"/>
      <path id="路径_5177" data-name="路径 5177" d="M129.442,121.855h-.561a.151.151,0,0,0-.151.151v3.454a.151.151,0,0,0,.151.151h.561a.151.151,0,0,0,.151-.151v-3.454a.151.151,0,0,0-.151-.151" transform="translate(-123.133 -117.143)" fill="#06c755"/>
      <path id="路径_5178" data-name="路径 5178" d="M150.776,121.855h-.561a.151.151,0,0,0-.151.151v2.052l-1.58-2.134-.012-.016h0l-.009-.009,0,0-.008-.007,0,0-.008-.006,0,0-.008,0,0,0-.009,0,0,0-.009,0h-.005l-.009,0H147.8a.151.151,0,0,0-.151.151v3.454a.151.151,0,0,0,.151.151h.561a.151.151,0,0,0,.151-.151v-2.051l1.582,2.137a.154.154,0,0,0,.039.038h0l.009.006,0,0,.007,0,.007,0,0,0,.01,0h0a.153.153,0,0,0,.039.005h.558a.151.151,0,0,0,.151-.151v-3.454a.151.151,0,0,0-.151-.151" transform="translate(-140.645 -117.143)" fill="#06c755"/>
    </g>
  </g>
</svg>
