<svg id="ico_twitter" xmlns="http://www.w3.org/2000/svg" width="30.867" height="30.867" viewBox="0 0 30.867 30.867">
  <circle id="椭圆_280" data-name="椭圆 280" cx="15.434" cy="15.434" r="15.434" fill="#20bffd"/>
  <g id="组_3295" data-name="组 3295" transform="translate(7.837 9.452)">
    <g id="组_3300" data-name="组 3300" transform="translate(0)">
      <path id="路径_5181" data-name="路径 5181" d="M709.41,325.462a6.246,6.246,0,0,1-1.79.49,3.126,3.126,0,0,0,1.37-1.725,6.222,6.222,0,0,1-1.979.756,3.119,3.119,0,0,0-5.392,2.133,3.17,3.17,0,0,0,.081.71,8.85,8.85,0,0,1-6.425-3.257,3.121,3.121,0,0,0,.965,4.162,3.11,3.11,0,0,1-1.412-.39c0,.013,0,.026,0,.039a3.12,3.12,0,0,0,2.5,3.057,3.149,3.149,0,0,1-.821.109,3.1,3.1,0,0,1-.587-.055,3.12,3.12,0,0,0,2.912,2.164,6.293,6.293,0,0,1-4.615,1.291,8.865,8.865,0,0,0,13.647-7.468c0-.135,0-.27-.009-.4a6.338,6.338,0,0,0,1.556-1.613" transform="translate(-694.217 -324)" fill="#fff"/>
    </g>
  </g>
</svg>
