<svg xmlns="http://www.w3.org/2000/svg" width="153" height="34" viewBox="0 0 153 34">
  <g id="icon_cover" transform="translate(-1317 -266)">
    <g id="组_2149" data-name="组 2149" transform="translate(-15 1)">
      <rect id="矩形_554" data-name="矩形 554" width="153" height="34" rx="4" transform="translate(1332 265)" fill="#fff"/>
      <path id="路径_4078" data-name="路径 4078" d="M11.564-8.974a2.825,2.825,0,0,1-1.106.126L7.35-8.834c.042-.448.042-.574.056-.882.028-.728.028-.728.056-1.022,0-.1.014-.182.014-.266a4.073,4.073,0,0,1,.056-.434L5.656-11.48a2.718,2.718,0,0,1,.042.546v.35c0,.406-.028,1.218-.07,1.75l-2.45.014a8.031,8.031,0,0,1-1.554-.112L1.638-7.21A9.942,9.942,0,0,1,3.15-7.28l2.324-.014c-.014.1-.042.238-.07.434A7.185,7.185,0,0,1,4.69-4.424,7.883,7.883,0,0,1,1.05-.9,5.519,5.519,0,0,1,2.31.588,10.267,10.267,0,0,0,6.09-3.29a10.249,10.249,0,0,0,1.12-4l3.262-.014a31.428,31.428,0,0,1-.308,4.48C9.94-1.61,9.73-1.3,9.128-1.3A7.259,7.259,0,0,1,7.28-1.624,4.231,4.231,0,0,1,7.6.168,10.677,10.677,0,0,0,9.338.322c1.68,0,2.17-.574,2.534-3,.14-.924.294-3.08.336-4.662a2.187,2.187,0,0,1,.154-.938Zm6.314-1.512v.2a10.273,10.273,0,0,1-.126,1.358,17.026,17.026,0,0,1-1.316,4.8,9.434,9.434,0,0,1-2,2.982,6.137,6.137,0,0,1,1.6,1.2A13.367,13.367,0,0,0,18.508-4.27a25.047,25.047,0,0,0,1.106-4.788,5.926,5.926,0,0,1,.182-1.078Zm4.158.336a6.977,6.977,0,0,1,.2,1.008,21.928,21.928,0,0,0,1.33,5.1A14.707,14.707,0,0,0,25.942.07a6.034,6.034,0,0,1,1.54-1.288A13.541,13.541,0,0,1,24.36-7.266a18.123,18.123,0,0,1-.588-3.22Zm2.17.28a8.5,8.5,0,0,1,1.036,2l1.05-.49a7.28,7.28,0,0,0-1.05-1.974Zm3.584.8a8.022,8.022,0,0,0-1.036-1.876l-.98.448a9.989,9.989,0,0,1,1.008,1.932ZM28.434-4.4a15.369,15.369,0,0,1,2.282-.07H38.15a15.369,15.369,0,0,1,2.282.07V-6.342a13.749,13.749,0,0,1-2.268.1H30.7a13.749,13.749,0,0,1-2.268-.1Zm18.4-4.088q.231-.9.252-.966l-1.6-.154A19.593,19.593,0,0,1,43.96-4.368l1.6.1.182-.532h5.04c-.056.658-.084.868-.126,1.218H43.778a11.669,11.669,0,0,1-1.61-.084v1.6a12.392,12.392,0,0,1,1.61-.084h6.636a4.2,4.2,0,0,1-.532,1.484c-.154.21-.378.28-.868.28a16.588,16.588,0,0,1-2.59-.266A6.646,6.646,0,0,1,46.858.868a21.666,21.666,0,0,0,2.324.126c1.89,0,2.352-.5,2.842-3.15h1.162a13.167,13.167,0,0,1,1.61.084v-1.6a11.531,11.531,0,0,1-1.61.084h-.952c.084-.742.126-1.12.154-1.666a7.613,7.613,0,0,1,.1-.868,10.956,10.956,0,0,1-1.358.056H46.172c.168-.546.2-.658.322-1.12h4.62a13.853,13.853,0,0,1,1.5.056V-8.554a9.4,9.4,0,0,1-1.5.07Zm-2.912.5V-9.814H52.99V-7.98h1.554A7.793,7.793,0,0,1,54.46-9.2v-.854a9.345,9.345,0,0,1,.056-1.162c-.378.028-.7.042-1.372.042H43.806c-.728,0-1.05-.014-1.414-.042a9.256,9.256,0,0,1,.056,1.19v.8a7.922,7.922,0,0,1-.084,1.246ZM58.03-10.836a13.581,13.581,0,0,1-1.722-.084v1.428a13.89,13.89,0,0,1,1.722-.084h3.6v.546H59.444c-.784,0-1.176-.014-1.666-.056.042.476.056.882.056,1.6v2.828c0,.672-.014,1.106-.056,1.568.462-.028.98-.042,1.652-.042h6.034c.714,0,1.176.014,1.666.042a14.66,14.66,0,0,1-.056-1.568V-7.49a15.263,15.263,0,0,1,.056-1.6c-.476.042-.882.056-1.666.056H63.2v-.546h3.64a14.885,14.885,0,0,1,1.75.084V-10.92a14.558,14.558,0,0,1-1.75.084H63.2a5.05,5.05,0,0,1,.084-.952H61.544a5.433,5.433,0,0,1,.084.952Zm1.288,2.968H65.59v.546H59.318Zm0,1.5H65.59v.56H59.318Zm0,1.512H65.59v.56H59.318ZM60.144-1.3a10.782,10.782,0,0,1-4,1.26,5.1,5.1,0,0,1,.882,1.33A12.461,12.461,0,0,0,61.39-.434L60.508-1.3h3.836l-.84.868a12.738,12.738,0,0,0,4.41,1.722,6.561,6.561,0,0,1,.966-1.33A10.361,10.361,0,0,1,64.792-1.3h2.464a12.519,12.519,0,0,1,1.526.084V-2.73a13.206,13.206,0,0,1-1.666.084H57.722a11.983,11.983,0,0,1-1.568-.084v1.512A13.083,13.083,0,0,1,57.722-1.3ZM70.98-8.47a1.547,1.547,0,0,1,.224-.014c.126,0,.126,0,.392.014.308,0,1.54.028,1.764.028,0,0,.182-.014.238-.014a.685.685,0,0,0-.112.182,18.542,18.542,0,0,1-1.68,2.394,8.576,8.576,0,0,1-1.26,1.246l1.274,1.26a6.3,6.3,0,0,1,1.218-1.274,4.733,4.733,0,0,1,2.87-1.442.768.768,0,0,1,.854.756,6.849,6.849,0,0,0-3.01,1.974,2.231,2.231,0,0,0-.616,1.554A2.03,2.03,0,0,0,74.158,0,6.013,6.013,0,0,0,77.28.588,25.393,25.393,0,0,0,80.864.336,4.125,4.125,0,0,1,81.508.28l-.14-1.806a12.164,12.164,0,0,1-4.116.588c-1.694,0-2.366-.294-2.366-1.022a1.474,1.474,0,0,1,.728-1.148,8.508,8.508,0,0,1,1.344-.728V-3.5a11.083,11.083,0,0,1-.084,1.624L78.5-1.918a5.748,5.748,0,0,1-.042-.742c0-.1,0-.224.014-.462v-.56c0-.2,0-.2-.014-.56V-4.4q1.806-.63,2.1-.714a12.358,12.358,0,0,1,1.554-.378L81.452-7.1a4.374,4.374,0,0,1-1.036.42q-.525.168-2.142.756a1.842,1.842,0,0,0-2-1.484,3.384,3.384,0,0,0-1.974.63c-.182.14-.182.14-.28.21L74-6.594a7.245,7.245,0,0,0,1.288-1.862c1.414-.042,3.192-.154,4.214-.28.714-.084.714-.084,1.106-.112l-.1-1.6a18.913,18.913,0,0,1-3.668.476c-.77.042-.77.042-.882.056.028-.056.056-.1.126-.252a10.7,10.7,0,0,1,.56-1.26l-1.834-.2a5.545,5.545,0,0,1-.56,1.736,16.918,16.918,0,0,1-3.248-.182Zm18.606-1.988a8.889,8.889,0,0,1-1.092-.056c.028.35.056.658.056.98V-2.45q0,.525-.042.966c.308-.028.616-.042,1.022-.042h5.656c.364,0,.644.014.952.042C96.11-1.792,96.1-2.1,96.1-2.45V-4.564a10.583,10.583,0,0,1,.042-1.064,8.136,8.136,0,0,1-.98.042H90.02V-6.594h4.732c.434,0,.658.014,1.008.028a7.158,7.158,0,0,1-.042-1.05V-9.534c0-.364.014-.672.042-.98a6.655,6.655,0,0,1-1.008.056h-2.3a13.367,13.367,0,0,0,.714-1.19l-1.624-.238a8.138,8.138,0,0,1-.742,1.428Zm.434,1.33h4.228v1.26H90.02Zm0,4.83h4.606V-2.87H90.02Zm-5.936-6.258a14.7,14.7,0,0,1,2.324,2.674L87.6-9.016A15.939,15.939,0,0,0,85.2-11.578ZM84.1-4.83a5.316,5.316,0,0,1,.966-.07h.784v2.926A8.72,8.72,0,0,1,83.8-.574l.672,1.6c.1-.084.308-.252.518-.42A13.454,13.454,0,0,0,86.576-.77a3.812,3.812,0,0,0,1.778,1.3A13.3,13.3,0,0,0,92.19.868c1.6,0,2.954-.014,4.522-.056a6.423,6.423,0,0,1,.42-1.6,53.9,53.9,0,0,1-5.81.224c-1.82,0-2.66-.126-3.248-.5a1.926,1.926,0,0,1-.77-.9V-4.886a14.106,14.106,0,0,1,.056-1.526,6.165,6.165,0,0,1-1.064.07H85.218a6.074,6.074,0,0,1-1.12-.07Zm17.668-4.536c.042-1.232.042-1.232.042-1.5a4.954,4.954,0,0,1,.084-.924h-1.68a7.327,7.327,0,0,1,.084,1.246c0,.742,0,.77-.014,1.176h-.63a10.29,10.29,0,0,1-1.54-.084v1.638A9.815,9.815,0,0,1,99.526-7.9h.7a17.536,17.536,0,0,1-.658,4.018A9,9,0,0,1,97.706-.392a6.26,6.26,0,0,1,1.148,1.428A11.645,11.645,0,0,0,101-3.248,21.222,21.222,0,0,0,101.71-7.9h1.344c-.028,2.044-.028,2.044-.084,3.276a19.5,19.5,0,0,1-.364,3.318c-.126.462-.252.56-.644.56A8.763,8.763,0,0,1,100.59-.91a4.8,4.8,0,0,1,.252,1.5,13.408,13.408,0,0,0,1.47.1c1.148,0,1.554-.364,1.806-1.6a36.641,36.641,0,0,0,.42-6.23,17.717,17.717,0,0,1,.07-2.282,15.345,15.345,0,0,1-1.568.056Zm5.166,9.072h2.058V.7h1.582a11.75,11.75,0,0,1-.084-1.554V-8.876a11.1,11.1,0,0,1,.07-1.47,8.072,8.072,0,0,1-1.26.07h-2.66a8.406,8.406,0,0,1-1.26-.07,11.1,11.1,0,0,1,.07,1.47V-.84a13.007,13.007,0,0,1-.084,1.61h1.568Zm0-8.582h2.058v7.182h-2.058Z" transform="translate(1364 287)"/>
      <g id="カメラアイコン9" transform="translate(1341.975 230.674)">
        <path id="路径_3916" data-name="路径 3916" d="M193.165,220.786a2.168,2.168,0,1,0,2.149,2.168A2.159,2.159,0,0,0,193.165,220.786Z" transform="translate(-184.699 -170.624)"/>
        <path id="路径_3917" data-name="路径 3917" d="M16.428,47.344a1.717,1.717,0,0,0-1.22-.51H13.343a.389.389,0,0,1-.355-.235l-.559-1.251a1.723,1.723,0,0,0-1.573-1.023H6.075A1.725,1.725,0,0,0,4.5,45.349L3.944,46.6a.389.389,0,0,1-.355.235H1.723A1.728,1.728,0,0,0,0,48.567v8.027a1.737,1.737,0,0,0,.5,1.223,1.718,1.718,0,0,0,1.221.509H15.209a1.714,1.714,0,0,0,1.22-.509,1.732,1.732,0,0,0,.5-1.223V48.567A1.731,1.731,0,0,0,16.428,47.344Zm-5.2,7.763a3.878,3.878,0,0,1-5.52,0,3.951,3.951,0,0,1,0-5.556,3.88,3.88,0,0,1,5.52,0,3.952,3.952,0,0,1,0,5.556Zm4.051-5.152H14.094V48.771h1.184Z" transform="translate(0 0)"/>
      </g>
    </g>
  </g>
</svg>
