<svg xmlns="http://www.w3.org/2000/svg" width="24.266" height="20.065" viewBox="0 0 24.266 20.065">
  <path id="icon_camera02" d="M23.545,48.652a2.46,2.46,0,0,0-1.748-.731H19.123a.557.557,0,0,1-.509-.336l-.8-1.793a2.469,2.469,0,0,0-2.254-1.466H8.707a2.472,2.472,0,0,0-2.255,1.466l-.8,1.793a.558.558,0,0,1-.509.336H2.47A2.476,2.476,0,0,0,0,50.4v11.5a2.489,2.489,0,0,0,.72,1.752,2.462,2.462,0,0,0,1.75.73H21.8a2.456,2.456,0,0,0,1.748-.73,2.482,2.482,0,0,0,.722-1.752V50.4A2.481,2.481,0,0,0,23.545,48.652ZM16.089,59.777a5.558,5.558,0,0,1-7.911,0,5.663,5.663,0,0,1,0-7.962,5.561,5.561,0,0,1,7.911,0,5.664,5.664,0,0,1,0,7.962ZM21.9,52.393H20.2V50.7h1.7Z" transform="translate(0 -44.326)" fill="#fff"/>
</svg>
