<svg xmlns="http://www.w3.org/2000/svg" width="12.023" height="12" viewBox="0 0 12.023 12">
  <g id="icon_edit" transform="translate(0 -0.48)">
    <path id="路径_1881" data-name="路径 1881" d="M3.889,51.918l.043-.043L8.505,47.3l.047-.047.047-.047,2.423-2.423a0,0,0,0,0,0,0l-2.7-2.7h0L5.894,44.5l-.047.047L5.8,44.6,1.183,49.212h0L0,53.1a0,0,0,0,0,0,0l3.829-1.165Zm-3.027.319L1.453,50.3h0l1.35,1.35a0,0,0,0,1,0,0l-1.941.591A0,0,0,0,1,.862,52.238Z" transform="translate(0 -40.622)" fill="#158acc"/>
    <path id="路径_1882" data-name="路径 1882" d="M386.95,2.921a.775.775,0,0,0,0-1.093L385.827.705a.775.775,0,0,0-1.093,0l-.56.56a0,0,0,0,0,0,0l2.214,2.214h0Z" transform="translate(-375.153 0)" fill="#158acc"/>
  </g>
</svg>
