<svg xmlns="http://www.w3.org/2000/svg" width="360.808" height="87.605" viewBox="0 0 360.808 87.605">
  <g id="show_img" transform="translate(-945.386 -1330.736)">
    <g id="カメラのアイコン素材_6" data-name="カメラのアイコン素材 6" transform="translate(1097.004 1330.736)">
      <path id="路径_4712" data-name="路径 4712" d="M200.716,224.828a6.934,6.934,0,1,0,6.872,6.934A6.9,6.9,0,0,0,200.716,224.828Z" transform="translate(-172.413 -206.261)" fill="#158acc"/>
      <path id="路径_4713" data-name="路径 4713" d="M52.932,65.609H46.45a3.672,3.672,0,0,1-3.35-2.187l-1.94-4.346a3.675,3.675,0,0,0-3.351-2.185H18.8a3.68,3.68,0,0,0-3.353,2.185l-1.938,4.346a3.672,3.672,0,0,1-3.35,2.187H3.674A3.69,3.69,0,0,0,0,69.314v27.9a3.69,3.69,0,0,0,3.674,3.705H52.932a3.691,3.691,0,0,0,3.674-3.705v-27.9A3.691,3.691,0,0,0,52.932,65.609ZM28.3,95.249A12.859,12.859,0,1,1,41.05,82.391,12.8,12.8,0,0,1,28.3,95.249Z" transform="translate(0 -56.89)" fill="#158acc"/>
    </g>
    <path id="路径_51279" data-name="路径 51279" d="M7.518-10.878l-1.3-.42a4.794,4.794,0,0,1-.434,1.106,11.541,11.541,0,0,1-4.4,4.732l.966.728A14.193,14.193,0,0,0,5.908-8.176H10.64A11.51,11.51,0,0,1,8.4-3.808,11.326,11.326,0,0,1,2.814-.294l1.008.91A12.275,12.275,0,0,0,9.394-3.192a13.579,13.579,0,0,0,2.492-4.816,4.4,4.4,0,0,1,.322-.742l-.938-.574a2.343,2.343,0,0,1-.91.14H6.566A6.292,6.292,0,0,0,6.9-9.772,10.586,10.586,0,0,1,7.518-10.878Zm17.346.252H23.548a10.044,10.044,0,0,1,.07,1.218V-7.2c0,2.646-.168,3.78-1.162,4.942A6.418,6.418,0,0,1,19.11-.392l.91.966A7.478,7.478,0,0,0,23.352-1.47c1.008-1.2,1.47-2.31,1.47-5.67V-9.408C24.822-9.884,24.836-10.276,24.864-10.626Zm-6.5.112H17.094c.028.266.056.756.056,1.008v4.662a9.176,9.176,0,0,1-.07,1.078h1.288c-.028-.252-.056-.714-.056-1.064V-9.506C18.312-9.842,18.34-10.248,18.368-10.514Zm16.394,2.45-1.022.35a26.39,26.39,0,0,1,1.092,3.038l1.036-.364C35.686-5.656,35-7.5,34.762-8.064Zm5.068.784-1.2-.378A9.6,9.6,0,0,1,36.694-2.87,9.427,9.427,0,0,1,32.144.112l.924.938a10.668,10.668,0,0,0,4.564-3.332,10.973,10.973,0,0,0,1.988-4.3C39.676-6.762,39.732-6.986,39.83-7.28Zm-8.316-.084-1.036.406a25.042,25.042,0,0,1,1.246,3.15L32.788-4.2C32.522-4.928,31.794-6.762,31.514-7.364Zm18-3.514-1.3-.42a4.794,4.794,0,0,1-.434,1.106,11.541,11.541,0,0,1-4.4,4.732l.966.728a14.193,14.193,0,0,0,3.556-3.444H52.64A11.51,11.51,0,0,1,50.4-3.808,11.326,11.326,0,0,1,44.814-.294l1.008.91a12.275,12.275,0,0,0,5.572-3.808,13.579,13.579,0,0,0,2.492-4.816,4.4,4.4,0,0,1,.322-.742l-.938-.574a2.343,2.343,0,0,1-.91.14H48.566a6.292,6.292,0,0,0,.336-.588A10.586,10.586,0,0,1,49.518-10.878ZM59.584-1.47c0-.644.728-1.162,2.058-1.162A6.209,6.209,0,0,1,63-2.492c0,.364.014.7.014.938,0,.966-.686,1.218-1.484,1.218C60.144-.336,59.584-.826,59.584-1.47Zm4.438-9.646h-1.19a7.683,7.683,0,0,1,.056.84v.994h-.644A25.437,25.437,0,0,1,58.66-9.59l.014,1.036c.882.1,2.6.238,3.584.238h.616v1.96h-.756a25.9,25.9,0,0,1-3.528-.266l.014,1.05c1.008.112,2.548.2,3.5.2h.8c.014.6.042,1.274.056,1.9a8.018,8.018,0,0,0-1.176-.084c-2.016,0-3.234.868-3.234,2.142C58.548-.07,59.64.644,61.656.644c1.82,0,2.464-.994,2.464-1.96,0-.224-.014-.518-.028-.868A10.322,10.322,0,0,1,67.48-.07l.644-.994a11.141,11.141,0,0,0-4.088-2.184c-.028-.672-.07-1.428-.1-2.156,1.33-.042,2.562-.154,3.878-.322l.014-1.05a34.837,34.837,0,0,1-3.906.378v-1.96c1.344-.07,2.674-.2,3.78-.322L67.718-9.7a34.81,34.81,0,0,1-3.794.378c0-.364.014-.672.014-.854A7.007,7.007,0,0,1,64.022-11.116Zm13.79,7.77-1.05-.1a8.751,8.751,0,0,0-.21,1.652c0,1.386,1.2,2.058,3.416,2.058a18.612,18.612,0,0,0,2.7-.2l.042-1.134a13.475,13.475,0,0,1-2.73.28c-2,0-2.366-.644-2.366-1.3A4.95,4.95,0,0,1,77.812-3.346ZM76.2-11.018l-1.344-.112a5.6,5.6,0,0,1-.042,1.162c-.042.28-.112.728-.21,1.218-.546.042-1.05.07-1.512.07a12.682,12.682,0,0,1-1.68-.1l.042,1.092c.5.028,1.008.056,1.624.056.392,0,.826-.014,1.288-.042-.112.5-.238,1.036-.364,1.5A30.528,30.528,0,0,1,71.652.084L72.884.5a42.906,42.906,0,0,0,2.184-6.412c.168-.616.322-1.26.448-1.876a26.885,26.885,0,0,0,2.912-.476V-9.366a20.728,20.728,0,0,1-2.688.5c.084-.378.154-.742.21-1.036S76.118-10.71,76.2-11.018Zm1.316,4.27v1.036a23.006,23.006,0,0,1,2.6-.14,17.7,17.7,0,0,1,2.352.168L82.5-6.748a22.409,22.409,0,0,0-2.422-.126C79.184-6.874,78.26-6.818,77.518-6.748ZM90.244-1.68c0-.686.742-1.134,1.792-1.134a4.764,4.764,0,0,1,1.428.224c.014.182.014.35.014.49,0,.924-.35,1.526-1.526,1.526C90.944-.574,90.244-.966,90.244-1.68Zm4.242-9.1h-1.26c.028.238.056.616.056.854V-8.19c-.434.014-.882.028-1.316.028-.84,0-1.582-.042-2.38-.112v1.05c.826.056,1.554.1,2.352.1.448,0,.9-.014,1.344-.028.014,1.148.1,2.52.14,3.6a6.42,6.42,0,0,0-1.3-.126c-1.834,0-2.884.938-2.884,2.114,0,1.26,1.036,2,2.912,2S94.57-.672,94.57-1.82v-.294A11.389,11.389,0,0,1,96.684-.49l.616-.938a9.228,9.228,0,0,0-2.772-1.806c-.056-1.176-.154-2.576-.168-3.99.84-.056,1.652-.14,2.422-.266V-8.568a23.64,23.64,0,0,1-2.422.322c.014-.658.028-1.316.042-1.694Q94.423-10.36,94.486-10.78ZM87.57-10.7l-1.232-.1a8.4,8.4,0,0,1-.084.994,41.657,41.657,0,0,0-.644,5.894A16.91,16.91,0,0,0,86.142.518l.98-.07c-.014-.154-.028-.35-.028-.49a2.508,2.508,0,0,1,.056-.63c.14-.686.658-2.114.994-3.094l-.574-.448c-.238.574-.574,1.428-.8,2.058a13.133,13.133,0,0,1-.14-1.946,34.712,34.712,0,0,1,.7-5.642A7.28,7.28,0,0,1,87.57-10.7Zm19.614.616-.77.35A13.894,13.894,0,0,1,107.66-7.6l.8-.364A21.1,21.1,0,0,0,107.184-10.08Zm1.694-.7-.77.364a13.621,13.621,0,0,1,1.3,2.1l.784-.392A18.906,18.906,0,0,0,108.878-10.78ZM102.27-1.05A15.33,15.33,0,0,1,102.186.6h1.344c-.042-.448-.084-1.2-.084-1.652V-5.656a35.878,35.878,0,0,1,5.488,2.24l.49-1.19a47.556,47.556,0,0,0-5.978-2.31V-9.2a12.931,12.931,0,0,1,.1-1.456h-1.386A8.836,8.836,0,0,1,102.27-9.2Zm12.964-9.38v1.162c.378-.028.826-.042,1.26-.042h5.488c.476,0,.952.014,1.288.042V-10.43a8.72,8.72,0,0,1-1.274.07h-5.5A8.755,8.755,0,0,1,115.234-10.43Zm9.058,3.7-.8-.5a1.86,1.86,0,0,1-.77.112h-7.378a13.232,13.232,0,0,1-1.372-.084v1.176c.5-.028,1.036-.042,1.372-.042h7.434a7.157,7.157,0,0,1-1.666,3.094A9.329,9.329,0,0,1,116.186-.42l.868.994a10.138,10.138,0,0,0,5.012-2.926,9.642,9.642,0,0,0,2.044-3.976A2.448,2.448,0,0,1,124.292-6.734Zm8.47-1.33-1.022.35a26.393,26.393,0,0,1,1.092,3.038l1.036-.364C133.686-5.656,133-7.5,132.762-8.064Zm5.068.784-1.2-.378a9.6,9.6,0,0,1-1.932,4.788,9.427,9.427,0,0,1-4.55,2.982l.924.938a10.668,10.668,0,0,0,4.564-3.332,10.973,10.973,0,0,0,1.988-4.3C137.676-6.762,137.732-6.986,137.83-7.28Zm-8.316-.084-1.036.406a25.04,25.04,0,0,1,1.246,3.15l1.064-.392C130.522-4.928,129.794-6.762,129.514-7.364Zm21.2-3.836-.742.322A15.834,15.834,0,0,1,151.1-8.946l.756-.336A19.844,19.844,0,0,0,150.71-11.2Zm1.54-.56-.742.322A14.55,14.55,0,0,1,152.67-9.52l.756-.336A20.03,20.03,0,0,0,152.25-11.76Zm-5.306,1.232-1.288-.434a5.192,5.192,0,0,1-.434,1.12,11.726,11.726,0,0,1-4.4,4.732l.966.714a13.509,13.509,0,0,0,3.556-3.444h4.718a11.367,11.367,0,0,1-2.226,4.368,11.212,11.212,0,0,1-5.6,3.514l1.022.924a12.462,12.462,0,0,0,5.572-3.808,13.694,13.694,0,0,0,2.478-4.83,4.4,4.4,0,0,1,.322-.742l-.924-.56a2.681,2.681,0,0,1-.91.126h-3.794c.112-.2.224-.392.322-.588C146.468-9.688,146.72-10.164,146.944-10.528Zm10.934,7.84c0-.9.714-1.526,1.6-2.114a25.744,25.744,0,0,0,2.9,2.9,3.174,3.174,0,0,1-2.226,1.05C158.816-.854,157.878-1.526,157.878-2.688Zm1.2-5.348a1.363,1.363,0,0,1,1.4-1.512,1.147,1.147,0,0,1,1.162,1.218c0,.952-.826,1.582-1.806,2.2A3.558,3.558,0,0,1,159.082-8.036Zm6.594,7.182a18.286,18.286,0,0,1-1.75-1.232,9.094,9.094,0,0,0,1.5-3.444h-1.176a6.262,6.262,0,0,1-1.134,2.758A28.446,28.446,0,0,1,160.4-5.4c1.162-.756,2.268-1.582,2.268-2.968a2.027,2.027,0,0,0-2.212-2.086,2.333,2.333,0,0,0-2.436,2.478,4.36,4.36,0,0,0,.882,2.408c-1.134.714-2.2,1.54-2.2,2.94,0,1.694,1.3,2.8,3.346,2.8a4.182,4.182,0,0,0,3.136-1.344,14.523,14.523,0,0,0,1.89,1.358Zm11.508-9.226-.77.35A13.894,13.894,0,0,1,177.66-7.6l.8-.364A21.1,21.1,0,0,0,177.184-10.08Zm1.694-.7-.77.364a13.621,13.621,0,0,1,1.3,2.1l.784-.392A18.908,18.908,0,0,0,178.878-10.78ZM172.27-1.05A15.33,15.33,0,0,1,172.186.6h1.344c-.042-.448-.084-1.2-.084-1.652V-5.656a35.878,35.878,0,0,1,5.488,2.24l.49-1.19a47.555,47.555,0,0,0-5.978-2.31V-9.2a12.931,12.931,0,0,1,.1-1.456h-1.386A8.836,8.836,0,0,1,172.27-9.2Zm11.774-8.54c.028.336.028.77.028,1.092V-1.61c0,.49-.028,1.526-.042,1.708h1.2c-.014-.112-.014-.448-.028-.812h7.644c0,.378-.014.714-.014.812h1.2c-.014-.154-.028-1.246-.028-1.694V-8.5c0-.35,0-.742.028-1.092-.42.028-.924.028-1.232.028H185.29C184.968-9.562,184.59-9.576,184.044-9.59Zm1.162,1.134h7.658v6.65h-7.658Zm17.556.392-1.022.35a26.393,26.393,0,0,1,1.092,3.038l1.036-.364C203.686-5.656,203-7.5,202.762-8.064Zm5.068.784-1.2-.378a9.6,9.6,0,0,1-1.932,4.788,9.427,9.427,0,0,1-4.55,2.982l.924.938a10.668,10.668,0,0,0,4.564-3.332,10.973,10.973,0,0,0,1.988-4.3C207.676-6.762,207.732-6.986,207.83-7.28Zm-8.316-.084-1.036.406a25.04,25.04,0,0,1,1.246,3.15l1.064-.392C200.522-4.928,199.794-6.762,199.514-7.364Zm21.756-2.688a.935.935,0,0,1,.924-.938.938.938,0,0,1,.938.938.935.935,0,0,1-.938.924A.932.932,0,0,1,221.27-10.052Zm-.644,0a1.578,1.578,0,0,0,.07.448c-.168.014-.322.014-.448.014H213.22a10.8,10.8,0,0,1-1.4-.1v1.246c.364-.014.84-.042,1.4-.042h7.154A10.478,10.478,0,0,1,218.54-3.92a9.218,9.218,0,0,1-5.46,3.36l.952,1.05a10.6,10.6,0,0,0,5.516-3.738,13.677,13.677,0,0,0,2.086-5.166.723.723,0,0,0,.028-.154,1.692,1.692,0,0,0,.532.084,1.577,1.577,0,0,0,1.582-1.568,1.589,1.589,0,0,0-1.582-1.582A1.577,1.577,0,0,0,220.626-10.052Zm4.48.84.126,1.218c1.512-.322,5.082-.658,6.58-.826a5.687,5.687,0,0,0-2.618,4.732c0,3.122,2.954,4.508,5.544,4.606l.406-1.162c-2.282-.084-4.83-.952-4.83-3.682a4.927,4.927,0,0,1,3.206-4.438,11.726,11.726,0,0,1,2.744-.224v-1.12c-.938.042-2.254.126-3.78.252-2.576.21-5.222.476-6.132.574C226.086-9.254,225.638-9.226,225.106-9.212Zm9.142,1.946-.714.308a13,13,0,0,1,1.148,1.974l.714-.336A16.615,16.615,0,0,0,234.248-7.266Zm1.526-.588-.686.322a12.977,12.977,0,0,1,1.176,1.96l.728-.35A18.492,18.492,0,0,0,235.774-7.854ZM249.746-.8H240.3v-7.63h-1.008V1.064H240.3V.2h9.45v.826h1.008v-9.45h-1.008Zm-2.338-4.774h-2v-1.82h2Zm0,2.674h-2V-4.732h2Zm-4.9-1.834H244.5V-2.9h-1.988Zm0-2.66H244.5v1.82h-1.988Zm-3.654-3.4v.966h5.572v1.554h-2.8v6.258h6.692V-8.274h-2.856V-9.828h5.684v-.966Zm16.436-.84a16.815,16.815,0,0,1-2.982,5.684,7.527,7.527,0,0,1,.546,1.05,14.259,14.259,0,0,0,1.316-1.876v7.84h.994v-9.7a24.123,24.123,0,0,0,1.092-2.73Zm2.394,3.43h2.562v1.582h-2.562Zm3.682-1.82a6.544,6.544,0,0,1-.77,1.05h-2.814c.322-.35.6-.7.868-1.05Zm2.506,3.4H261.2V-8.2h2.674Zm.672,1.176a14.9,14.9,0,0,1-1.918,1.554,13.8,13.8,0,0,1-.672-1.988h2.9V-8.974H261.73a12.973,12.973,0,0,0,1.022-1.456l-.644-.434-.182.056h-2.744c.154-.238.294-.476.42-.7l-.994-.182a10.394,10.394,0,0,1-3.052,3.472,2.622,2.622,0,0,1,.77.588c.14-.112.28-.224.406-.336V-5.88h2.66a14.916,14.916,0,0,1-3.514,1.526,7.38,7.38,0,0,1,.616.728,19.02,19.02,0,0,0,2.632-1.2,5.037,5.037,0,0,1,.616.6A12.774,12.774,0,0,1,256-2.38a3.157,3.157,0,0,1,.532.714,14.94,14.94,0,0,0,3.626-1.974,3.923,3.923,0,0,1,.42.84,13.489,13.489,0,0,1-4.844,2.744,3.508,3.508,0,0,1,.588.77A17.014,17.014,0,0,0,260.82-1.9a1.968,1.968,0,0,1-.448,1.876,1.188,1.188,0,0,1-.854.238c-.266,0-.686-.014-1.134-.056a1.967,1.967,0,0,1,.252.882c.392.028.784.042,1.078.042a1.945,1.945,0,0,0,1.344-.434c1.134-.854,1.106-3.948-1.218-5.894a7.085,7.085,0,0,0,.882-.63h.336c.658,2.786,1.876,5.166,3.752,6.342a3.847,3.847,0,0,1,.686-.826,6.633,6.633,0,0,1-2.52-2.786,16.848,16.848,0,0,0,2.3-1.68Zm7.9-5.628-1.148-.1a7.17,7.17,0,0,1-.35,1.75c-.308.014-.63.014-.924.014a20.491,20.491,0,0,1-2.366-.154v1.05c.77.056,1.694.084,2.3.084h.616a14.768,14.768,0,0,1-3.234,4.284l.952.7A18.49,18.49,0,0,1,269.556-4.9a3.686,3.686,0,0,1,2.408-1.022,1.169,1.169,0,0,1,1.274.868c-1.638.854-3.3,1.89-3.3,3.542,0,1.708,1.61,2.142,3.612,2.142a32.888,32.888,0,0,0,3.836-.252l.028-1.12a24.93,24.93,0,0,1-3.822.336c-1.442,0-2.534-.168-2.534-1.26,0-.924.91-1.666,2.212-2.352,0,.742-.014,1.652-.042,2.184H274.3c-.014-.686-.028-1.876-.042-2.688,1.064-.5,2.058-.91,2.842-1.2a12.194,12.194,0,0,1,1.246-.448l-.462-1.05c-.392.21-.728.364-1.148.546-.728.336-1.582.672-2.534,1.134a1.807,1.807,0,0,0-1.876-1.26,4.009,4.009,0,0,0-1.946.518,11.115,11.115,0,0,0,1.26-2.17,40.5,40.5,0,0,0,4.648-.392l.014-1.036a34.431,34.431,0,0,1-4.27.434A14.3,14.3,0,0,0,272.44-11.074Zm20.594,1.61-.686-.658a6.913,6.913,0,0,1-.98.084h-8.036a11.881,11.881,0,0,1-1.6-.126V-8.89a15.643,15.643,0,0,1,1.6-.084h7.98a9.51,9.51,0,0,1-3.066,3.136l.924.742a13.5,13.5,0,0,0,3.486-3.864C292.754-9.114,292.936-9.324,293.034-9.464Zm-5.586,1.848h-1.26a8.412,8.412,0,0,1,.056,1.008c0,2.338-.308,4.326-2.478,5.656a4.822,4.822,0,0,1-1.26.63l1.036.84C287.112-1.26,287.448-3.822,287.448-7.616Zm13.314-.448-1.022.35a26.387,26.387,0,0,1,1.092,3.038l1.036-.364C301.686-5.656,301-7.5,300.762-8.064Zm5.068.784-1.2-.378a9.6,9.6,0,0,1-1.932,4.788,9.427,9.427,0,0,1-4.55,2.982l.924.938a10.668,10.668,0,0,0,4.564-3.332,10.972,10.972,0,0,0,1.988-4.3C305.676-6.762,305.732-6.986,305.83-7.28Zm-8.316-.084-1.036.406a25.04,25.04,0,0,1,1.246,3.15l1.064-.392C298.522-4.928,297.794-6.762,297.514-7.364Zm21.756-2.688a.935.935,0,0,1,.924-.938.938.938,0,0,1,.938.938.935.935,0,0,1-.938.924A.932.932,0,0,1,319.27-10.052Zm-.644,0a1.577,1.577,0,0,0,.07.448c-.168.014-.322.014-.448.014H311.22a10.8,10.8,0,0,1-1.4-.1v1.246c.364-.014.84-.042,1.4-.042h7.154A10.478,10.478,0,0,1,316.54-3.92a9.219,9.219,0,0,1-5.46,3.36l.952,1.05a10.6,10.6,0,0,0,5.516-3.738,13.677,13.677,0,0,0,2.086-5.166.722.722,0,0,0,.028-.154,1.692,1.692,0,0,0,.532.084,1.577,1.577,0,0,0,1.582-1.568,1.589,1.589,0,0,0-1.582-1.582A1.577,1.577,0,0,0,318.626-10.052Zm5.418.462c.028.336.028.77.028,1.092V-1.61c0,.49-.028,1.526-.042,1.708h1.2c-.014-.112-.014-.448-.028-.812h7.644c0,.378-.014.714-.014.812h1.2c-.014-.154-.028-1.246-.028-1.694V-8.5c0-.35,0-.742.028-1.092-.42.028-.924.028-1.232.028H325.29C324.968-9.562,324.59-9.576,324.044-9.59Zm1.162,1.134h7.658v6.65h-7.658Zm12.222,2.394V-4.69c.434-.042,1.176-.07,1.946-.07h7.686c.63,0,1.218.056,1.5.07V-6.062c-.308.028-.812.07-1.512.07h-7.672C338.59-5.992,337.848-6.034,337.428-6.062Zm21.756-4.018-.77.35A13.894,13.894,0,0,1,359.66-7.6l.8-.364A21.1,21.1,0,0,0,359.184-10.08Zm1.694-.7-.77.364a13.618,13.618,0,0,1,1.3,2.1l.784-.392A18.905,18.905,0,0,0,360.878-10.78ZM354.27-1.05A15.33,15.33,0,0,1,354.186.6h1.344c-.042-.448-.084-1.2-.084-1.652V-5.656a35.878,35.878,0,0,1,5.488,2.24l.49-1.19a47.557,47.557,0,0,0-5.978-2.31V-9.2a12.931,12.931,0,0,1,.1-1.456h-1.386A8.835,8.835,0,0,1,354.27-9.2Z" transform="translate(944 1417.264)" fill="#333"/>
  </g>
</svg>
