<svg id="组_2747" data-name="组 2747" xmlns="http://www.w3.org/2000/svg" xmlns:xlink="http://www.w3.org/1999/xlink" width="34.496" height="26.205" viewBox="0 0 34.496 26.205">
  <defs>
    <clipPath id="clip-path">
      <rect id="矩形_1396" data-name="矩形 1396" width="34.496" height="26.205" fill="none"/>
    </clipPath>
  </defs>
  <g id="组_2746" data-name="组 2746" clip-path="url(#clip-path)">
    <path id="路径_5860" data-name="路径 5860" d="M32.469,0H2.028A2.03,2.03,0,0,0,0,2.028v22.15a2.03,2.03,0,0,0,2.028,2.028H32.469A2.03,2.03,0,0,0,34.5,24.177V2.028A2.03,2.03,0,0,0,32.469,0m-.56,22.191-8.216-8.216L31.908,5.76Zm-16.095-3.2a2.026,2.026,0,0,0,2.868,0l3.182-3.182,7.812,7.812H4.821l7.811-7.812Zm15.607-16.4L17.248,16.761,3.075,2.588ZM10.8,13.976,2.588,22.191V5.761Z" fill="#1a1311"/>
  </g>
</svg>
