<svg xmlns="http://www.w3.org/2000/svg" width="46.467" height="46.488" viewBox="0 0 46.467 46.488">
  <g id="组_2973" data-name="组 2973" transform="translate(-192.245 -8647.098)">
    <path id="路径_28892" data-name="路径 28892" d="M73.094,3.605a7.225,7.225,0,0,0,3.22-1.856,5.911,5.911,0,1,1,5.728,9.873h0a7.225,7.225,0,0,0-5.109,8.848,5.911,5.911,0,1,1-11.414-.019,7.2,7.2,0,0,0-1.912-6.995,5.913,5.913,0,0,1,5.706-9.865,7.212,7.212,0,0,0,3.781.014" transform="translate(136.216 8647.098)" fill="#45b2e6"/>
    <path id="矩形_1560" data-name="矩形 1560" d="M.695,0h0a.7.7,0,0,1,.7.7v.833a.7.7,0,0,1-.7.7h0A.695.695,0,0,1,0,1.529V.695A.695.695,0,0,1,.695,0Z" transform="matrix(0.5, -0.866, 0.866, 0.5, 199.84, 8656.812)" fill="#fff"/>
    <path id="路径_28893" data-name="路径 28893" d="M81.851,28.494a.525.525,0,0,1,.192.718l-.17.294a.526.526,0,0,1-.718.192l-1.016-.587a.526.526,0,0,1-.193-.718l.17-.294a.525.525,0,0,1,.718-.193Z" transform="translate(121.907 8624.928)" fill="#fff"/>
    <path id="路径_28894" data-name="路径 28894" d="M88.017,36.515a3.739,3.739,0,0,0-.143-3.958.12.12,0,0,0-.166-.027l-.724.525a.114.114,0,0,0-.012.162,2.614,2.614,0,0,1-2.334,4.042.113.113,0,0,0-.134.091l-.093.89a.12.12,0,0,0,.106.13,3.738,3.738,0,0,0,3.5-1.856" transform="translate(118.296 8621.208)" fill="#fff"/>
    <path id="路径_28895" data-name="路径 28895" d="M53.324,126.406a5.911,5.911,0,1,1,5.691,9.895,7.205,7.205,0,0,0-5.1,5.153,5.913,5.913,0,0,1-11.4-.009,7.2,7.2,0,0,0-5.1-5.142,5.911,5.911,0,1,1,5.687-9.9h0a7.223,7.223,0,0,0,10.216,0" transform="translate(159.228 8547.802)" fill="#9cc948"/>
    <path id="路径_28896" data-name="路径 28896" d="M112.871,205.8a.525.525,0,0,1,.525-.525h.339a.525.525,0,0,1,.525.526v1.173a.526.526,0,0,1-.525.525H113.4a.526.526,0,0,1-.526-.526Z" transform="translate(95.63 8483.611)" fill="#fff"/>
    <path id="路径_28897" data-name="路径 28897" d="M95.656,205.8a.525.525,0,0,1,.525-.525h.339a.526.526,0,0,1,.526.526v1.173a.525.525,0,0,1-.525.525h-.339a.525.525,0,0,1-.525-.525Z" transform="translate(109.341 8483.611)" fill="#fff"/>
    <path id="路径_28898" data-name="路径 28898" d="M94.507,186.422a3.74,3.74,0,0,0-3.357,2.1.121.121,0,0,0,.06.157l.817.364a.113.113,0,0,0,.146-.07,2.614,2.614,0,0,1,4.668,0,.114.114,0,0,0,.146.071l.817-.365a.12.12,0,0,0,.059-.157,3.739,3.739,0,0,0-3.357-2.1" transform="translate(112.937 8498.627)" fill="#fff"/>
    <path id="路径_28899" data-name="路径 28899" d="M149.63,77.347a7.177,7.177,0,0,0-4.387-3.366,5.911,5.911,0,1,1,5.724-9.876,7.2,7.2,0,0,0,7.013,1.842,5.913,5.913,0,0,1,5.69,9.875,7.2,7.2,0,0,0-1.9,6.984,5.912,5.912,0,1,1-11.414.023h0a7.18,7.18,0,0,0-.721-5.482" transform="translate(73.338 8597.435)" fill="#f8b500"/>
    <path id="矩形_1561" data-name="矩形 1561" d="M.695,0h.835a.695.695,0,0,1,.695.695v0a.7.7,0,0,1-.7.7H.695A.695.695,0,0,1,0,.7v0A.695.695,0,0,1,.695,0Z" transform="matrix(0.866, -0.5, 0.5, 0.866, 232.625, 8666.379)" fill="#fff"/>
    <path id="路径_28900" data-name="路径 28900" d="M241.878,106.964a.525.525,0,0,1-.718-.192l-.17-.294a.526.526,0,0,1,.193-.718l1.016-.586a.526.526,0,0,1,.718.192l.169.294a.524.524,0,0,1-.192.717Z" transform="translate(-6.35 8563.391)" fill="#fff"/>
    <path id="路径_28901" data-name="路径 28901" d="M219.1,98.873a3.74,3.74,0,0,0,3.5,1.856.121.121,0,0,0,.106-.13l-.093-.889a.114.114,0,0,0-.134-.092,2.614,2.614,0,0,1-2.334-4.042.113.113,0,0,0-.012-.162l-.724-.525a.12.12,0,0,0-.166.027,3.738,3.738,0,0,0-.143,3.958" transform="translate(11.424 8571.545)" fill="#fff"/>
  </g>
</svg>
