<svg xmlns="http://www.w3.org/2000/svg" xmlns:xlink="http://www.w3.org/1999/xlink" width="20.066" height="30" viewBox="0 0 20.066 30">
  <defs>
    <clipPath id="clip-path">
      <rect id="矩形_1353" data-name="矩形 1353" width="20.066" height="30" fill="none"/>
    </clipPath>
  </defs>
  <g id="组_2738" data-name="组 2738" transform="translate(0)">
    <g id="组_2714" data-name="组 2714" transform="translate(0 0)" clip-path="url(#clip-path)">
      <path id="路径_5843" data-name="路径 5843" d="M3.22,25.76a4.523,4.523,0,0,0-1.657,1.274c-.22.316-.412.653-.616.981l-.36.885a1.363,1.363,0,0,1-.032.181,13.153,13.153,0,0,0-.385,5.946,29.154,29.154,0,0,0,1.138,4.687A34.314,34.314,0,0,0,3.5,44.966,29.548,29.548,0,0,0,5.864,48.81a13.968,13.968,0,0,0,2.857,2.981A8.891,8.891,0,0,0,12.81,53.7a4.685,4.685,0,0,0,2.007-.285c-.029-.082-.05-.153-.079-.222-.1-.249-.209-.5-.313-.745l-1.586-3.761c-.429-1.019-.863-2.035-1.283-3.058a.363.363,0,0,0-.342-.262A2.845,2.845,0,0,1,8.9,43.83c-.327-.615-.639-1.242-.905-1.885-.674-1.627-1.32-3.266-1.974-4.9a2.966,2.966,0,0,1,.427-3.121A.332.332,0,0,0,6.5,33.65c-.371-.908-.755-1.811-1.136-2.715q-.853-2.024-1.706-4.048c-.154-.368-.29-.743-.439-1.127" transform="translate(0 -23.723)" fill="#1a1311"/>
      <path id="路径_5844" data-name="路径 5844" d="M61.336,9.012c.782-.333,1.886-.8,2.67-1.126a.915.915,0,0,0,.554-1.339c-.728-1.733-1.452-3.467-2.187-5.2A3.078,3.078,0,0,0,61.709.125L61.4,0a4.046,4.046,0,0,0-.7.139c-.6.23-1.5.627-2.1.872-.362.149-.728.289-1.065.422l3.3,7.825c.156-.077.324-.172.5-.247" transform="translate(-52.988)" fill="#1a1311"/>
      <path id="路径_5845" data-name="路径 5845" d="M167.012,260.688c.992-.418,2.306-.963,3.293-1.393a.857.857,0,0,0,.434-1.155c-.069-.181-.149-.357-.224-.535q-1.15-2.731-2.3-5.461a.927.927,0,0,0-1.351-.54c-.478.2-1.279.525-1.75.74s-.954.463-1.422.692l3.233,7.675a.6.6,0,0,0,.086-.024" transform="translate(-150.748 -231.604)" fill="#1a1311"/>
    </g>
  </g>
</svg>
