<svg id="组_2754" data-name="组 2754" xmlns="http://www.w3.org/2000/svg" xmlns:xlink="http://www.w3.org/1999/xlink" width="228.654" height="244.926" viewBox="0 0 228.654 244.926">
  <defs>
    <clipPath id="clip-path">
      <rect id="矩形_1308" data-name="矩形 1308" width="228.654" height="244.926" fill="none"/>
    </clipPath>
  </defs>
  <g id="组_2753" data-name="组 2753" clip-path="url(#clip-path)">
    <path id="路径_5427" data-name="路径 5427" d="M278.24,305.417a6.234,6.234,0,1,0,6.234-6.233,6.242,6.242,0,0,0-6.234,6.233m.761,0a5.473,5.473,0,1,1,5.472,5.475A5.478,5.478,0,0,1,279,305.417" transform="translate(-62.054 -66.725)" fill="#221815"/>
    <path id="路径_5428" data-name="路径 5428" d="M282.506,302.253h3.5a3.457,3.457,0,0,1,1.427.256,1.827,1.827,0,0,1,1.065,1.82,1.891,1.891,0,0,1-1.091,1.84,1.591,1.591,0,0,1,.683.484,1.722,1.722,0,0,1,.253.968l.035,1.03a3.092,3.092,0,0,0,.075.654.642.642,0,0,0,.338.47v.173H287.51a1,1,0,0,1-.083-.256,4.749,4.749,0,0,1-.052-.607l-.064-1.281a1.084,1.084,0,0,0-.545-1.01,2.186,2.186,0,0,0-.911-.142h-2.31v3.3h-1.04Zm3.387,3.528a1.935,1.935,0,0,0,1.129-.293,1.215,1.215,0,0,0,.416-1.061,1.151,1.151,0,0,0-.583-1.124,1.845,1.845,0,0,0-.831-.157h-2.477v2.634Z" transform="translate(-63.006 -67.41)" fill="#221815"/>
    <path id="路径_5429" data-name="路径 5429" d="M89.954,245.065H76.326v27.258H89.954Zm20.444,0v34.071a6.813,6.813,0,0,1-6.815,6.813v0H89.954v13.628h13.629a20.444,20.444,0,0,0,20.445-20.445V245.065Z" transform="translate(-17.023 -54.655)" fill="#221815"/>
    <path id="路径_5430" data-name="路径 5430" d="M253.337,258.693a6.815,6.815,0,0,1-6.814-6.813v-6.817H232.894v54.518h13.629V271.133a20.337,20.337,0,0,0,6.814,1.19h27.258V258.693Z" transform="translate(-51.941 -54.655)" fill="#221815"/>
    <path id="路径_5431" data-name="路径 5431" d="M194.412,247.746a7.725,7.725,0,1,1-7.724-7.725,7.724,7.724,0,0,1,7.724,7.725" transform="translate(-39.913 -53.53)" fill="#f8b500"/>
    <path id="路径_5432" data-name="路径 5432" d="M217.246,242.453a7.725,7.725,0,1,1-7.724-7.725,7.723,7.723,0,0,1,7.724,7.725" transform="translate(-45.006 -52.35)" fill="#9cc948"/>
    <path id="路径_5433" data-name="路径 5433" d="M174.4,285.953h0a6.814,6.814,0,0,1-6.81-6.816v-8a20.312,20.312,0,0,0,6.81,1.186h20.445V258.693H174.4a6.812,6.812,0,0,1-6.81-6.8v-6.834H153.957v34.074A20.445,20.445,0,0,0,174.4,299.581H201.66V285.953Z" transform="translate(-34.336 -54.655)" fill="#221815"/>
    <path id="路径_5434" data-name="路径 5434" d="M27.262,251.877H20.445v-6.814H6.813v6.814H0v13.63H6.813v27.258H20.445V265.508h6.817v0a6.814,6.814,0,0,1,6.813,6.815h0v27.26H47.7v-27.26a20.443,20.443,0,0,0-20.441-20.444" transform="translate(0 -54.655)" fill="#221815"/>
    <path id="路径_5435" data-name="路径 5435" d="M104.593,13.762a27.576,27.576,0,0,0,12.289-7.084,22.562,22.562,0,1,1,21.861,37.682h0a27.575,27.575,0,0,0-19.5,33.768,22.558,22.558,0,1,1-43.563-.072,27.483,27.483,0,0,0-7.3-26.7A22.567,22.567,0,0,1,90.162,13.707a27.524,27.524,0,0,0,14.432.054" transform="translate(-13.808 0)" fill="#45b2e6"/>
    <path id="矩形_1306" data-name="矩形 1306" d="M2.58,0h.143A2.583,2.583,0,0,1,5.306,2.583V5.905A2.583,2.583,0,0,1,2.723,8.488H2.581A2.581,2.581,0,0,1,0,5.907V2.58A2.58,2.58,0,0,1,2.58,0Z" transform="matrix(0.5, -0.866, 0.866, 0.5, 54.641, 37.073)" fill="#fff"/>
    <path id="路径_5436" data-name="路径 5436" d="M87.41,30.345a2,2,0,0,1,.734,2.739L87.5,34.206a2.006,2.006,0,0,1-2.74.733L80.881,32.7a2.006,2.006,0,0,1-.735-2.739l.648-1.12a2.005,2.005,0,0,1,2.739-.735Z" transform="translate(-17.815 -6.208)" fill="#fff"/>
    <path id="路径_5437" data-name="路径 5437" d="M98.174,47.8A14.271,14.271,0,0,0,97.63,32.7a.459.459,0,0,0-.633-.1L94.233,34.6a.434.434,0,0,0-.044.618A9.976,9.976,0,0,1,85.28,50.645a.432.432,0,0,0-.511.348l-.355,3.4a.458.458,0,0,0,.4.5A14.267,14.267,0,0,0,98.174,47.8" transform="translate(-18.826 -7.25)" fill="#fff"/>
    <path id="路径_5438" data-name="路径 5438" d="M110.52,131.273a22.559,22.559,0,1,1,21.719,37.765A27.5,27.5,0,0,0,112.767,188.7a22.567,22.567,0,0,1-43.5-.033,27.489,27.489,0,0,0-19.448-19.626,22.561,22.561,0,1,1,21.7-37.769h0a27.568,27.568,0,0,0,38.992,0" transform="translate(-7.364 -27.806)" fill="#9cc948"/>
    <path id="路径_5439" data-name="路径 5439" d="M112.872,207.281a2,2,0,0,1,2.005-2h1.294a2,2,0,0,1,2,2.007l0,4.478a2.007,2.007,0,0,1-2.005,2h-1.294a2.007,2.007,0,0,1-2.006-2.007Z" transform="translate(-25.173 -45.781)" fill="#fff"/>
    <path id="路径_5440" data-name="路径 5440" d="M95.656,207.283a2,2,0,0,1,2-2.005l1.294,0a2.006,2.006,0,0,1,2.006,2.007l0,4.478a2,2,0,0,1-2,2l-1.294,0a2,2,0,0,1-2-2.005Z" transform="translate(-21.334 -45.781)" fill="#fff"/>
    <path id="路径_5441" data-name="路径 5441" d="M103.989,186.422a14.275,14.275,0,0,0-12.812,8.025.46.46,0,0,0,.228.6l3.117,1.388a.43.43,0,0,0,.559-.268,9.977,9.977,0,0,1,17.815,0,.434.434,0,0,0,.558.27l3.119-1.392a.458.458,0,0,0,.227-.6,14.269,14.269,0,0,0-12.811-8.026" transform="translate(-20.326 -41.577)" fill="#fff"/>
    <path id="路径_5442" data-name="路径 5442" d="M174.327,119.565a27.39,27.39,0,0,0-16.742-12.848A22.558,22.558,0,1,1,179.43,69.025a27.488,27.488,0,0,0,26.766,7.03,22.567,22.567,0,0,1,21.717,37.687,27.479,27.479,0,0,0-7.27,26.654,22.562,22.562,0,1,1-43.563.088v0a27.4,27.4,0,0,0-2.753-20.921" transform="translate(-31.416 -13.907)" fill="#f8b500"/>
    <path id="矩形_1307" data-name="矩形 1307" d="M2.579,0H5.908a2.58,2.58,0,0,1,2.58,2.58v.144A2.581,2.581,0,0,1,5.907,5.3H2.58A2.58,2.58,0,0,1,0,2.724V2.579A2.579,2.579,0,0,1,2.579,0Z" transform="matrix(0.866, -0.5, 0.5, 0.866, 179.768, 73.588)" fill="#fff"/>
    <path id="路径_5443" data-name="路径 5443" d="M244.577,112.205a2,2,0,0,1-2.74-.734l-.65-1.12a2.009,2.009,0,0,1,.735-2.742l3.877-2.235a2.006,2.006,0,0,1,2.74.733l.645,1.123a2,2,0,0,1-.733,2.738Z" transform="translate(-53.731 -23.441)" fill="#fff"/>
    <path id="路径_5444" data-name="路径 5444" d="M220.5,110.161a14.273,14.273,0,0,0,13.355,7.083.462.462,0,0,0,.406-.5l-.356-3.394a.434.434,0,0,0-.513-.35,9.977,9.977,0,0,1-8.906-15.428.433.433,0,0,0-.045-.618l-2.764-2.005a.458.458,0,0,0-.632.1,14.266,14.266,0,0,0-.545,15.108" transform="translate(-48.754 -21.157)" fill="#fff"/>
  </g>
</svg>
