<svg xmlns="http://www.w3.org/2000/svg" width="140" height="140" viewBox="0 0 140 140">
  <g id="btn_fix" transform="translate(-1760 -920)">
    <g id="椭圆_42" data-name="椭圆 42" transform="translate(1760 920)" fill="#fff9eb" stroke="#fcaa00" stroke-width="1">
      <circle cx="70" cy="70" r="70" stroke="none"/>
      <circle cx="70" cy="70" r="69.5" fill="none"/>
    </g>
    <path id="路径_4077" data-name="路径 4077" d="M4.114-14.058H2.75a8.371,8.371,0,0,1-1.584-.11v1.43a12.063,12.063,0,0,1,1.584-.088H4.114V-7.92a13.983,13.983,0,0,1-3.146.968l.418,1.474c.7-.308,1.606-.66,2.728-1.1V-.462c0,.4-.176.528-.7.528A13.752,13.752,0,0,1,1.5-.088,4.05,4.05,0,0,1,1.8,1.3c.462.022.858.044,1.144.044,2.024,0,2.574-.33,2.574-1.518V-7.15C6.38-7.5,6.71-7.656,7.7-8.14L7.678-9.46c-.99.484-1.32.638-2.156.99v-4.356H6.754a8.522,8.522,0,0,1,1.364.088v-1.43a5.747,5.747,0,0,1-1.276.11H5.522v-2.09a12.991,12.991,0,0,1,.154-2.178H3.96A13.191,13.191,0,0,1,4.114-16.1ZM18.15-9.108A4.642,4.642,0,0,1,16.83-9H10.12A10,10,0,0,1,8.338-9.13v1.452a12.085,12.085,0,0,1,1.43-.088A13.326,13.326,0,0,0,12.87-2.9,17.831,17.831,0,0,1,6.424.132,3.784,3.784,0,0,1,7.26,1.408a18.688,18.688,0,0,0,6.622-3.366,17.77,17.77,0,0,0,6.27,3.322,5.676,5.676,0,0,1,.836-1.386,16.482,16.482,0,0,1-6.006-2.86,18.339,18.339,0,0,0,3.41-4.312,8.819,8.819,0,0,1,.616-.968Zm-.99,1.342a14.288,14.288,0,0,1-3.234,4,11.672,11.672,0,0,1-2.838-4Zm-1.8-8.6v4.224c0,1.012.462,1.232,2.53,1.232,2.508,0,2.728-.22,2.97-3.234a4.37,4.37,0,0,1-1.3-.682c-.022,1.716-.11,2.332-.352,2.486a3.523,3.523,0,0,1-1.408.176c-.924,0-1.078-.066-1.078-.462v-3.564a11.53,11.53,0,0,1,.066-1.562,12.277,12.277,0,0,1-1.474.066H11.66a12.194,12.194,0,0,1-1.5-.066,4.78,4.78,0,0,1,.066.99,8.978,8.978,0,0,1-.55,3.718A4.616,4.616,0,0,1,7.392-10.67,3.339,3.339,0,0,1,8.4-9.68a5.953,5.953,0,0,0,2.2-2.09,8.742,8.742,0,0,0,1.012-4.6Zm15.2,3.85H29.106a9.166,9.166,0,0,1-1.628-.11v1.408a9.368,9.368,0,0,1,1.606-.11h1.3a16.12,16.12,0,0,1-3.388,6.82,3.125,3.125,0,0,1,.836,1.166,14.18,14.18,0,0,0,1.87-3.19,13.833,13.833,0,0,0,.946-2.794c-.066,1.32-.088,2.376-.088,3.388V-.9a14.037,14.037,0,0,1-.132,2.486h1.562a13.727,13.727,0,0,1-.132-2.508v-5.39c0-.88-.044-2.046-.088-3.256a9.885,9.885,0,0,0,1.65,3.3,4.1,4.1,0,0,1,.748-1.166,9.25,9.25,0,0,1-2.288-3.894h.858a14.442,14.442,0,0,1,1.672.088v-1.364a10.322,10.322,0,0,1-1.65.088h-.9V-16.1a14.682,14.682,0,0,0,2.53-1.012l-.924-1.122c-.99.77-3.278,1.5-6.028,1.892a4.533,4.533,0,0,1,.638,1.21c1.166-.242,1.584-.33,2.486-.572Zm9.328-4.048H36.674a16.131,16.131,0,0,1-2.31-.132v1.408a21.33,21.33,0,0,1,2.266-.11h8.294a21.97,21.97,0,0,1,2.266.11V-16.7a15.793,15.793,0,0,1-2.288.132H41.25v-.374a6.352,6.352,0,0,1,.11-1.452H39.776a9.222,9.222,0,0,1,.11,1.43ZM43.538-9.68a14.392,14.392,0,0,1,1.54.066,11.608,11.608,0,0,1-.066-1.342v-1.8a11.879,11.879,0,0,1,.066-1.342,16.331,16.331,0,0,1-1.672.066h-5.5a15.379,15.379,0,0,1-1.628-.066,12.2,12.2,0,0,1,.066,1.3v1.914a11.777,11.777,0,0,1-.066,1.276,15.965,15.965,0,0,1,1.628-.066ZM37.62-12.936h6.094v2.156H37.62ZM34.54-.814a18.838,18.838,0,0,1-.11,2.42h1.518a17.4,17.4,0,0,1-.11-2.442V-7.15h9.5V-.4c0,.374-.132.462-.638.462a14.1,14.1,0,0,1-2.09-.176A4.42,4.42,0,0,1,42.9,1.254c.682.022,1.3.044,1.826.044C46.134,1.3,46.64.9,46.64-.22V-6.468A16.63,16.63,0,0,1,46.728-8.4a13.434,13.434,0,0,1-2.024.088H36.52c-.748,0-1.584-.044-2.046-.088.044.616.066,1.3.066,2Zm8.954-3.7a11.08,11.08,0,0,1,.066-1.254,14.011,14.011,0,0,1-1.628.066H39.16a14.976,14.976,0,0,1-1.54-.066A12.877,12.877,0,0,1,37.686-4.4v2.6A9.656,9.656,0,0,1,37.6-.264H38.83V-1.518H42c.374,0,.858.022,1.562.066a8.7,8.7,0,0,1-.066-1.188ZM38.83-4.62h3.542v2H38.83Z" transform="translate(1806.022 969.153)" fill="#fcaa00"/>
    <g id="组_411" data-name="组 411" transform="translate(1835.941 469.312)">
      <g id="组_410" data-name="组 410" transform="translate(-29.963 512.49)">
        <path id="路径_598" data-name="路径 598" d="M17.257,530.022l-2.348-2.351a2.818,2.818,0,0,0-3.981,0L5.976,532.62V516.714a4.228,4.228,0,0,0-4.221-4.224h-27.5a4.228,4.228,0,0,0-4.221,4.224v39.6a4.227,4.227,0,0,0,4.221,4.221h27.5a4.227,4.227,0,0,0,4.221-4.221V545.142L17.257,534a2.818,2.818,0,0,0,0-3.981ZM.424,546.67l-4.236,1.978,1.975-4.231L8.671,533.908l2.322,2.325Zm2.738,9.643a1.41,1.41,0,0,1-1.407,1.407h-27.5a1.41,1.41,0,0,1-1.407-1.407v-39.6a1.411,1.411,0,0,1,1.407-1.41h27.5a1.411,1.411,0,0,1,1.407,1.41v18.723c-7.806,7.806-7.295,7.245-7.445,7.563L-8,550.963a1.412,1.412,0,0,0,.28,1.592,1.4,1.4,0,0,0,1.59.278l7.963-3.715c.292-.135.34-.221,1.329-1.2ZM13,534.253l-2.337-2.334,2.256-2.256,2.348,2.351Z" transform="translate(29.963 -512.49)" fill="#fcaa00"/>
        <path id="路径_599" data-name="路径 599" d="M-25.99,519.136H-4.971a1.408,1.408,0,0,0,1.41-1.407,1.41,1.41,0,0,0-1.41-1.41H-25.99a1.409,1.409,0,0,0-1.407,1.41,1.407,1.407,0,0,0,1.407,1.407Z" transform="translate(33.496 -507.218)" fill="#fcaa00"/>
        <path id="路径_600" data-name="路径 600" d="M-25.99,522.292H-9.475a1.408,1.408,0,0,0,1.41-1.407,1.407,1.407,0,0,0-1.41-1.407H-25.99a1.407,1.407,0,0,0-1.407,1.407,1.407,1.407,0,0,0,1.407,1.407Z" transform="translate(33.496 -502.868)" fill="#fcaa00"/>
        <path id="路径_601" data-name="路径 601" d="M-13.977,522.636H-25.99a1.407,1.407,0,0,0-1.407,1.407,1.407,1.407,0,0,0,1.407,1.407h12.013a1.407,1.407,0,0,0,1.407-1.407A1.407,1.407,0,0,0-13.977,522.636Z" transform="translate(33.496 -498.52)" fill="#fcaa00"/>
      </g>
    </g>
  </g>
</svg>
