<svg xmlns="http://www.w3.org/2000/svg" width="80" height="15" viewBox="0 0 80 15">
  <g id="evaluate_02" transform="translate(12759 22164)">
    <g id="多边形_76" data-name="多边形 76" transform="translate(-12759 -22164)" fill="#ffc400">
      <path d="M 12.25147914886475 14.05513954162598 L 8.238490104675293 11.87727069854736 L 8 11.74783039093018 L 7.761509895324707 11.87727069854736 L 3.748520612716675 14.05513954162598 L 4.607550144195557 9.630870819091797 L 4.660630226135254 9.357490539550781 L 4.456150054931641 9.168440818786621 L 1.130010724067688 6.09328556060791 L 5.661489963531494 5.531770706176758 L 5.933450222015381 5.498070240020752 L 6.051360130310059 5.250690460205078 L 8 1.162143349647522 L 9.948639869689941 5.250690460205078 L 10.06655025482178 5.498070240020752 L 10.33850955963135 5.531770706176758 L 14.8699893951416 6.09328556060791 L 11.54384994506836 9.168440818786621 L 11.33936977386475 9.357490539550781 L 11.3924503326416 9.630870819091797 L 12.25147914886475 14.05513954162598 Z" stroke="none"/>
      <path d="M 8.000000953674316 2.324263572692871 L 6.266900062561035 5.960580825805664 L 2.260039329528809 6.457087516784668 L 5.204549789428711 9.179410934448242 L 4.441326141357422 13.11025619506836 L 8 11.17895030975342 L 11.55867385864258 13.11025619506836 L 10.79545021057129 9.179410934448242 L 13.73996353149414 6.457084655761719 L 9.733099937438965 5.960570335388184 L 8.000000953674316 2.324263572692871 M 8 9.5367431640625e-07 L 10.39999961853027 5.035560607910156 L 16 5.729490280151367 L 11.88327980041504 9.53557014465332 L 12.94427013397217 15 L 8 12.31672096252441 L 3.055729866027832 15 L 4.116720199584961 9.53557014465332 L 0 5.729490280151367 L 5.600000381469727 5.03557014465332 L 8 9.5367431640625e-07 Z" stroke="none" fill="#ffc400"/>
    </g>
    <g id="多边形_77" data-name="多边形 77" transform="translate(-12727 -22164)" fill="none">
      <path d="M8,0l2.4,5.036,5.6.694L11.883,9.536,12.944,15,8,12.317,3.056,15,4.117,9.536,0,5.729l5.6-.694Z" stroke="none"/>
      <path d="M 8.000000953674316 2.324263572692871 L 6.266900062561035 5.960580825805664 L 2.260039329528809 6.457087516784668 L 5.204549789428711 9.179410934448242 L 4.441326141357422 13.11025619506836 L 8 11.17895030975342 L 11.55867385864258 13.11025619506836 L 10.79545021057129 9.179410934448242 L 13.73996353149414 6.457084655761719 L 9.733099937438965 5.960570335388184 L 8.000000953674316 2.324263572692871 M 8 9.5367431640625e-07 L 10.39999961853027 5.035560607910156 L 16 5.729490280151367 L 11.88327980041504 9.53557014465332 L 12.94427013397217 15 L 8 12.31672096252441 L 3.055729866027832 15 L 4.116720199584961 9.53557014465332 L 0 5.729490280151367 L 5.600000381469727 5.03557014465332 L 8 9.5367431640625e-07 Z" stroke="none" fill="#ffc400"/>
    </g>
    <g id="多边形_78" data-name="多边形 78" transform="translate(-12743 -22164)" fill="#ffc400">
      <path d="M 12.25147914886475 14.05513954162598 L 8.238490104675293 11.87727069854736 L 8 11.74783039093018 L 7.761509895324707 11.87727069854736 L 3.748520612716675 14.05513954162598 L 4.607550144195557 9.630870819091797 L 4.660630226135254 9.357490539550781 L 4.456150054931641 9.168440818786621 L 1.130010724067688 6.09328556060791 L 5.661489963531494 5.531770706176758 L 5.933450222015381 5.498070240020752 L 6.051360130310059 5.250690460205078 L 8 1.162143349647522 L 9.948639869689941 5.250690460205078 L 10.06655025482178 5.498070240020752 L 10.33850955963135 5.531770706176758 L 14.8699893951416 6.09328556060791 L 11.54384994506836 9.168440818786621 L 11.33936977386475 9.357490539550781 L 11.3924503326416 9.630870819091797 L 12.25147914886475 14.05513954162598 Z" stroke="none"/>
      <path d="M 8.000000953674316 2.324263572692871 L 6.266900062561035 5.960580825805664 L 2.260039329528809 6.457087516784668 L 5.204549789428711 9.179410934448242 L 4.441326141357422 13.11025619506836 L 8 11.17895030975342 L 11.55867385864258 13.11025619506836 L 10.79545021057129 9.179410934448242 L 13.73996353149414 6.457084655761719 L 9.733099937438965 5.960570335388184 L 8.000000953674316 2.324263572692871 M 8 9.5367431640625e-07 L 10.39999961853027 5.035560607910156 L 16 5.729490280151367 L 11.88327980041504 9.53557014465332 L 12.94427013397217 15 L 8 12.31672096252441 L 3.055729866027832 15 L 4.116720199584961 9.53557014465332 L 0 5.729490280151367 L 5.600000381469727 5.03557014465332 L 8 9.5367431640625e-07 Z" stroke="none" fill="#ffc400"/>
    </g>
    <g id="多边形_79" data-name="多边形 79" transform="translate(-12711 -22164)" fill="none">
      <path d="M8,0l2.4,5.036,5.6.694L11.883,9.536,12.944,15,8,12.317,3.056,15,4.117,9.536,0,5.729l5.6-.694Z" stroke="none"/>
      <path d="M 8.000000953674316 2.324263572692871 L 6.266900062561035 5.960580825805664 L 2.260039329528809 6.457087516784668 L 5.204549789428711 9.179410934448242 L 4.441326141357422 13.11025619506836 L 8 11.17895030975342 L 11.55867385864258 13.11025619506836 L 10.79545021057129 9.179410934448242 L 13.73996353149414 6.457084655761719 L 9.733099937438965 5.960570335388184 L 8.000000953674316 2.324263572692871 M 8 9.5367431640625e-07 L 10.39999961853027 5.035560607910156 L 16 5.729490280151367 L 11.88327980041504 9.53557014465332 L 12.94427013397217 15 L 8 12.31672096252441 L 3.055729866027832 15 L 4.116720199584961 9.53557014465332 L 0 5.729490280151367 L 5.600000381469727 5.03557014465332 L 8 9.5367431640625e-07 Z" stroke="none" fill="#fec42d"/>
    </g>
    <g id="多边形_80" data-name="多边形 80" transform="translate(-12695 -22164)" fill="none">
      <path d="M8,0l2.4,5.036,5.6.694L11.883,9.536,12.944,15,8,12.317,3.056,15,4.117,9.536,0,5.729l5.6-.694Z" stroke="none"/>
      <path d="M 8.000000953674316 2.324263572692871 L 6.266900062561035 5.960580825805664 L 2.260039329528809 6.457087516784668 L 5.204549789428711 9.179410934448242 L 4.441326141357422 13.11025619506836 L 8 11.17895030975342 L 11.55867385864258 13.11025619506836 L 10.79545021057129 9.179410934448242 L 13.73996353149414 6.457084655761719 L 9.733099937438965 5.960570335388184 L 8.000000953674316 2.324263572692871 M 8 9.5367431640625e-07 L 10.39999961853027 5.035560607910156 L 16 5.729490280151367 L 11.88327980041504 9.53557014465332 L 12.94427013397217 15 L 8 12.31672096252441 L 3.055729866027832 15 L 4.116720199584961 9.53557014465332 L 0 5.729490280151367 L 5.600000381469727 5.03557014465332 L 8 9.5367431640625e-07 Z" stroke="none" fill="#fec42d"/>
    </g>
  </g>
</svg>
