<svg xmlns="http://www.w3.org/2000/svg" width="80" height="15" viewBox="0 0 80 15">
  <g id="evaluate" transform="translate(12759 22164)">
    <g id="多边形_76" data-name="多边形 76" transform="translate(-12759 -22164)" fill="none">
      <path d="M8,0l2.4,5.036,5.6.694L11.883,9.536,12.944,15,8,12.317,3.056,15,4.117,9.536,0,5.729l5.6-.694Z" stroke="none"/>
      <path d="M 8.000000953674316 2.324263572692871 L 6.266900062561035 5.960580825805664 L 2.260039329528809 6.457087516784668 L 5.204549789428711 9.179410934448242 L 4.441326141357422 13.11025619506836 L 8 11.17895030975342 L 11.55867385864258 13.11025619506836 L 10.79545021057129 9.179410934448242 L 13.73996353149414 6.457084655761719 L 9.733099937438965 5.960570335388184 L 8.000000953674316 2.324263572692871 M 8 9.5367431640625e-07 L 10.39999961853027 5.035560607910156 L 16 5.729490280151367 L 11.88327980041504 9.53557014465332 L 12.94427013397217 15 L 8 12.31672096252441 L 3.055729866027832 15 L 4.116720199584961 9.53557014465332 L 0 5.729490280151367 L 5.600000381469727 5.03557014465332 L 8 9.5367431640625e-07 Z" stroke="none" fill="#ffc400"/>
    </g>
    <g id="多边形_77" data-name="多边形 77" transform="translate(-12727 -22164)" fill="none">
      <path d="M8,0l2.4,5.036,5.6.694L11.883,9.536,12.944,15,8,12.317,3.056,15,4.117,9.536,0,5.729l5.6-.694Z" stroke="none"/>
      <path d="M 8.000000953674316 2.324263572692871 L 6.266900062561035 5.960580825805664 L 2.260039329528809 6.457087516784668 L 5.204549789428711 9.179410934448242 L 4.441326141357422 13.11025619506836 L 8 11.17895030975342 L 11.55867385864258 13.11025619506836 L 10.79545021057129 9.179410934448242 L 13.73996353149414 6.457084655761719 L 9.733099937438965 5.960570335388184 L 8.000000953674316 2.324263572692871 M 8 9.5367431640625e-07 L 10.39999961853027 5.035560607910156 L 16 5.729490280151367 L 11.88327980041504 9.53557014465332 L 12.94427013397217 15 L 8 12.31672096252441 L 3.055729866027832 15 L 4.116720199584961 9.53557014465332 L 0 5.729490280151367 L 5.600000381469727 5.03557014465332 L 8 9.5367431640625e-07 Z" stroke="none" fill="#ffc400"/>
    </g>
    <g id="多边形_78" data-name="多边形 78" transform="translate(-12743 -22164)" fill="none">
      <path d="M8,0l2.4,5.036,5.6.694L11.883,9.536,12.944,15,8,12.317,3.056,15,4.117,9.536,0,5.729l5.6-.694Z" stroke="none"/>
      <path d="M 8.000000953674316 2.324263572692871 L 6.266900062561035 5.960580825805664 L 2.260039329528809 6.457087516784668 L 5.204549789428711 9.179410934448242 L 4.441326141357422 13.11025619506836 L 8 11.17895030975342 L 11.55867385864258 13.11025619506836 L 10.79545021057129 9.179410934448242 L 13.73996353149414 6.457084655761719 L 9.733099937438965 5.960570335388184 L 8.000000953674316 2.324263572692871 M 8 9.5367431640625e-07 L 10.39999961853027 5.035560607910156 L 16 5.729490280151367 L 11.88327980041504 9.53557014465332 L 12.94427013397217 15 L 8 12.31672096252441 L 3.055729866027832 15 L 4.116720199584961 9.53557014465332 L 0 5.729490280151367 L 5.600000381469727 5.03557014465332 L 8 9.5367431640625e-07 Z" stroke="none" fill="#ffc400"/>
    </g>
    <g id="多边形_79" data-name="多边形 79" transform="translate(-12711 -22164)" fill="none">
      <path d="M8,0l2.4,5.036,5.6.694L11.883,9.536,12.944,15,8,12.317,3.056,15,4.117,9.536,0,5.729l5.6-.694Z" stroke="none"/>
      <path d="M 8.000000953674316 2.324263572692871 L 6.266900062561035 5.960580825805664 L 2.260039329528809 6.457087516784668 L 5.204549789428711 9.179410934448242 L 4.441326141357422 13.11025619506836 L 8 11.17895030975342 L 11.55867385864258 13.11025619506836 L 10.79545021057129 9.179410934448242 L 13.73996353149414 6.457084655761719 L 9.733099937438965 5.960570335388184 L 8.000000953674316 2.324263572692871 M 8 9.5367431640625e-07 L 10.39999961853027 5.035560607910156 L 16 5.729490280151367 L 11.88327980041504 9.53557014465332 L 12.94427013397217 15 L 8 12.31672096252441 L 3.055729866027832 15 L 4.116720199584961 9.53557014465332 L 0 5.729490280151367 L 5.600000381469727 5.03557014465332 L 8 9.5367431640625e-07 Z" stroke="none" fill="#fec42d"/>
    </g>
    <g id="多边形_80" data-name="多边形 80" transform="translate(-12695 -22164)" fill="none">
      <path d="M8,0l2.4,5.036,5.6.694L11.883,9.536,12.944,15,8,12.317,3.056,15,4.117,9.536,0,5.729l5.6-.694Z" stroke="none"/>
      <path d="M 8.000000953674316 2.324263572692871 L 6.266900062561035 5.960580825805664 L 2.260039329528809 6.457087516784668 L 5.204549789428711 9.179410934448242 L 4.441326141357422 13.11025619506836 L 8 11.17895030975342 L 11.55867385864258 13.11025619506836 L 10.79545021057129 9.179410934448242 L 13.73996353149414 6.457084655761719 L 9.733099937438965 5.960570335388184 L 8.000000953674316 2.324263572692871 M 8 9.5367431640625e-07 L 10.39999961853027 5.035560607910156 L 16 5.729490280151367 L 11.88327980041504 9.53557014465332 L 12.94427013397217 15 L 8 12.31672096252441 L 3.055729866027832 15 L 4.116720199584961 9.53557014465332 L 0 5.729490280151367 L 5.600000381469727 5.03557014465332 L 8 9.5367431640625e-07 Z" stroke="none" fill="#fec42d"/>
    </g>
  </g>
</svg>
