<svg xmlns="http://www.w3.org/2000/svg" width="20" height="20" viewBox="0 0 20 20">
  <g id="グループ_61992" data-name="グループ 61992" transform="translate(-158 -1274)">
    <circle id="楕円形_427" data-name="楕円形 427" cx="10" cy="10" r="10" transform="translate(158 1274)" fill="#474747"/>
    <path id="パス_106464" data-name="パス 106464" d="M-7.68-25.96a7.214,7.214,0,0,1-.045-.771c0-.8.242-1.164,1.179-1.8a6.172,6.172,0,0,0,1.859-1.557,2.84,2.84,0,0,0,.529-1.783,2.6,2.6,0,0,0-1.073-2.116,4.724,4.724,0,0,0-3.038-.907,4.89,4.89,0,0,0-3.34,1.058A3.823,3.823,0,0,0-12.8-31.552l2.237.272a2.193,2.193,0,0,1,.363-1.149,2.117,2.117,0,0,1,1.814-.862c1.285,0,2.086.574,2.086,1.5,0,.7-.348,1.164-1.33,1.814a5.052,5.052,0,0,0-1.421,1.134,3.027,3.027,0,0,0-.62,1.965l.015.287a5.2,5.2,0,0,1-.045.635ZM-9.8-24.705v2.071H-7.6v-2.071Z" transform="translate(176.483 1312.842)" fill="#fff"/>
  </g>
</svg>
