<svg xmlns="http://www.w3.org/2000/svg" width="15.305" height="12.034" viewBox="0 0 15.305 12.034">
  <path id="list001_-_E0BA" data-name="list001 - E0BA" d="M-10.674-23.154a.7.7,0,0,1-.594-.771.7.7,0,0,1,.594-.771.7.7,0,0,1,.594.771A.7.7,0,0,1-10.674-23.154Zm13.711-.386H-8.389v-.771H3.037Zm-13.711,5.131a.7.7,0,0,1-.594-.771.7.7,0,0,1,.594-.771.7.7,0,0,1,.594.771A.7.7,0,0,1-10.674-18.408Zm13.711-.386H-8.389v-.771H3.037Zm-13.711,5.131a.7.7,0,0,1-.594-.771.7.7,0,0,1,.594-.771.7.7,0,0,1,.594.771A.7.7,0,0,1-10.674-13.662Zm13.711-.386H-8.389v-.771H3.037Z" transform="translate(11.768 25.196)" fill="#fcaa00" stroke="#ffac00" stroke-width="1"/>
</svg>
