<svg xmlns="http://www.w3.org/2000/svg" width="54.288" height="55.142" viewBox="0 0 54.288 55.142">
  <path id="路径_1188" data-name="路径 1188" d="M341.314,486.154a3.953,3.953,0,0,0-2.444-1.683,3.974,3.974,0,0,0-2.649-5.726,3.876,3.876,0,0,0,.374-1.058,3.974,3.974,0,0,0-3.025-4.67,3.977,3.977,0,0,0-5.718-5.164l-3.958,2.622a24.6,24.6,0,0,0-6.684-2.262,18.484,18.484,0,0,0-2.551-3.088l-1.637-1.585a3.584,3.584,0,0,0-5.483,4.55c.044.065.085.131.125.2a24.944,24.944,0,1,0,28.432,32.92.857.857,0,0,0-1.612-.581A23.261,23.261,0,0,1,305.3,514.78l6.976-4.621h0l5.8-3.841h0a2.339,2.339,0,0,0,.66-3.241l-.076-.115,1.124-.747a3.823,3.823,0,0,1,2.723-.587,5.521,5.521,0,0,0,3.939-.854l9.344-6.185a23.615,23.615,0,0,1-.316,2.409.858.858,0,0,0,.685,1,.8.8,0,0,0,.158.013.855.855,0,0,0,.843-.7,25.076,25.076,0,0,0,.409-3.9l2.633-1.743a3.981,3.981,0,0,0,1.119-5.513Zm-19.086-14.579-2.619,1.735-.518-1.391a18,18,0,0,0-.734-1.7A22.947,22.947,0,0,1,322.228,471.576Zm-27.152,5.945a23.236,23.236,0,0,1,13.409-7.647,10.6,10.6,0,0,1,.535,6.417l-2.09,9.033a2.336,2.336,0,0,0-2.993-.349l-5.923,3.92h0l-8.542,5.658c-.046-.6-.071-1.211-.071-1.817A23.222,23.222,0,0,1,295.076,477.52Zm22.316,26.973a.619.619,0,0,1-.267.4h0l-5.093,3.372-9.45-14.093a.857.857,0,1,0-1.424.955l9.445,14.085-7.268,4.815a23.3,23.3,0,0,1-13.638-17.6l8.552-5.644.982,1.468a.857.857,0,0,0,.715.382.825.825,0,0,0,.475-.147.854.854,0,0,0,.235-1.189l-.977-1.457,5.205-3.435a.6.6,0,0,1,.466-.09.63.63,0,0,1,.4.265L317.3,504.023A.631.631,0,0,1,317.391,504.493ZM340.214,488.8a2.246,2.246,0,0,1-.966,1.438l-3.009,1.992-.005,0-10.74,7.112a3.817,3.817,0,0,1-2.72.589,5.542,5.542,0,0,0-3.942.851l-1.124.748-9.464-14.29,2.447-10.566a12.328,12.328,0,0,0-.9-8.086l-.036-.076a12.472,12.472,0,0,0-.786-1.372,1.869,1.869,0,0,1,2.859-2.373l1.637,1.588a16.725,16.725,0,0,1,4.021,6.16l.892,2.4.005.014.005.016.019.038a.508.508,0,0,0,.06.106.855.855,0,0,0,1.187.243l9.144-6.056a2.263,2.263,0,1,1,2.5,3.773l-.794.524v0l-1.77,1.17-.008.005-.027.022a.856.856,0,0,0,.982,1.4l1.771-1.173a2.263,2.263,0,1,1,2.5,3.773l-2.567,1.7a.859.859,0,0,0,.475,1.574.835.835,0,0,0,.472-.144l.4-.262,1.372-.911a2.263,2.263,0,1,1,2.5,3.773l-1.282.848-.019.014-1.263.837a.856.856,0,0,0,.475,1.571.867.867,0,0,0,.472-.142l.4-.262h0l1.372-.911a2.262,2.262,0,0,1,3.135.638A2.221,2.221,0,0,1,340.214,488.8Z" transform="translate(-287.688 -462.532)" fill="#f8bc04"/>
</svg>
