<svg xmlns="http://www.w3.org/2000/svg" width="17.969" height="20.859" viewBox="0 0 17.969 20.859">
  <g id="ico_message" transform="translate(-35.48)">
    <path id="路径_5118" data-name="路径 5118" d="M52.894,14.22a14.082,14.082,0,0,1-1.4-2.355,10.962,10.962,0,0,1-.849-3.175,9.614,9.614,0,0,0-.688-2.617,6.288,6.288,0,0,0-.921-1.517,5.2,5.2,0,0,0-2-1.484,5.644,5.644,0,0,0-.855-.283h0A1.92,1.92,0,1,0,42.7,2.669c.017.041.036.081.056.12h0a5.8,5.8,0,0,0-.594.18,5.261,5.261,0,0,0-1.455.8,5.707,5.707,0,0,0-1.595,2.02,9.27,9.27,0,0,0-.817,2.9,10.985,10.985,0,0,1-.85,3.175,14.13,14.13,0,0,1-1.4,2.355,3.017,3.017,0,0,0-.556,1.731,2.768,2.768,0,0,0,.132.851,2.287,2.287,0,0,0,.674,1.04,1.863,1.863,0,0,0,.548.328,1.816,1.816,0,0,0,.654.121h4.132a2.829,2.829,0,0,0,.21.823,2.861,2.861,0,0,0,5.007.485,2.842,2.842,0,0,0,.473-1.308h4.131a1.814,1.814,0,0,0,.85-.21,1.945,1.945,0,0,0,.5-.383,2.325,2.325,0,0,0,.487-.8,2.734,2.734,0,0,0,.167-.951A3.022,3.022,0,0,0,52.894,14.22ZM43.849,1.661a.674.674,0,0,1,.243-.295.671.671,0,0,1,.634-.061.677.677,0,0,1,.295.243.671.671,0,0,1,.061.634.672.672,0,0,1-.243.295.671.671,0,0,1-.634.061.672.672,0,0,1-.295-.243.671.671,0,0,1-.061-.634ZM38.583,12.377a12.245,12.245,0,0,0,.949-3.528,8.381,8.381,0,0,1,.593-2.276,5.037,5.037,0,0,1,.736-1.216,3.947,3.947,0,0,1,1.522-1.133,5.314,5.314,0,0,1,2.082-.383,5.473,5.473,0,0,1,1.879.3,4,4,0,0,1,1.111.614A4.448,4.448,0,0,1,48.7,6.342a8.056,8.056,0,0,1,.7,2.508,12.247,12.247,0,0,0,.949,3.528,12.706,12.706,0,0,0,.973,1.754H37.611A12.685,12.685,0,0,0,38.583,12.377Zm7.364,6.248a1.618,1.618,0,0,1-.583.708,1.611,1.611,0,0,1-1.524.148,1.62,1.62,0,0,1-.708-.583,1.6,1.6,0,0,1-.249-.607h3.163A1.584,1.584,0,0,1,45.947,18.625Zm6.179-2.209a1.045,1.045,0,0,1-.3.474.626.626,0,0,1-.182.111.557.557,0,0,1-.2.038H37.489a.566.566,0,0,1-.267-.065.68.68,0,0,1-.179-.139,1.063,1.063,0,0,1-.221-.367,1.493,1.493,0,0,1-.089-.516,1.746,1.746,0,0,1,.272-.925H51.926a1.75,1.75,0,0,1,.271.925A1.505,1.505,0,0,1,52.126,16.416Z" transform="translate(0 0)" fill="#2d2d2d"/>
  </g>
</svg>
