<svg xmlns="http://www.w3.org/2000/svg" width="17.151" height="11.634" viewBox="0 0 17.151 11.634">
  <g id="mail_1_" data-name="mail (1)" transform="translate(-4.7 -85.033)">
    <g id="组_227" data-name="组 227" transform="translate(0 85.333)">
      <path id="路径_312" data-name="路径 312" d="M15.7,85.333H.849A.851.851,0,0,0,0,86.182v9.337a.851.851,0,0,0,.849.849H15.7a.851.851,0,0,0,.849-.849V86.182A.851.851,0,0,0,15.7,85.333Zm-.319.637-6.62,4.965a.887.887,0,0,1-.977,0L1.167,85.97Zm-3.536,5.293,3.607,4.456.012.012H1.084l.012-.012L4.7,91.263a.318.318,0,0,0-.495-.4L.637,95.274V86.367l6.769,5.077a1.519,1.519,0,0,0,1.74,0l6.769-5.077v8.907l-3.572-4.412a.318.318,0,0,0-.495.4Z" transform="translate(5 -85.333)" fill="#fcaa00" stroke="#ffac00" stroke-width="0.6"/>
    </g>
  </g>
</svg>
