<svg xmlns="http://www.w3.org/2000/svg" width="18.758" height="20.213" viewBox="0 0 18.758 20.213">
  <path id="user001_-_E024" data-name="user001 - E024" d="M1.347-18.077A5.768,5.768,0,0,0,4.692-23.3a5.738,5.738,0,0,0-5.737-5.737A5.738,5.738,0,0,0-6.782-23.3a5.768,5.768,0,0,0,3.345,5.22,9.163,9.163,0,0,0-6.787,8.856h.84A8.318,8.318,0,0,1-1.045-17.56,8.318,8.318,0,0,1,7.294-9.221h.84A9.163,9.163,0,0,0,1.347-18.077ZM-5.941-23.3a4.883,4.883,0,0,1,4.9-4.9,4.883,4.883,0,0,1,4.9,4.9,4.9,4.9,0,0,1-4.9,4.9A4.9,4.9,0,0,1-5.941-23.3Z" transform="translate(10.424 29.234)" fill="#888" stroke="#888" stroke-width="0.4"/>
</svg>
