<svg xmlns="http://www.w3.org/2000/svg" width="19" height="14.884" viewBox="0 0 19 14.884">
  <path id="list001_-_E0BA" data-name="list001 - E0BA" d="M-10.52-22.755a.875.875,0,0,1-.748-.97.875.875,0,0,1,.748-.97.875.875,0,0,1,.748.97A.875.875,0,0,1-10.52-22.755ZM6.732-23.24H-7.645v-.97H6.732ZM-10.52-16.784a.875.875,0,0,1-.748-.97.875.875,0,0,1,.748-.97.875.875,0,0,1,.748.97A.875.875,0,0,1-10.52-16.784Zm17.252-.485H-7.645v-.97H6.732ZM-10.52-10.812a.875.875,0,0,1-.748-.97.875.875,0,0,1,.748-.97.875.875,0,0,1,.748.97A.875.875,0,0,1-10.52-10.812ZM6.732-11.3H-7.645v-.97H6.732Z" transform="translate(11.768 25.196)" fill="#fcaa00" stroke="#000" stroke-width="1"/>
</svg>
