<svg xmlns="http://www.w3.org/2000/svg" width="18.61" height="18.703" viewBox="0 0 18.61 18.703">
  <path id="search001_-_E000" data-name="search001 - E000" d="M3.264-22.295a7.492,7.492,0,0,0-7.5-7.513,7.5,7.5,0,0,0-7.5,7.513,7.5,7.5,0,0,0,7.5,7.487,7.469,7.469,0,0,0,5-1.908l4.4,4.4.494-.494L1.262-17.2A7.393,7.393,0,0,0,3.264-22.295ZM-1.58-16.036a6.938,6.938,0,0,1-2.656.534,6.587,6.587,0,0,1-2.642-.534A6.571,6.571,0,0,1-9.04-17.49a6.765,6.765,0,0,1-1.468-2.149,6.938,6.938,0,0,1-.534-2.656,6.888,6.888,0,0,1,.534-2.656,7.069,7.069,0,0,1,1.455-2.175A6.933,6.933,0,0,1-6.892-28.58a6.7,6.7,0,0,1,2.656-.534,7,7,0,0,1,2.669.534A6.95,6.95,0,0,1,.582-27.126a8.693,8.693,0,0,1,.841,1.014A8.144,8.144,0,0,1,2.05-24.95a6.926,6.926,0,0,1,.52,2.656,6.745,6.745,0,0,1-.52,2.629A6.783,6.783,0,0,1,.6-17.5a6.1,6.1,0,0,1-1.014.827A6.13,6.13,0,0,1-1.58-16.036Z" transform="translate(12.236 30.308)" fill="#f2f2f2" stroke="#000" stroke-width="1"/>
</svg>
