<svg xmlns="http://www.w3.org/2000/svg" width="14.609" height="15.641" viewBox="0 0 14.609 15.641">
  <g id="组_1066" data-name="组 1066" transform="translate(-813.631 -1888.41)">
    <path id="路径_1250" data-name="路径 1250" d="M50.888,302.679H44.674a.925.925,0,0,0,.061-.328.939.939,0,1,0-1.879,0,.99.99,0,0,0,.061.328H36.7a.21.21,0,0,0-.21.21v1.181a.209.209,0,0,0,.077.16v12.258a.214.214,0,0,0,.212.212h.132l0,.033a.317.317,0,0,0,.317.317H50.364a.317.317,0,0,0,.317-.317l0-.033h.157a.214.214,0,0,0,.212-.212V304.2a.2.2,0,0,0,.052-.135v-1.181a.21.21,0,0,0-.212-.21m-7.091-.635a.3.3,0,0,1,.3.306.3.3,0,1,1-.3-.306m6.616,13.809a.213.213,0,0,1-.212.212H37.429a.214.214,0,0,1-.212-.212V304.282h13.2Z" transform="translate(777.14 1587)" fill="#4b4b4b"/>
    <path id="路径_1251" data-name="路径 1251" d="M39.734,309.5a.958.958,0,0,1-.687-.273,1.291,1.291,0,0,1-.345-.773.684.684,0,0,0-1.366.061.621.621,0,0,0,.022.16,2.216,2.216,0,0,0,.745,1.415,2.4,2.4,0,0,0,1.642.568,2.426,2.426,0,0,0,1.746-.676,2.2,2.2,0,0,0,.7-1.636,1.742,1.742,0,0,0-.375-1.131,1.694,1.694,0,0,0-1-.6,1.664,1.664,0,0,0,.535-2.748,2.173,2.173,0,0,0-1.65-.657,2.513,2.513,0,0,0-1.087.229,1.824,1.824,0,0,0-.759.621,2.936,2.936,0,0,0-.406,1.057h0a.506.506,0,0,0-.014.13.65.65,0,0,0,1.294.088h.008a1.169,1.169,0,0,1,.306-.726.85.85,0,0,1,.613-.248.751.751,0,0,1,.8.806.869.869,0,0,1-.3.7,1.062,1.062,0,0,1-.613.237l-.008.006a.515.515,0,0,0,.011,1.021,1.526,1.526,0,0,0,.215.014l.019,0a.911.911,0,0,1,.69.309,1.2,1.2,0,0,1,.284.836,1.282,1.282,0,0,1-.3.886.951.951,0,0,1-.731.328" transform="translate(778.626 1590.168)" fill="#4b4b4b"/>
    <path id="路径_1252" data-name="路径 1252" d="M43.249,303.968a2.2,2.2,0,0,0-3.308-.011,6.66,6.66,0,0,0-.063,5.885,2.085,2.085,0,0,0,1.716.819,1.987,1.987,0,0,0,1.653-.748,6.53,6.53,0,0,0,0-5.946m-.894,4.792a1.078,1.078,0,0,1-.309.579.7.7,0,0,1-.452.163.686.686,0,0,1-.45-.16,1.254,1.254,0,0,1-.328-.64,11.991,11.991,0,0,1,.017-3.59,1.1,1.1,0,0,1,.309-.579.7.7,0,0,1,.452-.163.694.694,0,0,1,.45.163,1.233,1.233,0,0,1,.326.643,7.766,7.766,0,0,1,.13,1.763,7.92,7.92,0,0,1-.143,1.821" transform="translate(781.947 1590.17)" fill="#4b4b4b"/>
  </g>
</svg>
