<svg xmlns="http://www.w3.org/2000/svg" width="21.839" height="19.917" viewBox="0 0 21.839 19.917">
  <path id="ico_heart_o" d="M4.339-27.576A6.139,6.139,0,0,0-.1-25.65a6.139,6.139,0,0,0-4.44-1.926,6.038,6.038,0,0,0-6.08,6.009,6.075,6.075,0,0,0,1.676,4.19h.018L-.1-8.623l8.665-8.594a5.942,5.942,0,0,0,1.854-4.35A6.038,6.038,0,0,0,4.339-27.576Zm0,.927a5.118,5.118,0,0,1,5.153,5.082,5.01,5.01,0,0,1-1.569,3.691L-.1-9.924l-8.184-8.113h.018a4.99,4.99,0,0,1-1.426-3.53A5.118,5.118,0,0,1-4.54-26.649,5.253,5.253,0,0,1-.1-24.135,5.253,5.253,0,0,1,4.339-26.649Z" transform="translate(11.02 27.976)" fill="#2d2d2d" stroke="#2d2d2d" stroke-width="0.8"/>
</svg>
