<svg xmlns="http://www.w3.org/2000/svg" width="19" height="19" viewBox="0 0 19 19">
  <path id="calendar004_-_E144" data-name="calendar004 - E144" d="M5.84-27.5H2v-1.328a.139.139,0,0,0-.148-.148.139.139,0,0,0-.148.148V-27.5H-5.669v-1.328a.139.139,0,0,0-.148-.148.139.139,0,0,0-.148.148V-27.5H-9.8a1.184,1.184,0,0,0-1.18,1.18V-12.16A1.184,1.184,0,0,0-9.8-10.98H5.84a1.184,1.184,0,0,0,1.18-1.18V-26.324A1.184,1.184,0,0,0,5.84-27.5Zm-15.639.3h3.836v1.328a.139.139,0,0,0,.148.148.139.139,0,0,0,.148-.148V-27.21H1.709v1.328a.139.139,0,0,0,.148.148A.139.139,0,0,0,2-25.882V-27.21H5.84a.888.888,0,0,1,.885.885v2.907h-17.41v-2.907A.888.888,0,0,1-9.8-27.21ZM5.84-11.275H-9.8a.888.888,0,0,1-.885-.885V-23.123H6.725V-12.16A.888.888,0,0,1,5.84-11.275ZM-4.783-20.452a.435.435,0,0,0-.443-.443.435.435,0,0,0-.443.443.435.435,0,0,0,.443.443A.435.435,0,0,0-4.783-20.452Zm3.246,0a.435.435,0,0,0-.443-.443.435.435,0,0,0-.443.443.435.435,0,0,0,.443.443A.435.435,0,0,0-1.537-20.452Zm3.246.015a.435.435,0,0,0-.443-.443.435.435,0,0,0-.443.443.435.435,0,0,0,.443.443A.435.435,0,0,0,1.709-20.437Zm3.246,0a.435.435,0,0,0-.443-.443.435.435,0,0,0-.443.443.435.435,0,0,0,.443.443A.435.435,0,0,0,4.954-20.437Zm-9.738,3.231a.435.435,0,0,0-.443-.443.435.435,0,0,0-.443.443.435.435,0,0,0,.443.443A.435.435,0,0,0-4.783-17.206Zm-3.246.015a.435.435,0,0,0-.443-.443.435.435,0,0,0-.443.443.435.435,0,0,0,.443.443A.435.435,0,0,0-8.029-17.191Zm6.492,0a.435.435,0,0,0-.443-.443.435.435,0,0,0-.443.443.435.435,0,0,0,.443.443A.435.435,0,0,0-1.537-17.191Zm3.246,0a.435.435,0,0,0-.443-.443.435.435,0,0,0-.443.443.435.435,0,0,0,.443.443A.435.435,0,0,0,1.709-17.191Zm3.246,0a.435.435,0,0,0-.443-.443.435.435,0,0,0-.443.443.435.435,0,0,0,.443.443A.435.435,0,0,0,4.954-17.191ZM-4.783-13.96a.435.435,0,0,0-.443-.443.435.435,0,0,0-.443.443.435.435,0,0,0,.443.443A.435.435,0,0,0-4.783-13.96Zm-3.246.015a.435.435,0,0,0-.443-.443.435.435,0,0,0-.443.443.435.435,0,0,0,.443.443A.435.435,0,0,0-8.029-13.946Zm6.492,0a.435.435,0,0,0-.443-.443.435.435,0,0,0-.443.443.435.435,0,0,0,.443.443A.435.435,0,0,0-1.537-13.946Z" transform="translate(11.48 29.48)" stroke="#383838" stroke-width="1"/>
</svg>
