<svg xmlns="http://www.w3.org/2000/svg" width="10.256" height="15.488" viewBox="0 0 10.256 15.488">
  <path id="路径_308" data-name="路径 308" d="M7.456,1.824H8.544V.544a5.743,5.743,0,0,0,2.832-.768A3.7,3.7,0,0,0,13.12-3.536a3.37,3.37,0,0,0-1.44-2.928A7.64,7.64,0,0,0,8.544-7.552v-3.072A1.567,1.567,0,0,1,9.6-10.1a1.7,1.7,0,0,1,.464,1.136l2.72-.464a3.774,3.774,0,0,0-1.152-2.192,4.645,4.645,0,0,0-3.088-1.168v-.88H7.456v.848a5.154,5.154,0,0,0-2.56.688A3.472,3.472,0,0,0,3.12-9.008,3.384,3.384,0,0,0,4.512-6.192a7.061,7.061,0,0,0,2.944,1.04v3.52a1.888,1.888,0,0,1-1.3-.576,2.126,2.126,0,0,1-.544-1.536l-2.752.48A3.892,3.892,0,0,0,3.984-.72,5.281,5.281,0,0,0,7.456.528Zm0-9.568C6.272-8.016,5.808-8.416,5.808-9.2c0-.832.608-1.36,1.648-1.44Zm1.088,2.8a5.279,5.279,0,0,1,1.072.32,1.293,1.293,0,0,1,.736,1.28c0,1.008-.624,1.616-1.808,1.728Z" transform="translate(-2.864 13.664)" fill="#f8b52a"/>
</svg>
