<svg xmlns="http://www.w3.org/2000/svg" width="20.68" height="20.698" viewBox="0 0 20.68 20.698">
  <path id="ico_talk" d="M-1.718-10.483a9.683,9.683,0,0,0,9.681-9.681,9.693,9.693,0,0,0-9.681-9.681,9.686,9.686,0,0,0-9.681,9.7,9.59,9.59,0,0,0,1.235,4.727l-1.671,5.39,5.375-1.7A9.618,9.618,0,0,0-1.718-10.483Zm0-.783a8.734,8.734,0,0,1-4.637-1.31l-4.291,1.34,1.34-4.276a8.714,8.714,0,0,1-1.31-4.637,8.909,8.909,0,0,1,8.9-8.913,8.9,8.9,0,0,1,8.9,8.9A8.9,8.9,0,0,1-1.718-11.266Zm-2.74-8.9a.806.806,0,0,0-.8-.813.81.81,0,0,0-.813.813.806.806,0,0,0,.813.8A.8.8,0,0,0-4.458-20.163Zm3.538,0a.806.806,0,0,0-.8-.813.81.81,0,0,0-.813.813.806.806,0,0,0,.813.8A.8.8,0,0,0-.92-20.163Zm3.538,0a.806.806,0,0,0-.8-.813.81.81,0,0,0-.813.813.806.806,0,0,0,.813.8A.8.8,0,0,0,2.618-20.163Z" transform="translate(12.368 30.194)" fill="#2d2d2d" stroke="#2d2d2d" stroke-width="0.7"/>
</svg>
