<svg id="组_993" data-name="组 993" xmlns="http://www.w3.org/2000/svg" width="55.145" height="55.145" viewBox="0 0 55.145 55.145">
  <g id="组_992" data-name="组 992">
    <path id="路径_1189" data-name="路径 1189" d="M418.63,478.8a13.463,13.463,0,1,0-13.463,13.463A13.479,13.479,0,0,0,418.63,478.8Zm-13.463,10.233A10.232,10.232,0,1,1,415.4,478.8,10.243,10.243,0,0,1,405.167,489.031Z" transform="translate(-391.704 -457.688)" fill="#f8bc04"/>
    <path id="路径_1190" data-name="路径 1190" d="M412.668,472.876a13.463,13.463,0,1,0,13.463,13.463A13.479,13.479,0,0,0,412.668,472.876Zm0,23.693a10.232,10.232,0,1,1,10.233-10.23A10.241,10.241,0,0,1,412.668,496.569Z" transform="translate(-378.742 -444.657)" fill="#f8bc04"/>
    <ellipse id="椭圆_132" data-name="椭圆 132" cx="1.616" cy="1.616" rx="1.616" ry="1.616" transform="translate(35.543 37.374)" fill="#f8bc04"/>
    <ellipse id="椭圆_133" data-name="椭圆 133" cx="1.616" cy="1.616" rx="1.616" ry="1.616" transform="translate(29.081 37.374)" fill="#f8bc04"/>
    <path id="路径_1191" data-name="路径 1191" d="M411.059,479.01a4.482,4.482,0,0,1-6.332,0,1.617,1.617,0,0,0-2.286,2.286,7.719,7.719,0,0,0,10.9,0,1.616,1.616,0,0,0-2.283-2.286Z" transform="translate(-373.966 -434.873)" fill="#f8bc04"/>
    <ellipse id="椭圆_134" data-name="椭圆 134" cx="1.616" cy="1.616" rx="1.616" ry="1.616" transform="translate(15.08 16.802)" fill="#f8bc04"/>
    <ellipse id="椭圆_135" data-name="椭圆 135" cx="1.616" cy="1.616" rx="1.616" ry="1.616" transform="translate(8.617 16.802)" fill="#f8bc04"/>
    <path id="路径_1192" data-name="路径 1192" d="M404.7,471.257h-8.618a1.616,1.616,0,0,0,0,3.233H404.7a1.616,1.616,0,0,0,0-3.233Z" transform="translate(-386.928 -447.455)" fill="#f8bc04"/>
    <path id="路径_1193" data-name="路径 1193" d="M415.511,462.532A13.463,13.463,0,1,0,428.974,476,13.479,13.479,0,0,0,415.511,462.532Zm0,23.7A10.232,10.232,0,1,1,425.741,476,10.246,10.246,0,0,1,415.511,486.228Z" transform="translate(-373.829 -462.532)" fill="#f8bc04"/>
    <ellipse id="椭圆_136" data-name="椭圆 136" cx="1.616" cy="1.616" rx="1.616" ry="1.616" transform="translate(43.297 9.156)" fill="#f8bc04"/>
    <ellipse id="椭圆_137" data-name="椭圆 137" cx="1.616" cy="1.616" rx="1.616" ry="1.616" transform="translate(36.835 9.156)" fill="#f8bc04"/>
    <path id="路径_1194" data-name="路径 1194" d="M405.284,470.316a1.615,1.615,0,1,0,2.283,2.283,4.482,4.482,0,0,1,6.332,0,1.616,1.616,0,0,0,2.286-2.283,7.716,7.716,0,0,0-10.9,0Z" transform="translate(-369.053 -452.977)" fill="#f8bc04"/>
  </g>
</svg>
