<svg xmlns="http://www.w3.org/2000/svg" width="48" height="47.999" viewBox="0 0 48 47.999">
  <g id="paint-palette" transform="translate(0 -0.004)">
    <path id="路径_1253" data-name="路径 1253" d="M125.13,30.232a18.513,18.513,0,0,0-2.73-.12c-7.2.26-13.51,4.539-17.013,8.458V57.94l1.222.139c3.685.42,6.235,1.592,7.582,3.484a6.8,6.8,0,0,1,.935,5.247,4.234,4.234,0,0,0,3.215,5.168,21.279,21.279,0,0,0,4,.382A21.353,21.353,0,0,0,143.5,51.11c-.094-11.472-9.362-19.889-18.375-20.878Z" transform="translate(-95.505 -27.276)" fill="#fabe2c"/>
    <path id="路径_1254" data-name="路径 1254" d="M334.375,52.374C334.281,40.9,325.013,32.485,316,31.5V73.415A21.1,21.1,0,0,0,334.375,52.374Z" transform="translate(-286.375 -28.54)" fill="#ff9100"/>
    <g id="组_1054" data-name="组 1054" transform="translate(30.55 11.832)">
      <path id="路径_1255" data-name="路径 1255" d="M327.108,133.369a4.22,4.22,0,1,1,5.967,0h0A4.229,4.229,0,0,1,327.108,133.369Z" transform="translate(-325.875 -126.167)" fill="#00c8c8"/>
    </g>
    <g id="组_1055" data-name="组 1055" transform="translate(19.681 8.919)">
      <path id="路径_1256" data-name="路径 1256" d="M210.081,100.4a4.218,4.218,0,1,1,5.166,2.984A4.215,4.215,0,0,1,210.081,100.4Z" transform="translate(-209.936 -95.096)" fill="#474f54"/>
    </g>
    <g id="组_1056" data-name="组 1056" transform="translate(11.726 16.872)">
      <path id="路径_1257" data-name="路径 1257" d="M128.209,188.228a4.218,4.218,0,1,1,5.166-2.983A4.222,4.222,0,0,1,128.209,188.228Z" transform="translate(-125.082 -179.933)" fill="#ff435b"/>
    </g>
    <g id="组_1057" data-name="组 1057" transform="translate(33.459 22.696)">
      <path id="路径_1258" data-name="路径 1258" d="M360.025,250.345a4.218,4.218,0,1,1,5.166-2.983A4.213,4.213,0,0,1,360.025,250.345Z" transform="translate(-356.896 -242.051)" fill="#99341f"/>
    </g>
    <path id="路径_1259" data-name="路径 1259" d="M50.219,0C46.732,0,46,13.1,46,24c0,.49.006.94.01,1.406l2.978,1.406h3.223l2.217-1.406c0-.467.009-.908.009-1.406,0-10.905-.732-24-4.219-24Z" transform="translate(-41.688)" fill="#b35324"/>
    <path id="路径_1260" data-name="路径 1260" d="M95.209,25.41c0-.467.009-.908.009-1.406C95.219,13.1,94.487,0,91,0V26.816h1.992Z" transform="translate(-82.469)" fill="#99341f"/>
    <path id="路径_1261" data-name="路径 1261" d="M50.315,271H46.106c.05,6.219.407,10.3.427,10.68H54.1c.037-.687.381-4.192.427-10.68Z" transform="translate(-41.784 -245.594)" fill="#fff7e6"/>
    <path id="路径_1262" data-name="路径 1262" d="M95.209,271H91v10.68h3.782C94.819,281,95.163,277.492,95.209,271Z" transform="translate(-82.469 -245.594)" fill="#ffccb3"/>
    <path id="路径_1263" data-name="路径 1263" d="M8.531,361a5.63,5.63,0,0,0-5.625,5.625v2.812A2.979,2.979,0,0,1,0,372.348v2.812H5.719a8.338,8.338,0,0,0,2.812-.518,8.546,8.546,0,0,0,5.625-8.013A5.63,5.63,0,0,0,8.531,361Z" transform="translate(0 -327.157)" fill="#474f54"/>
    <path id="路径_1264" data-name="路径 1264" d="M96.625,366.629A5.63,5.63,0,0,0,91,361v13.638A8.546,8.546,0,0,0,96.625,366.629Z" transform="translate(-82.469 -327.157)" fill="#32393f"/>
    <circle id="椭圆_143" data-name="椭圆 143" cx="4.219" cy="4.219" r="4.219" transform="translate(25.406 31.035)" fill="#fff7e6"/>
    <path id="路径_1265" data-name="路径 1265" d="M320.219,335.223A4.219,4.219,0,0,0,316,331v8.437A4.219,4.219,0,0,0,320.219,335.223Z" transform="translate(-286.375 -299.969)" fill="#ffe6cc"/>
  </g>
</svg>
