<svg id="组_985" data-name="组 985" xmlns="http://www.w3.org/2000/svg" width="81.49" height="55.144" viewBox="0 0 81.49 55.144">
  <g id="组_984" data-name="组 984">
    <g id="组_983" data-name="组 983">
      <path id="路径_1181" data-name="路径 1181" d="M137.053,487.169c0-14.882-15.686-24.637-31.348-24.637-15.725,0-31.348,9.8-31.348,24.637a21.679,21.679,0,0,0,6.921,15.454.671.671,0,0,1,.172.66,35.939,35.939,0,0,1-6.086,11.531,1.771,1.771,0,0,0,1.4,2.859h.044c6.67-.166,14.4-2.049,19.176-6.744a.687.687,0,0,1,.641-.175,39.437,39.437,0,0,0,9.082,1.05c15.719,0,31.348-9.8,31.348-24.637ZM97.174,508.435a3.051,3.051,0,0,0-2.867.794c-4.777,4.695-12.579,5.764-16.27,6a37.249,37.249,0,0,0,5.715-11.319,3.058,3.058,0,0,0-.808-3,19.063,19.063,0,0,1-6.2-13.747c0-12.268,12.991-22.25,28.961-22.25s28.961,9.982,28.961,22.25-12.991,22.25-28.961,22.25a37.1,37.1,0,0,1-8.531-.985Z" transform="translate(-74.356 -462.532)" fill="#f8bc04"/>
      <path id="路径_1182" data-name="路径 1182" d="M111.763,500.868c6.962-3.519,11.117-9.513,11.117-16.039,0-9.218-8.334-17.1-19.819-18.734a1.194,1.194,0,1,0-.336,2.365c10.3,1.465,17.768,8.351,17.768,16.368,0,5.606-3.667,10.8-9.8,13.905a2.953,2.953,0,0,0-1.555,3.246,24.863,24.863,0,0,0,2.81,6.984c-7.049-1.173-9.72-4.556-10.566-6.021a2.942,2.942,0,0,0-2.548-1.462h-.1a28.6,28.6,0,0,1-3.939-.273,1.193,1.193,0,1,0-.33,2.363,30.83,30.83,0,0,0,4.269.3h.1a.548.548,0,0,1,.477.27c3.233,5.6,10.667,7.033,13.711,7.388a1.734,1.734,0,0,0,1.661-2.657,23.63,23.63,0,0,1-3.214-7.388.556.556,0,0,1,.295-.614Z" transform="translate(-41.39 -456.395)" fill="#f8bc04"/>
      <path id="路径_1183" data-name="路径 1183" d="M81.658,470a4.137,4.137,0,1,0,4.138,4.136A4.14,4.14,0,0,0,81.658,470Zm0,5.887a1.75,1.75,0,1,1,1.749-1.751A1.751,1.751,0,0,1,81.658,475.885Z" transform="translate(-68.885 -449.63)" fill="#f8bc04"/>
      <path id="路径_1184" data-name="路径 1184" d="M85.984,470a4.137,4.137,0,1,0,4.138,4.136A4.14,4.14,0,0,0,85.984,470Zm0,5.887a1.75,1.75,0,1,1,1.751-1.751A1.753,1.753,0,0,1,85.984,475.885Z" transform="translate(-61.409 -449.63)" fill="#f8bc04"/>
      <path id="路径_1185" data-name="路径 1185" d="M90.31,470a4.137,4.137,0,1,0,4.138,4.136A4.14,4.14,0,0,0,90.31,470Zm0,5.887a1.75,1.75,0,1,1,1.751-1.751A1.753,1.753,0,0,1,90.31,475.885Z" transform="translate(-53.934 -449.63)" fill="#f8bc04"/>
      <path id="路径_1186" data-name="路径 1186" d="M94.638,470a4.137,4.137,0,1,0,4.136,4.136A4.143,4.143,0,0,0,94.638,470Zm0,5.887a1.75,1.75,0,1,1,1.749-1.751A1.753,1.753,0,0,1,94.638,475.885Z" transform="translate(-46.458 -449.63)" fill="#f8bc04"/>
    </g>
  </g>
</svg>
