<svg id="icon_spfixed02" xmlns="http://www.w3.org/2000/svg" width="34.267" height="34.268" viewBox="0 0 34.267 34.268">
  <path id="路径_598" data-name="路径 598" d="M3.716,524.995l-1.675-1.677a2.01,2.01,0,0,0-2.84,0l-3.531,3.53V515.5a3.015,3.015,0,0,0-3.011-3.013H-26.952a3.015,3.015,0,0,0-3.011,3.013v28.244a3.015,3.015,0,0,0,3.011,3.011H-7.341a3.015,3.015,0,0,0,3.011-3.011v-7.968l8.046-7.944a2.01,2.01,0,0,0,0-2.84ZM-8.29,536.869l-3.021,1.41,1.409-3.018,7.5-7.5,1.656,1.658Zm1.953,6.878a1.006,1.006,0,0,1-1,1H-26.952a1.006,1.006,0,0,1-1-1V515.5a1.006,1.006,0,0,1,1-1.005H-7.341a1.006,1.006,0,0,1,1,1.005v13.354c-5.567,5.567-5.2,5.167-5.31,5.394L-14.3,539.93a1.007,1.007,0,0,0,.2,1.136,1,1,0,0,0,1.134.2l5.679-2.65c.209-.1.242-.158.948-.853ZM.678,528.012l-1.667-1.665,1.609-1.609L2.3,526.415Z" transform="translate(29.963 -512.49)" fill="#555"/>
  <path id="路径_599" data-name="路径 599" d="M-26.393,518.328H-11.4a1,1,0,0,0,1.005-1,1,1,0,0,0-1.005-1.005H-26.393a1,1,0,0,0-1,1.005,1,1,0,0,0,1,1Z" transform="translate(31.747 -509.828)" fill="#555"/>
  <path id="路径_600" data-name="路径 600" d="M-26.393,521.485h11.779a1,1,0,0,0,1.005-1,1,1,0,0,0-1.005-1H-26.393a1,1,0,0,0-1,1,1,1,0,0,0,1,1Z" transform="translate(31.747 -507.631)" fill="#555"/>
  <path id="路径_601" data-name="路径 601" d="M-17.825,522.636h-8.568a1,1,0,0,0-1,1,1,1,0,0,0,1,1h8.568a1,1,0,0,0,1-1A1,1,0,0,0-17.825,522.636Z" transform="translate(31.747 -505.435)" fill="#555"/>
</svg>
