<svg xmlns="http://www.w3.org/2000/svg" width="35.398" height="38.123" viewBox="0 0 35.398 38.123">
  <path id="icon_spfixed05" d="M11.456-8.5a10.807,10.807,0,0,0,6.268-9.78A10.752,10.752,0,0,0,6.975-29.034,10.752,10.752,0,0,0-3.774-18.285,10.807,10.807,0,0,0,2.494-8.5,17.169,17.169,0,0,0-10.224,8.089h1.575A15.585,15.585,0,0,1,6.975-7.535,15.585,15.585,0,0,1,22.6,8.089h1.575A17.169,17.169,0,0,0,11.456-8.5ZM-2.2-18.285a9.149,9.149,0,0,1,9.175-9.175,9.149,9.149,0,0,1,9.175,9.175A9.188,9.188,0,0,1,6.975-9.11,9.188,9.188,0,0,1-2.2-18.285Z" transform="translate(10.725 29.534)" fill="#555" stroke="#555" stroke-width="1"/>
</svg>
