<svg xmlns="http://www.w3.org/2000/svg" width="36.006" height="24" viewBox="0 0 36.006 24">
  <path id="icon_search_hd" d="M-9.814-21.481a1.526,1.526,0,0,1-1.454-1.608A1.526,1.526,0,0,1-9.814-24.7,1.526,1.526,0,0,1-8.36-23.088,1.526,1.526,0,0,1-9.814-21.481Zm33.552-.8H-4.222v-1.608h27.96Zm-33.552,10.7A1.526,1.526,0,0,1-11.268-13.2,1.526,1.526,0,0,1-9.814-14.8,1.526,1.526,0,0,1-8.36-13.2,1.526,1.526,0,0,1-9.814-11.588Zm33.552-.8H-4.222V-14h27.96ZM-9.814-1.7A1.526,1.526,0,0,1-11.268-3.3,1.526,1.526,0,0,1-9.814-4.911,1.526,1.526,0,0,1-8.36-3.3,1.526,1.526,0,0,1-9.814-1.7Zm33.552-.8H-4.222V-4.107h27.96Z" transform="translate(11.768 25.196)" stroke="#000" stroke-width="1"/>
</svg>
