<svg xmlns="http://www.w3.org/2000/svg" width="176" height="17" viewBox="0 0 176 17">
  <g id="identity" transform="translate(-606 -1979)">
    <rect id="矩形_554" data-name="矩形 554" width="176" height="17" rx="8.5" transform="translate(606 1979)" fill="#28a745"/>
    <path id="路径_4076" data-name="路径 4076" d="M-28.226-6.534a12.029,12.029,0,0,1-1.793,2.607,10.036,10.036,0,0,1-2.574,2.233,2.075,2.075,0,0,1,.517.649,11.769,11.769,0,0,0,2.09-1.848,10.283,10.283,0,0,0,2.079-3.179c-.033.594-.044,1.012-.044,1.419v2.5h-1.078a6.626,6.626,0,0,1-1.089-.055v.77a6.174,6.174,0,0,1,1.111-.066h1.056V-.473A8.729,8.729,0,0,1-28.028.8h.869a8.184,8.184,0,0,1-.077-1.265V-1.507h1.177a6.052,6.052,0,0,1,1.089.066v-.77a6.485,6.485,0,0,1-1.067.055h-1.2v-2.5c0-.363-.011-.77-.044-1.43a10.47,10.47,0,0,0,2.057,3.091,12.484,12.484,0,0,0,2.288,1.925,2.914,2.914,0,0,1,.506-.715,11.436,11.436,0,0,1-4.532-4.752h2.97a11.871,11.871,0,0,1,1.232.066v-.8a7.2,7.2,0,0,1-1.232.077h-3.245V-8.14a5.912,5.912,0,0,1,.077-.99h-.869a6.232,6.232,0,0,1,.077,1v.935h-3.08a8.191,8.191,0,0,1-1.21-.077v.8a10.852,10.852,0,0,1,1.21-.066Zm11.275-2.475a7.51,7.51,0,0,1,.044.968,9.009,9.009,0,0,1-2.277,6.457A7.767,7.767,0,0,1-21.428.077a2.1,2.1,0,0,1,.594.649A9.355,9.355,0,0,0-18.81-.88a7.4,7.4,0,0,0,1.573-2.255,9.318,9.318,0,0,0,.759-2.453,9.491,9.491,0,0,0,1.43,3.5A10.074,10.074,0,0,0-12.133.726a2.5,2.5,0,0,1,.572-.693,8.1,8.1,0,0,1-1.276-.858,9.725,9.725,0,0,1-1.628-1.738,9.628,9.628,0,0,1-1.419-3.08,14.274,14.274,0,0,1-.242-2.387,7.484,7.484,0,0,1,.055-.979ZM-3.08-.275v-1.3h1.012a7.619,7.619,0,0,1,.979.055V-2.2a5.994,5.994,0,0,1-1,.055h-.99V-3.333h1.012a7.619,7.619,0,0,1,.979.055V-3.96a5.994,5.994,0,0,1-1,.055h-.99V-5.1h1.166a7.952,7.952,0,0,1,.979.055v-.682a5.994,5.994,0,0,1-1,.055H-2.9c.033-.066.033-.066.154-.33.088-.209.154-.352.187-.429a3.315,3.315,0,0,1,.132-.33L-3.1-6.93a5.441,5.441,0,0,1-.462,1.254H-5.049a9.011,9.011,0,0,0,.9-1.716h2.816v1.21h.7a3.4,3.4,0,0,1-.044-.605v-.55a6.057,6.057,0,0,1,.033-.726,8.045,8.045,0,0,1-1.1.055H-3.916c.066-.2.11-.308.176-.517.132-.4.132-.4.2-.572l-.726-.132a9.709,9.709,0,0,1-.319,1.221H-5.775a8.768,8.768,0,0,1-.968-.022c.022.308.022.374.022.572v.638a3.654,3.654,0,0,1-.044.66h.682V-7.392h1.265a7.6,7.6,0,0,1-.4.858A8.557,8.557,0,0,1-7.172-3.982a2.022,2.022,0,0,1,.418.572,5.785,5.785,0,0,0,.759-.935c-.011.088-.022.451-.044,1.089v2.97A8.065,8.065,0,0,1-6.1.869h.693V.319h3.663A8.2,8.2,0,0,1-.7.385V-.33a6.767,6.767,0,0,1-1.045.055Zm-2.332-3.63V-5.1h1.705v1.2Zm0,.572h1.705v1.188H-5.412Zm0,1.76h1.705v1.3H-5.412Zm-3.575-6.49a10.821,10.821,0,0,1-.429,1.958,7.673,7.673,0,0,1-1.342,2.662,1.861,1.861,0,0,1,.4.616,5.6,5.6,0,0,0,.748-1.386c-.022.341-.055,1.056-.055,1.188V-.517A6.517,6.517,0,0,1-9.735.539h.715V-.605h1.2v.539h.66A7.087,7.087,0,0,1-7.2-.99V-4.4a6.754,6.754,0,0,1,.044-.891,4.261,4.261,0,0,1-.682.044h-1.21a14,14,0,0,0,.737-2.816h.627a6.094,6.094,0,0,1,.8.044v-.726a5.782,5.782,0,0,1-.924.066H-9.339a6.527,6.527,0,0,1-.979-.066V-8a4.529,4.529,0,0,1,.935-.066ZM-9.02-4.642h1.2V-1.21h-1.2ZM4.8-6.853a12.033,12.033,0,0,1,1.452.583A4.213,4.213,0,0,1,4.169-4.257a2.039,2.039,0,0,1,.484.528A5.322,5.322,0,0,0,6.809-5.973a7.372,7.372,0,0,1,1.067.682l.363-.539c-.561-.352-.77-.462-1.21-.693a7.069,7.069,0,0,0,.319-1.452H9.339a13.188,13.188,0,0,1-.275,2.552c-.121.473-.22.572-.605.572a4.982,4.982,0,0,1-1.034-.121,1.991,1.991,0,0,1,.165.693,8.8,8.8,0,0,0,.9.055c.594,0,.825-.088.99-.4A9.9,9.9,0,0,0,10.021-8.1c.022-.308.022-.374.044-.528a8.607,8.607,0,0,1-1.023.044H5.676a7.008,7.008,0,0,1-1.111-.066v.737a5.693,5.693,0,0,1,1.1-.066H6.7A6.294,6.294,0,0,1,6.457-6.8a12.681,12.681,0,0,0-1.342-.528ZM.946-8.03a5.322,5.322,0,0,1,.792-.044h1.43a5.515,5.515,0,0,1,.792.044v-.693a3.913,3.913,0,0,1-.792.055H1.738a3.848,3.848,0,0,1-.792-.055ZM.55-6.49a6.47,6.47,0,0,1,.88-.044H3.41a7.745,7.745,0,0,1,.8.033v-.7a4.355,4.355,0,0,1-.88.055H1.43a4.629,4.629,0,0,1-.88-.055ZM.979-4.972a4.363,4.363,0,0,1,.748-.044H3.2a4.64,4.64,0,0,1,.737.044v-.682A4.062,4.062,0,0,1,3.2-5.61H1.727a4.363,4.363,0,0,1-.748-.044Zm0,1.518A4.615,4.615,0,0,1,1.727-3.5H3.2a4.64,4.64,0,0,1,.737.044v-.682a4.14,4.14,0,0,1-.737.044H1.727a4.445,4.445,0,0,1-.748-.044ZM1.694.8V.187h1.54V.66h.671a5.113,5.113,0,0,1-.055-.9V-1.793a7.784,7.784,0,0,1,.033-.858,6.291,6.291,0,0,1-.8.033H1.914a6.341,6.341,0,0,1-.891-.044,7.268,7.268,0,0,1,.044.9v1.5C1.067.11,1.045.462,1.012.8Zm-.011-2.86H3.234V-.385H1.683Zm3.091-.737a5.848,5.848,0,0,1-.7,2.486L4.664,0A7.87,7.87,0,0,0,5.4-2.662Zm1.771.671a3.393,3.393,0,0,1,.066-.847H5.83a5.549,5.549,0,0,1,.066.891V-.11c0,.572.242.693,1.353.693S8.679.528,8.9.308s.341-.682.429-1.683A1.97,1.97,0,0,1,8.7-1.606a6.77,6.77,0,0,1-.088.935c-.066.462-.154.572-.528.616-.11.011-.616.033-.869.033-.561,0-.671-.044-.671-.275Zm2.442-.528a8.8,8.8,0,0,1,1.3,2.387l.583-.363A9.839,9.839,0,0,0,9.526-2.948Zm-2.816-1.3A6.068,6.068,0,0,1,7.92-2.442l.5-.462A9.02,9.02,0,0,0,6.644-4.345ZM19.426-1.6V-.429A8.8,8.8,0,0,1,19.36.737h.792a8.392,8.392,0,0,1-.066-1.155V-4.576a10.953,10.953,0,0,0,1.188.275,2.084,2.084,0,0,1,.363-.671A10.328,10.328,0,0,1,18.359-5.9a5.353,5.353,0,0,0,1.562-1.661h.484a5.5,5.5,0,0,1,.957.055v-.682a5.769,5.769,0,0,1-.99.055h-2.4v-.154a5.133,5.133,0,0,1,.066-.9h-.814a5.543,5.543,0,0,1,.066.913v.143H15.3a5.783,5.783,0,0,1-.979-.055V-7.5a5.576,5.576,0,0,1,.957-.055h.2a5.728,5.728,0,0,0,1.7,1.661,9.624,9.624,0,0,1-3.333.935,1.448,1.448,0,0,1,.341.638c.506-.088.671-.121,1.078-.22a9.848,9.848,0,0,1-.275,2.618A3.424,3.424,0,0,1,13.387.242a1.864,1.864,0,0,1,.605.517A4.106,4.106,0,0,0,15.6-1.6Zm0-2.354h-3.5c.011-.242.022-.363.033-.781a8.64,8.64,0,0,0,1.815-.792,10.392,10.392,0,0,0,1.65.737ZM19.14-7.557a4.361,4.361,0,0,1-1.386,1.331,4.608,4.608,0,0,1-1.518-1.331Zm.286,4.191v1.177H15.752c.055-.341.11-.715.143-1.177ZM11.957-8.525a7.52,7.52,0,0,1,1.749,1.507l.484-.561a11.948,11.948,0,0,0-1.771-1.43Zm-.506,2.7a7.41,7.41,0,0,1,1.892,1.518l.429-.616A9.559,9.559,0,0,0,11.88-6.347ZM13.3-3.322a10.52,10.52,0,0,1-1.8,3.454L12.133.7c.044-.088.044-.088.088-.165C12.3.4,12.309.385,12.4.231a17.691,17.691,0,0,0,1.485-3.124ZM24.2-7.436a6.041,6.041,0,0,1,.8-.055c1.045-.033,1.21-.044,2.079-.11-.385,1.276-.517,1.694-.88,2.772a3.6,3.6,0,0,0-1.98.473,2.471,2.471,0,0,0-1.309,2.178,1.625,1.625,0,0,0,1.452,1.8c.528,0,.935-.33,1.331-1.089A21.344,21.344,0,0,0,26.73-4.114a8.108,8.108,0,0,1,3.036.913,4.277,4.277,0,0,1-1.012,1.848A4.84,4.84,0,0,1,26.972-.088a2.833,2.833,0,0,1,.583.572A5.943,5.943,0,0,0,29.3-.858a5.193,5.193,0,0,0,1.133-1.991A12.718,12.718,0,0,1,32.153-1.76l.3-.847a2.059,2.059,0,0,1-.319-.165c-.539-.319-.913-.517-1.507-.825a15.032,15.032,0,0,0,.2-2.387,4.177,4.177,0,0,1,.044-.682l-.825-.011a2.671,2.671,0,0,1,.044.539,12.465,12.465,0,0,1-.132,2.233,8.624,8.624,0,0,0-3-.869c.2-.583.275-.792.517-1.54a5.805,5.805,0,0,1,.605-1.6l-.583-.462a.809.809,0,0,1-.407.132c-.363.044-1.243.077-1.848.077a5.251,5.251,0,0,1-1.067-.066Zm1.782,3.267c-.8,2.343-1.177,3.025-1.628,3.025-.4,0-.715-.462-.715-1.045a1.829,1.829,0,0,1,.528-1.265A2.668,2.668,0,0,1,25.982-4.169Z" transform="translate(701 1992)" fill="#fff"/>
    <g id="组_1417" data-name="组 1417" transform="translate(-632 1121)">
      <circle id="椭圆_171" data-name="椭圆 171" cx="5.5" cy="5.5" r="5.5" transform="translate(1286 861)" fill="#fff"/>
      <path id="check001_-_E055" data-name="check001 - E055" d="M-4.761-27.2l-2.765,4.451-1.78-1.78-.063.063L-7.508-22.6l2.819-4.545Z" transform="translate(1298.529 891.401)" stroke="#28a745" stroke-width="1"/>
    </g>
  </g>
</svg>
