<svg xmlns="http://www.w3.org/2000/svg" width="111.2" height="55" viewBox="0 0 111.2 55">
  <g id="组_1" data-name="组 1" transform="translate(-621.691 -170.074)">
    <path id="路径_1" data-name="路径 1" d="M626.876,183.825a6.993,6.993,0,1,1,6.771-11.684,8.522,8.522,0,0,0,8.3,2.179A6.995,6.995,0,0,1,648.676,186a8.517,8.517,0,0,0-2.253,8.261,7.025,7.025,0,0,1,.006,3.648,6.993,6.993,0,1,1-13.51-3.62h0a8.546,8.546,0,0,0-6.043-10.467" transform="translate(0 0)" fill="#f8b500"/>
    <path id="路径_2" data-name="路径 2" d="M654.162,181.813a.621.621,0,0,1-.849-.226l-.2-.348a.62.62,0,0,1,.231-.85l1.2-.694a.623.623,0,0,1,.85.228l.2.348a.621.621,0,0,1-.228.849Z" transform="translate(-9.311 -2.834)" fill="#fff"/>
    <path id="路径_3" data-name="路径 3" d="M657.112,186.923a.621.621,0,0,1-.849-.228l-.2-.346a.622.622,0,0,1,.228-.851l1.2-.693a.62.62,0,0,1,.85.228l.2.347a.619.619,0,0,1-.226.849Z" transform="translate(-10.188 -4.352)" fill="#fff"/>
    <path id="路径_4" data-name="路径 4" d="M648.922,185.954a4.423,4.423,0,0,0,4.139,2.2.143.143,0,0,0,.125-.155l-.11-1.051a.132.132,0,0,0-.16-.107,3.094,3.094,0,0,1-2.76-4.785.134.134,0,0,0-.012-.19l-.858-.621a.14.14,0,0,0-.2.032,4.419,4.419,0,0,0-.169,4.683" transform="translate(-7.916 -3.31)" fill="#fff"/>
    <path id="路径_5" data-name="路径 5" d="M670.619,198.749a6.992,6.992,0,1,1-6.731-11.707,8.515,8.515,0,0,0,6.034-6.1,7,7,0,0,1,13.484.011,8.516,8.516,0,0,0,6.028,6.083,6.994,6.994,0,1,1-6.729,11.708,8.546,8.546,0,0,0-12.088,0" transform="translate(-10.991 -1.708)" fill="#9cc948"/>
    <path id="矩形_1" data-name="矩形 1" d="M.822,0h0a.822.822,0,0,1,.822.822v.991a.819.819,0,0,1-.819.819h0A.821.821,0,0,1,0,1.811V.822A.822.822,0,0,1,.822,0Z" transform="translate(662.776 177.041)" fill="#fff"/>
    <path id="路径_6" data-name="路径 6" d="M687.688,182a.623.623,0,0,1-.622.623h-.4a.624.624,0,0,1-.624-.623v-1.389a.623.623,0,0,1,.624-.62h.4a.623.623,0,0,1,.622.622Z" transform="translate(-19.121 -2.946)" fill="#fff"/>
    <path id="路径_7" data-name="路径 7" d="M682.581,188.876a4.426,4.426,0,0,0,3.971-2.49.146.146,0,0,0-.072-.187l-.964-.429a.136.136,0,0,0-.175.084,3.092,3.092,0,0,1-5.522,0,.135.135,0,0,0-.172-.084l-.968.43a.144.144,0,0,0-.069.187,4.42,4.42,0,0,0,3.971,2.49" transform="translate(-16.909 -4.662)" fill="#fff"/>
    <path id="路径_8" data-name="路径 8" d="M645.74,214.843a6.994,6.994,0,1,1,6.733,11.707,8.524,8.524,0,0,0-6.035,6.095,7,7,0,0,1-13.483-.01,8.521,8.521,0,0,0-6.027-6.083,6.994,6.994,0,1,1,6.728-11.708h0a8.546,8.546,0,0,0,12.086,0" transform="translate(-0.007 -12.695)" fill="#45b2e6"/>
    <path id="矩形_2" data-name="矩形 2" d="M.821,0h0a.821.821,0,0,1,.821.821v.99a.821.821,0,0,1-.821.821h0A.824.824,0,0,1,0,1.808V.821A.821.821,0,0,1,.821,0Z" transform="translate(640.941 219.516)" fill="#fff"/>
    <path id="路径_9" data-name="路径 9" d="M643.181,241.039a.619.619,0,0,1,.62-.621h.4a.621.621,0,0,1,.621.622v1.389a.621.621,0,0,1-.621.621h-.4a.619.619,0,0,1-.62-.62Z" transform="translate(-6.385 -20.901)" fill="#fff"/>
    <path id="路径_10" data-name="路径 10" d="M645.616,233.955a4.429,4.429,0,0,0-3.973,2.49.143.143,0,0,0,.071.186l.966.43a.134.134,0,0,0,.175-.084,3.094,3.094,0,0,1,5.522,0,.131.131,0,0,0,.172.083l.966-.43a.144.144,0,0,0,.072-.186,4.426,4.426,0,0,0-3.971-2.49" transform="translate(-5.925 -18.981)" fill="#fff"/>
    <path id="路径_11" data-name="路径 11" d="M774.4,238.587a1.933,1.933,0,1,0,1.933-1.933,1.936,1.936,0,0,0-1.933,1.933m.236,0a1.7,1.7,0,1,1,1.7,1.7,1.7,1.7,0,0,1-1.7-1.7" transform="translate(-45.376 -19.783)" fill="#221815"/>
    <path id="路径_12" data-name="路径 12" d="M775.863,237.706h1.085a1.094,1.094,0,0,1,.444.079.567.567,0,0,1,.329.564.629.629,0,0,1-.089.352.646.646,0,0,1-.25.219.475.475,0,0,1,.212.15.519.519,0,0,1,.079.3l.011.319a1.136,1.136,0,0,0,.022.2.206.206,0,0,0,.106.145v.054h-.4a.273.273,0,0,1-.024-.08,1.476,1.476,0,0,1-.019-.188l-.018-.4a.337.337,0,0,0-.169-.313.692.692,0,0,0-.283-.044h-.715v1.022h-.324Zm1.05,1.094a.6.6,0,0,0,.349-.091.374.374,0,0,0,.131-.328.355.355,0,0,0-.181-.348.582.582,0,0,0-.259-.049h-.766v.816Z" transform="translate(-45.81 -20.096)" fill="#221815"/>
    <path id="路径_13" data-name="路径 13" d="M709.437,218.11h-4.224v8.45h4.224Zm6.336,0v10.562a2.111,2.111,0,0,1-2.113,2.111h-4.224v4.224h4.224A6.337,6.337,0,0,0,720,228.672V218.11Z" transform="translate(-24.817 -14.273)" fill="#221815"/>
    <path id="路径_14" data-name="路径 14" d="M765.2,222.334a2.111,2.111,0,0,1-2.111-2.113V218.11h-4.226v16.9h4.226v-8.818a6.311,6.311,0,0,0,2.111.369h8.451v-4.226Z" transform="translate(-40.758 -14.273)" fill="#221815"/>
    <path id="路径_15" data-name="路径 15" d="M745.172,218.777a2.394,2.394,0,1,1-2.4-2.395,2.395,2.395,0,0,1,2.4,2.395" transform="translate(-35.268 -13.76)" fill="#f8b500"/>
    <path id="路径_16" data-name="路径 16" d="M753,216.963a2.4,2.4,0,1,1-2.4-2.394,2.4,2.4,0,0,1,2.4,2.394" transform="translate(-37.592 -13.221)" fill="#9cc948"/>
    <path id="路径_17" data-name="路径 17" d="M738.15,230.785h0a2.112,2.112,0,0,1-2.111-2.113v-2.481a6.307,6.307,0,0,0,2.111.369h6.339v-4.226H738.15a2.113,2.113,0,0,1-2.111-2.106V218.11h-4.226v10.562a6.339,6.339,0,0,0,6.337,6.337H746.6v-4.224Z" transform="translate(-32.721 -14.273)" fill="#221815"/>
    <path id="路径_18" data-name="路径 18" d="M687.51,220.221H685.4V218.11h-4.224v2.111h-2.112v4.226h2.112V232.9H685.4v-8.448h2.114a2.112,2.112,0,0,1,2.111,2.112h0v8.451h4.226v-8.451a6.337,6.337,0,0,0-6.336-6.337" transform="translate(-17.046 -14.273)" fill="#221815"/>
  </g>
</svg>
