<svg xmlns="http://www.w3.org/2000/svg" width="342.18" height="194.16" viewBox="0 0 342.18 194.16">
  <g id="组_1947" data-name="组 1947" transform="translate(-65.969 -174.805)">
    <path id="路径_3900" data-name="路径 3900" d="M173.461,247.83a7.52,7.52,0,1,0,7.523-7.52,7.53,7.53,0,0,0-7.523,7.52m.922,0a6.6,6.6,0,1,1,6.6,6.6,6.607,6.607,0,0,1-6.6-6.6" transform="translate(186.443 113.618)" fill="#221815"/>
    <path id="路径_3901" data-name="路径 3901" d="M174.924,241.362h4.222a4.263,4.263,0,0,1,1.725.309,2.214,2.214,0,0,1,1.277,2.2,2.438,2.438,0,0,1-.347,1.37,2.526,2.526,0,0,1-.968.853,1.859,1.859,0,0,1,.823.58,2.025,2.025,0,0,1,.309,1.168l.041,1.239a3.833,3.833,0,0,0,.09.793.775.775,0,0,0,.407.566v.213h-1.548a1.089,1.089,0,0,1-.09-.312,5.139,5.139,0,0,1-.077-.73l-.068-1.545a1.315,1.315,0,0,0-.656-1.22,2.664,2.664,0,0,0-1.107-.172h-2.775v3.979h-1.258Zm4.085,4.255a2.328,2.328,0,0,0,1.359-.355,1.458,1.458,0,0,0,.509-1.274,1.382,1.382,0,0,0-.708-1.354,2.255,2.255,0,0,0-1.009-.191h-2.978v3.175Z" transform="translate(188.981 115.443)" fill="#221815"/>
    <path id="路径_3902" data-name="路径 3902" d="M120.707,221.766H104.273V254.64h16.434Zm24.657,0V262.86a8.217,8.217,0,0,1-8.22,8.212v.005H120.707v16.434h16.437A24.653,24.653,0,0,0,161.8,262.86V221.766Z" transform="translate(66.438 81.454)" fill="#221815"/>
    <path id="路径_3903" data-name="路径 3903" d="M182.576,238.2a8.218,8.218,0,0,1-8.214-8.22v-8.217h-16.44v65.745h16.44V253.2a24.5,24.5,0,0,0,8.214,1.436h32.877V238.2Z" transform="translate(159.491 81.454)" fill="#221815"/>
    <path id="路径_3904" data-name="路径 3904" d="M158.076,229.354a9.316,9.316,0,1,1-9.319-9.316,9.32,9.32,0,0,1,9.319,9.316" transform="translate(127.44 78.457)" fill="#f8b500"/>
    <path id="路径_3905" data-name="路径 3905" d="M165.9,227.541a9.318,9.318,0,1,1-9.319-9.316,9.317,9.317,0,0,1,9.319,9.316" transform="translate(141.01 75.312)" fill="#9cc948"/>
    <path id="路径_3906" data-name="路径 3906" d="M155.53,271.077h0a8.218,8.218,0,0,1-8.217-8.217V253.2a24.528,24.528,0,0,0,8.217,1.436h24.654V238.2H155.53a8.222,8.222,0,0,1-8.217-8.2v-8.239h-16.44V262.86a24.657,24.657,0,0,0,24.657,24.651h32.877V271.077Z" transform="translate(112.575 81.454)" fill="#221815"/>
    <path id="路径_3907" data-name="路径 3907" d="M110.993,229.98H102.77v-8.214H86.333v8.214H78.119v16.44h8.214v32.869H102.77V246.42h8.223v0a8.216,8.216,0,0,1,8.217,8.217H119.2v32.877h16.437V254.634a24.653,24.653,0,0,0-24.649-24.654" transform="translate(21.074 81.454)" fill="#221815"/>
    <path id="路径_3908" data-name="路径 3908" d="M186.386,269.712a27.205,27.205,0,1,1-26.2-45.543,33.153,33.153,0,0,0,23.487-23.716,27.214,27.214,0,0,1,52.453.041,33.144,33.144,0,0,0,23.454,23.667,27.209,27.209,0,1,1-26.174,45.551,33.246,33.246,0,0,0-47.022,0" transform="translate(128.298 9.912)" fill="#f8b500"/>
    <path id="矩形_794" data-name="矩形 794" d="M.884,0H5.512A.887.887,0,0,1,6.4.887V9.353a.885.885,0,0,1-.885.885H.887A.887.887,0,0,1,0,9.351V.884A.884.884,0,0,1,.884,0Z" transform="translate(326.929 201.82)" fill="#fff"/>
    <path id="路径_3909" data-name="路径 3909" d="M173.7,192.5a2.419,2.419,0,0,1-2.417,2.42l-1.564,0A2.417,2.417,0,0,1,167.3,192.5v-5.4a2.417,2.417,0,0,1,2.417-2.42l1.564.005a2.415,2.415,0,0,1,2.417,2.42Z" transform="translate(175.761 17.136)" fill="#fff"/>
    <path id="路径_3910" data-name="路径 3910" d="M175.349,202.569a17.214,17.214,0,0,0,15.453-9.675.562.562,0,0,0-.273-.727l-3.76-1.676a.531.531,0,0,0-.681.328,12.026,12.026,0,0,1-21.477-.005.527.527,0,0,0-.675-.323l-3.763,1.676a.566.566,0,0,0-.276.727,17.217,17.217,0,0,0,15.453,9.675" transform="translate(162.843 27.153)" fill="#fff"/>
    <path id="路径_3911" data-name="路径 3911" d="M112.409,269.714a27.2,27.2,0,1,1-26.194-45.543A33.18,33.18,0,0,0,109.7,200.455a27.217,27.217,0,0,1,52.456.041,33.168,33.168,0,0,0,23.454,23.667,27.209,27.209,0,1,1-26.177,45.548,33.249,33.249,0,0,0-47.022,0" transform="translate(0 9.91)" fill="#9cc948"/>
    <path id="矩形_795" data-name="矩形 795" d="M.883,0H5.511A.885.885,0,0,1,6.4.885V9.353a.882.882,0,0,1-.882.882H.885A.885.885,0,0,1,0,9.35V.883A.883.883,0,0,1,.883,0Z" transform="translate(124.657 201.82)" fill="#fff"/>
    <path id="路径_3912" data-name="路径 3912" d="M99.73,192.5a2.416,2.416,0,0,1-2.423,2.417l-1.559,0a2.419,2.419,0,0,1-2.42-2.42v-5.4a2.414,2.414,0,0,1,2.42-2.412h1.559a2.416,2.416,0,0,1,2.423,2.42Z" transform="translate(47.456 17.136)" fill="#fff"/>
    <path id="路径_3913" data-name="路径 3913" d="M101.379,202.569a17.22,17.22,0,0,0,15.45-9.675.562.562,0,0,0-.273-.727l-3.76-1.676a.52.52,0,0,0-.673.328,12.035,12.035,0,0,1-21.485-.005.525.525,0,0,0-.675-.323l-3.757,1.676a.558.558,0,0,0-.276.727,17.22,17.22,0,0,0,15.45,9.675" transform="translate(34.541 27.153)" fill="#fff"/>
    <path id="路径_3914" data-name="路径 3914" d="M196.422,182.758A27.205,27.205,0,1,1,222.616,228.3a33.18,33.18,0,0,0-23.484,23.716,27.217,27.217,0,0,1-52.456-.041,33.156,33.156,0,0,0-23.451-23.67A27.208,27.208,0,1,1,149.4,182.76h0a33.252,33.252,0,0,0,47.025,0" transform="translate(64.146 0)" fill="#45b2e6"/>
    <path id="矩形_796" data-name="矩形 796" d="M.884,0H5.51A.886.886,0,0,1,6.4.886V9.351a.884.884,0,0,1-.884.884H.884A.884.884,0,0,1,0,9.351V.884A.884.884,0,0,1,.884,0Z" transform="translate(241.928 250.33)" fill="#fff"/>
    <path id="矩形_797" data-name="矩形 797" d="M.885,0H5.514A.885.885,0,0,1,6.4.885V9.352a.883.883,0,0,1-.883.883H.885A.885.885,0,0,1,0,9.35V.885A.885.885,0,0,1,.885,0Z" transform="translate(225.794 250.33)" fill="#fff"/>
    <path id="路径_3915" data-name="路径 3915" d="M138.364,195.963a17.227,17.227,0,0,0-15.453,9.677.565.565,0,0,0,.273.725l3.757,1.674a.524.524,0,0,0,.681-.328,12.035,12.035,0,0,1,21.482.005.523.523,0,0,0,.675.325l3.76-1.676a.56.56,0,0,0,.273-.725,17.214,17.214,0,0,0-15.45-9.677" transform="translate(98.696 36.699)" fill="#fff"/>
  </g>
</svg>
