<svg xmlns="http://www.w3.org/2000/svg" width="172" height="47.048" viewBox="0 0 172 47.048">
  <g id="logo_sp" transform="translate(-51.006 -39.561)">
    <path id="路径_13" data-name="路径 13" d="M715.464,218.11H705.213v20.505h10.251Zm15.376,0v25.631a5.124,5.124,0,0,1-5.127,5.124v0H715.464v10.251h10.249a15.378,15.378,0,0,0,15.381-15.378V218.11Z" transform="translate(-609.598 -172.51)" fill="#221815"/>
    <path id="路径_14" data-name="路径 14" d="M774.24,228.361a5.123,5.123,0,0,1-5.124-5.127V218.11H758.862v41.009h10.254v-21.4a15.315,15.315,0,0,0,5.124.9h20.507V228.361Z" transform="translate(-571.741 -172.51)" fill="#221815"/>
    <path id="路径_15" data-name="路径 15" d="M752,222.193a5.809,5.809,0,1,1-5.813-5.811A5.811,5.811,0,0,1,752,222.193" transform="translate(-584.78 -173.729)" fill="#f8b500"/>
    <path id="路径_16" data-name="路径 16" d="M759.833,220.378a5.814,5.814,0,1,1-5.814-5.809,5.813,5.813,0,0,1,5.814,5.809" transform="translate(-579.26 -175.008)" fill="#9cc948"/>
    <path id="路径_17" data-name="路径 17" d="M747.191,248.868h0a5.126,5.126,0,0,1-5.124-5.127V237.72a15.3,15.3,0,0,0,5.124.9h15.382V228.361H747.191a5.128,5.128,0,0,1-5.124-5.112V218.11H731.813v25.631a15.382,15.382,0,0,0,15.378,15.378H767.7V248.868Z" transform="translate(-590.828 -172.51)" fill="#221815"/>
    <path id="路径_18" data-name="路径 18" d="M699.566,223.234h-5.131V218.11H684.184v5.124h-5.125v10.254h5.125v20.5h10.251v-20.5h5.131v0a5.125,5.125,0,0,1,5.124,5.126h0v20.507H714.94V238.612a15.378,15.378,0,0,0-15.375-15.378" transform="translate(-628.053 -172.51)" fill="#221815"/>
  </g>
</svg>
