<svg xmlns="http://www.w3.org/2000/svg" width="36" height="48.706" viewBox="0 0 36 48.706">
  <g id="search_item18" transform="translate(-320 -2384)">
    <path id="路径_1603" data-name="路径 1603" d="M24.176,5.235a4.235,4.235,0,1,1,4.235,4.235A4.248,4.248,0,0,1,24.176,5.235ZM12,46.529a1.588,1.588,0,1,0,1.588,1.588A1.6,1.6,0,0,0,12,46.529Zm18,0a1.588,1.588,0,1,0,1.588,1.588A1.6,1.6,0,0,0,30,46.529Zm7.391-7.412a1.526,1.526,0,0,0-1.249.635,6.347,6.347,0,0,1-5.082,2.541h-.529V29.588l-9.148-5.654,3.812-6.12a13.78,13.78,0,0,0,11.689,6.48V20.059a9.526,9.526,0,0,1-8.746-5.76l-1.1-2.562a3.865,3.865,0,0,0-3.494-2.266H11.471L6.176,17.941l3.6,2.245,4.024-6.48h4.976l-5.082,8.132a4.247,4.247,0,0,0-.445,3.536l2.838,8.788L9.48,42.125a6.272,6.272,0,0,1-3.621-2.372,1.565,1.565,0,0,0-1.271-.635A1.586,1.586,0,0,0,3,40.706a1.657,1.657,0,0,0,.318.953,9.476,9.476,0,0,0,7.624,3.812H31.059a9.476,9.476,0,0,0,7.624-3.812A1.657,1.657,0,0,0,39,40.706,1.6,1.6,0,0,0,37.391,39.118Zm-11.1,3.176H14.859L21,34.882l-2.118-6.988,7.412,4.659Z" transform="translate(317 2383)" fill="#fcaa29"/>
  </g>
</svg>
