<svg xmlns="http://www.w3.org/2000/svg" width="36" height="46.286" viewBox="0 0 36 46.286">
  <g id="search_item04" transform="translate(-337 -1993)">
    <ellipse id="椭圆_158" data-name="椭圆 158" cx="5.143" cy="4.629" rx="5.143" ry="4.629" transform="translate(349.857 1993)" fill="#fcaa29"/>
    <path id="路径_1586" data-name="路径 1586" d="M41,20.871V16.242a15.187,15.187,0,0,1-10.466-4.235L27.217,8.7a4.977,4.977,0,0,0-1.569-1.041c-.026,0-.026-.023-.051-.023h-.026a5.6,5.6,0,0,0-3.06-.6,4.918,4.918,0,0,0-4.654,4.791V25.5A4.921,4.921,0,0,0,23,30.128H35.857V41.7H41V28.971a4.921,4.921,0,0,0-5.143-4.629H28.143V16.358A23.369,23.369,0,0,0,41,20.871ZM25.134,32.442a7.715,7.715,0,0,1-7.277,4.629c-4.269,0-7.714-3.1-7.714-6.943a7.065,7.065,0,0,1,5.143-6.549V18.788C9.423,19.853,5,24.527,5,30.128,5,36.515,10.76,41.7,17.857,41.7c6.223,0,11.417-3.981,12.6-9.257Z" transform="translate(332 1997.586)" fill="#fcaa29"/>
  </g>
</svg>
