<svg xmlns="http://www.w3.org/2000/svg" width="36" height="27.818" viewBox="0 0 36 27.818">
  <g id="search_item14" transform="translate(-327 -2227)">
    <path id="路径_1599" data-name="路径 1599" d="M33.727,5.318A19.317,19.317,0,0,0,28,4.5c-3.191,0-6.627.655-9,2.455C16.627,5.155,13.191,4.5,10,4.5s-6.627.655-9,2.455V30.927a.88.88,0,0,0,.818.818c.164,0,.245-.082.409-.082A19.973,19.973,0,0,1,10,29.864c3.191,0,6.627.655,9,2.455a19.71,19.71,0,0,1,9-2.455,16.655,16.655,0,0,1,7.773,1.718.738.738,0,0,0,.409.082A.88.88,0,0,0,37,30.845V6.955A11.161,11.161,0,0,0,33.727,5.318Zm0,22.091A19.015,19.015,0,0,0,28,26.591a19.71,19.71,0,0,0-9,2.455V10.227a19.71,19.71,0,0,1,9-2.455,19.015,19.015,0,0,1,5.727.818Z" transform="translate(326 2222.5)" fill="#fcaa29"/>
    <path id="路径_1600" data-name="路径 1600" d="M20.364,11.455a19.136,19.136,0,0,1,4.091.425V9.393A22.1,22.1,0,0,0,20.364,9,18.829,18.829,0,0,0,13,10.358v2.716A15.191,15.191,0,0,1,20.364,11.455Z" transform="translate(333.636 2225.364)" fill="#fcaa29"/>
    <path id="路径_1601" data-name="路径 1601" d="M13,13.018v2.716a15.191,15.191,0,0,1,7.364-1.62,19.136,19.136,0,0,1,4.091.425V12.053a22.1,22.1,0,0,0-4.091-.393A19.131,19.131,0,0,0,13,13.018Z" transform="translate(333.636 2227.057)" fill="#fcaa29"/>
    <path id="路径_1602" data-name="路径 1602" d="M20.364,14.33A18.829,18.829,0,0,0,13,15.688V18.4a15.191,15.191,0,0,1,7.364-1.62,19.136,19.136,0,0,1,4.091.425V14.723A20.777,20.777,0,0,0,20.364,14.33Z" transform="translate(333.636 2228.755)" fill="#fcaa29"/>
  </g>
</svg>
