<svg xmlns="http://www.w3.org/2000/svg" width="35.998" height="34.206" viewBox="0 0 35.998 34.206">
  <g id="search_item03" transform="translate(-349 -1992)">
    <circle id="椭圆_154" data-name="椭圆 154" cx="4.5" cy="4.5" r="4.5" transform="translate(349 1999.2)" fill="#fcaa29"/>
    <circle id="椭圆_155" data-name="椭圆 155" cx="4.5" cy="4.5" r="4.5" transform="translate(357.1 1992)" fill="#fcaa29"/>
    <circle id="椭圆_156" data-name="椭圆 156" cx="4.5" cy="4.5" r="4.5" transform="translate(367.899 1992)" fill="#fcaa29"/>
    <circle id="椭圆_157" data-name="椭圆 157" cx="4.5" cy="4.5" r="4.5" transform="translate(375.999 1999.2)" fill="#fcaa29"/>
    <path id="路径_1584" data-name="路径 1584" d="M28.016,18.348c-1.566-1.836-2.88-3.4-4.464-5.238a7.636,7.636,0,0,0-3.15-2.376,3.644,3.644,0,0,0-.594-.162,9.059,9.059,0,0,0-1.4-.072,7.55,7.55,0,0,0-1.422.09,3.644,3.644,0,0,0-.594.162,7.754,7.754,0,0,0-3.15,2.376c-1.566,1.836-2.88,3.4-4.464,5.238-2.358,2.358-5.256,4.968-4.716,8.622a5.651,5.651,0,0,0,4.194,4.176c1.314.27,5.508-.792,9.971-.792h.324c4.464,0,8.658,1.044,9.971.792a5.678,5.678,0,0,0,4.194-4.176c.558-3.672-2.34-6.282-4.7-8.64Z" transform="translate(348.595 1994.999)" fill="#fcaa29"/>
  </g>
</svg>
