<svg xmlns="http://www.w3.org/2000/svg" width="36.029" height="39.703" viewBox="0 0 36.029 39.703">
  <path id="search_item01" d="M36.147,20.581l-13.131-5.8V11.927a2,2,0,0,0-2-1.985h0a1.985,1.985,0,1,1,2-1.985h4a6,6,0,1,0-8.007,5.6v1.251L5.882,20.6A4.752,4.752,0,0,0,3,24.968v.02a4.815,4.815,0,0,0,4.844,4.8h3.163V41.7H31.023V29.791h3.163a4.815,4.815,0,0,0,4.844-4.8v-.02A4.8,4.8,0,0,0,36.147,20.581Zm-1.962,5.24H31.023V23.837H11.007v1.985H7.844A.846.846,0,0,1,7,24.968a.806.806,0,0,1,.5-.754l13.511-5.955,13.511,5.955a.854.854,0,0,1,.5.774A.842.842,0,0,1,34.185,25.822Z" transform="translate(-3 -1.998)" fill="#fcaa00"/>
</svg>
