<svg xmlns="http://www.w3.org/2000/svg" width="36" height="32.4" viewBox="0 0 36 32.4">
  <g id="search_item09" transform="translate(-311 -2342)">
    <circle id="椭圆_159" data-name="椭圆 159" cx="5.76" cy="5.76" r="5.76" transform="translate(323.24 2354.241)" fill="#fcaa29"/>
    <path id="路径_1593" data-name="路径 1593" d="M14.6,2,11.306,5.6H5.6A3.611,3.611,0,0,0,2,9.2V30.8a3.611,3.611,0,0,0,3.6,3.6H34.4A3.611,3.611,0,0,0,38,30.8V9.2a3.611,3.611,0,0,0-3.6-3.6H28.694L25.4,2ZM20,29a9,9,0,1,1,9-9A9,9,0,0,1,20,29Z" transform="translate(309 2340)" fill="#fcaa29"/>
  </g>
</svg>
