<svg xmlns="http://www.w3.org/2000/svg" width="36.383" height="34.634" viewBox="0 0 36.383 34.634">
  <g id="search_item17" transform="translate(-357 -2679)">
    <rect id="矩形_496" data-name="矩形 496" width="6.927" height="19.049" transform="translate(357 2694.585)" fill="#fcaa29"/>
    <path id="路径_1597" data-name="路径 1597" d="M20.39,4.165A6.264,6.264,0,0,1,25.066,2,5.655,5.655,0,0,1,30.78,7.715c0,3.931-5.039,8.485-10.39,13.334C15.039,16.183,10,11.628,10,7.715A5.655,5.655,0,0,1,15.715,2,6.264,6.264,0,0,1,20.39,4.165Z" transform="translate(362.585 2677)" fill="#fcaa29"/>
    <path id="路径_1598" data-name="路径 1598" d="M29.512,21.39H17.39l-3.619-1.264.571-1.628,3.048,1.16h4.883a2.047,2.047,0,0,0,2.043-2.043h0a2.079,2.079,0,0,0-1.333-1.922L10.411,11H7V26.62l12.122,3.429,13.871-5.2h0A3.488,3.488,0,0,0,29.512,21.39Z" transform="translate(360.39 2683.585)" fill="#fcaa29"/>
  </g>
</svg>
