<svg xmlns="http://www.w3.org/2000/svg" width="35.998" height="35.995" viewBox="0 0 35.998 35.995">
  <g id="search_item12" transform="translate(-412.25 -1401.249)">
    <path id="路径_1578" data-name="路径 1578" d="M29.475,19.972l3.139-3.139-7.5-7.5-3.139,3.139L13.7,4.215a4.007,4.007,0,0,0-5.659,0l-3.8,3.8a4.007,4.007,0,0,0,0,5.659L12.5,21.932,3,31.45v7.5h7.5l9.518-9.518,8.259,8.259a4,4,0,0,0,5.659,0l3.8-3.8a4.007,4.007,0,0,0,0-5.659Zm-14.118-.88L7.079,10.834l3.779-3.8h0l2.54,2.54-2.36,2.38,2.82,2.82,2.38-2.38,2.9,2.9ZM31.115,34.869l-8.259-8.259,3.8-3.8,2.9,2.9-2.38,2.38L30,30.91l2.38-2.38,2.54,2.54Z" transform="translate(409.25 1398.295)" fill="#fcaa29"/>
    <path id="路径_1579" data-name="路径 1579" d="M26.288,11.077a1.991,1.991,0,0,0,0-2.82L21.609,3.579a2.017,2.017,0,0,0-2.82,0L15.13,7.238l7.5,7.5Z" transform="translate(421.375 1398.248)" fill="#fcaa29"/>
  </g>
</svg>
