<svg xmlns="http://www.w3.org/2000/svg" width="35.998" height="41.998" viewBox="0 0 35.998 41.998">
  <path id="search_item15" d="M21,43A18,18,0,0,0,39,25,18,18,0,0,0,21,43ZM8.2,19.5a5.005,5.005,0,0,0,7.84,4.12L16,24a5,5,0,1,0,10,0l-.04-.38a4.928,4.928,0,0,0,2.84.88,4.988,4.988,0,0,0,2.14-9.5,4.993,4.993,0,1,0-4.98-8.62L26,6A5,5,0,1,0,16,6l.04.38A4.928,4.928,0,0,0,13.2,5.5,4.988,4.988,0,0,0,11.06,15,4.982,4.982,0,0,0,8.2,19.5ZM21,10a5,5,0,1,1-5,5A5,5,0,0,1,21,10ZM3,25A18,18,0,0,0,21,43,18,18,0,0,0,3,25Z" transform="translate(-3 -1)" fill="#fcaa29"/>
</svg>
