<svg xmlns="http://www.w3.org/2000/svg" width="36" height="40" viewBox="0 0 36 40">
  <g id="search_item08" transform="translate(-347 -2131)">
    <path id="search_item08-2" data-name="search_item08" d="M27,11c0-1.68,3-5,3-5s3,3.32,3,5a3,3,0,1,1-6,0Zm8,17a5,5,0,0,0,5-5c0-3.34-5-9-5-9s-5,5.66-5,9A5,5,0,0,0,35,28ZM22,26H18V22H14v4H10v4h4v4h4V30h4Zm6-4V42H4V22A12,12,0,0,1,14,10.18V6H10V2H22a10.014,10.014,0,0,1,5.98,2.02L25.12,6.88A6.153,6.153,0,0,0,22,6H18v4.18A12,12,0,0,1,28,22Z" transform="translate(343 2129)" fill="#fcaa29"/>
  </g>
</svg>
