<svg xmlns="http://www.w3.org/2000/svg" width="35.998" height="26.231" viewBox="0 0 35.998 26.231">
  <path id="search_item07" d="M38.342,25.779,36.3,11.427A7.488,7.488,0,0,0,28.88,5H11.9a7.488,7.488,0,0,0-7.42,6.427L2.443,25.779a4.769,4.769,0,0,0,4.722,5.452h0a4.75,4.75,0,0,0,3.373-1.405l4.234-4.216H26.014l4.216,4.216A4.782,4.782,0,0,0,33.6,31.231h0A4.772,4.772,0,0,0,38.342,25.779ZM18.519,16.242H14.772v3.747H12.9V16.242H9.151V14.368H12.9V10.621h1.874v3.747h3.747Zm7.495-1.874a1.874,1.874,0,1,1,1.874-1.874A1.879,1.879,0,0,1,26.014,14.368Zm3.747,5.621a1.874,1.874,0,1,1,1.874-1.874A1.879,1.879,0,0,1,29.761,19.989Z" transform="translate(-2.394 -5)" fill="#fcaa29"/>
</svg>
