<svg xmlns="http://www.w3.org/2000/svg" xmlns:xlink="http://www.w3.org/1999/xlink" width="273" height="213" viewBox="0 0 273 213">
  <defs>
    <filter id="長方形_1818" x="0" y="0" width="273" height="213" filterUnits="userSpaceOnUse">
      <feOffset dy="3" input="SourceAlpha"/>
      <feGaussianBlur stdDeviation="3" result="blur"/>
      <feFlood flood-opacity="0.2"/>
      <feComposite operator="in" in2="blur"/>
      <feComposite in="SourceGraphic"/>
    </filter>
    <clipPath id="clip-path">
      <rect id="長方形_1397" data-name="長方形 1397" width="54.754" height="54.754" fill="#f8bc04"/>
    </clipPath>
  </defs>
  <g id="グループ_20254" data-name="グループ 20254" transform="translate(-5786 1579)">
    <g transform="matrix(1, 0, 0, 1, 5786, -1579)" filter="url(#長方形_1818)">
      <rect id="長方形_1818-2" data-name="長方形 1818" width="255" height="195" transform="translate(9 6)" fill="#fff"/>
    </g>
    <g id="グループ_20253" data-name="グループ 20253" transform="translate(42)">
      <text id="カリビトブログで掲載した" transform="translate(5792 -1543)" font-size="15" font-family="HiraginoSans-W5, Hiragino Sans"><tspan x="0" y="0">カリビトブログで掲載した</tspan></text>
      <text id="記事をSNSでPR" transform="translate(5824 -1523)" font-size="15" font-family="HiraginoSans-W5, Hiragino Sans"><tspan x="0" y="0">記事をSNSでPR</tspan></text>
      <text id="例えばブログ記事をツイッターでつぶや" transform="translate(5774 -1428)" font-size="12" font-family="HiraginoSans-W3, Hiragino Sans"><tspan x="0" y="0">例えばブログ記事をツイッターでつぶや</tspan></text>
      <text id="くことで_拡散した情報をあらゆるユ" data-name="くことで、拡散した情報をあらゆるユ" transform="translate(5780 -1411)" font-size="12" font-family="HiraginoSans-W3, Hiragino Sans"><tspan x="0" y="0">くことで、拡散した情報をあらゆるユ</tspan></text>
      <text id="_ーザーに伝えることができます_" data-name="ーザーに伝えることができます。" transform="translate(5792 -1394)" font-size="12" font-family="HiraginoSans-W3, Hiragino Sans"><tspan x="0" y="0">ーザーに伝えることができます。</tspan></text>
      <g id="グループ_2844" data-name="グループ 2844" transform="translate(5847 -1495.902) rotate(-17)" clip-path="url(#clip-path)">
        <path id="パス_5740" data-name="パス 5740" d="M47.253,44.4a1.715,1.715,0,0,1-.682-.141l-26.222-11.4a1.709,1.709,0,0,1-1.028-1.569V26.73a1.71,1.71,0,1,1,3.42,0v3.44l22.8,9.913V8.819l-23.83,10.36a1.692,1.692,0,0,1-.682.143H7.92v10.26h6.27a1.71,1.71,0,0,1,0,3.42H6.21a1.71,1.71,0,0,1-1.71-1.71V17.611A1.709,1.709,0,0,1,6.21,15.9H20.675l25.9-11.258A1.71,1.71,0,0,1,48.963,6.21V42.693a1.709,1.709,0,0,1-1.71,1.71" transform="translate(0.63 0.579)" fill="#f8bc04"/>
        <path id="パス_5741" data-name="パス 5741" d="M22.331,45.881H13.21a1.71,1.71,0,0,1-1.71-1.71V28.21a1.71,1.71,0,1,1,3.42,0V42.461h5.7v-6.27a1.71,1.71,0,1,1,3.42,0v7.981a1.71,1.71,0,0,1-1.71,1.71" transform="translate(1.611 3.661)" fill="#f8bc04"/>
      </g>
    </g>
  </g>
</svg>
