<svg xmlns="http://www.w3.org/2000/svg" xmlns:xlink="http://www.w3.org/1999/xlink" width="273" height="213" viewBox="0 0 273 213">
  <defs>
    <filter id="長方形_1818" x="0" y="0" width="273" height="213" filterUnits="userSpaceOnUse">
      <feOffset dy="3" input="SourceAlpha"/>
      <feGaussianBlur stdDeviation="3" result="blur"/>
      <feFlood flood-opacity="0.2"/>
      <feComposite operator="in" in2="blur"/>
      <feComposite in="SourceGraphic"/>
    </filter>
  </defs>
  <g id="グループ_20252" data-name="グループ 20252" transform="translate(-5423 1579)">
    <g transform="matrix(1, 0, 0, 1, 5423, -1579)" filter="url(#長方形_1818)">
      <rect id="長方形_1818-2" data-name="長方形 1818" width="255" height="195" transform="translate(9 6)" fill="#fff"/>
    </g>
    <g id="グループ_20251" data-name="グループ 20251" transform="translate(51)">
      <text id="シェア機能" transform="translate(5459 -1535)" font-size="20" font-family="HiraginoSans-W5, Hiragino Sans"><tspan x="0" y="0">シェア機能</tspan></text>
      <text id="いいなと思った仕事をSNSを使ってシ" transform="translate(5406 -1428)" font-size="12" font-family="HiraginoSans-W3, Hiragino Sans"><tspan x="0" y="0">いいなと思った仕事をSNSを使ってシ</tspan></text>
      <text id="ェアすることができます_仲の良いメン" data-name="ェアすることができます。仲の良いメン" transform="translate(5401 -1411)" font-size="12" font-family="HiraginoSans-W3, Hiragino Sans"><tspan x="0" y="0">ェアすることができます。仲の良いメン</tspan></text>
      <text id="バーに知らせる時に便利_" data-name="バーに知らせる時に便利。" transform="translate(5437 -1394)" font-size="12" font-family="HiraginoSans-W3, Hiragino Sans"><tspan x="0" y="0">バーに知らせる時に便利。</tspan></text>
      <path id="パス_64700" data-name="パス 64700" d="M344.813,487.7a4.211,4.211,0,0,0-2.6-1.793,4.233,4.233,0,0,0-2.822-6.1,4.13,4.13,0,0,0,.4-1.128,4.233,4.233,0,0,0-3.223-4.975,4.236,4.236,0,0,0-6.091-5.5L326.26,471a26.2,26.2,0,0,0-7.12-2.409,19.691,19.691,0,0,0-2.717-3.29l-1.744-1.688a3.818,3.818,0,0,0-5.841,4.847c.047.07.09.14.134.209a26.571,26.571,0,1,0,30.287,35.068.913.913,0,1,0-1.718-.619,24.778,24.778,0,0,1-31.092,15.08l7.431-4.923h0l6.175-4.092h0a2.492,2.492,0,0,0,.7-3.453l-.081-.122,1.2-.8a4.072,4.072,0,0,1,2.9-.625,5.881,5.881,0,0,0,4.2-.91l9.953-6.588a25.142,25.142,0,0,1-.337,2.566.913.913,0,0,0,.729,1.064.848.848,0,0,0,.168.014.911.911,0,0,0,.9-.747,26.713,26.713,0,0,0,.436-4.153l2.8-1.857a4.241,4.241,0,0,0,1.191-5.873Zm-20.331-15.53-2.79,1.848-.552-1.482a19.178,19.178,0,0,0-.782-1.813,24.434,24.434,0,0,1,4.124,1.443Zm-28.924,6.33a24.753,24.753,0,0,1,14.283-8.146,11.294,11.294,0,0,1,.57,6.835l-2.226,9.622a2.488,2.488,0,0,0-3.188-.372l-6.309,4.176h0l-9.1,6.027c-.049-.642-.076-1.29-.076-1.936a24.739,24.739,0,0,1,6.047-16.207Zm23.772,28.733a.659.659,0,0,1-.285.421h0l-5.426,3.592-10.067-15.013a.913.913,0,1,0-1.517,1.017l10.061,15-7.742,5.129a24.824,24.824,0,0,1-14.528-18.744l9.111-6.013,1.046,1.563a.912.912,0,0,0,.761.407.88.88,0,0,0,.506-.157.909.909,0,0,0,.25-1.267l-1.04-1.552,5.545-3.659a.642.642,0,0,1,.5-.1.672.672,0,0,1,.424.282l12.307,18.584a.672.672,0,0,1,.094.508Zm24.312-16.716a2.393,2.393,0,0,1-1.029,1.531l-3.206,2.122H339.4l-11.441,7.576a4.066,4.066,0,0,1-2.9.628,5.9,5.9,0,0,0-4.2.907l-1.2.8-10.081-15.222,2.607-11.255a13.132,13.132,0,0,0-.962-8.614l-.038-.081a13.282,13.282,0,0,0-.837-1.462,1.991,1.991,0,0,1,3.046-2.528l1.744,1.691a17.814,17.814,0,0,1,4.284,6.562l.95,2.56.006.015.006.017.02.041a.542.542,0,0,0,.064.113.911.911,0,0,0,1.264.259l9.741-6.452a2.41,2.41,0,1,1,2.662,4.019l-.846.558h0l-1.886,1.247-.009.006-.029.023a.912.912,0,1,0,1.046,1.494l1.886-1.25a2.41,2.41,0,1,1,2.662,4.019l-2.735,1.81a.915.915,0,0,0,.506,1.677.889.889,0,0,0,.5-.154l.424-.279,1.462-.971a2.41,2.41,0,0,1,2.662,4.019l-1.366.9-.02.015-1.345.892a.912.912,0,0,0,.506,1.674.923.923,0,0,0,.5-.151l.421-.279h0l1.462-.971a2.409,2.409,0,0,1,3.339.68,2.366,2.366,0,0,1,.366,1.812Z" transform="translate(5191.801 -1976.627)" fill="#f8bc04" stroke="#f8bc04" stroke-linecap="round" stroke-linejoin="round" stroke-width="2"/>
    </g>
  </g>
</svg>
