<svg xmlns="http://www.w3.org/2000/svg" xmlns:xlink="http://www.w3.org/1999/xlink" width="273.193" height="276.591" viewBox="0 0 273.193 276.591">
  <defs>
    <filter id="パス_106488" x="0" y="0" width="273.193" height="276.591" filterUnits="userSpaceOnUse">
      <feOffset dy="3" input="SourceAlpha"/>
      <feGaussianBlur stdDeviation="3" result="blur"/>
      <feFlood flood-opacity="0.161"/>
      <feComposite operator="in" in2="blur"/>
      <feComposite in="SourceGraphic"/>
    </filter>
    <clipPath id="clip-path">
      <rect id="長方形_1351" data-name="長方形 1351" width="15.696" height="15.696" transform="translate(0 0)"/>
    </clipPath>
    <clipPath id="clip-path-2">
      <rect id="長方形_1380" data-name="長方形 1380" width="21.65" height="21.65"/>
    </clipPath>
    <clipPath id="clip">
      <use xlink:href="#fill"/>
    </clipPath>
  </defs>
  <g id="グループ_62111" data-name="グループ 62111" transform="translate(-1533 -826.152)">
    <g transform="matrix(1, 0, 0, 1, 1533, 826.15)" filter="url(#パス_106488)">
      <path id="パス_106488-2" data-name="パス 106488" d="M4.252,0H250.941a4.252,4.252,0,0,1,4.252,4.252V254.339a4.252,4.252,0,0,1-4.252,4.252H4.252A4.252,4.252,0,0,1,0,254.339V4.252A4.252,4.252,0,0,1,4.252,0Z" transform="translate(9 6)" fill="#fff"/>
    </g>
    <path id="パス_106496" data-name="パス 106496" d="M-64.86-13.14h-2.22a12.148,12.148,0,0,1-1.84-.12v1.36a10.514,10.514,0,0,1,1.78-.1h4.16a18.362,18.362,0,0,1-.98,5.2,45.556,45.556,0,0,0-3.22-3.62l-.94.8A34.763,34.763,0,0,1-64.5-5.54,14,14,0,0,1-69.12-.08a3.524,3.524,0,0,1,1,.96,16.273,16.273,0,0,0,4.44-5.34A37.252,37.252,0,0,1-61.24-.54l1-.96A39.1,39.1,0,0,0-63.1-5.7,19.191,19.191,0,0,0-61.68-12a14.1,14.1,0,0,1,1.82.08v-1.34a12.148,12.148,0,0,1-1.84.12h-1.9v-1.34a14.761,14.761,0,0,1,.1-2.02h-1.48a11.429,11.429,0,0,1,.12,2.02Zm10.2,2.36V-.54c0,.42-.16.5-1.06.5a19.2,19.2,0,0,1-2.56-.22,4.8,4.8,0,0,1,.42,1.34c.88.04,1.38.06,2.28.06,1.8,0,2.2-.3,2.2-1.62v-10.3h.48a11.994,11.994,0,0,1,1.96.12v-1.38a12.477,12.477,0,0,1-1.94.12h-.5v-2.24a13.541,13.541,0,0,1,.12-2.18H-54.8a11.467,11.467,0,0,1,.14,2.18v2.24h-3.12a11.537,11.537,0,0,1-1.9-.1v1.36a12.345,12.345,0,0,1,1.88-.12ZM-60.08-8.5A17.571,17.571,0,0,1-57.2-3.9l1.1-.76a22.739,22.739,0,0,0-2.96-4.46Zm19.4-3.36a13.767,13.767,0,0,0,1.14-2.86h6.26a15.575,15.575,0,0,1,2.12.12V-16a15.992,15.992,0,0,1-2.12.12H-46.7A15.258,15.258,0,0,1-48.8-16v1.4a15.992,15.992,0,0,1,2.12-.12h5.78a11.642,11.642,0,0,1-1.18,2.86h-3.74a18.956,18.956,0,0,1-2.34-.1,23.662,23.662,0,0,1,.12,2.52V-.82a15.339,15.339,0,0,1-.12,2.44h1.4V.48h13.54V1.62h1.4a17.33,17.33,0,0,1-.12-2.4V-9.44a21.638,21.638,0,0,1,.12-2.52,19.468,19.468,0,0,1-2.38.1Zm-1.58,4.78h4.42v2.56h-4.42Zm4.42-1.08h-4.42v-2.6h4.42Zm-4.42,4.72h4.42v2.8h-4.42Zm-1.22-7.32V-.64h-3.28V-10.76Zm6.86,0h3.4V-.64h-3.4ZM-20-9.24A1.647,1.647,0,0,0-21.64-7.6,1.647,1.647,0,0,0-20-5.96,1.647,1.647,0,0,0-18.36-7.6,1.647,1.647,0,0,0-20-9.24Zm17.28-2.92v2.8H-6.24a9.357,9.357,0,0,1-1.86-.1v1.32a11,11,0,0,1,1.86-.1h3.5a24.008,24.008,0,0,1-.22,2.58A42.31,42.31,0,0,1-9.08-4.34l.42,1.38a13.63,13.63,0,0,1,2.2-.62c1.4-.34,2.14-.54,3.22-.84A6.615,6.615,0,0,1-4.56-1.9,8.542,8.542,0,0,1-8.08.48,4.52,4.52,0,0,1-7.14,1.6C-3.94.02-2.46-1.8-1.82-4.84l1.58-.5V-6.48c-.66.22-1,.32-1.4.44a28.043,28.043,0,0,0,.18-3.34v-4.9a13.48,13.48,0,0,1,.1-2.26H-2.84a12.37,12.37,0,0,1,.12,2.24v1h-4.1a8.79,8.79,0,0,1-1.86-.12v1.36a10.289,10.289,0,0,1,1.86-.1ZM2.62-3.58H6.9a12.92,12.92,0,0,1,1.92.12V-4.84a11.222,11.222,0,0,1-1.92.1H2.62V-8h3.8a10.73,10.73,0,0,1,1.84.1V-9.22a9.241,9.241,0,0,1-1.84.1H2.62v-3H6.8a10.549,10.549,0,0,1,1.88.1v-1.36a8.891,8.891,0,0,1-1.88.12H2.62v-.98a15.517,15.517,0,0,1,.12-2.3H1.26a16.412,16.412,0,0,1,.1,2.3V-.92a13.38,13.38,0,0,1-.12,2.36h1.5A13.38,13.38,0,0,1,2.62-.92Zm12.52-9.56H12.92a12.148,12.148,0,0,1-1.84-.12v1.36a10.514,10.514,0,0,1,1.78-.1h4.16a18.363,18.363,0,0,1-.98,5.2,45.556,45.556,0,0,0-3.22-3.62l-.94.8A34.763,34.763,0,0,1,15.5-5.54,14,14,0,0,1,10.88-.08a3.524,3.524,0,0,1,1,.96,16.273,16.273,0,0,0,4.44-5.34A37.252,37.252,0,0,1,18.76-.54l1-.96A39.1,39.1,0,0,0,16.9-5.7,19.191,19.191,0,0,0,18.32-12a14.1,14.1,0,0,1,1.82.08v-1.34a12.148,12.148,0,0,1-1.84.12H16.4v-1.34a14.762,14.762,0,0,1,.1-2.02H15.02a11.429,11.429,0,0,1,.12,2.02Zm10.2,2.36V-.54c0,.42-.16.5-1.06.5a19.2,19.2,0,0,1-2.56-.22,4.8,4.8,0,0,1,.42,1.34c.88.04,1.38.06,2.28.06,1.8,0,2.2-.3,2.2-1.62v-10.3h.48a11.994,11.994,0,0,1,1.96.12v-1.38a12.477,12.477,0,0,1-1.94.12h-.5v-2.24a13.541,13.541,0,0,1,.12-2.18H25.2a11.467,11.467,0,0,1,.14,2.18v2.24H22.22a11.537,11.537,0,0,1-1.9-.1v1.36a12.345,12.345,0,0,1,1.88-.12ZM19.92-8.5A17.571,17.571,0,0,1,22.8-3.9l1.1-.76a22.739,22.739,0,0,0-2.96-4.46Zm19.4-3.36a13.767,13.767,0,0,0,1.14-2.86h6.26a15.575,15.575,0,0,1,2.12.12V-16a15.992,15.992,0,0,1-2.12.12H33.3A15.258,15.258,0,0,1,31.2-16v1.4a15.992,15.992,0,0,1,2.12-.12H39.1a11.642,11.642,0,0,1-1.18,2.86H34.18a18.956,18.956,0,0,1-2.34-.1,23.662,23.662,0,0,1,.12,2.52V-.82a15.339,15.339,0,0,1-.12,2.44h1.4V.48H46.78V1.62h1.4a17.33,17.33,0,0,1-.12-2.4V-9.44a21.638,21.638,0,0,1,.12-2.52,19.468,19.468,0,0,1-2.38.1ZM37.74-7.08h4.42v2.56H37.74Zm4.42-1.08H37.74v-2.6h4.42ZM37.74-3.44h4.42v2.8H37.74Zm-1.22-7.32V-.64H33.24V-10.76Zm6.86,0h3.4V-.64h-3.4Zm17.7-2.5a5.756,5.756,0,0,1,2.32.5,5.272,5.272,0,0,1,3.18,5.02,6.037,6.037,0,0,1-3.54,5.6,11.989,11.989,0,0,1-3.34.94A3.178,3.178,0,0,1,60.4.14a15.472,15.472,0,0,0,3.04-.92,7.282,7.282,0,0,0,4.58-6.9,6.7,6.7,0,0,0-1.94-4.88,7.742,7.742,0,0,0-5.5-1.98,8.354,8.354,0,0,0-6.46,2.66,8.32,8.32,0,0,0-2.1,5.52c0,2.8,1.42,4.88,3.32,4.88,1.44,0,2.62-1.2,3.78-3.84A29.98,29.98,0,0,0,61.08-13.26Zm-1.44.02a27.47,27.47,0,0,1-1.82,7.4c-.86,1.96-1.66,2.9-2.5,2.9-1.08,0-1.92-1.48-1.92-3.4a6.916,6.916,0,0,1,3.26-5.96A6.316,6.316,0,0,1,59.64-13.24ZM-63.86,6.42a8.65,8.65,0,0,1,.34,1.28,40.388,40.388,0,0,0,1.46,5.58,12.431,12.431,0,0,0-2.62,1.64,4.326,4.326,0,0,0-1.78,3.4,3.32,3.32,0,0,0,2.48,3.28,13.606,13.606,0,0,0,4.44.54,40.12,40.12,0,0,0,4.42-.26l.68-.08.2-.02a5.255,5.255,0,0,1,.6-.02l-.16-1.66a19.858,19.858,0,0,1-5.72.68c-3.92,0-5.46-.72-5.46-2.52,0-1.66,1.48-2.98,4.9-4.36a52.961,52.961,0,0,1,6.02-1.94l-.6-1.52a9.049,9.049,0,0,1-1.28.54c-3.08,1.06-3.74,1.32-4.84,1.78a36.442,36.442,0,0,1-1.5-6.62Zm7.34-.06a15.6,15.6,0,0,1,2.04,3.18l1.02-.6a16.054,16.054,0,0,0-2.06-3.1Zm2.28-1.08A16.773,16.773,0,0,1-52.2,8.42l1-.56a16,16,0,0,0-2.08-3.12Zm6.62,5.16h.16c.12,0,.3,0,.56.02,1.16.08,2.04.12,3.32.14a30.153,30.153,0,0,1-2.68,6.52l1.44.58a4.279,4.279,0,0,1,1.68-1.28,10.892,10.892,0,0,1,4.64-1.08c2.4,0,3.84.92,3.84,2.44,0,1.92-2.08,3.18-5.24,3.18a12.2,12.2,0,0,1-5-1c.06.64.1,1,.1,1.1v.12a2.21,2.21,0,0,1-.02.32,14.952,14.952,0,0,0,4.94.78c4.04,0,6.7-1.78,6.7-4.5,0-2.24-2.02-3.68-5.18-3.68a10.259,10.259,0,0,0-5.82,1.68l-.02-.04a27.028,27.028,0,0,0,2-5.14,66.839,66.839,0,0,0,7.42-.58c.42-.06.54-.06.88-.1L-34,8.48a33.951,33.951,0,0,1-7.88.86c.2-.72.26-.96.54-2.12a10.141,10.141,0,0,1,.32-1.28l-1.6-.16a15.585,15.585,0,0,1-.64,3.58,18.284,18.284,0,0,1-4.32-.34ZM-23.64,7.5a22.275,22.275,0,0,0,3.06,1.26,30.848,30.848,0,0,0,3.9,1.14l.56-1.4A24.112,24.112,0,0,1-22.9,6.28ZM-25.3,9.66a6.727,6.727,0,0,1-.14,1.06c-.28,1.68-.64,4-.84,5.52-.08.64-.1.82-.16,1.18l1.56.04a3.477,3.477,0,0,1,.8-.82,9.689,9.689,0,0,1,5.6-1.74c2.44,0,3.88.96,3.88,2.6,0,2.04-2.1,3.36-5.4,3.36a14.2,14.2,0,0,1-5.1-1,4.626,4.626,0,0,1,.14,1.24,3.153,3.153,0,0,1-.02.38c1.22.3,1.22.3,1.6.4a16.617,16.617,0,0,0,3.5.36,8.3,8.3,0,0,0,4.98-1.32,4.276,4.276,0,0,0,1.8-3.44c0-2.34-2.1-3.86-5.36-3.86a9.9,9.9,0,0,0-5.78,1.72,5.6,5.6,0,0,0-.62.6l-.04-.02a2.41,2.41,0,0,0,.08-.46c.06-.46.1-.6.58-3.5a16.739,16.739,0,0,1,.46-2.2ZM-6.12,6.4A11.136,11.136,0,0,1-6.4,8a33.086,33.086,0,0,0-.9,7.92,28.665,28.665,0,0,0,.52,5.66c.06.38.08.48.12.8l1.44-.12v-.3a17.434,17.434,0,0,1,1.62-5.5L-4.56,16a18.581,18.581,0,0,0-1.3,3.9c-.08-1.06-.12-2.24-.12-3.8a29.566,29.566,0,0,1,.6-6.26,28.419,28.419,0,0,1,.84-3.2ZM-2,10.18a26.639,26.639,0,0,0,3.2.2,33.763,33.763,0,0,0,4.3-.26q1.32-.18,1.38-.18l-.1-1.42a21.461,21.461,0,0,1-5.36.54,13.584,13.584,0,0,1-3.4-.3Zm1.46,3.9A5.525,5.525,0,0,0-2.28,17.8a2.827,2.827,0,0,0,.6,1.84c.86,1.04,2.3,1.52,4.58,1.52a20.634,20.634,0,0,0,4.1-.4c.4-.06.44-.08.7-.1l-.2-1.54a13.162,13.162,0,0,1-4.6.7c-2.58,0-3.84-.72-3.84-2.2a4.646,4.646,0,0,1,1.5-2.94ZM12.5,15.3a2.085,2.085,0,0,1,.62.12,21.082,21.082,0,0,0,3.02.5c-.02.18-.02.18-.04.48a10.576,10.576,0,0,0-.08,1.32,5.423,5.423,0,0,0,.62,2.76c.78,1.28,2.38,2,4.48,2,3.5,0,5.86-1.9,5.86-4.72,0-1.46-.46-2.44-1.88-3.98a3.958,3.958,0,0,1-1.46.4,4.56,4.56,0,0,1,1.9,3.48c0,2.12-1.74,3.5-4.42,3.5a4.2,4.2,0,0,1-2.82-.86,2.952,2.952,0,0,1-.92-2.4c0-.34.04-1,.08-1.48a3.631,3.631,0,0,0,.02-.4c.9.04,1.22.04,1.72.04a23.079,23.079,0,0,0,2.82-.16c.28-.02.34-.02.54-.04l.04-1.34a17.487,17.487,0,0,1-3.68.32c-.28,0-.56,0-1.32-.02.12-1.12.14-1.32.46-3.62,1.1.04,1.44.04,1.76.04.58,0,1.18-.02,1.8-.08,1-.08,1-.08,1.4-.12l.06-1.38a16.229,16.229,0,0,1-3.66.34c-.32,0-.6,0-1.16-.02.1-.56.14-.76.2-1.2.18-1.1.18-1.1.2-1.28a10.287,10.287,0,0,1,.32-1.34l-1.6-.18v.16A31.473,31.473,0,0,1,16.9,9.9a12.907,12.907,0,0,1-3.6-.78l-.18,1.32c.28.06.36.08.62.14a26.575,26.575,0,0,0,2.98.54c-.16,1.06-.36,2.62-.46,3.6a13.3,13.3,0,0,1-3.58-.8ZM35.14,8.86H32.92a12.148,12.148,0,0,1-1.84-.12V10.1a10.514,10.514,0,0,1,1.78-.1h4.16a18.362,18.362,0,0,1-.98,5.2,45.556,45.556,0,0,0-3.22-3.62l-.94.8a34.763,34.763,0,0,1,3.62,4.08,14,14,0,0,1-4.62,5.46,3.524,3.524,0,0,1,1,.96,16.273,16.273,0,0,0,4.44-5.34,37.252,37.252,0,0,1,2.44,3.92l1-.96a39.1,39.1,0,0,0-2.86-4.2A19.191,19.191,0,0,0,38.32,10a14.1,14.1,0,0,1,1.82.08V8.74a12.148,12.148,0,0,1-1.84.12H36.4V7.52a14.761,14.761,0,0,1,.1-2.02H35.02a11.429,11.429,0,0,1,.12,2.02Zm10.2,2.36V21.46c0,.42-.16.5-1.06.5a19.2,19.2,0,0,1-2.56-.22,4.8,4.8,0,0,1,.42,1.34c.88.04,1.38.06,2.28.06,1.8,0,2.2-.3,2.2-1.62V11.22h.48a11.994,11.994,0,0,1,1.96.12V9.96a12.477,12.477,0,0,1-1.94.12h-.5V7.84a13.541,13.541,0,0,1,.12-2.18H45.2a11.467,11.467,0,0,1,.14,2.18v2.24H42.22a11.537,11.537,0,0,1-1.9-.1v1.36a12.345,12.345,0,0,1,1.88-.12ZM39.92,13.5a17.571,17.571,0,0,1,2.88,4.6l1.1-.76a22.739,22.739,0,0,0-2.96-4.46ZM59.76,7.48H54.48a15.306,15.306,0,0,1-2.02-.1,21.544,21.544,0,0,1,.1,2.7c0,7.22-.36,9.54-1.86,12.1a5.263,5.263,0,0,1,1.12.92,12.7,12.7,0,0,0,1.56-4.54,58.628,58.628,0,0,0,.48-9.92H66.74a15.382,15.382,0,0,1,2.16.1V7.36a13.738,13.738,0,0,1-2.16.12H61.06V6.44a4.46,4.46,0,0,1,.12-1.28H59.64a6.414,6.414,0,0,1,.12,1.26ZM55.24,21.32A19.865,19.865,0,0,0,57,14.4l-1.26-.34a15.127,15.127,0,0,1-1.7,6.54Zm3.22-9a9.79,9.79,0,0,1,.12,1.8v7.64c0,1.18.48,1.38,3.3,1.38,1.94,0,2.72-.14,3.14-.62.44-.48.68-1.72.82-4.22a4.619,4.619,0,0,1-1.28-.5v.5a11.464,11.464,0,0,1-.34,3.1c-.2.42-.7.54-2.42.54a6.584,6.584,0,0,1-1.62-.12c-.26-.1-.32-.2-.32-.52V14.14a9.892,9.892,0,0,1,.12-1.82Zm5.98.22a25.291,25.291,0,0,0-4.86-3.16l-.84.88a17.565,17.565,0,0,1,4.82,3.3Zm4.64,7.92a28.918,28.918,0,0,0-2.44-6.56l-1.16.5a21.274,21.274,0,0,1,2.3,6.62Z" transform="translate(1670 872.648)" fill="#070304"/>
    <path id="パス_106506" data-name="パス 106506" d="M3.341,2.459H1.9A7.9,7.9,0,0,1,.7,2.381v.884A6.834,6.834,0,0,1,1.859,3.2h2.7a11.936,11.936,0,0,1-.637,3.38A29.612,29.612,0,0,0,1.833,4.227l-.611.52A22.6,22.6,0,0,1,3.575,7.4a9.1,9.1,0,0,1-3,3.549,2.291,2.291,0,0,1,.65.624A10.578,10.578,0,0,0,4.108,8.1a24.214,24.214,0,0,1,1.586,2.548l.65-.624A25.418,25.418,0,0,0,4.485,7.3a12.474,12.474,0,0,0,.923-4.1,9.168,9.168,0,0,1,1.183.052V2.381a7.9,7.9,0,0,1-1.2.078H4.16V1.588A9.6,9.6,0,0,1,4.225.275H3.263a7.429,7.429,0,0,1,.078,1.313Zm6.63,1.534v6.656c0,.273-.1.325-.689.325a12.48,12.48,0,0,1-1.664-.143,3.119,3.119,0,0,1,.273.871c.572.026.9.039,1.482.039,1.17,0,1.43-.2,1.43-1.053V3.993h.312a7.8,7.8,0,0,1,1.274.078v-.9a8.11,8.11,0,0,1-1.261.078H10.8V1.8A8.8,8.8,0,0,1,10.881.379h-1A7.453,7.453,0,0,1,9.971,1.8V3.252H7.943a7.5,7.5,0,0,1-1.235-.065v.884A8.024,8.024,0,0,1,7.93,3.993ZM6.448,5.475A11.421,11.421,0,0,1,8.32,8.465l.715-.494a14.781,14.781,0,0,0-1.924-2.9Zm12.61-2.184A8.949,8.949,0,0,0,19.8,1.432h4.069a10.124,10.124,0,0,1,1.378.078V.6a10.4,10.4,0,0,1-1.378.078H15.145A9.918,9.918,0,0,1,13.78.6v.91a10.4,10.4,0,0,1,1.378-.078h3.757a7.568,7.568,0,0,1-.767,1.859H15.717A12.322,12.322,0,0,1,14.2,3.226a15.38,15.38,0,0,1,.078,1.638v5.6a9.97,9.97,0,0,1-.078,1.586h.91v-.741h8.8v.741h.91a11.264,11.264,0,0,1-.078-1.56V4.864a14.065,14.065,0,0,1,.078-1.638,12.655,12.655,0,0,1-1.547.065ZM18.031,6.4H20.9V8.062H18.031ZM20.9,5.7H18.031V4.006H20.9ZM18.031,8.764H20.9v1.82H18.031Zm-.793-4.758v6.578H15.106V4.006Zm4.459,0h2.21v6.578H21.7ZM33.2,2.381a3.741,3.741,0,0,1,1.508.325,3.427,3.427,0,0,1,2.067,3.263,3.924,3.924,0,0,1-2.3,3.64,7.793,7.793,0,0,1-2.171.611,2.066,2.066,0,0,1,.455.871,10.057,10.057,0,0,0,1.976-.6,4.734,4.734,0,0,0,2.977-4.485,4.352,4.352,0,0,0-1.261-3.172,5.033,5.033,0,0,0-3.575-1.287,5.43,5.43,0,0,0-4.2,1.729,5.408,5.408,0,0,0-1.365,3.588c0,1.82.923,3.172,2.158,3.172.936,0,1.7-.78,2.457-2.5A19.487,19.487,0,0,0,33.2,2.381Zm-.936.013A17.856,17.856,0,0,1,31.083,7.2C30.524,8.478,30,9.089,29.458,9.089c-.7,0-1.248-.962-1.248-2.21a4.5,4.5,0,0,1,2.119-3.874A4.106,4.106,0,0,1,32.266,2.394Zm14.365.039a13.138,13.138,0,0,1-2.652.559V1.744A7.435,7.435,0,0,1,44.044.535h-.962a8.636,8.636,0,0,1,.065,1.235V3.057c-.39.026-.9.039-1.248.039a7.363,7.363,0,0,1-1.326-.091v.858h.533c.143.013.494.013.689.013.377,0,.6,0,.832-.013.4-.026.4-.026.52-.039V6.281a6.954,6.954,0,0,0-1.833,1.066,2.353,2.353,0,0,0-1.027,1.729,1.568,1.568,0,0,0,.6,1.222,3.433,3.433,0,0,0,2.145.832c.637,0,.949-.338.949-1.04V6.84a8.771,8.771,0,0,1,2.756-.507c1.7,0,2.782.793,2.782,2.067a1.726,1.726,0,0,1-1.742,1.833c-.949,0-1.339-.559-1.339-1.911a3.861,3.861,0,0,1,.026-.507,2.818,2.818,0,0,1-.858.338,4.744,4.744,0,0,0,.156,1.469,1.917,1.917,0,0,0,2,1.469A2.675,2.675,0,0,0,49.075,6.1a4.4,4.4,0,0,0-2.3-.546,9.21,9.21,0,0,0-2.795.468V3.772a22.817,22.817,0,0,0,2.3-.39c.182-.039.234-.052.39-.078ZM43.147,9.609c0,.559-.039.637-.3.637a2.428,2.428,0,0,1-1.157-.377c-.377-.247-.559-.507-.559-.78,0-.624.728-1.326,2.015-1.95Zm7.813-5.5a10.924,10.924,0,0,0-2.626-2.47l-.676.507a10.647,10.647,0,0,1,2.626,2.548Zm8.619.247H57.356a9.155,9.155,0,0,1-1.417-.091v.962a9.927,9.927,0,0,1,1.4-.091h2.236v5.356H57.642a9.028,9.028,0,0,1-1.391-.091v.949a9.437,9.437,0,0,1,1.4-.091h4.966a9.556,9.556,0,0,1,1.4.091V10.4a9.2,9.2,0,0,1-1.4.091H60.45V5.137h2.574a10.055,10.055,0,0,1,1.4.091V4.266a9.091,9.091,0,0,1-1.4.091H60.45V1.6A6.422,6.422,0,0,1,60.528.4H59.5a7.956,7.956,0,0,1,.078,1.183ZM54.366,10.35a12.934,12.934,0,0,1-.078,1.56h.988a13.533,13.533,0,0,1-.065-1.521V3.434a16.53,16.53,0,0,0,1.014-2.353c.1-.3.169-.429.26-.663l-.91-.3a9.476,9.476,0,0,1-.923,2.613,12.784,12.784,0,0,1-2.21,3.133c.039.052.078.091.091.117a1.974,1.974,0,0,0,.195.234c.078.117.13.208.234.39a9.307,9.307,0,0,0,1.43-2c-.026.78-.026,1.027-.026,1.586ZM70.993,7.425h-3.9a8.458,8.458,0,0,1-1.417-.078v.819A9.431,9.431,0,0,1,67.093,8.1h3.9v.936H67.834a7.777,7.777,0,0,1-1.248-.065v.806a8.668,8.668,0,0,1,1.274-.065h3.133v1.066c0,.286-.117.351-.585.351A11.244,11.244,0,0,1,68.8,11a2.143,2.143,0,0,1,.221.819c.728.039.962.052,1.235.052,1.261,0,1.521-.182,1.521-1.079V9.713h3.484v.533H76.1a7.665,7.665,0,0,1-.078-1.3V8.1a8.841,8.841,0,0,1,1.378.065V7.347a6.607,6.607,0,0,1-1.378.078V6.879A10.289,10.289,0,0,1,76.063,5.8a12.705,12.705,0,0,1-1.456.052H71.773V5.007h3a8.108,8.108,0,0,1,1.053.052,6.153,6.153,0,0,1-.052-.871V3.616a6.342,6.342,0,0,1,.052-.884,8.325,8.325,0,0,1-1.066.052h-2.99V1.926h4A11.629,11.629,0,0,1,77.246,2V1.146a9.848,9.848,0,0,1-1.5.078H71.773a4.239,4.239,0,0,1,.091-1.17h-.949a5.234,5.234,0,0,1,.078,1.17H67.249a9.647,9.647,0,0,1-1.482-.078V2a11.127,11.127,0,0,1,1.456-.078h3.77v.858h-2.7a8.677,8.677,0,0,1-1.079-.052,6.465,6.465,0,0,1,.052.884v.572a6.153,6.153,0,0,1-.052.871,8.2,8.2,0,0,1,1.066-.052h2.717v.845H67.964a7.581,7.581,0,0,1-1.248-.065v.806a8.229,8.229,0,0,1,1.222-.065h3.055Zm.78,0v-.9h3.484v.9Zm0,.676h3.484v.936H71.773Zm-.78-4.68v.962H68.042V3.421Zm.78,0H75v.962H71.773ZM84.5,4.994A1.066,1.066,0,1,0,85.566,6.06,1.071,1.071,0,0,0,84.5,4.994ZM95.732,3.1v1.82H93.444a6.082,6.082,0,0,1-1.209-.065v.858a7.147,7.147,0,0,1,1.209-.065h2.275a15.607,15.607,0,0,1-.143,1.677,27.5,27.5,0,0,1-3.978.858l.273.9a8.86,8.86,0,0,1,1.43-.4c.91-.221,1.391-.351,2.093-.546a4.3,4.3,0,0,1-.858,1.638,5.553,5.553,0,0,1-2.288,1.547,2.938,2.938,0,0,1,.611.728,5.551,5.551,0,0,0,3.458-4.186l1.027-.325V6.788c-.429.143-.65.208-.91.286A18.227,18.227,0,0,0,96.551,4.9V1.718A8.763,8.763,0,0,1,96.616.249h-.962A8.04,8.04,0,0,1,95.732,1.7v.65H93.067a5.713,5.713,0,0,1-1.209-.078v.884A6.688,6.688,0,0,1,93.067,3.1ZM99.2,8.673h2.782a8.4,8.4,0,0,1,1.248.078v-.9a7.3,7.3,0,0,1-1.248.065H99.2V5.8h2.47a6.974,6.974,0,0,1,1.2.065V5.007a6.007,6.007,0,0,1-1.2.065H99.2V3.122h2.717a6.857,6.857,0,0,1,1.222.065V2.3a5.779,5.779,0,0,1-1.222.078H99.2V1.744A10.087,10.087,0,0,1,99.281.249h-.962a10.667,10.667,0,0,1,.065,1.495V10.4a8.7,8.7,0,0,1-.078,1.534h.975A8.7,8.7,0,0,1,99.2,10.4Zm8.138-6.214H105.9a7.9,7.9,0,0,1-1.2-.078v.884a6.834,6.834,0,0,1,1.157-.065h2.7a11.936,11.936,0,0,1-.637,3.38,29.612,29.612,0,0,0-2.093-2.353l-.611.52A22.6,22.6,0,0,1,107.575,7.4a9.1,9.1,0,0,1-3,3.549,2.291,2.291,0,0,1,.65.624A10.578,10.578,0,0,0,108.108,8.1a24.214,24.214,0,0,1,1.586,2.548l.65-.624a25.418,25.418,0,0,0-1.859-2.73,12.474,12.474,0,0,0,.923-4.1,9.168,9.168,0,0,1,1.183.052V2.381a7.9,7.9,0,0,1-1.2.078H108.16V1.588a9.6,9.6,0,0,1,.065-1.313h-.962a7.428,7.428,0,0,1,.078,1.313Zm6.63,1.534v6.656c0,.273-.1.325-.689.325a12.48,12.48,0,0,1-1.664-.143,3.119,3.119,0,0,1,.273.871c.572.026.9.039,1.482.039,1.17,0,1.43-.2,1.43-1.053V3.993h.312a7.8,7.8,0,0,1,1.274.078v-.9a8.11,8.11,0,0,1-1.261.078H114.8V1.8a8.8,8.8,0,0,1,.078-1.417h-1a7.453,7.453,0,0,1,.091,1.417V3.252h-2.028a7.5,7.5,0,0,1-1.235-.065v.884a8.024,8.024,0,0,1,1.222-.078Zm-3.523,1.482a11.421,11.421,0,0,1,1.872,2.99l.715-.494a14.781,14.781,0,0,0-1.924-2.9Zm12.61-2.184a8.948,8.948,0,0,0,.741-1.859h4.069a10.124,10.124,0,0,1,1.378.078V.6a10.4,10.4,0,0,1-1.378.078h-8.723A9.917,9.917,0,0,1,117.78.6v.91a10.4,10.4,0,0,1,1.378-.078h3.757a7.568,7.568,0,0,1-.767,1.859h-2.431a12.322,12.322,0,0,1-1.521-.065,15.38,15.38,0,0,1,.078,1.638v5.6a9.97,9.97,0,0,1-.078,1.586h.91v-.741h8.8v.741h.91a11.264,11.264,0,0,1-.078-1.56V4.864a14.065,14.065,0,0,1,.078-1.638,12.655,12.655,0,0,1-1.547.065ZM122.031,6.4H124.9V8.062h-2.873Zm2.873-.7h-2.873V4.006H124.9Zm-2.873,3.068H124.9v1.82h-2.873Zm-.793-4.758v6.578h-2.132V4.006Zm4.459,0h2.21v6.578H125.7Zm11.5-1.625a3.741,3.741,0,0,1,1.508.325,3.427,3.427,0,0,1,2.067,3.263,3.924,3.924,0,0,1-2.3,3.64,7.792,7.792,0,0,1-2.171.611,2.065,2.065,0,0,1,.455.871,10.057,10.057,0,0,0,1.976-.6,4.734,4.734,0,0,0,2.977-4.485,4.352,4.352,0,0,0-1.261-3.172,5.033,5.033,0,0,0-3.575-1.287,5.43,5.43,0,0,0-4.2,1.729,5.408,5.408,0,0,0-1.365,3.588c0,1.82.923,3.172,2.158,3.172.936,0,1.7-.78,2.457-2.5A19.487,19.487,0,0,0,137.2,2.381Zm-.936.013a17.856,17.856,0,0,1-1.183,4.81c-.559,1.274-1.079,1.885-1.625,1.885-.7,0-1.248-.962-1.248-2.21a4.5,4.5,0,0,1,2.119-3.874A4.106,4.106,0,0,1,136.266,2.394Zm14.365.039a13.138,13.138,0,0,1-2.652.559V1.744a7.435,7.435,0,0,1,.065-1.209h-.962a8.635,8.635,0,0,1,.065,1.235V3.057c-.39.026-.9.039-1.248.039a7.363,7.363,0,0,1-1.326-.091v.858h.533c.143.013.494.013.689.013.377,0,.6,0,.832-.013.4-.026.4-.026.52-.039V6.281a6.954,6.954,0,0,0-1.833,1.066,2.353,2.353,0,0,0-1.027,1.729,1.568,1.568,0,0,0,.6,1.222,3.433,3.433,0,0,0,2.145.832c.637,0,.949-.338.949-1.04V6.84a8.771,8.771,0,0,1,2.756-.507c1.7,0,2.782.793,2.782,2.067a1.726,1.726,0,0,1-1.742,1.833c-.949,0-1.339-.559-1.339-1.911a3.861,3.861,0,0,1,.026-.507,2.818,2.818,0,0,1-.858.338,4.744,4.744,0,0,0,.156,1.469,1.917,1.917,0,0,0,2,1.469A2.675,2.675,0,0,0,153.075,6.1a4.4,4.4,0,0,0-2.3-.546,9.21,9.21,0,0,0-2.795.468V3.772a22.817,22.817,0,0,0,2.3-.39c.182-.039.234-.052.39-.078Zm-3.484,7.176c0,.559-.039.637-.3.637a2.428,2.428,0,0,1-1.157-.377c-.377-.247-.559-.507-.559-.78,0-.624.728-1.326,2.015-1.95Zm7.813-5.5a10.925,10.925,0,0,0-2.626-2.47l-.676.507a10.647,10.647,0,0,1,2.626,2.548Zm8.619.247h-2.223a9.155,9.155,0,0,1-1.417-.091v.962a9.927,9.927,0,0,1,1.4-.091h2.236v5.356h-1.937a9.027,9.027,0,0,1-1.391-.091v.949a9.437,9.437,0,0,1,1.4-.091h4.966a9.556,9.556,0,0,1,1.4.091V10.4a9.2,9.2,0,0,1-1.4.091H164.45V5.137h2.574a10.054,10.054,0,0,1,1.4.091V4.266a9.09,9.09,0,0,1-1.4.091H164.45V1.6a6.421,6.421,0,0,1,.078-1.2H163.5a7.959,7.959,0,0,1,.078,1.183Zm-5.213,5.993a12.934,12.934,0,0,1-.078,1.56h.988a13.533,13.533,0,0,1-.065-1.521V3.434a16.531,16.531,0,0,0,1.014-2.353c.1-.3.169-.429.26-.663l-.91-.3a9.476,9.476,0,0,1-.923,2.613,12.783,12.783,0,0,1-2.21,3.133c.039.052.078.091.091.117a1.973,1.973,0,0,0,.195.234c.078.117.13.208.234.39a9.308,9.308,0,0,0,1.43-2c-.026.78-.026,1.027-.026,1.586Zm16.627-2.925h-3.9a8.458,8.458,0,0,1-1.417-.078v.819a9.431,9.431,0,0,1,1.417-.065h3.9v.936h-3.159a7.777,7.777,0,0,1-1.248-.065v.806a8.668,8.668,0,0,1,1.274-.065h3.133v1.066c0,.286-.117.351-.585.351A11.244,11.244,0,0,1,172.8,11a2.143,2.143,0,0,1,.221.819c.728.039.962.052,1.235.052,1.261,0,1.521-.182,1.521-1.079V9.713h3.484v.533h.845a7.664,7.664,0,0,1-.078-1.3V8.1a8.842,8.842,0,0,1,1.378.065V7.347a6.607,6.607,0,0,1-1.378.078V6.879a10.289,10.289,0,0,1,.039-1.079,12.705,12.705,0,0,1-1.456.052h-2.834V5.007h3a8.108,8.108,0,0,1,1.053.052,6.153,6.153,0,0,1-.052-.871V3.616a6.342,6.342,0,0,1,.052-.884,8.325,8.325,0,0,1-1.066.052h-2.99V1.926h4A11.629,11.629,0,0,1,181.246,2V1.146a9.848,9.848,0,0,1-1.495.078h-3.978a4.239,4.239,0,0,1,.091-1.17h-.949a5.234,5.234,0,0,1,.078,1.17h-3.744a9.647,9.647,0,0,1-1.482-.078V2a11.127,11.127,0,0,1,1.456-.078h3.77v.858h-2.7a8.677,8.677,0,0,1-1.079-.052,6.468,6.468,0,0,1,.052.884v.572a6.155,6.155,0,0,1-.052.871,8.2,8.2,0,0,1,1.066-.052h2.717v.845h-3.029a7.581,7.581,0,0,1-1.248-.065v.806a8.229,8.229,0,0,1,1.222-.065h3.055Zm.78,0v-.9h3.484v.9Zm0,.676h3.484v.936h-3.484Zm-.78-4.68v.962h-2.951V3.421Zm.78,0H179v.962h-3.224ZM189.2,2.381a3.741,3.741,0,0,1,1.508.325,3.427,3.427,0,0,1,2.067,3.263,3.924,3.924,0,0,1-2.3,3.64,7.792,7.792,0,0,1-2.171.611,2.065,2.065,0,0,1,.455.871,10.057,10.057,0,0,0,1.976-.6,4.734,4.734,0,0,0,2.977-4.485,4.352,4.352,0,0,0-1.261-3.172,5.033,5.033,0,0,0-3.575-1.287,5.43,5.43,0,0,0-4.2,1.729,5.408,5.408,0,0,0-1.365,3.588c0,1.82.923,3.172,2.158,3.172.936,0,1.7-.78,2.457-2.5A19.487,19.487,0,0,0,189.2,2.381Zm-.936.013a17.856,17.856,0,0,1-1.183,4.81c-.559,1.274-1.079,1.885-1.625,1.885-.7,0-1.248-.962-1.248-2.21a4.5,4.5,0,0,1,2.119-3.874A4.106,4.106,0,0,1,188.266,2.394Zm12.818-.962V3.148h-3.536a10.172,10.172,0,0,1-1.209-.052,11.3,11.3,0,0,1,.052,1.222v6.214a11.77,11.77,0,0,1-.078,1.443h.988a10.408,10.408,0,0,1-.078-1.4V3.876h3.861V8.634h-1.625V5.969a6.179,6.179,0,0,1,.052-.936h-.884a6.517,6.517,0,0,1,.052.936V9.31a11.227,11.227,0,0,1-.065,1.261h.819V9.349h4.16V9.96h.806a7.645,7.645,0,0,1-.052-1.092v-2.9a6.179,6.179,0,0,1,.052-.936h-.884a6.29,6.29,0,0,1,.052.936V8.634h-1.69V3.876h3.913v6.773c0,.3-.091.364-.507.364a10.207,10.207,0,0,1-1.586-.156,2.8,2.8,0,0,1,.234.858c1.053.065,1.053.065,1.287.065a1.958,1.958,0,0,0,1.066-.169c.247-.143.338-.364.338-.871V4.292a10.355,10.355,0,0,1,.052-1.2,10.414,10.414,0,0,1-1.222.052h-3.575V1.432h4.1a10.462,10.462,0,0,1,1.365.078V.6a10.534,10.534,0,0,1-1.378.078h-8.944A10.258,10.258,0,0,1,195.637.6v.91A9.918,9.918,0,0,1,197,1.432ZM5.954,19.368H2.249a8.749,8.749,0,0,1-1.443-.091v.975a10.081,10.081,0,0,1,1.456-.078h2.73c-.1,2.73-.611,4.5-1.677,5.876A6.737,6.737,0,0,1,.676,28.156a2.516,2.516,0,0,1,.637.728,7.778,7.778,0,0,0,1.417-.949,8.293,8.293,0,0,0,1.612-1.794,8.734,8.734,0,0,0,1.235-3.328H9.659a24.929,24.929,0,0,1-.4,3.939c-.195.962-.325,1.118-.884,1.118a10.522,10.522,0,0,1-1.963-.208,2.832,2.832,0,0,1,.208.923c.7.078,1.391.117,1.807.117,1.04,0,1.352-.273,1.625-1.391a27.2,27.2,0,0,0,.494-4.433c.026-.507.039-.65.065-.91a8.271,8.271,0,0,1-1.339.065H5.72A18.021,18.021,0,0,0,5.9,20.174h4.927a8.119,8.119,0,0,1,1.469.078v-.975a9.133,9.133,0,0,1-1.495.091H6.825v-.975A6.332,6.332,0,0,1,6.9,17.249H5.863a7.156,7.156,0,0,1,.091,1.144ZM22.464,17.8A9.964,9.964,0,0,1,23.8,19.862l.65-.39a9.869,9.869,0,0,0-1.339-2.015Zm-8.372,4a16.923,16.923,0,0,1,2.613-.468,19.184,19.184,0,0,1-2.782,6.474l.884.52a25.249,25.249,0,0,0,2.808-7.072,7.464,7.464,0,0,1,.936-.065c1.209,0,1.6.442,1.6,1.82a10.063,10.063,0,0,1-.546,3.614q-.254.624-.741.624a4.859,4.859,0,0,1-1.937-.6,2.4,2.4,0,0,1,.039.507,2.9,2.9,0,0,1-.026.468,4.891,4.891,0,0,0,1.963.507,1.358,1.358,0,0,0,1.274-.611,8.96,8.96,0,0,0,.871-4.472,2.624,2.624,0,0,0-.637-2.093,2.484,2.484,0,0,0-1.872-.546,7.576,7.576,0,0,0-.767.039c.1-.559.221-1.157.273-1.482a7.992,7.992,0,0,1,.247-1.248l-1.04-.117v.169a16.057,16.057,0,0,1-.39,2.756,26.667,26.667,0,0,1-2.873.338Zm9.854-4.693a9.415,9.415,0,0,1,1.326,2.041l.65-.377a10.441,10.441,0,0,0-1.339-2.015ZM21.762,20.07a10.978,10.978,0,0,1,2.652,4.667l.832-.468a11.9,11.9,0,0,0-2.717-4.6Zm10.283,3.38v1.235H30.966a6.456,6.456,0,0,1-1.17-.065v.767a6.622,6.622,0,0,1,1.183-.065H36.92a7.747,7.747,0,0,1,1.274.065V24.62a7.65,7.65,0,0,1-1.274.065H35.711V23.45h.819a7.418,7.418,0,0,1,1.222.065v-.754a6.79,6.79,0,0,1-1.2.065h-.845c.013-.39.026-.559.052-.832h-.884a6.172,6.172,0,0,1,.065.832H32.8a6.374,6.374,0,0,1,.052-.832h-.884a6.562,6.562,0,0,1,.065.832h-.507a6.61,6.61,0,0,1-1.2-.065v.754a7.053,7.053,0,0,1,1.209-.065Zm.754,0h2.158v1.235H32.8Zm.676-5.187a5.558,5.558,0,0,1,.026-.7,7.448,7.448,0,0,1-1.144.052H30.979a5.745,5.745,0,0,1-1.027-.065v.78a5.658,5.658,0,0,1,1.027-.065h1.768v.975h-1.9a6.166,6.166,0,0,1-.819-.039,5.215,5.215,0,0,1,.039.715v.975c0,.676.208.767,1.729.767,1.053,0,1.4-.052,1.586-.221.221-.195.3-.442.377-1.092a2.087,2.087,0,0,1-.676-.312,2.141,2.141,0,0,1-.13.793c-.091.156-.3.195-1.235.195-.858,0-.936-.039-.936-.364v-.832h1.911a7.1,7.1,0,0,1,.806.039,4.936,4.936,0,0,1-.026-.689Zm4.3,0a5.349,5.349,0,0,1,.026-.7,7.448,7.448,0,0,1-1.144.052H35.282a5.745,5.745,0,0,1-1.027-.065v.78a5.658,5.658,0,0,1,1.027-.065H37.05v.975H35.139a6.4,6.4,0,0,1-.832-.039,5.035,5.035,0,0,1,.052.728v.949c0,.689.195.78,1.755.78,1.833,0,1.924-.052,2.08-1.313a2.646,2.646,0,0,1-.689-.312,1.733,1.733,0,0,1-.182.858c-.1.1-.416.143-1.313.143a2.985,2.985,0,0,1-.767-.065c-.13-.052-.156-.1-.156-.312v-.832H37a7.1,7.1,0,0,1,.806.039,5.036,5.036,0,0,1-.026-.689Zm-5.252,7.163a6.628,6.628,0,0,1-2.353,1.4,1.84,1.84,0,0,1,.6.585,8.115,8.115,0,0,0,2.392-1.573Zm2.093.455a9.317,9.317,0,0,0,2.782,1.6,3.225,3.225,0,0,1,.559-.663,8.518,8.518,0,0,1-2.73-1.352Zm-7.67-7.787a11.873,11.873,0,0,1,1.859,2.21l.663-.585a17.011,17.011,0,0,0-1.924-2.158Zm-.221,5.1a5.009,5.009,0,0,1,.949-.065h.793v3.146a7.266,7.266,0,0,1-2,1.547l.429.858c.182-.169.182-.169.416-.364l.611-.507c.3-.26.52-.481.91-.884a3.416,3.416,0,0,0,1.352,1.248c.78.364,1.456.442,3.731.442,1.573,0,3.029-.026,4.368-.091a3.42,3.42,0,0,1,.3-.936,38.374,38.374,0,0,1-5.239.26,7.147,7.147,0,0,1-2.951-.39,2.053,2.053,0,0,1-1.118-1.183V23.71a9.965,9.965,0,0,1,.052-1.365,5.817,5.817,0,0,1-.988.065h-.611a5.268,5.268,0,0,1-1-.065Zm13.663,1.573c.117-.143.143-.169.377-.429a34.224,34.224,0,0,0,2.275-2.769c.624-.832.741-.936,1.027-.936.221,0,.429.156.78.559a39.846,39.846,0,0,0,5.681,5.6,2.33,2.33,0,0,1,.312.273l.442-1.118c-.689-.195-3.575-2.808-5.161-4.68-.6-.689-.819-.936-.949-1.053a1.352,1.352,0,0,0-2.158-.091,5.574,5.574,0,0,0-.65.78,15.977,15.977,0,0,1-2.613,2.9Zm7.137-5.538a9.628,9.628,0,0,1,1.339,2.067l.65-.39a9.869,9.869,0,0,0-1.339-2.015Zm1.482-.7a9.486,9.486,0,0,1,1.326,2.054l.65-.377a10.95,10.95,0,0,0-1.339-2.028Zm6.123.767a6.4,6.4,0,0,1,.7-.065c1.976-.065,3.536-.156,3.952-.234a.5.5,0,0,1,.117-.013L59.93,19l-.052.052-.052.052-.182.182c-.9.884-2.951,2.691-4.342,3.8a14.483,14.483,0,0,1-1.82,1.326l.585.832a8.343,8.343,0,0,1,5.473-2.223c1.755,0,2.795.741,2.795,1.989,0,1.1-.715,1.9-2.08,2.275a3.721,3.721,0,0,0-.6-1.248,2.618,2.618,0,0,0-2.145-1.066,1.689,1.689,0,0,0-1.885,1.521c0,1.2,1.053,1.872,2.886,1.872,2.886,0,4.771-1.339,4.771-3.367,0-1.664-1.391-2.73-3.562-2.73a6.587,6.587,0,0,0-3.185.806l-.026-.039a33.358,33.358,0,0,0,4.277-3.692,2.4,2.4,0,0,1,.663-.546l-.546-.715a1.329,1.329,0,0,1-.624.143c-1.17.091-2.9.169-3.978.169a6,6,0,0,1-1.222-.078ZM59.4,27.519a4.681,4.681,0,0,1-.949.091,3.322,3.322,0,0,1-1.456-.3.887.887,0,0,1-.52-.793c0-.494.4-.806,1.053-.806C58.461,25.712,59.111,26.336,59.4,27.519ZM72.2,19.381a3.741,3.741,0,0,1,1.508.325,3.427,3.427,0,0,1,2.067,3.263,3.924,3.924,0,0,1-2.3,3.64,7.793,7.793,0,0,1-2.171.611,2.066,2.066,0,0,1,.455.871,10.057,10.057,0,0,0,1.976-.6,4.734,4.734,0,0,0,2.977-4.485,4.352,4.352,0,0,0-1.261-3.172,5.033,5.033,0,0,0-3.575-1.287,5.279,5.279,0,0,0-5.564,5.317c0,1.82.923,3.172,2.158,3.172.936,0,1.7-.78,2.457-2.5A19.487,19.487,0,0,0,72.2,19.381Zm-.936.013a17.856,17.856,0,0,1-1.183,4.81c-.559,1.274-1.079,1.885-1.625,1.885-.7,0-1.248-.962-1.248-2.21a4.5,4.5,0,0,1,2.119-3.874A4.106,4.106,0,0,1,71.266,19.394Zm7.969,1.027a43.279,43.279,0,0,1,4.485-.429,26.606,26.606,0,0,0,2.86-.286,8.51,8.51,0,0,0-1.235.689,4.946,4.946,0,0,0-2.431,3.991,3.148,3.148,0,0,0,1.443,2.652,6.557,6.557,0,0,0,2.808,1c.234.039.26.052.4.078l.169-1.053h-.13a6.663,6.663,0,0,1-1.95-.416,2.549,2.549,0,0,1-1.82-2.405,3.973,3.973,0,0,1,1.6-3,6.394,6.394,0,0,1,2.5-1.3,5.453,5.453,0,0,1,1.456-.182L89.31,18.8a8.78,8.78,0,0,1-1.547.143l-.741.026c-.429.013-.6.026-2.2.117l-2.041.13c-1.6.091-1.677.1-2.4.156-.4.026-.559.039-.741.039-.091,0-.221,0-.468-.013Zm7.982,1.248a9.142,9.142,0,0,1,1.326,2.067l.663-.39a9.869,9.869,0,0,0-1.339-2.015Zm1.482-.7a10.287,10.287,0,0,1,1.326,2.041l.65-.364a10.535,10.535,0,0,0-1.339-2.028Zm2.249,5.057a12.975,12.975,0,0,1,2.561,2.834l.728-.689a13.246,13.246,0,0,0-2.613-2.756Zm14.2-5.98a1.347,1.347,0,0,1,.208-.013,2.112,2.112,0,0,1,.234.013c1.04.039,1.625.065,1.755.065h.52c-.065.949-.065,1.014-.078,1.963a4.431,4.431,0,0,0-3.016,3.874,1.775,1.775,0,0,0,1.677,1.976,4.262,4.262,0,0,0,2.9-1.573,11.707,11.707,0,0,0,2.47-3.9c1.4.364,2.145,1.144,2.145,2.262a2.867,2.867,0,0,1-2.236,2.6,6.055,6.055,0,0,1-1.95.351,2.68,2.68,0,0,1,.416.871,7.157,7.157,0,0,0,2.652-.741,3.335,3.335,0,0,0,2.041-3c0-1.521-1-2.626-2.795-3.042.221-.611.364-.962.4-1.04l-.9-.273a4.881,4.881,0,0,1-.312,1.17c-.325-.026-.481-.039-.754-.039a6.869,6.869,0,0,0-1.924.26c.013-.637.013-.637.091-1.742a36.417,36.417,0,0,0,4.6-.52c.247-.039.286-.039.455-.065l-.052-.91a19.976,19.976,0,0,1-4.953.728,8.644,8.644,0,0,1,.273-1.82L108,17.431a1.38,1.38,0,0,1,.013.195c0,.091-.026.6-.039.741-.052.663-.052.663-.065.975-.234.013-.286.013-.325.013a9.1,9.1,0,0,1-2.431-.208Zm2.639,2.847a18.386,18.386,0,0,0,.26,3.523,2.347,2.347,0,0,1-1.5.663c-.559,0-.936-.468-.936-1.183a3.071,3.071,0,0,1,.793-1.937A4.646,4.646,0,0,1,107.783,22.891Zm.962,2.977v-.143a.858.858,0,0,0-.013-.182,21.865,21.865,0,0,1-.143-2.977,5.848,5.848,0,0,1,1.807-.3c.143,0,.208,0,.624.026a11.741,11.741,0,0,1-1.989,3.25,1.41,1.41,0,0,0-.247.338Zm11.9-8.411A13.375,13.375,0,0,1,120.2,19.9c-.247,0-.676.013-.936.013a8.215,8.215,0,0,1-1.547-.1l-.013.9h.169c.039,0,.143,0,.286.013.195,0,.637.013.858.013.195,0,.637-.013.962-.026a19.465,19.465,0,0,1-1.352,3.354,11.477,11.477,0,0,1-1.248,2.028l.884.52c.065-.1.143-.26.26-.442.494-.858.611-1.079.923-1.7a24.22,24.22,0,0,0,1.443-3.8,15.694,15.694,0,0,0,2.132-.273c.312-.052.312-.052.455-.078l-.039-.9a10.818,10.818,0,0,1-2.327.429c.182-.663.26-.975.351-1.417a4.071,4.071,0,0,1,.208-.832Zm7.657,3.588a17.918,17.918,0,0,0-3.432-1.716l-.481.728a14.1,14.1,0,0,1,3.445,1.768Zm.026,5.759a1.315,1.315,0,0,1-.234-.208,9.338,9.338,0,0,0-2.548-1.573,15.507,15.507,0,0,1-.143-1.976,3.99,3.99,0,0,1,.169-1.209l-.884-.091a5.264,5.264,0,0,0-.13,1.261c0,.325.026.936.091,1.781a4.29,4.29,0,0,0-1.313-.195,3.8,3.8,0,0,0-1.534.286,1.844,1.844,0,0,0-1.209,1.651c0,1.157.975,1.885,2.535,1.885,1.586,0,2.47-.741,2.47-2.08a2.7,2.7,0,0,0-.026-.416,7.436,7.436,0,0,1,2.275,1.768Zm-3.614-1.183s.026.4.026.559c0,.975-.507,1.417-1.625,1.417-1.027,0-1.651-.4-1.651-1.066,0-.715.7-1.17,1.807-1.17A3.858,3.858,0,0,1,124.709,25.621Zm6.084-4.875a1.936,1.936,0,0,1,.221-.013h.052c.507.026.624.026,1.079.026.481,0,.637,0,.9-.013a26.145,26.145,0,0,1-2.444,7.189l.949.4a34.256,34.256,0,0,0,1.495-3.965c.351-1.183.715-2.652.91-3.679a19,19,0,0,0,2.2-.312c.26-.052.26-.052.364-.065l-.065-.9a10.719,10.719,0,0,1-2.34.442c.065-.39.1-.572.169-.988a12.3,12.3,0,0,1,.234-1.235l-1.027-.1a12.712,12.712,0,0,1-.286,2.392c-.377.026-.52.026-.78.026a8.965,8.965,0,0,1-1.625-.117Zm9.815.637c-.975-.039-1.17-.039-1.417-.039a14.729,14.729,0,0,0-3.445.429l.091.884a11.315,11.315,0,0,1,3.25-.442,13.052,13.052,0,0,1,1.534.091Zm-4.732,2.808c-.689.884-.871,1.287-.871,1.872,0,1.287,1.1,1.95,3.237,1.95a13.026,13.026,0,0,0,2.314-.221c.429-.065.429-.065.572-.091l-.091-.975a9.659,9.659,0,0,1-2.873.442c-1.482,0-2.275-.416-2.275-1.2a1.565,1.565,0,0,1,.325-.923,4.358,4.358,0,0,1,.39-.494Zm13.676-4.81a3.741,3.741,0,0,1,1.508.325,3.427,3.427,0,0,1,2.067,3.263,3.924,3.924,0,0,1-2.3,3.64,7.792,7.792,0,0,1-2.171.611,2.065,2.065,0,0,1,.455.871,10.057,10.057,0,0,0,1.976-.6,4.734,4.734,0,0,0,2.977-4.485,4.352,4.352,0,0,0-1.261-3.172,5.033,5.033,0,0,0-3.575-1.287,5.279,5.279,0,0,0-5.564,5.317c0,1.82.923,3.172,2.158,3.172.936,0,1.7-.78,2.457-2.5A19.487,19.487,0,0,0,149.552,19.381Zm-.936.013a17.856,17.856,0,0,1-1.183,4.81c-.559,1.274-1.079,1.885-1.625,1.885-.7,0-1.248-.962-1.248-2.21a4.5,4.5,0,0,1,2.119-3.874A4.106,4.106,0,0,1,148.616,19.394Zm18.447,7.9a32.329,32.329,0,0,0-4.329-3.9,15.72,15.72,0,0,0,2.145-3.64,2.426,2.426,0,0,1,.364-.637l-.546-.559a2.424,2.424,0,0,1-.832.1l-4.641.052h-.338a6.109,6.109,0,0,1-1.027-.065l.026,1.053a8.747,8.747,0,0,1,1.339-.1l4.342-.065a2.209,2.209,0,0,0,.312-.013.275.275,0,0,1-.039.091c-.026.065-.039.078-.065.156a14.09,14.09,0,0,1-4.641,5.863,10.465,10.465,0,0,1-2.639,1.495,2.893,2.893,0,0,1,.637.858,16.74,16.74,0,0,0,2.548-1.56,14.112,14.112,0,0,0,2.483-2.327,24.179,24.179,0,0,1,4.16,4.017Zm6.422-7.085-2.652.416a9.739,9.739,0,0,1-1.352.13l.182.988a10.707,10.707,0,0,1,1.3-.286l2.678-.416.468,2.626-3.458.559a6.841,6.841,0,0,1-1.287.117l.169.988a6.884,6.884,0,0,1,1.248-.26l3.484-.559.533,2.912a10.361,10.361,0,0,1,.156,1.248l1.04-.195a7.055,7.055,0,0,1-.286-1.235l-.533-2.873,3.263-.52c.091-.013.156-.026.3-.052.221-.039.351-.065.4-.065a3.842,3.842,0,0,1,.572-.065l-.182-.962a7.988,7.988,0,0,1-1.287.3l-3.224.52-.494-2.626,2.951-.455c.806-.13.806-.13,1.157-.169l-.182-.936a6.106,6.106,0,0,1-1.144.26l-2.938.455-.26-1.43a6.7,6.7,0,0,1-.143-1.1l-1.027.169a4.434,4.434,0,0,1,.286,1.1Zm10.452-2.119a5.782,5.782,0,0,1,.052.923,17.736,17.736,0,0,1-.585,5.577,6.431,6.431,0,0,1-2.2,2.99,2.4,2.4,0,0,1,.78.7,7.947,7.947,0,0,0,2.249-3.211c.494-1.313.6-2.275.7-5.8a6.476,6.476,0,0,1,.078-1.118ZM187.174,18a5.216,5.216,0,0,1,.052,1.157l-.078,7.6a2.191,2.191,0,0,1-.091.884l.52.6a2.166,2.166,0,0,1,.3-.143c.182-.065.182-.065.416-.156A8.569,8.569,0,0,0,190.151,27a7.386,7.386,0,0,0,2.613-3.341,3.634,3.634,0,0,1-.728-.754,6.429,6.429,0,0,1-1.534,2.6,6.008,6.008,0,0,1-2.418,1.508l.078-7.852a5.04,5.04,0,0,1,.078-1.144Zm10.777,1.248a18.19,18.19,0,0,1-2.782-.143l-.013.9a2.3,2.3,0,0,1,.286-.013h.208c.481.013,1.7.039,1.911.039a1.44,1.44,0,0,0,.247-.026l-.117.195a12.936,12.936,0,0,1-2.912,3.718l.728.728a4.3,4.3,0,0,1,1-1.079,4.884,4.884,0,0,1,2.9-1.378c.611,0,.923.312,1.027,1.027a10.091,10.091,0,0,0-1.937,1.04,2.688,2.688,0,0,0-1.326,2.054c0,1.339,1.131,2,3.458,2a20.167,20.167,0,0,0,3.159-.26,5.117,5.117,0,0,1,.52-.065l-.117-1a10.893,10.893,0,0,1-3.471.507c-1.833,0-2.639-.377-2.639-1.235,0-.78.676-1.391,2.444-2.223a3.416,3.416,0,0,1,.013.39,18.7,18.7,0,0,1-.078,1.872l.884-.013a2.826,2.826,0,0,1-.026-.468c0-.117,0-.3.013-.585.013-.26.013-.546.013-.715,0-.325,0-.455-.026-.793a21.584,21.584,0,0,1,3.471-1.144l-.416-.91a2.86,2.86,0,0,1-.884.377c-.572.208-1.313.481-2.262.858a1.578,1.578,0,0,0-1.716-1.443,3.46,3.46,0,0,0-1.963.637c-.13.091-.13.091-.6.455a.1.1,0,0,1-.026-.039V22.5a.013.013,0,0,0,.013-.013c.013-.013.078-.065.169-.13.052-.039.312-.338.442-.494a9.586,9.586,0,0,0,1.17-1.846,41.975,41.975,0,0,0,4.29-.338,4.053,4.053,0,0,1,.52-.065l-.078-.884a18.3,18.3,0,0,1-4.1.494,2.213,2.213,0,0,0-.273.013c.065-.117.234-.468.4-.884a2.761,2.761,0,0,1,.338-.7l-1.04-.182a5.517,5.517,0,0,1-.624,1.781Zm11.505-1.391a4,4,0,0,1,.052.689c0,.208,0,.455-.013.845-.1,4.095-.117,4.42-.117,5.291a3.621,3.621,0,0,0,.715,2.665,3.083,3.083,0,0,0,2.444.91,4.552,4.552,0,0,0,3.666-1.625,7.908,7.908,0,0,0,1.443-2.951,3.677,3.677,0,0,1-.936-.624,7.723,7.723,0,0,1-.637,2.041,3.733,3.733,0,0,1-3.484,2.262,2.454,2.454,0,0,1-1.625-.507,2.046,2.046,0,0,1-.611-1.56c-.013-.3-.026-.624-.026-.78,0-.585.039-2.353.091-3.913a20.043,20.043,0,0,1,.169-2.743ZM2.366,40.671a5.737,5.737,0,0,1,1.391-.429,15.11,15.11,0,0,1,3.419-.52c1.573,0,2.4.637,2.4,1.82,0,1.157-.9,2.145-2.379,2.626a8.864,8.864,0,0,1-2.561.4.988.988,0,0,1-.182-.013,2.847,2.847,0,0,1,.338.9,12.313,12.313,0,0,0,2.678-.494,3.8,3.8,0,0,0,2.977-3.354,2.844,2.844,0,0,0-.4-1.482,2.973,2.973,0,0,0-2.756-1.209,16.784,16.784,0,0,0-3.965.572,6.1,6.1,0,0,1-1.2.234Zm11.895-1.924a7.439,7.439,0,0,1,.754-.169c.117-.026.741-.13,1.859-.3a21.461,21.461,0,0,1-1.43,4.121,12.467,12.467,0,0,1-1.352,2.353l.884.52c.4-.728.676-1.248.845-1.56A24.526,24.526,0,0,0,17.784,38.2a7.464,7.464,0,0,1,.936-.065c1.209,0,1.6.442,1.6,1.82a10.063,10.063,0,0,1-.546,3.614q-.254.624-.741.624a4.859,4.859,0,0,1-1.937-.6,2.517,2.517,0,0,1,.039.52,2.828,2.828,0,0,1-.026.455,4.891,4.891,0,0,0,1.963.507,1.358,1.358,0,0,0,1.274-.611,8.96,8.96,0,0,0,.871-4.472,2.624,2.624,0,0,0-.637-2.093,2.484,2.484,0,0,0-1.872-.546,7.576,7.576,0,0,0-.767.039c.117-.624.208-1.1.273-1.482a7.992,7.992,0,0,1,.247-1.248l-1.04-.117v.169a15.889,15.889,0,0,1-.39,2.756c-1.053.169-2.405.325-2.873.338Zm7.67-1.716A10.641,10.641,0,0,1,24.583,41.7l.832-.481a11.755,11.755,0,0,0-2.717-4.6Zm7.527-2.561a2.606,2.606,0,0,1-.039.416,32.861,32.861,0,0,0-.442,4.8v.3L29,41.334l.013.234v.143l.936-.039c-.013-.195-.013-.26-.013-.312a6.785,6.785,0,0,1,.7-2.9C31.382,36.94,32.214,36.2,33.2,36.2c1.248,0,1.976,1.209,1.976,3.3a4.477,4.477,0,0,1-2.236,4.316,6.869,6.869,0,0,1-2.639.819,2.683,2.683,0,0,1,.52.884,9.84,9.84,0,0,0,2.314-.767,5.364,5.364,0,0,0,3-5.109,5.34,5.34,0,0,0-.78-3.159,2.447,2.447,0,0,0-2.08-1.157,3.1,3.1,0,0,0-2.6,1.677,5.8,5.8,0,0,0-.793,1.937c-.065.273-.065.273-.091.377l-.052-.013c.039-.663.221-2.08.429-3.393a7.369,7.369,0,0,1,.3-1.339ZM46.6,38.11h-2.47a8.746,8.746,0,0,1-1.313-.078v.923a9.634,9.634,0,0,1,1.313-.078H46.6v2.21H44.694a6.258,6.258,0,0,1-.949-.052,9.826,9.826,0,0,1,.052,1.144v2.5a8.667,8.667,0,0,1-.065,1.274h.884v-.741h5.031v.741h.884a10.08,10.08,0,0,1-.065-1.261v-2.47a8.544,8.544,0,0,1,.052-1.183,6.264,6.264,0,0,1-1,.052h-2.08v-2.21h2.535a9.57,9.57,0,0,1,1.326.078v-.923a8.939,8.939,0,0,1-1.326.078H47.437V35.861c1.248-.234,2.262-.468,3.016-.689l.429-.117-.6-.78a6.052,6.052,0,0,1-1.495.52,23.6,23.6,0,0,1-5.5.741,2.551,2.551,0,0,1,.338.793A25.955,25.955,0,0,0,46.6,36Zm-1.989,3.718h5.031v2.613H44.616Zm-4.55-6.864a13.647,13.647,0,0,1,2.262,1.82l.507-.689A15.4,15.4,0,0,0,40.6,34.366Zm-.494,3.315a10.455,10.455,0,0,1,2.392,1.612l.455-.754a11.5,11.5,0,0,0-2.392-1.5Zm2.314,3.042A13.117,13.117,0,0,1,40.053,44.6a3.478,3.478,0,0,1-.4.442l.741.676a24.262,24.262,0,0,0,2.158-3.874Zm11.375-2.574a7.439,7.439,0,0,1,.754-.169c.117-.026.741-.13,1.859-.3a21.461,21.461,0,0,1-1.43,4.121,12.467,12.467,0,0,1-1.352,2.353l.884.52c.4-.728.676-1.248.845-1.56A24.526,24.526,0,0,0,56.784,38.2a7.464,7.464,0,0,1,.936-.065c1.209,0,1.6.442,1.6,1.82a10.063,10.063,0,0,1-.546,3.614q-.253.624-.741.624a4.859,4.859,0,0,1-1.937-.6,2.517,2.517,0,0,1,.039.52,2.828,2.828,0,0,1-.026.455,4.891,4.891,0,0,0,1.963.507,1.358,1.358,0,0,0,1.274-.611,8.961,8.961,0,0,0,.871-4.472,2.624,2.624,0,0,0-.637-2.093,2.484,2.484,0,0,0-1.872-.546,7.576,7.576,0,0,0-.767.039c.117-.624.208-1.1.273-1.482a7.992,7.992,0,0,1,.247-1.248l-1.04-.117v.169a15.889,15.889,0,0,1-.39,2.756c-1.053.169-2.4.325-2.873.338Zm7.67-1.716A10.641,10.641,0,0,1,63.583,41.7l.832-.481a11.755,11.755,0,0,0-2.717-4.6Zm7.4-1.924a13.826,13.826,0,0,1,.065,1.937v.845c-1.365.117-2.171.169-2.4.169a2.772,2.772,0,0,1-.286-.013l.078.91a26.2,26.2,0,0,1,2.613-.273v1.625a13.718,13.718,0,0,0,.169,3.081C68.9,44.558,69.888,45,72.2,45a22.09,22.09,0,0,0,3.289-.273c.312-.039.338-.052.52-.065l-.1-1a11.786,11.786,0,0,1-3.614.481,7.223,7.223,0,0,1-2.028-.221,1.117,1.117,0,0,1-.871-.845,19.934,19.934,0,0,1-.13-3.276V38.63c1.729-.117,2.665-.169,4.238-.221a11.821,11.821,0,0,1-.156,2c-.117.637-.273.845-.637.845a3.692,3.692,0,0,1-1.7-.715c.013.26.026.39.026.533s-.013.195-.026.39a3.729,3.729,0,0,0,1.807.6,1.3,1.3,0,0,0,1.313-1.144,12.361,12.361,0,0,0,.234-2.535c.416,0,.7-.013.91-.013.429-.013.767-.013.884-.013.546,0,.624,0,.975.026L77.1,37.46c-.429.052-1.443.091-2.717.117v-.351l.013-.845v-.546a7.034,7.034,0,0,1,.052-1h-1a12.458,12.458,0,0,1,.078,1.976c0,.156,0,.3-.013.442v.364c-1.625.065-2.145.091-4.251.208a15.045,15.045,0,0,1,.117-2.717ZM89.375,43.96a4.444,4.444,0,0,1-.442-.3,11.379,11.379,0,0,0-3.627-1.9c-.052-1.261-.052-1.261-.078-1.989.962-.065,1.989-.169,2.886-.312.455-.065.585-.078.754-.091l-.052-.9a15.691,15.691,0,0,1-3.6.533c-.013-.689-.013-.689-.026-1.755a27.005,27.005,0,0,0,3.016-.312c.676-.091.676-.091.9-.1l-.065-.884a18.326,18.326,0,0,1-3.848.533,14.509,14.509,0,0,1,.091-1.833h-1a10.179,10.179,0,0,1,.065,1.872c-.429,0-.871.013-1.131.013a16.15,16.15,0,0,1-3.328-.26l-.013.884a1.062,1.062,0,0,1,.182-.013,1.577,1.577,0,0,1,.234.013c1.17.091,2.223.13,3.172.13.3,0,.507,0,.884-.013l.026,1.781c-.364.013-.819.013-1.157.013a15.955,15.955,0,0,1-2.977-.208l-.013.858h.1c.078,0,.182,0,.325.013.806.065,1.417.091,2.2.091.416,0,1.066-.013,1.534-.026.013.338.013.585.026.754.013.377.013.65.026.767a1.036,1.036,0,0,0,.013.143c0,.117,0,.117.013.156a5.782,5.782,0,0,0-1.17-.1,5.663,5.663,0,0,0-1.352.13c-1.144.26-1.82.936-1.82,1.794a1.7,1.7,0,0,0,.7,1.365,3.386,3.386,0,0,0,2.015.52,2.617,2.617,0,0,0,2.2-.819,2.257,2.257,0,0,0,.325-1.417,3.737,3.737,0,0,0-.026-.468c.351.143.65.273.871.39a10.461,10.461,0,0,1,2.652,1.859Zm-4.9-1.053a1.7,1.7,0,0,1-.26,1.17,1.878,1.878,0,0,1-1.43.429c-1.131,0-1.781-.39-1.781-1.079s.845-1.157,2.132-1.157a4.772,4.772,0,0,1,1.326.143Zm13.715-6.565c-.884.026-1.9.052-3.146.1-2.093.078-2.093.078-2.47.078-.195,0-.286,0-.52-.013l.039.949c.871-.143,3.5-.273,6.11-.325v.676c0,.156.013.286.013.338,0,.481,0,.533.013.715a2,2,0,0,0-1.508-.585,2.163,2.163,0,0,0-2.3,2.145,2.173,2.173,0,0,0,3.77,1.352,1.821,1.821,0,0,0,.351-.637,3.367,3.367,0,0,1-1.456,2.743,6.663,6.663,0,0,1-2.106.975,2.854,2.854,0,0,1,.572.819A8.269,8.269,0,0,0,97.6,44.623a4.184,4.184,0,0,0,1.742-3.393,3.725,3.725,0,0,0-.312-1.534V37.122c1.053-.026,1.2-.026,1.391-.026a23.106,23.106,0,0,1,2.483.065v-.923c-.429.052-1.43.078-3.887.091v-.143a10.761,10.761,0,0,1,.065-1.625h-.975a4.381,4.381,0,0,1,.052.754Zm-.039,3.8a1.457,1.457,0,0,1-1.521,1.534,1.256,1.256,0,0,1-1.339-1.287,1.376,1.376,0,0,1,1.443-1.365,1.663,1.663,0,0,1,.871.208A.941.941,0,0,1,98.15,40.138Zm7.215,1.807a1.95,1.95,0,1,0,1.95,1.95A1.947,1.947,0,0,0,105.365,41.945Zm0,.741a1.209,1.209,0,1,1-1.209,1.209A1.215,1.215,0,0,1,105.365,42.686Zm16.6-3.354,1.859-.624v3.3a8.465,8.465,0,0,1-.078,1.261h.962a8.521,8.521,0,0,1-.078-1.248V38.435l2.158-.741a26.2,26.2,0,0,1-.208,3.289c-.065.377-.13.442-.429.442a4.649,4.649,0,0,1-1-.117,3.027,3.027,0,0,1,.195.819c.3.026.455.039.572.039a1.778,1.778,0,0,0,.936-.182c.338-.195.507-.741.6-1.9.1-1.274.156-2.184.208-3.484a9.393,9.393,0,0,1-1.027.4l-2,.663V35.536a8.649,8.649,0,0,1,.078-1.222h-.962a8.2,8.2,0,0,1,.078,1.209v2.4l-1.859.624v-1.82a9.232,9.232,0,0,1,.078-1.287h-.975a9.441,9.441,0,0,1,.078,1.326v2.041l-.468.156a5.01,5.01,0,0,1-1.131.26l.234.884a7.167,7.167,0,0,1,1.079-.416l.286-.091v4.771c0,1.014.533,1.209,3.224,1.209,3.38,0,3.614-.156,3.77-2.561a2.384,2.384,0,0,1-.832-.338,3.789,3.789,0,0,1-.273,1.755c-.208.3-.754.377-2.587.377a9.45,9.45,0,0,1-2.093-.117c-.312-.078-.39-.182-.39-.494Zm-3.978-1.6h-.481a4.8,4.8,0,0,1-1.092-.078v.884a4.934,4.934,0,0,1,1.092-.078h.481v4.446a7.322,7.322,0,0,1-1.742.585l.221.9c.143-.065.338-.156.52-.221a25.1,25.1,0,0,0,3.354-1.586l-.078-.793c-.676.377-.91.494-1.469.754V38.461h.351a8.108,8.108,0,0,1,1.053.052v-.845a4.913,4.913,0,0,1-1.04.065h-.364V35.8a10.855,10.855,0,0,1,.078-1.456h-.962a10.641,10.641,0,0,1,.078,1.443Zm19.448-.624a21.54,21.54,0,0,0,.728,5.2,8.728,8.728,0,0,1-3.315,2.9,2.2,2.2,0,0,1,.637.611,10,10,0,0,0,2.938-2.626c.533,1.547,1.287,2.574,1.9,2.574.221,0,.429-.156.6-.468a5.334,5.334,0,0,0,.416-1.846,2.347,2.347,0,0,1-.689-.494,3.093,3.093,0,0,1-.377,1.794,4.785,4.785,0,0,1-1.274-2.4,14.771,14.771,0,0,0,1.313-2.821c.117-.351.156-.442.286-.754l-.845-.286a9.523,9.523,0,0,1-1.014,2.86,22.533,22.533,0,0,1-.507-4.238H139.5c.507,0,1.014.026,1.378.065V36.29a8.968,8.968,0,0,1-1.352.078H138.2v-.819a7.026,7.026,0,0,1,.078-1.339h-.962a14.727,14.727,0,0,1,.1,2.158h-3.172a9.317,9.317,0,0,1-1.391-.078v.884a13.612,13.612,0,0,1,1.378-.065Zm-6.6.637h-.351a7.192,7.192,0,0,1-1.118-.065v.858a9.312,9.312,0,0,1,1.092-.065h.377V42.7a10.426,10.426,0,0,1-1.664.65l.26.884a2.639,2.639,0,0,1,.429-.221,33.871,33.871,0,0,0,3.224-1.664l-.065-.819a12.336,12.336,0,0,1-1.391.793V38.474h.247a8.034,8.034,0,0,1,1.079.052v-.832a8.034,8.034,0,0,1-1.079.052h-.247V35.757a8.976,8.976,0,0,1,.078-1.43h-.949a10.7,10.7,0,0,1,.078,1.43Zm2.639,3.263a7.185,7.185,0,0,1-.039.793,6.586,6.586,0,0,1,.858-.039H135.8c.364,0,.65.013.923.039a5.6,5.6,0,0,1-.026-.767V38.864a4.533,4.533,0,0,1,.026-.663,8.214,8.214,0,0,1-.871.039h-1.534a6.781,6.781,0,0,1-.884-.039c.013.221.039.52.039.806Zm.741-2.093h1.755v2.171h-1.755Zm2.821,3.419a22.346,22.346,0,0,1-4.576,1.053l.208.884c.169-.052.52-.143.806-.221,1.612-.39,2.418-.611,3.575-.988Zm3.64-6.76a8.634,8.634,0,0,0-1.534-1.209l-.507.442a6.155,6.155,0,0,1,1.508,1.3Zm5.538.676a18.19,18.19,0,0,1-2.782-.143l-.013.9a2.3,2.3,0,0,1,.286-.013h.208c.481.013,1.7.039,1.911.039a1.44,1.44,0,0,0,.247-.026l-.117.195a12.936,12.936,0,0,1-2.912,3.718l.728.728a4.3,4.3,0,0,1,1-1.079,4.884,4.884,0,0,1,2.9-1.378c.611,0,.923.312,1.027,1.027a10.091,10.091,0,0,0-1.937,1.04,2.688,2.688,0,0,0-1.326,2.054c0,1.339,1.131,2,3.458,2a20.168,20.168,0,0,0,3.159-.26,5.117,5.117,0,0,1,.52-.065l-.117-1a10.893,10.893,0,0,1-3.471.507c-1.833,0-2.639-.377-2.639-1.235,0-.78.676-1.391,2.444-2.223a3.416,3.416,0,0,1,.013.39,18.7,18.7,0,0,1-.078,1.872l.884-.013a2.826,2.826,0,0,1-.026-.468c0-.117,0-.3.013-.585.013-.26.013-.546.013-.715,0-.325,0-.455-.026-.793a21.584,21.584,0,0,1,3.471-1.144l-.416-.91a2.86,2.86,0,0,1-.884.377c-.572.208-1.313.481-2.262.858a1.578,1.578,0,0,0-1.716-1.443,3.46,3.46,0,0,0-1.963.637c-.13.091-.13.091-.6.455a.1.1,0,0,1-.026-.039V39.5a.013.013,0,0,0,.013-.013c.013-.013.078-.065.169-.13.052-.039.312-.338.442-.494a9.586,9.586,0,0,0,1.17-1.846,41.975,41.975,0,0,0,4.29-.338,4.053,4.053,0,0,1,.52-.065l-.078-.884a18.3,18.3,0,0,1-4.1.494,2.213,2.213,0,0,0-.273.013c.065-.117.234-.468.4-.884a2.761,2.761,0,0,1,.338-.7l-1.04-.182a5.517,5.517,0,0,1-.624,1.781Zm14.534,4.2v1.235h-1.079a6.456,6.456,0,0,1-1.17-.065v.767a6.622,6.622,0,0,1,1.183-.065h5.941a7.746,7.746,0,0,1,1.274.065V41.62a7.649,7.649,0,0,1-1.274.065h-1.209V40.45h.819a7.418,7.418,0,0,1,1.222.065v-.754a6.79,6.79,0,0,1-1.2.065h-.845c.013-.39.026-.559.052-.832h-.884a6.171,6.171,0,0,1,.065.832H161.5a6.374,6.374,0,0,1,.052-.832h-.884a6.563,6.563,0,0,1,.065.832h-.507a6.61,6.61,0,0,1-1.2-.065v.754a7.054,7.054,0,0,1,1.209-.065Zm.754,0h2.158v1.235H161.5Zm.676-5.187a5.558,5.558,0,0,1,.026-.7,7.448,7.448,0,0,1-1.144.052h-1.378a5.746,5.746,0,0,1-1.027-.065v.78a5.658,5.658,0,0,1,1.027-.065h1.768v.975h-1.9a6.166,6.166,0,0,1-.819-.039,5.215,5.215,0,0,1,.039.715v.975c0,.676.208.767,1.729.767,1.053,0,1.4-.052,1.586-.221.221-.195.3-.442.377-1.092a2.087,2.087,0,0,1-.676-.312,2.141,2.141,0,0,1-.13.793c-.091.156-.3.195-1.235.195-.858,0-.936-.039-.936-.364v-.832h1.911a7.1,7.1,0,0,1,.806.039,4.936,4.936,0,0,1-.026-.689Zm4.3,0a5.349,5.349,0,0,1,.026-.7,7.448,7.448,0,0,1-1.144.052h-1.378a5.745,5.745,0,0,1-1.027-.065v.78a5.658,5.658,0,0,1,1.027-.065h1.768v.975h-1.911a6.4,6.4,0,0,1-.832-.039,5.037,5.037,0,0,1,.052.728v.949c0,.689.2.78,1.755.78,1.833,0,1.924-.052,2.08-1.313a2.646,2.646,0,0,1-.689-.312,1.733,1.733,0,0,1-.182.858c-.1.1-.416.143-1.313.143a2.985,2.985,0,0,1-.767-.065c-.13-.052-.156-.1-.156-.312v-.832H165.7a7.1,7.1,0,0,1,.806.039,5.036,5.036,0,0,1-.026-.689Zm-5.252,7.163a6.628,6.628,0,0,1-2.353,1.4,1.84,1.84,0,0,1,.6.585,8.115,8.115,0,0,0,2.392-1.573Zm2.093.455a9.317,9.317,0,0,0,2.782,1.6,3.224,3.224,0,0,1,.559-.663,8.518,8.518,0,0,1-2.73-1.352Zm-7.67-7.787a11.873,11.873,0,0,1,1.859,2.21l.663-.585a17.01,17.01,0,0,0-1.924-2.158Zm-.221,5.1a5.009,5.009,0,0,1,.949-.065h.793v3.146a7.266,7.266,0,0,1-2,1.547l.429.858c.182-.169.182-.169.416-.364l.611-.507c.3-.26.52-.481.91-.884a3.416,3.416,0,0,0,1.352,1.248c.78.364,1.456.442,3.731.442,1.573,0,3.029-.026,4.368-.091a3.42,3.42,0,0,1,.3-.936,38.374,38.374,0,0,1-5.239.26,7.147,7.147,0,0,1-2.951-.39,2.053,2.053,0,0,1-1.118-1.183V40.71a9.964,9.964,0,0,1,.052-1.365,5.818,5.818,0,0,1-.988.065h-.611a5.268,5.268,0,0,1-1-.065Zm15.9-4.511a3.284,3.284,0,0,1,.429.143,11.067,11.067,0,0,0,3.354.832,3.761,3.761,0,0,0-.832.481,2.635,2.635,0,0,0-1.287,1.989,2.257,2.257,0,0,0,.741,1.573,8.35,8.35,0,0,1,1.079,1.287,1.894,1.894,0,0,1,.4,1.092,1.322,1.322,0,0,1-1.43,1.248,3.215,3.215,0,0,1-2.236-1.118,3.452,3.452,0,0,1-.273.923,3.807,3.807,0,0,0,2.587,1.092,2.156,2.156,0,0,0,2.327-2.106,3.412,3.412,0,0,0-1.2-2.327,6.126,6.126,0,0,1-1.027-1.183,1.245,1.245,0,0,1-.143-.507c0-.6.546-1.235,1.56-1.833a2.806,2.806,0,0,1,.975-.39l.013-.923a1.286,1.286,0,0,1-.2.013,13.192,13.192,0,0,1-3-.507,5.715,5.715,0,0,1-1.456-.624Zm-1.066,4.264a10.274,10.274,0,0,1-1.794,4.173,2.843,2.843,0,0,1,.793.546,12.931,12.931,0,0,0,1.716-3.848c.065-.208.1-.351.117-.4.013-.026.039-.1.065-.182Zm6.63.26a11.829,11.829,0,0,1,2.158,4.238l.845-.442a13.458,13.458,0,0,0-2.21-4.173Zm.234-3.991a10.138,10.138,0,0,1,1.326,2.067l.65-.39a10.362,10.362,0,0,0-1.326-2.015Zm1.469-.689a9.665,9.665,0,0,1,1.339,2.041l.65-.377a10.4,10.4,0,0,0-1.352-2.028Zm5.161,1.053a3.053,3.053,0,0,1,.429.039,25.429,25.429,0,0,0,2.86.169,10.275,10.275,0,0,0,1.963-.169c-.13.078-.156.078-.247.13-.156.078-.182.091-.325.169a20.14,20.14,0,0,0-1.729,1.079l.663.533a18.515,18.515,0,0,1,3.276-1.976l-.065-.858a14.217,14.217,0,0,1-3.289.273,14.863,14.863,0,0,1-3.458-.312Zm.78,3.328a3.416,3.416,0,0,0-1.5,2.509,2.071,2.071,0,0,0,1.482,1.963,9.171,9.171,0,0,0,2.99.4,21.206,21.206,0,0,0,3.51-.3,3.636,3.636,0,0,1,.442-.065l-.117-1.066a12.332,12.332,0,0,1-3.9.494,8.278,8.278,0,0,1-2.379-.26c-.728-.247-1.1-.676-1.1-1.274s.39-1.209,1.235-1.911Zm13.195-5.109a4.349,4.349,0,0,1,.221.819,26.481,26.481,0,0,0,.949,3.64,8.1,8.1,0,0,0-1.7,1.053,2.812,2.812,0,0,0-1.157,2.21,2.158,2.158,0,0,0,1.612,2.132,8.844,8.844,0,0,0,2.886.351,26.079,26.079,0,0,0,2.873-.169,6.737,6.737,0,0,1,.962-.078l-.1-1.079a12.907,12.907,0,0,1-3.718.442c-2.548,0-3.549-.455-3.549-1.638,0-1.079.962-1.937,3.185-2.821A29.9,29.9,0,0,1,204.1,38.4l-.39-.988a7.029,7.029,0,0,1-.832.338c-2.015.7-2.379.845-3.146,1.157a22.609,22.609,0,0,1-.975-4.3Zm10.6,5.85a1.355,1.355,0,0,1,.4.078,13.7,13.7,0,0,0,1.963.325c-.013.117-.013.117-.026.312a6.874,6.874,0,0,0-.052.858,3.525,3.525,0,0,0,.4,1.794,3.234,3.234,0,0,0,2.912,1.3c2.275,0,3.809-1.235,3.809-3.068a3.47,3.47,0,0,0-1.222-2.587,2.573,2.573,0,0,1-.949.26,2.964,2.964,0,0,1,1.235,2.262c0,1.378-1.131,2.275-2.873,2.275A2.733,2.733,0,0,1,212.1,43.9a1.919,1.919,0,0,1-.6-1.56c0-.221.026-.65.052-.962a2.36,2.36,0,0,0,.013-.26c.585.026.793.026,1.118.026a15,15,0,0,0,1.833-.1c.182-.013.221-.013.351-.026l.026-.871a11.367,11.367,0,0,1-2.392.208c-.182,0-.364,0-.858-.013.078-.728.091-.858.3-2.353.715.026.936.026,1.144.026.377,0,.767-.013,1.17-.052.65-.052.65-.052.91-.078l.039-.9a10.549,10.549,0,0,1-2.379.221c-.208,0-.39,0-.754-.013.065-.364.091-.494.13-.78.117-.715.117-.715.13-.832a6.686,6.686,0,0,1,.208-.871l-1.04-.117v.1a20.459,20.459,0,0,1-.312,2.444,8.39,8.39,0,0,1-2.34-.507l-.117.858c.182.039.234.052.4.091a17.275,17.275,0,0,0,1.937.351c-.1.689-.234,1.7-.3,2.34a8.644,8.644,0,0,1-2.327-.52ZM9.854,52.575V61.7c0,.3-.1.364-.585.364a16,16,0,0,1-2.054-.156,3.119,3.119,0,0,1,.208.884c.7.039,1.287.065,1.729.065,1.261,0,1.56-.2,1.56-1.04V52.575h.26a10.392,10.392,0,0,1,1.352.078V51.73a10.4,10.4,0,0,1-1.378.078H2.236A9.918,9.918,0,0,1,.871,51.73v.923a10.6,10.6,0,0,1,1.365-.078Zm-2.392,2.86a6.1,6.1,0,0,1,.065-1.092,10.274,10.274,0,0,1-1.222.052H3.64a9.9,9.9,0,0,1-1.209-.052A6.776,6.776,0,0,1,2.5,55.474v4.108a7,7,0,0,1-.078,1.04h.923V59.439H6.422c.377,0,.832.013,1.092.039a6.448,6.448,0,0,1-.052-.962Zm-4.121-.3H6.617V58.7H3.341Zm10.426-.377a5.184,5.184,0,0,1,.767-.091c1.274-.078,3.146-.286,4.108-.442.169.3.208.377.4.78l.689-.4a20.258,20.258,0,0,0-1.677-2.613l-.611.312a11.377,11.377,0,0,1,.819,1.274c-.923.117-1.43.169-2.73.26a21.859,21.859,0,0,0,1.079-1.963,3.123,3.123,0,0,1,.26-.507l-.91-.26a7.4,7.4,0,0,1-.715,1.755,10.087,10.087,0,0,1-.572,1.014c-.377.013-.377.013-.455.013-.1,0-.39-.013-.572-.013Zm7.215-2.3a5.117,5.117,0,0,1,.078-1.131h-.949a7.006,7.006,0,0,1,.078,1.131v3.068c0,.754.325.884,2.184.884,1.677,0,2.184-.065,2.4-.338a3.509,3.509,0,0,0,.429-1.846,2.838,2.838,0,0,1-.767-.325c-.052,1.157-.117,1.495-.325,1.625-.182.117-.572.143-1.755.143-1.235,0-1.378-.039-1.378-.4V54.1a15.413,15.413,0,0,0,3.289-1.339c.52-.286.52-.286.728-.39l-.572-.689a10.5,10.5,0,0,1-3.445,1.651Zm0,5.889a5.557,5.557,0,0,1,.065-1.131h-.923a5.941,5.941,0,0,1,.065,1.17v3.25c0,.429.1.624.416.754a4.946,4.946,0,0,0,1.989.195c1.43,0,1.872-.065,2.158-.338.312-.3.455-.806.559-2.041a3.533,3.533,0,0,1-.78-.338,3.908,3.908,0,0,1-.273,1.677c-.169.208-.585.286-1.612.286a7.016,7.016,0,0,1-1.248-.065c-.325-.052-.416-.143-.416-.4V59.816a14.365,14.365,0,0,0,2.08-.7c.455-.195,1.456-.7,2.028-1.027l-.611-.676a9.562,9.562,0,0,1-3.5,1.625Zm-6.461,3.3a8.626,8.626,0,0,1-.065,1.3h.923a8.8,8.8,0,0,1-.065-1.326V60h2.873v1.677c0,.234-.078.286-.429.286a7.612,7.612,0,0,1-1-.065,3.639,3.639,0,0,1,.195.806c.169.013.312.013.4.013,1.391,0,1.6-.13,1.6-.962V56.228c0-.234.013-.624.039-.871a9.662,9.662,0,0,1-1.2.052H15.522a7.857,7.857,0,0,1-1.053-.052,10.648,10.648,0,0,1,.052,1.2Zm.793-5.525h2.873v1.222H15.314Zm0,1.911h2.873v1.274H15.314Zm11.921-3.614a43.278,43.278,0,0,1,4.485-.429,26.606,26.606,0,0,0,2.86-.286,8.51,8.51,0,0,0-1.235.689,4.946,4.946,0,0,0-2.431,3.991,3.148,3.148,0,0,0,1.443,2.652,6.557,6.557,0,0,0,2.808,1c.234.039.26.052.4.078l.169-1.053h-.13a6.663,6.663,0,0,1-1.95-.416,2.549,2.549,0,0,1-1.82-2.4,3.973,3.973,0,0,1,1.6-3,6.394,6.394,0,0,1,2.5-1.3,5.453,5.453,0,0,1,1.456-.182L37.31,52.8a8.78,8.78,0,0,1-1.547.143l-.741.026c-.429.013-.6.026-2.2.117l-2.041.13c-1.6.091-1.677.1-2.405.156-.4.026-.559.039-.741.039-.091,0-.221,0-.468-.013Zm7.982,1.248a9.142,9.142,0,0,1,1.326,2.067l.663-.39a9.869,9.869,0,0,0-1.339-2.015Zm1.482-.7a10.288,10.288,0,0,1,1.326,2.041l.65-.364a10.535,10.535,0,0,0-1.339-2.028Zm9.49-1.625c-.884.026-1.9.052-3.146.1-2.093.078-2.093.078-2.47.078-.195,0-.286,0-.52-.013l.039.949c.871-.143,3.5-.273,6.11-.325v.676c0,.156.013.286.013.338,0,.481,0,.533.013.715a2,2,0,0,0-1.508-.585,2.163,2.163,0,0,0-2.3,2.145,2.173,2.173,0,0,0,3.77,1.352,1.821,1.821,0,0,0,.351-.637,3.367,3.367,0,0,1-1.456,2.743,6.663,6.663,0,0,1-2.106.975,2.854,2.854,0,0,1,.572.819A8.269,8.269,0,0,0,45.6,61.623a4.184,4.184,0,0,0,1.742-3.393,3.725,3.725,0,0,0-.312-1.534V54.122c1.053-.026,1.2-.026,1.391-.026a23.106,23.106,0,0,1,2.483.065v-.923c-.429.052-1.43.078-3.887.091v-.143a10.762,10.762,0,0,1,.065-1.625h-.975a4.381,4.381,0,0,1,.052.754Zm-.039,3.8a1.457,1.457,0,0,1-1.521,1.534,1.256,1.256,0,0,1-1.339-1.287,1.376,1.376,0,0,1,1.443-1.365,1.663,1.663,0,0,1,.871.208A.941.941,0,0,1,46.15,57.138Zm7.215,1.807a1.95,1.95,0,1,0,1.95,1.95A1.947,1.947,0,0,0,53.365,58.945Zm0,.741A1.209,1.209,0,1,1,52.156,60.9,1.215,1.215,0,0,1,53.365,59.686Z" transform="translate(1560.133 1010.145)" fill="#1b1311"/>
    <g id="グループ_62005" data-name="グループ 62005" transform="translate(131.685 -116.352)">
      <g id="長方形_13521" data-name="長方形 13521" transform="translate(1547.473 1068.75)" fill="#fff" stroke="#707070" stroke-width="1">
        <rect id="fill" width="0.541" height="0.541" stroke="none"/>
        <path d="M0,0.041255176067352295h0.5412551760673523M0.5,0v0.5412551760673523M0.5412551760673523,0.5h-0.5412551760673523M0.041255176067352295,0.5412551760673523v-0.5412551760673523" fill="none" clip-path="url(#clip)"/>
      </g>
      <path id="パス_51327" data-name="パス 51327" d="M21.1,10.7a21.89,21.89,0,0,1,37.632,0L76.651,40.653c8.817,14.738-1.726,33.52-18.816,33.52H22c-17.09,0-27.633-18.783-18.816-33.52Z" transform="matrix(0.961, 0.276, -0.276, 0.961, 1511.707, 1013)" fill="#ffc2b9"/>
      <path id="パス_51326" data-name="パス 51326" d="M21.318,10.742a22.191,22.191,0,0,1,38.02,0L77.44,40.8A22.191,22.191,0,0,1,58.43,74.44h-36.2A22.191,22.191,0,0,1,3.216,40.8Z" transform="translate(1565.981 1115.497) rotate(-164)" fill="#ff8977" opacity="0.6"/>
      <g id="グループ_2812" data-name="グループ 2812" transform="translate(1521.764 1062.254)">
        <g id="グループ_2750" data-name="グループ 2750" transform="translate(0 0)" clip-path="url(#clip-path)">
          <path id="パス_5678" data-name="パス 5678" d="M16.835,35.667h-5a.834.834,0,0,1,0-1.667h5a.834.834,0,0,1,0,1.667" transform="translate(-6.415 -19.967)"/>
          <path id="パス_5679" data-name="パス 5679" d="M14.17,12.5H1.667A1.669,1.669,0,0,1,0,10.836V1.667A1.669,1.669,0,0,1,1.667,0h12.5a1.669,1.669,0,0,1,1.667,1.667v9.169A1.669,1.669,0,0,1,14.17,12.5M1.667,1.667h0v9.169h12.5V1.667Z" transform="translate(0 -0.138)"/>
          <path id="パス_5680" data-name="パス 5680" d="M18.5,19.667H6.834a.834.834,0,0,1,0-1.667H18.5a.834.834,0,0,1,0,1.667" transform="translate(-3.499 -10.636)"/>
          <path id="パス_5681" data-name="パス 5681" d="M17.834,32.168A.834.834,0,0,1,17,31.334v-2.5a.834.834,0,1,1,1.667,0v2.5a.834.834,0,0,1-.834.834" transform="translate(-9.915 -16.468)"/>
        </g>
      </g>
      <g id="グループ_2821" data-name="グループ 2821" transform="translate(1536.919 1050.888)">
        <g id="グループ_2820" data-name="グループ 2820" transform="translate(0 0)" clip-path="url(#clip-path-2)">
          <path id="パス_5730" data-name="パス 5730" d="M21.036,19.512a2.536,2.536,0,1,1,2.536-2.536,2.538,2.538,0,0,1-2.536,2.536m0-3.688a1.153,1.153,0,1,0,1.153,1.153,1.154,1.154,0,0,0-1.153-1.153" transform="translate(-10.347 -8.166)"/>
          <path id="パス_5731" data-name="パス 5731" d="M22.646,27.111a.692.692,0,0,1-.692-.692,2.536,2.536,0,0,0-5.072,0,.692.692,0,1,1-1.383,0,3.919,3.919,0,0,1,7.838,0,.692.692,0,0,1-.692.692" transform="translate(-8.73 -12.51)"/>
          <path id="パス_5732" data-name="パス 5732" d="M13.491,23.637a.689.689,0,0,1-.489-.2L11.36,21.793H6.114A1.615,1.615,0,0,1,4.5,20.179V9.114A1.615,1.615,0,0,1,6.114,7.5H20.867a1.615,1.615,0,0,1,1.614,1.614V20.179a1.615,1.615,0,0,1-1.614,1.614H15.621L13.98,23.434a.689.689,0,0,1-.489.2M6.114,8.883a.231.231,0,0,0-.231.231V20.179a.231.231,0,0,0,.231.231h5.533a.693.693,0,0,1,.489.2l1.355,1.355,1.355-1.355a.694.694,0,0,1,.489-.2h5.533a.231.231,0,0,0,.231-.231V9.114a.231.231,0,0,0-.231-.231Z" transform="translate(-2.802 -4.425)"/>
        </g>
      </g>
    </g>
  </g>
</svg>
