<svg xmlns="http://www.w3.org/2000/svg" xmlns:xlink="http://www.w3.org/1999/xlink" width="273.193" height="276.591" viewBox="0 0 273.193 276.591">
  <defs>
    <filter id="パス_106482" x="0" y="0" width="273.193" height="276.591" filterUnits="userSpaceOnUse">
      <feOffset dy="3" input="SourceAlpha"/>
      <feGaussianBlur stdDeviation="3" result="blur"/>
      <feFlood flood-opacity="0.161"/>
      <feComposite operator="in" in2="blur"/>
      <feComposite in="SourceGraphic"/>
    </filter>
    <clipPath id="clip-path">
      <rect id="長方形_1380" data-name="長方形 1380" width="34.099" height="34.099" transform="translate(0 0)"/>
    </clipPath>
  </defs>
  <g id="グループ_62107" data-name="グループ 62107" transform="translate(-393 -826.152)">
    <g transform="matrix(1, 0, 0, 1, 393, 826.15)" filter="url(#パス_106482)">
      <path id="パス_106482-2" data-name="パス 106482" d="M4.252,0H250.941a4.252,4.252,0,0,1,4.252,4.252V254.339a4.252,4.252,0,0,1-4.252,4.252H4.252A4.252,4.252,0,0,1,0,254.339V4.252A4.252,4.252,0,0,1,4.252,0Z" transform="translate(9 6)" fill="#fff"/>
    </g>
    <path id="パス_106491" data-name="パス 106491" d="M-38.82-5.98a7.631,7.631,0,0,1-.82,2.62,6.775,6.775,0,0,1-1.6-1.98l-1.12.66c.14.14.16.18.32.36a12.678,12.678,0,0,0,1.74,1.9A10.966,10.966,0,0,1-45.14.3a4.3,4.3,0,0,1,.78,1.1,10.912,10.912,0,0,0,4.92-3.14,18.32,18.32,0,0,0,7.94,3,5.311,5.311,0,0,1,.62-1.32,16.261,16.261,0,0,1-7.86-2.6,8.481,8.481,0,0,0,1.12-3.32h3.46a17.49,17.49,0,0,1,1.98.08,10.432,10.432,0,0,1-.06-1.6V-9.9q0-.84.06-1.5c-.54.04-1,.06-1.86.06h-3.24v-.7c.02-.38.02-.64.02-.72v-.58h4.34a12.336,12.336,0,0,1,1.88.1v-1.34a14.308,14.308,0,0,1-2,.12h-4.22a15.047,15.047,0,0,1,.1-2.3H-38.6a13.421,13.421,0,0,1,.12,2.3h-3.7a13.11,13.11,0,0,1-1.92-.12v1.34a11.466,11.466,0,0,1,1.84-.1h3.8v.8l-.02,1.2h-3.28c-.98,0-1.26-.02-1.8-.06a8.62,8.62,0,0,1,.08,1.4v2.74a9.757,9.757,0,0,1-.08,1.36,15.117,15.117,0,0,1,1.76-.08Zm.32-4.24c-.04,1.38-.1,2.34-.18,3.12h-3.58v-3.12Zm5.02,0V-7.1h-4c.08-.92.12-1.76.16-3.12ZM-47-.88a20.609,20.609,0,0,1-.12,2.4h1.46a20.6,20.6,0,0,1-.1-2.34V-11.78a30.081,30.081,0,0,0,1.36-3.5c.16-.52.22-.7.36-1.1l-1.38-.36a11.632,11.632,0,0,1-.76,2.84,18.2,18.2,0,0,1-3.36,5.84,4.1,4.1,0,0,1,.8,1.1,14.693,14.693,0,0,0,1.8-2.88C-47-8.58-47-8.44-47-7.42Zm19.72-13.3A10.821,10.821,0,0,1-27.22-13c.1,4.92.38,7.48,1.08,9.38.68,1.92,1.72,3.04,2.84,3.04,1.42,0,2.34-1.34,3.32-4.84a6.393,6.393,0,0,1-1.18-1.14A14.389,14.389,0,0,1-22.2-3.14c-.3.66-.64,1-1,1-.76,0-1.58-1.38-2.02-3.42a34.25,34.25,0,0,1-.52-6.22,14.5,14.5,0,0,1,.14-2.38Zm10.12,1.7A17.663,17.663,0,0,1-13-2.62l1.42-.58a19.15,19.15,0,0,0-1.5-5.34,17.36,17.36,0,0,0-2.86-4.56Zm11.12-2.34a20.091,20.091,0,0,1,1.44,3.8c-.32.1-.52.14-1.02.32a21.948,21.948,0,0,1-2.94.94l.52,1.42A19.061,19.061,0,0,1-5.3-9.44,8.644,8.644,0,0,0-4.22-9.8,71.124,71.124,0,0,1-1.7,1L-.08.64A6.347,6.347,0,0,1-.34-.22C-1.18-3.98-1.9-6.8-2.92-10.2A23.582,23.582,0,0,1,3.6-11.62c2.02,0,3.2.9,3.2,2.42a2.425,2.425,0,0,1-.96,2.04,4.051,4.051,0,0,1-2.4.78A6.8,6.8,0,0,1,.08-7.3,8.906,8.906,0,0,1,.2-6.16a2.875,2.875,0,0,1-.02.36,8.469,8.469,0,0,0,3.38.74c2.74,0,4.7-1.72,4.7-4.12,0-2.24-1.72-3.68-4.4-3.68a10.073,10.073,0,0,0-1.5.12c-.02-.24-.02-.62-.02-.64a18.871,18.871,0,0,1,.1-2.7H.94a27.72,27.72,0,0,1,.08,3.54,35.469,35.469,0,0,0-4.3,1.12c-.28-.9-.48-1.46-.88-2.64a8.038,8.038,0,0,1-.38-1.22Zm27.1,1.5c-1.36.04-2.92.08-4.84.16-3.22.12-3.22.12-3.8.12-.3,0-.44,0-.8-.02l.06,1.46c1.34-.22,5.38-.42,9.4-.5v1.04c0,.24.02.44.02.52,0,.74,0,.82.02,1.1a3.071,3.071,0,0,0-2.32-.9,3.327,3.327,0,0,0-3.54,3.3,3.1,3.1,0,0,0,3.28,3.16,3.126,3.126,0,0,0,2.52-1.08,2.8,2.8,0,0,0,.54-.98,5.18,5.18,0,0,1-2.24,4.22,10.251,10.251,0,0,1-3.24,1.5A4.391,4.391,0,0,1,17,1.04,12.721,12.721,0,0,0,20.16-.58,6.437,6.437,0,0,0,22.84-5.8a5.731,5.731,0,0,0-.48-2.36v-3.96c1.62-.04,1.84-.04,2.14-.04a35.546,35.546,0,0,1,3.82.1v-1.42c-.66.08-2.2.12-5.98.14v-.22a16.557,16.557,0,0,1,.1-2.5h-1.5a6.74,6.74,0,0,1,.08,1.16ZM21-7.48a2.242,2.242,0,0,1-2.34,2.36A1.933,1.933,0,0,1,16.6-7.1a2.117,2.117,0,0,1,2.22-2.1,2.558,2.558,0,0,1,1.34.32A1.448,1.448,0,0,1,21-7.48Zm11.72-6.7A10.821,10.821,0,0,1,32.78-13c.1,4.92.38,7.48,1.08,9.38C34.54-1.7,35.58-.58,36.7-.58c1.42,0,2.34-1.34,3.32-4.84a6.393,6.393,0,0,1-1.18-1.14A14.389,14.389,0,0,1,37.8-3.14c-.3.66-.64,1-1,1-.76,0-1.58-1.38-2.02-3.42a34.25,34.25,0,0,1-.52-6.22,14.5,14.5,0,0,1,.14-2.38Zm10.12,1.7A17.663,17.663,0,0,1,47-2.62l1.42-.58a19.15,19.15,0,0,0-1.5-5.34,17.36,17.36,0,0,0-2.86-4.56ZM-63.46,13.58a37.748,37.748,0,0,1,7.8,8.6l1.22-1.02c-1.34-1.78-2.16-2.82-2.92-3.64a30.583,30.583,0,0,0,6.6-7.5,5.711,5.711,0,0,1,.8-1.06l-.84-1a2.442,2.442,0,0,1-1.12.14H-63.58a14.537,14.537,0,0,1-2.34-.12V9.56c.68-.06,1.24-.08,2.32-.08,11.14-.02,11.14-.02,11.42-.04-.08.12-.1.14-.16.24a29.2,29.2,0,0,1-3.3,4.34,34.879,34.879,0,0,1-2.66,2.46,43.217,43.217,0,0,0-4.06-3.78Zm29.62-7.46A16.788,16.788,0,0,1-37.66,9.9a28.161,28.161,0,0,1-10.38,5.18,4.63,4.63,0,0,1,.78,1.34,31.265,31.265,0,0,0,7.72-3.5v7.6a10.424,10.424,0,0,1-.12,2.08h1.74a13.286,13.286,0,0,1-.1-2.12V11.96a35.224,35.224,0,0,0,4.68-4.02,4.527,4.527,0,0,1,.88-.84Zm4.64,11.34c.24-.32.3-.38.6-.74.8-.9,2.82-3.38,3.58-4.4.88-1.18,1-1.28,1.38-1.28.4,0,.48.08,1.8,1.48a76.724,76.724,0,0,0,6.78,6.62c.78.68,1.3,1.12,1.4,1.2a4.316,4.316,0,0,0,.38.34l.76-1.64c-1.54-.84-5.7-4.62-8.5-7.72-1.44-1.6-1.78-1.84-2.58-1.84-.9,0-1.42.38-2.54,1.9-2.26,2.88-3.6,4.4-4.08,4.58ZM-15.72,7.28A2.275,2.275,0,0,0-18,9.54a2.279,2.279,0,0,0,2.28,2.28,2.275,2.275,0,0,0,2.26-2.28A2.245,2.245,0,0,0-15.72,7.28Zm0,.84A1.425,1.425,0,0,1-14.3,9.54a1.43,1.43,0,0,1-1.42,1.44,1.434,1.434,0,0,1-1.44-1.44A1.43,1.43,0,0,1-15.72,8.12Zm5.56,7.02a21.848,21.848,0,0,1,2.48-.08H3.92a22.879,22.879,0,0,1,2.44.08V13.52a15.774,15.774,0,0,1-2.42.1H-7.68a14.148,14.148,0,0,1-2.48-.12ZM12.42,7.9a21.589,21.589,0,0,1,4.92,2.66l.82-1.34A31.155,31.155,0,0,0,13.2,6.7Zm-1.58,4.8a22.08,22.08,0,0,1,5.1,2.74l.78-1.36a32,32,0,0,0-5.08-2.6Zm.68,9.56a6.123,6.123,0,0,1,.78-.2c7.2-1.36,11.32-4.5,13.84-10.56a6.155,6.155,0,0,1-1.24-1.08,14.3,14.3,0,0,1-8.4,8.96,18.159,18.159,0,0,1-5.26,1.24h-.12ZM22.68,6.3a16.171,16.171,0,0,1,2.04,3.18l1-.6a15.942,15.942,0,0,0-2.04-3.1Zm2.26-1.06A15.4,15.4,0,0,1,27,8.38l1-.58a15.286,15.286,0,0,0-2.08-3.1ZM40.46,16.6a11.49,11.49,0,0,0,1.22,3.38A13.908,13.908,0,0,1,36.5,22.4a3.02,3.02,0,0,1,.8,1.02,15.67,15.67,0,0,0,4.96-2.52c1.14,1.64,2.22,2.48,3.2,2.48.94,0,1.34-.74,1.8-3.26a4.043,4.043,0,0,1-1.02-.7,9.111,9.111,0,0,1-.36,2.02c-.18.52-.3.68-.54.68-.52,0-1.34-.72-2.2-1.94a23.737,23.737,0,0,0,2.32-2.44l-1.02-.7a7.182,7.182,0,0,1-1.86,2.24,9.445,9.445,0,0,1-1-2.68h3.34a12.611,12.611,0,0,1,2.12.12v-1.3a10.526,10.526,0,0,1-2.12.12H41.38a51.3,51.3,0,0,1-.56-8.06,10.763,10.763,0,0,1,.1-1.96h-1.4a7.851,7.851,0,0,1,.1,1.26,51.871,51.871,0,0,0,.3,6.26,22.879,22.879,0,0,0,.34,2.5H35.7a11.074,11.074,0,0,1-1.8-.1V16.7a11.847,11.847,0,0,1,1.8-.1h.22c-.2,2.86-1.04,4.54-2.88,5.82a3.038,3.038,0,0,1,.96.86,8.243,8.243,0,0,0,2.74-4.52,8.922,8.922,0,0,0,2.18,1.9,4.215,4.215,0,0,1,.66-.96,7.9,7.9,0,0,1-2.6-2.14c.04-.4.04-.44.08-.96Zm1.14-2.84a3.093,3.093,0,0,1,.34-.06c2.16-.28,3.48-.46,3.94-.56.14.36.22.58.4,1.18l.92-.36a17.119,17.119,0,0,0-1.46-3.08l-.82.32a6.743,6.743,0,0,1,.6,1.12,21.834,21.834,0,0,1-2.44.28c.98-1.1,1.54-1.82,3.36-4.26l-.92-.72a20.388,20.388,0,0,1-1.54,2.4c-.38-.48-.56-.7-.96-1.14a22.752,22.752,0,0,0,1.82-2.76L43.8,5.56A11.116,11.116,0,0,1,42.34,8.2c-.22-.22-.3-.3-.62-.6l-.66.84a11.5,11.5,0,0,1,2.3,2.42c-.64.82-.8,1.02-1.48,1.8a.75.75,0,0,1-.2.02,1.847,1.847,0,0,1-.3-.02ZM36.66,5.48a10.324,10.324,0,0,1-1.52,2.88c-.22-.2-.4-.38-.56-.54l-.72.8a13.158,13.158,0,0,1,2.36,2.5c-.52.76-.88,1.22-1.6,2.1a2.312,2.312,0,0,1-.34.02,1.249,1.249,0,0,1-.24-.02l.24,1.14a5.482,5.482,0,0,1,.56-.1c1.92-.3,2.98-.5,3.82-.68.1.36.14.48.24.88l.9-.38a12.535,12.535,0,0,0-1.3-2.86l-.8.3a7.463,7.463,0,0,1,.66,1.24c-.64.12-1.52.24-2.5.36a36.106,36.106,0,0,0,3.1-4.4L38,8.04a16.411,16.411,0,0,1-1.2,2.2,9.814,9.814,0,0,0-.96-1.16A18.27,18.27,0,0,0,37.72,6ZM31.2,9.42h-.86a7.9,7.9,0,0,1-1.38-.08V10.6a8.663,8.663,0,0,1,1.38-.08h.7a17.016,17.016,0,0,1-2.6,6.6,4.216,4.216,0,0,1,.72,1.16,17.261,17.261,0,0,0,2.26-6.26c-.12,1.52-.2,3.08-.2,3.86v5.46a16.8,16.8,0,0,1-.12,2.32h1.4a16.212,16.212,0,0,1-.1-2.32V14.78c0-.7-.04-1.56-.08-2.94a6.916,6.916,0,0,0,1.08,2.14,6.8,6.8,0,0,1,.56-1.04,7.792,7.792,0,0,1-1.48-2.42h.48a8.62,8.62,0,0,1,1.28.08V9.34a7.308,7.308,0,0,1-1.3.08H32.4V7.44a16.856,16.856,0,0,1,.08-2.06H31.1a12.254,12.254,0,0,1,.1,2.08ZM42.84,14.2a7.252,7.252,0,0,1,1.5,1.32l.72-.68a6.9,6.9,0,0,0-1.52-1.22Zm6.44-3.34a7.975,7.975,0,0,1,1.18-.14c1.96-.12,4.84-.44,6.32-.68.26.46.32.58.62,1.2l1.06-.62A31.166,31.166,0,0,0,55.88,6.6l-.94.48A17.5,17.5,0,0,1,56.2,9.04c-1.42.18-2.2.26-4.2.4a33.631,33.631,0,0,0,1.66-3.02,4.8,4.8,0,0,1,.4-.78l-1.4-.4a11.386,11.386,0,0,1-1.1,2.7,15.519,15.519,0,0,1-.88,1.56c-.58.02-.58.02-.7.02-.16,0-.6-.02-.88-.02Zm11.1-3.54a7.872,7.872,0,0,1,.12-1.74H59.04a10.779,10.779,0,0,1,.12,1.74v4.72c0,1.16.5,1.36,3.36,1.36,2.58,0,3.36-.1,3.7-.52.34-.4.52-1.16.66-2.84a4.365,4.365,0,0,1-1.18-.5c-.08,1.78-.18,2.3-.5,2.5-.28.18-.88.22-2.7.22-1.9,0-2.12-.06-2.12-.62V9.84a23.712,23.712,0,0,0,5.06-2.06c.8-.44.8-.44,1.12-.6l-.88-1.06a16.152,16.152,0,0,1-5.3,2.54Zm0,9.06a8.549,8.549,0,0,1,.1-1.74H59.06a9.139,9.139,0,0,1,.1,1.8v5c0,.66.16.96.64,1.16a7.609,7.609,0,0,0,3.06.3c2.2,0,2.88-.1,3.32-.52.48-.46.7-1.24.86-3.14a5.435,5.435,0,0,1-1.2-.52,6.012,6.012,0,0,1-.42,2.58c-.26.32-.9.44-2.48.44a10.8,10.8,0,0,1-1.92-.1c-.5-.08-.64-.22-.64-.62V18.64a22.1,22.1,0,0,0,3.2-1.08c.7-.3,2.24-1.08,3.12-1.58l-.94-1.04a14.711,14.711,0,0,1-5.38,2.5Zm-9.94,5.08a13.271,13.271,0,0,1-.1,2h1.42a13.538,13.538,0,0,1-.1-2.04v-2.5h4.42V21.5c0,.36-.12.44-.66.44a11.711,11.711,0,0,1-1.54-.1,5.6,5.6,0,0,1,.3,1.24c.26.02.48.02.62.02,2.14,0,2.46-.2,2.46-1.48v-8.5c0-.36.02-.96.06-1.34a14.863,14.863,0,0,1-1.84.08h-3.5a12.087,12.087,0,0,1-1.62-.08,16.381,16.381,0,0,1,.08,1.84Zm1.22-8.5h4.42v1.88H51.66Zm0,2.94h4.42v1.96H51.66Z" transform="translate(530 872.375)" fill="#070304"/>
    <path id="パス_106500" data-name="パス 106500" d="M5.1,5.644a6.294,6.294,0,0,1-.7,2.678,6.623,6.623,0,0,1-3.276,2.847,2.717,2.717,0,0,1,.572.728A7.629,7.629,0,0,0,4.966,9.063,7.4,7.4,0,0,0,5.98,5.644H9.009a18.5,18.5,0,0,1-.429,4.81c-.091.247-.234.325-.65.325A10.015,10.015,0,0,1,6.1,10.558a3.6,3.6,0,0,1,.208.923c.819.078,1.274.1,1.7.1.754,0,1.066-.13,1.287-.52a16.524,16.524,0,0,0,.585-5.33,5.744,5.744,0,0,1,.052-.923,9.836,9.836,0,0,1-1.365.065H4.29A9.978,9.978,0,0,1,2.938,4.8v.923a10.468,10.468,0,0,1,1.339-.078ZM4.563.249A4.181,4.181,0,0,1,4,1.614,10.712,10.712,0,0,1,.442,5.423a2.861,2.861,0,0,1,.637.7A12.9,12.9,0,0,0,5.174,1.25,3.547,3.547,0,0,1,5.538.587ZM7.449.613c.065.1.143.247.208.364A13.17,13.17,0,0,0,12.038,6.2a3.207,3.207,0,0,1,.611-.793A10.842,10.842,0,0,1,8.814,1.367,5.263,5.263,0,0,1,8.32.275Zm6.812,4.134a7.439,7.439,0,0,1,.754-.169c.117-.026.741-.13,1.859-.3A21.461,21.461,0,0,1,15.444,8.4a12.467,12.467,0,0,1-1.352,2.353l.884.52c.4-.728.676-1.248.845-1.56A24.526,24.526,0,0,0,17.784,4.2a7.464,7.464,0,0,1,.936-.065c1.209,0,1.6.442,1.6,1.82a10.063,10.063,0,0,1-.546,3.614q-.254.624-.741.624a4.859,4.859,0,0,1-1.937-.6,2.517,2.517,0,0,1,.039.52,2.828,2.828,0,0,1-.026.455,4.891,4.891,0,0,0,1.963.507,1.358,1.358,0,0,0,1.274-.611,8.96,8.96,0,0,0,.871-4.472A2.624,2.624,0,0,0,20.579,3.9a2.484,2.484,0,0,0-1.872-.546,7.576,7.576,0,0,0-.767.039c.117-.624.208-1.105.273-1.482A7.992,7.992,0,0,1,18.46.665L17.42.548V.717a15.889,15.889,0,0,1-.39,2.756c-1.053.169-2.405.325-2.873.338Zm7.67-1.716A10.641,10.641,0,0,1,24.583,7.7l.832-.481a11.755,11.755,0,0,0-2.717-4.6ZM29.458.47a2.606,2.606,0,0,1-.039.416,32.861,32.861,0,0,0-.442,4.8v.3L29,7.334l.013.234v.143l.936-.039c-.013-.195-.013-.26-.013-.312a6.785,6.785,0,0,1,.7-2.9C31.382,2.94,32.214,2.2,33.2,2.2c1.248,0,1.976,1.209,1.976,3.3a4.477,4.477,0,0,1-2.236,4.316,6.869,6.869,0,0,1-2.639.819,2.683,2.683,0,0,1,.52.884,9.84,9.84,0,0,0,2.314-.767,5.364,5.364,0,0,0,3-5.109,5.34,5.34,0,0,0-.78-3.159,2.447,2.447,0,0,0-2.08-1.157,3.1,3.1,0,0,0-2.6,1.677,5.8,5.8,0,0,0-.793,1.937c-.065.273-.065.273-.091.377l-.052-.013c.039-.663.221-2.08.429-3.393a7.369,7.369,0,0,1,.3-1.339Zm12.116.9a13.06,13.06,0,0,1,.936,2.47c-.208.065-.338.091-.663.208a14.267,14.267,0,0,1-1.911.611l.338.923a12.39,12.39,0,0,1,1.781-.715,5.619,5.619,0,0,0,.7-.234A46.23,46.23,0,0,1,44.4,11.65l1.053-.234a4.126,4.126,0,0,1-.169-.559C44.733,8.413,44.265,6.58,43.6,4.37a15.328,15.328,0,0,1,4.238-.923c1.313,0,2.08.585,2.08,1.573A1.576,1.576,0,0,1,49.3,6.346a2.633,2.633,0,0,1-1.56.507,4.418,4.418,0,0,1-2.184-.6A5.789,5.789,0,0,1,45.63,7a1.869,1.869,0,0,1-.013.234,5.505,5.505,0,0,0,2.2.481,2.779,2.779,0,0,0,3.055-2.678c0-1.456-1.118-2.392-2.86-2.392a6.547,6.547,0,0,0-.975.078c-.013-.156-.013-.4-.013-.416A12.267,12.267,0,0,1,47.086.548h-.975a18.017,18.017,0,0,1,.052,2.3,23.055,23.055,0,0,0-2.8.728c-.182-.585-.312-.949-.572-1.716a5.224,5.224,0,0,1-.247-.793Zm17.615.975c-.884.026-1.9.052-3.146.1-2.093.078-2.093.078-2.47.078-.195,0-.286,0-.52-.013l.039.949c.871-.143,3.5-.273,6.11-.325v.676c0,.156.013.286.013.338,0,.481,0,.533.013.715a2,2,0,0,0-1.508-.585,2.163,2.163,0,0,0-2.3,2.145,2.173,2.173,0,0,0,3.77,1.352,1.821,1.821,0,0,0,.351-.637,3.367,3.367,0,0,1-1.456,2.743,6.663,6.663,0,0,1-2.106.975,2.854,2.854,0,0,1,.572.819A8.269,8.269,0,0,0,58.6,10.623,4.184,4.184,0,0,0,60.346,7.23,3.725,3.725,0,0,0,60.034,5.7V3.122c1.053-.026,1.2-.026,1.391-.026a23.105,23.105,0,0,1,2.483.065V2.238c-.429.052-1.43.078-3.887.091V2.186A10.762,10.762,0,0,1,60.086.561h-.975a4.381,4.381,0,0,1,.052.754Zm-.039,3.8a1.457,1.457,0,0,1-1.521,1.534A1.256,1.256,0,0,1,56.29,6.385,1.376,1.376,0,0,1,57.733,5.02a1.663,1.663,0,0,1,.871.208A.941.941,0,0,1,59.15,6.138Zm7.618-4.355a7.033,7.033,0,0,1,.039.767c.065,3.2.247,4.862.7,6.1s1.118,1.976,1.846,1.976c.923,0,1.521-.871,2.158-3.146a4.155,4.155,0,0,1-.767-.741,9.353,9.353,0,0,1-.676,2.223c-.195.429-.416.65-.65.65-.494,0-1.027-.9-1.313-2.223a22.262,22.262,0,0,1-.338-4.043A9.423,9.423,0,0,1,67.86,1.8Zm6.578,1.1A11.481,11.481,0,0,1,76.05,9.3l.923-.377A12.448,12.448,0,0,0,76,5.449a11.284,11.284,0,0,0-1.859-2.964ZM81.6,1.861a6.754,6.754,0,0,1,.624,1.417l.715-.312a9,9,0,0,0-.572-1.105h1.014a6.946,6.946,0,0,1,1,.039V1.12a6.082,6.082,0,0,1-1.105.065H81.094c.221-.351.312-.494.533-.9l-.819-.26a5.81,5.81,0,0,1-2.08,2.587,2.112,2.112,0,0,1,.65.52A8.757,8.757,0,0,0,80.6,1.861Zm2.34.728a4.362,4.362,0,0,1,.052.728v.221H80.47A11.116,11.116,0,0,1,79.2,3.486a5.067,5.067,0,0,1,.052.832v.676a5.238,5.238,0,0,1-.052.845h.832V4.214h9.139V5.839H90a5.108,5.108,0,0,1-.052-.858V4.305a6.879,6.879,0,0,1,.039-.819,12.342,12.342,0,0,1-1.313.052H84.786V3.317a3.721,3.721,0,0,1,.039-.7.743.743,0,0,1,.1.091,6.458,6.458,0,0,0,.728-.845h1.027a7.3,7.3,0,0,1,.689,1.391L88.1,2.94a7.56,7.56,0,0,0-.611-1.079h1.716a6.441,6.441,0,0,1,1.105.065V1.12a6.5,6.5,0,0,1-1.131.065H86.073a8.79,8.79,0,0,0,.455-.936L85.735.054a4.4,4.4,0,0,1-1.443,2.223,3.166,3.166,0,0,1,.507.312Zm-2.249,9.373v-.65h6.019v.65h.858a7.245,7.245,0,0,1-.078-1.222V9.713a7.4,7.4,0,0,1,.065-1.17,9.661,9.661,0,0,1-1.2.052H81.692V7.646h5.1a12.234,12.234,0,0,1,1.3.052,6.61,6.61,0,0,1-.052-.988V5.956a8.813,8.813,0,0,1,.039-.949,9.508,9.508,0,0,1-1.3.065H82.16a9.625,9.625,0,0,1-1.3-.065,6.6,6.6,0,0,1,.052.949v4.693a10.192,10.192,0,0,1-.078,1.313Zm0-6.214h5.577V6.983H81.692Zm0,3.536h6.019v1.352H81.692ZM93.34,1.653V4.708h-.676a4.247,4.247,0,0,1-.871-.065v.832a4.346,4.346,0,0,1,.858-.065h.689V9.037a13.048,13.048,0,0,1-1.794.559l.26.91a5.112,5.112,0,0,1,.52-.221,35.486,35.486,0,0,0,3.38-1.469L95.654,8c-.663.338-.884.442-1.521.715V5.41h.52a6.274,6.274,0,0,1,.871.052V4.643a4.4,4.4,0,0,1-.871.065h-.52V1.653h.637a7.773,7.773,0,0,1,1,.052V.847a4.816,4.816,0,0,1-1.066.078H92.729A5,5,0,0,1,91.637.847v.871a5.571,5.571,0,0,1,1.027-.065Zm5.733,4.953V8.1H97.357a7.3,7.3,0,0,1-1.248-.065v.858a7.581,7.581,0,0,1,1.248-.065h1.716V10.74h-2.7a7.4,7.4,0,0,1-1.235-.065v.858a8.332,8.332,0,0,1,1.287-.065h5.811a8.626,8.626,0,0,1,1.3.065v-.858a8.044,8.044,0,0,1-1.274.065H99.84V8.829h1.924a8.35,8.35,0,0,1,1.274.065V8.036a7.944,7.944,0,0,1-1.274.065H99.84V6.606h1.482c.741,0,1.092.013,1.56.052a15.99,15.99,0,0,1-.052-1.664V2.381c0-.767.013-1.274.052-1.638a11.875,11.875,0,0,1-1.664.065H97.8A12.583,12.583,0,0,1,96.122.743a15.875,15.875,0,0,1,.065,1.651V5.163c-.013.689-.013.689-.026,1.027a3.528,3.528,0,0,1-.026.468,15.454,15.454,0,0,1,1.612-.052Zm0-5.083V3.369H96.967V1.523Zm.767,0h2.2V3.369h-2.2Zm-.767,2.535V5.891H96.967V4.058Zm.767,0h2.2V5.891h-2.2ZM112.034,7.49a7.468,7.468,0,0,0,.793,2.2,9.04,9.04,0,0,1-3.367,1.573,1.963,1.963,0,0,1,.52.663,10.186,10.186,0,0,0,3.224-1.638c.741,1.066,1.443,1.612,2.08,1.612.611,0,.871-.481,1.17-2.119a2.628,2.628,0,0,1-.663-.455,5.923,5.923,0,0,1-.234,1.313c-.117.338-.195.442-.351.442-.338,0-.871-.468-1.43-1.261a15.428,15.428,0,0,0,1.508-1.586l-.663-.455a4.668,4.668,0,0,1-1.209,1.456,6.139,6.139,0,0,1-.65-1.742h2.171a8.2,8.2,0,0,1,1.378.078V6.723a6.842,6.842,0,0,1-1.378.078h-2.3a33.345,33.345,0,0,1-.364-5.239,7,7,0,0,1,.065-1.274h-.91a5.1,5.1,0,0,1,.065.819,33.717,33.717,0,0,0,.195,4.069A14.873,14.873,0,0,0,111.9,6.8H108.94a7.2,7.2,0,0,1-1.17-.065v.819a7.7,7.7,0,0,1,1.17-.065h.143a4.45,4.45,0,0,1-1.872,3.783,1.975,1.975,0,0,1,.624.559,5.358,5.358,0,0,0,1.781-2.938,5.8,5.8,0,0,0,1.417,1.235,2.74,2.74,0,0,1,.429-.624,5.132,5.132,0,0,1-1.69-1.391c.026-.26.026-.286.052-.624Zm.741-1.846A2.01,2.01,0,0,1,113,5.605c1.4-.182,2.262-.3,2.561-.364.091.234.143.377.26.767l.6-.234a11.128,11.128,0,0,0-.949-2l-.533.208a4.383,4.383,0,0,1,.39.728,14.192,14.192,0,0,1-1.586.182c.637-.715,1-1.183,2.184-2.769l-.6-.468a13.251,13.251,0,0,1-1,1.56c-.247-.312-.364-.455-.624-.741A14.788,14.788,0,0,0,114.881.678l-.676-.364a7.226,7.226,0,0,1-.949,1.716c-.143-.143-.195-.195-.4-.39l-.429.546a7.475,7.475,0,0,1,1.5,1.573c-.416.533-.52.663-.962,1.17a.488.488,0,0,1-.13.013,1.2,1.2,0,0,1-.195-.013ZM109.564.262a6.711,6.711,0,0,1-.988,1.872c-.143-.13-.26-.247-.364-.351l-.468.52a8.553,8.553,0,0,1,1.534,1.625c-.338.494-.572.793-1.04,1.365a1.5,1.5,0,0,1-.221.013.812.812,0,0,1-.156-.013l.156.741a3.564,3.564,0,0,1,.364-.065c1.248-.2,1.937-.325,2.483-.442.065.234.091.312.156.572l.585-.247a8.148,8.148,0,0,0-.845-1.859l-.52.195a4.851,4.851,0,0,1,.429.806c-.416.078-.988.156-1.625.234a23.469,23.469,0,0,0,2.015-2.86l-.624-.442a10.667,10.667,0,0,1-.78,1.43,6.379,6.379,0,0,0-.624-.754,11.875,11.875,0,0,0,1.222-2Zm-3.549,2.561h-.559a5.134,5.134,0,0,1-.9-.052V3.59a5.631,5.631,0,0,1,.9-.052h.455a11.06,11.06,0,0,1-1.69,4.29,2.741,2.741,0,0,1,.468.754,11.22,11.22,0,0,0,1.469-4.069c-.078.988-.13,2-.13,2.509v3.549a10.92,10.92,0,0,1-.078,1.508h.91a10.538,10.538,0,0,1-.065-1.508V6.307c0-.455-.026-1.014-.052-1.911a4.5,4.5,0,0,0,.7,1.391,4.421,4.421,0,0,1,.364-.676,5.065,5.065,0,0,1-.962-1.573h.312a5.6,5.6,0,0,1,.832.052V2.771a4.75,4.75,0,0,1-.845.052h-.351V1.536A10.956,10.956,0,0,1,106.847.2h-.9a7.965,7.965,0,0,1,.065,1.352Zm7.566,3.107a4.714,4.714,0,0,1,.975.858l.468-.442a4.484,4.484,0,0,0-.988-.793Zm4.186-2.171a5.184,5.184,0,0,1,.767-.091c1.274-.078,3.146-.286,4.108-.442.169.3.208.377.4.78l.689-.4A20.258,20.258,0,0,0,122.057.99l-.611.312a11.377,11.377,0,0,1,.819,1.274c-.923.117-1.43.169-2.73.26A21.859,21.859,0,0,0,120.614.873a3.124,3.124,0,0,1,.26-.507l-.91-.26a7.4,7.4,0,0,1-.715,1.755,10.087,10.087,0,0,1-.572,1.014c-.377.013-.377.013-.455.013-.1,0-.39-.013-.572-.013Zm7.215-2.3A5.117,5.117,0,0,1,125.06.327h-.949a7.006,7.006,0,0,1,.078,1.131V4.526c0,.754.325.884,2.184.884,1.677,0,2.184-.065,2.4-.338a3.51,3.51,0,0,0,.429-1.846,2.837,2.837,0,0,1-.767-.325c-.052,1.157-.117,1.495-.325,1.625-.182.117-.572.143-1.755.143-1.235,0-1.378-.039-1.378-.4V3.1a15.413,15.413,0,0,0,3.289-1.339c.52-.286.52-.286.728-.39l-.572-.689a10.5,10.5,0,0,1-3.445,1.651Zm0,5.889a5.558,5.558,0,0,1,.065-1.131h-.923a5.94,5.94,0,0,1,.065,1.17v3.25c0,.429.1.624.416.754a4.946,4.946,0,0,0,1.989.195c1.43,0,1.872-.065,2.158-.338.312-.3.455-.806.559-2.041a3.533,3.533,0,0,1-.78-.338,3.908,3.908,0,0,1-.273,1.677c-.169.208-.585.286-1.612.286a7.016,7.016,0,0,1-1.248-.065c-.325-.052-.416-.143-.416-.4V8.816a14.364,14.364,0,0,0,2.08-.7c.455-.2,1.456-.7,2.028-1.027l-.611-.676a9.562,9.562,0,0,1-3.5,1.625Zm-6.461,3.3a8.625,8.625,0,0,1-.065,1.3h.923a8.8,8.8,0,0,1-.065-1.326V9h2.873v1.677c0,.234-.078.286-.429.286a7.612,7.612,0,0,1-1-.065,3.64,3.64,0,0,1,.195.806c.169.013.312.013.4.013,1.391,0,1.6-.13,1.6-.962V5.228c0-.234.013-.624.039-.871a9.661,9.661,0,0,1-1.2.052h-2.275a7.857,7.857,0,0,1-1.053-.052,10.648,10.648,0,0,1,.052,1.2Zm.793-5.525h2.873V6.346h-2.873Zm0,1.911h2.873V8.309h-2.873Zm11.921-3.614a43.278,43.278,0,0,1,4.485-.429,26.605,26.605,0,0,0,2.86-.286,8.51,8.51,0,0,0-1.235.689,4.946,4.946,0,0,0-2.431,3.991,3.148,3.148,0,0,0,1.443,2.652,6.558,6.558,0,0,0,2.808,1c.234.039.26.052.4.078l.169-1.053h-.13a6.663,6.663,0,0,1-1.95-.416,2.549,2.549,0,0,1-1.82-2.4,3.973,3.973,0,0,1,1.6-3,6.394,6.394,0,0,1,2.5-1.3,5.452,5.452,0,0,1,1.456-.182L141.31,1.8a8.78,8.78,0,0,1-1.547.143l-.741.026c-.429.013-.6.026-2.2.117l-2.041.13c-1.6.091-1.677.1-2.4.156-.4.026-.559.039-.741.039-.091,0-.221,0-.468-.013Zm7.982,1.248a9.142,9.142,0,0,1,1.326,2.067l.663-.39a9.869,9.869,0,0,0-1.339-2.015Zm1.482-.7a10.288,10.288,0,0,1,1.326,2.041l.65-.364a10.535,10.535,0,0,0-1.339-2.028Zm2.249,5.057a12.975,12.975,0,0,1,2.561,2.834l.728-.689a13.246,13.246,0,0,0-2.613-2.756Zm20.033-6.591a13.138,13.138,0,0,1-2.652.559V1.744a7.435,7.435,0,0,1,.065-1.209h-.962A8.635,8.635,0,0,1,159.5,1.77V3.057c-.39.026-.9.039-1.248.039a7.363,7.363,0,0,1-1.326-.091v.858h.533c.143.013.494.013.689.013.377,0,.6,0,.832-.013.4-.026.4-.026.52-.039V6.281a6.954,6.954,0,0,0-1.833,1.066,2.353,2.353,0,0,0-1.027,1.729,1.568,1.568,0,0,0,.6,1.222,3.433,3.433,0,0,0,2.145.832c.637,0,.949-.338.949-1.04V6.84a8.771,8.771,0,0,1,2.756-.507c1.7,0,2.782.793,2.782,2.067a1.726,1.726,0,0,1-1.742,1.833c-.949,0-1.339-.559-1.339-1.911a3.861,3.861,0,0,1,.026-.507,2.818,2.818,0,0,1-.858.338,4.744,4.744,0,0,0,.156,1.469,1.917,1.917,0,0,0,2,1.469A2.675,2.675,0,0,0,165.425,6.1a4.4,4.4,0,0,0-2.3-.546,9.21,9.21,0,0,0-2.795.468V3.772a22.817,22.817,0,0,0,2.3-.39c.182-.039.234-.052.39-.078ZM159.5,9.609c0,.559-.039.637-.3.637a2.428,2.428,0,0,1-1.157-.377c-.377-.247-.559-.507-.559-.78,0-.624.728-1.326,2.015-1.95Zm7.813-5.5a10.925,10.925,0,0,0-2.626-2.47l-.676.507a10.647,10.647,0,0,1,2.626,2.548Zm8.242,3.055a9.019,9.019,0,0,1-3.705,3.081,2.253,2.253,0,0,1,.572.689,9.821,9.821,0,0,0,3.588-3.3c-.026.39-.039.676-.039,1.066v2.067a6.184,6.184,0,0,1-.091,1.209h.949a6.1,6.1,0,0,1-.078-1.2V8.725a7.326,7.326,0,0,0-.065-1.105,9.32,9.32,0,0,0,3.77,3.38,3.055,3.055,0,0,1,.52-.767,9.411,9.411,0,0,1-2.327-1.4,8.882,8.882,0,0,1-1.586-1.664h2.4a8.512,8.512,0,0,1,1.157.065V6.372a7.714,7.714,0,0,1-1.183.078h-2.691V5.93a5.709,5.709,0,0,1,.065-1.053h-.936a5.268,5.268,0,0,1,.091,1.131V6.45h-2.106a7.744,7.744,0,0,1-1.235-.078V7.23a7.884,7.884,0,0,1,1.183-.065Zm-4.966-4.316h-.637a5.592,5.592,0,0,1-.975-.078v.858a7.279,7.279,0,0,1,.962-.052h.65V6.372a8.77,8.77,0,0,1-1.716.572l.26.884a4.54,4.54,0,0,1,.767-.351c.494-.208.494-.208.689-.286v3.666c0,.221-.13.3-.455.3a5.359,5.359,0,0,1-.91-.065,3.009,3.009,0,0,1,.195.819c.247.013.364.013.481.013,1.17,0,1.5-.208,1.5-.949V6.84c.611-.286.767-.364,1.313-.65l-.065-.741c-.585.3-.806.4-1.248.585V3.577h.247a5.991,5.991,0,0,1,.884.052V2.784a4.214,4.214,0,0,1-.9.065h-.234V1.575a7.572,7.572,0,0,1,.078-1.3H170.5a7.855,7.855,0,0,1,.091,1.326Zm4.537-1.274A2.98,2.98,0,0,1,172.8,4.786a2.525,2.525,0,0,1,.546.663,4.1,4.1,0,0,0,1.911-1.5,4.617,4.617,0,0,0,.624-2.379h1.144V4.11c0,.663.286.793,1.7.793,1.664,0,1.833-.13,1.963-1.573a1.866,1.866,0,0,1-.7-.234c-.013,1.053-.052,1.092-1.17,1.092-.9,0-1.04-.039-1.04-.286V1.575h1.794V2.8h.819a3.945,3.945,0,0,1-.039-.728V1.627a4.66,4.66,0,0,1,.039-.806c-.312.026-.624.039-1.17.039h-5.3c-.546,0-.845-.013-1.144-.039a7.19,7.19,0,0,1,.039.819v.572a7.788,7.788,0,0,1-.039.806h.793V1.575ZM184.366.86a4,4,0,0,1,.052.689c0,.208,0,.455-.013.845-.1,4.095-.117,4.42-.117,5.291A3.621,3.621,0,0,0,185,10.35a3.083,3.083,0,0,0,2.444.91,4.552,4.552,0,0,0,3.666-1.625,7.908,7.908,0,0,0,1.443-2.951,3.677,3.677,0,0,1-.936-.624,7.722,7.722,0,0,1-.637,2.041,3.733,3.733,0,0,1-3.484,2.262,2.454,2.454,0,0,1-1.625-.507,2.046,2.046,0,0,1-.611-1.56c-.013-.3-.026-.624-.026-.78,0-.585.039-2.353.091-3.913A20.043,20.043,0,0,1,185.5.86Zm17.186,1.521a3.741,3.741,0,0,1,1.508.325,3.427,3.427,0,0,1,2.067,3.263,3.924,3.924,0,0,1-2.3,3.64,7.792,7.792,0,0,1-2.171.611,2.065,2.065,0,0,1,.455.871,10.057,10.057,0,0,0,1.976-.6,4.734,4.734,0,0,0,2.977-4.485A4.352,4.352,0,0,0,204.8,2.836a5.033,5.033,0,0,0-3.575-1.287,5.43,5.43,0,0,0-4.2,1.729,5.408,5.408,0,0,0-1.365,3.588c0,1.82.923,3.172,2.158,3.172.936,0,1.7-.78,2.457-2.5A19.487,19.487,0,0,0,201.552,2.381Zm-.936.013a17.856,17.856,0,0,1-1.183,4.81c-.559,1.274-1.079,1.885-1.625,1.885-.7,0-1.248-.962-1.248-2.21a4.5,4.5,0,0,1,2.119-3.874A4.106,4.106,0,0,1,200.616,2.394ZM9,17.9a5.687,5.687,0,0,1-.455,1.378,17.864,17.864,0,0,1-1.534,3.029,37.34,37.34,0,0,0-3.38-2.262l-.65.689a24.62,24.62,0,0,1,3.5,2.353A13.848,13.848,0,0,1,1.3,27.428a2.317,2.317,0,0,1,.676.78A15.523,15.523,0,0,0,7.2,23.684,18.612,18.612,0,0,1,10.036,26.5l.728-.806a33.421,33.421,0,0,0-2.99-2.8,21.263,21.263,0,0,0,1.911-3.8,3.661,3.661,0,0,1,.4-.793Zm6.617,2.561a12.9,12.9,0,0,1,1.378-.052h4.992a12.9,12.9,0,0,1,1.378.052V19.407a8.093,8.093,0,0,1-1.391.078H17a8.093,8.093,0,0,1-1.391-.078ZM14.3,26.674a11.742,11.742,0,0,1,1.495-.065h7.4a11.618,11.618,0,0,1,1.5.065V25.582a9.271,9.271,0,0,1-1.508.078H15.808a9.271,9.271,0,0,1-1.508-.078Zm18.876.559c.273-1.365.377-2.015.676-4.082a2.409,2.409,0,0,1,.208-.91l-.429-.377a1.313,1.313,0,0,1-.611.091H29.536a6.8,6.8,0,0,1-1.157-.078v.936a5.811,5.811,0,0,1,1.144-.052h3.471c-.117,1.17-.416,3.081-.715,4.472H28.327a5.447,5.447,0,0,1-1.17-.078V28.1a6.989,6.989,0,0,1,1.183-.065h6.37a7.179,7.179,0,0,1,1.183.065v-.949a5.375,5.375,0,0,1-1.17.078Zm6.045-3.692a14.2,14.2,0,0,1,1.612-.052h7.54a14.872,14.872,0,0,1,1.586.052V22.488a10.253,10.253,0,0,1-1.573.065H40.833a9.2,9.2,0,0,1-1.612-.078ZM53.612,17.86a7.239,7.239,0,0,1-.182,1.04,21.506,21.506,0,0,0-.585,5.148,18.633,18.633,0,0,0,.338,3.679c.039.247.052.312.078.52l.936-.078v-.195A11.332,11.332,0,0,1,55.25,24.4l-.624-.3a12.078,12.078,0,0,0-.845,2.535c-.052-.689-.078-1.456-.078-2.47a19.218,19.218,0,0,1,.39-4.069,18.473,18.473,0,0,1,.546-2.08Zm2.678,2.457a17.315,17.315,0,0,0,2.08.13,21.946,21.946,0,0,0,2.8-.169q.858-.117.9-.117L62,19.238a13.949,13.949,0,0,1-3.484.351,8.829,8.829,0,0,1-2.21-.195Zm.949,2.535a3.591,3.591,0,0,0-1.131,2.418,1.837,1.837,0,0,0,.39,1.2,3.613,3.613,0,0,0,2.977.988,13.412,13.412,0,0,0,2.665-.26c.26-.039.286-.052.455-.065l-.13-1a8.556,8.556,0,0,1-2.99.455c-1.677,0-2.5-.468-2.5-1.43a3.02,3.02,0,0,1,.975-1.911Zm14.04-3.51c-.884.026-1.9.052-3.146.1-2.093.078-2.093.078-2.47.078-.195,0-.286,0-.52-.013l.039.949c.871-.143,3.5-.273,6.11-.325v.676c0,.156.013.286.013.338,0,.481,0,.533.013.715a2,2,0,0,0-1.508-.585,2.163,2.163,0,0,0-2.3,2.145,2.173,2.173,0,0,0,3.77,1.352,1.821,1.821,0,0,0,.351-.637,3.367,3.367,0,0,1-1.456,2.743,6.663,6.663,0,0,1-2.106.975,2.854,2.854,0,0,1,.572.819,8.269,8.269,0,0,0,2.054-1.053,4.184,4.184,0,0,0,1.742-3.393,3.725,3.725,0,0,0-.312-1.534V20.122c1.053-.026,1.2-.026,1.391-.026A23.106,23.106,0,0,1,76,20.161v-.923c-.429.052-1.43.078-3.887.091v-.143a10.762,10.762,0,0,1,.065-1.625H71.2a4.381,4.381,0,0,1,.052.754Zm-.039,3.8a1.457,1.457,0,0,1-1.521,1.534,1.256,1.256,0,0,1-1.339-1.287,1.376,1.376,0,0,1,1.443-1.365,1.663,1.663,0,0,1,.871.208A.941.941,0,0,1,71.24,23.138Zm13.7-5.616a20.667,20.667,0,0,1-3.809,3.562,10.045,10.045,0,0,0-1.1.884,1.259,1.259,0,0,0-.377.871c0,.442.208.728.936,1.3a27.389,27.389,0,0,1,4.966,4.5l.819-.806c-.065-.052-.13-.1-.143-.117-.039-.026-.1-.1-.221-.208a38.071,38.071,0,0,0-4.16-3.549c-1.053-.819-1.157-.91-1.157-1.144,0-.182.091-.286.572-.65,1.391-1.066,2.314-1.833,2.99-2.457l1.027-.988.1-.1c.1-.091.221-.195.338-.312.013-.013.065-.052.13-.1Zm.286,3.016A9.949,9.949,0,0,1,86.554,22.6l.663-.39A9.869,9.869,0,0,0,85.878,20.2Zm1.482-.689a10.5,10.5,0,0,1,1.326,2.041l.65-.377A9.936,9.936,0,0,0,87.334,19.5Zm4.823.9a1.936,1.936,0,0,1,.221-.013h.052c.507.026.624.026,1.079.026.481,0,.637,0,.9-.013a26.146,26.146,0,0,1-2.444,7.189l.949.4a34.255,34.255,0,0,0,1.5-3.965c.351-1.183.715-2.652.91-3.679a19,19,0,0,0,2.2-.312c.26-.052.26-.052.364-.065l-.065-.9a10.719,10.719,0,0,1-2.34.442c.065-.39.1-.572.169-.988a12.29,12.29,0,0,1,.234-1.235l-1.027-.1a12.712,12.712,0,0,1-.286,2.392c-.377.026-.52.026-.78.026a8.965,8.965,0,0,1-1.625-.117Zm9.815.637c-.975-.039-1.17-.039-1.417-.039a14.729,14.729,0,0,0-3.445.429l.091.884a11.315,11.315,0,0,1,3.25-.442,13.052,13.052,0,0,1,1.534.091Zm-4.732,2.808c-.689.884-.871,1.287-.871,1.872,0,1.287,1.105,1.95,3.237,1.95a13.027,13.027,0,0,0,2.314-.221c.429-.065.429-.065.572-.091l-.091-.975a9.659,9.659,0,0,1-2.873.442c-1.482,0-2.275-.416-2.275-1.2a1.564,1.564,0,0,1,.325-.923,4.358,4.358,0,0,1,.39-.494Zm10.465-6.318a5.622,5.622,0,0,1,.221.832,26.253,26.253,0,0,0,.949,3.627,8.081,8.081,0,0,0-1.7,1.066,2.812,2.812,0,0,0-1.157,2.21A2.158,2.158,0,0,0,107,27.74a8.844,8.844,0,0,0,2.886.351,26.078,26.078,0,0,0,2.873-.169l.442-.052.13-.013a3.416,3.416,0,0,1,.39-.013l-.1-1.079a12.907,12.907,0,0,1-3.718.442c-2.548,0-3.549-.468-3.549-1.638,0-1.079.962-1.937,3.185-2.834a34.425,34.425,0,0,1,3.913-1.261l-.39-.988a5.882,5.882,0,0,1-.832.351c-2,.689-2.431.858-3.146,1.157a23.688,23.688,0,0,1-.975-4.3Zm4.771-.039a10.137,10.137,0,0,1,1.326,2.067l.663-.39A10.435,10.435,0,0,0,112.5,17.5Zm1.482-.7a10.9,10.9,0,0,1,1.326,2.041l.65-.364a10.4,10.4,0,0,0-1.352-2.028Zm6.214.338a2.606,2.606,0,0,1-.039.416,32.861,32.861,0,0,0-.442,4.8v.3l.026,1.352.013.234v.143l.936-.039c-.013-.2-.013-.26-.013-.312a6.784,6.784,0,0,1,.7-2.9c.741-1.521,1.573-2.262,2.561-2.262,1.248,0,1.976,1.209,1.976,3.3a4.477,4.477,0,0,1-2.236,4.316,6.869,6.869,0,0,1-2.639.819,2.683,2.683,0,0,1,.52.884,9.84,9.84,0,0,0,2.314-.767,5.364,5.364,0,0,0,3-5.109,5.34,5.34,0,0,0-.78-3.159,2.447,2.447,0,0,0-2.08-1.157,3.1,3.1,0,0,0-2.6,1.677,5.8,5.8,0,0,0-.793,1.937c-.065.273-.065.273-.091.377l-.052-.013c.039-.663.221-2.08.429-3.393a7.369,7.369,0,0,1,.3-1.339Zm15.548,1.7v.91H132.21a6.469,6.469,0,0,1-1.157-.065v.78a6.649,6.649,0,0,1,1.157-.065H135.1v.923h-3.913a8.065,8.065,0,0,1-1.274-.078v.832a7.082,7.082,0,0,1,1.274-.078h1.573a9.317,9.317,0,0,1-1.17,2.821,7.884,7.884,0,0,1-1.95,2.21,2.5,2.5,0,0,1,.637.689,10.25,10.25,0,0,0,2.5-3.588,11.073,11.073,0,0,0-.091,1.443v1.95A7.782,7.782,0,0,1,132.6,29h.871V28.39h5.785V29h.884a7.714,7.714,0,0,1-.078-1.157V24.126a8.759,8.759,0,0,1,.052-1.027c-.442.039-.793.052-1.17.052h-5.629a7.358,7.358,0,0,0,.247-.819h6.448a8.849,8.849,0,0,1,1.287.078v-.832a8.366,8.366,0,0,1-1.287.078h-4.121v-.923h3.159a6.483,6.483,0,0,1,1.144.065v-.78a6.483,6.483,0,0,1-1.144.065h-3.159v-.91h3.588a8.725,8.725,0,0,1,1.287.078v-.806a8.6,8.6,0,0,1-1.287.078h-2A8.428,8.428,0,0,0,138.58,17.3l-.78-.3a7.78,7.78,0,0,1-1.183,1.521h-2.21a10.724,10.724,0,0,0-1.092-1.534l-.728.286a6.683,6.683,0,0,1,.975,1.248h-1.846a8.3,8.3,0,0,1-1.274-.078v.806a8.78,8.78,0,0,1,1.274-.078Zm4.16,4.641v.871h-5.785v-.871Zm0,1.5v.871h-5.785v-.871Zm0,1.5v.923h-5.785V26.8Zm7.7-5.291a1.286,1.286,0,0,1,.2-.013,1.869,1.869,0,0,1,.234.013c.468.026,1.209.052,1.573.052.572,0,1.326-.026,1.9-.078.026.377.026.663.026,1.027,0,2.08-.208,3.029-.871,3.874a5.33,5.33,0,0,1-1.989,1.495,3,3,0,0,1,.7.7,6.284,6.284,0,0,0,2.041-1.677c.767-1.04,1-2.106,1-4.576,0-.377,0-.585-.013-.936a12.4,12.4,0,0,0,1.417-.26,6.572,6.572,0,0,1,.689-.156l-.065-.936a6.861,6.861,0,0,1-2.067.546c-.065-1.807-.065-1.807-.078-2.106-.013-.234-.013-.3-.013-.39a3.055,3.055,0,0,1,.039-.442l-1,.013a25.066,25.066,0,0,1,.156,3.029c-.65.052-1.131.078-1.651.078a10.521,10.521,0,0,1-2.21-.169Zm-2.34-3.692a6.606,6.606,0,0,1-.117.9,26.716,26.716,0,0,0-.52,5,14.792,14.792,0,0,0,.481,3.848,3.457,3.457,0,0,1,.1.455l.9-.078a5.074,5.074,0,0,1,.364-1.651,24.656,24.656,0,0,1,.962-2.275l-.663-.312a14.208,14.208,0,0,0-1.092,2.756,4.526,4.526,0,0,0-.078-.7c-.052-.442-.1-1.4-.1-2.119a22.48,22.48,0,0,1,.793-5.668Zm21.853,9.139a4.444,4.444,0,0,1-.442-.3,11.379,11.379,0,0,0-3.627-1.9c-.052-1.261-.052-1.261-.078-1.989.962-.065,1.989-.169,2.886-.312.455-.065.585-.078.754-.091l-.052-.9a15.691,15.691,0,0,1-3.6.533c-.013-.689-.013-.689-.026-1.755a27.006,27.006,0,0,0,3.016-.312c.676-.091.676-.091.9-.1l-.065-.884a18.325,18.325,0,0,1-3.848.533,14.508,14.508,0,0,1,.091-1.833h-1a10.183,10.183,0,0,1,.065,1.872c-.429,0-.871.013-1.131.013a16.15,16.15,0,0,1-3.328-.26l-.013.884a1.062,1.062,0,0,1,.182-.013,1.577,1.577,0,0,1,.234.013c1.17.091,2.223.13,3.172.13.3,0,.507,0,.884-.013l.026,1.781c-.364.013-.819.013-1.157.013a15.955,15.955,0,0,1-2.977-.208l-.013.858h.1c.078,0,.182,0,.325.013.806.065,1.417.091,2.2.091.416,0,1.066-.013,1.534-.026.013.338.013.585.026.754.013.377.013.65.026.767a1.036,1.036,0,0,0,.013.143c0,.117,0,.117.013.156a5.782,5.782,0,0,0-1.17-.1,5.663,5.663,0,0,0-1.352.13c-1.144.26-1.82.936-1.82,1.794a1.7,1.7,0,0,0,.7,1.365,3.386,3.386,0,0,0,2.015.52,2.617,2.617,0,0,0,2.2-.819,2.258,2.258,0,0,0,.325-1.417,3.737,3.737,0,0,0-.026-.468c.351.143.65.273.871.39a10.461,10.461,0,0,1,2.652,1.859Zm-4.9-1.053a1.7,1.7,0,0,1-.26,1.17,1.878,1.878,0,0,1-1.43.429c-1.131,0-1.781-.39-1.781-1.079s.845-1.157,2.132-1.157a4.772,4.772,0,0,1,1.326.143Zm13.715-6.565c-.884.026-1.9.052-3.146.1-2.093.078-2.093.078-2.47.078-.195,0-.286,0-.52-.013l.039.949c.871-.143,3.5-.273,6.11-.325v.676c0,.156.013.286.013.338,0,.481,0,.533.013.715a2,2,0,0,0-1.508-.585,2.163,2.163,0,0,0-2.3,2.145,2.173,2.173,0,0,0,3.77,1.352,1.82,1.82,0,0,0,.351-.637,3.367,3.367,0,0,1-1.456,2.743,6.663,6.663,0,0,1-2.106.975,2.854,2.854,0,0,1,.572.819,8.269,8.269,0,0,0,2.054-1.053,4.184,4.184,0,0,0,1.742-3.393,3.725,3.725,0,0,0-.312-1.534V20.122c1.053-.026,1.2-.026,1.391-.026a23.106,23.106,0,0,1,2.483.065v-.923c-.429.052-1.43.078-3.887.091v-.143a10.762,10.762,0,0,1,.065-1.625H175.2a4.381,4.381,0,0,1,.052.754Zm-.039,3.8a1.457,1.457,0,0,1-1.521,1.534,1.256,1.256,0,0,1-1.339-1.287,1.376,1.376,0,0,1,1.443-1.365,1.663,1.663,0,0,1,.871.208A.941.941,0,0,1,175.24,23.138Zm7.215,1.807a1.95,1.95,0,1,0,1.95,1.95A1.947,1.947,0,0,0,182.455,24.945Zm0,.741a1.209,1.209,0,1,1-1.209,1.209A1.215,1.215,0,0,1,182.455,25.686ZM200.5,18.965a17.99,17.99,0,0,1-.52,4.693,8.142,8.142,0,0,1-2.808,4.472,3.065,3.065,0,0,1,.65.65,9.7,9.7,0,0,0,3.016-5.109,19.9,19.9,0,0,0,.52-4.706h2.418a60.95,60.95,0,0,1-.416,7.982c-.13.741-.247.858-.871.858a13.782,13.782,0,0,1-1.82-.182,2.674,2.674,0,0,1,.208.9,14.543,14.543,0,0,0,1.729.091c.962,0,1.313-.273,1.508-1.17a50.238,50.238,0,0,0,.52-7.891,12.246,12.246,0,0,1,.065-1.391,9.293,9.293,0,0,1-1.274.065H199.8a10.414,10.414,0,0,1-1.469-.078v.9a10.414,10.414,0,0,1,1.469-.078Zm-2.08,2.6a8.872,8.872,0,0,1-1.4,1.937,5.47,5.47,0,0,1-.754-.689,11.312,11.312,0,0,0,1.651-2.509c.117-.221.208-.416.26-.494l-.4-.481a6.529,6.529,0,0,1-.975.052h-.533V18.25a4.747,4.747,0,0,1,.078-1.066h-.962a6.5,6.5,0,0,1,.078,1.066v1.131h-.585a5.461,5.461,0,0,1-1.235-.065v.845a9.464,9.464,0,0,1,1.235-.065h2.288a9.066,9.066,0,0,1-1.924,2.808,11.156,11.156,0,0,1-2.119,1.7,2.544,2.544,0,0,1,.468.7,12.032,12.032,0,0,0,1.872-1.6c-.013.442-.013.715-.013.78v2.925a11.812,11.812,0,0,1-.078,1.521h.936a9.932,9.932,0,0,1-.078-1.508V24.269c0-.182,0-.338-.013-.6a13.955,13.955,0,0,0,1.937,1.534,2.788,2.788,0,0,1,.468-.637c-.494-.286-.689-.4-1.066-.663a20.774,20.774,0,0,0,1.5-1.859Zm10.257-3.172a3.033,3.033,0,0,1,.169.689c.117.65.273,1.417.364,1.833a5,5,0,0,0-1.3,1.326,4.668,4.668,0,0,0-.754,2.483c0,1.534.741,2.548,1.872,2.548a3.174,3.174,0,0,0,2.314-1.482,14.708,14.708,0,0,0,2.522-5.1c1.794.377,2.743,1.417,2.743,3a3.2,3.2,0,0,1-.572,1.846,4.23,4.23,0,0,1-1.95,1.417,5.891,5.891,0,0,1-1.937.481,2.148,2.148,0,0,1,.507.871c.559-.13.624-.143.819-.195A6.9,6.9,0,0,0,216.1,26.83a4.087,4.087,0,0,0,1.417-3.12,3.789,3.789,0,0,0-3.445-3.783c.065-.247.091-.39.156-.611a10.267,10.267,0,0,1,.351-1.365l-.975-.208a14.6,14.6,0,0,1-.4,2.093c-.182-.013-.338-.013-.429-.013a6.194,6.194,0,0,0-2.782.65,16.85,16.85,0,0,1-.351-2.262Zm.754,3.393a17.97,17.97,0,0,0,1.222,3.5c-.585.715-1.144,1.1-1.6,1.1-.637,0-1.053-.676-1.053-1.7a3.876,3.876,0,0,1,.52-1.82A3.835,3.835,0,0,1,209.43,21.786Zm1.807,2.782a2.094,2.094,0,0,0-.1-.3,18.431,18.431,0,0,1-.975-3.016,4.858,4.858,0,0,1,2.509-.663c.065,0,.182.013.325.013a14.844,14.844,0,0,1-1.586,3.679,2.126,2.126,0,0,0-.156.286ZM1.339,37.447a38.185,38.185,0,0,1,4.485-.429,25.192,25.192,0,0,0,2.86-.286,8.509,8.509,0,0,0-1.235.689,4.928,4.928,0,0,0-2.431,3.991,3.164,3.164,0,0,0,1.443,2.652,6.557,6.557,0,0,0,2.808,1c.208.039.26.052.4.078l.169-1.053h-.13a6.663,6.663,0,0,1-1.95-.416,2.549,2.549,0,0,1-1.82-2.4,3.973,3.973,0,0,1,1.6-3,6.6,6.6,0,0,1,2.5-1.313,6.029,6.029,0,0,1,1.456-.169l-.078-.975a8.726,8.726,0,0,1-1.547.143c-1.677.078-5.837.312-7.384.429-.4.026-.559.039-.741.039H1.274Zm18.473-1.066a3.741,3.741,0,0,1,1.508.325,3.427,3.427,0,0,1,2.067,3.263,3.924,3.924,0,0,1-2.3,3.64,7.793,7.793,0,0,1-2.171.611,2.066,2.066,0,0,1,.455.871,10.057,10.057,0,0,0,1.976-.6,4.734,4.734,0,0,0,2.977-4.485,4.352,4.352,0,0,0-1.261-3.172,5.033,5.033,0,0,0-3.575-1.287,5.279,5.279,0,0,0-5.564,5.317c0,1.82.923,3.172,2.158,3.172.936,0,1.7-.78,2.457-2.5A19.487,19.487,0,0,0,19.812,36.381Zm-.936.013a17.856,17.856,0,0,1-1.183,4.81c-.559,1.274-1.079,1.885-1.625,1.885-.7,0-1.248-.962-1.248-2.21a4.5,4.5,0,0,1,2.119-3.874A4.106,4.106,0,0,1,18.876,36.394Zm12.688-.026h-3.7a8.749,8.749,0,0,1-1.443-.091v.975a10.081,10.081,0,0,1,1.456-.078H30.6c-.1,2.73-.611,4.5-1.677,5.876a6.737,6.737,0,0,1-2.639,2.106,2.516,2.516,0,0,1,.637.728,7.778,7.778,0,0,0,1.417-.949,8.293,8.293,0,0,0,1.612-1.794,8.734,8.734,0,0,0,1.235-3.328h4.082a24.929,24.929,0,0,1-.4,3.939c-.195.962-.325,1.118-.884,1.118a10.522,10.522,0,0,1-1.963-.208,2.832,2.832,0,0,1,.208.923c.7.078,1.391.117,1.807.117,1.04,0,1.352-.273,1.625-1.391a27.2,27.2,0,0,0,.494-4.433c.026-.507.039-.65.065-.91a8.272,8.272,0,0,1-1.339.065H31.33a18.02,18.02,0,0,0,.182-1.859h4.927a8.119,8.119,0,0,1,1.469.078v-.975a9.133,9.133,0,0,1-1.495.091H32.435v-.975a6.332,6.332,0,0,1,.078-1.144h-1.04a7.156,7.156,0,0,1,.091,1.144Zm8.281,1.053a43.278,43.278,0,0,1,4.485-.429,26.606,26.606,0,0,0,2.86-.286,8.51,8.51,0,0,0-1.235.689,4.946,4.946,0,0,0-2.431,3.991,3.148,3.148,0,0,0,1.443,2.652,6.557,6.557,0,0,0,2.808,1c.234.039.26.052.4.078l.169-1.053h-.13a6.663,6.663,0,0,1-1.95-.416,2.549,2.549,0,0,1-1.82-2.4,3.973,3.973,0,0,1,1.6-3,6.394,6.394,0,0,1,2.5-1.3A5.453,5.453,0,0,1,50,36.758L49.92,35.8a8.78,8.78,0,0,1-1.547.143l-.741.026c-.429.013-.6.026-2.2.117l-2.041.13c-1.6.091-1.677.1-2.4.156-.4.026-.559.039-.741.039-.091,0-.221,0-.468-.013Zm7.982,1.248a9.142,9.142,0,0,1,1.326,2.067l.663-.39a9.869,9.869,0,0,0-1.339-2.015Zm1.482-.7a10.288,10.288,0,0,1,1.326,2.041l.65-.364a10.535,10.535,0,0,0-1.339-2.028Zm3.926,2.678a1.355,1.355,0,0,1,.4.078,13.7,13.7,0,0,0,1.963.325c-.013.117-.013.117-.026.312a6.874,6.874,0,0,0-.052.858,3.525,3.525,0,0,0,.4,1.794,3.234,3.234,0,0,0,2.912,1.3c2.275,0,3.809-1.235,3.809-3.068a3.47,3.47,0,0,0-1.222-2.587,2.573,2.573,0,0,1-.949.26,2.964,2.964,0,0,1,1.235,2.262c0,1.378-1.131,2.275-2.873,2.275a2.733,2.733,0,0,1-1.833-.559,1.919,1.919,0,0,1-.6-1.56c0-.221.026-.65.052-.962a2.36,2.36,0,0,0,.013-.26c.585.026.793.026,1.118.026a15,15,0,0,0,1.833-.1c.182-.013.221-.013.351-.026l.026-.871a11.367,11.367,0,0,1-2.392.208c-.182,0-.364,0-.858-.013.078-.728.091-.858.3-2.353.715.026.936.026,1.144.026.377,0,.767-.013,1.17-.052.65-.052.65-.052.91-.078l.039-.9a10.549,10.549,0,0,1-2.379.221c-.208,0-.39,0-.754-.013.065-.364.091-.494.13-.78.117-.715.117-.715.13-.832a6.687,6.687,0,0,1,.208-.871l-1.04-.117v.1a20.458,20.458,0,0,1-.312,2.444,8.39,8.39,0,0,1-2.34-.507l-.117.858c.182.039.234.052.4.091a17.275,17.275,0,0,0,1.937.351c-.1.689-.234,1.7-.3,2.34a8.645,8.645,0,0,1-2.327-.52Zm14.833-4.862a10.479,10.479,0,0,1,.7,1.261l.689-.273c-.351-.572-.377-.611-.637-.988h.9a10.312,10.312,0,0,1,1.209.052v-.793a7.878,7.878,0,0,1-1.3.078h-1.95c.169-.286.221-.377.455-.806l-.806-.26a5.049,5.049,0,0,1-.936,1.638,6.371,6.371,0,0,1-1.183,1.183,1.846,1.846,0,0,1,.585.559,9.543,9.543,0,0,0,1.456-1.651Zm5.239.013a8.783,8.783,0,0,1,.832,1.287L74.8,36.8a9.2,9.2,0,0,0-.689-1h1.261a10.668,10.668,0,0,1,1.365.065v-.806a8.183,8.183,0,0,1-1.391.078H72.436c.195-.4.247-.52.4-.871l-.793-.195a6.119,6.119,0,0,1-1.43,2.522,2.1,2.1,0,0,1,.637.39,7.931,7.931,0,0,0,.819-1.183Zm2.119,4.654v4.316c0,.3-.1.377-.507.377a9,9,0,0,1-1.274-.117,2.406,2.406,0,0,1,.247.819c.3.013.624.026,1.014.026,1.04,0,1.313-.208,1.313-1.027V38.578a11.732,11.732,0,0,1,.065-1.443,12.444,12.444,0,0,1-1.378.052H72.865c-.559,0-.858-.013-1.17-.039.026.286.039.611.039,1.014v1.326c0,.39-.013.715-.039,1,.416-.026.793-.039,1.365-.039Zm-2.951-2.665h2.951v.754H72.475Zm0,1.313h2.951v.767H72.475Zm-5.083-1.911c-.585,0-.923-.013-1.287-.039a14.174,14.174,0,0,1,.052,1.43v5.954a9.717,9.717,0,0,1-.078,1.456h.962a7.462,7.462,0,0,1-.078-1.43V40.45h2.158c.6,0,.91.013,1.378.039a9.937,9.937,0,0,1-.039-1V38.162c0-.442.013-.754.039-1.014-.325.026-.637.039-1.17.039Zm-.429.6h2.756v.754H66.963Zm0,1.313h2.756v.767H66.963Zm6.474,3.159a10.414,10.414,0,0,1,.052-1.222,11.807,11.807,0,0,1-1.339.052H70a10.972,10.972,0,0,1-1.274-.052c.026.351.052.715.052,1.222v1.872a10.454,10.454,0,0,1-.052,1.17h.78v-.585H72.15a12.256,12.256,0,0,1,1.339.052,10.172,10.172,0,0,1-.052-1.209ZM69.511,41.7H72.7v.884H69.511Zm0,1.5H72.7v.9H69.511ZM83.6,41.568V42.8H79.69a8.746,8.746,0,0,1-1.313-.078v.91a9.845,9.845,0,0,1,1.352-.078H83.6v1.2a5.779,5.779,0,0,1-.078,1.222H84.5a5.24,5.24,0,0,1-.091-1.222v-1.2h4.056a9.659,9.659,0,0,1,1.365.078v-.91a8.627,8.627,0,0,1-1.313.078H84.409V41.568h2.86c.468,0,.845.013,1.287.052a10.145,10.145,0,0,1-.052-1.274V38.019a11.045,11.045,0,0,1,.052-1.3,9.73,9.73,0,0,1-1.287.052h-.39a14.494,14.494,0,0,0,1.4-2.093l-.9-.338a10.564,10.564,0,0,1-1.417,2.431H80.925a9.753,9.753,0,0,1-1.274-.052,11.331,11.331,0,0,1,.052,1.3v2.366a11.248,11.248,0,0,1-.052,1.235,12.775,12.775,0,0,1,1.287-.052Zm.806-2.808v-1.3H87.7v1.3Zm-.806,0H80.509v-1.3H83.6Zm.806,2.106v-1.43H87.7v1.43Zm-.806,0H80.509v-1.43H83.6Zm-1.768-4.524a11.13,11.13,0,0,0-1.352-1.859l-.741.351a6.929,6.929,0,0,1,1.313,1.885Zm3-.221a10.3,10.3,0,0,0-1.144-1.963l-.767.26a7.539,7.539,0,0,1,1.118,2.041Zm8.294-1.261a7.238,7.238,0,0,1-.182,1.04,21.507,21.507,0,0,0-.585,5.148,18.632,18.632,0,0,0,.338,3.679c.039.247.052.312.078.52l.936-.078v-.195A11.332,11.332,0,0,1,94.77,41.4l-.624-.3a12.078,12.078,0,0,0-.845,2.535c-.052-.689-.078-1.456-.078-2.47a19.218,19.218,0,0,1,.39-4.069,18.471,18.471,0,0,1,.546-2.08Zm2.678,2.457a17.316,17.316,0,0,0,2.08.13,21.946,21.946,0,0,0,2.795-.169q.858-.117.9-.117l-.065-.923a13.949,13.949,0,0,1-3.484.351,8.83,8.83,0,0,1-2.21-.195Zm.949,2.535a3.591,3.591,0,0,0-1.131,2.418,1.838,1.838,0,0,0,.39,1.2A3.613,3.613,0,0,0,99,44.454a13.412,13.412,0,0,0,2.665-.26c.26-.039.286-.052.455-.065l-.13-1a8.556,8.556,0,0,1-2.99.455c-1.677,0-2.5-.468-2.5-1.43a3.02,3.02,0,0,1,.975-1.911Zm10.491.052a3.416,3.416,0,0,0-1.5,2.509,2.071,2.071,0,0,0,1.482,1.963,9.171,9.171,0,0,0,2.99.4,21.206,21.206,0,0,0,3.51-.3,4.04,4.04,0,0,1,.442-.065l-.117-1.066a12.332,12.332,0,0,1-3.9.494,8.278,8.278,0,0,1-2.379-.26c-.728-.247-1.105-.676-1.105-1.274s.39-1.209,1.235-1.911Zm-.78-3.328c.182.013.182.013.429.039a25.429,25.429,0,0,0,2.86.169,10.275,10.275,0,0,0,1.963-.169,20.218,20.218,0,0,0-2.3,1.378l.663.533a19.828,19.828,0,0,1,3.276-1.976l-.065-.858a14.217,14.217,0,0,1-3.289.273,14.863,14.863,0,0,1-3.458-.312Zm5.915,1.664a10.137,10.137,0,0,1,1.326,2.067l.65-.39a10.363,10.363,0,0,0-1.326-2.015Zm1.443-.754a10.9,10.9,0,0,1,1.326,2.041l.65-.364a10.023,10.023,0,0,0-1.352-2.028Zm6.266.325h-1.352a5.772,5.772,0,0,1-1.235-.078v.884a7.906,7.906,0,0,1,1.222-.078h1.235a12.194,12.194,0,0,1-1,2.171,9,9,0,0,1-1.768,2.184,2.865,2.865,0,0,1,.533.741,10.7,10.7,0,0,0,2.418-3.939c-.052,1.118-.065,1.482-.065,2.21v2.535a10.518,10.518,0,0,1-.091,1.586h.962a9.49,9.49,0,0,1-.078-1.586v-2.7c0-.585-.026-1.469-.065-2.2a8.569,8.569,0,0,0,1.846,2.574,2.81,2.81,0,0,1,.481-.7,8.992,8.992,0,0,1-1.612-1.729,4.346,4.346,0,0,1-.624-1.144h1.222a7.024,7.024,0,0,1,1.157.065v-.858a7.266,7.266,0,0,1-1.131.065h-1.274V35.783c.65-.182,1.105-.338,1.7-.559.312-.1.312-.1.52-.182l-.585-.689a3.12,3.12,0,0,1-.845.377,17.5,17.5,0,0,1-4.121.988,2.659,2.659,0,0,1,.377.741c.962-.169,1.365-.26,2.171-.455Zm4.1-2.678a10.371,10.371,0,0,1,.078,1.482v5.018a9.663,9.663,0,0,1-.065,1.508h.962a9.556,9.556,0,0,1-.065-1.508V36.615a10.684,10.684,0,0,1,.065-1.482Zm3.185-.728a13.023,13.023,0,0,1,.078,1.638v8.515c0,.325-.1.39-.624.39a15.566,15.566,0,0,1-1.677-.117,3.467,3.467,0,0,1,.273.858c.416.026.962.039,1.326.039,1.235,0,1.547-.221,1.547-1.144V36.043a10.825,10.825,0,0,1,.091-1.638Zm9.217,7.241H140.4v2.938c0,.325-.117.39-.689.39a16.624,16.624,0,0,1-1.859-.143,3.038,3.038,0,0,1,.195.845c.546.039,1.2.065,1.612.065,1.261,0,1.56-.195,1.56-1.014V36a10.972,10.972,0,0,1,.052-1.274,12.6,12.6,0,0,1-1.378.052H132.9a13.846,13.846,0,0,1-1.43-.052,19.756,19.756,0,0,1,.052,2.119,30.429,30.429,0,0,1-.4,6.305,5.225,5.225,0,0,1-1.053,2.2,3.154,3.154,0,0,1,.754.559,7.839,7.839,0,0,0,1.4-4.264h3.562V44.1a9.538,9.538,0,0,1-.065,1.417h.936a9.324,9.324,0,0,1-.065-1.417Zm0-3.809V35.562H140.4v2.275Zm-.806,0h-3.432l.013-.728V35.562h3.419Zm.806.741H140.4v2.314h-3.809Zm-.806,0v2.314h-3.51c.039-.6.039-.65.052-1.456,0-.182,0-.494.013-.858Zm8.593-2.795a7.033,7.033,0,0,1,.039.767c.065,3.2.247,4.862.7,6.1s1.118,1.976,1.846,1.976c.923,0,1.521-.871,2.158-3.146a4.156,4.156,0,0,1-.767-.741,9.353,9.353,0,0,1-.676,2.223c-.195.429-.416.65-.65.65-.494,0-1.027-.9-1.313-2.223a22.263,22.263,0,0,1-.338-4.043,9.423,9.423,0,0,1,.091-1.547Zm6.578,1.1a11.481,11.481,0,0,1,2.7,6.409l.923-.377a12.448,12.448,0,0,0-.975-3.471,11.284,11.284,0,0,0-1.859-2.964Zm6.1.858a1.936,1.936,0,0,1,.221-.013h.052c.507.026.624.026,1.079.026.481,0,.637,0,.9-.013a26.145,26.145,0,0,1-2.444,7.189l.949.4a34.257,34.257,0,0,0,1.495-3.965c.351-1.183.715-2.652.91-3.679a19,19,0,0,0,2.2-.312c.26-.052.26-.052.364-.065l-.065-.9a10.719,10.719,0,0,1-2.34.442c.065-.39.1-.572.169-.988a12.289,12.289,0,0,1,.234-1.235l-1.027-.1a12.712,12.712,0,0,1-.286,2.392c-.377.026-.52.026-.78.026a8.965,8.965,0,0,1-1.625-.117Zm9.815.637c-.975-.039-1.17-.039-1.417-.039a14.728,14.728,0,0,0-3.445.429l.091.884a11.315,11.315,0,0,1,3.25-.442,13.052,13.052,0,0,1,1.534.091Zm-4.732,2.808c-.689.884-.871,1.287-.871,1.872,0,1.287,1.1,1.95,3.237,1.95a13.026,13.026,0,0,0,2.314-.221c.429-.065.429-.065.572-.091l-.091-.975a9.659,9.659,0,0,1-2.873.442c-1.482,0-2.275-.416-2.275-1.2a1.565,1.565,0,0,1,.325-.923,4.357,4.357,0,0,1,.39-.494Zm7.8-3.445a1.936,1.936,0,0,1,.221-.013h.052c.507.026.624.026,1.079.026.481,0,.637,0,.9-.013a26.458,26.458,0,0,1-2.444,7.189l.949.4a34.76,34.76,0,0,0,2.4-7.644,17.346,17.346,0,0,0,2.2-.312l.234-.052.13-.013-.065-.9a10.57,10.57,0,0,1-2.34.442c.065-.351.091-.533.169-.988s.117-.7.13-.78c.039-.182.052-.247.1-.455l-1.027-.1v.091a16.033,16.033,0,0,1-.286,2.3c-.377.026-.52.026-.78.026a8.965,8.965,0,0,1-1.625-.117Zm9.815.637c-.975-.039-1.17-.039-1.417-.039a14.728,14.728,0,0,0-3.445.429l.091.884a11.315,11.315,0,0,1,3.25-.442,13.052,13.052,0,0,1,1.534.091Zm-4.732,2.808c-.689.884-.871,1.287-.871,1.872,0,1.287,1.105,1.95,3.237,1.95a14.233,14.233,0,0,0,2.314-.208l.4-.078.169-.026-.091-.975a9.659,9.659,0,0,1-2.873.442c-1.482,0-2.275-.416-2.275-1.2a1.565,1.565,0,0,1,.325-.923,4.357,4.357,0,0,1,.39-.494Zm2.145-6.1a9.517,9.517,0,0,1,1.339,2.054l.65-.39a9.869,9.869,0,0,0-1.339-2.015Zm1.482-.7a9.738,9.738,0,0,1,1.326,2.041l.65-.377a10.442,10.442,0,0,0-1.339-2.015Zm7.826,4.121a1.286,1.286,0,0,1,.2-.013,1.869,1.869,0,0,1,.234.013c.468.026,1.209.052,1.573.052.572,0,1.326-.026,1.9-.078.026.377.026.663.026,1.027,0,2.08-.208,3.029-.871,3.874a5.33,5.33,0,0,1-1.989,1.495,3,3,0,0,1,.7.7,6.284,6.284,0,0,0,2.041-1.677c.767-1.04,1-2.106,1-4.576,0-.377,0-.585-.013-.936a12.4,12.4,0,0,0,1.417-.26,6.571,6.571,0,0,1,.689-.156l-.065-.936a6.861,6.861,0,0,1-2.067.546c-.065-1.807-.065-1.807-.078-2.106-.013-.234-.013-.3-.013-.39a3.057,3.057,0,0,1,.039-.442l-1,.013a25.068,25.068,0,0,1,.156,3.029c-.65.052-1.131.078-1.651.078a10.521,10.521,0,0,1-2.21-.169Zm-2.34-3.692a6.606,6.606,0,0,1-.117.9,26.716,26.716,0,0,0-.52,5,14.792,14.792,0,0,0,.481,3.848,3.457,3.457,0,0,1,.1.455l.9-.078a5.074,5.074,0,0,1,.364-1.651,24.656,24.656,0,0,1,.962-2.275l-.663-.312a14.208,14.208,0,0,0-1.092,2.756,4.526,4.526,0,0,0-.078-.7c-.052-.442-.1-1.4-.1-2.119a22.48,22.48,0,0,1,.793-5.668Zm21.853,9.139a4.444,4.444,0,0,1-.442-.3,11.379,11.379,0,0,0-3.627-1.9c-.052-1.261-.052-1.261-.078-1.989.962-.065,1.989-.169,2.886-.312.455-.065.585-.078.754-.091l-.052-.9a15.691,15.691,0,0,1-3.6.533c-.013-.689-.013-.689-.026-1.755a27.005,27.005,0,0,0,3.016-.312c.676-.091.676-.091.9-.1l-.065-.884a18.325,18.325,0,0,1-3.848.533,14.508,14.508,0,0,1,.091-1.833h-1a10.183,10.183,0,0,1,.065,1.872c-.429,0-.871.013-1.131.013a16.15,16.15,0,0,1-3.328-.26l-.013.884a1.062,1.062,0,0,1,.182-.013,1.577,1.577,0,0,1,.234.013c1.17.091,2.223.13,3.172.13.3,0,.507,0,.884-.013l.026,1.781c-.364.013-.819.013-1.157.013a15.955,15.955,0,0,1-2.977-.208l-.013.858h.1c.078,0,.182,0,.325.013.806.065,1.417.091,2.2.091.416,0,1.066-.013,1.534-.026.013.338.013.585.026.754.013.377.013.65.026.767a1.036,1.036,0,0,0,.013.143c0,.117,0,.117.013.156a5.782,5.782,0,0,0-1.17-.1,5.663,5.663,0,0,0-1.352.13c-1.144.26-1.82.936-1.82,1.794a1.7,1.7,0,0,0,.7,1.365,3.386,3.386,0,0,0,2.015.52,2.617,2.617,0,0,0,2.2-.819,2.258,2.258,0,0,0,.325-1.417,3.737,3.737,0,0,0-.026-.468c.351.143.65.273.871.39a10.461,10.461,0,0,1,2.652,1.859Zm-4.9-1.053a1.7,1.7,0,0,1-.26,1.17,1.878,1.878,0,0,1-1.43.429c-1.131,0-1.781-.39-1.781-1.079s.845-1.157,2.132-1.157a4.772,4.772,0,0,1,1.326.143ZM7.189,53.342c-.884.026-1.9.052-3.146.1-2.093.078-2.093.078-2.47.078-.195,0-.286,0-.52-.013l.039.949c.871-.143,3.5-.273,6.11-.325v.676c0,.156.013.286.013.338,0,.481,0,.533.013.715a2,2,0,0,0-1.508-.585,2.163,2.163,0,0,0-2.3,2.145,2.015,2.015,0,0,0,2.132,2.054,2.032,2.032,0,0,0,1.638-.7,1.821,1.821,0,0,0,.351-.637,3.367,3.367,0,0,1-1.456,2.743,6.663,6.663,0,0,1-2.106.975,2.854,2.854,0,0,1,.572.819A8.269,8.269,0,0,0,6.6,61.623,4.184,4.184,0,0,0,8.346,58.23,3.725,3.725,0,0,0,8.034,56.7V54.122c1.053-.026,1.2-.026,1.391-.026a23.106,23.106,0,0,1,2.483.065v-.923c-.429.052-1.43.078-3.887.091v-.143a10.762,10.762,0,0,1,.065-1.625H7.111a4.381,4.381,0,0,1,.052.754Zm-.039,3.8a1.457,1.457,0,0,1-1.521,1.534A1.256,1.256,0,0,1,4.29,57.385,1.376,1.376,0,0,1,5.733,56.02a1.663,1.663,0,0,1,.871.208A.941.941,0,0,1,7.15,57.138Zm7.215,1.807a1.95,1.95,0,1,0,1.95,1.95A1.947,1.947,0,0,0,14.365,58.945Zm0,.741A1.209,1.209,0,1,1,13.156,60.9,1.215,1.215,0,0,1,14.365,59.686Z" transform="translate(420 1010.145)" fill="#1b1311"/>
    <g id="グループ_62004" data-name="グループ 62004" transform="translate(-1008.852 308.002)">
      <path id="パス_51327" data-name="パス 51327" d="M21.1,10.7a21.89,21.89,0,0,1,37.632,0L76.651,40.653c8.817,14.738-1.726,33.52-18.816,33.52H22c-17.09,0-27.633-18.783-18.816-33.52Z" transform="matrix(0.961, 0.276, -0.276, 0.961, 1511.707, 589)" fill="#ffc2b9"/>
      <path id="パス_51326" data-name="パス 51326" d="M21.318,10.742a22.191,22.191,0,0,1,38.02,0L77.44,40.8A22.191,22.191,0,0,1,58.43,74.44h-36.2A22.191,22.191,0,0,1,3.216,40.8Z" transform="translate(1565.981 691.497) rotate(-164)" fill="#ff8977" opacity="0.6"/>
      <g id="グループ_2820" data-name="グループ 2820" transform="translate(1521.222 623.099)" clip-path="url(#clip-path)">
        <path id="パス_5730" data-name="パス 5730" d="M22.413,22.265a3.913,3.913,0,1,1,3.913-3.913,3.917,3.917,0,0,1-3.913,3.913m0-5.691a1.778,1.778,0,1,0,1.778,1.778,1.781,1.781,0,0,0-1.778-1.778" transform="translate(-5.149 -3.977)"/>
        <path id="パス_5731" data-name="パス 5731" d="M26.526,29.614a1.067,1.067,0,0,1-1.067-1.067,3.913,3.913,0,0,0-7.825,0,1.067,1.067,0,1,1-2.134,0,6.047,6.047,0,1,1,12.093,0,1.067,1.067,0,0,1-1.067,1.067" transform="translate(-4.283 -6.304)"/>
        <path id="パス_5732" data-name="パス 5732" d="M18.372,32.4a1.064,1.064,0,0,1-.755-.312l-2.532-2.533H6.99a2.493,2.493,0,0,1-2.49-2.49V9.99A2.493,2.493,0,0,1,6.99,7.5H29.754a2.493,2.493,0,0,1,2.49,2.49V27.063a2.493,2.493,0,0,1-2.49,2.49H21.659l-2.532,2.533a1.064,1.064,0,0,1-.755.312M6.99,9.634a.356.356,0,0,0-.356.356V27.063a.356.356,0,0,0,.356.356h8.536a1.069,1.069,0,0,1,.755.312l2.091,2.091,2.091-2.091a1.07,1.07,0,0,1,.755-.312h8.536a.357.357,0,0,0,.356-.356V9.99a.356.356,0,0,0-.356-.356Z" transform="translate(-1.108 -1.974)"/>
      </g>
    </g>
  </g>
</svg>
