<svg xmlns="http://www.w3.org/2000/svg" xmlns:xlink="http://www.w3.org/1999/xlink" width="273.193" height="276.591" viewBox="0 0 273.193 276.591">
  <defs>
    <filter id="パス_106487" x="0" y="0" width="273.193" height="276.591" filterUnits="userSpaceOnUse">
      <feOffset dy="3" input="SourceAlpha"/>
      <feGaussianBlur stdDeviation="3" result="blur"/>
      <feFlood flood-opacity="0.161"/>
      <feComposite operator="in" in2="blur"/>
      <feComposite in="SourceGraphic"/>
    </filter>
    <clipPath id="clip-path">
      <rect id="長方形_1397" data-name="長方形 1397" width="32.475" height="32.475" transform="translate(0 0)"/>
    </clipPath>
    <clipPath id="clip">
      <use xlink:href="#fill"/>
    </clipPath>
  </defs>
  <g id="グループ_62110" data-name="グループ 62110" transform="translate(-1241 -826.152)">
    <g transform="matrix(1, 0, 0, 1, 1241, 826.15)" filter="url(#パス_106487)">
      <path id="パス_106487-2" data-name="パス 106487" d="M4.252,0H250.941a4.252,4.252,0,0,1,4.252,4.252V254.339a4.252,4.252,0,0,1-4.252,4.252H4.252A4.252,4.252,0,0,1,0,254.339V4.252A4.252,4.252,0,0,1,4.252,0Z" transform="translate(9 6)" fill="#fff"/>
    </g>
    <path id="パス_106497" data-name="パス 106497" d="M-64.06-12.06a11.017,11.017,0,0,1-2.16-.14l.02,1.52a12.056,12.056,0,0,1,2.12-.1l3.64-.02a13.013,13.013,0,0,1-1.24,4.76,11.7,11.7,0,0,1-5.2,5.26A4.144,4.144,0,0,1-65.86.4a14.444,14.444,0,0,0,5.24-5.3,15.082,15.082,0,0,0,1.6-5.9l5.6-.02a44.037,44.037,0,0,1-.5,7.1c-.38,1.98-.7,2.46-1.68,2.46a8.445,8.445,0,0,1-2.58-.52,3.288,3.288,0,0,1,.22,1.26v.24a11.383,11.383,0,0,0,2.48.34c1.8,0,2.4-.72,2.9-3.46a54.558,54.558,0,0,0,.56-7,3,3,0,0,1,.16-1.2l-.74-.64a3.2,3.2,0,0,1-1.32.14l-5,.02c.06-.56.06-.8.1-1.42a16.7,16.7,0,0,1,.16-2.58l-1.62-.04a5.361,5.361,0,0,1,.08,1.04c0,.88-.04,1.98-.12,3Zm19.86-3.38a11.762,11.762,0,0,1,.08,1.68v5.34a12.125,12.125,0,0,1-.08,1.68h1.66a10.592,10.592,0,0,1-.08-1.66v-5.38a10.926,10.926,0,0,1,.08-1.66Zm8.84,0a11.121,11.121,0,0,1,.08,1.76v2.26a24.868,24.868,0,0,1-.28,5.1,5.966,5.966,0,0,1-3.2,4.22,11.645,11.645,0,0,1-3.8,1.36A3.825,3.825,0,0,1-41.72.64,15.746,15.746,0,0,0-38.08-.8a7.6,7.6,0,0,0,3.8-4.44,22.54,22.54,0,0,0,.5-6.1V-13.7a8.927,8.927,0,0,1,.1-1.74Zm12,1.84a8.85,8.85,0,0,1,.1-1.68H-24.9a11.1,11.1,0,0,1,.08,1.66V-4.4c0,.84.02,1.24.04,1.56a2.656,2.656,0,0,0,.82,1.92c.7.58,2.02.82,4.38.82,1.38,0,4.02-.14,5.3-.28l.96-.1.26-.02c.3-.04.36-.04.66-.06l-.12-1.6a9.635,9.635,0,0,1-1.98.4,39.565,39.565,0,0,1-4.58.32,20.857,20.857,0,0,1-2.36-.12,2.4,2.4,0,0,1-1.52-.52c-.34-.34-.42-.8-.42-2.2V-4.5l.02-.12V-7.54a31.047,31.047,0,0,0,9.54-3.38c.46-.24.56-.28.86-.42l-1.02-1.36c-1.34,1.32-6.22,3.3-9.38,3.84Zm9.02-2.18a14.812,14.812,0,0,1,2.06,3.18l1-.6a15.183,15.183,0,0,0-2.06-3.1Zm2.28-1.08a14.982,14.982,0,0,1,2.04,3.14L-9-14.28a17.3,17.3,0,0,0-2.08-3.12ZM-1.26.62a13.6,13.6,0,0,1-.1-2.12V-7.52A6.985,6.985,0,0,0-1.44-8.7l.04-.02a2.207,2.207,0,0,0,.62.34A40.778,40.778,0,0,1,6.68-4.42L7.54-5.9a49.6,49.6,0,0,0-8.9-4.22v-3.74a12.554,12.554,0,0,1,.1-2.08H-2.98a11.858,11.858,0,0,1,.12,2.04V-1.48A12.864,12.864,0,0,1-2.98.62ZM26.02-13.12l.74-.44a14.693,14.693,0,0,0-2.16-3.2l-1,.52a13.907,13.907,0,0,1,1.88,2.72c-.5.02-.76.02-1.18.02H14.64a14.179,14.179,0,0,1-2.26-.12v1.6a14.767,14.767,0,0,1,2.24-.12H24.8a16.208,16.208,0,0,1-3.5,7.12A16.06,16.06,0,0,1,13.98-.48,3.957,3.957,0,0,1,14.96.9a18.387,18.387,0,0,0,6.28-3.76,16.616,16.616,0,0,0,4.9-8.3,3.668,3.668,0,0,1,.42-1.24Zm.18-3.8a14.83,14.83,0,0,1,2.06,3.14l1.02-.6a17.421,17.421,0,0,0-2.1-3.08ZM44.26-1.64V-.22h1.52c-.04-.42-.06-.94-.06-1.54V-12.58a10.848,10.848,0,0,1,.06-1.56,10.407,10.407,0,0,1-1.56.06H33.56A14.405,14.405,0,0,1,32-14.14a10.258,10.258,0,0,1,.08,1.56V-1.72A10.391,10.391,0,0,1,32-.22h1.54V-1.64Zm0-1.3H33.54v-9.82H44.26ZM56.74-16.18a8.85,8.85,0,0,1-1.26,2.9,15.342,15.342,0,0,1-5.02,5.5,2.93,2.93,0,0,1,1.12,1.02,19.363,19.363,0,0,0,4.78-5.2l6.74-.1A17.2,17.2,0,0,1,52.6-.32a3.163,3.163,0,0,1,1,1.18A18.75,18.75,0,0,0,64.48-11.42a1.92,1.92,0,0,1,.34-.78l-1.2-1.26a2.2,2.2,0,0,1-1.04.14l-4.84.08a2.855,2.855,0,0,0-.72.06,15.564,15.564,0,0,0,.92-1.76,3.468,3.468,0,0,1,.44-.82Zm6.82.32a13.96,13.96,0,0,1,2.04,3.08l1-.6a13.849,13.849,0,0,0-2.04-3.02Zm2.26-1.1a14.057,14.057,0,0,1,2.04,3.06l1-.58a16.293,16.293,0,0,0-2.06-3.04Z" transform="translate(1378.133 894.648)" fill="#070304"/>
    <path id="パス_106505" data-name="パス 106505" d="M3.146,3.161a7.161,7.161,0,0,1-1.4-.091l.013.988a7.837,7.837,0,0,1,1.378-.065L5.5,3.98a8.459,8.459,0,0,1-.806,3.094,7.6,7.6,0,0,1-3.38,3.419,2.693,2.693,0,0,1,.663.767A9.388,9.388,0,0,0,5.382,7.815,9.8,9.8,0,0,0,6.422,3.98l3.64-.013a28.624,28.624,0,0,1-.325,4.615c-.247,1.287-.455,1.6-1.092,1.6a5.489,5.489,0,0,1-1.677-.338,2.137,2.137,0,0,1,.143.819v.156a7.4,7.4,0,0,0,1.612.221c1.17,0,1.56-.468,1.885-2.249a35.463,35.463,0,0,0,.364-4.55,1.947,1.947,0,0,1,.1-.78L10.6,3.044a2.077,2.077,0,0,1-.858.091l-3.25.013c.039-.364.039-.52.065-.923a10.854,10.854,0,0,1,.1-1.677L5.6.522a3.485,3.485,0,0,1,.052.676c0,.572-.026,1.287-.078,1.95ZM16.055.964a7.645,7.645,0,0,1,.052,1.092V5.527a7.882,7.882,0,0,1-.052,1.092h1.079a6.885,6.885,0,0,1-.052-1.079v-3.5A7.1,7.1,0,0,1,17.134.964Zm5.746,0a7.228,7.228,0,0,1,.052,1.144V3.577a16.164,16.164,0,0,1-.182,3.315,3.878,3.878,0,0,1-2.08,2.743,7.569,7.569,0,0,1-2.47.884,2.486,2.486,0,0,1,.546.9,10.235,10.235,0,0,0,2.366-.936A4.94,4.94,0,0,0,22.5,7.594a14.651,14.651,0,0,0,.325-3.965V2.1A5.8,5.8,0,0,1,22.893.964Zm7.8,1.2a5.752,5.752,0,0,1,.065-1.092H28.6a7.213,7.213,0,0,1,.052,1.079V8.14c0,.546.013.806.026,1.014a1.726,1.726,0,0,0,.533,1.248c.455.377,1.313.533,2.847.533.9,0,2.613-.091,3.445-.182l.624-.065.169-.013c.2-.026.234-.026.429-.039L36.647,9.6a6.263,6.263,0,0,1-1.287.26,25.717,25.717,0,0,1-2.977.208,13.557,13.557,0,0,1-1.534-.078,1.56,1.56,0,0,1-.988-.338c-.221-.221-.273-.52-.273-1.43V8.075L29.6,8V6.1a20.181,20.181,0,0,0,6.2-2.2c.3-.156.364-.182.559-.273L35.7,2.745c-.871.858-4.043,2.145-6.1,2.5ZM35.464.743A9.628,9.628,0,0,1,36.8,2.81l.65-.39A9.869,9.869,0,0,0,36.114.4Zm1.482-.7a9.738,9.738,0,0,1,1.326,2.041l.663-.364A11.242,11.242,0,0,0,37.583-.31ZM43.966,11.4a8.842,8.842,0,0,1-.065-1.378V6.112a4.54,4.54,0,0,0-.052-.767l.026-.013a1.434,1.434,0,0,0,.4.221,26.505,26.505,0,0,1,4.849,2.574l.559-.962A32.241,32.241,0,0,0,43.9,4.422V1.991A8.16,8.16,0,0,1,43.966.639H42.848a7.708,7.708,0,0,1,.078,1.326v8.073a8.361,8.361,0,0,1-.078,1.365ZM59.2,2.381a3.741,3.741,0,0,1,1.508.325,3.427,3.427,0,0,1,2.067,3.263,3.924,3.924,0,0,1-2.3,3.64,7.793,7.793,0,0,1-2.171.611,2.066,2.066,0,0,1,.455.871,10.057,10.057,0,0,0,1.976-.6,4.734,4.734,0,0,0,2.977-4.485,4.352,4.352,0,0,0-1.261-3.172,5.033,5.033,0,0,0-3.575-1.287,5.43,5.43,0,0,0-4.2,1.729,5.408,5.408,0,0,0-1.365,3.588c0,1.82.923,3.172,2.158,3.172.936,0,1.7-.78,2.457-2.5A19.487,19.487,0,0,0,59.2,2.381Zm-.936.013A17.856,17.856,0,0,1,57.083,7.2C56.524,8.478,56,9.089,55.458,9.089c-.7,0-1.248-.962-1.248-2.21a4.5,4.5,0,0,1,2.119-3.874A4.106,4.106,0,0,1,58.266,2.394ZM70.98,4.721H67.808V2.277a6.674,6.674,0,0,1,.052-.962h-.975a9.214,9.214,0,0,1,.065,1V4.89c0,.221-.013.416-.026.663.273-.013.572-.026.806-.026h3.25v4.758H67.275V7.88a6.534,6.534,0,0,1,.065-1.105h-.988a7.218,7.218,0,0,1,.065,1.157v2.86a6.833,6.833,0,0,1-.078,1.092h.936V11.1h8.45v.78h.936a6.5,6.5,0,0,1-.078-1.092V7.854A7.218,7.218,0,0,1,76.648,6.7H75.66a6.894,6.894,0,0,1,.065,1.118v2.47H71.851V5.527h3.5c.247,0,.546.013.806.026-.013-.221-.026-.4-.026-.663V2.3a6.412,6.412,0,0,1,.065-.988h-.975a7.075,7.075,0,0,1,.052.949V4.721H71.851V1.432A5.9,5.9,0,0,1,71.942.249H70.889a5.257,5.257,0,0,1,.091,1.183Zm9.984-.845a9.88,9.88,0,0,1-.052,1.131,12.6,12.6,0,0,1,1.378-.052h4.433a12.33,12.33,0,0,1,1.365.052,9.137,9.137,0,0,1-.052-1.144v-2.2A8.544,8.544,0,0,1,88.088.587a9.914,9.914,0,0,1-1.469.065H82.368A10.723,10.723,0,0,1,80.912.587a9.04,9.04,0,0,1,.052,1.092Zm.819-2.483H87.2V4.214H81.783Zm-2.691,9.256A8.766,8.766,0,0,1,79.027,12H79.9v-.819h3.016v.572h.845a10.013,10.013,0,0,1-.052-1.274v-3a11.357,11.357,0,0,1,.039-1.222c-.338.026-.637.039-1.053.039H80.236a10.648,10.648,0,0,1-1.2-.052A12.076,12.076,0,0,1,79.092,7.5ZM79.9,7.022h3.016v3.432H79.9Zm5.1,3.7A10.69,10.69,0,0,1,84.942,12h.845v-.819h3.328V12H90a8.358,8.358,0,0,1-.065-1.352V7.516a11.262,11.262,0,0,1,.052-1.274,8.687,8.687,0,0,1-1.118.052h-2.86c-.442,0-.728-.013-1.053-.039a8.118,8.118,0,0,1,.039,1.118Zm.793-3.7h3.341v3.432H85.787Zm11.7-2.093a24.645,24.645,0,0,1-5.993,2.912A2.784,2.784,0,0,1,92,8.582c1.092-.455,1.807-.767,2.548-1.157-.013.325-.013.663-.013.936v2.21a9.384,9.384,0,0,1-.078,1.339h.91V11.3h5.369v.611h.9a8.782,8.782,0,0,1-.065-1.339V7.659a10.006,10.006,0,0,1,.052-1.43c-.455.039-.793.052-1.417.052H97.968c-.364,0-.663,0-1.352.026.767-.468,1.352-.845,2.093-1.378h3.068a11.4,11.4,0,0,1,1.43.078v-.9a9.081,9.081,0,0,1-1.391.078H99.684a18.3,18.3,0,0,0,2.522-2.47c.169-.208.247-.3.4-.468l-.767-.507a12.535,12.535,0,0,1-3.276,3.445H97.4V2.563h1.248a9.141,9.141,0,0,1,1.391.065V1.77a9.319,9.319,0,0,1-1.43.078H97.4V1.393A6.147,6.147,0,0,1,97.474.158H96.5a7.973,7.973,0,0,1,.078,1.235v.455H94.5A8.784,8.784,0,0,1,93.08,1.77v.858a10,10,0,0,1,1.4-.065h2.093V4.188H93.3a8.945,8.945,0,0,1-1.443-.078v.9a11.111,11.111,0,0,1,1.43-.078ZM95.368,6.983h5.382V8.361H95.368Zm0,2.08h5.382V10.6H95.368ZM113.464.8A9.964,9.964,0,0,1,114.8,2.862l.65-.39A9.869,9.869,0,0,0,114.114.457Zm-8.372,4a16.923,16.923,0,0,1,2.613-.468,19.184,19.184,0,0,1-2.782,6.474l.884.52a25.249,25.249,0,0,0,2.808-7.072,7.464,7.464,0,0,1,.936-.065c1.209,0,1.6.442,1.6,1.82a10.063,10.063,0,0,1-.546,3.614q-.254.624-.741.624a4.859,4.859,0,0,1-1.937-.6,2.4,2.4,0,0,1,.039.507,2.906,2.906,0,0,1-.026.468,4.891,4.891,0,0,0,1.963.507,1.358,1.358,0,0,0,1.274-.611,8.961,8.961,0,0,0,.871-4.472,2.624,2.624,0,0,0-.637-2.093,2.484,2.484,0,0,0-1.872-.546,7.576,7.576,0,0,0-.767.039c.1-.559.221-1.157.273-1.482a7.992,7.992,0,0,1,.247-1.248L108.251.6V.769a16.057,16.057,0,0,1-.39,2.756,26.668,26.668,0,0,1-2.873.338ZM114.946.106a9.415,9.415,0,0,1,1.326,2.041l.65-.377a10.441,10.441,0,0,0-1.339-2.015ZM112.762,3.07a10.978,10.978,0,0,1,2.652,4.667l.832-.468a11.9,11.9,0,0,0-2.717-4.6Zm14.846-.6.481-.286a9.55,9.55,0,0,0-1.4-2.08l-.65.338a9.04,9.04,0,0,1,1.222,1.768c-.325.013-.494.013-.767.013h-6.279a9.216,9.216,0,0,1-1.469-.078v1.04a9.6,9.6,0,0,1,1.456-.078h6.617a10.535,10.535,0,0,1-2.275,4.628,10.439,10.439,0,0,1-4.758,2.951,2.572,2.572,0,0,1,.637.9A11.952,11.952,0,0,0,124.5,9.141a10.8,10.8,0,0,0,3.185-5.395,2.384,2.384,0,0,1,.273-.806ZM127.725,0a9.639,9.639,0,0,1,1.339,2.041l.663-.39a11.323,11.323,0,0,0-1.365-2Zm11.739,9.932v.923h.988c-.026-.273-.039-.611-.039-1V2.823a7.05,7.05,0,0,1,.039-1.014,6.765,6.765,0,0,1-1.014.039h-6.929a9.364,9.364,0,0,1-1.014-.039,6.667,6.667,0,0,1,.052,1.014V9.882a6.754,6.754,0,0,1-.052.975h1V9.934Zm0-.845H132.5V2.706h6.968ZM147.576.483a5.753,5.753,0,0,1-.819,1.885,9.972,9.972,0,0,1-3.263,3.575,1.9,1.9,0,0,1,.728.663,12.586,12.586,0,0,0,3.107-3.38l4.381-.065a11.183,11.183,0,0,1-6.825,7.631,2.056,2.056,0,0,1,.65.767,12.188,12.188,0,0,0,7.072-7.982,1.248,1.248,0,0,1,.221-.507l-.78-.819a1.433,1.433,0,0,1-.676.091l-3.146.052a1.856,1.856,0,0,0-.468.039,10.118,10.118,0,0,0,.6-1.144,2.254,2.254,0,0,1,.286-.533Zm4.433.208a9.074,9.074,0,0,1,1.326,2l.65-.39A9,9,0,0,0,152.659.34Zm1.469-.715A9.138,9.138,0,0,1,154.8,1.965l.65-.377a10.59,10.59,0,0,0-1.339-1.976Zm6.513,2.275a18.19,18.19,0,0,1-2.782-.143l-.013.9a2.3,2.3,0,0,1,.286-.013h.208c.481.013,1.7.039,1.911.039a1.44,1.44,0,0,0,.247-.026l-.117.195a12.936,12.936,0,0,1-2.912,3.718l.728.728a4.3,4.3,0,0,1,1-1.079,4.884,4.884,0,0,1,2.9-1.378c.611,0,.923.312,1.027,1.027a10.091,10.091,0,0,0-1.937,1.04,2.688,2.688,0,0,0-1.326,2.054c0,1.339,1.131,2,3.458,2a20.168,20.168,0,0,0,3.159-.26,5.116,5.116,0,0,1,.52-.065l-.117-1a10.893,10.893,0,0,1-3.471.507c-1.833,0-2.639-.377-2.639-1.235,0-.78.676-1.391,2.444-2.223a3.416,3.416,0,0,1,.013.39A18.7,18.7,0,0,1,162.5,9.3l.884-.013a2.826,2.826,0,0,1-.026-.468c0-.117,0-.3.013-.585.013-.26.013-.546.013-.715,0-.325,0-.455-.026-.793a21.584,21.584,0,0,1,3.471-1.144l-.416-.91a2.86,2.86,0,0,1-.884.377c-.572.208-1.313.481-2.262.858a1.578,1.578,0,0,0-1.716-1.443,3.46,3.46,0,0,0-1.963.637c-.13.091-.13.091-.6.455a.1.1,0,0,1-.026-.039V5.5a.013.013,0,0,0,.013-.013c.013-.013.078-.065.169-.13.052-.039.312-.338.442-.494a9.586,9.586,0,0,0,1.17-1.846,41.975,41.975,0,0,0,4.29-.338,4.053,4.053,0,0,1,.52-.065l-.078-.884a18.3,18.3,0,0,1-4.1.494,2.213,2.213,0,0,0-.273.013c.065-.117.234-.468.4-.884a2.761,2.761,0,0,1,.338-.7L160.823.47a5.517,5.517,0,0,1-.624,1.781Zm10.92.442H170.1a4.946,4.946,0,0,1-.936-.065v.845a7.129,7.129,0,0,1,.936-.052h.806v2.9a8.263,8.263,0,0,1-1.859.572l.247.871c.416-.182.949-.39,1.612-.65v3.614c0,.234-.1.312-.416.312a8.126,8.126,0,0,1-1.131-.091,2.393,2.393,0,0,1,.182.819c.273.013.507.026.676.026,1.2,0,1.521-.2,1.521-.9V6.775c.507-.208.7-.3,1.287-.585l-.013-.78c-.585.286-.78.377-1.274.585V3.421h.728a5.036,5.036,0,0,1,.806.052V2.628a3.4,3.4,0,0,1-.754.065h-.78V1.458a7.676,7.676,0,0,1,.091-1.287H170.82a7.8,7.8,0,0,1,.091,1.313Zm8.294,2.925a2.743,2.743,0,0,1-.78.065H174.46a5.908,5.908,0,0,1-1.053-.078v.858a7.141,7.141,0,0,1,.845-.052,7.874,7.874,0,0,0,1.833,2.873,10.536,10.536,0,0,1-3.809,1.794,2.236,2.236,0,0,1,.494.754,11.043,11.043,0,0,0,3.913-1.989,10.5,10.5,0,0,0,3.705,1.963,3.354,3.354,0,0,1,.494-.819,9.739,9.739,0,0,1-3.549-1.69,10.837,10.837,0,0,0,2.015-2.548,5.215,5.215,0,0,1,.364-.572Zm-.585.793a8.443,8.443,0,0,1-1.911,2.366,6.9,6.9,0,0,1-1.677-2.366Zm-1.066-5.083v2.5c0,.6.273.728,1.495.728,1.482,0,1.612-.13,1.755-1.911a2.582,2.582,0,0,1-.767-.4c-.013,1.014-.065,1.378-.208,1.469a2.082,2.082,0,0,1-.832.1c-.546,0-.637-.039-.637-.273V1.432A6.813,6.813,0,0,1,178.4.509a7.255,7.255,0,0,1-.871.039H175.37a7.206,7.206,0,0,1-.884-.039,2.824,2.824,0,0,1,.039.585,5.305,5.305,0,0,1-.325,2.2,2.728,2.728,0,0,1-1.352,1.4,1.973,1.973,0,0,1,.6.585,3.518,3.518,0,0,0,1.3-1.235,5.166,5.166,0,0,0,.6-2.717ZM183.937,3.6h-.858a5.416,5.416,0,0,1-.962-.065V4.37a5.536,5.536,0,0,1,.949-.065h.767a9.525,9.525,0,0,1-2,4.03,1.847,1.847,0,0,1,.494.689,8.379,8.379,0,0,0,1.1-1.885,8.174,8.174,0,0,0,.559-1.651c-.039.78-.052,1.4-.052,2v2.977a8.294,8.294,0,0,1-.078,1.469h.923a8.111,8.111,0,0,1-.078-1.482V7.269c0-.52-.026-1.209-.052-1.924a5.841,5.841,0,0,0,.975,1.95,2.424,2.424,0,0,1,.442-.689,5.466,5.466,0,0,1-1.352-2.3h.507a8.533,8.533,0,0,1,.988.052V3.551a6.1,6.1,0,0,1-.975.052H184.7V1.484a8.675,8.675,0,0,0,1.495-.6l-.546-.663a8.692,8.692,0,0,1-3.562,1.118,2.679,2.679,0,0,1,.377.715c.689-.143.936-.195,1.469-.338Zm5.512-2.392h-1.9a9.532,9.532,0,0,1-1.365-.078v.832a12.6,12.6,0,0,1,1.339-.065h4.9a12.982,12.982,0,0,1,1.339.065V1.133a9.332,9.332,0,0,1-1.352.078h-2.158V.99a3.753,3.753,0,0,1,.065-.858h-.936a5.451,5.451,0,0,1,.065.845Zm2.158,4.069a8.5,8.5,0,0,1,.91.039,6.859,6.859,0,0,1-.039-.793V3.46a7.02,7.02,0,0,1,.039-.793,9.65,9.65,0,0,1-.988.039h-3.25a9.088,9.088,0,0,1-.962-.039,7.206,7.206,0,0,1,.039.767V4.565a6.959,6.959,0,0,1-.039.754,9.434,9.434,0,0,1,.962-.039Zm-3.5-1.924h3.6V4.63h-3.6Zm-1.82,7.163a11.131,11.131,0,0,1-.065,1.43h.9a10.281,10.281,0,0,1-.065-1.443V6.775h5.616v3.991c0,.221-.078.273-.377.273a8.331,8.331,0,0,1-1.235-.1,2.612,2.612,0,0,1,.169.806c.4.013.767.026,1.079.026.832,0,1.131-.234,1.131-.9V7.178a9.83,9.83,0,0,1,.052-1.144,7.938,7.938,0,0,1-1.2.052H187.46c-.442,0-.936-.026-1.209-.052.026.364.039.767.039,1.183Zm5.291-2.184a6.547,6.547,0,0,1,.039-.741,8.279,8.279,0,0,1-.962.039H189.02a8.849,8.849,0,0,1-.91-.039,7.609,7.609,0,0,1,.039.806V9.934a5.706,5.706,0,0,1-.052.91h.728V10.1H190.7c.221,0,.507.013.923.039a5.137,5.137,0,0,1-.039-.7Zm-2.756-.065h2.093V9.453h-2.093Zm6.89-4.849a43.278,43.278,0,0,1,4.485-.429,26.605,26.605,0,0,0,2.86-.286,8.51,8.51,0,0,0-1.235.689,4.946,4.946,0,0,0-2.431,3.991,3.148,3.148,0,0,0,1.443,2.652,6.558,6.558,0,0,0,2.808,1c.234.039.26.052.4.078l.169-1.053h-.13a6.663,6.663,0,0,1-1.95-.416,2.549,2.549,0,0,1-1.82-2.4,3.973,3.973,0,0,1,1.6-3,6.394,6.394,0,0,1,2.5-1.3,5.452,5.452,0,0,1,1.456-.182L205.79,1.8a8.78,8.78,0,0,1-1.547.143l-.741.026c-.429.013-.6.026-2.2.117l-2.041.13c-1.6.091-1.677.1-2.4.156-.4.026-.559.039-.741.039-.091,0-.221,0-.468-.013ZM203.7,4.669a9.142,9.142,0,0,1,1.326,2.067l.663-.39a9.869,9.869,0,0,0-1.339-2.015Zm1.482-.7A10.288,10.288,0,0,1,206.5,6.008l.65-.364a10.535,10.535,0,0,0-1.339-2.028ZM2.015,20.434a7.1,7.1,0,0,1,.806-.039,27.656,27.656,0,0,0,3.51-.234c.325.7.4.845.741,1.482a25.9,25.9,0,0,1-4.1.325,10.1,10.1,0,0,1-1.04-.039l.026.858c.234-.026.286-.026.91-.052a27.084,27.084,0,0,0,4.563-.377,11.915,11.915,0,0,0,1.391,2A7.814,7.814,0,0,0,6.2,23.983c-2.47,0-3.965.845-3.965,2.249a1.816,1.816,0,0,0,.975,1.612,5.245,5.245,0,0,0,2.678.546,11.323,11.323,0,0,0,3.328-.481,7.57,7.57,0,0,1,.78-.221l-.182-1.014a8.763,8.763,0,0,1-3.848.871c-1.781,0-2.769-.468-2.769-1.326,0-.9,1.209-1.482,3.081-1.482a13.143,13.143,0,0,1,1.7.117,3.525,3.525,0,0,1,1.43.494l.767-.546a15.237,15.237,0,0,1-1.911-2.587c.481-.091,1.131-.234,2.041-.468.429-.117.481-.117.7-.169l-.1-.871a13.224,13.224,0,0,1-2.977.806c-.195-.351-.546-1.04-.741-1.469.728-.117,2.119-.416,3.276-.728l-.078-.845a16.446,16.446,0,0,1-3.471.858A10.827,10.827,0,0,1,6.227,17.5l-.975.169a16.835,16.835,0,0,1,.78,1.781,25.685,25.685,0,0,1-3.081.182c-.442,0-.663-.013-.975-.039ZM16.133,19.29a6.4,6.4,0,0,1,.7-.065c1.976-.065,3.536-.156,3.952-.234a.5.5,0,0,1,.117-.013L20.93,19l-.052.052-.052.052-.182.182c-.9.884-2.951,2.691-4.342,3.8a14.483,14.483,0,0,1-1.82,1.326l.585.832a8.343,8.343,0,0,1,5.473-2.223c1.755,0,2.795.741,2.795,1.989,0,1.1-.715,1.9-2.08,2.275a3.721,3.721,0,0,0-.6-1.248,2.618,2.618,0,0,0-2.145-1.066,1.689,1.689,0,0,0-1.885,1.521c0,1.2,1.053,1.872,2.886,1.872,2.886,0,4.771-1.339,4.771-3.367,0-1.664-1.391-2.73-3.562-2.73a6.587,6.587,0,0,0-3.185.806l-.026-.039a33.358,33.358,0,0,0,4.277-3.692,2.4,2.4,0,0,1,.663-.546l-.546-.715a1.329,1.329,0,0,1-.624.143c-1.17.091-2.9.169-3.978.169a6,6,0,0,1-1.222-.078ZM20.4,27.519a4.681,4.681,0,0,1-.949.091,3.322,3.322,0,0,1-1.456-.3.887.887,0,0,1-.52-.793c0-.494.4-.806,1.053-.806C19.461,25.712,20.111,26.336,20.4,27.519ZM34.034,24.49a7.468,7.468,0,0,0,.793,2.2A9.04,9.04,0,0,1,31.46,28.26a1.963,1.963,0,0,1,.52.663A10.186,10.186,0,0,0,35.2,27.285c.741,1.066,1.443,1.612,2.08,1.612.611,0,.871-.481,1.17-2.119a2.628,2.628,0,0,1-.663-.455,5.923,5.923,0,0,1-.234,1.313c-.117.338-.195.442-.351.442-.338,0-.871-.468-1.43-1.261a15.429,15.429,0,0,0,1.508-1.586l-.663-.455a4.668,4.668,0,0,1-1.209,1.456,6.139,6.139,0,0,1-.65-1.742h2.171a8.2,8.2,0,0,1,1.378.078v-.845a6.842,6.842,0,0,1-1.378.078h-2.3a33.345,33.345,0,0,1-.364-5.239,7,7,0,0,1,.065-1.274h-.91a5.1,5.1,0,0,1,.065.819,33.717,33.717,0,0,0,.195,4.069A14.872,14.872,0,0,0,33.9,23.8H30.94a7.2,7.2,0,0,1-1.17-.065v.819a7.7,7.7,0,0,1,1.17-.065h.143a4.45,4.45,0,0,1-1.872,3.783,1.975,1.975,0,0,1,.624.559,5.358,5.358,0,0,0,1.781-2.938,5.8,5.8,0,0,0,1.417,1.235,2.74,2.74,0,0,1,.429-.624,5.132,5.132,0,0,1-1.69-1.391c.026-.26.026-.286.052-.624Zm.741-1.846A2.01,2.01,0,0,1,35,22.6c1.4-.182,2.262-.3,2.561-.364.091.234.143.377.26.767l.6-.234a11.127,11.127,0,0,0-.949-2l-.533.208a4.383,4.383,0,0,1,.39.728,14.192,14.192,0,0,1-1.586.182c.637-.715,1-1.183,2.184-2.769l-.6-.468a13.252,13.252,0,0,1-1,1.56c-.247-.312-.364-.455-.624-.741a14.789,14.789,0,0,0,1.183-1.794l-.676-.364a7.226,7.226,0,0,1-.949,1.716c-.143-.143-.195-.195-.4-.39l-.429.546a7.475,7.475,0,0,1,1.495,1.573c-.416.533-.52.663-.962,1.17a.488.488,0,0,1-.13.013,1.2,1.2,0,0,1-.195-.013Zm-3.211-5.382a6.71,6.71,0,0,1-.988,1.872c-.143-.13-.26-.247-.364-.351l-.468.52a8.552,8.552,0,0,1,1.534,1.625c-.338.494-.572.793-1.04,1.365a1.5,1.5,0,0,1-.221.013.812.812,0,0,1-.156-.013l.156.741a3.563,3.563,0,0,1,.364-.065c1.248-.195,1.937-.325,2.483-.442.065.234.091.312.156.572l.585-.247a8.148,8.148,0,0,0-.845-1.859l-.52.195a4.851,4.851,0,0,1,.429.806c-.416.078-.988.156-1.625.234a23.469,23.469,0,0,0,2.015-2.86l-.624-.442a10.667,10.667,0,0,1-.78,1.43,6.38,6.38,0,0,0-.624-.754,11.875,11.875,0,0,0,1.222-2Zm-3.549,2.561h-.559a5.134,5.134,0,0,1-.9-.052v.819a5.631,5.631,0,0,1,.9-.052h.455a11.06,11.06,0,0,1-1.69,4.29,2.74,2.74,0,0,1,.468.754,11.22,11.22,0,0,0,1.469-4.069c-.078.988-.13,2-.13,2.509v3.549a10.92,10.92,0,0,1-.078,1.508h.91a10.538,10.538,0,0,1-.065-1.508V23.307c0-.455-.026-1.014-.052-1.911a4.5,4.5,0,0,0,.7,1.391,4.421,4.421,0,0,1,.364-.676,5.065,5.065,0,0,1-.962-1.573h.312a5.6,5.6,0,0,1,.832.052v-.819a4.75,4.75,0,0,1-.845.052H28.8V18.536a10.957,10.957,0,0,1,.052-1.339h-.9a7.965,7.965,0,0,1,.065,1.352Zm7.566,3.107a4.714,4.714,0,0,1,.975.858l.468-.442a4.484,4.484,0,0,0-.988-.793Zm4.186-2.171a5.184,5.184,0,0,1,.767-.091c1.274-.078,3.146-.286,4.108-.442.169.3.208.377.4.78l.689-.4a20.258,20.258,0,0,0-1.677-2.613l-.611.312a11.376,11.376,0,0,1,.819,1.274c-.923.117-1.43.169-2.73.26a21.858,21.858,0,0,0,1.079-1.963,3.123,3.123,0,0,1,.26-.507l-.91-.26a7.4,7.4,0,0,1-.715,1.755,10.087,10.087,0,0,1-.572,1.014c-.377.013-.377.013-.455.013-.1,0-.39-.013-.572-.013Zm7.215-2.3a5.117,5.117,0,0,1,.078-1.131h-.949a7.006,7.006,0,0,1,.078,1.131v3.068c0,.754.325.884,2.184.884,1.677,0,2.184-.065,2.4-.338a3.509,3.509,0,0,0,.429-1.846,2.837,2.837,0,0,1-.767-.325c-.052,1.157-.117,1.495-.325,1.625-.182.117-.572.143-1.755.143-1.235,0-1.378-.039-1.378-.4V20.1a15.413,15.413,0,0,0,3.289-1.339c.52-.286.52-.286.728-.39l-.572-.689a10.5,10.5,0,0,1-3.445,1.651Zm0,5.889a5.557,5.557,0,0,1,.065-1.131h-.923a5.941,5.941,0,0,1,.065,1.17v3.25c0,.429.1.624.416.754a4.946,4.946,0,0,0,1.989.195c1.43,0,1.872-.065,2.158-.338.312-.3.455-.806.559-2.041a3.533,3.533,0,0,1-.78-.338,3.908,3.908,0,0,1-.273,1.677c-.169.208-.585.286-1.612.286a7.016,7.016,0,0,1-1.248-.065c-.325-.052-.416-.143-.416-.4V25.816a14.365,14.365,0,0,0,2.08-.7c.455-.195,1.456-.7,2.028-1.027l-.611-.676a9.562,9.562,0,0,1-3.5,1.625Zm-6.461,3.3a8.626,8.626,0,0,1-.065,1.3h.923a8.8,8.8,0,0,1-.065-1.326V26h2.873v1.677c0,.234-.078.286-.429.286a7.612,7.612,0,0,1-1-.065,3.639,3.639,0,0,1,.195.806c.169.013.312.013.4.013,1.391,0,1.6-.13,1.6-.962V22.228c0-.234.013-.624.039-.871a9.661,9.661,0,0,1-1.2.052H41.522a7.857,7.857,0,0,1-1.053-.052,10.649,10.649,0,0,1,.052,1.2Zm.793-5.525h2.873v1.222H41.314Zm0,1.911h2.873v1.274H41.314Zm11.921-3.614a43.278,43.278,0,0,1,4.485-.429,26.606,26.606,0,0,0,2.86-.286,8.51,8.51,0,0,0-1.235.689,4.946,4.946,0,0,0-2.431,3.991,3.148,3.148,0,0,0,1.443,2.652,6.557,6.557,0,0,0,2.808,1c.234.039.26.052.4.078l.169-1.053h-.13a6.663,6.663,0,0,1-1.95-.416,2.549,2.549,0,0,1-1.82-2.405,3.973,3.973,0,0,1,1.6-3,6.394,6.394,0,0,1,2.5-1.3,5.453,5.453,0,0,1,1.456-.182L63.31,18.8a8.78,8.78,0,0,1-1.547.143l-.741.026c-.429.013-.6.026-2.2.117l-2.041.13c-1.6.091-1.677.1-2.4.156-.4.026-.559.039-.741.039-.091,0-.221,0-.468-.013Zm7.982,1.248a9.142,9.142,0,0,1,1.326,2.067l.663-.39a9.869,9.869,0,0,0-1.339-2.015Zm1.482-.7a10.288,10.288,0,0,1,1.326,2.041l.65-.364a10.535,10.535,0,0,0-1.339-2.028Zm9.49-1.625c-.884.026-1.9.052-3.146.1-2.093.078-2.093.078-2.47.078-.195,0-.286,0-.52-.013l.039.949c.871-.143,3.5-.273,6.11-.325v.676c0,.156.013.286.013.338,0,.481,0,.533.013.715a2,2,0,0,0-1.508-.585,2.163,2.163,0,0,0-2.3,2.145,2.173,2.173,0,0,0,3.77,1.352,1.821,1.821,0,0,0,.351-.637,3.367,3.367,0,0,1-1.456,2.743,6.663,6.663,0,0,1-2.106.975,2.854,2.854,0,0,1,.572.819A8.269,8.269,0,0,0,71.6,27.623a4.184,4.184,0,0,0,1.742-3.393,3.725,3.725,0,0,0-.312-1.534V20.122c1.053-.026,1.2-.026,1.391-.026a23.106,23.106,0,0,1,2.483.065v-.923c-.429.052-1.43.078-3.887.091v-.143a10.762,10.762,0,0,1,.065-1.625h-.975a4.381,4.381,0,0,1,.052.754Zm-.039,3.8a1.457,1.457,0,0,1-1.521,1.534,1.256,1.256,0,0,1-1.339-1.287,1.376,1.376,0,0,1,1.443-1.365,1.663,1.663,0,0,1,.871.208A.941.941,0,0,1,72.15,23.138Zm7.215,1.807a1.95,1.95,0,1,0,1.95,1.95A1.947,1.947,0,0,0,79.365,24.945Zm0,.741A1.209,1.209,0,1,1,78.156,26.9,1.215,1.215,0,0,1,79.365,25.686ZM95.641,19.9H92.469a8.358,8.358,0,0,1-1.508-.078v.988a10.106,10.106,0,0,1,1.495-.065h3.185v6.487a7.234,7.234,0,0,1-.078,1.365h1.066a7.849,7.849,0,0,1-.065-1.378V20.746h3.3a10.106,10.106,0,0,1,1.5.065v-.988a8.527,8.527,0,0,1-1.521.078H96.564v-.845a7.49,7.49,0,0,1,.065-1.352H95.563a5.806,5.806,0,0,1,.078,1.326Zm-2.808,2.041a6.638,6.638,0,0,1-.455,1.768,8.294,8.294,0,0,1-1.911,3.2,2.882,2.882,0,0,1,.858.559A11.61,11.61,0,0,0,93.6,22.982l.065-.286.078-.26a1.555,1.555,0,0,1,.078-.221Zm5.551.26c.091.208.208.494.325.845a15.592,15.592,0,0,0,2.262,4.472,2.809,2.809,0,0,1,.819-.611,11.551,11.551,0,0,1-2.015-3.484,9.282,9.282,0,0,1-.481-1.469Zm2.34-5.564a1.476,1.476,0,1,0,1.469,1.469A1.459,1.459,0,0,0,100.724,16.638Zm0,.546a.93.93,0,1,1-.936.923A.927.927,0,0,1,100.724,17.184Zm2.717,6.357a14.2,14.2,0,0,1,1.612-.052h7.54a14.872,14.872,0,0,1,1.586.052V22.488a10.253,10.253,0,0,1-1.573.065h-7.553a9.2,9.2,0,0,1-1.612-.078ZM120.276,28.4a8.841,8.841,0,0,1-.065-1.378V23.112a4.54,4.54,0,0,0-.052-.767l.026-.013a1.434,1.434,0,0,0,.4.221,26.505,26.505,0,0,1,4.849,2.574l.559-.962a32.241,32.241,0,0,0-5.785-2.743V18.991a8.16,8.16,0,0,1,.065-1.352h-1.118a7.708,7.708,0,0,1,.078,1.326v8.073a8.361,8.361,0,0,1-.078,1.365Zm17.589-9.633a1.747,1.747,0,0,1-.832.1h-6.4a7.813,7.813,0,0,1-1.469-.091v1.053a9.04,9.04,0,0,1,1.456-.078h6.617a9.92,9.92,0,0,1-7.033,7.566,2.461,2.461,0,0,1,.637.91,11.939,11.939,0,0,0,4.082-2.444,11.077,11.077,0,0,0,3.263-5.642c.182-.663.182-.663.273-.806Zm9.334,3.809a9.621,9.621,0,0,1-2.015,2.353,11.7,11.7,0,0,1-2.977,1.924,2.313,2.313,0,0,1,.585.7,11.523,11.523,0,0,0,4.875-4.381.834.834,0,0,0,.065-.143c-.026.377-.052.7-.052.728l.026,3.874v.052a7.02,7.02,0,0,1-.039.962h.988a4.63,4.63,0,0,1-.065-1.014l-.065-5.057h1.248a7.1,7.1,0,0,1,1.17.065v-.9a6.635,6.635,0,0,1-1.17.065h-1.261l-.013-.962v-.208a3.92,3.92,0,0,1,.052-.715h-.936a4.814,4.814,0,0,1,.065.975l.013.91h-3.822a5.241,5.241,0,0,1-1.157-.078v.91a6.818,6.818,0,0,1,1.17-.065Zm9.126-4.615a7.645,7.645,0,0,1,.052,1.092v3.471a7.881,7.881,0,0,1-.052,1.092H157.4a6.884,6.884,0,0,1-.052-1.079v-3.5a7.1,7.1,0,0,1,.052-1.079Zm5.746,0a7.228,7.228,0,0,1,.052,1.144v1.469a16.165,16.165,0,0,1-.182,3.315,3.878,3.878,0,0,1-2.08,2.743,7.569,7.569,0,0,1-2.47.884,2.486,2.486,0,0,1,.546.9,10.235,10.235,0,0,0,2.366-.936,4.94,4.94,0,0,0,2.47-2.886,14.651,14.651,0,0,0,.325-3.965V19.1a5.8,5.8,0,0,1,.065-1.131Zm11.921,4.355V22.4l.052,4.784v.286a7.684,7.684,0,0,1-.052,1.027h1.053a11.808,11.808,0,0,1-.065-1.326l-.091-6.331h1.937a10.637,10.637,0,0,1,1.079.039v-.949a6.569,6.569,0,0,1-1.3.078h-1.716l-.026-1.3v-.312a4.993,4.993,0,0,1,.052-.715h-1.04a6.2,6.2,0,0,1,.065,1.053l.013,1.274-4.732.026a7.346,7.346,0,0,1-1.469-.091v.975a10.214,10.214,0,0,1,1.443-.052l4.264-.026a12.531,12.531,0,0,1-1.872,2.366,14.758,14.758,0,0,1-4.407,3.107,2.1,2.1,0,0,1,.65.78,20,20,0,0,0,2.145-1.339,15.171,15.171,0,0,0,3.081-2.873,8.1,8.1,0,0,0,.975-1.456c-.026.559-.039.754-.039.845ZM183.3,17.8a4.349,4.349,0,0,1,.221.819,26.481,26.481,0,0,0,.949,3.64,8.1,8.1,0,0,0-1.7,1.053,2.812,2.812,0,0,0-1.157,2.21,2.158,2.158,0,0,0,1.612,2.132,8.844,8.844,0,0,0,2.886.351,26.078,26.078,0,0,0,2.873-.169,6.738,6.738,0,0,1,.962-.078l-.1-1.079a12.907,12.907,0,0,1-3.718.442c-2.548,0-3.549-.455-3.549-1.638,0-1.079.962-1.937,3.185-2.821A29.9,29.9,0,0,1,189.67,21.4l-.39-.988a7.03,7.03,0,0,1-.832.338c-2.015.7-2.379.845-3.146,1.157a22.609,22.609,0,0,1-.975-4.3Zm14.937-.572a9.457,9.457,0,0,1-2,2.262,13.559,13.559,0,0,1-3.536,2.262,2.26,2.26,0,0,1,.546.741A15.031,15.031,0,0,0,196,20.8a12.113,12.113,0,0,0,2.73-2.847,10.921,10.921,0,0,0,2,2.184,18.172,18.172,0,0,0,3.666,2.392,3.365,3.365,0,0,1,.52-.819,13.632,13.632,0,0,1-3.562-2.132,8.93,8.93,0,0,1-2.145-2.353ZM195.7,22.059a7.476,7.476,0,0,1,1.014-.052h4.043a8,8,0,0,1,1.092.052v-.884a7.762,7.762,0,0,1-1.092.052h-4.03a6.644,6.644,0,0,1-1.027-.052Zm-.091,6.786v-.754h6.279v.754h.936a9.035,9.035,0,0,1-.078-1.274V24.7a7.857,7.857,0,0,1,.065-1.2,6.889,6.889,0,0,1-1.014.052h-6.1a6.889,6.889,0,0,1-1.014-.052,8.175,8.175,0,0,1,.065,1.2v2.873a9.436,9.436,0,0,1-.078,1.274Zm0-4.5h6.279v2.977h-6.279Zm11.167,1.69a11.084,11.084,0,0,1,1.17-1.235,3.658,3.658,0,0,0,.676-.715h.026c-.026.312-.026.416-.039,2a13.878,13.878,0,0,1-.065,2.457h1.027c-.065-.6-.078-1.248-.078-5.161,1.7-1.534,2.873-2.145,4.147-2.145a2.385,2.385,0,0,1,2.483,2.548,3.286,3.286,0,0,1-.364,1.56,2.894,2.894,0,0,1-2.6,1.469,5.693,5.693,0,0,1-2.3-.507,3.2,3.2,0,0,1,.1.754,1.7,1.7,0,0,1-.013.221,6.557,6.557,0,0,0,2.21.39,3.7,3.7,0,0,0,3.926-3.913,3.287,3.287,0,0,0-3.5-3.38,5.061,5.061,0,0,0-3.289,1.287,7.121,7.121,0,0,0-.754.663l-.039.039h-.026c0-.026.026-.468.065-1.313a3.843,3.843,0,0,1,.689-.845l-.338-.429a.76.76,0,0,1-.3.078c.013-.3.013-.3.026-.741a8.148,8.148,0,0,1,.13-1.508h-1.027a2.339,2.339,0,0,1,.039.507c0,.507-.013,1-.052,1.807-1.066.078-1.612.1-1.807.1-.1,0-.182,0-.364-.013l.065.9a11.355,11.355,0,0,1,1.43-.156c.481-.026.481-.026.663-.039-.039,1.105-.039,1.222-.065,2.3-.169.143-.169.143-.377.338-.442.4-.442.4-.884.819a9.621,9.621,0,0,1-1.118.962ZM3.328,35.107a13.824,13.824,0,0,1,.065,1.937v.845c-1.365.117-2.171.169-2.405.169A2.772,2.772,0,0,1,.7,38.045l.078.91a26.2,26.2,0,0,1,2.613-.273v1.625a13.718,13.718,0,0,0,.169,3.081C3.9,44.558,4.888,45,7.2,45a22.09,22.09,0,0,0,3.289-.273c.312-.039.338-.052.52-.065l-.1-1a11.786,11.786,0,0,1-3.614.481,7.223,7.223,0,0,1-2.028-.221,1.117,1.117,0,0,1-.871-.845,19.933,19.933,0,0,1-.13-3.276V38.63c1.729-.117,2.665-.169,4.238-.221a11.821,11.821,0,0,1-.156,2c-.117.637-.273.845-.637.845a3.692,3.692,0,0,1-1.7-.715c.013.26.026.39.026.533s-.013.195-.026.39a3.729,3.729,0,0,0,1.807.6,1.3,1.3,0,0,0,1.313-1.144,12.361,12.361,0,0,0,.234-2.535c.416,0,.7-.013.91-.013.429-.013.767-.013.884-.013.546,0,.624,0,.975.026L12.1,37.46c-.429.052-1.443.091-2.717.117v-.351l.013-.845v-.546a7.034,7.034,0,0,1,.052-1h-1a12.458,12.458,0,0,1,.078,1.976c0,.156,0,.3-.013.442v.364c-1.625.065-2.145.091-4.251.208a15.043,15.043,0,0,1,.117-2.717Zm11.011,2.34a38.185,38.185,0,0,1,4.485-.429,25.192,25.192,0,0,0,2.86-.286,8.509,8.509,0,0,0-1.235.689,4.928,4.928,0,0,0-2.431,3.991,3.164,3.164,0,0,0,1.443,2.652,6.557,6.557,0,0,0,2.808,1c.208.039.26.052.4.078l.169-1.053h-.13a6.663,6.663,0,0,1-1.95-.416,2.549,2.549,0,0,1-1.82-2.4,3.973,3.973,0,0,1,1.6-3,6.6,6.6,0,0,1,2.5-1.313,6.029,6.029,0,0,1,1.456-.169l-.078-.975a8.726,8.726,0,0,1-1.547.143c-1.677.078-5.837.312-7.384.429-.4.026-.559.039-.741.039h-.468Zm16.38-1.495h2.015a9.35,9.35,0,0,1,1.534.091V34.951a9.144,9.144,0,0,1-1.534.091h-5.07a9.167,9.167,0,0,1-1.482-.091v1.092a9.344,9.344,0,0,1,1.5-.091H29.7v7.5a7.751,7.751,0,0,1-.1,1.469h1.222a8.017,8.017,0,0,1-.1-1.469Zm10.231,8.97a7.687,7.687,0,0,1,.273-.975l1.4-4.5c.234-.741.4-1.261.507-1.534H41.951a6.63,6.63,0,0,1-.286,1.417l-.975,3.3c-.026.078-.091.377-.208.884-.026-.091-.026-.091-.078-.286s-.13-.468-.169-.585L38.987,38.9a7.1,7.1,0,0,1-.26-.988h-.871a4.668,4.668,0,0,1-.26.988l-1.235,3.679c-.039.117-.195.637-.273.936-.091-.455-.169-.728-.234-.949L34.9,39.332a5.9,5.9,0,0,1-.3-1.417h-1.2c.156.442.364,1.053.52,1.534l1.391,4.485a8.7,8.7,0,0,1,.286.988h.91a7.383,7.383,0,0,1,.273-.975l1.261-3.757c.039-.13.143-.481.247-.845.13.481.2.754.221.819l1.274,3.783a8.579,8.579,0,0,1,.26.975Zm3.237-9.88V36.2h1.261V35.042Zm.039,2.873a9.533,9.533,0,0,1,.091,1.469v4.069a11.281,11.281,0,0,1-.091,1.469H45.4a10.235,10.235,0,0,1-.091-1.469V39.384a9.312,9.312,0,0,1,.091-1.469Zm3.887-1.937a9.864,9.864,0,0,1,.091,1.443v.494h-.52a5.893,5.893,0,0,1-1.17-.078v.988a8.7,8.7,0,0,1,1.17-.078h.52V43.4a1.65,1.65,0,0,0,.364,1.248,1.78,1.78,0,0,0,1.274.4,3.5,3.5,0,0,0,1.469-.3l-.286-.91A1.8,1.8,0,0,1,50,44.181a.88.88,0,0,1-.637-.221c-.117-.117-.169-.312-.169-.689V38.747h.624a7.808,7.808,0,0,1,1.326.078v-.988a7.989,7.989,0,0,1-1.326.078h-.624v-.494a9.4,9.4,0,0,1,.091-1.443Zm5.1,0a9.864,9.864,0,0,1,.091,1.443v.494h-.52a5.893,5.893,0,0,1-1.17-.078v.988a8.7,8.7,0,0,1,1.17-.078h.52V43.4a1.65,1.65,0,0,0,.364,1.248,1.78,1.78,0,0,0,1.274.4,3.5,3.5,0,0,0,1.469-.3l-.286-.91a1.8,1.8,0,0,1-1.027.338.88.88,0,0,1-.637-.221c-.117-.117-.169-.312-.169-.689V38.747h.624a7.808,7.808,0,0,1,1.326.078v-.988a7.989,7.989,0,0,1-1.326.078h-.624v-.494a9.4,9.4,0,0,1,.091-1.443Zm10.413,5.59c-.026-.351-.078-.858-.091-1a3.073,3.073,0,0,0-3.146-2.821c-1.95,0-3.224,1.456-3.224,3.679,0,2.249,1.287,3.679,3.328,3.679a3.246,3.246,0,0,0,2.353-.91,3.108,3.108,0,0,0,.715-1.079l-.91-.364A2.125,2.125,0,0,1,60.5,44.272a2.175,2.175,0,0,1-1.833-.884,2.945,2.945,0,0,1-.52-1.82Zm-5.434-.819a2.72,2.72,0,0,1,.325-1.053,2.035,2.035,0,0,1,1.846-1.131,2.109,2.109,0,0,1,1.534.585,2.373,2.373,0,0,1,.689,1.6Zm11.44-2.834a5.97,5.97,0,0,0-1.157-.117,2.591,2.591,0,0,0-1.56.455,2.279,2.279,0,0,0-.715.793,3.781,3.781,0,0,0,.013-.39v-.741H65.13a9.421,9.421,0,0,1,.091,1.469v4.069a11.862,11.862,0,0,1-.091,1.469H66.3a10.17,10.17,0,0,1-.091-1.456V40.814a2.14,2.14,0,0,1,.481-1.3,1.919,1.919,0,0,1,1.6-.793,3.084,3.084,0,0,1,1.053.195Zm4.459-3.458a13.375,13.375,0,0,1-.442,2.444c-.247,0-.676.013-.936.013a8.215,8.215,0,0,1-1.547-.1l-.013.9h.169c.039,0,.143,0,.286.013.195,0,.637.013.858.013.195,0,.637-.013.962-.026a19.465,19.465,0,0,1-1.352,3.354,11.477,11.477,0,0,1-1.248,2.028l.884.52c.065-.1.143-.26.26-.442.494-.858.611-1.079.923-1.7a24.22,24.22,0,0,0,1.443-3.8,15.693,15.693,0,0,0,2.132-.273c.312-.052.312-.052.455-.078l-.039-.9a10.818,10.818,0,0,1-2.327.429c.182-.663.26-.975.351-1.417a4.071,4.071,0,0,1,.208-.832Zm7.657,3.588a17.918,17.918,0,0,0-3.432-1.716l-.481.728a14.1,14.1,0,0,1,3.445,1.768ZM81.77,43.8a1.316,1.316,0,0,1-.234-.208,9.338,9.338,0,0,0-2.548-1.573,15.507,15.507,0,0,1-.143-1.976,3.99,3.99,0,0,1,.169-1.209l-.884-.091A5.264,5.264,0,0,0,78,40.008c0,.325.026.936.091,1.781a4.29,4.29,0,0,0-1.313-.195,3.8,3.8,0,0,0-1.534.286,1.844,1.844,0,0,0-1.209,1.651c0,1.157.975,1.885,2.535,1.885,1.586,0,2.47-.741,2.47-2.08a2.7,2.7,0,0,0-.026-.416,7.436,7.436,0,0,1,2.275,1.768Zm-3.614-1.183s.026.4.026.559c0,.975-.507,1.417-1.625,1.417-1.027,0-1.651-.4-1.651-1.066,0-.715.7-1.17,1.807-1.17A3.858,3.858,0,0,1,78.156,42.621Zm8.632-7.748a5.622,5.622,0,0,1,.221.832,26.253,26.253,0,0,0,.949,3.627,8.081,8.081,0,0,0-1.7,1.066,2.812,2.812,0,0,0-1.157,2.21A2.158,2.158,0,0,0,86.71,44.74a8.844,8.844,0,0,0,2.886.351,26.079,26.079,0,0,0,2.873-.169l.442-.052.13-.013a3.417,3.417,0,0,1,.39-.013l-.1-1.079a12.907,12.907,0,0,1-3.718.442c-2.548,0-3.549-.468-3.549-1.638,0-1.079.962-1.937,3.185-2.834a34.425,34.425,0,0,1,3.913-1.261l-.39-.988a5.882,5.882,0,0,1-.832.351c-2,.689-2.431.858-3.146,1.157a23.688,23.688,0,0,1-.975-4.3Zm4.771-.039A10.137,10.137,0,0,1,92.885,36.9l.663-.39A10.435,10.435,0,0,0,92.209,34.5Zm1.482-.7a10.9,10.9,0,0,1,1.326,2.041l.65-.364a10.4,10.4,0,0,0-1.352-2.028Zm3.991,3.289a43.278,43.278,0,0,1,4.485-.429,26.607,26.607,0,0,0,2.86-.286,8.51,8.51,0,0,0-1.235.689,4.946,4.946,0,0,0-2.431,3.991,3.148,3.148,0,0,0,1.443,2.652,6.557,6.557,0,0,0,2.808,1c.234.039.26.052.4.078l.169-1.053h-.13a6.663,6.663,0,0,1-1.95-.416,2.549,2.549,0,0,1-1.82-2.4,3.973,3.973,0,0,1,1.6-3,6.394,6.394,0,0,1,2.5-1.3,5.453,5.453,0,0,1,1.456-.182l-.078-.962a8.779,8.779,0,0,1-1.547.143l-.741.026c-.429.013-.6.026-2.2.117l-2.041.13c-1.6.091-1.677.1-2.4.156-.4.026-.559.039-.741.039-.091,0-.221,0-.468-.013Zm7.982,1.248a9.142,9.142,0,0,1,1.326,2.067l.663-.39a9.869,9.869,0,0,0-1.339-2.015Zm1.482-.7a10.287,10.287,0,0,1,1.326,2.041l.65-.364a10.535,10.535,0,0,0-1.339-2.028Zm7.839,7.475a8.034,8.034,0,0,1,1.04-.143c1.1-.13,3.341-.494,4.368-.715.221-.052.221-.052.364-.078.156.416.221.624.429,1.287l.767-.364a33.428,33.428,0,0,0-2.184-5.018l-.728.286a29.643,29.643,0,0,1,1.43,3.094,38.1,38.1,0,0,1-3.77.611,44.688,44.688,0,0,0,1.612-5.59c.065-.3.13-.533.208-.793l-.988-.208a27.866,27.866,0,0,1-1.69,6.682,6.719,6.719,0,0,1-.7.039c-.091,0-.182,0-.338-.013Zm-3.185-7.956v2.86a8.382,8.382,0,0,1-1.742.533l.26.884a13.713,13.713,0,0,1,1.482-.624v3.6c0,.286-.1.364-.481.364a6.92,6.92,0,0,1-1.066-.091,2.307,2.307,0,0,1,.169.819c.26.013.7.026.884.026.975,0,1.313-.247,1.313-.923V40.8c.494-.208.494-.208,1.287-.559v-.793c-.585.273-.78.364-1.287.572V37.486h.533a5,5,0,0,1,.819.052v-.832a3.573,3.573,0,0,1-.832.065h-.52V35.51a8.438,8.438,0,0,1,.078-1.3h-.975a7.3,7.3,0,0,1,.078,1.313v1.248h-.663a6.2,6.2,0,0,1-.988-.078v.858a6.683,6.683,0,0,1,.975-.065Zm6.552-1.235V35.38a5.072,5.072,0,0,1,.078-1.014h-.975a5.254,5.254,0,0,1,.078,1.014v.871h-1.872a7.963,7.963,0,0,1-1.2-.065,13.7,13.7,0,0,1,.052,1.482c0,4.082-.351,5.928-1.456,7.644a2.827,2.827,0,0,1,.715.546c1.183-2,1.534-3.991,1.56-8.866h5.3a8.207,8.207,0,0,1,1.183.065v-.884a7.481,7.481,0,0,1-1.183.078Zm16.627.221a6.3,6.3,0,0,1-1.235.078h-2.6c.182-.611.286-1.014.429-1.612.117-.507.13-.546.182-.728l-.9-.169a10.567,10.567,0,0,1-.637,2.925,7.452,7.452,0,0,1-1.4,2.522,2.6,2.6,0,0,1,.546.689,7.525,7.525,0,0,0,.78-1.261,11.319,11.319,0,0,0,1.352,3.666,8.327,8.327,0,0,1-2.769,2.639,2.1,2.1,0,0,1,.6.689,9.485,9.485,0,0,0,2.652-2.587A9.527,9.527,0,0,0,134,45.884a3.447,3.447,0,0,1,.481-.845,8.593,8.593,0,0,1-2.7-2.457,10.912,10.912,0,0,0,1.144-3,13.054,13.054,0,0,0,.338-2.288,5.394,5.394,0,0,1,1.066.078Zm-1.872.819a14.234,14.234,0,0,1-.351,2.236,9.847,9.847,0,0,1-.819,2.288A10.958,10.958,0,0,1,130,37.941c.143-.364.156-.416.247-.65Zm-5.2-1.794v-.273a5.364,5.364,0,0,1,.065-1.066h-.9a6.585,6.585,0,0,1,.052,1.066V35.5h-1.638v-.273a6.078,6.078,0,0,1,.052-1.066h-.9a5.78,5.78,0,0,1,.065,1.066V35.5h-.247a5.937,5.937,0,0,1-1.079-.065v.832a6.025,6.025,0,0,1,1.079-.065h.247v1.508h-.494a6.835,6.835,0,0,1-1.118-.078v.858a7.422,7.422,0,0,1,1.118-.078h3.913a6.534,6.534,0,0,1,1.1.065v-.832a5.922,5.922,0,0,1-1.092.065h-.234V36.2h.156a6.114,6.114,0,0,1,1.079.065v-.832a5.851,5.851,0,0,1-1.079.065Zm-2.418.7h1.638v1.508h-1.638Zm-.793,7.254H127.1v1.313c0,.221-.078.273-.4.273a5.611,5.611,0,0,1-1.092-.1,3,3,0,0,1,.182.767c.351.026.676.039.91.039.936,0,1.2-.182,1.2-.871V40.5c0-.637.013-.962.039-1.248a10.03,10.03,0,0,1-1.17.065H124.41a11.06,11.06,0,0,1-1.2-.065c.026.3.039.572.039,1.183v4.082a10.379,10.379,0,0,1-.078,1.443h.936a10.039,10.039,0,0,1-.065-1.456Zm0-.676V41.711H127.1v1.066Zm0-1.742V40.008H127.1v1.027Zm17.94-4.693c-.884.026-1.9.052-3.146.1-2.093.078-2.093.078-2.47.078-.195,0-.286,0-.52-.013l.039.949c.871-.143,3.5-.273,6.11-.325v.676c0,.156.013.286.013.338,0,.481,0,.533.013.715a2,2,0,0,0-1.508-.585,2.163,2.163,0,0,0-2.3,2.145,2.173,2.173,0,0,0,3.77,1.352,1.82,1.82,0,0,0,.351-.637,3.367,3.367,0,0,1-1.456,2.743,6.663,6.663,0,0,1-2.106.975,2.854,2.854,0,0,1,.572.819,8.269,8.269,0,0,0,2.054-1.053,4.184,4.184,0,0,0,1.742-3.393,3.725,3.725,0,0,0-.312-1.534V37.122c1.053-.026,1.2-.026,1.391-.026a23.106,23.106,0,0,1,2.483.065v-.923c-.429.052-1.43.078-3.887.091v-.143a10.761,10.761,0,0,1,.065-1.625h-.975a4.381,4.381,0,0,1,.052.754Zm-.039,3.8a1.457,1.457,0,0,1-1.521,1.534,1.256,1.256,0,0,1-1.339-1.287,1.376,1.376,0,0,1,1.443-1.365,1.663,1.663,0,0,1,.871.208A.941.941,0,0,1,141.947,40.138Zm8.983-3.848a6.4,6.4,0,0,1,.7-.065c1.976-.065,3.536-.156,3.952-.234a.5.5,0,0,1,.117-.013l.026.026-.052.052-.052.052-.182.182c-.9.884-2.951,2.691-4.342,3.8a14.483,14.483,0,0,1-1.82,1.326l.585.832a8.343,8.343,0,0,1,5.473-2.223c1.755,0,2.8.741,2.8,1.989,0,1.105-.715,1.9-2.08,2.275a3.722,3.722,0,0,0-.6-1.248,2.618,2.618,0,0,0-2.145-1.066,1.689,1.689,0,0,0-1.885,1.521c0,1.2,1.053,1.872,2.886,1.872,2.886,0,4.771-1.339,4.771-3.367,0-1.664-1.391-2.73-3.562-2.73a6.587,6.587,0,0,0-3.185.806l-.026-.039a33.357,33.357,0,0,0,4.277-3.692,2.4,2.4,0,0,1,.663-.546l-.546-.715a1.329,1.329,0,0,1-.624.143c-1.17.091-2.9.169-3.978.169a6,6,0,0,1-1.222-.078Zm4.264,8.229a4.681,4.681,0,0,1-.949.091,3.322,3.322,0,0,1-1.456-.3.887.887,0,0,1-.52-.793c0-.494.4-.806,1.053-.806C154.258,42.712,154.908,43.336,155.194,44.519Zm8.658-7.943a3.053,3.053,0,0,1,.429.039,25.429,25.429,0,0,0,2.86.169,10.275,10.275,0,0,0,1.963-.169c-.13.078-.156.078-.247.13-.156.078-.182.091-.325.169a20.14,20.14,0,0,0-1.729,1.079l.663.533a18.515,18.515,0,0,1,3.276-1.976l-.065-.858a14.217,14.217,0,0,1-3.289.273,14.863,14.863,0,0,1-3.458-.312Zm.78,3.328a3.416,3.416,0,0,0-1.5,2.509,2.071,2.071,0,0,0,1.482,1.963,9.171,9.171,0,0,0,2.99.4,21.206,21.206,0,0,0,3.51-.3,3.636,3.636,0,0,1,.442-.065l-.117-1.066a12.332,12.332,0,0,1-3.9.494,8.278,8.278,0,0,1-2.379-.26c-.728-.247-1.1-.676-1.1-1.274s.39-1.209,1.235-1.911Zm13.195-5.109a4.349,4.349,0,0,1,.221.819,26.481,26.481,0,0,0,.949,3.64,8.1,8.1,0,0,0-1.7,1.053,2.812,2.812,0,0,0-1.157,2.21,2.158,2.158,0,0,0,1.612,2.132,8.844,8.844,0,0,0,2.886.351,26.079,26.079,0,0,0,2.873-.169,6.737,6.737,0,0,1,.962-.078l-.1-1.079a12.907,12.907,0,0,1-3.718.442c-2.548,0-3.549-.455-3.549-1.638,0-1.079.962-1.937,3.185-2.821A29.9,29.9,0,0,1,184.2,38.4l-.39-.988a7.029,7.029,0,0,1-.832.338c-2.015.7-2.379.845-3.146,1.157a22.609,22.609,0,0,1-.975-4.3Zm10.6,5.85a1.355,1.355,0,0,1,.4.078,13.7,13.7,0,0,0,1.963.325c-.013.117-.013.117-.026.312a6.874,6.874,0,0,0-.052.858,3.525,3.525,0,0,0,.4,1.794,3.234,3.234,0,0,0,2.912,1.3c2.275,0,3.809-1.235,3.809-3.068a3.47,3.47,0,0,0-1.222-2.587,2.573,2.573,0,0,1-.949.26,2.964,2.964,0,0,1,1.235,2.262c0,1.378-1.131,2.275-2.873,2.275a2.733,2.733,0,0,1-1.833-.559,1.919,1.919,0,0,1-.6-1.56c0-.221.026-.65.052-.962a2.36,2.36,0,0,0,.013-.26c.585.026.793.026,1.118.026a15,15,0,0,0,1.833-.1c.182-.013.221-.013.351-.026l.026-.871a11.367,11.367,0,0,1-2.392.208c-.182,0-.364,0-.858-.013.078-.728.091-.858.3-2.353.715.026.936.026,1.144.026.377,0,.767-.013,1.17-.052.65-.052.65-.052.91-.078l.039-.9a10.549,10.549,0,0,1-2.379.221c-.208,0-.39,0-.754-.013.065-.364.091-.494.13-.78.117-.715.117-.715.13-.832a6.686,6.686,0,0,1,.208-.871l-1.04-.117v.1a20.459,20.459,0,0,1-.312,2.444,8.39,8.39,0,0,1-2.34-.507l-.117.858c.182.039.234.052.4.091a17.275,17.275,0,0,0,1.937.351c-.1.689-.234,1.7-.3,2.34a8.644,8.644,0,0,1-2.327-.52Zm17.355-1.924H202.6V36.277a6.674,6.674,0,0,1,.052-.962h-.975a9.215,9.215,0,0,1,.065,1V38.89c0,.221-.013.416-.026.663.273-.013.572-.026.806-.026h3.25v4.758h-3.705v-2.4a6.533,6.533,0,0,1,.065-1.1h-.988a7.218,7.218,0,0,1,.065,1.157v2.86a6.833,6.833,0,0,1-.078,1.092h.936V45.1h8.45v.78h.936a6.5,6.5,0,0,1-.078-1.092V41.854a7.22,7.22,0,0,1,.065-1.157h-.988a6.893,6.893,0,0,1,.065,1.118v2.47h-3.874V39.527h3.5c.247,0,.546.013.806.026-.013-.221-.026-.4-.026-.663V36.3a6.414,6.414,0,0,1,.065-.988h-.975a7.075,7.075,0,0,1,.052.949v2.457h-3.419V35.432a5.9,5.9,0,0,1,.091-1.183h-1.053a5.258,5.258,0,0,1,.091,1.183Zm-199,18.092V53.407h3.341a10.221,10.221,0,0,1,1.417.078v-.91a7.324,7.324,0,0,1-1.443.091H6.773v-.429a4.875,4.875,0,0,1,.078-1.079H5.889a6.664,6.664,0,0,1,.078,1.079v.429H2.886a9.268,9.268,0,0,1-1.417-.091v.91a11.8,11.8,0,0,1,1.391-.078H5.967v3.406H2.2A8.934,8.934,0,0,1,.78,56.722v.923a13.177,13.177,0,0,1,1.43-.078H5.6a11.629,11.629,0,0,1-1.326,1.521A13.525,13.525,0,0,1,.663,61.623a3.264,3.264,0,0,1,.585.754,14.99,14.99,0,0,0,2.327-1.586A10.535,10.535,0,0,0,6.019,58c-.039.78-.052,1-.052,1.391v2.327a7.059,7.059,0,0,1-.091,1.261h.988a6.963,6.963,0,0,1-.091-1.261V59.387c0-.338-.013-.689-.052-1.4a11.776,11.776,0,0,0,1.833,2.184,14.171,14.171,0,0,0,3.276,2.21,3.693,3.693,0,0,1,.559-.806,12.042,12.042,0,0,1-3.51-2.2,13.249,13.249,0,0,1-1.716-1.807h3.614a10.99,10.99,0,0,1,1.456.078v-.923a7,7,0,0,1-1.43.091H8.879a19.3,19.3,0,0,0,1.443-2.652l-.806-.325a12.74,12.74,0,0,1-1.547,2.977ZM2.535,54.161A12.356,12.356,0,0,1,3.8,56.6l.728-.377a15.862,15.862,0,0,0-1.287-2.405Zm21.84,6.8a4.444,4.444,0,0,1-.442-.3,11.379,11.379,0,0,0-3.627-1.9c-.052-1.261-.052-1.261-.078-1.989.962-.065,1.989-.169,2.886-.312.455-.065.585-.078.754-.091l-.052-.9a15.691,15.691,0,0,1-3.6.533c-.013-.689-.013-.689-.026-1.755A27.005,27.005,0,0,0,23.2,53.94c.676-.091.676-.091.9-.1l-.065-.884a18.325,18.325,0,0,1-3.848.533,14.509,14.509,0,0,1,.091-1.833h-1a10.18,10.18,0,0,1,.065,1.872c-.429,0-.871.013-1.131.013a16.15,16.15,0,0,1-3.328-.26l-.013.884a1.062,1.062,0,0,1,.182-.013,1.577,1.577,0,0,1,.234.013c1.17.091,2.223.13,3.172.13.3,0,.507,0,.884-.013l.026,1.781c-.364.013-.819.013-1.157.013a15.955,15.955,0,0,1-2.977-.208l-.013.858h.1c.078,0,.182,0,.325.013.806.065,1.417.091,2.2.091.416,0,1.066-.013,1.534-.026.013.338.013.585.026.754.013.377.013.65.026.767a1.036,1.036,0,0,0,.013.143c0,.117,0,.117.013.156a5.782,5.782,0,0,0-1.17-.1,5.663,5.663,0,0,0-1.352.13c-1.144.26-1.82.936-1.82,1.794a1.7,1.7,0,0,0,.7,1.365,3.386,3.386,0,0,0,2.015.52,2.617,2.617,0,0,0,2.2-.819,2.257,2.257,0,0,0,.325-1.417,3.738,3.738,0,0,0-.026-.468c.351.143.65.273.871.39a10.461,10.461,0,0,1,2.652,1.859Zm-4.9-1.053a1.7,1.7,0,0,1-.26,1.17,1.878,1.878,0,0,1-1.43.429c-1.131,0-1.781-.39-1.781-1.079s.845-1.157,2.132-1.157a4.772,4.772,0,0,1,1.326.143Zm13.715-6.565c-.884.026-1.9.052-3.146.1-2.093.078-2.093.078-2.47.078-.195,0-.286,0-.52-.013l.039.949c.871-.143,3.5-.273,6.11-.325v.676c0,.156.013.286.013.338,0,.481,0,.533.013.715a2,2,0,0,0-1.508-.585,2.163,2.163,0,0,0-2.3,2.145,2.173,2.173,0,0,0,3.77,1.352,1.821,1.821,0,0,0,.351-.637,3.367,3.367,0,0,1-1.456,2.743,6.663,6.663,0,0,1-2.106.975,2.854,2.854,0,0,1,.572.819A8.269,8.269,0,0,0,32.6,61.623a4.184,4.184,0,0,0,1.742-3.393,3.725,3.725,0,0,0-.312-1.534V54.122c1.053-.026,1.2-.026,1.391-.026a23.106,23.106,0,0,1,2.483.065v-.923c-.429.052-1.43.078-3.887.091v-.143a10.762,10.762,0,0,1,.065-1.625h-.975a4.381,4.381,0,0,1,.052.754Zm-.039,3.8a1.457,1.457,0,0,1-1.521,1.534,1.256,1.256,0,0,1-1.339-1.287,1.376,1.376,0,0,1,1.443-1.365,1.663,1.663,0,0,1,.871.208A.941.941,0,0,1,33.15,57.138Zm7.215,1.807a1.95,1.95,0,1,0,1.95,1.95A1.947,1.947,0,0,0,40.365,58.945Zm0,.741A1.209,1.209,0,1,1,39.156,60.9,1.215,1.215,0,0,1,40.365,59.686Z" transform="translate(1268.133 1010.145)" fill="#1b1311"/>
    <g id="グループ_62006" data-name="グループ 62006" transform="translate(252.551 -116.352)">
      <g id="長方形_13549" data-name="長方形 13549" transform="translate(1134.473 1068.75)" fill="#fff" stroke="#707070" stroke-width="1">
        <rect id="fill" width="0.541" height="0.541" stroke="none"/>
        <path d="M0,0.041255176067352295h0.5412551760673523M0.5,0v0.5412551760673523M0.5412551760673523,0.5h-0.5412551760673523M0.041255176067352295,0.5412551760673523v-0.5412551760673523" fill="none" clip-path="url(#clip)"/>
      </g>
      <path id="パス_51327" data-name="パス 51327" d="M21.1,10.7a21.89,21.89,0,0,1,37.632,0L76.651,40.653c8.817,14.738-1.726,33.52-18.816,33.52H22c-17.09,0-27.633-18.783-18.816-33.52Z" transform="matrix(0.961, 0.276, -0.276, 0.961, 1098.707, 1013)" fill="#ffc2b9"/>
      <path id="パス_51326" data-name="パス 51326" d="M21.318,10.742a22.191,22.191,0,0,1,38.02,0L77.44,40.8A22.191,22.191,0,0,1,58.43,74.44h-36.2A22.191,22.191,0,0,1,3.216,40.8Z" transform="translate(1152.981 1115.497) rotate(-164)" fill="#ff8977" opacity="0.6"/>
      <g id="グループ_2844" data-name="グループ 2844" transform="translate(1105.267 1056.345) rotate(-17)" clip-path="url(#clip-path)">
        <path id="パス_5740" data-name="パス 5740" d="M25.357,23.666a1.017,1.017,0,0,1-.4-.084L9.4,16.821a1.014,1.014,0,0,1-.61-.93v-2.7a1.014,1.014,0,0,1,2.029,0v2.04l13.524,5.879V2.561L10.209,8.706a1,1,0,0,1-.4.085H2.029v6.086H5.748a1.014,1.014,0,1,1,0,2.029H1.014A1.014,1.014,0,0,1,0,15.89V7.776A1.014,1.014,0,0,1,1.014,6.762h8.58L24.953.084a1.014,1.014,0,0,1,1.419.93V22.652a1.014,1.014,0,0,1-1.014,1.014" transform="translate(3.043 3.013)"/>
        <path id="パス_5741" data-name="パス 5741" d="M6.424,11.5H1.014A1.014,1.014,0,0,1,0,10.481V1.014a1.014,1.014,0,0,1,2.029,0V9.467H5.41V5.748a1.014,1.014,0,0,1,2.029,0v4.733A1.014,1.014,0,0,1,6.424,11.5" transform="translate(7.776 17.889)"/>
      </g>
    </g>
  </g>
</svg>
