<svg xmlns="http://www.w3.org/2000/svg" xmlns:xlink="http://www.w3.org/1999/xlink" width="273.193" height="276.591" viewBox="0 0 273.193 276.591">
  <defs>
    <filter id="パス_106515" x="0" y="0" width="273.193" height="276.591" filterUnits="userSpaceOnUse">
      <feOffset dy="3" input="SourceAlpha"/>
      <feGaussianBlur stdDeviation="3" result="blur"/>
      <feFlood flood-opacity="0.161"/>
      <feComposite operator="in" in2="blur"/>
      <feComposite in="SourceGraphic"/>
    </filter>
    <clipPath id="clip-path">
      <rect id="長方形_1379" data-name="長方形 1379" width="35.182" height="33.558" transform="translate(0 0)"/>
    </clipPath>
  </defs>
  <g id="グループ_62105" data-name="グループ 62105" transform="translate(-1535.597 -534.152)">
    <g transform="matrix(1, 0, 0, 1, 1535.6, 534.15)" filter="url(#パス_106515)">
      <path id="パス_106515-2" data-name="パス 106515" d="M4.252,0H250.941a4.252,4.252,0,0,1,4.252,4.252V254.339a4.252,4.252,0,0,1-4.252,4.252H4.252A4.252,4.252,0,0,1,0,254.339V4.252A4.252,4.252,0,0,1,4.252,0Z" transform="translate(9 6)" fill="#fff"/>
    </g>
    <path id="パス_106518" data-name="パス 106518" d="M3.458,1.783a10.479,10.479,0,0,1,.7,1.261l.689-.273C4.5,2.2,4.472,2.16,4.212,1.783h.9a10.312,10.312,0,0,1,1.209.052V1.042a7.878,7.878,0,0,1-1.3.078H3.068c.169-.286.221-.377.455-.806L2.717.054a5.049,5.049,0,0,1-.936,1.638A6.371,6.371,0,0,1,.6,2.875a1.846,1.846,0,0,1,.585.559A9.543,9.543,0,0,0,2.639,1.783ZM8.7,1.8a8.783,8.783,0,0,1,.832,1.287l.663-.286a9.2,9.2,0,0,0-.689-1h1.261a10.668,10.668,0,0,1,1.365.065V1.055a8.183,8.183,0,0,1-1.391.078H7.826c.195-.4.247-.52.4-.871l-.793-.2a6.119,6.119,0,0,1-1.43,2.522,2.1,2.1,0,0,1,.637.39A7.932,7.932,0,0,0,7.462,1.8ZM10.816,6.45v4.316c0,.3-.1.377-.507.377a9,9,0,0,1-1.274-.117,2.406,2.406,0,0,1,.247.819c.3.013.624.026,1.014.026,1.04,0,1.313-.208,1.313-1.027V4.578a11.731,11.731,0,0,1,.065-1.443,12.444,12.444,0,0,1-1.378.052H8.255c-.559,0-.858-.013-1.17-.039.026.286.039.611.039,1.014V5.488c0,.39-.013.715-.039,1,.416-.026.793-.039,1.365-.039ZM7.865,3.785h2.951v.754H7.865Zm0,1.313h2.951v.767H7.865ZM2.782,3.187c-.585,0-.923-.013-1.287-.039a14.172,14.172,0,0,1,.052,1.43v5.954a9.717,9.717,0,0,1-.078,1.456h.962a7.463,7.463,0,0,1-.078-1.43V6.45H4.511c.6,0,.91.013,1.378.039a9.937,9.937,0,0,1-.039-1V4.162c0-.442.013-.754.039-1.014-.325.026-.637.039-1.17.039Zm-.429.6H5.109v.754H2.353Zm0,1.313H5.109v.767H2.353ZM8.827,8.257a10.414,10.414,0,0,1,.052-1.222,11.807,11.807,0,0,1-1.339.052H5.395a10.972,10.972,0,0,1-1.274-.052c.026.351.052.715.052,1.222v1.872a10.455,10.455,0,0,1-.052,1.17H4.9v-.585H7.54a12.255,12.255,0,0,1,1.339.052,10.172,10.172,0,0,1-.052-1.209ZM4.9,7.7H8.086v.884H4.9Zm0,1.495H8.086v.9H4.9ZM18.993,7.568V8.8H15.08a8.746,8.746,0,0,1-1.313-.078v.91a9.845,9.845,0,0,1,1.352-.078h3.874v1.2a5.779,5.779,0,0,1-.078,1.222h.975a5.24,5.24,0,0,1-.091-1.222v-1.2h4.056a9.658,9.658,0,0,1,1.365.078v-.91a8.628,8.628,0,0,1-1.313.078H19.8V7.568h2.86c.468,0,.845.013,1.287.052a10.145,10.145,0,0,1-.052-1.274V4.019a11.045,11.045,0,0,1,.052-1.3,9.73,9.73,0,0,1-1.287.052h-.39a14.5,14.5,0,0,0,1.4-2.093l-.9-.338a10.564,10.564,0,0,1-1.417,2.431H16.315a9.753,9.753,0,0,1-1.274-.052,11.331,11.331,0,0,1,.052,1.3V6.385a11.248,11.248,0,0,1-.052,1.235,12.774,12.774,0,0,1,1.287-.052ZM19.8,4.76V3.46h3.289v1.3Zm-.806,0H15.9V3.46h3.094ZM19.8,6.866V5.436h3.289v1.43Zm-.806,0H15.9V5.436h3.094ZM17.225,2.342A11.131,11.131,0,0,0,15.873.483l-.741.351a6.928,6.928,0,0,1,1.313,1.885Zm3-.221A10.3,10.3,0,0,0,19.084.158l-.767.26a7.539,7.539,0,0,1,1.118,2.041ZM32.11,1.8a11.3,11.3,0,0,1-.416,2.834,10.519,10.519,0,0,1-2,3.783,10.9,10.9,0,0,1-3.016,2.561,2.332,2.332,0,0,1,.7.767,12.3,12.3,0,0,0,1.638-1.274,12.35,12.35,0,0,0,1.755-1.976,11.2,11.2,0,0,0,1.82-4.212,10.243,10.243,0,0,0,.819,2.405,11.959,11.959,0,0,0,1.859,2.808,12.184,12.184,0,0,0,2.522,2.223,2.869,2.869,0,0,1,.728-.832A10.581,10.581,0,0,1,36.088,9a11.619,11.619,0,0,1-1.95-2.691,9.48,9.48,0,0,1-1.1-4.537,6.733,6.733,0,0,1,.052-.858A6.188,6.188,0,0,1,31.876.99H30.16a4.88,4.88,0,0,1-.988-.065v.936c.429-.039.741-.065.988-.065Zm13.4,1.118c.065-1.131.065-1.131.065-1.742A8.95,8.95,0,0,1,45.643.119H44.616a7.344,7.344,0,0,1,.078,1.261c0,.533-.013.949-.052,1.534H42.055a11.241,11.241,0,0,1-1.612-.078v.949a11.531,11.531,0,0,1,1.6-.078H44.59c-.3,2.782-1.027,4.459-2.535,5.824a8.019,8.019,0,0,1-2.184,1.4,2.079,2.079,0,0,1,.689.728A8.874,8.874,0,0,0,44.174,8.3a11.444,11.444,0,0,0,1.287-4.589h4.017a48.361,48.361,0,0,1-.286,5.057c-.195,1.573-.364,1.9-1.053,1.9a11.712,11.712,0,0,1-2.47-.325,4.087,4.087,0,0,1,.221.975,16.162,16.162,0,0,0,2.314.208c1.04,0,1.43-.351,1.664-1.482a40.306,40.306,0,0,0,.455-5.486c.026-1.235.026-1.235.065-1.7a10.523,10.523,0,0,1-1.521.065Zm7.722.507a43.278,43.278,0,0,1,4.485-.429,26.606,26.606,0,0,0,2.86-.286,8.51,8.51,0,0,0-1.235.689,4.946,4.946,0,0,0-2.431,3.991,3.148,3.148,0,0,0,1.443,2.652,6.557,6.557,0,0,0,2.808,1c.234.039.26.052.4.078l.169-1.053h-.13a6.663,6.663,0,0,1-1.95-.416,2.549,2.549,0,0,1-1.82-2.4,3.973,3.973,0,0,1,1.6-3,6.394,6.394,0,0,1,2.5-1.3,5.453,5.453,0,0,1,1.456-.182L63.31,1.8a8.78,8.78,0,0,1-1.547.143l-.741.026c-.429.013-.6.026-2.2.117l-2.041.13c-1.6.091-1.677.1-2.4.156-.4.026-.559.039-.741.039-.091,0-.221,0-.468-.013Zm7.982,1.248a9.142,9.142,0,0,1,1.326,2.067l.663-.39a9.869,9.869,0,0,0-1.339-2.015Zm1.482-.7a10.288,10.288,0,0,1,1.326,2.041l.65-.364a10.535,10.535,0,0,0-1.339-2.028Zm2.249,5.057a12.975,12.975,0,0,1,2.561,2.834l.728-.689a13.246,13.246,0,0,0-2.613-2.756ZM84.981,2.433a13.138,13.138,0,0,1-2.652.559V1.744A7.435,7.435,0,0,1,82.394.535h-.962A8.635,8.635,0,0,1,81.5,1.77V3.057c-.39.026-.9.039-1.248.039a7.363,7.363,0,0,1-1.326-.091v.858h.533c.143.013.494.013.689.013.377,0,.6,0,.832-.013.4-.026.4-.026.52-.039V6.281a6.954,6.954,0,0,0-1.833,1.066,2.353,2.353,0,0,0-1.027,1.729,1.568,1.568,0,0,0,.6,1.222,3.433,3.433,0,0,0,2.145.832c.637,0,.949-.338.949-1.04V6.84a8.771,8.771,0,0,1,2.756-.507c1.7,0,2.782.793,2.782,2.067a1.726,1.726,0,0,1-1.742,1.833c-.949,0-1.339-.559-1.339-1.911a3.861,3.861,0,0,1,.026-.507,2.818,2.818,0,0,1-.858.338,4.744,4.744,0,0,0,.156,1.469,1.917,1.917,0,0,0,2,1.469A2.675,2.675,0,0,0,87.425,6.1a4.4,4.4,0,0,0-2.3-.546,9.21,9.21,0,0,0-2.8.468V3.772a22.817,22.817,0,0,0,2.3-.39c.182-.039.234-.052.39-.078ZM81.5,9.609c0,.559-.039.637-.3.637a2.428,2.428,0,0,1-1.157-.377c-.377-.247-.559-.507-.559-.78,0-.624.728-1.326,2.015-1.95Zm7.813-5.5a10.924,10.924,0,0,0-2.626-2.47l-.676.507a10.647,10.647,0,0,1,2.626,2.548Zm5.746,4.069a3.05,3.05,0,0,1-.234.9,3.249,3.249,0,0,1-1.807,1.677,7.753,7.753,0,0,1-1.989.546,2.613,2.613,0,0,1,.455.78,6.363,6.363,0,0,0,3.328-1.534,3.821,3.821,0,0,0,1.144-2.366h1.586v2.613c0,.416.078.585.312.728a4.575,4.575,0,0,0,1.911.221c2.47,0,2.613-.117,2.912-2.444a3.932,3.932,0,0,1-.819-.351,4.344,4.344,0,0,1-.312,1.7c-.182.273-.481.325-1.716.325-1.326,0-1.456-.039-1.456-.442V8.179H99.5c.7,0,1.092.013,1.456.039a9.836,9.836,0,0,1-.065-1.365V2.446a17.122,17.122,0,0,1,.065-1.729,13.891,13.891,0,0,1-1.391.065H94.133A11.1,11.1,0,0,1,92.742.717a16.935,16.935,0,0,1,.065,1.729V6.853a10.067,10.067,0,0,1-.065,1.365c.4-.026.741-.039,1.469-.039Zm-1.443-6.63h6.474V2.966H93.613Zm0,2.145h6.474V5.189H93.613Zm0,2.223h6.474V7.464H93.613Zm14.313-1.235a8.018,8.018,0,0,1,1.2-.078h5.3a6.654,6.654,0,0,1,1.209.078V3.889a7.724,7.724,0,0,1-1.209.078h-2.47V3.135h1.794a6.483,6.483,0,0,1,1.144.065V2.472a6.456,6.456,0,0,1-1.17.065h-1.768V1.77h2.2a6.852,6.852,0,0,1,1.144.065V1.068a8.152,8.152,0,0,1-1.17.078h-2.171a5,5,0,0,1,.078-.975h-.91a5.187,5.187,0,0,1,.078.975h-1.846a6.407,6.407,0,0,1-1.131-.065v.754a6.186,6.186,0,0,1,1.092-.065H111.2v.767h-1.56a5.938,5.938,0,0,1-1.079-.065V3.2a5.923,5.923,0,0,1,1.092-.065H111.2v.832h-2.08a7.923,7.923,0,0,1-1.131-.052V3.447a5.706,5.706,0,0,1-.91.052h-.416V1.354a11.389,11.389,0,0,0,1.092-.416,2.757,2.757,0,0,1,.312-.13l-.481-.676a1.932,1.932,0,0,1-.533.3,10.079,10.079,0,0,1-3.029.806,1.654,1.654,0,0,1,.338.676,13.253,13.253,0,0,0,1.534-.338V3.5h-.7a6.59,6.59,0,0,1-1.131-.065v.845a6.441,6.441,0,0,1,1.105-.065h.624A9.387,9.387,0,0,1,103.805,8.3a2.562,2.562,0,0,1,.494.676A8.872,8.872,0,0,0,105.976,5.4c-.052.7-.078,1.534-.078,2.145v2.925a10.5,10.5,0,0,1-.078,1.482h.923a9.967,9.967,0,0,1-.078-1.495V7.165c0-.533-.026-1.339-.065-1.963a6.3,6.3,0,0,0,1.04,2,2.577,2.577,0,0,1,.455-.624,5.688,5.688,0,0,1-1.4-2.366h.377a7.309,7.309,0,0,1,.858.039Zm5.759,5.278c.442,0,.728.013,1.118.039a8.58,8.58,0,0,1-.052-1.235V6.424a7.938,7.938,0,0,1,.052-1.2c-.338.026-.6.039-1.157.039h-3.952c-.533,0-.845-.013-1.144-.039A7.747,7.747,0,0,1,108.6,6.4V8.8a9.138,9.138,0,0,1-.052,1.2q.234-.019,1.17-.039Zm-4.329-4.069H114v.741h-4.641Zm0,1.313H114v.741h-4.641Zm0,1.313H114v.819h-4.641Zm.793,1.586a7.151,7.151,0,0,1-2.873,1.261,2.482,2.482,0,0,1,.494.676,8.149,8.149,0,0,0,2.951-1.456Zm2.431.494a9.733,9.733,0,0,0,2.925,1.43,2.986,2.986,0,0,1,.481-.715,9.785,9.785,0,0,1-2.9-1.222Zm9.867-8.32h-3.861a9.4,9.4,0,0,1-1.443-.078v.78a10.4,10.4,0,0,1,1.443-.065h3.861V3.72h-2.769a8.247,8.247,0,0,1-1.274-.065v.754a8.332,8.332,0,0,1,1.287-.065h2.756V5.1h-2.99a8.608,8.608,0,0,1-1.313-.065V5.8a8.926,8.926,0,0,1,1.313-.065h2.99v.793h-3.861a9.481,9.481,0,0,1-1.456-.078v.819a11.551,11.551,0,0,1,1.456-.078h8.593a11.474,11.474,0,0,1,1.443.078V6.45a9.284,9.284,0,0,1-1.443.078h-3.965V5.735h3.133a8.947,8.947,0,0,1,1.3.065V5.033a8.417,8.417,0,0,1-1.3.065h-3.133V4.344h2.652a13.568,13.568,0,0,1,1.417.052,9.625,9.625,0,0,1-.039-1.079v-.4a9.232,9.232,0,0,1,1.4.065V2.2a7.993,7.993,0,0,1-1.339.078h-.065V1.991A9.955,9.955,0,0,1,127.283.86a13.612,13.612,0,0,1-1.456.052h-2.613a3.839,3.839,0,0,1,.091-.884h-.936a5.582,5.582,0,0,1,.078.884h-2.7A7.127,7.127,0,0,1,118.43.834v.78a8.287,8.287,0,0,1,1.248-.065h2.769Zm.767,0V1.549h3.263v.728Zm0,.637h3.263V3.72h-3.263Zm-4.381,7.748a7.842,7.842,0,0,1-.078,1.274h.871v-.494h6.552v.494h.884a6.048,6.048,0,0,1-.078-1.274V9.089a8.446,8.446,0,0,1,.052-1.248,11.425,11.425,0,0,1-1.521.039h-5.226a11.3,11.3,0,0,1-1.508-.039,8.82,8.82,0,0,1,.052,1.235Zm.793-2.145h6.552v.806h-6.552Zm0,1.43h6.552v.858h-6.552Zm12.3-8.58a13.06,13.06,0,0,1,.936,2.47c-.208.065-.338.091-.663.208a14.267,14.267,0,0,1-1.911.611l.338.923a12.39,12.39,0,0,1,1.781-.715,5.619,5.619,0,0,0,.7-.234,46.231,46.231,0,0,1,1.638,7.02l1.053-.234a4.124,4.124,0,0,1-.169-.559c-.546-2.444-1.014-4.277-1.677-6.487a15.328,15.328,0,0,1,4.238-.923c1.313,0,2.08.585,2.08,1.573a1.576,1.576,0,0,1-.624,1.326,2.633,2.633,0,0,1-1.56.507,4.418,4.418,0,0,1-2.184-.6A5.789,5.789,0,0,1,135.98,7a1.869,1.869,0,0,1-.013.234,5.505,5.505,0,0,0,2.2.481,2.779,2.779,0,0,0,3.055-2.678c0-1.456-1.118-2.392-2.86-2.392a6.547,6.547,0,0,0-.975.078c-.013-.156-.013-.4-.013-.416a12.266,12.266,0,0,1,.065-1.755h-.975a18.017,18.017,0,0,1,.052,2.3,23.055,23.055,0,0,0-2.795.728c-.182-.585-.312-.949-.572-1.716a5.225,5.225,0,0,1-.247-.793ZM143.143,6.7a2.039,2.039,0,0,1,.481-.065c1.027-.078,1.027-.078,1.612-.13v4.186a9.566,9.566,0,0,1-.078,1.3h.936a9.043,9.043,0,0,1-.078-1.3V6.437c.481-.052.7-.078,1.183-.156a8.063,8.063,0,0,1,.247.819l.637-.312a15.452,15.452,0,0,0-1.053-2.522l-.6.26a12.374,12.374,0,0,1,.533,1.118c-.663.091-1.222.143-2.067.195.559-.7,1.326-1.781,1.781-2.5a14.455,14.455,0,0,1,.819-1.235l-.754-.442a9.671,9.671,0,0,1-1.326,2.34c-.325-.39-.442-.533-.806-.923A17.016,17.016,0,0,0,145.86.938a3.486,3.486,0,0,1,.273-.481l-.806-.351a9.653,9.653,0,0,1-1.209,2.457c-.221-.221-.325-.325-.624-.611l-.481.6a15.794,15.794,0,0,1,1.976,2.106c-.156.221-.468.637-.936,1.222-.3.013-.377.013-.52.013a3.139,3.139,0,0,1-.52-.039Zm8.294.871V7.087a7.965,7.965,0,0,1,.078-1.352h-.949a7.755,7.755,0,0,1,.078,1.352v.481H149.5a5.714,5.714,0,0,1-1.209-.078v.858A10.6,10.6,0,0,1,149.5,8.3h1.144V10.7h-1.859a8.444,8.444,0,0,1-1.222-.065v.858a9.1,9.1,0,0,1,1.287-.078h4.589a8.975,8.975,0,0,1,1.287.078v-.858a7.733,7.733,0,0,1-1.287.065h-2V8.3h1.469a10.355,10.355,0,0,1,1.2.052V7.49a6.9,6.9,0,0,1-1.2.078ZM153.6.782a5.858,5.858,0,0,1-1,.052h-3.666a7.458,7.458,0,0,1-1.274-.065V1.6a6.467,6.467,0,0,1,.936-.065,8.1,8.1,0,0,0,1.95,2.613,9.431,9.431,0,0,1-2.613,1.3,2.427,2.427,0,0,1,.455.728,12.309,12.309,0,0,0,2.756-1.534,11.072,11.072,0,0,0,3.289,1.7,2.241,2.241,0,0,1,.429-.806,9.109,9.109,0,0,1-3.12-1.391A9.791,9.791,0,0,0,153.4,2.277c.494-.754.494-.754.676-1Zm-.611.754a8.337,8.337,0,0,1-1.859,2.171,6.405,6.405,0,0,1-1.742-2.171ZM143.806,7.3a9.992,9.992,0,0,1-.689,3.523l.728.338a7.932,7.932,0,0,0,.364-1.4,16.415,16.415,0,0,0,.325-2.288Zm2.808.13a12.187,12.187,0,0,1,.585,2.769l.715-.247a16.677,16.677,0,0,0-.663-2.743ZM162.24,10.74h-2.054V8.686a4.348,4.348,0,0,1,.065-.91h-.91a4.741,4.741,0,0,1,.065.91V10.74h-.416a10.379,10.379,0,0,1-1.443-.078v.884a10.382,10.382,0,0,1,1.573-.078h6.656a14.092,14.092,0,0,1,1.664.078v-.884a12.987,12.987,0,0,1-1.612.078H163.02V9H165.2a9.927,9.927,0,0,1,1.378.065V8.231A9.156,9.156,0,0,1,165.2,8.3H163.02V7.8a4.424,4.424,0,0,1,.065-.91h-.91a5.887,5.887,0,0,1,.065.923Zm1.846-7.215a6.682,6.682,0,0,1-2.184,2.5,2.482,2.482,0,0,1,.533.507A6.777,6.777,0,0,0,164.32,4.1c-.026.689-.039,1.092-.039,1.2v.871a5.766,5.766,0,0,1-.078.962h.832a5.054,5.054,0,0,1-.065-.975v-.91c-.013-.286-.013-.286-.013-.7a4.689,4.689,0,0,0-.039-.507A7.728,7.728,0,0,0,167,6.541a3.221,3.221,0,0,1,.585-.611,7.368,7.368,0,0,1-2.418-2.405h1.17a4.68,4.68,0,0,1,.832.052V2.823a4.5,4.5,0,0,1-.832.052H164.97V2.784a4.173,4.173,0,0,1,.052-.923h-.793a5.191,5.191,0,0,1,.052.923v.091h-.832a4.658,4.658,0,0,1-.845-.052v.754a4.034,4.034,0,0,1,.793-.052Zm-4.251,0a7.065,7.065,0,0,1-1.989,2.314,2.245,2.245,0,0,1,.507.546,6.7,6.7,0,0,0,1.7-2.3c-.026.507-.039.91-.039,1.144v.91a6.084,6.084,0,0,1-.078.988h.832a4.973,4.973,0,0,1-.065-.975v-.91c0-.234-.026-.793-.052-1.183a5.208,5.208,0,0,0,1.157,1.508,3.019,3.019,0,0,1,.52-.546,4.953,4.953,0,0,1-1.456-1.495h.572a5.9,5.9,0,0,1,.78.039V2.823a4.168,4.168,0,0,1-.819.052h-.7V2.784a5.191,5.191,0,0,1,.052-.923h-.793a5.191,5.191,0,0,1,.052.923v.091h-1.092a4.1,4.1,0,0,1-.806-.052v.754a4.1,4.1,0,0,1,.806-.052ZM157.716,1.5h8.255a9.354,9.354,0,0,1,1.391.065V.691a10.081,10.081,0,0,1-1.456.078h-7.5A13.664,13.664,0,0,1,156.832.7a17.029,17.029,0,0,1,.065,2.067c0,4.6-.312,6.617-1.287,8.385a2.981,2.981,0,0,1,.663.676c1.118-2.106,1.443-4.238,1.443-9.412Zm16.731.78h-3.861a9.4,9.4,0,0,1-1.443-.078v.78a10.4,10.4,0,0,1,1.443-.065h3.861V3.72h-2.769a8.247,8.247,0,0,1-1.274-.065v.754a8.332,8.332,0,0,1,1.287-.065h2.756V5.1h-2.99a8.607,8.607,0,0,1-1.313-.065V5.8a8.925,8.925,0,0,1,1.313-.065h2.99v.793h-3.861a9.481,9.481,0,0,1-1.456-.078v.819a11.551,11.551,0,0,1,1.456-.078h8.593a11.474,11.474,0,0,1,1.443.078V6.45a9.284,9.284,0,0,1-1.443.078h-3.965V5.735h3.133a8.947,8.947,0,0,1,1.3.065V5.033a8.417,8.417,0,0,1-1.3.065h-3.133V4.344h2.652a13.567,13.567,0,0,1,1.417.052,9.625,9.625,0,0,1-.039-1.079v-.4a9.232,9.232,0,0,1,1.4.065V2.2a7.993,7.993,0,0,1-1.339.078h-.065V1.991A9.955,9.955,0,0,1,179.283.86a13.612,13.612,0,0,1-1.456.052h-2.613a3.839,3.839,0,0,1,.091-.884h-.936a5.582,5.582,0,0,1,.078.884h-2.7A7.127,7.127,0,0,1,170.43.834v.78a8.287,8.287,0,0,1,1.248-.065h2.769Zm.767,0V1.549h3.263v.728Zm0,.637h3.263V3.72h-3.263Zm-4.381,7.748a7.842,7.842,0,0,1-.078,1.274h.871v-.494h6.552v.494h.884a6.047,6.047,0,0,1-.078-1.274V9.089a8.445,8.445,0,0,1,.052-1.248,11.425,11.425,0,0,1-1.521.039h-5.226a11.3,11.3,0,0,1-1.508-.039,8.82,8.82,0,0,1,.052,1.235Zm.793-2.145h6.552v.806h-6.552Zm0,1.43h6.552v.858h-6.552Zm16.913-6.994v7.683A8.145,8.145,0,0,1,188.461,12h1a7.1,7.1,0,0,1-.091-1.365V8.647h2.678a7.413,7.413,0,0,1,1.144.078v-.9a7.413,7.413,0,0,1-1.144.078h-2.678V5.8h2.639a8.043,8.043,0,0,1,1.144.078v-.9a7.3,7.3,0,0,1-1.144.078h-2.639V2.953h3.055a7.179,7.179,0,0,1,1.183.065V2.134a6.274,6.274,0,0,1-1.183.078h-4.121c.195-.455.26-.624.442-1.157a6.466,6.466,0,0,1,.26-.663l-.91-.3a7.149,7.149,0,0,1-.546,1.846,11.269,11.269,0,0,1-2.3,3.562,1.875,1.875,0,0,1,.65.624,14.645,14.645,0,0,0,2.067-3.172ZM185.068.093a6.9,6.9,0,0,1-.546,1.742,11.283,11.283,0,0,1-2.743,3.9,2.557,2.557,0,0,1,.546.689,9.679,9.679,0,0,0,1.612-2.054c-.039.767-.052,1.118-.052,1.677v4.316a11.729,11.729,0,0,1-.091,1.586h1.014a10.961,10.961,0,0,1-.091-1.56V3.278a16.954,16.954,0,0,0,.962-2.158c.1-.26.143-.377.3-.728Zm19.747,4.043a10.01,10.01,0,0,1-1.6,3.575,15.269,15.269,0,0,1-.858-4.68H205.1a10.723,10.723,0,0,1,1.456.065V2.212a7.075,7.075,0,0,1-1.391.078h-2.834c-.026-.611-.026-.806-.026-1.04a5.61,5.61,0,0,1,.065-1.066h-1a12.584,12.584,0,0,1,.13,2.106h-3.835a13.768,13.768,0,0,1-1.586-.065,8.526,8.526,0,0,1,.078,1.521,24.726,24.726,0,0,1-.429,5.46,5.32,5.32,0,0,1-.91,1.95,2.4,2.4,0,0,1,.689.585,6.131,6.131,0,0,0,.988-2.275,18.122,18.122,0,0,0,.416-3.588h2.6a19.457,19.457,0,0,1-.169,2.548c-.091.572-.2.689-.624.689a6.75,6.75,0,0,1-1.534-.208,3.038,3.038,0,0,1,.156.845,7.734,7.734,0,0,0,1.365.117c.728,0,1.014-.117,1.209-.52a9.669,9.669,0,0,0,.39-2.8A12.674,12.674,0,0,1,200.4,5.1a6.419,6.419,0,0,1-.975.052h-2.483c.013-.546.026-.988.026-2.119h4.576a16.5,16.5,0,0,0,1.105,5.408,9.416,9.416,0,0,1-3.861,2.691,2.214,2.214,0,0,1,.637.663,11.055,11.055,0,0,0,3.6-2.587,6.324,6.324,0,0,0,1.079,1.456,2.372,2.372,0,0,0,1.365.806c.338,0,.6-.208.806-.624a5.452,5.452,0,0,0,.468-1.586,3.573,3.573,0,0,1-.7-.572c-.156,1.2-.377,1.872-.585,1.872a1.23,1.23,0,0,1-.559-.3A4.653,4.653,0,0,1,203.58,8.53a11.9,11.9,0,0,0,1.729-3.172c.221-.52.351-.806.39-.871Zm.715-2.6A10.18,10.18,0,0,0,203.671.249L203.112.7a8.6,8.6,0,0,1,1.872,1.378Zm3.055,1.885a43.278,43.278,0,0,1,4.485-.429,26.605,26.605,0,0,0,2.86-.286A8.51,8.51,0,0,0,214.7,3.4a4.946,4.946,0,0,0-2.431,3.991,3.148,3.148,0,0,0,1.443,2.652,6.558,6.558,0,0,0,2.808,1c.234.039.26.052.4.078l.169-1.053h-.13a6.663,6.663,0,0,1-1.95-.416,2.549,2.549,0,0,1-1.82-2.4,3.973,3.973,0,0,1,1.6-3,6.394,6.394,0,0,1,2.5-1.3,5.452,5.452,0,0,1,1.456-.182L218.66,1.8a8.78,8.78,0,0,1-1.547.143l-.741.026c-.429.013-.6.026-2.2.117l-2.041.13c-1.6.091-1.677.1-2.4.156-.4.026-.559.039-.741.039-.091,0-.221,0-.468-.013Zm7.982,1.248a9.142,9.142,0,0,1,1.326,2.067l.663-.39a9.869,9.869,0,0,0-1.339-2.015Zm1.482-.7a10.288,10.288,0,0,1,1.326,2.041l.65-.364a10.535,10.535,0,0,0-1.339-2.028ZM2.015,20.434a7.1,7.1,0,0,1,.806-.039,27.656,27.656,0,0,0,3.51-.234c.325.7.4.845.741,1.482a25.9,25.9,0,0,1-4.1.325,10.1,10.1,0,0,1-1.04-.039l.026.858c.234-.026.286-.026.91-.052a27.084,27.084,0,0,0,4.563-.377,11.915,11.915,0,0,0,1.391,2A7.814,7.814,0,0,0,6.2,23.983c-2.47,0-3.965.845-3.965,2.249a1.816,1.816,0,0,0,.975,1.612,5.245,5.245,0,0,0,2.678.546,11.323,11.323,0,0,0,3.328-.481,7.57,7.57,0,0,1,.78-.221l-.182-1.014a8.763,8.763,0,0,1-3.848.871c-1.781,0-2.769-.468-2.769-1.326,0-.9,1.209-1.482,3.081-1.482a13.143,13.143,0,0,1,1.7.117,3.525,3.525,0,0,1,1.43.494l.767-.546a15.237,15.237,0,0,1-1.911-2.587c.481-.091,1.131-.234,2.041-.468.429-.117.481-.117.7-.169l-.1-.871a13.224,13.224,0,0,1-2.977.806c-.195-.351-.546-1.04-.741-1.469.728-.117,2.119-.416,3.276-.728l-.078-.845a16.446,16.446,0,0,1-3.471.858A10.827,10.827,0,0,1,6.227,17.5l-.975.169a16.835,16.835,0,0,1,.78,1.781,25.685,25.685,0,0,1-3.081.182c-.442,0-.663-.013-.975-.039Zm22.36,6.526a4.444,4.444,0,0,1-.442-.3,11.379,11.379,0,0,0-3.627-1.9c-.052-1.261-.052-1.261-.078-1.989.962-.065,1.989-.169,2.886-.312.455-.065.585-.078.754-.091l-.052-.9a15.691,15.691,0,0,1-3.6.533c-.013-.689-.013-.689-.026-1.755A27.006,27.006,0,0,0,23.2,19.94c.676-.091.676-.091.9-.1l-.065-.884a18.325,18.325,0,0,1-3.848.533,14.509,14.509,0,0,1,.091-1.833h-1a10.18,10.18,0,0,1,.065,1.872c-.429,0-.871.013-1.131.013a16.15,16.15,0,0,1-3.328-.26l-.013.884a1.062,1.062,0,0,1,.182-.013,1.578,1.578,0,0,1,.234.013c1.17.091,2.223.13,3.172.13.3,0,.507,0,.884-.013l.026,1.781c-.364.013-.819.013-1.157.013a15.955,15.955,0,0,1-2.977-.208l-.013.858h.1c.078,0,.182,0,.325.013.806.065,1.417.091,2.2.091.416,0,1.066-.013,1.534-.026.013.338.013.585.026.754.013.377.013.65.026.767a1.036,1.036,0,0,0,.013.143c0,.117,0,.117.013.156a5.782,5.782,0,0,0-1.17-.1,5.663,5.663,0,0,0-1.352.13c-1.144.26-1.82.936-1.82,1.794a1.7,1.7,0,0,0,.7,1.365,3.386,3.386,0,0,0,2.015.52,2.617,2.617,0,0,0,2.2-.819,2.257,2.257,0,0,0,.325-1.417,3.738,3.738,0,0,0-.026-.468c.351.143.65.273.871.39a10.461,10.461,0,0,1,2.652,1.859Zm-4.9-1.053a1.7,1.7,0,0,1-.26,1.17,1.878,1.878,0,0,1-1.43.429c-1.131,0-1.781-.39-1.781-1.079s.845-1.157,2.132-1.157a4.772,4.772,0,0,1,1.326.143Zm13.715-6.565c-.884.026-1.9.052-3.146.1-2.093.078-2.093.078-2.47.078-.195,0-.286,0-.52-.013l.039.949c.871-.143,3.5-.273,6.11-.325v.676c0,.156.013.286.013.338,0,.481,0,.533.013.715a2,2,0,0,0-1.508-.585,2.163,2.163,0,0,0-2.3,2.145,2.173,2.173,0,0,0,3.77,1.352,1.821,1.821,0,0,0,.351-.637,3.367,3.367,0,0,1-1.456,2.743,6.663,6.663,0,0,1-2.106.975,2.854,2.854,0,0,1,.572.819A8.269,8.269,0,0,0,32.6,27.623a4.184,4.184,0,0,0,1.742-3.393,3.725,3.725,0,0,0-.312-1.534V20.122c1.053-.026,1.2-.026,1.391-.026a23.106,23.106,0,0,1,2.483.065v-.923c-.429.052-1.43.078-3.887.091v-.143a10.762,10.762,0,0,1,.065-1.625h-.975a4.381,4.381,0,0,1,.052.754Zm-.039,3.8a1.457,1.457,0,0,1-1.521,1.534,1.256,1.256,0,0,1-1.339-1.287,1.376,1.376,0,0,1,1.443-1.365,1.663,1.663,0,0,1,.871.208A.941.941,0,0,1,33.15,23.138Zm7.215,1.807a1.95,1.95,0,1,0,1.95,1.95A1.947,1.947,0,0,0,40.365,24.945Zm0,.741A1.209,1.209,0,1,1,39.156,26.9,1.215,1.215,0,0,1,40.365,25.686Zm15.3,2.717a8.842,8.842,0,0,1-.065-1.378V23.112a4.54,4.54,0,0,0-.052-.767l.026-.013a1.434,1.434,0,0,0,.4.221,26.505,26.505,0,0,1,4.849,2.574l.559-.962A32.241,32.241,0,0,0,55.6,21.422V18.991a8.16,8.16,0,0,1,.065-1.352H54.548a7.708,7.708,0,0,1,.078,1.326v8.073a8.361,8.361,0,0,1-.078,1.365ZM66.612,19.16a8.663,8.663,0,0,1,1.352-.065h4.368a8.663,8.663,0,0,1,1.352.065v-1a5.966,5.966,0,0,1-1.365.091H67.977a5.966,5.966,0,0,1-1.365-.091Zm-1.118,2.99A11.967,11.967,0,0,1,67,22.085h6.786a8.009,8.009,0,0,1-2.106,3.406,8.923,8.923,0,0,1-3.861,1.976,2.828,2.828,0,0,1,.559.9c3.367-1.131,5.161-2.8,6.266-5.824a3.77,3.77,0,0,1,.364-.819l-.481-.559a2.195,2.195,0,0,1-.845.091H67.015a9.353,9.353,0,0,1-1.521-.078Zm21.814-2.678.481-.286a9.55,9.55,0,0,0-1.4-2.08l-.65.338a9.04,9.04,0,0,1,1.222,1.768c-.325.013-.494.013-.767.013H79.911a9.216,9.216,0,0,1-1.469-.078v1.04a9.6,9.6,0,0,1,1.456-.078h6.617a10.535,10.535,0,0,1-2.275,4.628,10.439,10.439,0,0,1-4.758,2.951,2.572,2.572,0,0,1,.637.9A11.952,11.952,0,0,0,84.2,26.141a10.8,10.8,0,0,0,3.185-5.4,2.384,2.384,0,0,1,.273-.806ZM87.425,17a9.639,9.639,0,0,1,1.339,2.041l.663-.39a11.323,11.323,0,0,0-1.365-2Zm4.992,1.092a5.782,5.782,0,0,1,.052.923,17.735,17.735,0,0,1-.585,5.577,6.431,6.431,0,0,1-2.2,2.99,2.4,2.4,0,0,1,.78.7,7.947,7.947,0,0,0,2.249-3.211c.494-1.313.6-2.275.7-5.8a6.476,6.476,0,0,1,.078-1.118ZM95.654,18a5.216,5.216,0,0,1,.052,1.157l-.078,7.6a2.191,2.191,0,0,1-.091.884l.52.6a2.165,2.165,0,0,1,.3-.143c.182-.065.182-.065.416-.156A8.569,8.569,0,0,0,98.631,27a7.386,7.386,0,0,0,2.613-3.341,3.635,3.635,0,0,1-.728-.754,6.429,6.429,0,0,1-1.534,2.6,6.008,6.008,0,0,1-2.418,1.508l.078-7.852a5.04,5.04,0,0,1,.078-1.144Zm11.6,2.626a11.63,11.63,0,0,1-1.352-.052,7.517,7.517,0,0,1,.052,1v2.834a7.393,7.393,0,0,1-.052,1,10.931,10.931,0,0,1,1.352-.052h2.288a12.99,12.99,0,0,1,1.352.052,7.034,7.034,0,0,1-.052-1V21.578a6.693,6.693,0,0,1,.052-1,11.63,11.63,0,0,1-1.352.052Zm-.494.715h3.276v3.3h-3.276Zm7.033,7.644a10.221,10.221,0,0,1-.078-1.534V19.381a13.962,13.962,0,0,1,.078-1.6,13.05,13.05,0,0,1-1.547.065h-7.657a12.581,12.581,0,0,1-1.521-.065,14.285,14.285,0,0,1,.078,1.6v8.047a11.136,11.136,0,0,1-.078,1.56h.923v-.767h8.879v.767Zm-9.8-10.387h8.879v8.866h-8.879Zm20.436,3.562v1.482h-.65a5.038,5.038,0,0,1-.988-.065v.832a8.167,8.167,0,0,1,.975-.052h.663v1.625a6.605,6.605,0,0,1-.065,1.066h.884a5.528,5.528,0,0,1-.065-1.066V24.36H126a6.13,6.13,0,0,1,.975.052V23.58a4.909,4.909,0,0,1-.962.065h-.832V22.163h1a8.24,8.24,0,0,1,.988.052v-.806a4.894,4.894,0,0,1-.975.065H125.7a11.258,11.258,0,0,0,.754-1.911l-.676-.234a10.224,10.224,0,0,1-.767,2.145h-1.495a5.836,5.836,0,0,1-.949-.052v.793a7.673,7.673,0,0,1,.962-.052ZM119.7,25.569c0,.442-.013.715-.039,1.092.208-.026.7-.039,1.092-.039h.6c.39,0,.78.013,1.04.039a7.315,7.315,0,0,1-.026-1.053V23.632c0-.585.013-.936.026-1.053a9.762,9.762,0,0,1-1.04.039h-.728a7.426,7.426,0,0,1-.949-.026c.039-.39.065-.7.117-1.339h1.482c.442,0,.7.013,1.04.039a6.026,6.026,0,0,1-.039-.871V18.432a6.152,6.152,0,0,1,.039-.871,9.308,9.308,0,0,1-1.079.039h-.962a7.921,7.921,0,0,1-1.209-.052,9.452,9.452,0,0,1,.052,1.131c0,3.887-.182,5.135-1,6.825a2.658,2.658,0,0,1,.585.611,9.7,9.7,0,0,0,.975-3.51c.013.208.026.559.026,1.027Zm.117-5.005.039-2.275h1.716v2.275Zm.546,2.73h1.339v2.652h-1.339Zm4.043-4.849h-.715a4.973,4.973,0,0,1-.975-.065v.806a5.5,5.5,0,0,1,.936-.052H126.1a6.211,6.211,0,0,1,.975.052V18.38a4.973,4.973,0,0,1-.975.065h-.923v-.4a3.519,3.519,0,0,1,.065-.819h-.9a4.488,4.488,0,0,1,.065.832ZM123.2,19.537a10.176,10.176,0,0,1,.546,1.755l.637-.234a11.664,11.664,0,0,0-.546-1.742Zm-4.953.286a13.077,13.077,0,0,0-1.937-2.392l-.611.494a12.189,12.189,0,0,1,1.885,2.444Zm-2.73,3.328a4.663,4.663,0,0,1,.949-.065h.663v3.3a8.242,8.242,0,0,1-1.833,1.43l.455.845.4-.4c.013-.013.156-.13.377-.312.091-.078.221-.195.364-.338a7.822,7.822,0,0,0,.65-.663,3.221,3.221,0,0,0,1.079,1.027c.806.468,1.638.6,3.8.6,1.378,0,3.12-.039,4.836-.091a2.635,2.635,0,0,1,.3-.949,48.228,48.228,0,0,1-5.408.247,7.484,7.484,0,0,1-3.068-.39,2.142,2.142,0,0,1-1.17-1.209V23.671a9.813,9.813,0,0,1,.065-1.378,6.441,6.441,0,0,1-.988.065h-.468a4.313,4.313,0,0,1-1-.065Zm19.6-3.77a3.741,3.741,0,0,1,1.508.325,3.427,3.427,0,0,1,2.067,3.263,3.924,3.924,0,0,1-2.3,3.64,7.792,7.792,0,0,1-2.171.611,2.066,2.066,0,0,1,.455.871,10.057,10.057,0,0,0,1.976-.6,4.734,4.734,0,0,0,2.977-4.485,4.352,4.352,0,0,0-1.261-3.172,5.033,5.033,0,0,0-3.575-1.287,5.279,5.279,0,0,0-5.564,5.317c0,1.82.923,3.172,2.158,3.172.936,0,1.7-.78,2.457-2.5A19.487,19.487,0,0,0,135.122,19.381Zm-.936.013A17.856,17.856,0,0,1,133,24.2c-.559,1.274-1.079,1.885-1.625,1.885-.7,0-1.248-.962-1.248-2.21a4.5,4.5,0,0,1,2.119-3.874A4.106,4.106,0,0,1,134.186,19.394Zm8.177,1.352a1.936,1.936,0,0,1,.221-.013h.052c.507.026.624.026,1.079.026.481,0,.637,0,.9-.013a26.145,26.145,0,0,1-2.444,7.189l.949.4a34.256,34.256,0,0,0,1.495-3.965c.351-1.183.715-2.652.91-3.679a19,19,0,0,0,2.2-.312c.26-.052.26-.052.364-.065l-.065-.9a10.719,10.719,0,0,1-2.34.442c.065-.39.1-.572.169-.988a12.289,12.289,0,0,1,.234-1.235l-1.027-.1a12.712,12.712,0,0,1-.286,2.392c-.377.026-.52.026-.78.026a8.965,8.965,0,0,1-1.625-.117Zm9.815.637c-.975-.039-1.17-.039-1.417-.039a14.729,14.729,0,0,0-3.445.429l.091.884a11.315,11.315,0,0,1,3.25-.442,13.052,13.052,0,0,1,1.534.091Zm-4.732,2.808c-.689.884-.871,1.287-.871,1.872,0,1.287,1.1,1.95,3.237,1.95a13.026,13.026,0,0,0,2.314-.221c.429-.065.429-.065.572-.091l-.091-.975a9.659,9.659,0,0,1-2.873.442c-1.482,0-2.275-.416-2.275-1.2a1.565,1.565,0,0,1,.325-.923,4.358,4.358,0,0,1,.39-.494Zm9.36-5.8a3.033,3.033,0,0,1,.169.689c.117.65.273,1.417.364,1.833a5,5,0,0,0-1.3,1.326,4.668,4.668,0,0,0-.754,2.483c0,1.534.741,2.548,1.872,2.548a3.174,3.174,0,0,0,2.314-1.482,14.708,14.708,0,0,0,2.522-5.1c1.794.377,2.743,1.417,2.743,3a3.2,3.2,0,0,1-.572,1.846,4.23,4.23,0,0,1-1.95,1.417,5.891,5.891,0,0,1-1.937.481,2.148,2.148,0,0,1,.507.871c.559-.13.624-.143.819-.195a6.9,6.9,0,0,0,2.626-1.287,4.087,4.087,0,0,0,1.417-3.12,3.789,3.789,0,0,0-3.445-3.783c.065-.247.091-.39.156-.611a10.267,10.267,0,0,1,.351-1.365l-.975-.208a14.6,14.6,0,0,1-.4,2.093c-.182-.013-.338-.013-.429-.013a6.194,6.194,0,0,0-2.782.65,16.85,16.85,0,0,1-.351-2.262Zm.754,3.393a17.97,17.97,0,0,0,1.222,3.5c-.585.715-1.144,1.1-1.6,1.1-.637,0-1.053-.676-1.053-1.7a3.876,3.876,0,0,1,.52-1.82A3.835,3.835,0,0,1,157.56,21.786Zm1.807,2.782a2.094,2.094,0,0,0-.1-.3,18.431,18.431,0,0,1-.975-3.016,4.858,4.858,0,0,1,2.509-.663c.065,0,.182.013.325.013a14.844,14.844,0,0,1-1.586,3.679,2.126,2.126,0,0,0-.156.286Zm10.075-6.708a7.238,7.238,0,0,1-.182,1.04,21.506,21.506,0,0,0-.585,5.148,18.632,18.632,0,0,0,.338,3.679c.039.247.052.312.078.52l.936-.078v-.195A11.332,11.332,0,0,1,171.08,24.4l-.624-.3a12.078,12.078,0,0,0-.845,2.535c-.052-.689-.078-1.456-.078-2.47a19.217,19.217,0,0,1,.39-4.069,18.473,18.473,0,0,1,.546-2.08Zm2.678,2.457a17.315,17.315,0,0,0,2.08.13,21.946,21.946,0,0,0,2.795-.169q.858-.117.9-.117l-.065-.923a13.949,13.949,0,0,1-3.484.351,8.83,8.83,0,0,1-2.21-.195Zm.949,2.535a3.591,3.591,0,0,0-1.131,2.418,1.837,1.837,0,0,0,.39,1.2,3.613,3.613,0,0,0,2.977.988,13.412,13.412,0,0,0,2.665-.26c.26-.039.286-.052.455-.065l-.13-1a8.556,8.556,0,0,1-2.99.455c-1.677,0-2.5-.468-2.5-1.43a3.02,3.02,0,0,1,.975-1.911Zm10.842-4.979a5.622,5.622,0,0,1,.221.832,26.253,26.253,0,0,0,.949,3.627,8.081,8.081,0,0,0-1.7,1.066,2.812,2.812,0,0,0-1.157,2.21,2.158,2.158,0,0,0,1.612,2.132,8.844,8.844,0,0,0,2.886.351,26.079,26.079,0,0,0,2.873-.169l.442-.052.13-.013a3.416,3.416,0,0,1,.39-.013l-.1-1.079a12.907,12.907,0,0,1-3.718.442c-2.548,0-3.549-.468-3.549-1.638,0-1.079.962-1.937,3.185-2.834a34.424,34.424,0,0,1,3.913-1.261l-.39-.988a5.882,5.882,0,0,1-.832.351c-2,.689-2.431.858-3.146,1.157a23.688,23.688,0,0,1-.975-4.3Zm4.771-.039a10.137,10.137,0,0,1,1.326,2.067l.663-.39a10.436,10.436,0,0,0-1.339-2.015Zm1.482-.7a10.9,10.9,0,0,1,1.326,2.041l.65-.364a10.4,10.4,0,0,0-1.352-2.028Zm7.683.455c-.078.39-.364,1.209-1.781,4.966-1.872,4.992-1.872,4.992-2.041,5.356l1,.312a13.306,13.306,0,0,1,1.2-2.99c.728-1.235,1.573-1.924,2.327-1.924a.7.7,0,0,1,.741.481,2.8,2.8,0,0,1,.1.988v.741a5.359,5.359,0,0,0,.117,1.4,1.829,1.829,0,0,0,1.9,1.17A3.027,3.027,0,0,0,204,26.674a7.022,7.022,0,0,0,.923-2.288,3.71,3.71,0,0,1-.858-.663,5.693,5.693,0,0,1-.494,1.846,2.249,2.249,0,0,1-2.08,1.625,1.211,1.211,0,0,1-.988-.4,2.21,2.21,0,0,1-.208-1.235v-.884a3.279,3.279,0,0,0-.221-1.469,1.443,1.443,0,0,0-1.3-.767c-.923,0-1.586.468-2.444,1.7l-.065-.026a1.958,1.958,0,0,1,.117-.234l.143-.286a22.034,22.034,0,0,0,.936-2.145c1.274-3.263,1.274-3.263,1.443-3.575Zm12.064.286a5.622,5.622,0,0,1,.221.832,26.253,26.253,0,0,0,.949,3.627,8.081,8.081,0,0,0-1.7,1.066,2.812,2.812,0,0,0-1.157,2.21,2.158,2.158,0,0,0,1.612,2.132,8.844,8.844,0,0,0,2.886.351,26.079,26.079,0,0,0,2.873-.169l.442-.052.13-.013a3.416,3.416,0,0,1,.39-.013l-.1-1.079a12.907,12.907,0,0,1-3.718.442c-2.548,0-3.549-.468-3.549-1.638,0-1.079.962-1.937,3.185-2.834a34.424,34.424,0,0,1,3.913-1.261l-.39-.988a5.882,5.882,0,0,1-.832.351c-2,.689-2.431.858-3.146,1.157a23.688,23.688,0,0,1-.975-4.3Zm4.771-.039a10.137,10.137,0,0,1,1.326,2.067l.663-.39a10.436,10.436,0,0,0-1.339-2.015Zm1.482-.7a10.9,10.9,0,0,1,1.326,2.041l.65-.364a10.4,10.4,0,0,0-1.352-2.028ZM4.927,34.587c-.078.39-.364,1.209-1.781,4.966-1.872,4.992-1.872,4.992-2.041,5.356l1,.312a13.306,13.306,0,0,1,1.2-2.99C4.03,41,4.875,40.307,5.629,40.307a.7.7,0,0,1,.741.481,2.8,2.8,0,0,1,.1.988v.741a5.359,5.359,0,0,0,.117,1.4,1.829,1.829,0,0,0,1.9,1.17,3.027,3.027,0,0,0,2.587-1.417A7.022,7.022,0,0,0,12,41.386a3.71,3.71,0,0,1-.858-.663,5.693,5.693,0,0,1-.494,1.846,2.249,2.249,0,0,1-2.08,1.625,1.211,1.211,0,0,1-.988-.4,2.21,2.21,0,0,1-.208-1.235v-.884A3.279,3.279,0,0,0,7.15,40.2a1.443,1.443,0,0,0-1.3-.767c-.923,0-1.586.468-2.444,1.7l-.065-.026a1.956,1.956,0,0,1,.117-.234l.143-.286a22.036,22.036,0,0,0,.936-2.145c1.274-3.263,1.274-3.263,1.443-3.575ZM20.6,38.11h-2.47a8.746,8.746,0,0,1-1.313-.078v.923a9.633,9.633,0,0,1,1.313-.078H20.6v2.21H18.694a6.258,6.258,0,0,1-.949-.052,9.826,9.826,0,0,1,.052,1.144v2.5a8.668,8.668,0,0,1-.065,1.274h.884v-.741h5.031v.741h.884a10.08,10.08,0,0,1-.065-1.261v-2.47a8.544,8.544,0,0,1,.052-1.183,6.264,6.264,0,0,1-1,.052h-2.08v-2.21h2.535a9.57,9.57,0,0,1,1.326.078v-.923a8.939,8.939,0,0,1-1.326.078H21.437V35.861c1.248-.234,2.262-.468,3.016-.689l.429-.117-.6-.78a6.052,6.052,0,0,1-1.495.52,23.6,23.6,0,0,1-5.5.741,2.551,2.551,0,0,1,.338.793A25.955,25.955,0,0,0,20.6,36Zm-1.989,3.718h5.031v2.613H18.616Zm-4.55-6.864a13.647,13.647,0,0,1,2.262,1.82l.507-.689A15.4,15.4,0,0,0,14.6,34.366Zm-.494,3.315a10.455,10.455,0,0,1,2.392,1.612l.455-.754a11.5,11.5,0,0,0-2.392-1.5Zm2.314,3.042A13.117,13.117,0,0,1,14.053,44.6a3.477,3.477,0,0,1-.4.442l.741.676a24.263,24.263,0,0,0,2.158-3.874Zm17.095.325H36.79v2.938c0,.325-.117.39-.689.39a16.624,16.624,0,0,1-1.859-.143,3.038,3.038,0,0,1,.195.845c.546.039,1.2.065,1.612.065,1.261,0,1.56-.195,1.56-1.014V36a10.973,10.973,0,0,1,.052-1.274,12.6,12.6,0,0,1-1.378.052H29.289a13.846,13.846,0,0,1-1.43-.052,19.757,19.757,0,0,1,.052,2.119,30.43,30.43,0,0,1-.4,6.305,5.225,5.225,0,0,1-1.053,2.2,3.154,3.154,0,0,1,.754.559,7.839,7.839,0,0,0,1.4-4.264h3.562V44.1a9.539,9.539,0,0,1-.065,1.417h.936a9.324,9.324,0,0,1-.065-1.417Zm0-3.809V35.562H36.79v2.275Zm-.806,0H28.743l.013-.728V35.562h3.419Zm.806.741H36.79v2.314H32.981Zm-.806,0v2.314h-3.51c.039-.6.039-.65.052-1.456,0-.182,0-.494.013-.858Zm9.841-3.718a4,4,0,0,1,.052.689c0,.208,0,.455-.013.845-.1,4.095-.117,4.42-.117,5.291a3.621,3.621,0,0,0,.715,2.665,3.083,3.083,0,0,0,2.444.91,4.552,4.552,0,0,0,3.666-1.625,7.908,7.908,0,0,0,1.443-2.951,3.677,3.677,0,0,1-.936-.624,7.723,7.723,0,0,1-.637,2.041,3.733,3.733,0,0,1-3.484,2.262,2.454,2.454,0,0,1-1.625-.507,2.046,2.046,0,0,1-.611-1.56c-.013-.3-.026-.624-.026-.78,0-.585.039-2.353.091-3.913a20.043,20.043,0,0,1,.169-2.743Zm21.359,9.1a4.444,4.444,0,0,1-.442-.3,11.379,11.379,0,0,0-3.627-1.9c-.052-1.261-.052-1.261-.078-1.989.962-.065,1.989-.169,2.886-.312.455-.065.585-.078.754-.091l-.052-.9a15.691,15.691,0,0,1-3.6.533c-.013-.689-.013-.689-.026-1.755a27.005,27.005,0,0,0,3.016-.312c.676-.091.676-.091.9-.1l-.065-.884a18.325,18.325,0,0,1-3.848.533,14.509,14.509,0,0,1,.091-1.833h-1a10.179,10.179,0,0,1,.065,1.872c-.429,0-.871.013-1.131.013a16.15,16.15,0,0,1-3.328-.26l-.013.884a1.062,1.062,0,0,1,.182-.013,1.577,1.577,0,0,1,.234.013c1.17.091,2.223.13,3.172.13.3,0,.507,0,.884-.013l.026,1.781c-.364.013-.819.013-1.157.013a15.955,15.955,0,0,1-2.977-.208l-.013.858h.1c.078,0,.182,0,.325.013.806.065,1.417.091,2.2.091.416,0,1.066-.013,1.534-.026.013.338.013.585.026.754.013.377.013.65.026.767a1.036,1.036,0,0,0,.013.143c0,.117,0,.117.013.156a5.782,5.782,0,0,0-1.17-.1,5.663,5.663,0,0,0-1.352.13c-1.144.26-1.82.936-1.82,1.794a1.7,1.7,0,0,0,.7,1.365,3.386,3.386,0,0,0,2.015.52,2.617,2.617,0,0,0,2.2-.819,2.258,2.258,0,0,0,.325-1.417,3.737,3.737,0,0,0-.026-.468c.351.143.65.273.871.39a10.461,10.461,0,0,1,2.652,1.859Zm-4.9-1.053a1.7,1.7,0,0,1-.26,1.17,1.878,1.878,0,0,1-1.43.429c-1.131,0-1.781-.39-1.781-1.079s.845-1.157,2.132-1.157a4.772,4.772,0,0,1,1.326.143Zm9.542-8.047a4,4,0,0,1,.052.689c0,.208,0,.455-.013.845-.1,4.095-.117,4.42-.117,5.291a3.621,3.621,0,0,0,.715,2.665,3.083,3.083,0,0,0,2.444.91,4.552,4.552,0,0,0,3.666-1.625,7.908,7.908,0,0,0,1.443-2.951,3.677,3.677,0,0,1-.936-.624,7.723,7.723,0,0,1-.637,2.041,3.733,3.733,0,0,1-3.484,2.262,2.454,2.454,0,0,1-1.625-.507,2.046,2.046,0,0,1-.611-1.56c-.013-.3-.026-.624-.026-.78,0-.585.039-2.353.091-3.913a20.043,20.043,0,0,1,.169-2.743Zm15.912,1.885a2.276,2.276,0,0,1,.052.416l.013,1.417c.013,1.3.026,1.69.078,2.574.052,1.079.052,1.079.065,1.131a.583.583,0,0,0,.013.156,3.374,3.374,0,0,0-.975-.13,4.324,4.324,0,0,0-1.56.286,1.518,1.518,0,0,0-.988,1.4,1.413,1.413,0,0,0,.481,1.066,2.566,2.566,0,0,0,1.729.494,2.246,2.246,0,0,0,1.859-.663,2.011,2.011,0,0,0,.3-1.053,4.372,4.372,0,0,0-.026-.468,1.486,1.486,0,0,0,.208.1,8.157,8.157,0,0,1,2.509,1.7l.507-.806a2.522,2.522,0,0,1-.312-.195c-.793-.559-.91-.637-1.248-.845a9.523,9.523,0,0,0-1.677-.754c-.078-1.131-.1-1.833-.13-2.678a17.441,17.441,0,0,0,2.392-.195c.559-.078.559-.078.7-.091l-.091-.832a10.646,10.646,0,0,1-3.029.39c-.013-.572-.013-.871-.013-.91a7.1,7.1,0,0,1,.078-1.508Zm.234,6.409a3.283,3.283,0,0,1,.039.507,1.3,1.3,0,0,1-.169.754,1.5,1.5,0,0,1-1.235.39c-.871,0-1.339-.286-1.339-.819,0-.6.611-.962,1.638-.962A4.5,4.5,0,0,1,84.162,43.154ZM94.6,35.64a23.666,23.666,0,0,0,5.46.858l.143-.936a16.4,16.4,0,0,1-5.291-.806Zm-1.352,4.225a18.154,18.154,0,0,1,4.953-.871,3.621,3.621,0,0,1,1.6.286,1.577,1.577,0,0,1,.832,1.456A2.91,2.91,0,0,1,99.97,42.5a3.182,3.182,0,0,1-1.118.923A8.253,8.253,0,0,1,95.2,44.48a3.3,3.3,0,0,1,.416.949,9.984,9.984,0,0,0,3.77-1.235,4.142,4.142,0,0,0,2.236-3.51,2.312,2.312,0,0,0-1.105-2.067,4.134,4.134,0,0,0-2.236-.494,21.721,21.721,0,0,0-3.965.468A10.229,10.229,0,0,1,93,38.812Zm13.416,2.08a1.95,1.95,0,1,0,1.95,1.95A1.947,1.947,0,0,0,106.665,41.945Zm0,.741a1.209,1.209,0,1,1-1.209,1.209A1.215,1.215,0,0,1,106.665,42.686Z" transform="translate(1560.693 718.145)" fill="#1b1311"/>
    <path id="パス_106523" data-name="パス 106523" d="M-101.08-13.18a20.212,20.212,0,0,1-4.08.86v-1.92a11.438,11.438,0,0,1,.1-1.86h-1.48a13.286,13.286,0,0,1,.1,1.9v1.98c-.6.04-1.38.06-1.92.06a11.328,11.328,0,0,1-2.04-.14v1.32h.82c.22.02.76.02,1.06.02.58,0,.92,0,1.28-.02.62-.04.62-.04.8-.06v3.78a10.7,10.7,0,0,0-2.82,1.64,3.62,3.62,0,0,0-1.58,2.66,2.412,2.412,0,0,0,.92,1.88A5.282,5.282,0,0,0-106.62.2c.98,0,1.46-.52,1.46-1.6v-5a13.5,13.5,0,0,1,4.24-.78c2.62,0,4.28,1.22,4.28,3.18a2.655,2.655,0,0,1-2.68,2.82c-1.46,0-2.06-.86-2.06-2.94a5.939,5.939,0,0,1,.04-.78,4.335,4.335,0,0,1-1.32.52,7.3,7.3,0,0,0,.24,2.26A2.95,2.95,0,0,0-99.34.14,4.048,4.048,0,0,0-95.26-4a4.025,4.025,0,0,0-2.06-3.54,6.771,6.771,0,0,0-3.54-.84,14.169,14.169,0,0,0-4.3.72v-3.46a35.1,35.1,0,0,0,3.54-.6c.28-.06.36-.08.6-.12Zm-5.36,11.04c0,.86-.06.98-.46.98a3.735,3.735,0,0,1-1.78-.58c-.58-.38-.86-.78-.86-1.2,0-.96,1.12-2.04,3.1-3Zm12.02-8.46a16.806,16.806,0,0,0-4.04-3.8l-1.04.78A16.381,16.381,0,0,1-95.46-9.7Zm8.84,6.26a4.692,4.692,0,0,1-.36,1.38A5,5,0,0,1-88.72-.38a11.927,11.927,0,0,1-3.06.84,4.02,4.02,0,0,1,.7,1.2A9.79,9.79,0,0,0-85.96-.7,5.878,5.878,0,0,0-84.2-4.34h2.44V-.32c0,.64.12.9.48,1.12a7.038,7.038,0,0,0,2.94.34c3.8,0,4.02-.18,4.48-3.76a6.049,6.049,0,0,1-1.26-.54A6.683,6.683,0,0,1-75.6-.54c-.28.42-.74.5-2.64.5-2.04,0-2.24-.06-2.24-.68V-4.34h1.74c1.08,0,1.68.02,2.24.06a15.132,15.132,0,0,1-.1-2.1v-6.78a26.344,26.344,0,0,1,.1-2.66,21.372,21.372,0,0,1-2.14.1H-87a17.078,17.078,0,0,1-2.14-.1,26.056,26.056,0,0,1,.1,2.66v6.78a15.487,15.487,0,0,1-.1,2.1c.62-.04,1.14-.06,2.26-.06Zm-2.22-10.2h9.96v2.18H-87.8Zm0,3.3h9.96v2.3H-87.8Zm0,3.42h9.96v2.38H-87.8Zm22.02-1.9a12.335,12.335,0,0,1,1.84-.12h8.16a10.237,10.237,0,0,1,1.86.12v-1.22a11.884,11.884,0,0,1-1.86.12h-3.8V-12.1h2.76a9.973,9.973,0,0,1,1.76.1v-1.12a9.932,9.932,0,0,1-1.8.1h-2.72V-14.2h3.38a10.542,10.542,0,0,1,1.76.1v-1.18a12.542,12.542,0,0,1-1.8.12h-3.34a7.689,7.689,0,0,1,.12-1.5h-1.4a7.979,7.979,0,0,1,.12,1.5h-2.84a9.857,9.857,0,0,1-1.74-.1v1.16a9.517,9.517,0,0,1,1.68-.1h2.9v1.18h-2.4a9.135,9.135,0,0,1-1.66-.1V-12a9.112,9.112,0,0,1,1.68-.1h2.38v1.28h-3.2a12.188,12.188,0,0,1-1.74-.08v-.72a8.779,8.779,0,0,1-1.4.08h-.64v-3.3a17.521,17.521,0,0,0,1.68-.64,4.24,4.24,0,0,1,.48-.2l-.74-1.04a2.972,2.972,0,0,1-.82.46,15.506,15.506,0,0,1-4.66,1.24,2.545,2.545,0,0,1,.52,1.04,20.389,20.389,0,0,0,2.36-.52v2.96h-1.08a10.138,10.138,0,0,1-1.74-.1v1.3a9.909,9.909,0,0,1,1.7-.1h.96a14.442,14.442,0,0,1-3.06,6.28,3.941,3.941,0,0,1,.76,1.04,13.65,13.65,0,0,0,2.58-5.5c-.08,1.08-.12,2.36-.12,3.3v4.5a16.149,16.149,0,0,1-.12,2.28h1.42a15.332,15.332,0,0,1-.12-2.3V-5.9c0-.82-.04-2.06-.1-3.02a9.7,9.7,0,0,0,1.6,3.08,3.964,3.964,0,0,1,.7-.96,8.75,8.75,0,0,1-2.16-3.64h.58a11.245,11.245,0,0,1,1.32.06Zm8.86,8.12c.68,0,1.12.02,1.72.06a13.2,13.2,0,0,1-.08-1.9v-3.6a12.213,12.213,0,0,1,.08-1.84c-.52.04-.92.06-1.78.06h-6.08c-.82,0-1.3-.02-1.76-.06a11.918,11.918,0,0,1,.08,1.8v3.7a14.06,14.06,0,0,1-.08,1.84q.36-.03,1.8-.06Zm-6.66-6.26h7.14v1.14h-7.14Zm0,2.02h7.14V-4.7h-7.14Zm0,2.02h7.14v1.26h-7.14Zm1.22,2.44A11,11,0,0,1-66.78.56a3.819,3.819,0,0,1,.76,1.04A12.537,12.537,0,0,0-61.48-.64Zm3.74.76a14.975,14.975,0,0,0,4.5,2.2,4.594,4.594,0,0,1,.74-1.1A15.054,15.054,0,0,1-57.84-1.4Zm15.18-12.8h-5.94a14.461,14.461,0,0,1-2.22-.12v1.2a15.993,15.993,0,0,1,2.22-.1h5.94v1.24H-47.7a12.688,12.688,0,0,1-1.96-.1v1.16a12.818,12.818,0,0,1,1.98-.1h4.24v1.16h-4.6a13.242,13.242,0,0,1-2.02-.1V-8a13.732,13.732,0,0,1,2.02-.1h4.6v1.22h-5.94A14.587,14.587,0,0,1-51.62-7v1.26a17.771,17.771,0,0,1,2.24-.12h13.22a17.653,17.653,0,0,1,2.22.12V-7a14.283,14.283,0,0,1-2.22.12h-6.1V-8.1h4.82a13.765,13.765,0,0,1,2,.1V-9.18a12.95,12.95,0,0,1-2,.1h-4.82v-1.16h4.08a20.873,20.873,0,0,1,2.18.08,14.809,14.809,0,0,1-.06-1.66v-.62a14.2,14.2,0,0,1,2.16.1v-1.2a12.3,12.3,0,0,1-2.06.12h-.1v-.44A15.316,15.316,0,0,1-36-15.6a20.942,20.942,0,0,1-2.24.08h-4.02a5.907,5.907,0,0,1,.14-1.36h-1.44a8.588,8.588,0,0,1,.12,1.36H-47.6a10.965,10.965,0,0,1-2.02-.12v1.2a12.75,12.75,0,0,1,1.92-.1h4.26Zm1.18,0v-1.12h5.02v1.12Zm0,.98h5.02v1.24h-5.02ZM-49-.52a12.065,12.065,0,0,1-.12,1.96h1.34V.68H-37.7v.76h1.36a9.3,9.3,0,0,1-.12-1.96V-2.94a12.992,12.992,0,0,1,.08-1.92,17.577,17.577,0,0,1-2.34.06h-8.04a17.377,17.377,0,0,1-2.32-.06A13.57,13.57,0,0,1-49-2.96Zm1.22-3.3H-37.7v1.24H-47.78Zm0,2.2H-37.7V-.3H-47.78Zm24.96-7.62A1.647,1.647,0,0,0-24.46-7.6a1.647,1.647,0,0,0,1.64,1.64A1.647,1.647,0,0,0-21.18-7.6,1.647,1.647,0,0,0-22.82-9.24ZM-11.6-6.62a3.137,3.137,0,0,1,.74-.1c1.58-.12,1.58-.12,2.48-.2V-.48a14.718,14.718,0,0,1-.12,2h1.44a13.913,13.913,0,0,1-.12-2V-7.02c.74-.08,1.08-.12,1.82-.24A12.41,12.41,0,0,1-4.98-6L-4-6.48a23.774,23.774,0,0,0-1.62-3.88l-.92.4a19.031,19.031,0,0,1,.82,1.72c-1.02.14-1.88.22-3.18.3.86-1.08,2.04-2.74,2.74-3.84a22.229,22.229,0,0,1,1.26-1.9l-1.16-.68c-.3.86-.4,1.04-2.04,3.6-.5-.6-.68-.82-1.24-1.42a26.178,26.178,0,0,0,1.92-3.3A5.363,5.363,0,0,1-7-16.22l-1.24-.54a14.851,14.851,0,0,1-1.86,3.78c-.34-.34-.5-.5-.96-.94l-.74.92A24.3,24.3,0,0,1-8.76-9.76c-.24.34-.72.98-1.44,1.88-.46.02-.58.02-.8.02a4.829,4.829,0,0,1-.8-.06ZM1.16-5.28v-.74A12.251,12.251,0,0,1,1.28-8.1H-.18A11.931,11.931,0,0,1-.06-6.02v.74H-1.82A8.79,8.79,0,0,1-3.68-5.4v1.32a16.308,16.308,0,0,1,1.86-.08H-.06v3.7H-2.92A12.991,12.991,0,0,1-4.8-.56V.76A14,14,0,0,1-2.82.64H4.24A13.807,13.807,0,0,1,6.22.76V-.56a11.9,11.9,0,0,1-1.98.1H1.16v-3.7H3.42a15.931,15.931,0,0,1,1.84.08V-5.4a10.609,10.609,0,0,1-1.84.12ZM4.48-15.72a9.012,9.012,0,0,1-1.54.08H-2.7a11.475,11.475,0,0,1-1.96-.1v1.28a9.949,9.949,0,0,1,1.44-.1,12.462,12.462,0,0,0,3,4.02,14.509,14.509,0,0,1-4.02,2,3.734,3.734,0,0,1,.7,1.12A18.937,18.937,0,0,0,.7-9.78,17.034,17.034,0,0,0,5.76-7.16,3.447,3.447,0,0,1,6.42-8.4a14.014,14.014,0,0,1-4.8-2.14,15.063,15.063,0,0,0,2.56-2.88c.76-1.16.76-1.16,1.04-1.54Zm-.94,1.16A12.826,12.826,0,0,1,.68-11.22,9.854,9.854,0,0,1-2-14.56ZM-10.58-5.7A15.372,15.372,0,0,1-11.64-.28l1.12.52a12.205,12.205,0,0,0,.56-2.16,25.255,25.255,0,0,0,.5-3.52Zm4.32.2a18.748,18.748,0,0,1,.9,4.26l1.1-.38A25.658,25.658,0,0,0-5.28-5.84ZM17.78-.4H14.62V-3.56a6.69,6.69,0,0,1,.1-1.4h-1.4a7.3,7.3,0,0,1,.1,1.4V-.4h-.64a15.968,15.968,0,0,1-2.22-.12V.84A15.973,15.973,0,0,1,12.98.72H23.22a21.68,21.68,0,0,1,2.56.12V-.52A19.979,19.979,0,0,1,23.3-.4H18.98V-3.08h3.36a15.273,15.273,0,0,1,2.12.1V-4.26a14.087,14.087,0,0,1-2.12.1H18.98v-.76a6.807,6.807,0,0,1,.1-1.4h-1.4a9.058,9.058,0,0,1,.1,1.42Zm2.84-11.1a10.279,10.279,0,0,1-3.36,3.84,3.818,3.818,0,0,1,.82.78,10.426,10.426,0,0,0,2.9-3.74c-.04,1.06-.06,1.68-.06,1.84v1.34a8.871,8.871,0,0,1-.12,1.48h1.28a7.776,7.776,0,0,1-.1-1.5v-1.4c-.02-.44-.02-.44-.02-1.08a7.215,7.215,0,0,0-.06-.78,11.89,11.89,0,0,0,3.2,3.86A4.954,4.954,0,0,1,26-7.8a11.335,11.335,0,0,1-3.72-3.7h1.8a7.2,7.2,0,0,1,1.28.08v-1.16a6.919,6.919,0,0,1-1.28.08h-2.1v-.14a6.42,6.42,0,0,1,.08-1.42H20.84a7.986,7.986,0,0,1,.08,1.42v.14H19.64a7.166,7.166,0,0,1-1.3-.08v1.16a6.206,6.206,0,0,1,1.22-.08Zm-6.54,0a10.87,10.87,0,0,1-3.06,3.56,3.453,3.453,0,0,1,.78.84,10.312,10.312,0,0,0,2.62-3.54c-.04.78-.06,1.4-.06,1.76v1.4a9.361,9.361,0,0,1-.12,1.52h1.28a7.651,7.651,0,0,1-.1-1.5v-1.4c0-.36-.04-1.22-.08-1.82a8.012,8.012,0,0,0,1.78,2.32,4.644,4.644,0,0,1,.8-.84,7.62,7.62,0,0,1-2.24-2.3h.88a9.072,9.072,0,0,1,1.2.06v-1.14a6.412,6.412,0,0,1-1.26.08H15.42v-.14a7.986,7.986,0,0,1,.08-1.42H14.28a7.986,7.986,0,0,1,.08,1.42v.14H12.68a6.308,6.308,0,0,1-1.24-.08v1.16a6.308,6.308,0,0,1,1.24-.08Zm-3.26-3.12h12.7a14.391,14.391,0,0,1,2.14.1v-1.34a15.509,15.509,0,0,1-2.24.12H11.88a21.021,21.021,0,0,1-2.42-.1,26.2,26.2,0,0,1,.1,3.18c0,7.08-.48,10.18-1.98,12.9A4.586,4.586,0,0,1,8.6,1.28c1.72-3.24,2.22-6.52,2.22-14.48Zm25.74,1.2H30.62a14.461,14.461,0,0,1-2.22-.12v1.2a15.993,15.993,0,0,1,2.22-.1h5.94v1.24H32.3a12.688,12.688,0,0,1-1.96-.1v1.16a12.818,12.818,0,0,1,1.98-.1h4.24v1.16h-4.6a13.242,13.242,0,0,1-2.02-.1V-8a13.732,13.732,0,0,1,2.02-.1h4.6v1.22H30.62A14.587,14.587,0,0,1,28.38-7v1.26a17.771,17.771,0,0,1,2.24-.12H43.84a17.653,17.653,0,0,1,2.22.12V-7a14.283,14.283,0,0,1-2.22.12h-6.1V-8.1h4.82a13.765,13.765,0,0,1,2,.1V-9.18a12.95,12.95,0,0,1-2,.1H37.74v-1.16h4.08a20.873,20.873,0,0,1,2.18.08,14.809,14.809,0,0,1-.06-1.66v-.62a14.2,14.2,0,0,1,2.16.1v-1.2a12.3,12.3,0,0,1-2.06.12h-.1v-.44A15.316,15.316,0,0,1,44-15.6a20.942,20.942,0,0,1-2.24.08H37.74a5.907,5.907,0,0,1,.14-1.36H36.44a8.588,8.588,0,0,1,.12,1.36H32.4a10.965,10.965,0,0,1-2.02-.12v1.2a12.75,12.75,0,0,1,1.92-.1h4.26Zm1.18,0v-1.12h5.02v1.12Zm0,.98h5.02v1.24H37.74ZM31-.52a12.065,12.065,0,0,1-.12,1.96h1.34V.68H42.3v.76h1.36a9.3,9.3,0,0,1-.12-1.96V-2.94a12.992,12.992,0,0,1,.08-1.92,17.577,17.577,0,0,1-2.34.06H33.24a17.377,17.377,0,0,1-2.32-.06A13.57,13.57,0,0,1,31-2.96Zm1.22-3.3H42.3v1.24H32.22Zm0,2.2H42.3V-.3H32.22ZM57.18-9.24A1.647,1.647,0,0,0,55.54-7.6a1.647,1.647,0,0,0,1.64,1.64A1.647,1.647,0,0,0,58.82-7.6,1.647,1.647,0,0,0,57.18-9.24Zm11.58-6.08a12.525,12.525,0,0,1,.16,2.24V-2.5a12.774,12.774,0,0,1-.16,2.38h1.86a12.774,12.774,0,0,1-.16-2.38v-8.54c0-.52-.04-1.5-.12-2.44.28.54.94,1.68,1.1,1.92l6.42,9.64A13.528,13.528,0,0,1,78.9-.12h2.18a11.435,11.435,0,0,1-.16-2.24V-13.02a12.522,12.522,0,0,1,.16-2.3H79.22a12.662,12.662,0,0,1,.16,2.3v8.48c0,.18.04,1.06.12,2.66-.48-.86-1.08-1.84-1.3-2.18l-6.32-9.46a10.431,10.431,0,0,1-1.02-1.8ZM84.36-2.44A14.066,14.066,0,0,1,84.2-.06c.7-.04,1.24-.06,2.2-.06h3.38A6.7,6.7,0,0,0,94.64-1.9a8.084,8.084,0,0,0,2.14-5.92c0-4.78-2.54-7.5-7-7.5H86.4c-.96,0-1.5-.02-2.2-.06a14.4,14.4,0,0,1,.16,2.28Zm1.56.92v-12.4h3.9a4.929,4.929,0,0,1,3.76,1.36,6.462,6.462,0,0,1,1.58,4.74,6.812,6.812,0,0,1-1.68,4.88,4.885,4.885,0,0,1-3.74,1.42Zm26.62,1.4a19.884,19.884,0,0,1-1.06-2.3L107-13.46a10.815,10.815,0,0,1-.68-1.86H104.3a11.387,11.387,0,0,1-.64,1.86L99.18-2.42A12.767,12.767,0,0,1,98.1-.12h2.08a11.182,11.182,0,0,1,.62-2.04l1.04-2.58h6.98l1.04,2.58a14.357,14.357,0,0,1,.62,2.04Zm-4.2-6h-6.02l2.56-6.6c.04-.08.1-.3.22-.62.04-.14.12-.36.22-.66.38,1.1.38,1.12.44,1.28ZM-80.76,23.62a12.647,12.647,0,0,1-3.04-4.14,12.127,12.127,0,0,1-1.08-5.08A12.127,12.127,0,0,1-83.8,9.32a12.647,12.647,0,0,1,3.04-4.14h-1.78a13.462,13.462,0,0,0-2.78,4.3,12.543,12.543,0,0,0-.96,4.92,12.543,12.543,0,0,0,.96,4.92,13.462,13.462,0,0,0,2.78,4.3Zm13.12-7.02a11.49,11.49,0,0,0,1.22,3.38A13.908,13.908,0,0,1-71.6,22.4a3.02,3.02,0,0,1,.8,1.02,15.67,15.67,0,0,0,4.96-2.52c1.14,1.64,2.22,2.48,3.2,2.48.94,0,1.34-.74,1.8-3.26a4.043,4.043,0,0,1-1.02-.7,9.111,9.111,0,0,1-.36,2.02c-.18.52-.3.68-.54.68-.52,0-1.34-.72-2.2-1.94a23.737,23.737,0,0,0,2.32-2.44l-1.02-.7a7.182,7.182,0,0,1-1.86,2.24,9.445,9.445,0,0,1-1-2.68h3.34a12.611,12.611,0,0,1,2.12.12v-1.3a10.526,10.526,0,0,1-2.12.12h-3.54a51.3,51.3,0,0,1-.56-8.06,10.763,10.763,0,0,1,.1-1.96h-1.4a7.851,7.851,0,0,1,.1,1.26,51.871,51.871,0,0,0,.3,6.26,22.878,22.878,0,0,0,.34,2.5H-72.4a11.073,11.073,0,0,1-1.8-.1V16.7a11.847,11.847,0,0,1,1.8-.1h.22c-.2,2.86-1.04,4.54-2.88,5.82a3.038,3.038,0,0,1,.96.86,8.243,8.243,0,0,0,2.74-4.52,8.922,8.922,0,0,0,2.18,1.9,4.215,4.215,0,0,1,.66-.96,7.9,7.9,0,0,1-2.6-2.14c.04-.4.04-.44.08-.96Zm1.14-2.84a3.093,3.093,0,0,1,.34-.06c2.16-.28,3.48-.46,3.94-.56.14.36.22.58.4,1.18l.92-.36a17.119,17.119,0,0,0-1.46-3.08l-.82.32a6.743,6.743,0,0,1,.6,1.12,21.834,21.834,0,0,1-2.44.28c.98-1.1,1.54-1.82,3.36-4.26l-.92-.72a20.388,20.388,0,0,1-1.54,2.4c-.38-.48-.56-.7-.96-1.14a22.752,22.752,0,0,0,1.82-2.76l-1.04-.56A11.116,11.116,0,0,1-65.76,8.2c-.22-.22-.3-.3-.62-.6l-.66.84a11.5,11.5,0,0,1,2.3,2.42c-.64.82-.8,1.02-1.48,1.8a.75.75,0,0,1-.2.02,1.847,1.847,0,0,1-.3-.02Zm-4.94-8.28a10.324,10.324,0,0,1-1.52,2.88c-.22-.2-.4-.38-.56-.54l-.72.8a13.158,13.158,0,0,1,2.36,2.5c-.52.76-.88,1.22-1.6,2.1a2.312,2.312,0,0,1-.34.02,1.249,1.249,0,0,1-.24-.02l.24,1.14a5.482,5.482,0,0,1,.56-.1c1.92-.3,2.98-.5,3.82-.68.1.36.14.48.24.88l.9-.38a12.535,12.535,0,0,0-1.3-2.86l-.8.3a7.463,7.463,0,0,1,.66,1.24c-.64.12-1.52.24-2.5.36a36.106,36.106,0,0,0,3.1-4.4l-.96-.68a16.41,16.41,0,0,1-1.2,2.2,9.814,9.814,0,0,0-.96-1.16A18.27,18.27,0,0,0-70.38,6ZM-76.9,9.42h-.86a7.9,7.9,0,0,1-1.38-.08V10.6a8.663,8.663,0,0,1,1.38-.08h.7a17.016,17.016,0,0,1-2.6,6.6,4.216,4.216,0,0,1,.72,1.16,17.261,17.261,0,0,0,2.26-6.26c-.12,1.52-.2,3.08-.2,3.86v5.46A16.8,16.8,0,0,1-77,23.66h1.4a16.212,16.212,0,0,1-.1-2.32V14.78c0-.7-.04-1.56-.08-2.94a6.916,6.916,0,0,0,1.08,2.14,6.8,6.8,0,0,1,.56-1.04,7.792,7.792,0,0,1-1.48-2.42h.48a8.62,8.62,0,0,1,1.28.08V9.34a7.308,7.308,0,0,1-1.3.08h-.54V7.44a16.857,16.857,0,0,1,.08-2.06H-77a12.254,12.254,0,0,1,.1,2.08Zm11.64,4.78a7.252,7.252,0,0,1,1.5,1.32l.72-.68a6.9,6.9,0,0,0-1.52-1.22ZM-46.42,9a17.225,17.225,0,0,1-6.08,5.12V11.4a7.645,7.645,0,0,1,.1-1.42h-1.38a7.871,7.871,0,0,1,.1,1.44v3.3a30.006,30.006,0,0,1-5.2,1.84,3.969,3.969,0,0,1,.54.92c.02.04.04.1.08.18a40.518,40.518,0,0,0,4.82-1.88c.4.36,1.1.44,3.46.44,4.72,0,4.82-.06,5.12-3.06A5.229,5.229,0,0,1-46,12.7a8.962,8.962,0,0,1-.12,1.24c-.12.74-.28.96-.78,1.06a12.644,12.644,0,0,1-2.38.16,23.557,23.557,0,0,1-2.74-.08,25.642,25.642,0,0,0,3.68-2.46c.58-.46,1.8-1.62,2.62-2.46a3.729,3.729,0,0,1,.4-.4Zm-4.36-1.74H-56.3a16.333,16.333,0,0,1-2-.1,9,9,0,0,1,.08,1.32V9.4a9.058,9.058,0,0,1-.08,1.42h1.28V8.36h14.1v2.52h1.3a9.271,9.271,0,0,1-.08-1.4V8.5a8.6,8.6,0,0,1,.08-1.34,16.133,16.133,0,0,1-2,.1h-5.9v-.6a7.7,7.7,0,0,1,.12-1.38h-1.52a6.337,6.337,0,0,1,.14,1.38Zm.12,13.92h-4.8v-1.7a6.859,6.859,0,0,1,.1-1.46h-1.46a6.934,6.934,0,0,1,.12,1.48v1.9a13.024,13.024,0,0,1-.12,1.94h1.36V22.32h10.98v1.04h1.38a12.818,12.818,0,0,1-.12-1.9v-2a8.762,8.762,0,0,1,.12-1.58h-1.48a7.751,7.751,0,0,1,.1,1.52v1.78H-49.4V18.56a9.317,9.317,0,0,1,.1-1.74h-1.46a9.72,9.72,0,0,1,.1,1.74ZM-48.7,10.4a18.142,18.142,0,0,0-2.74-1.78l-.8.72a11.372,11.372,0,0,1,2.7,1.94Zm-8.68,4.38a11.72,11.72,0,0,0,2.7-3.66l-.98-.58a9.035,9.035,0,0,1-2.62,3.42Zm15.98-.58a17.568,17.568,0,0,0-2.88-3.5l-.92.64a13.918,13.918,0,0,1,2.78,3.64Zm13.04.34h-3.88a14,14,0,0,1-1.98-.12v1.36a14.2,14.2,0,0,1,1.98-.12h3.46a12.741,12.741,0,0,1-2.3,2.64A15.8,15.8,0,0,1-35,20.92a4.512,4.512,0,0,1,.92,1.12,15.282,15.282,0,0,0,2.76-1.94,12.971,12.971,0,0,0,3.04-3.48,20.691,20.691,0,0,0-.08,2.16V21.5a14.949,14.949,0,0,1-.12,1.96h1.44a11.85,11.85,0,0,1-.12-1.96V18.76a20.774,20.774,0,0,0-.1-2.14,13.2,13.2,0,0,0,2.68,3.08A20.841,20.841,0,0,0-21.4,22a5.808,5.808,0,0,1,.9-1.24,14.619,14.619,0,0,1-3.62-2.24,13.973,13.973,0,0,1-2.7-2.86h3.76a17.079,17.079,0,0,1,1.94.12V14.42a14.1,14.1,0,0,1-1.96.12h-4.08V12.42h2.66c.76,0,1.66.04,2.1.08a14.2,14.2,0,0,1-.08-1.78V8.14a12.407,12.407,0,0,1,.08-1.82,14.985,14.985,0,0,1-2.2.1h-5.9a15.154,15.154,0,0,1-2.2-.1,15.484,15.484,0,0,1,.08,1.78v2.6c0,.74-.04,1.26-.08,1.8a20.091,20.091,0,0,1,2.12-.08h2.22Zm-3.02-6.98h7.64v3.72h-7.64Zm-5.32,13.5a20.609,20.609,0,0,1-.12,2.4h1.44a20.6,20.6,0,0,1-.1-2.34V10.48a25.641,25.641,0,0,0,1.6-3.74,8.262,8.262,0,0,1,.36-1.08l-1.36-.44a13.722,13.722,0,0,1-.8,2.76,16.118,16.118,0,0,1-3.88,5.96,5.818,5.818,0,0,1,.82,1.14,12.375,12.375,0,0,0,2.1-2.82c-.04.88-.06,1.62-.06,2.4Zm20.68-10.52v4.48a11.233,11.233,0,0,1-2.78.9l.36,1.36a7.746,7.746,0,0,1,.78-.34c.7-.28,1.04-.42,1.64-.66v5.34c0,.46-.16.58-.72.58a15.085,15.085,0,0,1-1.8-.14,4.088,4.088,0,0,1,.28,1.26c.7.02.98.04,1.3.04,1.76,0,2.2-.28,2.2-1.42v-6.2c.92-.42,1.24-.58,2.14-1.04V13.48a21.535,21.535,0,0,1-2.14,1.02V10.54h.66a8.765,8.765,0,0,1,1.34.08V9.32a6.168,6.168,0,0,1-1.36.1h-.64V7.48a11.285,11.285,0,0,1,.14-2h-1.54a11.992,11.992,0,0,1,.14,2.02V9.42h-1.14a8.939,8.939,0,0,1-1.5-.12v1.32a11.2,11.2,0,0,1,1.48-.08Zm8.08-1.52v2.64h-2.92a13.753,13.753,0,0,1-2.04-.12v1.34a18.7,18.7,0,0,1,2.04-.1h5.94v2.3h-5.66a11.874,11.874,0,0,1-2.04-.12v1.36a14.927,14.927,0,0,1,2.04-.12h5.66v5.38c0,.46-.2.58-.88.58a10.985,10.985,0,0,1-2.32-.26,4.845,4.845,0,0,1,.34,1.36c.88.06,1.48.1,2.06.1,1.54,0,2.04-.36,2.04-1.48V16.2h.6a13.212,13.212,0,0,1,1.94.12V14.96a10.788,10.788,0,0,1-1.94.12h-.6v-2.3h.48a14.132,14.132,0,0,1,2.04.12V11.54a13.568,13.568,0,0,1-2.04.12H-6.7V9.02h2.94a13.631,13.631,0,0,1,1.9.1V7.78a11.914,11.914,0,0,1-1.9.12H-6.7V7.1a9.658,9.658,0,0,1,.12-1.6H-8.06a10.193,10.193,0,0,1,.12,1.6v.8h-2.3a11.638,11.638,0,0,1-1.88-.12V9.12a13.684,13.684,0,0,1,1.88-.1Zm-3.46,8.74a16.314,16.314,0,0,1,2.82,3.2l1.02-.84a23.04,23.04,0,0,0-2.82-3.04Zm27.8.3a15.964,15.964,0,0,1,2.24.1V16.84a15.076,15.076,0,0,1-2.26.12H10.4c.08-.3.14-.58.2-.86a6.872,6.872,0,0,1,.16-.72L9.3,15.3c.02.18.04.28.04.38a5.1,5.1,0,0,1-.22,1.28H3.66a16.022,16.022,0,0,1-2.32-.12v1.32a16.563,16.563,0,0,1,2.32-.1H8.7c-1.28,2.32-3.72,3.62-7.64,4.02a4.245,4.245,0,0,1,.68,1.24,14.658,14.658,0,0,0,4.7-1.46A8.3,8.3,0,0,0,9.9,18.32a8.864,8.864,0,0,0,2.76,2.88,16.216,16.216,0,0,0,5.64,2.14,4.5,4.5,0,0,1,.7-1.3c-4.08-.64-6.66-1.94-7.9-3.98ZM5.16,8.54l.04,1.8H3.5a10.774,10.774,0,0,1-1.56-.08v1.2a11.187,11.187,0,0,1,1.54-.08H5.24l.04,2.08a26.033,26.033,0,0,1-3.92.48H1.08l.24,1.3c.52-.1.6-.12.74-.14a59.262,59.262,0,0,0,7.2-1.42l-.02-1.04c-1.26.3-1.72.4-2.76.6l-.04-1.86H7.88a10.267,10.267,0,0,1,1.48.08v-1.2a9.8,9.8,0,0,1-1.46.08H6.42l-.04-1.8H8.26a13.6,13.6,0,0,1,1.52.08V7.38a12.9,12.9,0,0,1-1.52.08H6.34V6.52a5.8,5.8,0,0,1,.08-1.08l-1.4.02c.06.5.1,1.06.12,1.56v.44H3.06a9.05,9.05,0,0,1-1.54-.1V8.64a9.491,9.491,0,0,1,1.54-.1ZM12.6,7.42a9.257,9.257,0,0,1-.74,3.94,6.242,6.242,0,0,1-3.18,2.9,4.042,4.042,0,0,1,.86.98c2.98-1.68,4.08-3.68,4.34-7.82h3.24a32.721,32.721,0,0,1-.38,4.64c-.24,1.42-.4,1.64-1.18,1.64a10.749,10.749,0,0,1-2.36-.34,4.774,4.774,0,0,1,.32,1.38,16.393,16.393,0,0,0,1.82.14c.2.02.34.02.36.02h.14a2.505,2.505,0,0,0,1.18-.28,1.932,1.932,0,0,0,.72-1.26,35.9,35.9,0,0,0,.64-5.9,9.651,9.651,0,0,1,.1-1.18c-.44.04-.98.06-1.84.06H12.2a14.55,14.55,0,0,1-2.08-.12V7.54a11.708,11.708,0,0,1,1.86-.12Zm8.58,7.94a7.244,7.244,0,0,1,1.22-.14c.76-.06.76-.06,2.24-.2v6.44a14.833,14.833,0,0,1-.12,2.06h1.46a14.523,14.523,0,0,1-.12-2.04V14.9c.76-.08,1.22-.14,1.38-.16a3.218,3.218,0,0,0,.5-.06c.2.52.26.7.46,1.34l1.02-.46a21.665,21.665,0,0,0-1.76-3.8l-.92.36a16.814,16.814,0,0,1,.8,1.58c-1.38.18-1.74.2-3.24.3a43.8,43.8,0,0,0,3.7-5.06c.28-.4.4-.58.58-.82l-1.18-.7a20.485,20.485,0,0,1-2.3,3.78c-.42-.5-.74-.86-1.34-1.46A30.661,30.661,0,0,0,25.54,6.6,7.256,7.256,0,0,1,26,5.84l-1.24-.56a14.88,14.88,0,0,1-1.98,3.7c-.32-.32-.42-.4-.86-.82l-.74.94a19.835,19.835,0,0,1,3.04,3.06c-.58.78-.78,1.04-1.52,1.92-.32.02-.92.04-1.02.04a4.559,4.559,0,0,1-.72-.06ZM37.16,9.88a56.013,56.013,0,0,1-.86,10.46c-.28,1.28-.5,1.52-1.44,1.52a15.781,15.781,0,0,1-2.66-.26,4.811,4.811,0,0,1,.34,1.38c.8.08,1.54.12,2.12.12,1.92,0,2.42-.42,2.88-2.34a50.092,50.092,0,0,0,.86-9.06,30.106,30.106,0,0,1,.1-3.08,10.825,10.825,0,0,1-1.62.08h-5c.26-.64.42-1.04.58-1.48.36-1,.36-1,.52-1.38L31.62,5.5A12.521,12.521,0,0,1,30.5,8.8a12.984,12.984,0,0,1-2.24,3.42A3.64,3.64,0,0,1,29.3,13a15.556,15.556,0,0,0,2.04-3.12ZM22.32,16.32A14.8,14.8,0,0,1,21,21.68l1.1.52a17.71,17.71,0,0,0,1.32-5.66Zm4.64.2a26.38,26.38,0,0,1,1.02,4.82l1.16-.38a31.834,31.834,0,0,0-1.18-4.76Zm7.64.7a23.973,23.973,0,0,0-2.84-4.88l-1.04.6a19.371,19.371,0,0,1,2.74,4.96Zm7.94,6.4a13.462,13.462,0,0,0,2.78-4.3,12.543,12.543,0,0,0,.96-4.92,12.543,12.543,0,0,0-.96-4.92,13.462,13.462,0,0,0-2.78-4.3H40.76A12.445,12.445,0,0,1,43.8,9.32a12.127,12.127,0,0,1,1.08,5.08,12.127,12.127,0,0,1-1.08,5.08,12.445,12.445,0,0,1-3.04,4.14ZM65.52,8.02a13.043,13.043,0,0,1,1.1,2.44l1.16-.42a12.264,12.264,0,0,0-1.06-2.02h1.26a16.155,16.155,0,0,1,1.84.08V6.82a12.345,12.345,0,0,1-1.98.12H64.8c.28-.52.38-.7.68-1.26L64.2,5.3a9.556,9.556,0,0,1-3.28,4.5,3.383,3.383,0,0,1,.96.82,12.88,12.88,0,0,0,2.24-2.6ZM73.26,8a13.394,13.394,0,0,1,1.22,2.38l1.14-.46A16.893,16.893,0,0,0,74.52,8h2.22a16.223,16.223,0,0,1,2.1.1V6.82a14.589,14.589,0,0,1-2.12.12h-4.3c.42-.78.54-.98.72-1.36l-1.2-.38a9.151,9.151,0,0,1-2.66,3.94,2.662,2.662,0,0,1,.98.72A11.909,11.909,0,0,0,71.78,8ZM65.1,11.12A13.273,13.273,0,0,1,63.08,11v1.32a13.83,13.83,0,0,1,2.02-.12h4.02v1.98H63.38a13.5,13.5,0,0,1-2.06-.12v1.32a15.351,15.351,0,0,1,2.08-.12h9.74v1.96H63.42a14.633,14.633,0,0,1-2.06-.12v1.32a15.146,15.146,0,0,1,2.08-.12h9.7v3.36c0,.42-.16.52-.92.52a18.526,18.526,0,0,1-2.6-.16,4.646,4.646,0,0,1,.36,1.26c.7.04,1.4.06,1.96.06,1.98,0,2.46-.28,2.46-1.46V18.3h2.32a15.036,15.036,0,0,1,2.06.12V17.1a14.633,14.633,0,0,1-2.06.12H74.4V15.26h2.38a14.633,14.633,0,0,1,2.06.12V14.06a13.5,13.5,0,0,1-2.06.12H70.32V12.2h4.8a13.913,13.913,0,0,1,2,.12V11a13.093,13.093,0,0,1-2.02.12H70.32a6.138,6.138,0,0,1,.12-1.24H69a6.3,6.3,0,0,1,.12,1.24Zm-.14,8.36a13.384,13.384,0,0,1,3.02,2.84l1-.92a18.952,18.952,0,0,0-3.12-2.76ZM91.08,8.74a5.756,5.756,0,0,1,2.32.5,5.272,5.272,0,0,1,3.18,5.02,6.037,6.037,0,0,1-3.54,5.6,11.989,11.989,0,0,1-3.34.94,3.178,3.178,0,0,1,.7,1.34,15.472,15.472,0,0,0,3.04-.92,7.282,7.282,0,0,0,4.58-6.9,6.7,6.7,0,0,0-1.94-4.88,7.742,7.742,0,0,0-5.5-1.98,8.354,8.354,0,0,0-6.46,2.66,8.32,8.32,0,0,0-2.1,5.52c0,2.8,1.42,4.88,3.32,4.88,1.44,0,2.62-1.2,3.78-3.84A29.981,29.981,0,0,0,91.08,8.74Zm-1.44.02a27.47,27.47,0,0,1-1.82,7.4c-.86,1.96-1.66,2.9-2.5,2.9-1.08,0-1.92-1.48-1.92-3.4A6.916,6.916,0,0,1,86.66,9.7,6.316,6.316,0,0,1,89.64,8.76ZM-70.1,29.84a17.389,17.389,0,0,1-.64,4.36,16.183,16.183,0,0,1-3.08,5.82,16.776,16.776,0,0,1-4.64,3.94,3.587,3.587,0,0,1,1.08,1.18,18.923,18.923,0,0,0,2.52-1.96,19,19,0,0,0,2.7-3.04,17.228,17.228,0,0,0,2.8-6.48,15.759,15.759,0,0,0,1.26,3.7,18.4,18.4,0,0,0,2.86,4.32,18.744,18.744,0,0,0,3.88,3.42,4.413,4.413,0,0,1,1.12-1.28,16.279,16.279,0,0,1-3.74-2.9,17.875,17.875,0,0,1-3-4.14,14.584,14.584,0,0,1-1.7-6.98,10.358,10.358,0,0,1,.08-1.32,9.52,9.52,0,0,1-1.86.12H-73.1a7.507,7.507,0,0,1-1.52-.1v1.44c.66-.06,1.14-.1,1.52-.1Zm20.62,1.72c.1-1.74.1-1.74.1-2.68a13.767,13.767,0,0,1,.1-1.62h-1.58a11.3,11.3,0,0,1,.12,1.94c0,.82-.02,1.46-.08,2.36H-54.8a17.293,17.293,0,0,1-2.48-.12V32.9a17.74,17.74,0,0,1,2.46-.12h3.92c-.46,4.28-1.58,6.86-3.9,8.96a12.336,12.336,0,0,1-3.36,2.16,3.2,3.2,0,0,1,1.06,1.12,13.652,13.652,0,0,0,5.56-5.18,17.606,17.606,0,0,0,1.98-7.06h6.18a74.4,74.4,0,0,1-.44,7.78c-.3,2.42-.56,2.92-1.62,2.92a18.019,18.019,0,0,1-3.8-.5,6.288,6.288,0,0,1,.34,1.5,24.864,24.864,0,0,0,3.56.32c1.6,0,2.2-.54,2.56-2.28a62.01,62.01,0,0,0,.7-8.44c.04-1.9.04-1.9.1-2.62a16.19,16.19,0,0,1-2.34.1ZM-23.2,29.8a2.688,2.688,0,0,1-1.28.16h-9.84a12.019,12.019,0,0,1-2.26-.14v1.62a13.907,13.907,0,0,1,2.24-.12h10.18c-1.14,4.48-3.02,7.34-6.3,9.52a14.86,14.86,0,0,1-4.52,2.12,3.785,3.785,0,0,1,.98,1.4,18.367,18.367,0,0,0,6.28-3.76,17.041,17.041,0,0,0,5.02-8.68c.28-1.02.28-1.02.42-1.24Zm14.36,5.86a14.8,14.8,0,0,1-3.1,3.62,17.992,17.992,0,0,1-4.58,2.96,3.559,3.559,0,0,1,.9,1.08c3.58-1.92,6.42-4.48,7.5-6.74a1.283,1.283,0,0,0,.1-.22c-.04.58-.08,1.08-.08,1.12l.04,5.96v.08A10.8,10.8,0,0,1-8.12,45H-6.6a7.124,7.124,0,0,1-.1-1.56l-.1-7.78h1.92a10.925,10.925,0,0,1,1.8.1V34.38a10.208,10.208,0,0,1-1.8.1H-6.82L-6.84,33v-.32a6.03,6.03,0,0,1,.08-1.1H-8.2a7.407,7.407,0,0,1,.1,1.5l.02,1.4h-5.88a8.064,8.064,0,0,1-1.78-.12v1.4a10.489,10.489,0,0,1,1.8-.1ZM2.24,37.14a21.849,21.849,0,0,1,2.48-.08h11.6a22.88,22.88,0,0,1,2.44.08V35.52a15.775,15.775,0,0,1-2.42.1H4.72a14.148,14.148,0,0,1-2.48-.12ZM27.9,28.1a37.95,37.95,0,0,1-1.58,5.76,76.276,76.276,0,0,1-3.02,7.92c-.46.04-1.56.1-1.7.1-.1,0-.1,0-.56-.02l.2,1.66a13.908,13.908,0,0,1,1.7-.22,123.545,123.545,0,0,0,12.3-1.66,27.147,27.147,0,0,1,1.18,2.7l1.4-.76a51.806,51.806,0,0,0-4.98-9.04l-1.24.68a38.905,38.905,0,0,1,3.08,5.18c-2.36.46-7.06,1.08-9.72,1.26a108.357,108.357,0,0,0,4.16-11.7,7.907,7.907,0,0,1,.54-1.44ZM51.86,38.6a11.49,11.49,0,0,0,1.22,3.38A13.908,13.908,0,0,1,47.9,44.4a3.02,3.02,0,0,1,.8,1.02,15.67,15.67,0,0,0,4.96-2.52c1.14,1.64,2.22,2.48,3.2,2.48.94,0,1.34-.74,1.8-3.26a4.043,4.043,0,0,1-1.02-.7,9.111,9.111,0,0,1-.36,2.02c-.18.52-.3.68-.54.68-.52,0-1.34-.72-2.2-1.94a23.737,23.737,0,0,0,2.32-2.44l-1.02-.7a7.182,7.182,0,0,1-1.86,2.24,9.445,9.445,0,0,1-1-2.68h3.34a12.611,12.611,0,0,1,2.12.12v-1.3a10.525,10.525,0,0,1-2.12.12H52.78a51.3,51.3,0,0,1-.56-8.06,10.763,10.763,0,0,1,.1-1.96h-1.4a7.851,7.851,0,0,1,.1,1.26,51.871,51.871,0,0,0,.3,6.26,22.88,22.88,0,0,0,.34,2.5H47.1a11.073,11.073,0,0,1-1.8-.1V38.7a11.847,11.847,0,0,1,1.8-.1h.22c-.2,2.86-1.04,4.54-2.88,5.82a3.038,3.038,0,0,1,.96.86,8.243,8.243,0,0,0,2.74-4.52,8.922,8.922,0,0,0,2.18,1.9,4.215,4.215,0,0,1,.66-.96,7.9,7.9,0,0,1-2.6-2.14c.04-.4.04-.44.08-.96ZM53,35.76a3.093,3.093,0,0,1,.34-.06c2.16-.28,3.48-.46,3.94-.56.14.36.22.58.4,1.18l.92-.36a17.119,17.119,0,0,0-1.46-3.08l-.82.32a6.743,6.743,0,0,1,.6,1.12,21.833,21.833,0,0,1-2.44.28c.98-1.1,1.54-1.82,3.36-4.26l-.92-.72a20.388,20.388,0,0,1-1.54,2.4c-.38-.48-.56-.7-.96-1.14a22.752,22.752,0,0,0,1.82-2.76l-1.04-.56a11.116,11.116,0,0,1-1.46,2.64c-.22-.22-.3-.3-.62-.6l-.66.84a11.5,11.5,0,0,1,2.3,2.42c-.64.82-.8,1.02-1.48,1.8a.75.75,0,0,1-.2.02,1.847,1.847,0,0,1-.3-.02Zm-4.94-8.28a10.324,10.324,0,0,1-1.52,2.88c-.22-.2-.4-.38-.56-.54l-.72.8a13.158,13.158,0,0,1,2.36,2.5c-.52.76-.88,1.22-1.6,2.1a2.313,2.313,0,0,1-.34.02,1.249,1.249,0,0,1-.24-.02l.24,1.14a5.481,5.481,0,0,1,.56-.1c1.92-.3,2.98-.5,3.82-.68.1.36.14.48.24.88l.9-.38a12.535,12.535,0,0,0-1.3-2.86l-.8.3a7.463,7.463,0,0,1,.66,1.24c-.64.12-1.52.24-2.5.36a36.106,36.106,0,0,0,3.1-4.4l-.96-.68a16.411,16.411,0,0,1-1.2,2.2,9.814,9.814,0,0,0-.96-1.16A18.269,18.269,0,0,0,49.12,28ZM42.6,31.42h-.86a7.9,7.9,0,0,1-1.38-.08V32.6a8.663,8.663,0,0,1,1.38-.08h.7a17.016,17.016,0,0,1-2.6,6.6,4.216,4.216,0,0,1,.72,1.16,17.261,17.261,0,0,0,2.26-6.26c-.12,1.52-.2,3.08-.2,3.86v5.46a16.8,16.8,0,0,1-.12,2.32h1.4a16.212,16.212,0,0,1-.1-2.32V36.78c0-.7-.04-1.56-.08-2.94a6.916,6.916,0,0,0,1.08,2.14,6.8,6.8,0,0,1,.56-1.04,7.792,7.792,0,0,1-1.48-2.42h.48a8.62,8.62,0,0,1,1.28.08V31.34a7.308,7.308,0,0,1-1.3.08H43.8V29.44a16.856,16.856,0,0,1,.08-2.06H42.5a12.254,12.254,0,0,1,.1,2.08ZM54.24,36.2a7.252,7.252,0,0,1,1.5,1.32l.72-.68a6.9,6.9,0,0,0-1.52-1.22Zm6.44-3.34a7.974,7.974,0,0,1,1.18-.14c1.96-.12,4.84-.44,6.32-.68.26.46.32.58.62,1.2l1.06-.62a31.167,31.167,0,0,0-2.58-4.02l-.94.48a17.5,17.5,0,0,1,1.26,1.96c-1.42.18-2.2.26-4.2.4a33.629,33.629,0,0,0,1.66-3.02,4.805,4.805,0,0,1,.4-.78l-1.4-.4a11.386,11.386,0,0,1-1.1,2.7,15.519,15.519,0,0,1-.88,1.56c-.58.02-.58.02-.7.02-.16,0-.6-.02-.88-.02Zm11.1-3.54a7.872,7.872,0,0,1,.12-1.74H70.44a10.779,10.779,0,0,1,.12,1.74v4.72c0,1.16.5,1.36,3.36,1.36,2.58,0,3.36-.1,3.7-.52.34-.4.52-1.16.66-2.84a4.365,4.365,0,0,1-1.18-.5c-.08,1.78-.18,2.3-.5,2.5-.28.18-.88.22-2.7.22-1.9,0-2.12-.06-2.12-.62v-1.8a23.711,23.711,0,0,0,5.06-2.06c.8-.44.8-.44,1.12-.6l-.88-1.06a16.152,16.152,0,0,1-5.3,2.54Zm0,9.06a8.55,8.55,0,0,1,.1-1.74H70.46a9.139,9.139,0,0,1,.1,1.8v5c0,.66.16.96.64,1.16a7.609,7.609,0,0,0,3.06.3c2.2,0,2.88-.1,3.32-.52.48-.46.7-1.24.86-3.14a5.436,5.436,0,0,1-1.2-.52,6.012,6.012,0,0,1-.42,2.58c-.26.32-.9.44-2.48.44a10.794,10.794,0,0,1-1.92-.1c-.5-.08-.64-.22-.64-.62V40.64a22.1,22.1,0,0,0,3.2-1.08c.7-.3,2.24-1.08,3.12-1.58l-.94-1.04a14.712,14.712,0,0,1-5.38,2.5Zm-9.94,5.08a13.271,13.271,0,0,1-.1,2h1.42a13.538,13.538,0,0,1-.1-2.04v-2.5h4.42V43.5c0,.36-.12.44-.66.44a11.71,11.71,0,0,1-1.54-.1,5.6,5.6,0,0,1,.3,1.24c.26.02.48.02.62.02,2.14,0,2.46-.2,2.46-1.48v-8.5c0-.36.02-.96.06-1.34a14.863,14.863,0,0,1-1.84.08h-3.5a12.087,12.087,0,0,1-1.62-.08,16.381,16.381,0,0,1,.08,1.84Zm1.22-8.5h4.42v1.88H63.06Zm0,2.94h4.42v1.96H63.06Z" transform="translate(1672.193 578.375)" fill="#070304"/>
    <g id="グループ_62002" data-name="グループ 62002" transform="translate(960.573 31.5)">
      <path id="パス_51327" data-name="パス 51327" d="M21.1,10.7a21.89,21.89,0,0,1,37.632,0L76.651,40.653c8.817,14.738-1.726,33.52-18.816,33.52H22c-17.09,0-27.633-18.783-18.816-33.52Z" transform="matrix(0.961, 0.276, -0.276, 0.961, 684.879, 589)" fill="#ffc2b9"/>
      <path id="パス_51326" data-name="パス 51326" d="M21.318,10.742a22.191,22.191,0,0,1,38.02,0L77.44,40.8A22.191,22.191,0,0,1,58.43,74.44h-36.2A22.191,22.191,0,0,1,3.216,40.8Z" transform="translate(739.152 691.497) rotate(-164)" fill="#ff8977" opacity="0.6"/>
      <g id="グループ_2818" data-name="グループ 2818" transform="translate(694.301 622.558)" clip-path="url(#clip-path)">
        <path id="パス_5724" data-name="パス 5724" d="M31.927,33.015H3.641A3.646,3.646,0,0,1,0,29.375V13.641A3.646,3.646,0,0,1,3.641,10H7.323a1.046,1.046,0,1,1,0,2.092H3.641a1.551,1.551,0,0,0-1.549,1.548V29.375a1.551,1.551,0,0,0,1.549,1.548H31.927a1.55,1.55,0,0,0,1.548-1.548V13.641a1.55,1.55,0,0,0-1.548-1.548h-.544a1.046,1.046,0,0,1,0-2.092h.544a3.646,3.646,0,0,1,3.64,3.64V29.375a3.646,3.646,0,0,1-3.64,3.64" transform="translate(-0.016 0.518)"/>
        <path id="パス_5725" data-name="パス 5725" d="M6.481,22.6A1.046,1.046,0,0,1,5.45,21.387l.89-5.343a1.042,1.042,0,0,1,.292-.567L21.8.307a1.037,1.037,0,0,1,.807-.3A6.741,6.741,0,0,1,26.3,1.4a1.029,1.029,0,0,1,.177.174,6.934,6.934,0,0,1,1.511,3.8,1.048,1.048,0,0,1-.3.822L12.519,21.361a1.034,1.034,0,0,1-.558.291l-5.3.935a.966.966,0,0,1-.182.017m1.867-5.886L7.756,20.27l3.516-.62L25.847,5.077a4.849,4.849,0,0,0-.921-2.1,4.654,4.654,0,0,0-2-.837Z" transform="translate(0.234 0.057)"/>
        <path id="パス_5726" data-name="パス 5726" d="M28.461,22.093H19.046a1.046,1.046,0,0,1,0-2.092h9.415a1.046,1.046,0,1,1,0,2.092" transform="translate(0.814 0.979)"/>
        <path id="パス_5727" data-name="パス 5727" d="M28.645,27.093h-13.6a1.046,1.046,0,1,1,0-2.092h13.6a1.046,1.046,0,1,1,0,2.092" transform="translate(0.629 1.21)"/>
        <path id="パス_5728" data-name="パス 5728" d="M21.74,11a1.043,1.043,0,0,1-.74-.307L16.594,6.287a1.046,1.046,0,1,1,1.479-1.479L22.48,9.215A1.046,1.046,0,0,1,21.74,11" transform="translate(0.735 0.265)"/>
        <path id="パス_5729" data-name="パス 5729" d="M21.714,15.98a1.046,1.046,0,0,1-.74-1.786L26.1,9.072l.931.515-.861-.594a.453.453,0,0,0-.114-.63,1.087,1.087,0,0,1-.146-.121L24.565,6.9a1.046,1.046,0,0,1,1.479-1.479L27.325,6.7a2.546,2.546,0,0,1,.242,3.857l-5.113,5.113a1.043,1.043,0,0,1-.74.307" transform="translate(0.937 0.293)"/>
      </g>
    </g>
  </g>
</svg>
