<svg xmlns="http://www.w3.org/2000/svg" xmlns:xlink="http://www.w3.org/1999/xlink" width="273.193" height="276.591" viewBox="0 0 273.193 276.591">
  <defs>
    <filter id="パス_106510" x="0" y="0" width="273.193" height="276.591" filterUnits="userSpaceOnUse">
      <feOffset dy="3" input="SourceAlpha"/>
      <feGaussianBlur stdDeviation="3" result="blur"/>
      <feFlood flood-opacity="0.161"/>
      <feComposite operator="in" in2="blur"/>
      <feComposite in="SourceGraphic"/>
    </filter>
  </defs>
  <g id="グループ_62102" data-name="グループ 62102" transform="translate(-674.5 -534.152)">
    <g id="グループ_62099" data-name="グループ 62099">
      <g transform="matrix(1, 0, 0, 1, 674.5, 534.15)" filter="url(#パス_106510)">
        <path id="パス_106510-2" data-name="パス 106510" d="M4.252,0H250.941a4.252,4.252,0,0,1,4.252,4.252V254.339a4.252,4.252,0,0,1-4.252,4.252H4.252A4.252,4.252,0,0,1,0,254.339V4.252A4.252,4.252,0,0,1,4.252,0Z" transform="translate(9 6)" fill="#fff"/>
      </g>
      <path id="パス_106511" data-name="パス 106511" d="M-65.16-12.06a11.017,11.017,0,0,1-2.16-.14l.02,1.52a12.056,12.056,0,0,1,2.12-.1l3.64-.02a13.013,13.013,0,0,1-1.24,4.76,11.7,11.7,0,0,1-5.2,5.26A4.144,4.144,0,0,1-66.96.4a14.443,14.443,0,0,0,5.24-5.3,15.082,15.082,0,0,0,1.6-5.9l5.6-.02a44.037,44.037,0,0,1-.5,7.1c-.38,1.98-.7,2.46-1.68,2.46a8.445,8.445,0,0,1-2.58-.52,3.288,3.288,0,0,1,.22,1.26v.24a11.383,11.383,0,0,0,2.48.34c1.8,0,2.4-.72,2.9-3.46a54.558,54.558,0,0,0,.56-7,3,3,0,0,1,.16-1.2l-.74-.64a3.2,3.2,0,0,1-1.32.14l-5,.02c.06-.56.06-.8.1-1.42a16.7,16.7,0,0,1,.16-2.58l-1.62-.04a5.361,5.361,0,0,1,.08,1.04c0,.88-.04,1.98-.12,3Zm19.86-3.38a11.762,11.762,0,0,1,.08,1.68v5.34a12.125,12.125,0,0,1-.08,1.68h1.66a10.592,10.592,0,0,1-.08-1.66v-5.38a10.926,10.926,0,0,1,.08-1.66Zm8.84,0a11.121,11.121,0,0,1,.08,1.76v2.26a24.868,24.868,0,0,1-.28,5.1,5.966,5.966,0,0,1-3.2,4.22,11.645,11.645,0,0,1-3.8,1.36A3.825,3.825,0,0,1-42.82.64,15.746,15.746,0,0,0-39.18-.8a7.6,7.6,0,0,0,3.8-4.44,22.54,22.54,0,0,0,.5-6.1V-13.7a8.927,8.927,0,0,1,.1-1.74Zm12,1.84a8.85,8.85,0,0,1,.1-1.68H-26a11.1,11.1,0,0,1,.08,1.66V-4.4c0,.84.02,1.24.04,1.56a2.656,2.656,0,0,0,.82,1.92c.7.58,2.02.82,4.38.82,1.38,0,4.02-.14,5.3-.28l.96-.1.26-.02c.3-.04.36-.04.66-.06l-.12-1.6a9.635,9.635,0,0,1-1.98.4,39.565,39.565,0,0,1-4.58.32,20.857,20.857,0,0,1-2.36-.12,2.4,2.4,0,0,1-1.52-.52c-.34-.34-.42-.8-.42-2.2V-4.5l.02-.12V-7.54a31.047,31.047,0,0,0,9.54-3.38c.46-.24.56-.28.86-.42l-1.02-1.36c-1.34,1.32-6.22,3.3-9.38,3.84Zm9.02-2.18a14.812,14.812,0,0,1,2.06,3.18l1-.6a15.183,15.183,0,0,0-2.06-3.1Zm2.28-1.08a14.982,14.982,0,0,1,2.04,3.14l1.02-.56a17.3,17.3,0,0,0-2.08-3.12ZM-2.36.62a13.6,13.6,0,0,1-.1-2.12V-7.52A6.985,6.985,0,0,0-2.54-8.7l.04-.02a2.207,2.207,0,0,0,.62.34A40.778,40.778,0,0,1,5.58-4.42L6.44-5.9a49.6,49.6,0,0,0-8.9-4.22v-3.74a12.554,12.554,0,0,1,.1-2.08H-4.08a11.858,11.858,0,0,1,.12,2.04V-1.48A12.864,12.864,0,0,1-4.08.62ZM15.44-12.7c-.02,2.22-.04,2.64-.12,3.74h-1.9a12.161,12.161,0,0,1-2.16-.12v1.4a12.333,12.333,0,0,1,2.12-.12H15.2A9.289,9.289,0,0,1,10.9-.38a3.542,3.542,0,0,1,1,1.04,10.515,10.515,0,0,0,4-5.76A15.9,15.9,0,0,0,19.26-.86a4.058,4.058,0,0,1,.8-1.2,12.058,12.058,0,0,1-3.8-4.56c.08-.48.1-.72.16-1.18h1.8a12.266,12.266,0,0,1,1.9.12v-1.4a11.742,11.742,0,0,1-1.9.12h-1.7c.1-1.34.1-1.58.14-3.74h1.28c.68,0,1.34.04,1.96.1v-1.38a11.093,11.093,0,0,1-1.96.12H14.32a12.149,12.149,0,0,0,.52-1.58c.18-.6.22-.76.34-1.08l-1.36-.22a4.886,4.886,0,0,1-.18,1.1,10.3,10.3,0,0,1-2.66,5,2.632,2.632,0,0,1,.98.88,13.771,13.771,0,0,0,1.86-2.94ZM22.04-.68h4.84V.74h1.4a19.8,19.8,0,0,1-.12-2.42V-12.64a15.133,15.133,0,0,1,.1-2.1,11.224,11.224,0,0,1-1.8.1h-4a11.074,11.074,0,0,1-1.8-.1,17.47,17.47,0,0,1,.12,2.1v11.1A17.793,17.793,0,0,1,20.66.74h1.38Zm0-12.8h4.84V-1.84H22.04Zm17.24-.28v1.56H35.46a11.727,11.727,0,0,1-2.22-.12,19.684,19.684,0,0,1,.08,2.18V-7.4a18.288,18.288,0,0,1-.08,2.1,15.212,15.212,0,0,1,2.3-.1h8.92a15.13,15.13,0,0,1,2.22.1,17.628,17.628,0,0,1-.08-2.1v-2.8a17.373,17.373,0,0,1,.08-2.12,12.094,12.094,0,0,1-2.26.12H40.48v-1.56h6.16a14.927,14.927,0,0,1,2.04.12v-1.38a10.352,10.352,0,0,1-2.04.14H40.48a9.391,9.391,0,0,1,.14-1.92H39.14a8.34,8.34,0,0,1,.14,1.92H33.32a10.8,10.8,0,0,1-2.02-.14v1.38a13.721,13.721,0,0,1,2-.12Zm0,2.58v1.86H34.54v-1.86Zm1.2,0h4.9v1.86h-4.9Zm-1.2,2.86v1.9H34.54v-1.9Zm1.2,0h4.9v1.9h-4.9ZM32.24.74A15.811,15.811,0,0,0,34.4-3.7l-1.14-.5A11.044,11.044,0,0,1,31.1,0Zm5.1-3.72a6.247,6.247,0,0,1,.12-1.44H36a7.037,7.037,0,0,1,.12,1.58v2.5c0,1.22.5,1.38,4.26,1.38,4.14,0,4.36-.14,4.66-2.86a3.312,3.312,0,0,1-1.24-.46c-.04,1.04-.16,1.58-.36,1.78-.28.32-1,.4-3.36.4-2.38,0-2.74-.06-2.74-.52Zm5.04.64A16.249,16.249,0,0,0,39.6-4.88l-.94.66a14.377,14.377,0,0,1,2.76,2.66ZM49-.28a22.357,22.357,0,0,0-3.02-4l-1.04.58A17.942,17.942,0,0,1,47.88.44Zm7.14.02a18.242,18.242,0,0,1-3.08.34l.32,1.42c.26-.06.56-.12.76-.16A60.063,60.063,0,0,0,62.2-.48V-1.7A39.168,39.168,0,0,1,57.38-.5V-4.12a18.739,18.739,0,0,0,2.08-1.74h.38a9.721,9.721,0,0,0,1.14,2.18,11.969,11.969,0,0,0,4.2,3.54A20.513,20.513,0,0,0,68.74,1.3a4.011,4.011,0,0,1,.8-1.28,14.2,14.2,0,0,1-5.72-2.46,30.451,30.451,0,0,0,3.22-2.34l-1.12-.8a13.377,13.377,0,0,1-2.96,2.42,7.238,7.238,0,0,1-1.9-2.7H66.7a16.337,16.337,0,0,1,2.18.12V-7.08a14.64,14.64,0,0,1-2.16.12h-6.3v-.66a8.185,8.185,0,0,1,.1-1.58H59.04a7.623,7.623,0,0,1,.12,1.58v.66h-5.9a15.407,15.407,0,0,1-2.16-.12v1.34a16.456,16.456,0,0,1,2.2-.12h4.62a19.762,19.762,0,0,1-7.24,3.58,4.889,4.889,0,0,1,.72,1.12,28.257,28.257,0,0,0,4.74-2.18ZM60.76-12a9.1,9.1,0,0,0,2.4,2.62,7.3,7.3,0,0,0,3.8,1.5,1.644,1.644,0,0,0,1.24-.6,4.7,4.7,0,0,0,.74-1.64,3.3,3.3,0,0,1-1.02-.82c-.42,1.52-.64,1.9-1.12,1.9a6.419,6.419,0,0,1-2.74-1.16,6.968,6.968,0,0,1-1.96-1.94l4.52-.52c.88-.08,1.32-.12,1.7-.12h.36l-.14-1.28a13.471,13.471,0,0,1-2.06.34l-4.96.54a8.39,8.39,0,0,1-.76-2.98v-.24l-1.46.12a7.5,7.5,0,0,1,.24.86,11.63,11.63,0,0,0,.72,2.38l-2.36.26c-.32.04-.94.08-1.26.08a3.534,3.534,0,0,1-.38-.02l.14,1.3a10.944,10.944,0,0,1,1.58-.28Zm-6.8,2.2a11.509,11.509,0,0,1-.12,1.82h1.44a11.167,11.167,0,0,1-.1-1.84v-3.72c.54-.6,1.14-1.36,1.44-1.78a5.378,5.378,0,0,1,.44-.58l-1.22-.54c-.58,1.5-3.02,3.96-5.22,5.28a4.673,4.673,0,0,1,.78.98A22.409,22.409,0,0,0,54-12.32c-.04.42-.04.88-.04,1.48Zm12.16-5.1a19.438,19.438,0,0,0-2.96-1.68l-.74.8A14.537,14.537,0,0,1,65.38-14Z" transform="translate(811 602.375)" fill="#070304"/>
      <path id="パス_106512" data-name="パス 106512" d="M7.267,7.113a4.96,4.96,0,0,1-.533,1.7,4.4,4.4,0,0,1-1.04-1.287l-.728.429c.091.091.1.117.208.234A8.241,8.241,0,0,0,6.305,9.427a7.128,7.128,0,0,1-3.146,1.768,2.794,2.794,0,0,1,.507.715,7.093,7.093,0,0,0,3.2-2.041,11.908,11.908,0,0,0,5.161,1.95,3.452,3.452,0,0,1,.4-.858,10.57,10.57,0,0,1-5.109-1.69,5.513,5.513,0,0,0,.728-2.158H10.3a11.369,11.369,0,0,1,1.287.052,6.78,6.78,0,0,1-.039-1.04V4.565q0-.546.039-.975c-.351.026-.65.039-1.209.039H8.268V3.174c.013-.247.013-.416.013-.468V2.329H11.1a8.019,8.019,0,0,1,1.222.065V1.523a9.3,9.3,0,0,1-1.3.078H8.281A9.78,9.78,0,0,1,8.346.106H7.41A8.724,8.724,0,0,1,7.488,1.6h-2.4a8.521,8.521,0,0,1-1.248-.078v.871a7.453,7.453,0,0,1,1.2-.065H7.5v.52l-.013.78H5.356c-.637,0-.819-.013-1.17-.039a5.6,5.6,0,0,1,.052.91V6.281a6.342,6.342,0,0,1-.052.884A9.826,9.826,0,0,1,5.33,7.113Zm.208-2.756c-.026.9-.065,1.521-.117,2.028H5.031V4.357Zm3.263,0V6.385h-2.6c.052-.6.078-1.144.1-2.028ZM1.95,10.428a13.4,13.4,0,0,1-.078,1.56h.949a13.393,13.393,0,0,1-.065-1.521V3.343A19.553,19.553,0,0,0,3.64,1.068c.1-.338.143-.455.234-.715l-.9-.234a7.561,7.561,0,0,1-.494,1.846A11.832,11.832,0,0,1,.3,5.761a2.664,2.664,0,0,1,.52.715A9.55,9.55,0,0,0,1.989,4.6c-.039.819-.039.91-.039,1.573ZM14.768,1.783a7.033,7.033,0,0,1,.039.767c.065,3.2.247,4.862.7,6.1s1.118,1.976,1.846,1.976c.923,0,1.521-.871,2.158-3.146a4.156,4.156,0,0,1-.767-.741,9.353,9.353,0,0,1-.676,2.223c-.195.429-.416.65-.65.65-.494,0-1.027-.9-1.313-2.223a22.262,22.262,0,0,1-.338-4.043A9.423,9.423,0,0,1,15.86,1.8Zm6.578,1.1A11.481,11.481,0,0,1,24.05,9.3l.923-.377A12.448,12.448,0,0,0,24,5.449a11.284,11.284,0,0,0-1.859-2.964Zm10.608-.52h-3.7a8.749,8.749,0,0,1-1.443-.091v.975a10.081,10.081,0,0,1,1.456-.078h2.73c-.1,2.73-.611,4.5-1.677,5.876a6.737,6.737,0,0,1-2.639,2.106,2.516,2.516,0,0,1,.637.728,7.778,7.778,0,0,0,1.417-.949,8.293,8.293,0,0,0,1.612-1.794,8.734,8.734,0,0,0,1.235-3.328h4.082a24.929,24.929,0,0,1-.4,3.939c-.195.962-.325,1.118-.884,1.118a10.522,10.522,0,0,1-1.963-.208,2.832,2.832,0,0,1,.208.923c.7.078,1.391.117,1.807.117,1.04,0,1.352-.273,1.625-1.391a27.2,27.2,0,0,0,.494-4.433c.026-.507.039-.65.065-.91a8.272,8.272,0,0,1-1.339.065H31.72A18.02,18.02,0,0,0,31.9,3.174h4.927a8.119,8.119,0,0,1,1.469.078V2.277a9.133,9.133,0,0,1-1.495.091H32.825V1.393A6.332,6.332,0,0,1,32.9.249h-1.04a7.156,7.156,0,0,1,.091,1.144Zm9.62-1a13.06,13.06,0,0,1,.936,2.47c-.208.065-.338.091-.663.208a14.267,14.267,0,0,1-1.911.611l.338.923a12.39,12.39,0,0,1,1.781-.715,5.619,5.619,0,0,0,.7-.234A46.23,46.23,0,0,1,44.4,11.65l1.053-.234a4.126,4.126,0,0,1-.169-.559C44.733,8.413,44.265,6.58,43.6,4.37a15.328,15.328,0,0,1,4.238-.923c1.313,0,2.08.585,2.08,1.573A1.576,1.576,0,0,1,49.3,6.346a2.633,2.633,0,0,1-1.56.507,4.418,4.418,0,0,1-2.184-.6A5.789,5.789,0,0,1,45.63,7a1.869,1.869,0,0,1-.013.234,5.505,5.505,0,0,0,2.2.481,2.779,2.779,0,0,0,3.055-2.678c0-1.456-1.118-2.392-2.86-2.392a6.547,6.547,0,0,0-.975.078c-.013-.156-.013-.4-.013-.416A12.267,12.267,0,0,1,47.086.548h-.975a18.017,18.017,0,0,1,.052,2.3,23.055,23.055,0,0,0-2.8.728c-.182-.585-.312-.949-.572-1.716a5.224,5.224,0,0,1-.247-.793ZM59.631,2.433a13.138,13.138,0,0,1-2.652.559V1.744A7.435,7.435,0,0,1,57.044.535h-.962a8.636,8.636,0,0,1,.065,1.235V3.057c-.39.026-.9.039-1.248.039a7.363,7.363,0,0,1-1.326-.091v.858h.533c.143.013.494.013.689.013.377,0,.6,0,.832-.013.4-.026.4-.026.52-.039V6.281a6.954,6.954,0,0,0-1.833,1.066,2.353,2.353,0,0,0-1.027,1.729,1.568,1.568,0,0,0,.6,1.222,3.433,3.433,0,0,0,2.145.832c.637,0,.949-.338.949-1.04V6.84a8.771,8.771,0,0,1,2.756-.507c1.7,0,2.782.793,2.782,2.067a1.726,1.726,0,0,1-1.742,1.833c-.949,0-1.339-.559-1.339-1.911a3.861,3.861,0,0,1,.026-.507,2.818,2.818,0,0,1-.858.338,4.744,4.744,0,0,0,.156,1.469,1.917,1.917,0,0,0,2,1.469A2.675,2.675,0,0,0,62.075,6.1a4.4,4.4,0,0,0-2.3-.546,9.21,9.21,0,0,0-2.795.468V3.772a22.817,22.817,0,0,0,2.3-.39c.182-.039.234-.052.39-.078ZM56.147,9.609c0,.559-.039.637-.3.637a2.428,2.428,0,0,1-1.157-.377c-.377-.247-.559-.507-.559-.78,0-.624.728-1.326,2.015-1.95Zm7.813-5.5a10.924,10.924,0,0,0-2.626-2.47l-.676.507a10.647,10.647,0,0,1,2.626,2.548Zm6.916.546a10.362,10.362,0,0,1-3.614,3.978,2.507,2.507,0,0,1,.585.65,10.1,10.1,0,0,0,3.289-4.056c-.039.455-.052.819-.052,1.274V8.829a9.279,9.279,0,0,1-.065,1.3H71.9a8.947,8.947,0,0,1-.065-1.3V6.5c0-.429-.013-.819-.052-1.287a10.213,10.213,0,0,0,3.471,4.03,4.051,4.051,0,0,1,.507-.728,9.94,9.94,0,0,1-3.692-3.861h2.236a6.776,6.776,0,0,1,1.131.065V3.889a6.911,6.911,0,0,1-1.17.065H71.838V2.823a3.965,3.965,0,0,1,.065-.858h-.884a4.267,4.267,0,0,1,.065.858V3.954H68.809a8.775,8.775,0,0,1-1.17-.065v.832A7.729,7.729,0,0,1,68.8,4.656ZM76.947,12a10.19,10.19,0,0,1-.078-1.547V2.3A13.805,13.805,0,0,1,76.947.7,13.049,13.049,0,0,1,75.4.769H67.626A12.581,12.581,0,0,1,66.105.7a14.287,14.287,0,0,1,.078,1.6v8.138A11.137,11.137,0,0,1,66.105,12H67v-.78H76.05V12ZM67,1.51H76.05v8.97H67ZM81.458.47a2.606,2.606,0,0,1-.039.416,32.861,32.861,0,0,0-.442,4.8v.3L81,7.334l.013.234v.143l.936-.039c-.013-.195-.013-.26-.013-.312a6.784,6.784,0,0,1,.7-2.9C83.382,2.94,84.214,2.2,85.2,2.2c1.248,0,1.976,1.209,1.976,3.3a4.477,4.477,0,0,1-2.236,4.316,6.869,6.869,0,0,1-2.639.819,2.683,2.683,0,0,1,.52.884,9.84,9.84,0,0,0,2.314-.767,5.364,5.364,0,0,0,3-5.109,5.34,5.34,0,0,0-.78-3.159,2.447,2.447,0,0,0-2.08-1.157,3.1,3.1,0,0,0-2.6,1.677,5.8,5.8,0,0,0-.793,1.937c-.065.273-.065.273-.091.377l-.052-.013c.039-.663.221-2.08.429-3.393a7.369,7.369,0,0,1,.3-1.339ZM94.64,5.9a3.416,3.416,0,0,0-1.5,2.509,2.071,2.071,0,0,0,1.482,1.963,9.171,9.171,0,0,0,2.99.4,21.206,21.206,0,0,0,3.51-.3,4.04,4.04,0,0,1,.442-.065l-.117-1.066a12.332,12.332,0,0,1-3.9.494,8.278,8.278,0,0,1-2.379-.26c-.728-.247-1.105-.676-1.105-1.274S94.458,7.1,95.3,6.4Zm-.78-3.328c.182.013.182.013.429.039a25.43,25.43,0,0,0,2.86.169,10.275,10.275,0,0,0,1.963-.169,20.218,20.218,0,0,0-2.3,1.378l.663.533A19.828,19.828,0,0,1,100.75,2.55l-.065-.858a14.217,14.217,0,0,1-3.289.273,14.863,14.863,0,0,1-3.458-.312ZM99.775,4.24A10.137,10.137,0,0,1,101.1,6.307l.65-.39A10.363,10.363,0,0,0,100.425,3.9Zm1.443-.754a10.9,10.9,0,0,1,1.326,2.041l.65-.364a10.023,10.023,0,0,0-1.352-2.028ZM108.03.8a4.348,4.348,0,0,1,.221.819,26.481,26.481,0,0,0,.949,3.64,8.1,8.1,0,0,0-1.7,1.053,2.812,2.812,0,0,0-1.157,2.21,2.158,2.158,0,0,0,1.612,2.132,8.844,8.844,0,0,0,2.886.351,26.078,26.078,0,0,0,2.873-.169,6.738,6.738,0,0,1,.962-.078l-.1-1.079a12.907,12.907,0,0,1-3.718.442c-2.548,0-3.549-.455-3.549-1.638,0-1.079.962-1.937,3.185-2.821A29.9,29.9,0,0,1,114.4,4.4l-.39-.988a7.03,7.03,0,0,1-.832.338c-2.015.7-2.379.845-3.146,1.157a22.611,22.611,0,0,1-.975-4.3Zm13.091,1.456a18.19,18.19,0,0,1-2.782-.143l-.013.9a2.305,2.305,0,0,1,.286-.013h.208c.481.013,1.7.039,1.911.039a1.44,1.44,0,0,0,.247-.026l-.117.195a12.936,12.936,0,0,1-2.912,3.718l.728.728a4.3,4.3,0,0,1,1-1.079,4.884,4.884,0,0,1,2.9-1.378c.611,0,.923.312,1.027,1.027a10.092,10.092,0,0,0-1.937,1.04,2.688,2.688,0,0,0-1.326,2.054c0,1.339,1.131,2,3.458,2a20.168,20.168,0,0,0,3.159-.26,5.116,5.116,0,0,1,.52-.065l-.117-1a10.892,10.892,0,0,1-3.471.507c-1.833,0-2.639-.377-2.639-1.235,0-.78.676-1.391,2.444-2.223a3.416,3.416,0,0,1,.013.39A18.7,18.7,0,0,1,123.63,9.3l.884-.013a2.826,2.826,0,0,1-.026-.468c0-.117,0-.3.013-.585.013-.26.013-.546.013-.715,0-.325,0-.455-.026-.793a21.584,21.584,0,0,1,3.471-1.144l-.416-.91a2.86,2.86,0,0,1-.884.377c-.572.208-1.313.481-2.262.858a1.578,1.578,0,0,0-1.716-1.443,3.46,3.46,0,0,0-1.963.637c-.13.091-.13.091-.6.455a.1.1,0,0,1-.026-.039V5.5a.013.013,0,0,0,.013-.013,2.132,2.132,0,0,1,.169-.13c.052-.039.312-.338.442-.494a9.586,9.586,0,0,0,1.17-1.846,41.975,41.975,0,0,0,4.29-.338,4.052,4.052,0,0,1,.52-.065l-.078-.884a18.3,18.3,0,0,1-4.1.494,2.213,2.213,0,0,0-.273.013c.065-.117.234-.468.4-.884a2.761,2.761,0,0,1,.338-.7L121.953.47a5.517,5.517,0,0,1-.624,1.781Zm9.087,6.773a12.975,12.975,0,0,1,2.561,2.834l.728-.689a13.246,13.246,0,0,0-2.613-2.756Zm20.9-.13c.351-1.82.6-3.276.871-5.252a2.555,2.555,0,0,1,.234-.988L151.71,2.2a2.109,2.109,0,0,1-.871.117h-4.2a7.061,7.061,0,0,1-1.443-.091V3.239a11.009,11.009,0,0,1,1.43-.065h4.407a55.531,55.531,0,0,1-.923,5.72h-4.888A7.935,7.935,0,0,1,143.7,8.8v1.04a11.842,11.842,0,0,1,1.508-.065h7.813a11.842,11.842,0,0,1,1.508.065V8.8a7.935,7.935,0,0,1-1.521.091Zm5.239-2.353a14.2,14.2,0,0,1,1.612-.052h7.54a14.872,14.872,0,0,1,1.586.052V5.488a10.253,10.253,0,0,1-1.573.065h-7.553a9.2,9.2,0,0,1-1.612-.078ZM172.614,3.46V1.913A6.925,6.925,0,0,1,172.666.86h-1.053a6.349,6.349,0,0,1,.052,1.092V3.46h-1.079a8.887,8.887,0,0,1-1.521-.078V4.37a10.425,10.425,0,0,1,1.508-.065h1.092V6.437a6.248,6.248,0,0,1-.052,1.092h1.053a6.816,6.816,0,0,1-.052-1.053V4.305h3.952a10.581,10.581,0,0,1-.39,3.64A4.952,4.952,0,0,1,172.64,10.7a2.329,2.329,0,0,1,.585.819,6.047,6.047,0,0,0,3.627-2.808c.481-.936.624-1.9.637-4.407h1.144a10.426,10.426,0,0,1,1.508.065V3.382a8.887,8.887,0,0,1-1.521.078H177.5V2.1A9.93,9.93,0,0,1,177.554.86H176.54a9.094,9.094,0,0,1,.039,1.326V3.46ZM178.048.236a10.038,10.038,0,0,1,.923,2.171l.689-.234a10.329,10.329,0,0,0-.923-2.132Zm1.521-.4a10.382,10.382,0,0,1,.91,2.132l.676-.234a10.076,10.076,0,0,0-.923-2.119Zm2.392,6.708a14.2,14.2,0,0,1,1.612-.052h7.54a14.871,14.871,0,0,1,1.586.052V5.488a10.253,10.253,0,0,1-1.573.065h-7.553a9.2,9.2,0,0,1-1.612-.078Zm19.071-4.16a3.741,3.741,0,0,1,1.508.325,3.427,3.427,0,0,1,2.067,3.263,3.924,3.924,0,0,1-2.3,3.64,7.793,7.793,0,0,1-2.171.611,2.066,2.066,0,0,1,.455.871,10.057,10.057,0,0,0,1.976-.6,4.734,4.734,0,0,0,2.977-4.485,4.352,4.352,0,0,0-1.261-3.172,5.033,5.033,0,0,0-3.575-1.287,5.43,5.43,0,0,0-4.2,1.729,5.408,5.408,0,0,0-1.365,3.588c0,1.82.923,3.172,2.158,3.172.936,0,1.7-.78,2.457-2.5A19.487,19.487,0,0,0,201.032,2.381Zm-.936.013a17.856,17.856,0,0,1-1.183,4.81c-.559,1.274-1.079,1.885-1.625,1.885-.7,0-1.248-.962-1.248-2.21a4.5,4.5,0,0,1,2.119-3.874A4.106,4.106,0,0,1,200.1,2.394Zm13.091,3.913a8.448,8.448,0,0,0,.533-.975l-.884-.221a5.432,5.432,0,0,1-.533,1.2h-1.56a10.134,10.134,0,0,1-1.391-.065,13.528,13.528,0,0,1,.052,1.43v2.964a8.555,8.555,0,0,1-.078,1.3h.871v-.6h6.3v.6h.884a8.322,8.322,0,0,1-.078-1.3V7.672a12.466,12.466,0,0,1,.052-1.43,10.343,10.343,0,0,1-1.4.065ZM210.2,7h6.3V8.4h-6.3Zm0,2.08h6.3v1.547h-6.3Zm-1.105-4.355a10.816,10.816,0,0,1-1.612.169l.143.9a6.525,6.525,0,0,1,1-.208c1.339-.234,2.795-.533,4.576-.962v-.7c-1.638.377-2.054.468-3.289.676V2.472h2.145a5.615,5.615,0,0,1,1.079.078V1.666a5.545,5.545,0,0,1-1.079.078h-2.145V1.38a6.693,6.693,0,0,1,.078-1.2h-.975a5.576,5.576,0,0,1,.078,1.2Zm5.512-1.9a21.109,21.109,0,0,0,2.795-.936c.7-.312.7-.312,1.339-.572l-.559-.7a8.72,8.72,0,0,1-2.041.988,13.261,13.261,0,0,1-1.534.507V1.315a5.047,5.047,0,0,1,.078-1.131h-.975a7.18,7.18,0,0,1,.078,1.144V4.357c0,.754.351.91,2.132.91a5.576,5.576,0,0,0,2.34-.221c.377-.234.533-.728.663-2.158a1.93,1.93,0,0,1-.767-.338,3.858,3.858,0,0,1-.325,1.755c-.156.169-.533.221-1.677.221-1.417,0-1.547-.039-1.547-.429ZM7.67,19.693v1.118H6.2A6.259,6.259,0,0,1,5.1,20.746v.845a6.5,6.5,0,0,1,1.131-.065H7.67V22.7H5.655a8.781,8.781,0,0,1-1.131-.052v.806a6.515,6.515,0,0,1,1.118-.065H7.67v1.872a13.61,13.61,0,0,1-3.718,1.976l.377.858a4.972,4.972,0,0,1,.585-.351A17.724,17.724,0,0,0,7.67,26.063V27.9c0,.234-.078.286-.455.286a8.134,8.134,0,0,1-1.287-.117,2.072,2.072,0,0,1,.234.819,9.914,9.914,0,0,0,1.066.052c.975,0,1.222-.182,1.222-.884V25.608a10.868,10.868,0,0,0-.1-1.287,8.2,8.2,0,0,0,1.716,2.652,9.207,9.207,0,0,0,1.911,1.5,3.41,3.41,0,0,1,.546-.754,7.316,7.316,0,0,1-2.47-1.82,10.363,10.363,0,0,0,1.625-1.768l-.663-.468a7,7,0,0,1-1.417,1.677,7.143,7.143,0,0,1-1.066-1.95h2.483a7.773,7.773,0,0,1,1.17.078v-.845A7.714,7.714,0,0,1,11,22.7H8.45v-1.17h1.976a7.3,7.3,0,0,1,1.17.065v-.858a7.039,7.039,0,0,1-1.183.078H8.45V19.693h2.366A7.6,7.6,0,0,1,12,19.771v-.845A7.714,7.714,0,0,1,10.816,19H9.672c.195-.312.624-1.066.832-1.482l-.767-.273A8.233,8.233,0,0,1,8.853,19H7.345a8.391,8.391,0,0,0-.936-1.729l-.689.3A6.293,6.293,0,0,1,6.565,19H5.876a6.758,6.758,0,0,1-1.144-.065v.819a6.59,6.59,0,0,1,1.131-.065Zm-5.2.078H1.664a5.306,5.306,0,0,1-.91-.052v.806a5.6,5.6,0,0,1,.91-.052H2.34a13.08,13.08,0,0,1-.728,2.236A7.6,7.6,0,0,1,.39,24.763a3.212,3.212,0,0,1,.494.806A10.975,10.975,0,0,0,1.742,24.1a10.875,10.875,0,0,0,.832-2.509c-.013.221-.026.377-.026.481-.013.325-.026.559-.039.637-.039.624-.039.624-.039,1.144v3.679a11.05,11.05,0,0,1-.078,1.508h.936a10.538,10.538,0,0,1-.078-1.508V23.593c0-.455-.013-1.027-.052-2.119a8.931,8.931,0,0,0,.845,1.82,5.953,5.953,0,0,1,.455-.7,7.189,7.189,0,0,1-1.209-2.119h.468a7.69,7.69,0,0,1,.819.039v-.793a4.7,4.7,0,0,1-.819.052H3.25V18.5a8.575,8.575,0,0,1,.065-1.339H2.4A7.773,7.773,0,0,1,2.47,18.51ZM4.8,24.087a8.026,8.026,0,0,1,1.222,1.6l.6-.429a11.955,11.955,0,0,0-1.235-1.573ZM15.522,17.86a7.239,7.239,0,0,1-.182,1.04,21.506,21.506,0,0,0-.585,5.148,18.632,18.632,0,0,0,.338,3.679c.039.247.052.312.078.52l.936-.078v-.195A11.332,11.332,0,0,1,17.16,24.4l-.624-.3a12.078,12.078,0,0,0-.845,2.535c-.052-.689-.078-1.456-.078-2.47A19.218,19.218,0,0,1,16,20.1a18.473,18.473,0,0,1,.546-2.08ZM18.2,20.317a17.315,17.315,0,0,0,2.08.13,21.946,21.946,0,0,0,2.8-.169q.858-.117.9-.117l-.065-.923a13.949,13.949,0,0,1-3.484.351,8.83,8.83,0,0,1-2.21-.195Zm.949,2.535a3.591,3.591,0,0,0-1.131,2.418,1.837,1.837,0,0,0,.39,1.2,3.613,3.613,0,0,0,2.977.988,13.412,13.412,0,0,0,2.665-.26c.26-.039.286-.052.455-.065l-.13-1a8.556,8.556,0,0,1-2.99.455c-1.677,0-2.5-.468-2.5-1.43a3.02,3.02,0,0,1,.975-1.911ZM35.282,28a11.749,11.749,0,0,1-1.131-1.027,4.442,4.442,0,0,0,1.04-1.508,6.284,6.284,0,0,0,.468-2.5c0-3.12-1.755-5.122-4.485-5.122s-4.5,2.015-4.5,5.148,1.755,5.122,4.485,5.122a4.166,4.166,0,0,0,2.288-.611,8.531,8.531,0,0,1,1.131,1.222Zm-3.588-2.106a8.917,8.917,0,0,1,1.066.923,2.931,2.931,0,0,1-1.534.39c-2.132,0-3.5-1.651-3.5-4.225s1.365-4.225,3.458-4.225,3.406,1.638,3.406,4.2a5.964,5.964,0,0,1-.416,2.275,3.185,3.185,0,0,1-.728,1.066c-.65-.65-.819-.845-1.04-1.105ZM47.749,28c-.364-.312-.806-.728-1.235-1.157l-.845-.858a8.73,8.73,0,0,0,1.482-3.159l-.91-.351a6.626,6.626,0,0,1-1.2,2.886l-2.717-2.73a5.584,5.584,0,0,0,1.7-.923,2.156,2.156,0,0,0,.754-1.729c0-1.209-1.066-2.041-2.626-2.041a2.566,2.566,0,0,0-2.288,1.027,1.845,1.845,0,0,0-.338,1.092,2.441,2.441,0,0,0,.858,1.833l.442.468a4.839,4.839,0,0,0-1.677,1.053,2.76,2.76,0,0,0-.858,2.041,2.651,2.651,0,0,0,.741,1.9,3.3,3.3,0,0,0,2.444.845,5.175,5.175,0,0,0,1.963-.377A4.515,4.515,0,0,0,45.032,26.7l.3.312A10.706,10.706,0,0,1,46.15,28Zm-6.617-6.591a1.7,1.7,0,0,1-.611-1.287c0-.845.637-1.365,1.651-1.365s1.638.507,1.638,1.339a1.465,1.465,0,0,1-.754,1.274,7.3,7.3,0,0,1-1.352.624Zm3.276,4.667a3.921,3.921,0,0,1-2.847,1.235c-1.391,0-2.275-.754-2.275-1.924a2.015,2.015,0,0,1,.65-1.495,4.732,4.732,0,0,1,1.508-.884Zm14.5,1.846a12.926,12.926,0,0,1-.689-1.5L55.3,19.251a7.029,7.029,0,0,1-.442-1.209H53.547a7.4,7.4,0,0,1-.416,1.209l-2.912,7.176a8.3,8.3,0,0,1-.7,1.5h1.352a7.269,7.269,0,0,1,.4-1.326l.676-1.677h4.537l.676,1.677a9.332,9.332,0,0,1,.4,1.326Zm-2.73-3.9H52.26l1.664-4.29c.026-.052.065-.2.143-.4.026-.091.078-.234.143-.429.247.715.247.728.286.832Zm4.147-3.6a43.278,43.278,0,0,1,4.485-.429,26.606,26.606,0,0,0,2.86-.286,8.51,8.51,0,0,0-1.235.689A4.946,4.946,0,0,0,64,24.386a3.148,3.148,0,0,0,1.443,2.652,6.557,6.557,0,0,0,2.808,1c.234.039.26.052.4.078l.169-1.053h-.13a6.663,6.663,0,0,1-1.95-.416,2.549,2.549,0,0,1-1.82-2.405,3.973,3.973,0,0,1,1.6-3,6.394,6.394,0,0,1,2.5-1.3,5.453,5.453,0,0,1,1.456-.182l-.078-.962a8.78,8.78,0,0,1-1.547.143l-.741.026c-.429.013-.6.026-2.2.117l-2.041.13c-1.6.091-1.677.1-2.4.156-.4.026-.559.039-.741.039-.091,0-.221,0-.468-.013ZM68.3,21.669a9.142,9.142,0,0,1,1.326,2.067l.663-.39a9.869,9.869,0,0,0-1.339-2.015Zm1.482-.7a10.287,10.287,0,0,1,1.326,2.041l.65-.364a10.535,10.535,0,0,0-1.339-2.028Zm6.682-.572c.169-.286.455-.78.6-1.092a6.581,6.581,0,0,1,.468-.819l-.39-.429a4.036,4.036,0,0,1-.728.039H75.179c.013-.026.091-.195.221-.52.091-.221.1-.247.156-.351l-.819-.195a5.553,5.553,0,0,1-.26.845,8.062,8.062,0,0,1-1.885,2.873,2.022,2.022,0,0,1,.611.52c.169-.208.221-.273.338-.429.013.286.013.637.013,1,0,2.184-.026,2.977-.1,3.861a5.776,5.776,0,0,1-.741,2.639,2.552,2.552,0,0,1,.728.52,8.468,8.468,0,0,0,.78-3.328H77.3v2.184c0,.221-.1.273-.507.273a11,11,0,0,1-1.209-.1,2.455,2.455,0,0,1,.156.793c.728.039.819.039,1,.039,1.04,0,1.287-.169,1.287-.884V21.487a8.844,8.844,0,0,1,.052-1.157,8.285,8.285,0,0,1-1.2.065Zm-1.638,0c-.455,0-.6,0-.936-.013a12.1,12.1,0,0,0,.975-1.612h1.664A15.339,15.339,0,0,1,75.66,20.4Zm-.572,4.459c.026-.6.026-.6.039-1.612h1.157v1.612Zm3.042,0h-1.17V23.242H77.3Zm0-2.275h-1.17v-1.5H77.3Zm-1.846-1.5v1.5H74.295l.013-.637v-.858ZM80.3,18.445a2.82,2.82,0,0,1-.442,1.3A3.86,3.86,0,0,1,78.221,21.1a2.139,2.139,0,0,1,.533.637,4.376,4.376,0,0,0,1.807-1.664,4.1,4.1,0,0,0,.559-1.625h1.911a8.966,8.966,0,0,1-.247,1.742c-.078.286-.208.364-.585.364a5.93,5.93,0,0,1-1.157-.156,2.686,2.686,0,0,1,.156.767,9.618,9.618,0,0,0,1.2.091c.78,0,1.04-.234,1.209-1.131.091-.481.182-1.235.234-1.911.026-.247.026-.286.052-.494a10.212,10.212,0,0,1-1.2.052H79.729a7.878,7.878,0,0,1-1.3-.078v.832a7.1,7.1,0,0,1,1.235-.078Zm.832,5.213v1.573H79.521a7.12,7.12,0,0,1-1.131-.078v.871a7.3,7.3,0,0,1,1.118-.065h1.625v1.794a7.473,7.473,0,0,1-.078,1.157h.91a7.242,7.242,0,0,1-.078-1.157V25.959h1.378a9.168,9.168,0,0,1,1.183.052v-.858a8.267,8.267,0,0,1-1.222.078H81.887V23.658h.988a7.515,7.515,0,0,1,1.222.065v-.858a6.349,6.349,0,0,1-1.222.078h-.988v-.325a8.414,8.414,0,0,1,.065-1.04h-.9a6.391,6.391,0,0,1,.078,1.04v.325H79.924c.078-.221.078-.221.3-.871l-.793-.182a2.477,2.477,0,0,1-.13.624,5.138,5.138,0,0,1-.949,1.989,2.534,2.534,0,0,1,.7.351,5.215,5.215,0,0,0,.611-1.2Zm15.054.013a9.241,9.241,0,0,1,1.313.078v-.91a7.3,7.3,0,0,1-1.118.078h-.13V20.434a7.762,7.762,0,0,1,.052-1.092,7.879,7.879,0,0,1-1.157.052H93.028v-.923a6.837,6.837,0,0,1,.091-1.274h-.988a7.413,7.413,0,0,1,.091,1.274v.923h-1.4a8.476,8.476,0,0,1-1.261-.065v.884a8.37,8.37,0,0,1,1.261-.065h1.4a22.2,22.2,0,0,1-.182,2.769H90.324a9.458,9.458,0,0,1-1.352-.078v.91a9.532,9.532,0,0,1,1.365-.078H91.91a6.294,6.294,0,0,1-.975,2.418,6.559,6.559,0,0,1-2.795,2.158,2.432,2.432,0,0,1,.572.728A8.128,8.128,0,0,0,91.39,26.8a7.4,7.4,0,0,0,1.248-2.73,8.811,8.811,0,0,0,4.316,4.81,3.2,3.2,0,0,1,.52-.845,7.772,7.772,0,0,1-4.29-4.368Zm-3.341-.754a21.364,21.364,0,0,0,.169-2.769h2.431v2.769ZM86.32,17.99a9.781,9.781,0,0,1,2.171,1.9l.533-.676A11.373,11.373,0,0,0,86.853,17.4Zm-.611,3.172a10.4,10.4,0,0,1,2.249,1.807l.507-.728a12.342,12.342,0,0,0-2.262-1.69Zm2.158,3.094a11.118,11.118,0,0,1-2.054,3.822l.754.689a3.73,3.73,0,0,1,.273-.468,21.471,21.471,0,0,0,1.7-3.536Zm13.234-6.4a4,4,0,0,1,.052.689c0,.208,0,.455-.013.845-.1,4.095-.117,4.42-.117,5.291a3.621,3.621,0,0,0,.715,2.665,3.083,3.083,0,0,0,2.444.91,4.552,4.552,0,0,0,3.666-1.625,7.908,7.908,0,0,0,1.443-2.951,3.677,3.677,0,0,1-.936-.624,7.723,7.723,0,0,1-.637,2.041,3.733,3.733,0,0,1-3.484,2.262,2.454,2.454,0,0,1-1.625-.507A2.046,2.046,0,0,1,102,25.3c-.013-.3-.026-.624-.026-.78,0-.585.039-2.353.091-3.913a20.043,20.043,0,0,1,.169-2.743Zm10.543,2.587a38.185,38.185,0,0,1,4.485-.429,25.192,25.192,0,0,0,2.86-.286,8.51,8.51,0,0,0-1.235.689,4.928,4.928,0,0,0-2.431,3.991,3.164,3.164,0,0,0,1.443,2.652,6.557,6.557,0,0,0,2.808,1c.208.039.26.052.4.078l.169-1.053h-.13a6.663,6.663,0,0,1-1.95-.416,2.549,2.549,0,0,1-1.82-2.4,3.973,3.973,0,0,1,1.6-3,6.6,6.6,0,0,1,2.5-1.313,6.029,6.029,0,0,1,1.456-.169l-.078-.975a8.727,8.727,0,0,1-1.547.143c-1.677.078-5.837.312-7.384.429-.4.026-.559.039-.741.039h-.468Zm13.429-1.664a7.033,7.033,0,0,1,.039.767c.065,3.2.247,4.862.7,6.1s1.118,1.976,1.846,1.976c.923,0,1.521-.871,2.158-3.146a4.156,4.156,0,0,1-.767-.741,9.353,9.353,0,0,1-.676,2.223c-.2.429-.416.65-.65.65-.494,0-1.027-.9-1.313-2.223a22.262,22.262,0,0,1-.338-4.043,9.423,9.423,0,0,1,.091-1.547Zm6.578,1.1a11.481,11.481,0,0,1,2.7,6.409l.923-.377a12.447,12.447,0,0,0-.975-3.471,11.284,11.284,0,0,0-1.859-2.964Zm6.1.858a1.936,1.936,0,0,1,.221-.013h.052c.507.026.624.026,1.079.026.481,0,.637,0,.9-.013a26.145,26.145,0,0,1-2.444,7.189l.949.4A34.256,34.256,0,0,0,140,24.373c.351-1.183.715-2.652.91-3.679a19,19,0,0,0,2.2-.312c.26-.052.26-.052.364-.065l-.065-.9a10.719,10.719,0,0,1-2.34.442c.065-.39.1-.572.169-.988a12.3,12.3,0,0,1,.234-1.235l-1.027-.1a12.712,12.712,0,0,1-.286,2.392c-.377.026-.52.026-.78.026a8.965,8.965,0,0,1-1.625-.117Zm9.815.637c-.975-.039-1.17-.039-1.417-.039a14.729,14.729,0,0,0-3.445.429l.091.884a11.315,11.315,0,0,1,3.25-.442,13.052,13.052,0,0,1,1.534.091Zm-4.732,2.808c-.689.884-.871,1.287-.871,1.872,0,1.287,1.1,1.95,3.237,1.95a13.026,13.026,0,0,0,2.314-.221c.429-.065.429-.065.572-.091l-.091-.975a9.659,9.659,0,0,1-2.873.442c-1.482,0-2.275-.416-2.275-1.2a1.565,1.565,0,0,1,.325-.923,4.358,4.358,0,0,1,.39-.494Zm7.8-3.445a1.935,1.935,0,0,1,.221-.013h.052c.507.026.624.026,1.079.026.481,0,.637,0,.9-.013a26.458,26.458,0,0,1-2.444,7.189l.949.4a34.76,34.76,0,0,0,2.4-7.644,17.345,17.345,0,0,0,2.2-.312l.234-.052.13-.013-.065-.9a10.57,10.57,0,0,1-2.34.442c.065-.351.091-.533.169-.988s.117-.7.13-.78c.039-.182.052-.247.1-.455l-1.027-.1v.091a16.033,16.033,0,0,1-.286,2.3c-.377.026-.52.026-.78.026a8.965,8.965,0,0,1-1.625-.117Zm9.815.637c-.975-.039-1.17-.039-1.417-.039a14.728,14.728,0,0,0-3.445.429l.091.884a11.315,11.315,0,0,1,3.25-.442,13.052,13.052,0,0,1,1.534.091Zm-4.732,2.808c-.689.884-.871,1.287-.871,1.872,0,1.287,1.105,1.95,3.237,1.95a14.233,14.233,0,0,0,2.314-.208l.4-.078.169-.026-.091-.975a9.659,9.659,0,0,1-2.873.442c-1.482,0-2.275-.416-2.275-1.2a1.565,1.565,0,0,1,.325-.923,4.358,4.358,0,0,1,.39-.494Zm2.145-6.1a9.517,9.517,0,0,1,1.339,2.054l.65-.39a9.869,9.869,0,0,0-1.339-2.015Zm1.482-.7a9.738,9.738,0,0,1,1.326,2.041l.65-.377a10.442,10.442,0,0,0-1.339-2.015Zm11.011.13a20.668,20.668,0,0,1-3.809,3.562,10.046,10.046,0,0,0-1.105.884,1.259,1.259,0,0,0-.377.871c0,.442.208.728.936,1.3,1.9,1.482,2.418,1.911,3.289,2.717a12.272,12.272,0,0,1,1.677,1.781l.819-.806a3.308,3.308,0,0,1-.364-.325,38.331,38.331,0,0,0-4.16-3.549c-1.053-.819-1.157-.91-1.157-1.144,0-.182.091-.286.572-.65a37.871,37.871,0,0,0,2.99-2.457c1.352-1.3,1.456-1.391,1.6-1.508Zm12.987,6.968a7.469,7.469,0,0,0,.793,2.2,9.04,9.04,0,0,1-3.367,1.573,1.963,1.963,0,0,1,.52.663,10.186,10.186,0,0,0,3.224-1.638c.741,1.066,1.443,1.612,2.08,1.612.611,0,.871-.481,1.17-2.119a2.628,2.628,0,0,1-.663-.455,5.924,5.924,0,0,1-.234,1.313c-.117.338-.2.442-.351.442-.338,0-.871-.468-1.43-1.261a15.428,15.428,0,0,0,1.508-1.586l-.663-.455a4.669,4.669,0,0,1-1.209,1.456,6.139,6.139,0,0,1-.65-1.742h2.171a8.2,8.2,0,0,1,1.378.078v-.845a6.842,6.842,0,0,1-1.378.078h-2.3a33.344,33.344,0,0,1-.364-5.239,7,7,0,0,1,.065-1.274h-.91a5.1,5.1,0,0,1,.065.819,33.716,33.716,0,0,0,.195,4.069,14.871,14.871,0,0,0,.221,1.625h-2.964a7.2,7.2,0,0,1-1.17-.065v.819a7.7,7.7,0,0,1,1.17-.065h.143a4.45,4.45,0,0,1-1.872,3.783,1.975,1.975,0,0,1,.624.559,5.358,5.358,0,0,0,1.781-2.938,5.8,5.8,0,0,0,1.417,1.235,2.739,2.739,0,0,1,.429-.624,5.132,5.132,0,0,1-1.69-1.391c.026-.26.026-.286.052-.624Zm.741-1.846a2.011,2.011,0,0,1,.221-.039c1.4-.182,2.262-.3,2.561-.364.091.234.143.377.26.767l.6-.234a11.127,11.127,0,0,0-.949-2l-.533.208a4.383,4.383,0,0,1,.39.728,14.192,14.192,0,0,1-1.586.182c.637-.715,1-1.183,2.184-2.769l-.6-.468a13.253,13.253,0,0,1-1,1.56c-.247-.312-.364-.455-.624-.741a14.789,14.789,0,0,0,1.183-1.794l-.676-.364a7.225,7.225,0,0,1-.949,1.716c-.143-.143-.195-.195-.4-.39l-.429.546a7.475,7.475,0,0,1,1.5,1.573c-.416.533-.52.663-.962,1.17a.488.488,0,0,1-.13.013,1.2,1.2,0,0,1-.195-.013Zm-3.211-5.382a6.71,6.71,0,0,1-.988,1.872c-.143-.13-.26-.247-.364-.351l-.468.52a8.553,8.553,0,0,1,1.534,1.625c-.338.494-.572.793-1.04,1.365a1.5,1.5,0,0,1-.221.013.812.812,0,0,1-.156-.013l.156.741a3.564,3.564,0,0,1,.364-.065c1.248-.195,1.937-.325,2.483-.442.065.234.091.312.156.572l.585-.247a8.148,8.148,0,0,0-.845-1.859l-.52.195a4.852,4.852,0,0,1,.429.806c-.416.078-.988.156-1.625.234a23.469,23.469,0,0,0,2.015-2.86l-.624-.442a10.667,10.667,0,0,1-.78,1.43,6.379,6.379,0,0,0-.624-.754,11.876,11.876,0,0,0,1.222-2Zm-3.549,2.561h-.559a5.134,5.134,0,0,1-.9-.052v.819a5.63,5.63,0,0,1,.9-.052h.455a11.06,11.06,0,0,1-1.69,4.29,2.74,2.74,0,0,1,.468.754,11.22,11.22,0,0,0,1.469-4.069c-.078.988-.13,2-.13,2.509v3.549a10.92,10.92,0,0,1-.078,1.508h.91a10.538,10.538,0,0,1-.065-1.508V23.307c0-.455-.026-1.014-.052-1.911a4.5,4.5,0,0,0,.7,1.391,4.42,4.42,0,0,1,.364-.676,5.065,5.065,0,0,1-.962-1.573h.312a5.6,5.6,0,0,1,.832.052v-.819a4.75,4.75,0,0,1-.845.052H178.1V18.536a10.956,10.956,0,0,1,.052-1.339h-.9a7.965,7.965,0,0,1,.065,1.352Zm7.566,3.107a4.714,4.714,0,0,1,.975.858l.468-.442a4.484,4.484,0,0,0-.988-.793Zm4.186-2.171a5.183,5.183,0,0,1,.767-.091c1.274-.078,3.146-.286,4.108-.442.169.3.208.377.4.78l.689-.4a20.258,20.258,0,0,0-1.677-2.613l-.611.312a11.377,11.377,0,0,1,.819,1.274c-.923.117-1.43.169-2.73.26a21.861,21.861,0,0,0,1.079-1.963,3.124,3.124,0,0,1,.26-.507l-.91-.26a7.4,7.4,0,0,1-.715,1.755,10.087,10.087,0,0,1-.572,1.014c-.377.013-.377.013-.455.013-.1,0-.39-.013-.572-.013Zm7.215-2.3a5.117,5.117,0,0,1,.078-1.131h-.949a7.006,7.006,0,0,1,.078,1.131v3.068c0,.754.325.884,2.184.884,1.677,0,2.184-.065,2.4-.338a3.51,3.51,0,0,0,.429-1.846,2.837,2.837,0,0,1-.767-.325c-.052,1.157-.117,1.495-.325,1.625-.182.117-.572.143-1.755.143-1.235,0-1.378-.039-1.378-.4V20.1a15.412,15.412,0,0,0,3.289-1.339c.52-.286.52-.286.728-.39l-.572-.689a10.5,10.5,0,0,1-3.445,1.651Zm0,5.889a5.557,5.557,0,0,1,.065-1.131h-.923a5.94,5.94,0,0,1,.065,1.17v3.25c0,.429.1.624.416.754a4.946,4.946,0,0,0,1.989.195c1.43,0,1.872-.065,2.158-.338.312-.3.455-.806.559-2.041a3.533,3.533,0,0,1-.78-.338,3.908,3.908,0,0,1-.273,1.677c-.169.208-.585.286-1.612.286a7.017,7.017,0,0,1-1.248-.065c-.325-.052-.416-.143-.416-.4V25.816a14.364,14.364,0,0,0,2.08-.7c.455-.195,1.456-.7,2.028-1.027l-.611-.676a9.562,9.562,0,0,1-3.5,1.625Zm-6.461,3.3a8.625,8.625,0,0,1-.065,1.3h.923a8.8,8.8,0,0,1-.065-1.326V26h2.873v1.677c0,.234-.078.286-.429.286a7.612,7.612,0,0,1-1-.065,3.639,3.639,0,0,1,.195.806c.169.013.312.013.4.013,1.391,0,1.6-.13,1.6-.962V22.228c0-.234.013-.624.039-.871a9.661,9.661,0,0,1-1.2.052h-2.275a7.857,7.857,0,0,1-1.053-.052,10.648,10.648,0,0,1,.052,1.2Zm.793-5.525h2.873v1.222h-2.873Zm0,1.911h2.873v1.274h-2.873Zm11.921-3.614a43.278,43.278,0,0,1,4.485-.429,26.605,26.605,0,0,0,2.86-.286,8.51,8.51,0,0,0-1.235.689,4.946,4.946,0,0,0-2.431,3.991,3.148,3.148,0,0,0,1.443,2.652,6.558,6.558,0,0,0,2.808,1c.234.039.26.052.4.078l.169-1.053h-.13a6.663,6.663,0,0,1-1.95-.416,2.549,2.549,0,0,1-1.82-2.405,3.973,3.973,0,0,1,1.6-3,6.394,6.394,0,0,1,2.5-1.3,5.453,5.453,0,0,1,1.456-.182l-.078-.962a8.78,8.78,0,0,1-1.547.143l-.741.026c-.429.013-.6.026-2.2.117l-2.041.13c-1.6.091-1.677.1-2.4.156-.4.026-.559.039-.741.039-.091,0-.221,0-.468-.013Zm7.982,1.248a9.142,9.142,0,0,1,1.326,2.067l.663-.39a9.869,9.869,0,0,0-1.339-2.015Zm1.482-.7a10.288,10.288,0,0,1,1.326,2.041l.65-.364a10.535,10.535,0,0,0-1.339-2.028ZM7.189,36.342c-.884.026-1.9.052-3.146.1-2.093.078-2.093.078-2.47.078-.195,0-.286,0-.52-.013l.039.949c.871-.143,3.5-.273,6.11-.325v.676c0,.156.013.286.013.338,0,.481,0,.533.013.715a2,2,0,0,0-1.508-.585,2.163,2.163,0,0,0-2.3,2.145,2.015,2.015,0,0,0,2.132,2.054,2.032,2.032,0,0,0,1.638-.7,1.821,1.821,0,0,0,.351-.637,3.367,3.367,0,0,1-1.456,2.743,6.663,6.663,0,0,1-2.106.975,2.854,2.854,0,0,1,.572.819A8.269,8.269,0,0,0,6.6,44.623,4.184,4.184,0,0,0,8.346,41.23,3.725,3.725,0,0,0,8.034,39.7V37.122c1.053-.026,1.2-.026,1.391-.026a23.106,23.106,0,0,1,2.483.065v-.923c-.429.052-1.43.078-3.887.091v-.143a10.762,10.762,0,0,1,.065-1.625H7.111a4.381,4.381,0,0,1,.052.754Zm-.039,3.8a1.457,1.457,0,0,1-1.521,1.534A1.256,1.256,0,0,1,4.29,40.385,1.376,1.376,0,0,1,5.733,39.02a1.663,1.663,0,0,1,.871.208A.941.941,0,0,1,7.15,40.138Zm7.215,1.807a1.95,1.95,0,1,0,1.95,1.95A1.947,1.947,0,0,0,14.365,41.945Zm0,.741A1.209,1.209,0,1,1,13.156,43.9,1.215,1.215,0,0,1,14.365,42.686Zm13.65-2.548a11.921,11.921,0,0,1-.091,1.521H26.39a5.925,5.925,0,0,1-1.027-.065v.832a6.5,6.5,0,0,1,1.027-.065h1.4a3.53,3.53,0,0,1-.676,1.495,5.073,5.073,0,0,1-1.885,1.4,2.445,2.445,0,0,1,.533.65,5.931,5.931,0,0,0,1.742-1.352,4.606,4.606,0,0,0,.832-1.521,8.275,8.275,0,0,0,1.534,1.807,3.161,3.161,0,0,1,.468-.676,6.184,6.184,0,0,1-1.69-1.807h1.274a7.32,7.32,0,0,1,1.027.052v-.806a7.174,7.174,0,0,1-1.04.052H28.652c.039-.364.052-.585.065-.819.026-.494.026-.494.026-.7h.819c.39,0,.767.013,1.092.039V39.41a6.672,6.672,0,0,1-1.079.052H27.222c.1-.221.156-.351.312-.754l-.7-.273a4.609,4.609,0,0,1-1.313,2.327,2.314,2.314,0,0,1,.611.455,5.832,5.832,0,0,0,.754-1.079Zm6.227,1.95h1.131a6.741,6.741,0,0,1,1.157.065v-.819a6.741,6.741,0,0,1-1.157.065H34.242v-2.47h1.872a4.429,4.429,0,0,1-.936,1.248,2.3,2.3,0,0,1,.611.364,7.118,7.118,0,0,0,1.027-1.495,3.531,3.531,0,0,1,.234-.429l-.377-.416a10.882,10.882,0,0,1-1.1.039h-.949l.351-.286c-.247-.221-.312-.286-.52-.455a12.454,12.454,0,0,0,1.95-1.794c.182-.182.247-.247.377-.364l-.468-.494a10.34,10.34,0,0,1-1.066.039h-2.73a7.83,7.83,0,0,1-1.287-.065v.793a11.264,11.264,0,0,1,1.2-.039h3.146a10.311,10.311,0,0,1-1.625,1.495,16.476,16.476,0,0,0-1.456-1.027l-.533.455a10.347,10.347,0,0,1,2.262,1.742H32.084a6.778,6.778,0,0,1-1.209-.065v.832a6.5,6.5,0,0,1,1.2-.078h1.417v5.447a3.771,3.771,0,0,1-1.4-2.015,15.457,15.457,0,0,0,.208-1.651,6.389,6.389,0,0,1,.091-.7l-.845-.091c0,.182.013.273.013.416a10.2,10.2,0,0,1-.559,3.341,5.9,5.9,0,0,1-1.1,1.82,2.56,2.56,0,0,1,.689.507,7.408,7.408,0,0,0,1.287-2.652c.754,1.677,1.95,2.34,4.238,2.34.182,0,.429-.013.858-.026a2.457,2.457,0,0,1,.273-.858,11.847,11.847,0,0,1-1.443.117,5.3,5.3,0,0,1-1.547-.208ZM26.871,35.3a4.7,4.7,0,0,1,.065-.936h-.91a4.854,4.854,0,0,1,.078.962V37.46c0,.7.377.858,2.015.858,2.3,0,2.483-.117,2.665-1.664a2.138,2.138,0,0,1-.741-.338,2.12,2.12,0,0,1-.169,1.053c-.143.195-.585.26-1.625.26a5.31,5.31,0,0,1-1.235-.091.341.341,0,0,1-.143-.325v-.741A15.829,15.829,0,0,0,30.5,35.315l-.481-.689a9.326,9.326,0,0,1-3.146,1.17Zm12.948,3.406h2.366c.533,0,1.027.013,1.313.039-.026-.312-.039-.676-.039-1.2V35.809c0-.507.013-.845.039-1.235a11.407,11.407,0,0,1-1.326.052H40.313a11.92,11.92,0,0,1-1.352-.052c.039.416.052.793.052,1.43v8.437a9.837,9.837,0,0,1-.078,1.456H39.9a9.139,9.139,0,0,1-.078-1.456Zm0-3.445h2.9v1.066h-2.9Zm0,1.7h2.9v1.092h-2.9ZM49.439,36a12.164,12.164,0,0,1,.065-1.43,12.181,12.181,0,0,1-1.365.052H46.033a11.407,11.407,0,0,1-1.326-.052c.026.39.039.78.039,1.235v1.742c0,.481-.013.819-.039,1.2.286-.026.78-.039,1.326-.039h2.6v5.876c0,.3-.091.377-.468.377a14.755,14.755,0,0,1-1.651-.13,2.467,2.467,0,0,1,.234.832c.572.039,1.04.052,1.547.052.9,0,1.144-.234,1.144-1.079ZM45.5,35.263h3.133v1.066H45.5Zm0,1.7h3.133v1.092H45.5Zm1,3.731a7.355,7.355,0,0,1,.039-.793,9.329,9.329,0,0,1-.949.039H42.679a8.933,8.933,0,0,1-.9-.039,8.049,8.049,0,0,1,.039.819v2.6a8.042,8.042,0,0,1-.065,1.209H42.6V43.505h3.12a7.519,7.519,0,0,1,.819.039,6.619,6.619,0,0,1-.039-.78Zm-3.9-.065h3.133v2.184H42.6Zm10.673-5.265a13.059,13.059,0,0,1,.936,2.47c-.208.065-.338.091-.663.208a14.266,14.266,0,0,1-1.911.611l.338.923a12.39,12.39,0,0,1,1.781-.715,5.619,5.619,0,0,0,.7-.234A46.231,46.231,0,0,1,56.1,45.65l1.053-.234a4.125,4.125,0,0,1-.169-.559c-.546-2.444-1.014-4.277-1.677-6.487a15.328,15.328,0,0,1,4.238-.923c1.313,0,2.08.585,2.08,1.573A1.576,1.576,0,0,1,61,40.346a2.633,2.633,0,0,1-1.56.507,4.418,4.418,0,0,1-2.184-.6A5.789,5.789,0,0,1,57.33,41a1.869,1.869,0,0,1-.013.234,5.505,5.505,0,0,0,2.2.481,2.779,2.779,0,0,0,3.055-2.678c0-1.456-1.118-2.392-2.86-2.392a6.547,6.547,0,0,0-.975.078c-.013-.156-.013-.4-.013-.416a12.267,12.267,0,0,1,.065-1.755h-.975a18.018,18.018,0,0,1,.052,2.3,23.054,23.054,0,0,0-2.795.728c-.182-.585-.312-.949-.572-1.716a5.224,5.224,0,0,1-.247-.793Zm18.057,1.066a13.138,13.138,0,0,1-2.652.559V35.744a7.435,7.435,0,0,1,.065-1.209h-.962a8.635,8.635,0,0,1,.065,1.235v1.287c-.39.026-.9.039-1.248.039a7.363,7.363,0,0,1-1.326-.091v.858h.533c.143.013.494.013.689.013.377,0,.6,0,.832-.013.4-.026.4-.026.52-.039v2.457a6.954,6.954,0,0,0-1.833,1.066,2.353,2.353,0,0,0-1.027,1.729,1.568,1.568,0,0,0,.6,1.222,3.433,3.433,0,0,0,2.145.832c.637,0,.949-.338.949-1.04V40.84a8.771,8.771,0,0,1,2.756-.507c1.7,0,2.782.793,2.782,2.067a1.726,1.726,0,0,1-1.742,1.833c-.949,0-1.339-.559-1.339-1.911a3.861,3.861,0,0,1,.026-.507,2.818,2.818,0,0,1-.858.338,4.744,4.744,0,0,0,.156,1.469,1.917,1.917,0,0,0,2,1.469A2.675,2.675,0,0,0,73.775,40.1a4.4,4.4,0,0,0-2.3-.546,9.21,9.21,0,0,0-2.795.468V37.772a22.816,22.816,0,0,0,2.3-.39c.182-.039.234-.052.39-.078Zm-3.484,7.176c0,.559-.039.637-.3.637a2.428,2.428,0,0,1-1.157-.377c-.377-.247-.559-.507-.559-.78,0-.624.728-1.326,2.015-1.95Zm7.813-5.5a10.924,10.924,0,0,0-2.626-2.47l-.676.507a10.647,10.647,0,0,1,2.626,2.548Zm10.309.6a7.335,7.335,0,0,1-.962,2.275c-.585-.546-.923-.832-1.82-1.56l-.546.546a16.523,16.523,0,0,1,1.95,1.638A8.466,8.466,0,0,1,82.368,43.7a2.537,2.537,0,0,1,.65.572,10.233,10.233,0,0,0,2.119-2.132,16.537,16.537,0,0,1,1.56,1.833l.572-.663c-.728-.832-1.014-1.131-1.7-1.807a17.594,17.594,0,0,0,1.04-2.054,3.169,3.169,0,0,1,.182-.4Zm-8.151,1.716a10.894,10.894,0,0,0,.637-3.484l-.7-.195a9.65,9.65,0,0,1-.611,3.367Zm2.093,5.6a9.876,9.876,0,0,1-.091-1.469V35.51a8.443,8.443,0,0,1,.091-1.313h-1A8.443,8.443,0,0,1,79,35.51v9.022a10.489,10.489,0,0,1-.091,1.495Zm1.573-7.475a10.056,10.056,0,0,0-.78-1.989l-.559.286a9.965,9.965,0,0,1,.7,2.015Zm4.16-1.352a15.508,15.508,0,0,0-1.287-2.9l-.754.286a11.213,11.213,0,0,1,1.248,2.925Zm.949,1.339a18.9,18.9,0,0,0,2.119-3.679l-.845-.39a11.052,11.052,0,0,1-1.989,3.7Zm1.053.481a7.307,7.307,0,0,1,.065,1.235v4.329H82.069v-4.29a8.019,8.019,0,0,1,.065-1.222h-.949a6.9,6.9,0,0,1,.078,1.235v4.3a10.533,10.533,0,0,1-.078,1.378h.884v-.676h5.642v.676H88.6a9.531,9.531,0,0,1-.078-1.365V40.268A8.521,8.521,0,0,1,88.6,39.02Zm-4.381-1.248a16.373,16.373,0,0,0-1.43-3l-.741.338a12.353,12.353,0,0,1,1.417,3.029Zm9.035-1.56a7.139,7.139,0,0,1,.949-.065c1.235-.039,1.43-.052,2.457-.13-.455,1.508-.611,2-1.04,3.276a4.248,4.248,0,0,0-2.34.559,2.92,2.92,0,0,0-1.547,2.574,1.92,1.92,0,0,0,1.716,2.132c.624,0,1.105-.39,1.573-1.287a25.224,25.224,0,0,0,1.222-3.133,9.582,9.582,0,0,1,3.588,1.079,5.055,5.055,0,0,1-1.2,2.184A5.72,5.72,0,0,1,95.576,44.9a3.348,3.348,0,0,1,.689.676,7.023,7.023,0,0,0,2.067-1.586,6.137,6.137,0,0,0,1.339-2.353A15.031,15.031,0,0,1,101.7,42.92l.351-1a2.433,2.433,0,0,1-.377-.195c-.637-.377-1.079-.611-1.781-.975a17.765,17.765,0,0,0,.234-2.821,4.935,4.935,0,0,1,.052-.806l-.975-.013a3.157,3.157,0,0,1,.052.637,14.732,14.732,0,0,1-.156,2.639,10.192,10.192,0,0,0-3.549-1.027c.234-.689.325-.936.611-1.82a6.861,6.861,0,0,1,.715-1.885l-.689-.546a.956.956,0,0,1-.481.156c-.429.052-1.469.091-2.184.091a6.206,6.206,0,0,1-1.261-.078Zm2.106,3.861c-.949,2.769-1.391,3.575-1.924,3.575-.468,0-.845-.546-.845-1.235a2.162,2.162,0,0,1,.624-1.5A3.153,3.153,0,0,1,94.406,40.073Zm13.065-1.781h.052a.6.6,0,0,1,.13.013,1.936,1.936,0,0,1,.221.013,3.409,3.409,0,0,1,.416.026c.455.026.936.039,1.469.039.494,0,.9-.013,1.482-.039.039,1.9.091,3.12.13,3.393a3.672,3.672,0,0,0-1.443-.26c-1.443,0-2.47.767-2.47,1.846,0,1.131.949,1.846,2.457,1.846a1.9,1.9,0,0,0,2.327-1.976,1.865,1.865,0,0,0-.026-.338.913.913,0,0,1,.117.078.834.834,0,0,0,.13.078,7.024,7.024,0,0,1,1.846,1.352l.4-.91c-.143-.091-.169-.117-.325-.221a9.41,9.41,0,0,0-2.171-1.274c-.1-1.729-.13-2.392-.143-3.679a12.428,12.428,0,0,0,1.378-.208c.884-.182.884-.182.91-.182l-.039-.884a8.86,8.86,0,0,1-2.249.481c-.013-.286-.013-.494-.013-.637a13.3,13.3,0,0,1,.091-2.041h-.975a2.884,2.884,0,0,1,.039.533c0,.988,0,.988.013,2.21-.533.026-.884.039-1.391.039a9,9,0,0,1-2.34-.208Zm3.913,4.238s.013.3.013.39a1.518,1.518,0,0,1-.247,1.014,1.792,1.792,0,0,1-1.326.455c-.91,0-1.508-.416-1.508-1.053s.663-1.079,1.677-1.079A3.358,3.358,0,0,1,111.384,42.53Zm-6.214-7.735a5.988,5.988,0,0,1-.143.819,22.027,22.027,0,0,0-.676,5.343,20.694,20.694,0,0,0,.364,3.861c.052.3.065.364.078.481l.923-.091a1.416,1.416,0,0,1-.026-.26,11.226,11.226,0,0,1,1.118-3.692l-.637-.3a1.793,1.793,0,0,1-.1.26,11.54,11.54,0,0,0-.767,2.288l-.052-.013v-.247c-.013-.234-.013-.26-.013-.364-.026-.6-.052-1.365-.052-1.82a18.524,18.524,0,0,1,1-6.1ZM116.3,43.024a12.975,12.975,0,0,1,2.561,2.834l.728-.689a13.247,13.247,0,0,0-2.613-2.756Zm15.457-6.448a3.053,3.053,0,0,1,.429.039,25.429,25.429,0,0,0,2.86.169,10.275,10.275,0,0,0,1.963-.169c-.13.078-.156.078-.247.13-.156.078-.182.091-.325.169a20.14,20.14,0,0,0-1.729,1.079l.663.533a18.515,18.515,0,0,1,3.276-1.976l-.065-.858a14.217,14.217,0,0,1-3.289.273,14.863,14.863,0,0,1-3.458-.312Zm.78,3.328a3.416,3.416,0,0,0-1.5,2.509,2.071,2.071,0,0,0,1.482,1.963,9.171,9.171,0,0,0,2.99.4,21.206,21.206,0,0,0,3.51-.3,3.636,3.636,0,0,1,.442-.065l-.117-1.066a12.332,12.332,0,0,1-3.9.494,8.278,8.278,0,0,1-2.379-.26c-.728-.247-1.1-.676-1.1-1.274s.39-1.209,1.235-1.911ZM148.9,36.381a3.741,3.741,0,0,1,1.508.325,3.427,3.427,0,0,1,2.067,3.263,3.924,3.924,0,0,1-2.3,3.64,7.793,7.793,0,0,1-2.171.611,2.066,2.066,0,0,1,.455.871,10.057,10.057,0,0,0,1.976-.6,4.734,4.734,0,0,0,2.977-4.485,4.352,4.352,0,0,0-1.261-3.172,5.033,5.033,0,0,0-3.575-1.287,5.279,5.279,0,0,0-5.564,5.317c0,1.82.923,3.172,2.158,3.172.936,0,1.7-.78,2.457-2.5A19.487,19.487,0,0,0,148.9,36.381Zm-.936.013a17.856,17.856,0,0,1-1.183,4.81c-.559,1.274-1.079,1.885-1.625,1.885-.7,0-1.248-.962-1.248-2.21a4.5,4.5,0,0,1,2.119-3.874A4.106,4.106,0,0,1,147.966,36.394Zm14.768,5.1a7.469,7.469,0,0,0,.793,2.2,9.04,9.04,0,0,1-3.367,1.573,1.963,1.963,0,0,1,.52.663,10.186,10.186,0,0,0,3.224-1.638c.741,1.066,1.443,1.612,2.08,1.612.611,0,.871-.481,1.17-2.119a2.628,2.628,0,0,1-.663-.455,5.924,5.924,0,0,1-.234,1.313c-.117.338-.2.442-.351.442-.338,0-.871-.468-1.43-1.261a15.428,15.428,0,0,0,1.508-1.586l-.663-.455a4.669,4.669,0,0,1-1.209,1.456,6.139,6.139,0,0,1-.65-1.742h2.171a8.2,8.2,0,0,1,1.378.078v-.845a6.841,6.841,0,0,1-1.378.078h-2.3a33.344,33.344,0,0,1-.364-5.239,7,7,0,0,1,.065-1.274h-.91a5.1,5.1,0,0,1,.065.819,33.713,33.713,0,0,0,.195,4.069A14.871,14.871,0,0,0,162.6,40.8H159.64a7.2,7.2,0,0,1-1.17-.065v.819a7.7,7.7,0,0,1,1.17-.065h.143a4.45,4.45,0,0,1-1.872,3.783,1.975,1.975,0,0,1,.624.559,5.358,5.358,0,0,0,1.781-2.938,5.8,5.8,0,0,0,1.417,1.235,2.739,2.739,0,0,1,.429-.624,5.132,5.132,0,0,1-1.69-1.391c.026-.26.026-.286.052-.624Zm.741-1.846a2.011,2.011,0,0,1,.221-.039c1.4-.182,2.262-.3,2.561-.364.091.234.143.377.26.767l.6-.234a11.127,11.127,0,0,0-.949-2l-.533.208a4.382,4.382,0,0,1,.39.728,14.192,14.192,0,0,1-1.586.182c.637-.715,1-1.183,2.184-2.769l-.6-.468a13.253,13.253,0,0,1-1,1.56c-.247-.312-.364-.455-.624-.741a14.789,14.789,0,0,0,1.183-1.794l-.676-.364a7.226,7.226,0,0,1-.949,1.716c-.143-.143-.195-.195-.4-.39l-.429.546a7.475,7.475,0,0,1,1.5,1.573c-.416.533-.52.663-.962,1.17a.488.488,0,0,1-.13.013,1.2,1.2,0,0,1-.195-.013Zm-3.211-5.382a6.711,6.711,0,0,1-.988,1.872c-.143-.13-.26-.247-.364-.351l-.468.52a8.553,8.553,0,0,1,1.534,1.625c-.338.494-.572.793-1.04,1.365a1.5,1.5,0,0,1-.221.013.812.812,0,0,1-.156-.013l.156.741a3.563,3.563,0,0,1,.364-.065c1.248-.2,1.937-.325,2.483-.442.065.234.091.312.156.572l.585-.247a8.148,8.148,0,0,0-.845-1.859l-.52.195a4.852,4.852,0,0,1,.429.806c-.416.078-.988.156-1.625.234a23.469,23.469,0,0,0,2.015-2.86l-.624-.442a10.667,10.667,0,0,1-.78,1.43,6.379,6.379,0,0,0-.624-.754,11.876,11.876,0,0,0,1.222-2Zm-3.549,2.561h-.559a5.134,5.134,0,0,1-.9-.052v.819a5.63,5.63,0,0,1,.9-.052h.455a11.06,11.06,0,0,1-1.69,4.29,2.74,2.74,0,0,1,.468.754,11.22,11.22,0,0,0,1.469-4.069c-.078.988-.13,2-.13,2.509v3.549a10.919,10.919,0,0,1-.078,1.508h.91a10.538,10.538,0,0,1-.065-1.508V40.307c0-.455-.026-1.014-.052-1.911a4.5,4.5,0,0,0,.7,1.391,4.421,4.421,0,0,1,.364-.676,5.065,5.065,0,0,1-.962-1.573h.312a5.6,5.6,0,0,1,.832.052v-.819a4.75,4.75,0,0,1-.845.052h-.351V35.536a10.956,10.956,0,0,1,.052-1.339h-.9a7.965,7.965,0,0,1,.065,1.352Zm7.566,3.107a4.714,4.714,0,0,1,.975.858l.468-.442a4.484,4.484,0,0,0-.988-.793Zm4.186-2.171a5.184,5.184,0,0,1,.767-.091c1.274-.078,3.146-.286,4.108-.442.169.3.208.377.4.78l.689-.4a20.258,20.258,0,0,0-1.677-2.613l-.611.312a11.377,11.377,0,0,1,.819,1.274c-.923.117-1.43.169-2.73.26a21.86,21.86,0,0,0,1.079-1.963,3.124,3.124,0,0,1,.26-.507l-.91-.26a7.4,7.4,0,0,1-.715,1.755,10.087,10.087,0,0,1-.572,1.014c-.377.013-.377.013-.455.013-.1,0-.39-.013-.572-.013Zm7.215-2.3a5.117,5.117,0,0,1,.078-1.131h-.949a7.008,7.008,0,0,1,.078,1.131v3.068c0,.754.325.884,2.184.884,1.677,0,2.184-.065,2.4-.338a3.51,3.51,0,0,0,.429-1.846,2.837,2.837,0,0,1-.767-.325c-.052,1.157-.117,1.495-.325,1.625-.182.117-.572.143-1.755.143-1.235,0-1.378-.039-1.378-.4V37.1a15.412,15.412,0,0,0,3.289-1.339c.52-.286.52-.286.728-.39l-.572-.689a10.5,10.5,0,0,1-3.445,1.651Zm0,5.889a5.557,5.557,0,0,1,.065-1.131h-.923a5.94,5.94,0,0,1,.065,1.17v3.25c0,.429.1.624.416.754a4.946,4.946,0,0,0,1.989.195c1.43,0,1.872-.065,2.158-.338.312-.3.455-.806.559-2.041a3.533,3.533,0,0,1-.78-.338,3.908,3.908,0,0,1-.273,1.677c-.169.208-.585.286-1.612.286a7.016,7.016,0,0,1-1.248-.065c-.325-.052-.416-.143-.416-.4V42.816a14.364,14.364,0,0,0,2.08-.7c.455-.195,1.456-.7,2.028-1.027l-.611-.676a9.562,9.562,0,0,1-3.5,1.625Zm-6.461,3.3a8.625,8.625,0,0,1-.065,1.3h.923a8.8,8.8,0,0,1-.065-1.326V43h2.873v1.677c0,.234-.078.286-.429.286a7.611,7.611,0,0,1-1-.065,3.639,3.639,0,0,1,.195.806c.169.013.312.013.4.013,1.391,0,1.6-.13,1.6-.962V39.228c0-.234.013-.624.039-.871a9.661,9.661,0,0,1-1.2.052h-2.275a7.857,7.857,0,0,1-1.053-.052,10.647,10.647,0,0,1,.052,1.2Zm.793-5.525h2.873v1.222h-2.873Zm0,1.911h2.873v1.274h-2.873Zm11.921-3.614a43.278,43.278,0,0,1,4.485-.429,26.606,26.606,0,0,0,2.86-.286,8.51,8.51,0,0,0-1.235.689,4.946,4.946,0,0,0-2.431,3.991,3.148,3.148,0,0,0,1.443,2.652,6.558,6.558,0,0,0,2.808,1c.234.039.26.052.4.078l.169-1.053h-.13a6.663,6.663,0,0,1-1.95-.416,2.549,2.549,0,0,1-1.82-2.4,3.973,3.973,0,0,1,1.6-3,6.394,6.394,0,0,1,2.5-1.3,5.453,5.453,0,0,1,1.456-.182l-.078-.962a8.779,8.779,0,0,1-1.547.143l-.741.026c-.429.013-.6.026-2.2.117l-2.041.13c-1.6.091-1.677.1-2.4.156-.4.026-.559.039-.741.039-.091,0-.221,0-.468-.013Zm7.982,1.248a9.142,9.142,0,0,1,1.326,2.067l.663-.39a9.869,9.869,0,0,0-1.339-2.015Zm1.482-.7a10.288,10.288,0,0,1,1.326,2.041l.65-.364a10.535,10.535,0,0,0-1.339-2.028Zm9.152,6.89a17.711,17.711,0,0,0-2.132-3.38l-.663.364c.546.728.728.988,1.053,1.495a16.153,16.153,0,0,1-2.808.819V40.9h2.938a8.544,8.544,0,0,1,1.079.052c-.026-.39-.039-.715-.039-1.17V35.978a8.751,8.751,0,0,1,.052-1.144,8.216,8.216,0,0,1-1.1.052h-2.691a8.467,8.467,0,0,1-1.105-.052c.039.4.052.806.052,1.43v8.06a6.615,6.615,0,0,1-.962.13l.234.91c.169-.052.39-.117.637-.169A32.444,32.444,0,0,0,199.2,44c.208.416.325.65.611,1.326ZM196,37.408V35.627h3.185v1.781Zm0,.728h3.185v2.028H196Zm9.581-2.158a6.947,6.947,0,0,1,.065-1.144,10.306,10.306,0,0,1-1.17.052h-2.054a10.16,10.16,0,0,1-1.17-.052c.026.286.039.585.039,1.183v8.658a12.89,12.89,0,0,1-.065,1.456h.975a9.08,9.08,0,0,1-.078-1.482V35.627h2.626v7.28c0,.351-.091.416-.533.416a8.449,8.449,0,0,1-1.43-.13,2.381,2.381,0,0,1,.208.871c.429.039.793.052,1.092.052,1.157,0,1.5-.234,1.5-1.053Zm5.5,1.417c.169-.286.455-.78.6-1.092a6.579,6.579,0,0,1,.468-.819l-.39-.429a4.036,4.036,0,0,1-.728.039h-1.235c.013-.026.091-.195.221-.52.091-.221.1-.247.156-.351l-.819-.195a5.551,5.551,0,0,1-.26.845,8.062,8.062,0,0,1-1.885,2.873,2.022,2.022,0,0,1,.611.52c.169-.208.221-.273.338-.429.013.286.013.637.013,1,0,2.184-.026,2.977-.1,3.861a5.776,5.776,0,0,1-.741,2.639,2.551,2.551,0,0,1,.728.52,8.468,8.468,0,0,0,.78-3.328h3.081v2.184c0,.221-.1.273-.507.273a11,11,0,0,1-1.209-.1,2.454,2.454,0,0,1,.156.793c.728.039.819.039,1,.039,1.04,0,1.287-.169,1.287-.884V38.487a8.844,8.844,0,0,1,.052-1.157,8.285,8.285,0,0,1-1.2.065Zm-1.638,0c-.455,0-.6,0-.936-.013a12.1,12.1,0,0,0,.975-1.612h1.664a15.341,15.341,0,0,1-.871,1.625Zm-.572,4.459c.026-.6.026-.6.039-1.612h1.157v1.612Zm3.042,0h-1.17V40.242h1.17Zm0-2.275h-1.17V38.084h1.17Zm-1.846-1.495v1.495H208.91l.013-.637v-.858Zm4.849-2.639a2.82,2.82,0,0,1-.442,1.3,3.86,3.86,0,0,1-1.638,1.352,2.14,2.14,0,0,1,.533.637,4.376,4.376,0,0,0,1.807-1.664,4.1,4.1,0,0,0,.559-1.625h1.911a8.968,8.968,0,0,1-.247,1.742c-.078.286-.208.364-.585.364a5.93,5.93,0,0,1-1.157-.156,2.685,2.685,0,0,1,.156.767,9.617,9.617,0,0,0,1.2.091c.78,0,1.04-.234,1.209-1.131.091-.481.182-1.235.234-1.911.026-.247.026-.286.052-.494a10.212,10.212,0,0,1-1.2.052h-2.964a7.878,7.878,0,0,1-1.3-.078v.832a7.1,7.1,0,0,1,1.235-.078Zm.832,5.213v1.573h-1.612a7.12,7.12,0,0,1-1.131-.078v.871a7.3,7.3,0,0,1,1.118-.065h1.625v1.794a7.473,7.473,0,0,1-.078,1.157h.91a7.241,7.241,0,0,1-.078-1.157V42.959h1.378a9.167,9.167,0,0,1,1.183.052v-.858a8.267,8.267,0,0,1-1.222.078H216.5V40.658h.988a7.516,7.516,0,0,1,1.222.065v-.858a6.348,6.348,0,0,1-1.222.078H216.5v-.325a8.412,8.412,0,0,1,.065-1.04h-.9a6.391,6.391,0,0,1,.078,1.04v.325h-1.209c.078-.221.078-.221.3-.871l-.793-.182a2.477,2.477,0,0,1-.13.624,5.138,5.138,0,0,1-.949,1.989,2.535,2.535,0,0,1,.7.351,5.214,5.214,0,0,0,.611-1.2ZM11.1,57.671a9.24,9.24,0,0,1,1.313.078v-.91a7.3,7.3,0,0,1-1.118.078h-.13V54.434a7.763,7.763,0,0,1,.052-1.092,7.879,7.879,0,0,1-1.157.052H7.943v-.923A6.836,6.836,0,0,1,8.034,51.2H7.046a7.413,7.413,0,0,1,.091,1.274v.923h-1.4a8.477,8.477,0,0,1-1.261-.065v.884a8.37,8.37,0,0,1,1.261-.065h1.4a22.2,22.2,0,0,1-.182,2.769H5.239a9.458,9.458,0,0,1-1.352-.078v.91a9.532,9.532,0,0,1,1.365-.078H6.825a6.294,6.294,0,0,1-.975,2.418,6.559,6.559,0,0,1-2.795,2.158,2.432,2.432,0,0,1,.572.728A8.128,8.128,0,0,0,6.305,60.8a7.4,7.4,0,0,0,1.248-2.73,8.811,8.811,0,0,0,4.316,4.81,3.2,3.2,0,0,1,.52-.845A7.772,7.772,0,0,1,8.1,57.671Zm-3.341-.754a21.363,21.363,0,0,0,.169-2.769h2.431v2.769ZM1.235,51.99a9.781,9.781,0,0,1,2.171,1.9l.533-.676A11.373,11.373,0,0,0,1.768,51.4ZM.624,55.162a10.4,10.4,0,0,1,2.249,1.807l.507-.728a12.342,12.342,0,0,0-2.262-1.69Zm2.158,3.094A11.118,11.118,0,0,1,.728,62.078l.754.689a3.73,3.73,0,0,1,.273-.468,21.471,21.471,0,0,0,1.7-3.536Zm13.234-6.4a4,4,0,0,1,.052.689c0,.208,0,.455-.013.845-.1,4.095-.117,4.42-.117,5.291a3.621,3.621,0,0,0,.715,2.665,3.083,3.083,0,0,0,2.444.91,4.552,4.552,0,0,0,3.666-1.625,7.908,7.908,0,0,0,1.443-2.951,3.677,3.677,0,0,1-.936-.624,7.723,7.723,0,0,1-.637,2.041,3.733,3.733,0,0,1-3.484,2.262,2.454,2.454,0,0,1-1.625-.507,2.046,2.046,0,0,1-.611-1.56c-.013-.3-.026-.624-.026-.78,0-.585.039-2.353.091-3.913a20.044,20.044,0,0,1,.169-2.743Zm10.543,2.587a38.185,38.185,0,0,1,4.485-.429,25.192,25.192,0,0,0,2.86-.286,8.509,8.509,0,0,0-1.235.689,4.928,4.928,0,0,0-2.431,3.991,3.164,3.164,0,0,0,1.443,2.652,6.557,6.557,0,0,0,2.808,1c.208.039.26.052.4.078l.169-1.053h-.13a6.663,6.663,0,0,1-1.95-.416,2.549,2.549,0,0,1-1.82-2.4,3.973,3.973,0,0,1,1.6-3,6.6,6.6,0,0,1,2.5-1.313,6.029,6.029,0,0,1,1.456-.169l-.078-.975a8.726,8.726,0,0,1-1.547.143c-1.677.078-5.837.312-7.384.429-.4.026-.559.039-.741.039h-.468Zm19.318-2.925a20.668,20.668,0,0,1-3.809,3.562,10.045,10.045,0,0,0-1.1.884,1.259,1.259,0,0,0-.377.871c0,.442.208.728.936,1.3,1.9,1.482,2.418,1.911,3.289,2.717a12.272,12.272,0,0,1,1.677,1.781l.819-.806a3.31,3.31,0,0,1-.364-.325,38.33,38.33,0,0,0-4.16-3.549c-1.053-.819-1.157-.91-1.157-1.144,0-.182.091-.286.572-.65a37.87,37.87,0,0,0,2.99-2.457c1.352-1.3,1.456-1.391,1.6-1.508Zm6.279,3.224a1.936,1.936,0,0,1,.221-.013h.052c.507.026.624.026,1.079.026.481,0,.637,0,.9-.013a26.458,26.458,0,0,1-2.444,7.189l.949.4a34.76,34.76,0,0,0,2.4-7.644,17.346,17.346,0,0,0,2.2-.312l.234-.052.13-.013-.065-.9a10.57,10.57,0,0,1-2.34.442c.065-.351.091-.533.169-.988s.117-.7.13-.78c.039-.182.052-.247.1-.455l-1.027-.1v.091a16.032,16.032,0,0,1-.286,2.3c-.377.026-.52.026-.78.026a8.965,8.965,0,0,1-1.625-.117Zm9.815.637c-.975-.039-1.17-.039-1.417-.039a14.728,14.728,0,0,0-3.445.429l.091.884a11.315,11.315,0,0,1,3.25-.442,13.052,13.052,0,0,1,1.534.091Zm-4.732,2.808c-.689.884-.871,1.287-.871,1.872,0,1.287,1.1,1.95,3.237,1.95a14.233,14.233,0,0,0,2.314-.208l.4-.078.169-.026-.091-.975a9.659,9.659,0,0,1-2.873.442c-1.482,0-2.275-.416-2.275-1.2a1.564,1.564,0,0,1,.325-.923,4.356,4.356,0,0,1,.39-.494Zm2.145-6.1a9.516,9.516,0,0,1,1.339,2.054l.65-.39a9.869,9.869,0,0,0-1.339-2.015Zm1.482-.7a9.738,9.738,0,0,1,1.326,2.041l.65-.377A10.441,10.441,0,0,0,61.5,51.041Zm4.927,3.731a2.872,2.872,0,0,1,.507-.039,38.278,38.278,0,0,0,4.628-.338c.078.13.078.156.221.429a15.852,15.852,0,0,0,1.56,2.548,6.491,6.491,0,0,0-2.691-.468,5.526,5.526,0,0,0-2.522.481,2.43,2.43,0,0,0-1.469,2.119,2.1,2.1,0,0,0,.585,1.43,4.766,4.766,0,0,0,3.38.975,10.777,10.777,0,0,0,3.822-.7l-.143-1a8.571,8.571,0,0,1-3.692.832,4.4,4.4,0,0,1-2.535-.6,1.3,1.3,0,0,1-.494-1.014,1.477,1.477,0,0,1,.7-1.209,4.608,4.608,0,0,1,2.47-.546,7.044,7.044,0,0,1,2.275.338,2.6,2.6,0,0,1,.9.533l.871-.494a24.074,24.074,0,0,1-2.34-3.783l.442-.091c.819-.156.975-.195,1.755-.4.39-.1.494-.13.767-.182l-.13-.923a15.214,15.214,0,0,1-3.146.819,10.7,10.7,0,0,1-.468-1.144,4.144,4.144,0,0,1-.377-1.17l-1.027.143c.117.234.195.416.338.754.234.585.442,1.105.637,1.547a30.344,30.344,0,0,1-3.874.273,5.7,5.7,0,0,1-1-.065ZM78.6,52.783a7.033,7.033,0,0,1,.039.767c.065,3.2.247,4.862.7,6.1s1.118,1.976,1.846,1.976c.923,0,1.521-.871,2.158-3.146a4.156,4.156,0,0,1-.767-.741,9.353,9.353,0,0,1-.676,2.223c-.195.429-.416.65-.65.65-.494,0-1.027-.9-1.313-2.223a22.262,22.262,0,0,1-.338-4.043A9.423,9.423,0,0,1,79.69,52.8Zm6.578,1.1a11.481,11.481,0,0,1,2.7,6.409l.923-.377a12.448,12.448,0,0,0-.975-3.471,11.284,11.284,0,0,0-1.859-2.964ZM92.5,58.945a1.95,1.95,0,1,0,1.95,1.95A1.947,1.947,0,0,0,92.5,58.945Zm0,.741A1.209,1.209,0,1,1,91.286,60.9,1.215,1.215,0,0,1,92.5,59.686Z" transform="translate(701.097 718.145)" fill="#1b1311"/>
      <g id="グループ_62000" data-name="グループ 62000" transform="translate(98.648 440.648)">
        <g id="グループ_3525" data-name="グループ 3525" transform="translate(662.449 165)">
          <path id="パス_51327" data-name="パス 51327" d="M21.1,10.7a21.89,21.89,0,0,1,37.632,0L76.651,40.653c8.817,14.738-1.726,33.52-18.816,33.52H22c-17.09,0-27.633-18.783-18.816-33.52Z" transform="matrix(0.961, 0.276, -0.276, 0.961, 23.258, 0)" fill="#ffc2b9"/>
          <path id="パス_51326" data-name="パス 51326" d="M21.318,10.742a22.191,22.191,0,0,1,38.02,0L77.44,40.8A22.191,22.191,0,0,1,58.43,74.44h-36.2A22.191,22.191,0,0,1,3.216,40.8Z" transform="translate(77.532 102.497) rotate(-164)" fill="#ff8977" opacity="0.6"/>
        </g>
        <g id="グループ_20120" data-name="グループ 20120" transform="translate(693.325 197.302)">
          <path id="パス_51349" data-name="パス 51349" d="M54.576,136.519H49.84a2.564,2.564,0,0,1-2.37-2.842v-3.316a5.478,5.478,0,0,0-2.053-4.1,10.918,10.918,0,0,1-4.263-8.843,11.239,11.239,0,0,1,10.9-10.894,11.1,11.1,0,0,1,7.894,3.157,11.241,11.241,0,0,1,3.316,7.894,10.617,10.617,0,0,1-4.106,8.526,5.766,5.766,0,0,0-2.21,4.42v3.633A2.43,2.43,0,0,1,54.576,136.519ZM52.208,108.1a9.683,9.683,0,0,0-9.473,9.315,9.28,9.28,0,0,0,3.631,7.579,6.881,6.881,0,0,1,2.685,5.367v3.316c0,.315,0,1.264.789,1.264h4.735a.746.746,0,0,0,.789-.789v-3.633a7.674,7.674,0,0,1,2.842-5.682,9.206,9.206,0,0,0,3.474-7.264,9.433,9.433,0,0,0-2.842-6.788,9.3,9.3,0,0,0-6.631-2.685" transform="translate(-33.259 -98.625)"/>
          <path id="パス_51350" data-name="パス 51350" d="M53.207,120.732H45.313a.789.789,0,1,1,0-1.578h7.894a.789.789,0,1,1,0,1.578" transform="translate(-30.314 -87.575)"/>
          <path id="パス_51351" data-name="パス 51351" d="M47.419,107.046a.745.745,0,0,1-.789-.789V103.1a.789.789,0,1,1,1.578,0v3.159a.745.745,0,0,1-.789.789" transform="translate(-28.471 -102.309)"/>
          <path id="パス_51352" data-name="パス 51352" d="M53.1,108.925a.952.952,0,0,1-.632-.157.766.766,0,0,1,0-1.106l2.21-2.21a.782.782,0,1,1,1.106,1.106l-2.21,2.21A1.6,1.6,0,0,1,53.1,108.925Z" transform="translate(-23.572 -99.767)"/>
          <path id="パス_51353" data-name="パス 51353" d="M58.578,113.573H55.421a.789.789,0,1,1,0-1.578h3.157a.789.789,0,1,1,0,1.578" transform="translate(-21.472 -93.837)"/>
          <path id="パス_51354" data-name="パス 51354" d="M55.309,121.39a.952.952,0,0,1-.632-.157l-2.21-2.21a.782.782,0,0,1,1.106-1.106l2.21,2.21a.765.765,0,0,1,0,1.106c0,.157-.159.157-.474.157" transform="translate(-23.572 -88.864)"/>
          <path id="パス_51355" data-name="パス 51355" d="M40.634,121.39a.952.952,0,0,1-.632-.157.765.765,0,0,1,0-1.106l2.21-2.21a.782.782,0,0,1,1.106,1.106l-2.21,2.21a.584.584,0,0,1-.474.157" transform="translate(-34.474 -88.864)"/>
          <path id="パス_51356" data-name="パス 51356" d="M40.892,113.573H37.735a.789.789,0,1,1,0-1.578h3.157a.789.789,0,1,1,0,1.578" transform="translate(-36.944 -93.837)"/>
          <path id="パス_51357" data-name="パス 51357" d="M42.844,109a.952.952,0,0,1-.632-.157L40,106.472a.781.781,0,1,1,1.106-1.1l2.21,2.21a.766.766,0,0,1,0,1.106c-.159.157-.317.315-.474.315" transform="translate(-34.474 -99.842)"/>
          <path id="パス_51358" data-name="パス 51358" d="M53.735,116.52a.745.745,0,0,1-.789-.789,5.6,5.6,0,0,0-5.527-5.527.789.789,0,1,1,0-1.578,7.074,7.074,0,0,1,7.105,7.105.745.745,0,0,1-.789.789" transform="translate(-28.471 -96.784)"/>
        </g>
      </g>
    </g>
  </g>
</svg>
