<svg xmlns="http://www.w3.org/2000/svg" xmlns:xlink="http://www.w3.org/1999/xlink" width="273.193" height="276.591" viewBox="0 0 273.193 276.591">
  <defs>
    <filter id="パス_109106" x="0" y="0" width="273.193" height="276.591" filterUnits="userSpaceOnUse">
      <feOffset dy="3" input="SourceAlpha"/>
      <feGaussianBlur stdDeviation="3" result="blur"/>
      <feFlood flood-opacity="0.161"/>
      <feComposite operator="in" in2="blur"/>
      <feComposite in="SourceGraphic"/>
    </filter>
  </defs>
  <g id="グループ_62193" data-name="グループ 62193" transform="translate(-956 -1191.152)">
    <g transform="matrix(1, 0, 0, 1, 956, 1191.15)" filter="url(#パス_109106)">
      <path id="パス_109106-2" data-name="パス 109106" d="M4.252,0H250.941a4.252,4.252,0,0,1,4.252,4.252V254.339a4.252,4.252,0,0,1-4.252,4.252H4.252A4.252,4.252,0,0,1,0,254.339V4.252A4.252,4.252,0,0,1,4.252,0Z" transform="translate(9 6)" fill="#fff"/>
    </g>
    <path id="パス_109107" data-name="パス 109107" d="M4.03.8a4.349,4.349,0,0,1,.221.819A26.481,26.481,0,0,0,5.2,5.254,8.1,8.1,0,0,0,3.5,6.307,2.812,2.812,0,0,0,2.34,8.517a2.158,2.158,0,0,0,1.612,2.132A8.844,8.844,0,0,0,6.838,11a26.078,26.078,0,0,0,2.873-.169,6.738,6.738,0,0,1,.962-.078l-.1-1.079a12.907,12.907,0,0,1-3.718.442C4.3,10.116,3.3,9.661,3.3,8.478c0-1.079.962-1.937,3.185-2.821A29.9,29.9,0,0,1,10.4,4.4l-.39-.988a7.03,7.03,0,0,1-.832.338c-2.015.7-2.379.845-3.146,1.157A22.611,22.611,0,0,1,5.057.6ZM15.522.86A7.239,7.239,0,0,1,15.34,1.9a21.506,21.506,0,0,0-.585,5.148,18.632,18.632,0,0,0,.338,3.679c.039.247.052.312.078.52l.936-.078v-.195A11.332,11.332,0,0,1,17.16,7.4l-.624-.3a12.078,12.078,0,0,0-.845,2.535c-.052-.689-.078-1.456-.078-2.47A19.218,19.218,0,0,1,16,3.1a18.472,18.472,0,0,1,.546-2.08ZM18.2,3.317a17.315,17.315,0,0,0,2.08.13,21.946,21.946,0,0,0,2.8-.169q.858-.117.9-.117l-.065-.923a13.949,13.949,0,0,1-3.484.351,8.829,8.829,0,0,1-2.21-.195Zm.949,2.535A3.591,3.591,0,0,0,18.018,8.27a1.837,1.837,0,0,0,.39,1.2,3.613,3.613,0,0,0,2.977.988,13.412,13.412,0,0,0,2.665-.26c.26-.039.286-.052.455-.065l-.13-1a8.556,8.556,0,0,1-2.99.455c-1.677,0-2.5-.468-2.5-1.43a3.02,3.02,0,0,1,.975-1.911Zm8.112-1.105a7.439,7.439,0,0,1,.754-.169c.117-.026.741-.13,1.859-.3A21.461,21.461,0,0,1,28.444,8.4a12.467,12.467,0,0,1-1.352,2.353l.884.52c.4-.728.676-1.248.845-1.56A24.526,24.526,0,0,0,30.784,4.2a7.464,7.464,0,0,1,.936-.065c1.209,0,1.6.442,1.6,1.82a10.063,10.063,0,0,1-.546,3.614q-.253.624-.741.624a4.859,4.859,0,0,1-1.937-.6,2.517,2.517,0,0,1,.039.52,2.828,2.828,0,0,1-.026.455,4.891,4.891,0,0,0,1.963.507,1.358,1.358,0,0,0,1.274-.611,8.961,8.961,0,0,0,.871-4.472A2.624,2.624,0,0,0,33.579,3.9a2.484,2.484,0,0,0-1.872-.546,7.576,7.576,0,0,0-.767.039c.117-.624.208-1.105.273-1.482A7.992,7.992,0,0,1,31.46.665L30.42.548V.717a15.889,15.889,0,0,1-.39,2.756c-1.053.169-2.405.325-2.873.338Zm7.67-1.716A10.641,10.641,0,0,1,37.583,7.7l.832-.481a11.755,11.755,0,0,0-2.717-4.6ZM47.047.522a20.668,20.668,0,0,1-3.809,3.562,10.045,10.045,0,0,0-1.1.884,1.259,1.259,0,0,0-.377.871c0,.442.208.728.936,1.3,1.9,1.482,2.418,1.911,3.289,2.717a12.272,12.272,0,0,1,1.677,1.781l.819-.806a3.31,3.31,0,0,1-.364-.325,38.329,38.329,0,0,0-4.16-3.549C42.9,6.138,42.8,6.047,42.8,5.813c0-.182.091-.286.572-.65a37.869,37.869,0,0,0,2.99-2.457c1.352-1.3,1.456-1.391,1.6-1.508ZM63.089,2.017a8.315,8.315,0,0,1-1.547,1.807,11.688,11.688,0,0,1-1.1-.988,17.107,17.107,0,0,0,1.586-1.69L61.347.665a7.985,7.985,0,0,1-1.352,1.69A4.009,4.009,0,0,1,58.942.548,8.112,8.112,0,0,1,57.785.6H55.328a4.471,4.471,0,0,1-.936-.065v.819a8.172,8.172,0,0,1,.845-.065H57.6a8.867,8.867,0,0,1-1.612,1.937,17.706,17.706,0,0,0-1.9-1.612l-.572.52a14.1,14.1,0,0,1,1.9,1.586,11.409,11.409,0,0,1-2.977,1.794,2.163,2.163,0,0,1,.494.689A12.525,12.525,0,0,0,56.42,3.85a10.406,10.406,0,0,0,2.041-2.483A8.791,8.791,0,0,0,60.294,3.72a11.735,11.735,0,0,0,3.731,2.431,2.608,2.608,0,0,1,.481-.741,9.233,9.233,0,0,1-2.4-1.2A14.049,14.049,0,0,0,63.18,3.161c.4-.455.4-.455.585-.65Zm-9.048,8.8a6.761,6.761,0,0,1-1.261-.078v.9a8.725,8.725,0,0,1,1.287-.078h8.9a8.8,8.8,0,0,1,1.3.078v-.9A8.3,8.3,0,0,1,63,10.818H60.45A12.374,12.374,0,0,0,61.269,9.4L60.5,9.05a8.953,8.953,0,0,1-.871,1.768H57.382a12.905,12.905,0,0,0-.832-1.7l-.767.273a8.527,8.527,0,0,1,.767,1.43Zm2.2-5.824a5.625,5.625,0,0,1,1.053-.065h2.444a5.486,5.486,0,0,1,1.027.065V4.175a5.091,5.091,0,0,1-1.014.065H57.265a5.32,5.32,0,0,1-1.027-.065ZM61.23,8.92c.442,0,.715.013,1.027.039a4.48,4.48,0,0,1-.052-.871V6.7a5.807,5.807,0,0,1,.052-.871,7.9,7.9,0,0,1-1.04.052H55.783a8.152,8.152,0,0,1-1.04-.052,6.4,6.4,0,0,1,.052.871V8.088a6.526,6.526,0,0,1-.052.871c.3-.026.572-.039,1-.039ZM55.6,6.593h5.8V8.218H55.6ZM73.385,10.87c0,.26-.1.325-.546.325a7.657,7.657,0,0,1-1.222-.117,3.044,3.044,0,0,1,.169.819c.546.039.936.052,1.209.052.871,0,1.144-.234,1.144-.975V9.011c0-.728-.026-1.222-.078-2.4a7.989,7.989,0,0,0,.975,2.3,7.781,7.781,0,0,0,2.158,2.314,2.63,2.63,0,0,1,.559-.715A7.243,7.243,0,0,1,75.4,8.2a14.507,14.507,0,0,0,1.781-2.041L76.5,5.709a8.132,8.132,0,0,1-1.456,1.885,8.59,8.59,0,0,1-.9-2.457V5.1h2.106a7.632,7.632,0,0,1,1.209.065V4.331a7.907,7.907,0,0,1-1.222.078h-.286c.091-1.118.13-1.716.169-2.392A9.229,9.229,0,0,1,76.245.665a11.156,11.156,0,0,1-1.261.052H72.176A7.9,7.9,0,0,1,70.941.652v.819a7.9,7.9,0,0,1,1.235-.065H75.4c-.026.624-.039.754-.052,1.144H72.423a6.244,6.244,0,0,1-1.118-.065v.793a6.7,6.7,0,0,1,1.118-.065H75.3c-.039.546-.039.572-.1,1.2H71.539a7.48,7.48,0,0,1-1.183-.078v.832A7.084,7.084,0,0,1,71.539,5.1h1.846V8.075a15.561,15.561,0,0,1-3.094,1.963l-.026-.6c-.715.286-.975.377-1.547.559V6.2h.546a6.947,6.947,0,0,1,1.144.065V5.449a7.044,7.044,0,0,1-1.144.065h-.546V4.162h.442a5.7,5.7,0,0,1,.871.052V3.447a5.484,5.484,0,0,1-.871.052h-1.6a5.207,5.207,0,0,1-.858-.052A8.346,8.346,0,0,0,68.419.977a7.647,7.647,0,0,0,1.833,2.431,3.481,3.481,0,0,1,.468-.676A5.851,5.851,0,0,1,68.835.34h-.923a6.685,6.685,0,0,1-2.34,3.094,1.7,1.7,0,0,1,.468.637c.312-.273.429-.377.65-.6v.741a6.021,6.021,0,0,1,.845-.052h.442V5.514h-.884a7.814,7.814,0,0,1-1.222-.065v.819A8.042,8.042,0,0,1,67.08,6.2h.9v4a10.566,10.566,0,0,1-2.184.429l.169.871a7.538,7.538,0,0,1,.78-.221A26.764,26.764,0,0,0,70.3,10.155l.338.65c.169-.1.169-.1.39-.247,1.053-.676,1.053-.676,1.287-.845.364-.26.624-.455,1.066-.806ZM67.366,9.531a16.487,16.487,0,0,0-.611-2.639l-.637.208a13.27,13.27,0,0,1,.572,2.665Zm2.392-.312A14.681,14.681,0,0,0,70.382,7l-.65-.247a8.361,8.361,0,0,1-.559,2.262Zm1.144-3.2a9.185,9.185,0,0,1,1.092,2.132l.637-.4a12.921,12.921,0,0,0-1.1-2.028Zm10.244-2.86a7.161,7.161,0,0,1-1.4-.091l.013.988a7.837,7.837,0,0,1,1.378-.065L83.5,3.98a8.459,8.459,0,0,1-.806,3.094,7.6,7.6,0,0,1-3.38,3.419,2.693,2.693,0,0,1,.663.767,9.388,9.388,0,0,0,3.406-3.445,9.8,9.8,0,0,0,1.04-3.835l3.64-.013a28.624,28.624,0,0,1-.325,4.615c-.247,1.287-.455,1.6-1.092,1.6a5.489,5.489,0,0,1-1.677-.338,2.137,2.137,0,0,1,.143.819v.156a7.4,7.4,0,0,0,1.612.221c1.17,0,1.56-.468,1.885-2.249a35.463,35.463,0,0,0,.364-4.55,1.947,1.947,0,0,1,.1-.78L88.6,3.044a2.077,2.077,0,0,1-.858.091l-3.25.013c.039-.364.039-.52.065-.923a10.856,10.856,0,0,1,.1-1.677L83.6.522a3.485,3.485,0,0,1,.052.676c0,.572-.026,1.287-.078,1.95Zm20.163,2.2a11.867,11.867,0,0,1,1.5.065V4.461a9.366,9.366,0,0,1-1.508.078h-7.6a9.366,9.366,0,0,1-1.508-.078v.962a11.867,11.867,0,0,1,1.5-.065H97.2a7.44,7.44,0,0,1-.52,2.691,4.932,4.932,0,0,1-3.289,2.561,2.273,2.273,0,0,1,.611.845,7.644,7.644,0,0,0,2.288-1.287,5.115,5.115,0,0,0,1.755-3.432,12.124,12.124,0,0,0,.143-1.378ZM93.5,2.225a10.456,10.456,0,0,1,1.482-.065h5.083a10.456,10.456,0,0,1,1.482.065V1.237a7.185,7.185,0,0,1-1.5.091H94.991A7.185,7.185,0,0,1,93.5,1.237Zm19.89,7.9v.793h1.04a6.928,6.928,0,0,1-.065-1.2V2.069c-.143,0-.481.013-1.027.026h-5.863a6.822,6.822,0,0,1-1.5-.091v1.04a10.106,10.106,0,0,1,1.5-.065h5.915V9.245H107.2a6.151,6.151,0,0,1-1.417-.091v1.04a4.384,4.384,0,0,1,.793-.052l.6-.013ZM113.5.665a8.989,8.989,0,0,1,1.326,2.067l.65-.39A10.363,10.363,0,0,0,114.153.327Zm1.469-.689a10.007,10.007,0,0,1,1.339,2.041l.65-.377a10.5,10.5,0,0,0-1.352-2.015Zm5.083.988a7.645,7.645,0,0,1,.052,1.092V5.527a7.881,7.881,0,0,1-.052,1.092h1.079a6.884,6.884,0,0,1-.052-1.079v-3.5a7.1,7.1,0,0,1,.052-1.079Zm5.746,0a7.23,7.23,0,0,1,.052,1.144V3.577a16.164,16.164,0,0,1-.182,3.315,3.878,3.878,0,0,1-2.08,2.743,7.569,7.569,0,0,1-2.47.884,2.486,2.486,0,0,1,.546.9,10.235,10.235,0,0,0,2.366-.936,4.94,4.94,0,0,0,2.47-2.886,14.651,14.651,0,0,0,.325-3.965V2.1a5.8,5.8,0,0,1,.065-1.131Zm5.33,5.577a14.2,14.2,0,0,1,1.612-.052h7.54a14.872,14.872,0,0,1,1.586.052V5.488a10.253,10.253,0,0,1-1.573.065h-7.553a9.2,9.2,0,0,1-1.612-.078ZM152.464.8A9.964,9.964,0,0,1,153.8,2.862l.65-.39A9.869,9.869,0,0,0,153.114.457Zm-8.372,4a16.923,16.923,0,0,1,2.613-.468,19.185,19.185,0,0,1-2.782,6.474l.884.52a25.249,25.249,0,0,0,2.808-7.072,7.464,7.464,0,0,1,.936-.065c1.209,0,1.6.442,1.6,1.82a10.063,10.063,0,0,1-.546,3.614q-.254.624-.741.624a4.859,4.859,0,0,1-1.937-.6,2.4,2.4,0,0,1,.039.507,2.9,2.9,0,0,1-.026.468,4.891,4.891,0,0,0,1.963.507,1.358,1.358,0,0,0,1.274-.611,8.96,8.96,0,0,0,.871-4.472,2.624,2.624,0,0,0-.637-2.093,2.484,2.484,0,0,0-1.872-.546,7.576,7.576,0,0,0-.767.039c.1-.559.221-1.157.273-1.482a7.99,7.99,0,0,1,.247-1.248L147.251.6V.769a16.057,16.057,0,0,1-.39,2.756,26.668,26.668,0,0,1-2.873.338ZM153.946.106a9.416,9.416,0,0,1,1.326,2.041l.65-.377a10.441,10.441,0,0,0-1.339-2.015ZM151.762,3.07a10.978,10.978,0,0,1,2.652,4.667l.832-.468a11.9,11.9,0,0,0-2.717-4.6Zm12.506-2.028a4.96,4.96,0,0,1,.091-1.053h-.923a4.688,4.688,0,0,1,.078,1.053h-2.067V.977a4.487,4.487,0,0,1,.091-.988h-.923a4.689,4.689,0,0,1,.078,1.053h-1.469a10.82,10.82,0,0,1-1.4-.065A7.206,7.206,0,0,1,157.872,2V4.032a6.865,6.865,0,0,1-.052,1.027,11.293,11.293,0,0,1,1.378-.052h6.721a13.7,13.7,0,0,1,1.378.052,6.752,6.752,0,0,1-.052-1.027V2A6.863,6.863,0,0,1,167.3.977a10.914,10.914,0,0,1-1.417.065Zm-3.575.637v1h-2.041v-1Zm.754,0h2.067v1h-2.067Zm2.821,0h2.2v1h-2.2Zm-3.575,1.6V4.4h-2.041V3.278Zm.754,0h2.067V4.4h-2.067Zm2.821,0h2.2V4.4h-2.2Zm-6.084,7.7a10.833,10.833,0,0,1-1.43-.078v.871a8.681,8.681,0,0,1,1.43-.091h8.736a8.044,8.044,0,0,1,1.365.091V10.9a9.658,9.658,0,0,1-1.365.078h-2.366a6.867,6.867,0,0,0,.624-.962l-.767-.3a5.025,5.025,0,0,1-.7,1.261h-2.3a7.386,7.386,0,0,0-.767-1.261L159.9,10a5.5,5.5,0,0,1,.7.975Zm9.958-5.252a8.246,8.246,0,0,1-1.443.091h-8.4a7.687,7.687,0,0,1-1.391-.091v.845a9.937,9.937,0,0,1,1.391-.078h8.4a10.641,10.641,0,0,1,1.443.078Zm-9.7,3.081a4.765,4.765,0,0,1-.065.9,13.857,13.857,0,0,1,1.482-.052h5.291c.6,0,1.014.013,1.456.052a4.682,4.682,0,0,1-.065-.9V8.088a4.5,4.5,0,0,1,.065-.91,12.151,12.151,0,0,1-1.482.065h-5.239a12.48,12.48,0,0,1-1.508-.065,4.66,4.66,0,0,1,.065.91Zm.832-.923h6.448V9.011h-6.448Zm15.665-6.76H171.4a12.821,12.821,0,0,1-1.313-.052,5.7,5.7,0,0,1,.052.871V2.55a6.063,6.063,0,0,1-.052.9h.845V1.822h9.152V3.447h.832a5.769,5.769,0,0,1-.052-.884V1.939a5.484,5.484,0,0,1,.052-.871,12.714,12.714,0,0,1-1.3.052h-3.835v-.1a5.347,5.347,0,0,1,.078-.936h-1a5.686,5.686,0,0,1,.078.936Zm-3.419,2.249a6.317,6.317,0,0,1,1.066-.065h5.85a6.247,6.247,0,0,1,1.053.065V2.576a5.972,5.972,0,0,1-1.053.065h-5.85a6.043,6.043,0,0,1-1.066-.065Zm7.67,1.573a6.105,6.105,0,0,1,.052-.884,9.038,9.038,0,0,1-1.092.052h-5.291a8.9,8.9,0,0,1-1.092-.052,6.591,6.591,0,0,1,.052.884v.637a6.222,6.222,0,0,1-.052.884,9.465,9.465,0,0,1,1.092-.052h5.278a9.7,9.7,0,0,1,1.1.052,5.99,5.99,0,0,1-.052-.884Zm-.793-.208V5.787h-5.8V4.734Zm-7.709,5.928A8.893,8.893,0,0,1,170.612,12h.871v-.6H179.5V12h.871a8.544,8.544,0,0,1-.078-1.339V8.439a9.777,9.777,0,0,1,.052-1.261c-.286.026-.546.039-1.235.039h-7.241c-.689,0-.949-.013-1.235-.039a9.52,9.52,0,0,1,.052,1.261Zm.793-2.782h3.5V8.946h-3.5Zm4.264,0H179.5V8.946h-3.757Zm-4.264,1.729h3.5V10.74h-3.5Zm4.264,0H179.5V10.74h-3.757Zm7.488-6.188a43.278,43.278,0,0,1,4.485-.429,26.605,26.605,0,0,0,2.86-.286,8.51,8.51,0,0,0-1.235.689,4.946,4.946,0,0,0-2.431,3.991,3.148,3.148,0,0,0,1.443,2.652,6.558,6.558,0,0,0,2.808,1c.234.039.26.052.4.078l.169-1.053h-.13a6.663,6.663,0,0,1-1.95-.416,2.549,2.549,0,0,1-1.82-2.4,3.973,3.973,0,0,1,1.6-3,6.394,6.394,0,0,1,2.5-1.3,5.452,5.452,0,0,1,1.456-.182L193.31,1.8a8.78,8.78,0,0,1-1.547.143l-.741.026c-.429.013-.6.026-2.2.117l-2.041.13c-1.6.091-1.677.1-2.4.156-.4.026-.559.039-.741.039-.091,0-.221,0-.468-.013Zm7.982,1.248a9.142,9.142,0,0,1,1.326,2.067l.663-.39a9.869,9.869,0,0,0-1.339-2.015Zm1.482-.7a10.288,10.288,0,0,1,1.326,2.041l.65-.364a10.535,10.535,0,0,0-1.339-2.028Zm9.49-1.625c-.884.026-1.9.052-3.146.1-2.093.078-2.093.078-2.47.078-.195,0-.286,0-.52-.013l.039.949c.871-.143,3.5-.273,6.11-.325v.676c0,.156.013.286.013.338,0,.481,0,.533.013.715a2,2,0,0,0-1.508-.585,2.163,2.163,0,0,0-2.3,2.145,2.173,2.173,0,0,0,3.77,1.352,1.82,1.82,0,0,0,.351-.637,3.367,3.367,0,0,1-1.456,2.743,6.663,6.663,0,0,1-2.106.975,2.854,2.854,0,0,1,.572.819,8.269,8.269,0,0,0,2.054-1.053,4.184,4.184,0,0,0,1.742-3.393,3.725,3.725,0,0,0-.312-1.534V3.122c1.053-.026,1.2-.026,1.391-.026a23.105,23.105,0,0,1,2.483.065V2.238c-.429.052-1.43.078-3.887.091V2.186a10.762,10.762,0,0,1,.065-1.625h-.975a4.381,4.381,0,0,1,.052.754Zm-.039,3.8a1.457,1.457,0,0,1-1.521,1.534,1.256,1.256,0,0,1-1.339-1.287,1.376,1.376,0,0,1,1.443-1.365,1.663,1.663,0,0,1,.871.208A.941.941,0,0,1,202.15,6.138Zm7.215,1.807a1.95,1.95,0,1,0,1.95,1.95A1.947,1.947,0,0,0,209.365,7.945Zm0,.741A1.209,1.209,0,1,1,208.156,9.9,1.215,1.215,0,0,1,209.365,8.686ZM1.963,21.123a2.871,2.871,0,0,1,.507-.039A38.278,38.278,0,0,0,7.1,20.746c.078.13.078.156.221.429a15.852,15.852,0,0,0,1.56,2.548,6.492,6.492,0,0,0-2.691-.468,5.526,5.526,0,0,0-2.522.481A2.43,2.43,0,0,0,2.2,25.855a2.1,2.1,0,0,0,.585,1.43,4.766,4.766,0,0,0,3.38.975,10.777,10.777,0,0,0,3.822-.7l-.143-1a8.571,8.571,0,0,1-3.692.832,4.4,4.4,0,0,1-2.535-.6,1.3,1.3,0,0,1-.494-1.014,1.477,1.477,0,0,1,.7-1.209,4.608,4.608,0,0,1,2.47-.546,7.044,7.044,0,0,1,2.275.338,2.6,2.6,0,0,1,.9.533l.871-.494a24.074,24.074,0,0,1-2.34-3.783l.442-.091c.819-.156.975-.195,1.755-.4.39-.1.494-.13.767-.182l-.13-.923a15.214,15.214,0,0,1-3.146.819,10.694,10.694,0,0,1-.468-1.144,4.144,4.144,0,0,1-.377-1.17l-1.027.143c.117.234.2.416.338.754.234.585.442,1.1.637,1.547a30.343,30.343,0,0,1-3.874.273,5.7,5.7,0,0,1-1-.065Zm15.171-2.548a14.479,14.479,0,0,0,1.989.819,20.052,20.052,0,0,0,2.535.741l.364-.91a15.673,15.673,0,0,1-4.407-1.443Zm-1.079,1.4a4.373,4.373,0,0,1-.091.689c-.182,1.092-.416,2.6-.546,3.588-.052.416-.065.533-.1.767l1.014.026a2.26,2.26,0,0,1,.52-.533,6.3,6.3,0,0,1,3.64-1.131c1.586,0,2.522.624,2.522,1.69,0,1.326-1.365,2.184-3.51,2.184a9.233,9.233,0,0,1-3.315-.65,3.007,3.007,0,0,1,.091.806,2.049,2.049,0,0,1-.013.247c.793.195.793.195,1.04.26a10.8,10.8,0,0,0,2.275.234,5.4,5.4,0,0,0,3.237-.858,2.779,2.779,0,0,0,1.17-2.236c0-1.521-1.365-2.509-3.484-2.509a6.435,6.435,0,0,0-3.757,1.118,3.641,3.641,0,0,0-.4.39l-.026-.013a1.566,1.566,0,0,0,.052-.3c.039-.3.065-.39.377-2.275a10.88,10.88,0,0,1,.3-1.43ZM28.522,17.86a7.239,7.239,0,0,1-.182,1.04,21.506,21.506,0,0,0-.585,5.148,18.632,18.632,0,0,0,.338,3.679c.039.247.052.312.078.52l.936-.078v-.195A11.332,11.332,0,0,1,30.16,24.4l-.624-.3a12.078,12.078,0,0,0-.845,2.535c-.052-.689-.078-1.456-.078-2.47A19.218,19.218,0,0,1,29,20.1a18.473,18.473,0,0,1,.546-2.08ZM31.2,20.317a17.315,17.315,0,0,0,2.08.13,21.946,21.946,0,0,0,2.8-.169q.858-.117.9-.117l-.065-.923a13.949,13.949,0,0,1-3.484.351,8.83,8.83,0,0,1-2.21-.195Zm.949,2.535a3.591,3.591,0,0,0-1.131,2.418,1.837,1.837,0,0,0,.39,1.2,3.613,3.613,0,0,0,2.977.988,13.412,13.412,0,0,0,2.665-.26c.26-.039.286-.052.455-.065l-.13-1a8.556,8.556,0,0,1-2.99.455c-1.677,0-2.5-.468-2.5-1.43a3.02,3.02,0,0,1,.975-1.911Zm17.108,2.483a11.011,11.011,0,0,1,1.261.052,9.2,9.2,0,0,1-.039-.975V23.151c0-.312.013-.611.039-.936-.338.026-.637.039-1.183.039H47.541c.013-.3.013-.39.013-.65v-.481h.728a9.779,9.779,0,0,1,1.157.052V20.4a12.18,12.18,0,0,0,1.716,1.1,2.708,2.708,0,0,1,.494-.754,9.835,9.835,0,0,1-2.665-1.7,7.627,7.627,0,0,1-1.456-1.729h-.9A8.679,8.679,0,0,1,43.1,20.863a1.856,1.856,0,0,1,.533.65,13.586,13.586,0,0,0,1.4-1.066v.728a9.921,9.921,0,0,1,1.157-.052h.6v1.131H45.1a8.878,8.878,0,0,1-1.144-.039,7.53,7.53,0,0,1,.039.845v1.521a7.973,7.973,0,0,1-.039.806,10.4,10.4,0,0,1,1.183-.052H46.41c-.507,1.456-1.547,2.3-3.5,2.847a2.176,2.176,0,0,1,.494.728,8.318,8.318,0,0,0,2.184-1.144,4.577,4.577,0,0,0,1.521-2.106,6.751,6.751,0,0,0,3.913,3.25,3.157,3.157,0,0,1,.481-.793A5.891,5.891,0,0,1,47.7,25.335Zm-3.068-4.914c-.481,0-.78-.013-1.079-.039A9.322,9.322,0,0,0,47.1,17.964a9.358,9.358,0,0,0,2.314,2.418c-.312.026-.611.039-1.131.039Zm.572,2.509a11.756,11.756,0,0,1-.182,1.742H44.746V22.93Zm2.964,0v1.742H47.346a14.127,14.127,0,0,0,.182-1.742Zm-7.007-2.457a7.788,7.788,0,0,1,.806.039v-.819a4.611,4.611,0,0,1-.819.052H42.2V18.458a8.488,8.488,0,0,1,.065-1.326h-.9a7.783,7.783,0,0,1,.065,1.339v1.274H40.6a5.4,5.4,0,0,1-.91-.052v.832a5.6,5.6,0,0,1,.91-.052h.689a12.382,12.382,0,0,1-1.9,4.55,2.642,2.642,0,0,1,.52.741,10.564,10.564,0,0,0,1.222-2.73c.247-.871.247-.871.364-1.274-.039.78-.065,1.469-.065,2.054v3.679A11.051,11.051,0,0,1,41.353,29h.923a10.538,10.538,0,0,1-.078-1.508V23.541c0-.611-.026-1.508-.052-2.093a10.322,10.322,0,0,0,1.131,2.275,2.918,2.918,0,0,1,.468-.663,8.084,8.084,0,0,1-1.482-2.587Zm10.517,5.018a6.026,6.026,0,0,1,.91-.052c.884-.013,2.119-.052,3.835-.13v2.457a5.657,5.657,0,0,1-.078,1.183h1.014a5.731,5.731,0,0,1-.091-1.183v-2.5c1.547-.065,1.547-.065,3.7-.234.377.429.507.572.91,1.066l.611-.546a19.486,19.486,0,0,0-2.626-2.535l-.585.429c.533.442.715.611,1.1.975-2.236.143-2.236.143-4.03.2a18.527,18.527,0,0,0,2.678-2.249c.182-.2.312-.312.442-.429l-.845-.416a9.043,9.043,0,0,1-2.028,2.093c-.546-.442-.572-.455-1.118-.858a14.65,14.65,0,0,0,1.651-1.781h4.316v1.742h.871a5.137,5.137,0,0,1-.052-.845v-.884a4.7,4.7,0,0,1,.052-.78,12.079,12.079,0,0,1-1.3.052H58.773V19.017h3.835a13.042,13.042,0,0,1,1.43.065v-.871a9.554,9.554,0,0,1-1.43.078H58.773v-.221a4.323,4.323,0,0,1,.091-.91h-.988a4.238,4.238,0,0,1,.091.91v.221h-3.5a9.755,9.755,0,0,1-1.443-.078v.871a10.3,10.3,0,0,1,1.43-.065h3.51v1.248h-3.51a12.553,12.553,0,0,1-1.3-.052,5.274,5.274,0,0,1,.052.832v.845a5.207,5.207,0,0,1-.052.819h.871V20.98h3.679a7.153,7.153,0,0,1-1.248,1.365c-.364-.247-.52-.338-1-.637l-.533.559a21.183,21.183,0,0,1,2.639,1.82c-.234.182-.234.182-.494.364-.065.039-.143.1-.273.195-.936.026-1.131.026-1.95.026a12.89,12.89,0,0,1-1.768-.078Zm2.886.312A5.389,5.389,0,0,1,54.769,27a6.9,6.9,0,0,1-1.729.832,2.487,2.487,0,0,1,.637.689,8.953,8.953,0,0,0,3.146-2.288Zm3.887.377a11.742,11.742,0,0,0,3.38,2.3,3.075,3.075,0,0,1,.572-.728,9.41,9.41,0,0,1-3.328-2.067Zm7.228-7.007v6.214a7.888,7.888,0,0,1-1.69.494l.26.9c.143-.065.208-.091.26-.117a24.389,24.389,0,0,0,3.458-1.43V24.4a15.4,15.4,0,0,1-1.469.676v-5.9h.429a6.064,6.064,0,0,1,.9.052V18.38a5.757,5.757,0,0,1-.936.052H66.716a6.044,6.044,0,0,1-.949-.052v.845a6.223,6.223,0,0,1,.884-.052Zm5.629-.6a7.02,7.02,0,0,1-.52,1.248h-.988a9.785,9.785,0,0,1-1.105-.039,8.972,8.972,0,0,1,.052,1.157v4.251c0,.481-.013.962-.039,1.248.234-.026.637-.039,1.118-.039h3.861l.663.013H76.1a1.51,1.51,0,0,1,.169.013c.026,0,.078.013.13.013-.026-.26-.039-.715-.039-1.261v-4.2c0-.481.013-.975.039-1.2a7.788,7.788,0,0,1-.806.039H73.2c.156-.325.351-.754.533-1.248H75.92a9.451,9.451,0,0,1,1.209.065v-.884a6.08,6.08,0,0,1-1.222.078H70.993a8.906,8.906,0,0,1-1.274-.078v.871a11.976,11.976,0,0,1,1.248-.052ZM71.1,20.512h4.472v1.274H71.1Zm0,1.95h4.472v1.261H71.1Zm0,1.937h4.472v1.313H71.1Zm2.834,2.782a11.8,11.8,0,0,0,3.146,1.742,3.2,3.2,0,0,1,.546-.728,8.93,8.93,0,0,1-3.042-1.534ZM71.539,26.7A7.825,7.825,0,0,1,68.5,28.221a3.271,3.271,0,0,1,.546.7,10.676,10.676,0,0,0,3.185-1.729Zm10.049-8.84A10.606,10.606,0,0,1,80.2,17.8a9.193,9.193,0,0,1,.065,1.287v8.45a9.185,9.185,0,0,1-.078,1.326h.949V28h6.695v.858h.949A9.733,9.733,0,0,1,88.7,27.48V18.991a8.284,8.284,0,0,1,.065-1.2,9.52,9.52,0,0,1-1.352.065ZM81.133,20.9V18.666h6.695V20.9Zm0,.78h6.695v2.327H81.133Zm0,3.107h6.695v2.418H81.133ZM98.2,19.381a3.741,3.741,0,0,1,1.508.325,3.427,3.427,0,0,1,2.067,3.263,3.924,3.924,0,0,1-2.3,3.64,7.793,7.793,0,0,1-2.171.611,2.066,2.066,0,0,1,.455.871,10.057,10.057,0,0,0,1.976-.6,4.734,4.734,0,0,0,2.977-4.485,4.352,4.352,0,0,0-1.261-3.172,5.033,5.033,0,0,0-3.575-1.287,5.279,5.279,0,0,0-5.564,5.317c0,1.82.923,3.172,2.158,3.172.936,0,1.7-.78,2.457-2.5A19.487,19.487,0,0,0,98.2,19.381Zm-.936.013a17.856,17.856,0,0,1-1.183,4.81c-.559,1.274-1.079,1.885-1.625,1.885-.7,0-1.248-.962-1.248-2.21a4.5,4.5,0,0,1,2.119-3.874A4.106,4.106,0,0,1,97.266,19.394Zm9.789-1.43a7.645,7.645,0,0,1,.052,1.092v3.471a7.881,7.881,0,0,1-.052,1.092h1.079a6.884,6.884,0,0,1-.052-1.079v-3.5a7.1,7.1,0,0,1,.052-1.079Zm5.746,0a7.229,7.229,0,0,1,.052,1.144v1.469a16.164,16.164,0,0,1-.182,3.315,3.878,3.878,0,0,1-2.08,2.743,7.569,7.569,0,0,1-2.47.884,2.486,2.486,0,0,1,.546.9,10.235,10.235,0,0,0,2.366-.936,4.94,4.94,0,0,0,2.47-2.886,14.651,14.651,0,0,0,.325-3.965V19.1a5.8,5.8,0,0,1,.065-1.131Zm9.724-.559a5.9,5.9,0,0,1-.819,1.9,9.631,9.631,0,0,1-3.263,3.562,1.933,1.933,0,0,1,.728.676,12.532,12.532,0,0,0,3.107-3.38l4.381-.078a11.945,11.945,0,0,1-2.236,4.355,11.058,11.058,0,0,1-4.589,3.289,1.96,1.96,0,0,1,.65.767,12.73,12.73,0,0,0,4.524-3.25,13.753,13.753,0,0,0,2.6-4.888c.143-.468.143-.481.26-.637l-.559-.546a1.277,1.277,0,0,1-.676.091c-3.757.065-3.757.065-3.926.1a12.434,12.434,0,0,0,.6-1.157,2.483,2.483,0,0,1,.286-.533Zm14.326,2.756h2.509a11.841,11.841,0,0,1,1.508.065v-1a9.449,9.449,0,0,1-1.521.078H133.64a9.449,9.449,0,0,1-1.521-.078v1a11.841,11.841,0,0,1,1.508-.065h2.262V25.92h-3.25a9.271,9.271,0,0,1-1.508-.078v1.014a11.867,11.867,0,0,1,1.5-.065h7.722a11.967,11.967,0,0,1,1.508.065V25.842a9.353,9.353,0,0,1-1.521.078h-3.484ZM154.713,27.3a32.329,32.329,0,0,0-4.329-3.9,15.72,15.72,0,0,0,2.145-3.64,2.426,2.426,0,0,1,.364-.637l-.546-.559a2.424,2.424,0,0,1-.832.1l-4.641.052h-.338a6.109,6.109,0,0,1-1.027-.065l.026,1.053a8.747,8.747,0,0,1,1.339-.1l4.342-.065a2.209,2.209,0,0,0,.312-.013.275.275,0,0,1-.039.091c-.026.065-.039.078-.065.156a14.09,14.09,0,0,1-4.641,5.863,10.465,10.465,0,0,1-2.639,1.495,2.893,2.893,0,0,1,.637.858,16.74,16.74,0,0,0,2.548-1.56,14.112,14.112,0,0,0,2.483-2.327,24.179,24.179,0,0,1,4.16,4.017Zm6.253,1.1a8.841,8.841,0,0,1-.065-1.378V23.112a4.54,4.54,0,0,0-.052-.767l.026-.013a1.435,1.435,0,0,0,.4.221,26.506,26.506,0,0,1,4.849,2.574l.559-.962a32.241,32.241,0,0,0-5.785-2.743V18.991a8.16,8.16,0,0,1,.065-1.352h-1.118a7.71,7.71,0,0,1,.078,1.326v8.073a8.363,8.363,0,0,1-.078,1.365Zm9.269-7.982a43.278,43.278,0,0,1,4.485-.429,26.605,26.605,0,0,0,2.86-.286,8.51,8.51,0,0,0-1.235.689,4.946,4.946,0,0,0-2.431,3.991,3.148,3.148,0,0,0,1.443,2.652,6.558,6.558,0,0,0,2.808,1c.234.039.26.052.4.078l.169-1.053h-.13a6.663,6.663,0,0,1-1.95-.416,2.549,2.549,0,0,1-1.82-2.405,3.973,3.973,0,0,1,1.6-3,6.394,6.394,0,0,1,2.5-1.3,5.453,5.453,0,0,1,1.456-.182l-.078-.962a8.78,8.78,0,0,1-1.547.143l-.741.026c-.429.013-.6.026-2.2.117l-2.041.13c-1.6.091-1.677.1-2.4.156-.4.026-.559.039-.741.039-.091,0-.221,0-.468-.013Zm7.982,1.248a9.142,9.142,0,0,1,1.326,2.067l.663-.39a9.869,9.869,0,0,0-1.339-2.015Zm1.482-.7a10.288,10.288,0,0,1,1.326,2.041l.65-.364a10.535,10.535,0,0,0-1.339-2.028Zm2.249,5.057a12.975,12.975,0,0,1,2.561,2.834l.728-.689a13.246,13.246,0,0,0-2.613-2.756ZM3.991,34.873a5.623,5.623,0,0,1,.221.832,26.253,26.253,0,0,0,.949,3.627,8.08,8.08,0,0,0-1.7,1.066A2.812,2.812,0,0,0,2.3,42.608,2.158,2.158,0,0,0,3.913,44.74a8.844,8.844,0,0,0,2.886.351,26.079,26.079,0,0,0,2.873-.169l.442-.052.13-.013a3.417,3.417,0,0,1,.39-.013l-.1-1.079a12.907,12.907,0,0,1-3.718.442c-2.548,0-3.549-.468-3.549-1.638,0-1.079.962-1.937,3.185-2.834a34.424,34.424,0,0,1,3.913-1.261l-.39-.988a5.882,5.882,0,0,1-.832.351c-2,.689-2.431.858-3.146,1.157a23.688,23.688,0,0,1-.975-4.3Zm4.771-.039A10.137,10.137,0,0,1,10.088,36.9l.663-.39A10.435,10.435,0,0,0,9.412,34.5Zm1.482-.7a10.9,10.9,0,0,1,1.326,2.041l.65-.364a10.4,10.4,0,0,0-1.352-2.028Zm7.683.455c-.078.39-.364,1.209-1.781,4.966-1.872,4.992-1.872,4.992-2.041,5.356l1,.312a13.306,13.306,0,0,1,1.2-2.99c.728-1.235,1.573-1.924,2.327-1.924a.7.7,0,0,1,.741.481,2.8,2.8,0,0,1,.1.988v.741a5.359,5.359,0,0,0,.117,1.4,1.829,1.829,0,0,0,1.9,1.17,3.027,3.027,0,0,0,2.587-1.417A7.022,7.022,0,0,0,25,41.386a3.71,3.71,0,0,1-.858-.663,5.693,5.693,0,0,1-.494,1.846,2.249,2.249,0,0,1-2.08,1.625,1.211,1.211,0,0,1-.988-.4,2.21,2.21,0,0,1-.208-1.235v-.884A3.279,3.279,0,0,0,20.15,40.2a1.443,1.443,0,0,0-1.3-.767c-.923,0-1.586.468-2.444,1.7l-.065-.026a1.955,1.955,0,0,1,.117-.234l.143-.286a22.037,22.037,0,0,0,.936-2.145c1.274-3.263,1.274-3.263,1.443-3.575Zm12.064.286a5.623,5.623,0,0,1,.221.832,26.253,26.253,0,0,0,.949,3.627,8.08,8.08,0,0,0-1.7,1.066,2.812,2.812,0,0,0-1.157,2.21,2.158,2.158,0,0,0,1.612,2.132,8.844,8.844,0,0,0,2.886.351,26.079,26.079,0,0,0,2.873-.169l.442-.052.13-.013a3.417,3.417,0,0,1,.39-.013l-.1-1.079a12.907,12.907,0,0,1-3.718.442c-2.548,0-3.549-.468-3.549-1.638,0-1.079.962-1.937,3.185-2.834a34.424,34.424,0,0,1,3.913-1.261l-.39-.988a5.882,5.882,0,0,1-.832.351c-2,.689-2.431.858-3.146,1.157a23.688,23.688,0,0,1-.975-4.3Zm4.771-.039A10.138,10.138,0,0,1,36.088,36.9l.663-.39A10.435,10.435,0,0,0,35.412,34.5Zm1.482-.7a10.9,10.9,0,0,1,1.326,2.041l.65-.364a10.4,10.4,0,0,0-1.352-2.028Zm7.683.455c-.078.39-.364,1.209-1.781,4.966-1.872,4.992-1.872,4.992-2.041,5.356l1,.312a13.306,13.306,0,0,1,1.2-2.99c.728-1.235,1.573-1.924,2.327-1.924a.7.7,0,0,1,.741.481,2.8,2.8,0,0,1,.1.988v.741a5.359,5.359,0,0,0,.117,1.4,1.829,1.829,0,0,0,1.9,1.17,3.027,3.027,0,0,0,2.587-1.417A7.022,7.022,0,0,0,51,41.386a3.71,3.71,0,0,1-.858-.663,5.693,5.693,0,0,1-.494,1.846,2.249,2.249,0,0,1-2.08,1.625,1.211,1.211,0,0,1-.988-.4,2.21,2.21,0,0,1-.208-1.235v-.884A3.279,3.279,0,0,0,46.15,40.2a1.443,1.443,0,0,0-1.3-.767c-.923,0-1.586.468-2.444,1.7l-.065-.026a1.955,1.955,0,0,1,.117-.234l.143-.286a22.037,22.037,0,0,0,.936-2.145c1.274-3.263,1.274-3.263,1.443-3.575Zm11.219,2.574a7.161,7.161,0,0,1-1.4-.091l.013.988a7.837,7.837,0,0,1,1.378-.065L57.5,37.98a8.459,8.459,0,0,1-.806,3.094,7.6,7.6,0,0,1-3.38,3.419,2.693,2.693,0,0,1,.663.767,9.388,9.388,0,0,0,3.406-3.445,9.8,9.8,0,0,0,1.04-3.835l3.64-.013a28.624,28.624,0,0,1-.325,4.615c-.247,1.287-.455,1.6-1.092,1.6a5.489,5.489,0,0,1-1.677-.338,2.137,2.137,0,0,1,.143.819v.156a7.4,7.4,0,0,0,1.612.221c1.17,0,1.56-.468,1.885-2.249a35.463,35.463,0,0,0,.364-4.55,1.947,1.947,0,0,1,.1-.78l-.481-.416a2.077,2.077,0,0,1-.858.091l-3.25.013c.039-.364.039-.52.065-.923a10.855,10.855,0,0,1,.1-1.677L57.6,34.522a3.485,3.485,0,0,1,.052.676c0,.572-.026,1.287-.078,1.95Zm20.163,2.2a11.867,11.867,0,0,1,1.5.065v-.962a9.366,9.366,0,0,1-1.508.078h-7.6a9.366,9.366,0,0,1-1.508-.078v.962a11.867,11.867,0,0,1,1.5-.065H71.2a7.44,7.44,0,0,1-.52,2.691,4.932,4.932,0,0,1-3.289,2.561,2.273,2.273,0,0,1,.611.845,7.644,7.644,0,0,0,2.288-1.287,5.115,5.115,0,0,0,1.755-3.432,12.124,12.124,0,0,0,.143-1.378ZM67.5,36.225a10.456,10.456,0,0,1,1.482-.065h5.083a10.456,10.456,0,0,1,1.482.065v-.988a7.185,7.185,0,0,1-1.5.091H68.991a7.185,7.185,0,0,1-1.495-.091Zm19.89,7.9v.793h1.04a6.929,6.929,0,0,1-.065-1.2V36.069c-.143,0-.481.013-1.027.026H81.471a6.822,6.822,0,0,1-1.5-.091v1.04a10.107,10.107,0,0,1,1.5-.065h5.915v6.266H81.2a6.151,6.151,0,0,1-1.417-.091v1.04a4.384,4.384,0,0,1,.793-.052l.6-.013Zm.117-9.464a8.989,8.989,0,0,1,1.326,2.067l.65-.39a10.363,10.363,0,0,0-1.326-2.015Zm1.469-.689a10.007,10.007,0,0,1,1.339,2.041l.65-.377a10.5,10.5,0,0,0-1.352-2.015Zm5.083.988a7.645,7.645,0,0,1,.052,1.092v3.471a7.881,7.881,0,0,1-.052,1.092h1.079a6.884,6.884,0,0,1-.052-1.079v-3.5a7.1,7.1,0,0,1,.052-1.079Zm5.746,0a7.23,7.23,0,0,1,.052,1.144v1.469a16.164,16.164,0,0,1-.182,3.315,3.878,3.878,0,0,1-2.08,2.743,7.569,7.569,0,0,1-2.47.884,2.486,2.486,0,0,1,.546.9,10.235,10.235,0,0,0,2.366-.936,4.94,4.94,0,0,0,2.47-2.886,14.651,14.651,0,0,0,.325-3.965V36.1a5.8,5.8,0,0,1,.065-1.131Zm5.33,5.577a14.2,14.2,0,0,1,1.612-.052h7.54a14.871,14.871,0,0,1,1.586.052V39.488a10.253,10.253,0,0,1-1.573.065h-7.553a9.2,9.2,0,0,1-1.612-.078Zm21.333-5.746a9.964,9.964,0,0,1,1.339,2.067l.65-.39a9.869,9.869,0,0,0-1.339-2.015Zm-8.372,4a16.923,16.923,0,0,1,2.613-.468,19.184,19.184,0,0,1-2.782,6.474l.884.52a25.249,25.249,0,0,0,2.808-7.072,7.465,7.465,0,0,1,.936-.065c1.209,0,1.6.442,1.6,1.82a10.063,10.063,0,0,1-.546,3.614q-.254.624-.741.624a4.859,4.859,0,0,1-1.937-.6,2.4,2.4,0,0,1,.039.507,2.906,2.906,0,0,1-.026.468,4.891,4.891,0,0,0,1.963.507,1.358,1.358,0,0,0,1.274-.611,8.961,8.961,0,0,0,.871-4.472,2.624,2.624,0,0,0-.637-2.093,2.484,2.484,0,0,0-1.872-.546,7.577,7.577,0,0,0-.767.039c.1-.559.221-1.157.273-1.482a7.992,7.992,0,0,1,.247-1.248l-1.04-.117v.169a16.057,16.057,0,0,1-.39,2.756,26.668,26.668,0,0,1-2.873.338Zm9.854-4.693a9.416,9.416,0,0,1,1.326,2.041l.65-.377a10.441,10.441,0,0,0-1.339-2.015Zm-2.184,2.964a10.978,10.978,0,0,1,2.652,4.667l.832-.468a11.9,11.9,0,0,0-2.717-4.6Zm10.166-1.508a9.287,9.287,0,0,1-1.04-.052,8.252,8.252,0,0,1,.052.884v6.357c0,.325-.013.6-.039.884.3-.026.611-.039,1-.039h4.68c.351,0,.624.013.91.039-.026-.338-.039-.585-.039-.871V41.113a9.937,9.937,0,0,1,.039-1,5.635,5.635,0,0,1-.936.039h-4.8V38.812h4.407c.377,0,.611.013.949.039a5.692,5.692,0,0,1-.039-.884V36.381a6.133,6.133,0,0,1,.039-.871,6.072,6.072,0,0,1-.936.052h-2.21c.208-.312.442-.7.728-1.235l-.871-.208a8.008,8.008,0,0,1-.741,1.443Zm-.169.715h4.511V38.11h-4.511Zm0,4.576h4.888v2.015h-4.888Zm-4.927-5.824a11.693,11.693,0,0,1,2.015,2.366l.663-.585a14.417,14.417,0,0,0-2.067-2.327Zm-.091,5.2a5.093,5.093,0,0,1,.949-.065h.858V43.3a9.211,9.211,0,0,1-2.093,1.573l.429.845c.195-.169.325-.286.481-.4a13.627,13.627,0,0,0,1.56-1.391,3.067,3.067,0,0,0,1.313,1.222c.741.364,1.625.481,3.757.481,1.482,0,2.6-.026,4.316-.078a2.885,2.885,0,0,1,.3-.936,42.157,42.157,0,0,1-5.161.234c-1.807,0-2.613-.13-3.224-.533a1.955,1.955,0,0,1-.858-1.053V40.723a12.48,12.48,0,0,1,.052-1.365,7.353,7.353,0,0,1-.975.065h-.7a5.268,5.268,0,0,1-1-.065Zm16-3.588a14.611,14.611,0,0,1,.117-2.457h-.988a5.95,5.95,0,0,1,.091,1.417c0,.4,0,.676-.026,1.04h-.754a7.7,7.7,0,0,1-1.43-.091v.962a7.746,7.746,0,0,1,1.365-.091h.78a14.267,14.267,0,0,1-1.144,5.408,7.992,7.992,0,0,1-1.456,2.158,2.954,2.954,0,0,1,.663.728,10.023,10.023,0,0,0,1.313-1.989,10.729,10.729,0,0,0,.949-2.613,20.354,20.354,0,0,0,.494-3.692h1.9c-.013,1.391-.039,2.119-.1,3.354a18.146,18.146,0,0,1-.494,3.5c-.091.221-.26.312-.611.312a7.859,7.859,0,0,1-1.521-.208,3.269,3.269,0,0,1,.13.858,11.64,11.64,0,0,0,1.586.143c.9,0,1.17-.3,1.4-1.6a39.833,39.833,0,0,0,.429-5.538,10.252,10.252,0,0,1,.065-1.651,12.676,12.676,0,0,1-1.352.052Zm4.693,7.826h2.691V45.4h.9a9.3,9.3,0,0,1-.078-1.274V37.135a9.839,9.839,0,0,1,.065-1.365,7.473,7.473,0,0,1-1.131.065H151.7a7.444,7.444,0,0,1-1.144-.065,10.067,10.067,0,0,1,.065,1.365v6.89a12,12,0,0,1-.078,1.482h.9Zm0-7.878h2.691v7.124h-2.691Zm6.526,1.534a2.872,2.872,0,0,1,.507-.039,38.278,38.278,0,0,0,4.628-.338c.078.13.078.156.221.429a15.853,15.853,0,0,0,1.56,2.548,6.492,6.492,0,0,0-2.691-.468,5.526,5.526,0,0,0-2.522.481,2.43,2.43,0,0,0-1.469,2.119,2.1,2.1,0,0,0,.585,1.43,4.766,4.766,0,0,0,3.38.975,10.777,10.777,0,0,0,3.822-.7l-.143-1a8.571,8.571,0,0,1-3.692.832,4.4,4.4,0,0,1-2.535-.6,1.3,1.3,0,0,1-.494-1.014,1.477,1.477,0,0,1,.7-1.209,4.608,4.608,0,0,1,2.47-.546,7.044,7.044,0,0,1,2.275.338,2.6,2.6,0,0,1,.9.533l.871-.494a24.074,24.074,0,0,1-2.34-3.783l.442-.091c.819-.156.975-.195,1.755-.4.39-.1.494-.13.767-.182l-.13-.923a15.214,15.214,0,0,1-3.146.819,10.692,10.692,0,0,1-.468-1.144,4.144,4.144,0,0,1-.377-1.17l-1.027.143c.117.234.195.416.338.754.234.585.442,1.105.637,1.547a30.343,30.343,0,0,1-3.874.273,5.7,5.7,0,0,1-1-.065Zm12.467,5.265a2.755,2.755,0,0,1,.338-.416c.221-.247.4-.455.546-.611.442-.494.442-.494.637-.715a1.444,1.444,0,0,0,.234-.312h.026c-.039.585-.039.585-.039,2.106a11.115,11.115,0,0,1-.091,2.145H173.1a20.156,20.156,0,0,1-.039-2.158V40.619a21.081,21.081,0,0,1,2.509-2.21,3.7,3.7,0,0,1,1.963-.884.659.659,0,0,1,.715.7,9.745,9.745,0,0,1-.325,1.95,12.628,12.628,0,0,0-.494,3.029,1.5,1.5,0,0,0,1.521,1.755,2.238,2.238,0,0,0,1.794-.936,6.417,6.417,0,0,0,.806-1.287,4.279,4.279,0,0,1-.6-.884,5.35,5.35,0,0,1-.741,1.495,1.568,1.568,0,0,1-1.1.715c-.507,0-.78-.325-.78-.923a14.3,14.3,0,0,1,.559-3.081,8.684,8.684,0,0,0,.3-1.9,1.413,1.413,0,0,0-1.521-1.521,5.225,5.225,0,0,0-2.938,1.43,9.28,9.28,0,0,0-1.651,1.521l-.026-.013c0-.078.013-.1.013-.208a.664.664,0,0,0,.013-.117c.013-.611.013-.611.026-.871a2.215,2.215,0,0,0,.013-.325,4.48,4.48,0,0,1,.663-.806l-.338-.4a.849.849,0,0,1-.26.065,15.135,15.135,0,0,1,.156-2.314l-1.027-.013a5.291,5.291,0,0,1,.039.65c0,.169-.013.754-.052,1.742-1.092.065-1.664.1-1.7.1a2.63,2.63,0,0,1-.4-.026l.052.9a13.247,13.247,0,0,1,2.041-.182c-.039,1.144-.065,1.963-.078,2.483a19.962,19.962,0,0,1-2.288,2.2Zm22.945.572a4.444,4.444,0,0,1-.442-.3,11.379,11.379,0,0,0-3.627-1.9c-.052-1.261-.052-1.261-.078-1.989.962-.065,1.989-.169,2.886-.312.455-.065.585-.078.754-.091l-.052-.9a15.691,15.691,0,0,1-3.6.533c-.013-.689-.013-.689-.026-1.755a27.005,27.005,0,0,0,3.016-.312c.676-.091.676-.091.9-.1l-.065-.884a18.325,18.325,0,0,1-3.848.533,14.508,14.508,0,0,1,.091-1.833h-1a10.183,10.183,0,0,1,.065,1.872c-.429,0-.871.013-1.131.013a16.15,16.15,0,0,1-3.328-.26l-.013.884a1.062,1.062,0,0,1,.182-.013,1.577,1.577,0,0,1,.234.013c1.17.091,2.223.13,3.172.13.3,0,.507,0,.884-.013l.026,1.781c-.364.013-.819.013-1.157.013a15.955,15.955,0,0,1-2.977-.208l-.013.858h.1c.078,0,.182,0,.325.013.806.065,1.417.091,2.2.091.416,0,1.066-.013,1.534-.026.013.338.013.585.026.754.013.377.013.65.026.767a1.036,1.036,0,0,0,.013.143c0,.117,0,.117.013.156a5.782,5.782,0,0,0-1.17-.1,5.663,5.663,0,0,0-1.352.13c-1.144.26-1.82.936-1.82,1.794a1.7,1.7,0,0,0,.7,1.365,3.386,3.386,0,0,0,2.015.52,2.617,2.617,0,0,0,2.2-.819,2.258,2.258,0,0,0,.325-1.417,3.737,3.737,0,0,0-.026-.468c.351.143.65.273.871.39a10.461,10.461,0,0,1,2.652,1.859Zm-4.9-1.053a1.7,1.7,0,0,1-.26,1.17,1.878,1.878,0,0,1-1.43.429c-1.131,0-1.781-.39-1.781-1.079s.845-1.157,2.132-1.157a4.772,4.772,0,0,1,1.326.143Zm13.715-6.565c-.884.026-1.9.052-3.146.1-2.093.078-2.093.078-2.47.078-.195,0-.286,0-.52-.013l.039.949c.871-.143,3.5-.273,6.11-.325v.676c0,.156.013.286.013.338,0,.481,0,.533.013.715a2,2,0,0,0-1.508-.585,2.163,2.163,0,0,0-2.3,2.145,2.173,2.173,0,0,0,3.77,1.352,1.82,1.82,0,0,0,.351-.637,3.367,3.367,0,0,1-1.456,2.743,6.663,6.663,0,0,1-2.106.975,2.854,2.854,0,0,1,.572.819,8.269,8.269,0,0,0,2.054-1.053,4.184,4.184,0,0,0,1.742-3.393,3.725,3.725,0,0,0-.312-1.534V37.122c1.053-.026,1.2-.026,1.391-.026a23.106,23.106,0,0,1,2.483.065v-.923c-.429.052-1.43.078-3.887.091v-.143a10.761,10.761,0,0,1,.065-1.625h-.975a4.381,4.381,0,0,1,.052.754Zm-.039,3.8a1.457,1.457,0,0,1-1.521,1.534,1.256,1.256,0,0,1-1.339-1.287,1.376,1.376,0,0,1,1.443-1.365,1.663,1.663,0,0,1,.871.208A.941.941,0,0,1,202.15,40.138Zm7.215,1.807a1.95,1.95,0,1,0,1.95,1.95A1.947,1.947,0,0,0,209.365,41.945Zm0,.741a1.209,1.209,0,1,1-1.209,1.209A1.215,1.215,0,0,1,209.365,42.686Z" transform="translate(982 1375.145)" fill="#1b1311"/>
    <path id="パス_109108" data-name="パス 109108" d="M-77.28-15.32a7.63,7.63,0,0,1,.14-1.62h-1.42a7.213,7.213,0,0,1,.12,1.62h-3.18v-.1a6.9,6.9,0,0,1,.14-1.52H-82.9a7.213,7.213,0,0,1,.12,1.62h-2.26a16.647,16.647,0,0,1-2.16-.1,11.083,11.083,0,0,1,.08,1.58v3.12a10.559,10.559,0,0,1-.08,1.58,17.373,17.373,0,0,1,2.12-.08h10.34a21.084,21.084,0,0,1,2.12.08,10.388,10.388,0,0,1-.08-1.58v-3.12a10.557,10.557,0,0,1,.08-1.58,16.791,16.791,0,0,1-2.18.1Zm-5.5.98v1.54h-3.14v-1.54Zm1.16,0h3.18v1.54h-3.18Zm4.34,0h3.38v1.54h-3.38Zm-5.5,2.46v1.72h-3.14v-1.72Zm1.16,0h3.18v1.72h-3.18Zm4.34,0h3.38v1.72h-3.38ZM-86.64-.04a16.665,16.665,0,0,1-2.2-.12V1.18a13.355,13.355,0,0,1,2.2-.14H-73.2a12.375,12.375,0,0,1,2.1.14V-.16a14.859,14.859,0,0,1-2.1.12h-3.64a10.565,10.565,0,0,0,.96-1.48l-1.18-.46A7.731,7.731,0,0,1-78.14-.04h-3.54a11.362,11.362,0,0,0-1.18-1.94L-84-1.54a8.455,8.455,0,0,1,1.08,1.5Zm15.32-8.08a12.686,12.686,0,0,1-2.22.14H-86.46a11.826,11.826,0,0,1-2.14-.14v1.3a15.288,15.288,0,0,1,2.14-.12h12.92a16.371,16.371,0,0,1,2.22.12ZM-86.24-3.38A7.331,7.331,0,0,1-86.34-2a21.318,21.318,0,0,1,2.28-.08h8.14c.92,0,1.56.02,2.24.08a7.2,7.2,0,0,1-.1-1.38v-1.1a6.925,6.925,0,0,1,.1-1.4,18.694,18.694,0,0,1-2.28.1h-8.06a19.2,19.2,0,0,1-2.32-.1,7.17,7.17,0,0,1,.1,1.4Zm1.28-1.42h9.92v1.74h-9.92Zm24.1-10.4H-66.3a19.725,19.725,0,0,1-2.02-.08,8.765,8.765,0,0,1,.08,1.34V-13a9.328,9.328,0,0,1-.08,1.38h1.3v-2.5h14.08v2.5h1.28a8.875,8.875,0,0,1-.08-1.36v-.96a8.437,8.437,0,0,1,.08-1.34,19.56,19.56,0,0,1-2,.08h-5.9v-.16a8.226,8.226,0,0,1,.12-1.44h-1.54a8.745,8.745,0,0,1,.12,1.44Zm-5.26,3.46a9.719,9.719,0,0,1,1.64-.1h9a9.611,9.611,0,0,1,1.62.1v-1.22a9.188,9.188,0,0,1-1.62.1h-9a9.3,9.3,0,0,1-1.64-.1Zm11.8,2.42a9.392,9.392,0,0,1,.08-1.36,13.905,13.905,0,0,1-1.68.08h-8.14a13.694,13.694,0,0,1-1.68-.08,10.141,10.141,0,0,1,.08,1.36v.98a9.573,9.573,0,0,1-.08,1.36,14.561,14.561,0,0,1,1.68-.08h8.12a14.922,14.922,0,0,1,1.7.08,9.216,9.216,0,0,1-.08-1.36Zm-1.22-.32v1.62h-8.92V-9.64ZM-67.4-.52a13.683,13.683,0,0,1-.12,2.06h1.34V.62h12.34v.92h1.34a13.144,13.144,0,0,1-.12-2.06V-3.94a15.043,15.043,0,0,1,.08-1.94c-.44.04-.84.06-1.9.06H-65.58c-1.06,0-1.46-.02-1.9-.06a14.646,14.646,0,0,1,.08,1.94Zm1.22-4.28h5.38v1.64h-5.38Zm6.56,0h5.78v1.64h-5.78Zm-6.56,2.66h5.38V-.4h-5.38Zm6.56,0h5.78V-.4h-5.78ZM-43.4-16.22a20.576,20.576,0,0,1-.68,3.76c-.38,0-1.04.02-1.44.02a12.638,12.638,0,0,1-2.38-.16l-.02,1.38h.26c.06,0,.22,0,.44.02.3,0,.98.02,1.32.02.3,0,.98-.02,1.48-.04A29.947,29.947,0,0,1-46.5-6.06a17.657,17.657,0,0,1-1.92,3.12l1.36.8c.1-.16.22-.4.4-.68.76-1.32.94-1.66,1.42-2.62a37.261,37.261,0,0,0,2.22-5.84,24.145,24.145,0,0,0,3.28-.42c.48-.08.48-.08.7-.12l-.06-1.38a16.643,16.643,0,0,1-3.58.66c.28-1.02.4-1.5.54-2.18A6.264,6.264,0,0,1-41.82-16Zm11.78,5.52a27.566,27.566,0,0,0-5.28-2.64l-.74,1.12a21.691,21.691,0,0,1,5.3,2.72Zm.04,8.86a2.024,2.024,0,0,1-.36-.32,14.367,14.367,0,0,0-3.92-2.42,23.858,23.858,0,0,1-.22-3.04,6.138,6.138,0,0,1,.26-1.86l-1.36-.14a8.1,8.1,0,0,0-.2,1.94c0,.5.04,1.44.14,2.74a6.6,6.6,0,0,0-2.02-.3,5.845,5.845,0,0,0-2.36.44,2.836,2.836,0,0,0-1.86,2.54c0,1.78,1.5,2.9,3.9,2.9,2.44,0,3.8-1.14,3.8-3.2a4.145,4.145,0,0,0-.04-.64,11.44,11.44,0,0,1,3.5,2.72Zm-5.56-1.82s.04.62.04.86c0,1.5-.78,2.18-2.5,2.18-1.58,0-2.54-.62-2.54-1.64,0-1.1,1.08-1.8,2.78-1.8A5.935,5.935,0,0,1-37.14-3.66Zm11.98-8.4a11.017,11.017,0,0,1-2.16-.14l.02,1.52a12.056,12.056,0,0,1,2.12-.1l3.64-.02a13.013,13.013,0,0,1-1.24,4.76,11.7,11.7,0,0,1-5.2,5.26A4.143,4.143,0,0,1-26.96.4a14.444,14.444,0,0,0,5.24-5.3,15.082,15.082,0,0,0,1.6-5.9l5.6-.02a44.037,44.037,0,0,1-.5,7.1c-.38,1.98-.7,2.46-1.68,2.46a8.445,8.445,0,0,1-2.58-.52,3.288,3.288,0,0,1,.22,1.26v.24a11.383,11.383,0,0,0,2.48.34c1.8,0,2.4-.72,2.9-3.46a54.558,54.558,0,0,0,.56-7,3,3,0,0,1,.16-1.2l-.74-.64a3.2,3.2,0,0,1-1.32.14l-5,.02c.06-.56.06-.8.1-1.42a16.7,16.7,0,0,1,.16-2.58l-1.62-.04a5.361,5.361,0,0,1,.08,1.04c0,.88-.04,1.98-.12,3ZM5.86-8.68a18.257,18.257,0,0,1,2.3.1v-1.48a14.409,14.409,0,0,1-2.32.12H-5.86a14.409,14.409,0,0,1-2.32-.12v1.48a18.257,18.257,0,0,1,2.3-.1H-.46a11.446,11.446,0,0,1-.8,4.14C-2.08-2.72-3.7-1.44-6.32-.6A3.5,3.5,0,0,1-5.38.7,11.761,11.761,0,0,0-1.86-1.28,7.87,7.87,0,0,0,.84-6.56a18.653,18.653,0,0,0,.22-2.12ZM-6.16-13.5a16.086,16.086,0,0,1,2.28-.1H3.94a16.086,16.086,0,0,1,2.28.1v-1.52a11.053,11.053,0,0,1-2.3.14H-3.86a11.053,11.053,0,0,1-2.3-.14ZM24.44-1.34V-.12h1.6a10.66,10.66,0,0,1-.1-1.84V-13.74c-.22,0-.74.02-1.58.04H15.34a10.5,10.5,0,0,1-2.3-.14v1.6a15.548,15.548,0,0,1,2.3-.1h9.1V-2.7H14.92a9.463,9.463,0,0,1-2.18-.14v1.6a6.745,6.745,0,0,1,1.22-.08l.92-.02Zm.18-14.56a13.83,13.83,0,0,1,2.04,3.18l1-.6a15.942,15.942,0,0,0-2.04-3.1Zm2.26-1.06a15.4,15.4,0,0,1,2.06,3.14l1-.58a16.159,16.159,0,0,0-2.08-3.1Zm7.82,1.52a11.762,11.762,0,0,1,.08,1.68v5.34a12.125,12.125,0,0,1-.08,1.68h1.66a10.592,10.592,0,0,1-.08-1.66v-5.38a10.926,10.926,0,0,1,.08-1.66Zm8.84,0a11.121,11.121,0,0,1,.08,1.76v2.26a24.868,24.868,0,0,1-.28,5.1,5.966,5.966,0,0,1-3.2,4.22,11.645,11.645,0,0,1-3.8,1.36A3.825,3.825,0,0,1,37.18.64,15.746,15.746,0,0,0,40.82-.8a7.6,7.6,0,0,0,3.8-4.44,22.54,22.54,0,0,0,.5-6.1V-13.7a8.927,8.927,0,0,1,.1-1.74Zm8.2,8.58a21.848,21.848,0,0,1,2.48-.08h11.6a22.879,22.879,0,0,1,2.44.08V-8.48a15.774,15.774,0,0,1-2.42.1H54.22a14.148,14.148,0,0,1-2.48-.12ZM87.56,0c-.56-.48-1.24-1.12-1.9-1.78L84.36-3.1a13.431,13.431,0,0,0,2.28-4.86l-1.4-.54A10.194,10.194,0,0,1,83.4-4.06l-4.18-4.2a8.591,8.591,0,0,0,2.62-1.42A3.316,3.316,0,0,0,83-12.34c0-1.86-1.64-3.14-4.04-3.14a3.947,3.947,0,0,0-3.52,1.58,2.839,2.839,0,0,0-.52,1.68A3.755,3.755,0,0,0,76.24-9.4l.68.72a7.444,7.444,0,0,0-2.58,1.62,4.246,4.246,0,0,0-1.32,3.14A4.078,4.078,0,0,0,74.16-1,5.077,5.077,0,0,0,77.92.3a7.962,7.962,0,0,0,3.02-.58A6.946,6.946,0,0,0,83.38-2l.46.48A16.472,16.472,0,0,1,85.1,0ZM77.38-10.14a2.607,2.607,0,0,1-.94-1.98c0-1.3.98-2.1,2.54-2.1s2.52.78,2.52,2.06a2.254,2.254,0,0,1-1.16,1.96,11.23,11.23,0,0,1-2.08.96Zm5.04,7.18a5.941,5.941,0,0,1-1.9,1.36,5.959,5.959,0,0,1-2.48.54c-2.14,0-3.5-1.16-3.5-2.96a3.1,3.1,0,0,1,1-2.3,7.28,7.28,0,0,1,2.32-1.36ZM-85.16,9.94a11.017,11.017,0,0,1-2.16-.14l.02,1.52a12.056,12.056,0,0,1,2.12-.1l3.64-.02a13.013,13.013,0,0,1-1.24,4.76,11.7,11.7,0,0,1-5.2,5.26,4.144,4.144,0,0,1,1.02,1.18,14.443,14.443,0,0,0,5.24-5.3,15.082,15.082,0,0,0,1.6-5.9l5.6-.02a44.038,44.038,0,0,1-.5,7.1c-.38,1.98-.7,2.46-1.68,2.46a8.445,8.445,0,0,1-2.58-.52,3.288,3.288,0,0,1,.22,1.26v.24a11.383,11.383,0,0,0,2.48.34c1.8,0,2.4-.72,2.9-3.46a54.558,54.558,0,0,0,.56-7,3,3,0,0,1,.16-1.2l-.74-.64a3.2,3.2,0,0,1-1.32.14l-5,.02c.06-.56.06-.8.1-1.42a16.7,16.7,0,0,1,.16-2.58l-1.62-.04a5.361,5.361,0,0,1,.08,1.04c0,.88-.04,1.98-.12,3Zm31.02,3.38a18.257,18.257,0,0,1,2.3.1V11.94a14.409,14.409,0,0,1-2.32.12h-11.7a14.409,14.409,0,0,1-2.32-.12v1.48a18.257,18.257,0,0,1,2.3-.1h5.42a11.446,11.446,0,0,1-.8,4.14c-.82,1.82-2.44,3.1-5.06,3.94a3.5,3.5,0,0,1,.94,1.3,11.761,11.761,0,0,0,3.52-1.98,7.87,7.87,0,0,0,2.7-5.28,18.652,18.652,0,0,0,.22-2.12ZM-66.16,8.5a16.086,16.086,0,0,1,2.28-.1h7.82a16.086,16.086,0,0,1,2.28.1V6.98a11.053,11.053,0,0,1-2.3.14h-7.78a11.053,11.053,0,0,1-2.3-.14Zm30.6,12.16v1.22h1.6a10.659,10.659,0,0,1-.1-1.84V8.26c-.22,0-.74.02-1.58.04h-9.02a10.5,10.5,0,0,1-2.3-.14v1.6a15.548,15.548,0,0,1,2.3-.1h9.1V19.3h-9.52a9.463,9.463,0,0,1-2.18-.14v1.6a6.745,6.745,0,0,1,1.22-.08l.92-.02Zm.18-14.56a13.829,13.829,0,0,1,2.04,3.18l1-.6a15.943,15.943,0,0,0-2.04-3.1Zm2.26-1.06a15.4,15.4,0,0,1,2.06,3.14l1-.58a16.159,16.159,0,0,0-2.08-3.1Zm7.82,1.52a11.762,11.762,0,0,1,.08,1.68v5.34a12.126,12.126,0,0,1-.08,1.68h1.66a10.592,10.592,0,0,1-.08-1.66V8.22a10.926,10.926,0,0,1,.08-1.66Zm8.84,0a11.121,11.121,0,0,1,.08,1.76v2.26a24.868,24.868,0,0,1-.28,5.1,5.966,5.966,0,0,1-3.2,4.22,11.645,11.645,0,0,1-3.8,1.36,3.825,3.825,0,0,1,.84,1.38,15.746,15.746,0,0,0,3.64-1.44,7.6,7.6,0,0,0,3.8-4.44,22.54,22.54,0,0,0,.5-6.1V8.3a8.927,8.927,0,0,1,.1-1.74Zm8.2,8.58a21.848,21.848,0,0,1,2.48-.08H5.82a22.879,22.879,0,0,1,2.44.08V13.52a15.774,15.774,0,0,1-2.42.1H-5.78a14.148,14.148,0,0,1-2.48-.12ZM19.12,7.48a14.287,14.287,0,0,1-1.6-.08,12.7,12.7,0,0,1,.08,1.36v9.78c0,.5-.02.92-.06,1.36.46-.04.94-.06,1.54-.06h7.2c.54,0,.96.02,1.4.06-.04-.52-.06-.9-.06-1.34V16.02a15.288,15.288,0,0,1,.06-1.54,8.669,8.669,0,0,1-1.44.06H18.86V12.48h6.78c.58,0,.94.02,1.46.06a8.757,8.757,0,0,1-.06-1.36V8.74A9.436,9.436,0,0,1,27.1,7.4a9.34,9.34,0,0,1-1.44.08h-3.4c.32-.48.68-1.08,1.12-1.9l-1.34-.32A12.319,12.319,0,0,1,20.9,7.48Zm-.26,1.1H25.8V11.4H18.86Zm0,7.04h7.52v3.1H18.86ZM11.28,6.66a17.99,17.99,0,0,1,3.1,3.64l1.02-.9a22.18,22.18,0,0,0-3.18-3.58Zm-.14,8a7.835,7.835,0,0,1,1.46-.1h1.32v4.82A14.171,14.171,0,0,1,10.7,21.8l.66,1.3c.3-.26.5-.44.74-.62a20.962,20.962,0,0,0,2.4-2.14,4.718,4.718,0,0,0,2.02,1.88c1.14.56,2.5.74,5.78.74,2.28,0,4-.04,6.64-.12a4.439,4.439,0,0,1,.46-1.44,64.857,64.857,0,0,1-7.94.36c-2.78,0-4.02-.2-4.96-.82a3.007,3.007,0,0,1-1.32-1.62v-3.9a19.2,19.2,0,0,1,.08-2.1,11.312,11.312,0,0,1-1.5.1H12.68a8.1,8.1,0,0,1-1.54-.1ZM35.76,9.14a22.474,22.474,0,0,1,.18-3.78H34.42a9.154,9.154,0,0,1,.14,2.18c0,.62,0,1.04-.04,1.6H33.36A11.851,11.851,0,0,1,31.16,9v1.48a11.918,11.918,0,0,1,2.1-.14h1.2a21.948,21.948,0,0,1-1.76,8.32,12.3,12.3,0,0,1-2.24,3.32,4.544,4.544,0,0,1,1.02,1.12,15.42,15.42,0,0,0,2.02-3.06,16.506,16.506,0,0,0,1.46-4.02,31.312,31.312,0,0,0,.76-5.68h2.92c-.02,2.14-.06,3.26-.16,5.16a27.918,27.918,0,0,1-.76,5.38c-.14.34-.4.48-.94.48a12.091,12.091,0,0,1-2.34-.32,5.029,5.029,0,0,1,.2,1.32,17.909,17.909,0,0,0,2.44.22c1.38,0,1.8-.46,2.16-2.46a61.284,61.284,0,0,0,.66-8.52A15.773,15.773,0,0,1,40,9.06a19.5,19.5,0,0,1-2.08.08Zm7.22,12.04h4.14v1.44H48.5a14.307,14.307,0,0,1-.12-1.96V9.9a15.133,15.133,0,0,1,.1-2.1,11.5,11.5,0,0,1-1.74.1H43.38a11.452,11.452,0,0,1-1.76-.1,15.487,15.487,0,0,1,.1,2.1V20.5a18.46,18.46,0,0,1-.12,2.28h1.38Zm0-12.12h4.14V20.02H42.98ZM62.36,16.6a11.49,11.49,0,0,0,1.22,3.38A13.908,13.908,0,0,1,58.4,22.4a3.02,3.02,0,0,1,.8,1.02,15.67,15.67,0,0,0,4.96-2.52c1.14,1.64,2.22,2.48,3.2,2.48.94,0,1.34-.74,1.8-3.26a4.043,4.043,0,0,1-1.02-.7,9.111,9.111,0,0,1-.36,2.02c-.18.52-.3.68-.54.68-.52,0-1.34-.72-2.2-1.94a23.737,23.737,0,0,0,2.32-2.44l-1.02-.7a7.182,7.182,0,0,1-1.86,2.24,9.445,9.445,0,0,1-1-2.68h3.34a12.611,12.611,0,0,1,2.12.12v-1.3a10.525,10.525,0,0,1-2.12.12H63.28a51.3,51.3,0,0,1-.56-8.06,10.763,10.763,0,0,1,.1-1.96h-1.4a7.851,7.851,0,0,1,.1,1.26,51.871,51.871,0,0,0,.3,6.26,22.879,22.879,0,0,0,.34,2.5H57.6a11.074,11.074,0,0,1-1.8-.1V16.7a11.847,11.847,0,0,1,1.8-.1h.22c-.2,2.86-1.04,4.54-2.88,5.82a3.038,3.038,0,0,1,.96.86,8.243,8.243,0,0,0,2.74-4.52,8.922,8.922,0,0,0,2.18,1.9,4.215,4.215,0,0,1,.66-.96,7.9,7.9,0,0,1-2.6-2.14c.04-.4.04-.44.08-.96Zm1.14-2.84a3.093,3.093,0,0,1,.34-.06c2.16-.28,3.48-.46,3.94-.56.14.36.22.58.4,1.18l.92-.36a17.119,17.119,0,0,0-1.46-3.08l-.82.32a6.744,6.744,0,0,1,.6,1.12,21.834,21.834,0,0,1-2.44.28c.98-1.1,1.54-1.82,3.36-4.26l-.92-.72a20.388,20.388,0,0,1-1.54,2.4c-.38-.48-.56-.7-.96-1.14a22.752,22.752,0,0,0,1.82-2.76L65.7,5.56A11.116,11.116,0,0,1,64.24,8.2c-.22-.22-.3-.3-.62-.6l-.66.84a11.5,11.5,0,0,1,2.3,2.42c-.64.82-.8,1.02-1.48,1.8a.75.75,0,0,1-.2.02,1.847,1.847,0,0,1-.3-.02ZM58.56,5.48a10.324,10.324,0,0,1-1.52,2.88c-.22-.2-.4-.38-.56-.54l-.72.8a13.158,13.158,0,0,1,2.36,2.5c-.52.76-.88,1.22-1.6,2.1a2.312,2.312,0,0,1-.34.02,1.249,1.249,0,0,1-.24-.02l.24,1.14a5.482,5.482,0,0,1,.56-.1c1.92-.3,2.98-.5,3.82-.68.1.36.14.48.24.88l.9-.38a12.535,12.535,0,0,0-1.3-2.86l-.8.3a7.463,7.463,0,0,1,.66,1.24c-.64.12-1.52.24-2.5.36a36.106,36.106,0,0,0,3.1-4.4l-.96-.68a16.411,16.411,0,0,1-1.2,2.2,9.814,9.814,0,0,0-.96-1.16A18.27,18.27,0,0,0,59.62,6ZM53.1,9.42h-.86a7.9,7.9,0,0,1-1.38-.08V10.6a8.663,8.663,0,0,1,1.38-.08h.7a17.016,17.016,0,0,1-2.6,6.6,4.216,4.216,0,0,1,.72,1.16,17.261,17.261,0,0,0,2.26-6.26c-.12,1.52-.2,3.08-.2,3.86v5.46A16.8,16.8,0,0,1,53,23.66h1.4a16.212,16.212,0,0,1-.1-2.32V14.78c0-.7-.04-1.56-.08-2.94a6.916,6.916,0,0,0,1.08,2.14,6.8,6.8,0,0,1,.56-1.04,7.792,7.792,0,0,1-1.48-2.42h.48a8.62,8.62,0,0,1,1.28.08V9.34a7.308,7.308,0,0,1-1.3.08H54.3V7.44a16.856,16.856,0,0,1,.08-2.06H53a12.254,12.254,0,0,1,.1,2.08ZM64.74,14.2a7.252,7.252,0,0,1,1.5,1.32l.72-.68a6.9,6.9,0,0,0-1.52-1.22Zm6.44-3.34a7.975,7.975,0,0,1,1.18-.14c1.96-.12,4.84-.44,6.32-.68.26.46.32.58.62,1.2l1.06-.62A31.167,31.167,0,0,0,77.78,6.6l-.94.48A17.5,17.5,0,0,1,78.1,9.04c-1.42.18-2.2.26-4.2.4a33.63,33.63,0,0,0,1.66-3.02,4.805,4.805,0,0,1,.4-.78l-1.4-.4a11.386,11.386,0,0,1-1.1,2.7,15.519,15.519,0,0,1-.88,1.56c-.58.02-.58.02-.7.02-.16,0-.6-.02-.88-.02Zm11.1-3.54a7.872,7.872,0,0,1,.12-1.74H80.94a10.779,10.779,0,0,1,.12,1.74v4.72c0,1.16.5,1.36,3.36,1.36,2.58,0,3.36-.1,3.7-.52.34-.4.52-1.16.66-2.84a4.365,4.365,0,0,1-1.18-.5c-.08,1.78-.18,2.3-.5,2.5-.28.18-.88.22-2.7.22-1.9,0-2.12-.06-2.12-.62V9.84a23.712,23.712,0,0,0,5.06-2.06c.8-.44.8-.44,1.12-.6l-.88-1.06a16.152,16.152,0,0,1-5.3,2.54Zm0,9.06a8.55,8.55,0,0,1,.1-1.74H80.96a9.139,9.139,0,0,1,.1,1.8v5c0,.66.16.96.64,1.16a7.609,7.609,0,0,0,3.06.3c2.2,0,2.88-.1,3.32-.52.48-.46.7-1.24.86-3.14a5.436,5.436,0,0,1-1.2-.52,6.012,6.012,0,0,1-.42,2.58c-.26.32-.9.44-2.48.44a10.8,10.8,0,0,1-1.92-.1c-.5-.08-.64-.22-.64-.62V18.64a22.1,22.1,0,0,0,3.2-1.08c.7-.3,2.24-1.08,3.12-1.58l-.94-1.04a14.711,14.711,0,0,1-5.38,2.5Zm-9.94,5.08a13.27,13.27,0,0,1-.1,2h1.42a13.538,13.538,0,0,1-.1-2.04v-2.5h4.42V21.5c0,.36-.12.44-.66.44a11.711,11.711,0,0,1-1.54-.1,5.6,5.6,0,0,1,.3,1.24c.26.02.48.02.62.02,2.14,0,2.46-.2,2.46-1.48v-8.5c0-.36.02-.96.06-1.34a14.863,14.863,0,0,1-1.84.08h-3.5a12.087,12.087,0,0,1-1.62-.08,16.382,16.382,0,0,1,.08,1.84Zm1.22-8.5h4.42v1.88H73.56Zm0,2.94h4.42v1.96H73.56Z" transform="translate(1092.097 1238.648)" fill="#070304"/>
    <g id="グループ_3525" data-name="グループ 3525" transform="translate(1042.519 1262.375)">
      <path id="パス_51327" data-name="パス 51327" d="M20.923,10.614a21.706,21.706,0,0,1,37.315,0L76,40.31c8.743,14.613-1.712,33.238-18.658,33.238H21.814c-16.946,0-27.4-18.624-18.658-33.238Z" transform="matrix(0.961, 0.276, -0.276, 0.961, 23.062, 0)" fill="#ffc2b9"/>
      <path id="パス_51326" data-name="パス 51326" d="M21.138,10.652a22,22,0,0,1,37.7,0l17.95,29.8a22,22,0,0,1-18.85,33.357h-35.9A22,22,0,0,1,3.189,40.455Z" transform="translate(76.878 101.633) rotate(-164)" fill="#ff8977" opacity="0.6"/>
    </g>
    <g id="グループ_20119" data-name="グループ 20119" transform="translate(1078.617 1297.141)">
      <path id="パス_51369" data-name="パス 51369" d="M355.48,109.715A4.285,4.285,0,1,0,359.765,114a4.283,4.283,0,0,0-4.285-4.285m0,7.066A2.781,2.781,0,1,1,358.259,114a2.779,2.779,0,0,1-2.779,2.781" transform="translate(-351.193 -97.953)"/>
      <path id="パス_51370" data-name="パス 51370" d="M373.417,110.473h-15.3a.752.752,0,0,0,0,1.5h15.3a.752.752,0,0,0,0-1.5" transform="translate(-347.56 -97.507)"/>
      <path id="パス_51371" data-name="パス 51371" d="M366.359,113.407h-8.238a.752.752,0,0,0,0,1.5h8.238a.752.752,0,0,0,0-1.5" transform="translate(-347.56 -95.781)"/>
      <path id="パス_51372" data-name="パス 51372" d="M355.48,102.309a4.284,4.284,0,1,0,4.285,4.285,4.283,4.283,0,0,0-4.285-4.285m0,7.058a2.781,2.781,0,1,1,2.779-2.781,2.779,2.779,0,0,1-2.779,2.781" transform="translate(-351.193 -102.309)"/>
      <path id="パス_51373" data-name="パス 51373" d="M373.417,103.042h-15.3a.752.752,0,0,0,0,1.5h15.3a.752.752,0,0,0,0-1.5" transform="translate(-347.56 -101.878)"/>
      <path id="パス_51374" data-name="パス 51374" d="M366.359,106.024h-8.238a.752.752,0,0,0,0,1.5h8.238a.752.752,0,0,0,0-1.5" transform="translate(-347.56 -100.124)"/>
      <path id="パス_51375" data-name="パス 51375" d="M355.48,117.127a4.284,4.284,0,1,0,4.285,4.285,4.283,4.283,0,0,0-4.285-4.285m0,7.058a2.781,2.781,0,1,1,2.779-2.781,2.779,2.779,0,0,1-2.779,2.781" transform="translate(-351.193 -93.593)"/>
      <path id="パス_51376" data-name="パス 51376" d="M373.417,117.856h-15.3a.752.752,0,0,0,0,1.5h15.3a.752.752,0,0,0,0-1.5" transform="translate(-347.56 -93.164)"/>
      <path id="パス_51377" data-name="パス 51377" d="M366.359,120.837h-8.238a.752.752,0,0,0,0,1.5h8.238a.752.752,0,0,0,0-1.5" transform="translate(-347.56 -91.41)"/>
    </g>
  </g>
</svg>
