<svg xmlns="http://www.w3.org/2000/svg" xmlns:xlink="http://www.w3.org/1999/xlink" width="273.193" height="276.591" viewBox="0 0 273.193 276.591">
  <defs>
    <filter id="パス_106486" x="0" y="0" width="273.193" height="276.591" filterUnits="userSpaceOnUse">
      <feOffset dy="3" input="SourceAlpha"/>
      <feGaussianBlur stdDeviation="3" result="blur"/>
      <feFlood flood-opacity="0.161"/>
      <feComposite operator="in" in2="blur"/>
      <feComposite in="SourceGraphic"/>
    </filter>
    <clipPath id="clip-path">
      <rect id="長方形_1366" data-name="長方形 1366" width="19.441" height="19.441"/>
    </clipPath>
    <clipPath id="clip">
      <use xlink:href="#fill"/>
    </clipPath>
  </defs>
  <g id="グループ_62109" data-name="グループ 62109" transform="translate(-956.403 -826.152)">
    <g transform="matrix(1, 0, 0, 1, 956.4, 826.15)" filter="url(#パス_106486)">
      <path id="パス_106486-2" data-name="パス 106486" d="M4.252,0H250.941a4.252,4.252,0,0,1,4.252,4.252V254.339a4.252,4.252,0,0,1-4.252,4.252H4.252A4.252,4.252,0,0,1,0,254.339V4.252A4.252,4.252,0,0,1,4.252,0Z" transform="translate(9 6)" fill="#fff"/>
    </g>
    <path id="パス_106495" data-name="パス 106495" d="M-97.54-12.38V-.56a12.532,12.532,0,0,1-.12,2.1h1.54a10.919,10.919,0,0,1-.14-2.1V-3.62h4.12a11.405,11.405,0,0,1,1.76.12V-4.88a11.405,11.405,0,0,1-1.76.12h-4.12V-8h4.06a12.374,12.374,0,0,1,1.76.12V-9.26a11.224,11.224,0,0,1-1.76.12h-4.06v-3.24h4.7a11.045,11.045,0,0,1,1.82.1v-1.36a9.653,9.653,0,0,1-1.82.12H-97.9c.3-.7.4-.96.68-1.78a9.949,9.949,0,0,1,.4-1.02l-1.4-.46a11,11,0,0,1-.84,2.84,17.336,17.336,0,0,1-3.54,5.48,2.885,2.885,0,0,1,1,.96,22.531,22.531,0,0,0,3.18-4.88Zm-5.34-4.4a10.613,10.613,0,0,1-.84,2.68,17.358,17.358,0,0,1-4.22,6,3.934,3.934,0,0,1,.84,1.06,14.89,14.89,0,0,0,2.48-3.16c-.06,1.18-.08,1.72-.08,2.58V-.98a18.046,18.046,0,0,1-.14,2.44h1.56a16.86,16.86,0,0,1-.14-2.4V-11.88a26.08,26.08,0,0,0,1.48-3.32c.16-.4.22-.58.46-1.12Zm18.84,5.82a15.2,15.2,0,0,1-.08,1.74A19.377,19.377,0,0,1-82-9.3h6.82a18.969,18.969,0,0,1,2.1.08,14.058,14.058,0,0,1-.08-1.76v-3.38a13.145,13.145,0,0,1,.08-1.66,15.253,15.253,0,0,1-2.26.1h-6.54a16.5,16.5,0,0,1-2.24-.1,13.906,13.906,0,0,1,.08,1.68Zm1.26-3.82h8.34v4.34h-8.34ZM-86.92-.54a13.487,13.487,0,0,1-.1,2.08h1.34V.28h4.64v.88h1.3A15.405,15.405,0,0,1-79.82-.8V-5.42a17.472,17.472,0,0,1,.06-1.88c-.52.04-.98.06-1.62.06h-3.78A16.382,16.382,0,0,1-87-7.32a18.578,18.578,0,0,1,.08,1.94Zm1.24-5.58h4.64V-.84h-4.64Zm7.84,5.7a16.446,16.446,0,0,1-.08,1.96h1.3V.28h5.12V1.54h1.36a12.859,12.859,0,0,1-.1-2.08V-5.36a17.325,17.325,0,0,1,.08-1.96,13.365,13.365,0,0,1-1.72.08h-4.4c-.68,0-1.12-.02-1.62-.06a12.49,12.49,0,0,1,.06,1.72Zm1.22-5.7h5.14V-.84h-5.14Zm18.88-2.6h4.26a10.348,10.348,0,0,1,1.8.1v-1.2a9.429,9.429,0,0,1-1.8.12h-4.26v-1.5h4.26a10.633,10.633,0,0,1,1.8.1v-1.2a9.429,9.429,0,0,1-1.8.12h-4.26v-1.5h5.26a10.28,10.28,0,0,1,1.74.1v-1.24a11.315,11.315,0,0,1-1.84.1h-5.06a13.132,13.132,0,0,0,1.22-1.92l-1.3-.3a7.411,7.411,0,0,1-1.2,2.22h-4.32a21.592,21.592,0,0,0,1.32-1.92l-1.38-.34a6.44,6.44,0,0,1-.72,1.44,13.543,13.543,0,0,1-3.88,3.96,3.743,3.743,0,0,1,.8.98,13.064,13.064,0,0,0,2.22-2.06c-.06.62-.08,1.24-.08,1.96v3.36A11.63,11.63,0,0,1-65.02-6a12.522,12.522,0,0,1,1.38-.04h4.4v1.46h-5.98a13.638,13.638,0,0,1-2.2-.12v1.32a17.537,17.537,0,0,1,2.2-.12h4.94a11.1,11.1,0,0,1-2.56,1.78A15.618,15.618,0,0,1-67.7-.1a4.2,4.2,0,0,1,.8,1.2A20.292,20.292,0,0,0-63.08-.28a12.415,12.415,0,0,0,3.9-2.82,4.717,4.717,0,0,0-.02.58,1.854,1.854,0,0,0-.02.4c-.02.22-.02.4-.02.54V0a6.015,6.015,0,0,1-.12,1.48h1.48A5.284,5.284,0,0,1-58-.02V-1.58a14.3,14.3,0,0,0-.06-1.52,16.824,16.824,0,0,0,7.8,4.3A5.051,5.051,0,0,1-49.5-.04,16.611,16.611,0,0,1-57.02-3.5h5.04a18.223,18.223,0,0,1,2.24.12V-4.7a12.105,12.105,0,0,1-2.24.12H-58V-6.04h5.5a11.194,11.194,0,0,1,1.82.1v-1.2a11.166,11.166,0,0,1-1.84.1h-5.22Zm-1.18,0v1.68h-4.82V-8.72Zm0-.98h-4.82v-1.5h4.82Zm0-2.48h-4.82v-1.5h4.82Zm17.26-1.28a27.985,27.985,0,0,1-4.28-.22l-.02,1.38a3.547,3.547,0,0,1,.44-.02h.32c.74.02,2.62.06,2.94.06a2.215,2.215,0,0,0,.38-.04l-.18.3a19.9,19.9,0,0,1-4.48,5.72l1.12,1.12a6.618,6.618,0,0,1,1.54-1.66,7.513,7.513,0,0,1,4.46-2.12c.94,0,1.42.48,1.58,1.58a15.526,15.526,0,0,0-2.98,1.6c-1.36,1.02-2.04,2.06-2.04,3.16,0,2.06,1.74,3.08,5.32,3.08a31.027,31.027,0,0,0,4.86-.4,7.871,7.871,0,0,1,.8-.1l-.18-1.54a16.758,16.758,0,0,1-5.34.78c-2.82,0-4.06-.58-4.06-1.9,0-1.2,1.04-2.14,3.76-3.42a5.256,5.256,0,0,1,.02.6,28.762,28.762,0,0,1-.12,2.88l1.36-.02a4.347,4.347,0,0,1-.04-.72c0-.18,0-.46.02-.9.02-.4.02-.84.02-1.1,0-.5,0-.7-.04-1.22a33.206,33.206,0,0,1,5.34-1.76l-.64-1.4a4.4,4.4,0,0,1-1.36.58c-.88.32-2.02.74-3.48,1.32a2.427,2.427,0,0,0-2.64-2.22,5.322,5.322,0,0,0-3.02.98c-.2.14-.2.14-.92.7a.154.154,0,0,1-.04-.06v-.02a.02.02,0,0,0,.02-.02c.02-.02.12-.1.26-.2.08-.06.48-.52.68-.76a14.748,14.748,0,0,0,1.8-2.84,64.577,64.577,0,0,0,6.6-.52,6.234,6.234,0,0,1,.8-.1l-.12-1.36a28.149,28.149,0,0,1-6.3.76,3.4,3.4,0,0,0-.42.02c.1-.18.36-.72.62-1.36a4.247,4.247,0,0,1,.52-1.08l-1.6-.28a8.488,8.488,0,0,1-.96,2.74Zm30.5-1.3c-.36.14-.36.14-1.7.14H-23.6a14.659,14.659,0,0,1-2.38-.14v1.54a19.311,19.311,0,0,1,2.36-.1h11.36a10.611,10.611,0,0,1-2.24,2.98,8.659,8.659,0,0,1-3.16,1.9,3.929,3.929,0,0,1,.98,1.14A11.97,11.97,0,0,0-10.84-13a3.589,3.589,0,0,1,.48-.8Zm-8.72,3.48a5.281,5.281,0,0,1,.08,1.08c0,3.9-.78,5.94-2.9,7.64A9.4,9.4,0,0,1-26.36-.72,3.911,3.911,0,0,1-25.44.62a10.9,10.9,0,0,0,5.12-3.46c1.36-1.72,1.92-3.7,1.98-7.04a7.254,7.254,0,0,1,.08-1.4ZM-3.02-13.6a8.85,8.85,0,0,1,.1-1.68H-4.56a11.1,11.1,0,0,1,.08,1.66V-4.4c0,.84.02,1.24.04,1.56A2.656,2.656,0,0,0-3.62-.92c.7.58,2.02.82,4.38.82,1.38,0,4.02-.14,5.3-.28l.96-.1L7.28-.5c.3-.04.36-.04.66-.06l-.12-1.6a9.635,9.635,0,0,1-1.98.4,39.565,39.565,0,0,1-4.58.32A20.857,20.857,0,0,1-1.1-1.56a2.4,2.4,0,0,1-1.52-.52c-.34-.34-.42-.8-.42-2.2V-4.5l.02-.12V-7.54a30.66,30.66,0,0,0,9.46-3.34,8.823,8.823,0,0,1,.88-.44L6.3-12.68C4.9-11.34.14-9.4-3.02-8.86ZM8.84-16.98a2.275,2.275,0,0,0-2.28,2.26,2.275,2.275,0,0,0,2.28,2.26,2.271,2.271,0,0,0,2.26-2.26A2.245,2.245,0,0,0,8.84-16.98Zm0,.84a1.425,1.425,0,0,1,1.42,1.42A1.425,1.425,0,0,1,8.84-13.3,1.43,1.43,0,0,1,7.4-14.72,1.43,1.43,0,0,1,8.84-16.14Zm2.3,9.28a21.848,21.848,0,0,1,2.48-.08h11.6a22.879,22.879,0,0,1,2.44.08V-8.48a15.774,15.774,0,0,1-2.42.1H13.62a14.148,14.148,0,0,1-2.48-.12Zm22.84-8.38a8.9,8.9,0,0,1,.08,1.42c0,4.22-.28,6.84-.9,8.58a9.894,9.894,0,0,1-3.38,4.6A3.7,3.7,0,0,1,30.98.44,12.226,12.226,0,0,0,34.44-4.5c.76-2.02.92-3.5,1.08-8.92a9.963,9.963,0,0,1,.12-1.72Zm4.98-.14a8.025,8.025,0,0,1,.08,1.78L38.92-1.9a3.37,3.37,0,0,1-.14,1.36l.8.92a3.332,3.332,0,0,1,.46-.22c.28-.1.28-.1.64-.24a13.183,13.183,0,0,0,2.86-1.46,11.364,11.364,0,0,0,4.02-5.14,5.592,5.592,0,0,1-1.12-1.16,9.89,9.89,0,0,1-2.36,4,9.243,9.243,0,0,1-3.72,2.32l.12-12.08a7.754,7.754,0,0,1,.12-1.76ZM57.8-9.66H52.92v-3.76A10.267,10.267,0,0,1,53-14.9H51.5a14.177,14.177,0,0,1,.1,1.54V-9.4c0,.34-.02.64-.04,1.02.42-.02.88-.04,1.24-.04h5V-1.1H52.1V-4.8a10.052,10.052,0,0,1,.1-1.7H50.68a11.105,11.105,0,0,1,.1,1.78v4.4a10.513,10.513,0,0,1-.12,1.68H52.1V.16h13v1.2h1.44a10,10,0,0,1-.12-1.68V-4.84a11.106,11.106,0,0,1,.1-1.78H65a10.605,10.605,0,0,1,.1,1.72v3.8H59.14V-8.42h5.38c.38,0,.84.02,1.24.04-.02-.34-.04-.62-.04-1.02v-3.98a9.864,9.864,0,0,1,.1-1.52h-1.5a10.886,10.886,0,0,1,.08,1.46v3.78H59.14v-5.06a9.075,9.075,0,0,1,.14-1.82H57.66a8.088,8.088,0,0,1,.14,1.82ZM79.02-7.98v-5.24h5.14a15.725,15.725,0,0,1,2.18.12v-1.4a11.267,11.267,0,0,1-2.22.14h-5.1v-.66a7.5,7.5,0,0,1,.12-1.66H77.66a10.252,10.252,0,0,1,.12,1.66v.66H73.04a14.258,14.258,0,0,1-2.18-.14v1.4A18.157,18.157,0,0,1,73-13.22h4.78v5.24h-5.8a13.744,13.744,0,0,1-2.18-.14V-6.7A20.272,20.272,0,0,1,72-6.82h5.22a17.891,17.891,0,0,1-2.04,2.34,20.807,20.807,0,0,1-5.56,3.9,5.022,5.022,0,0,1,.9,1.16A23.062,23.062,0,0,0,74.1-1.86a16.208,16.208,0,0,0,3.76-4.3c-.06,1.2-.08,1.54-.08,2.14V-.44a10.86,10.86,0,0,1-.14,1.94h1.52a10.713,10.713,0,0,1-.14-1.94V-4.02c0-.52-.02-1.06-.08-2.16a18.117,18.117,0,0,0,2.82,3.36A21.8,21.8,0,0,0,86.8.58a5.681,5.681,0,0,1,.86-1.24,18.526,18.526,0,0,1-5.4-3.38,20.383,20.383,0,0,1-2.64-2.78h5.56a16.907,16.907,0,0,1,2.24.12V-8.12a10.766,10.766,0,0,1-2.2.14H82.26a29.69,29.69,0,0,0,2.22-4.08l-1.24-.5a19.6,19.6,0,0,1-2.38,4.58ZM72.5-12.06A19.009,19.009,0,0,1,74.44-8.3l1.12-.58a24.4,24.4,0,0,0-1.98-3.7ZM93.42-13.4a9.853,9.853,0,0,1,1.08-.1c3.04-.1,5.44-.24,6.08-.36a.774.774,0,0,1,.18-.02l.04.04-.08.08-.08.08-.28.28c-1.38,1.36-4.54,4.14-6.68,5.84a22.281,22.281,0,0,1-2.8,2.04l.9,1.28a12.835,12.835,0,0,1,8.42-3.42c2.7,0,4.3,1.14,4.3,3.06,0,1.7-1.1,2.92-3.2,3.5a5.725,5.725,0,0,0-.92-1.92,4.028,4.028,0,0,0-3.3-1.64c-1.66,0-2.9,1-2.9,2.34C94.18-.48,95.8.56,98.62.56c4.44,0,7.34-2.06,7.34-5.18,0-2.56-2.14-4.2-5.48-4.2a10.134,10.134,0,0,0-4.9,1.24l-.04-.06a51.319,51.319,0,0,0,6.58-5.68,3.691,3.691,0,0,1,1.02-.84l-.84-1.1a2.045,2.045,0,0,1-.96.22c-1.8.14-4.46.26-6.12.26a9.236,9.236,0,0,1-1.88-.12ZM99.98-.74a7.2,7.2,0,0,1-1.46.14,5.11,5.11,0,0,1-2.24-.46,1.365,1.365,0,0,1-.8-1.22c0-.76.62-1.24,1.62-1.24C98.54-3.52,99.54-2.56,99.98-.74ZM-79.76,9.54h-4.88a12.858,12.858,0,0,1-2.32-.12v1.52a15.548,15.548,0,0,1,2.3-.1h4.9v9.98a11.129,11.129,0,0,1-.12,2.1h1.64a12.076,12.076,0,0,1-.1-2.12V10.84h5.08a15.548,15.548,0,0,1,2.3.1V9.42a13.118,13.118,0,0,1-2.34.12h-5.04V8.24a11.525,11.525,0,0,1,.1-2.08h-1.64a8.932,8.932,0,0,1,.12,2.04Zm-4.32,3.14a10.212,10.212,0,0,1-.7,2.72,12.761,12.761,0,0,1-2.94,4.92,4.434,4.434,0,0,1,1.32.86,17.861,17.861,0,0,0,3.5-6.9l.1-.44.12-.4a2.393,2.393,0,0,1,.12-.34Zm8.54.4c.14.32.32.76.5,1.3a23.987,23.987,0,0,0,3.48,6.88,4.322,4.322,0,0,1,1.26-.94,17.771,17.771,0,0,1-3.1-5.36,14.28,14.28,0,0,1-.74-2.26Zm3.6-8.56a2.275,2.275,0,0,0-2.28,2.26,2.279,2.279,0,0,0,2.28,2.28,2.275,2.275,0,0,0,2.26-2.28A2.245,2.245,0,0,0-71.94,4.52Zm0,.84a1.425,1.425,0,0,1,1.42,1.42,1.43,1.43,0,0,1-1.42,1.44,1.434,1.434,0,0,1-1.44-1.44A1.43,1.43,0,0,1-71.94,5.36Zm4.18,9.78a21.848,21.848,0,0,1,2.48-.08h11.6a22.879,22.879,0,0,1,2.44.08V13.52a15.774,15.774,0,0,1-2.42.1H-65.28a14.148,14.148,0,0,1-2.48-.12Zm25.9,7.48a13.6,13.6,0,0,1-.1-2.12V14.48a6.985,6.985,0,0,0-.08-1.18l.04-.02a2.207,2.207,0,0,0,.62.34,40.778,40.778,0,0,1,7.46,3.96l.86-1.48a49.6,49.6,0,0,0-8.9-4.22V8.14a12.554,12.554,0,0,1,.1-2.08h-1.72a11.858,11.858,0,0,1,.12,2.04V20.52a12.863,12.863,0,0,1-.12,2.1ZM-14.8,7.8a2.688,2.688,0,0,1-1.28.16h-9.84a12.019,12.019,0,0,1-2.26-.14V9.44a13.907,13.907,0,0,1,2.24-.12h10.18c-1.14,4.48-3.02,7.34-6.3,9.52a14.86,14.86,0,0,1-4.52,2.12,3.785,3.785,0,0,1,.98,1.4,18.367,18.367,0,0,0,6.28-3.76A17.041,17.041,0,0,0-14.3,9.92c.28-1.02.28-1.02.42-1.24ZM-.44,13.66a14.8,14.8,0,0,1-3.1,3.62,17.992,17.992,0,0,1-4.58,2.96,3.559,3.559,0,0,1,.9,1.08C-3.64,19.4-.8,16.84.28,14.58a1.283,1.283,0,0,0,.1-.22C.34,14.94.3,15.44.3,15.48l.04,5.96v.08A10.8,10.8,0,0,1,.28,23H1.8a7.124,7.124,0,0,1-.1-1.56l-.1-7.78H3.52a10.925,10.925,0,0,1,1.8.1V12.38a10.208,10.208,0,0,1-1.8.1H1.58L1.56,11v-.32a6.03,6.03,0,0,1,.08-1.1H.2a7.407,7.407,0,0,1,.1,1.5l.02,1.4H-5.56a8.064,8.064,0,0,1-1.78-.12v1.4a10.49,10.49,0,0,1,1.8-.1ZM13.6,6.56a11.762,11.762,0,0,1,.08,1.68v5.34a12.126,12.126,0,0,1-.08,1.68h1.66a10.592,10.592,0,0,1-.08-1.66V8.22a10.927,10.927,0,0,1,.08-1.66Zm8.84,0a11.121,11.121,0,0,1,.08,1.76v2.26a24.868,24.868,0,0,1-.28,5.1,5.966,5.966,0,0,1-3.2,4.22,11.645,11.645,0,0,1-3.8,1.36,3.825,3.825,0,0,1,.84,1.38,15.746,15.746,0,0,0,3.64-1.44,7.6,7.6,0,0,0,3.8-4.44,22.54,22.54,0,0,0,.5-6.1V8.3a8.927,8.927,0,0,1,.1-1.74Zm18.34,6.7v.12l.08,7.36v.44a11.821,11.821,0,0,1-.08,1.58H42.4a18.16,18.16,0,0,1-.1-2.04l-.14-9.74h2.98a16.364,16.364,0,0,1,1.66.06V9.58a10.107,10.107,0,0,1-2,.12H42.16l-.04-2V7.22a7.681,7.681,0,0,1,.08-1.1H40.6a9.531,9.531,0,0,1,.1,1.62l.02,1.96-7.28.04a11.3,11.3,0,0,1-2.26-.14v1.5a15.715,15.715,0,0,1,2.22-.08l6.56-.04a19.279,19.279,0,0,1-2.88,3.64A22.7,22.7,0,0,1,30.3,19.4a3.224,3.224,0,0,1,1,1.2,30.767,30.767,0,0,0,3.3-2.06,23.341,23.341,0,0,0,4.74-4.42,12.456,12.456,0,0,0,1.5-2.24c-.04.86-.06,1.16-.06,1.3ZM61.26,16.6a11.49,11.49,0,0,0,1.22,3.38A13.908,13.908,0,0,1,57.3,22.4a3.02,3.02,0,0,1,.8,1.02,15.67,15.67,0,0,0,4.96-2.52c1.14,1.64,2.22,2.48,3.2,2.48.94,0,1.34-.74,1.8-3.26a4.043,4.043,0,0,1-1.02-.7,9.111,9.111,0,0,1-.36,2.02c-.18.52-.3.68-.54.68-.52,0-1.34-.72-2.2-1.94a23.737,23.737,0,0,0,2.32-2.44l-1.02-.7a7.182,7.182,0,0,1-1.86,2.24,9.445,9.445,0,0,1-1-2.68h3.34a12.611,12.611,0,0,1,2.12.12v-1.3a10.526,10.526,0,0,1-2.12.12H62.18a51.3,51.3,0,0,1-.56-8.06,10.763,10.763,0,0,1,.1-1.96h-1.4a7.851,7.851,0,0,1,.1,1.26,51.871,51.871,0,0,0,.3,6.26,22.879,22.879,0,0,0,.34,2.5H56.5a11.074,11.074,0,0,1-1.8-.1V16.7a11.847,11.847,0,0,1,1.8-.1h.22c-.2,2.86-1.04,4.54-2.88,5.82a3.038,3.038,0,0,1,.96.86,8.243,8.243,0,0,0,2.74-4.52,8.922,8.922,0,0,0,2.18,1.9,4.215,4.215,0,0,1,.66-.96,7.9,7.9,0,0,1-2.6-2.14c.04-.4.04-.44.08-.96Zm1.14-2.84a3.093,3.093,0,0,1,.34-.06c2.16-.28,3.48-.46,3.94-.56.14.36.22.58.4,1.18l.92-.36a17.118,17.118,0,0,0-1.46-3.08l-.82.32a6.743,6.743,0,0,1,.6,1.12,21.834,21.834,0,0,1-2.44.28c.98-1.1,1.54-1.82,3.36-4.26l-.92-.72a20.387,20.387,0,0,1-1.54,2.4c-.38-.48-.56-.7-.96-1.14a22.752,22.752,0,0,0,1.82-2.76L64.6,5.56A11.117,11.117,0,0,1,63.14,8.2c-.22-.22-.3-.3-.62-.6l-.66.84a11.5,11.5,0,0,1,2.3,2.42c-.64.82-.8,1.02-1.48,1.8a.75.75,0,0,1-.2.02,1.847,1.847,0,0,1-.3-.02ZM57.46,5.48a10.324,10.324,0,0,1-1.52,2.88c-.22-.2-.4-.38-.56-.54l-.72.8a13.158,13.158,0,0,1,2.36,2.5c-.52.76-.88,1.22-1.6,2.1a2.312,2.312,0,0,1-.34.02,1.249,1.249,0,0,1-.24-.02l.24,1.14a5.482,5.482,0,0,1,.56-.1c1.92-.3,2.98-.5,3.82-.68.1.36.14.48.24.88l.9-.38a12.535,12.535,0,0,0-1.3-2.86l-.8.3a7.463,7.463,0,0,1,.66,1.24c-.64.12-1.52.24-2.5.36a36.106,36.106,0,0,0,3.1-4.4l-.96-.68a16.411,16.411,0,0,1-1.2,2.2,9.814,9.814,0,0,0-.96-1.16A18.27,18.27,0,0,0,58.52,6ZM52,9.42h-.86a7.9,7.9,0,0,1-1.38-.08V10.6a8.663,8.663,0,0,1,1.38-.08h.7a17.016,17.016,0,0,1-2.6,6.6,4.216,4.216,0,0,1,.72,1.16,17.261,17.261,0,0,0,2.26-6.26c-.12,1.52-.2,3.08-.2,3.86v5.46a16.8,16.8,0,0,1-.12,2.32h1.4a16.212,16.212,0,0,1-.1-2.32V14.78c0-.7-.04-1.56-.08-2.94a6.916,6.916,0,0,0,1.08,2.14,6.8,6.8,0,0,1,.56-1.04,7.792,7.792,0,0,1-1.48-2.42h.48a8.62,8.62,0,0,1,1.28.08V9.34a7.308,7.308,0,0,1-1.3.08H53.2V7.44a16.856,16.856,0,0,1,.08-2.06H51.9A12.254,12.254,0,0,1,52,7.46ZM63.64,14.2a7.252,7.252,0,0,1,1.5,1.32l.72-.68a6.9,6.9,0,0,0-1.52-1.22Zm6.44-3.34a7.975,7.975,0,0,1,1.18-.14c1.96-.12,4.84-.44,6.32-.68.26.46.32.58.62,1.2l1.06-.62A31.167,31.167,0,0,0,76.68,6.6l-.94.48A17.5,17.5,0,0,1,77,9.04c-1.42.18-2.2.26-4.2.4a33.63,33.63,0,0,0,1.66-3.02,4.805,4.805,0,0,1,.4-.78l-1.4-.4a11.386,11.386,0,0,1-1.1,2.7,15.519,15.519,0,0,1-.88,1.56c-.58.02-.58.02-.7.02-.16,0-.6-.02-.88-.02Zm11.1-3.54a7.872,7.872,0,0,1,.12-1.74H79.84a10.78,10.78,0,0,1,.12,1.74v4.72c0,1.16.5,1.36,3.36,1.36,2.58,0,3.36-.1,3.7-.52.34-.4.52-1.16.66-2.84a4.365,4.365,0,0,1-1.18-.5c-.08,1.78-.18,2.3-.5,2.5-.28.18-.88.22-2.7.22-1.9,0-2.12-.06-2.12-.62V9.84a23.712,23.712,0,0,0,5.06-2.06c.8-.44.8-.44,1.12-.6l-.88-1.06a16.152,16.152,0,0,1-5.3,2.54Zm0,9.06a8.55,8.55,0,0,1,.1-1.74H79.86a9.139,9.139,0,0,1,.1,1.8v5c0,.66.16.96.64,1.16a7.609,7.609,0,0,0,3.06.3c2.2,0,2.88-.1,3.32-.52.48-.46.7-1.24.86-3.14a5.435,5.435,0,0,1-1.2-.52,6.012,6.012,0,0,1-.42,2.58c-.26.32-.9.44-2.48.44a10.8,10.8,0,0,1-1.92-.1c-.5-.08-.64-.22-.64-.62V18.64a22.1,22.1,0,0,0,3.2-1.08c.7-.3,2.24-1.08,3.12-1.58l-.94-1.04a14.711,14.711,0,0,1-5.38,2.5Zm-9.94,5.08a13.27,13.27,0,0,1-.1,2h1.42a13.539,13.539,0,0,1-.1-2.04v-2.5h4.42V21.5c0,.36-.12.44-.66.44a11.711,11.711,0,0,1-1.54-.1,5.6,5.6,0,0,1,.3,1.24c.26.02.48.02.62.02,2.14,0,2.46-.2,2.46-1.48v-8.5c0-.36.02-.96.06-1.34a14.863,14.863,0,0,1-1.84.08h-3.5a12.087,12.087,0,0,1-1.62-.08,16.382,16.382,0,0,1,.08,1.84Zm1.22-8.5h4.42v1.88H72.46Zm0,2.94h4.42v1.96H72.46Z" transform="translate(1093.133 872.648)" fill="#070304"/>
    <path id="パス_106504" data-name="パス 106504" d="M10.881,1.64A6.9,6.9,0,0,1,10.933.574,8.544,8.544,0,0,1,9.75.626H6.487A10.268,10.268,0,0,1,5.343.574,7.7,7.7,0,0,1,5.395,1.64V4.4h-.13a6.264,6.264,0,0,1-1-.052,7.321,7.321,0,0,1,.052,1.027V8.816A7.473,7.473,0,0,1,4.251,10h.91A7.179,7.179,0,0,1,5.1,8.816V5.059h5.993V9.037c0,.169-.117.221-.455.221a7.842,7.842,0,0,1-1.274-.1,3.875,3.875,0,0,1,.182.767c.468.026.676.026.923.026,1.17,0,1.4-.13,1.4-.806V5.371a7.2,7.2,0,0,1,.052-1.027,6.31,6.31,0,0,1-1.04.052ZM7.592,4.4H6.175V1.315h3.952v.962H8.541a8.974,8.974,0,0,1-.988-.039,8.117,8.117,0,0,1,.039.923Zm.728,0V2.9h1.807V4.4ZM9.906,6.645a5.676,5.676,0,0,1,.039-.767,6.68,6.68,0,0,1-.923.039H7.241a6.68,6.68,0,0,1-.923-.039,6.859,6.859,0,0,1,.039.793V8.387a6.86,6.86,0,0,1-.039.793h.754V8.543h1.95a9.126,9.126,0,0,1,.923.039,5.171,5.171,0,0,1-.039-.767ZM7.072,6.528H9.191V7.919H7.072ZM.793.977A12.3,12.3,0,0,1,2.769,3.4l.663-.585A15.525,15.525,0,0,0,1.4.47ZM.585,6.229a5.156,5.156,0,0,1,.962-.065h.78V9.3A7.55,7.55,0,0,1,.3,10.857l.442.845c.26-.221.338-.3.455-.39A13.607,13.607,0,0,0,2.7,9.96a3.273,3.273,0,0,0,1.105,1.092c.806.468,1.573.585,3.666.585,1.677,0,3.315-.026,4.745-.078a2.906,2.906,0,0,1,.3-.936,47.524,47.524,0,0,1-5.72.247,4.516,4.516,0,0,1-3.042-.715A1.825,1.825,0,0,1,3.133,9.3V6.749A9.59,9.59,0,0,1,3.2,5.371a5.882,5.882,0,0,1-1,.065H1.6A5.171,5.171,0,0,1,.585,5.371ZM18.98,2.5H16.068a7.435,7.435,0,0,1-1.209-.065v.9a7.938,7.938,0,0,1,1.209-.065H18.98V5.709H15.171a9.332,9.332,0,0,1-1.352-.078v.936a11.957,11.957,0,0,1,1.352-.078h3.068a22.182,22.182,0,0,1-2.262,4c-.611.039-.962.052-1.04.052a4.82,4.82,0,0,1-.611-.039l.234,1a5.8,5.8,0,0,1,.806-.091,71.929,71.929,0,0,0,7.7-.962c.273.39.416.624.871,1.352l.78-.546a31.029,31.029,0,0,0-3.2-3.978l-.728.4a19.24,19.24,0,0,1,1.794,2.093c-1.573.273-4.134.572-5.6.663a15.846,15.846,0,0,0,.936-1.469,22.435,22.435,0,0,0,1.3-2.483h4.628a11.786,11.786,0,0,1,1.352.078V5.631a9.332,9.332,0,0,1-1.352.078h-4V3.265h3.2a7.938,7.938,0,0,1,1.209.065v-.9a7.338,7.338,0,0,1-1.209.065h-3.2V1.367A5.348,5.348,0,0,1,19.929.236H18.9a5.187,5.187,0,0,1,.078,1.131ZM28.522.86A7.239,7.239,0,0,1,28.34,1.9a21.506,21.506,0,0,0-.585,5.148,18.632,18.632,0,0,0,.338,3.679c.039.247.052.312.078.52l.936-.078v-.195A11.332,11.332,0,0,1,30.16,7.4l-.624-.3a12.078,12.078,0,0,0-.845,2.535c-.052-.689-.078-1.456-.078-2.47A19.218,19.218,0,0,1,29,3.1a18.472,18.472,0,0,1,.546-2.08ZM31.2,3.317a17.315,17.315,0,0,0,2.08.13,21.946,21.946,0,0,0,2.8-.169q.858-.117.9-.117l-.065-.923a13.949,13.949,0,0,1-3.484.351,8.829,8.829,0,0,1-2.21-.195Zm.949,2.535A3.591,3.591,0,0,0,31.018,8.27a1.837,1.837,0,0,0,.39,1.2,3.613,3.613,0,0,0,2.977.988,13.412,13.412,0,0,0,2.665-.26c.26-.039.286-.052.455-.065l-.13-1a8.556,8.556,0,0,1-2.99.455c-1.677,0-2.5-.468-2.5-1.43a3.02,3.02,0,0,1,.975-1.911ZM42.835,2.784V4.318H40.963a6.18,6.18,0,0,1-1.2-.078v.884A7.858,7.858,0,0,1,41,5.046h1.833V6.463H41.457A9.209,9.209,0,0,1,40.222,6.4a10.747,10.747,0,0,1,.052,1.209V9.661A7.688,7.688,0,0,1,40.209,11h.9a12.217,12.217,0,0,1-.052-1.352V7.191h1.781v3.315a11.628,11.628,0,0,1-.078,1.469h.936a10.472,10.472,0,0,1-.065-1.469V7.191H45.4v2.8c0,.182-.078.221-.468.221a4.741,4.741,0,0,1-.91-.065,2.793,2.793,0,0,1,.13.78c.468.026.533.026.715.026,1.04,0,1.3-.156,1.3-.78V7.594a10.071,10.071,0,0,1,.052-1.2,8.586,8.586,0,0,1-1.209.065H43.628V5.046h1.807a7.12,7.12,0,0,1,1.235.065V4.253a8.018,8.018,0,0,1-1.222.065h-1.82V2.784h1.326a7.845,7.845,0,0,1,1.274.065V1.991a7.459,7.459,0,0,1-1.274.065H43.628v-.52A6.561,6.561,0,0,1,43.706.223h-.949a6.871,6.871,0,0,1,.078,1.326v.507H41.457c.1-.286.156-.455.247-.754a4.126,4.126,0,0,1,.221-.676L41.08.418a3.351,3.351,0,0,1-.143.728,7,7,0,0,1-1.183,2.5,2.975,2.975,0,0,1,.728.377,8.288,8.288,0,0,0,.676-1.235ZM47.268.99a7.885,7.885,0,0,1,.078,1.43V7.5a8.975,8.975,0,0,1-.065,1.456h.949A8.772,8.772,0,0,1,48.165,7.5v-5.1A7.554,7.554,0,0,1,48.243.99ZM49.92.262a9.545,9.545,0,0,1,.091,1.586v8.788c0,.325-.091.39-.624.39a12.328,12.328,0,0,1-1.638-.13,2.392,2.392,0,0,1,.247.832c.624.052,1.04.065,1.378.065,1.183,0,1.456-.221,1.456-1.17V1.835A9.266,9.266,0,0,1,50.921.262Zm9.269,2.691v7.683A8.145,8.145,0,0,1,59.111,12h1a7.1,7.1,0,0,1-.091-1.365V8.647H62.7a7.413,7.413,0,0,1,1.144.078v-.9a7.413,7.413,0,0,1-1.144.078H60.021V5.8H62.66a8.043,8.043,0,0,1,1.144.078v-.9a7.3,7.3,0,0,1-1.144.078H60.021V2.953h3.055a7.179,7.179,0,0,1,1.183.065V2.134a6.274,6.274,0,0,1-1.183.078H58.955c.195-.455.26-.624.442-1.157a6.467,6.467,0,0,1,.26-.663l-.91-.3A7.149,7.149,0,0,1,58.2,1.939,11.269,11.269,0,0,1,55.9,5.5a1.875,1.875,0,0,1,.65.624,14.645,14.645,0,0,0,2.067-3.172ZM55.718.093a6.9,6.9,0,0,1-.546,1.742,11.283,11.283,0,0,1-2.743,3.9,2.557,2.557,0,0,1,.546.689A9.678,9.678,0,0,0,54.587,4.37c-.039.767-.052,1.118-.052,1.677v4.316a11.73,11.73,0,0,1-.091,1.586h1.014a10.959,10.959,0,0,1-.091-1.56V3.278a16.953,16.953,0,0,0,.962-2.158c.1-.26.143-.377.3-.728Zm12.3.767a4,4,0,0,1,.052.689c0,.208,0,.455-.013.845-.1,4.095-.117,4.42-.117,5.291a3.621,3.621,0,0,0,.715,2.665,3.083,3.083,0,0,0,2.444.91,4.552,4.552,0,0,0,3.666-1.625,7.908,7.908,0,0,0,1.443-2.951,3.677,3.677,0,0,1-.936-.624A7.723,7.723,0,0,1,74.633,8.1a3.733,3.733,0,0,1-3.484,2.262,2.454,2.454,0,0,1-1.625-.507,2.046,2.046,0,0,1-.611-1.56c-.013-.3-.026-.624-.026-.78,0-.585.039-2.353.091-3.913A20.043,20.043,0,0,1,69.147.86ZM79.443,3.746a1.936,1.936,0,0,1,.221-.013h.052c.507.026.624.026,1.079.026.481,0,.637,0,.9-.013a26.146,26.146,0,0,1-2.444,7.189l.949.4a34.255,34.255,0,0,0,1.5-3.965c.351-1.183.715-2.652.91-3.679a19,19,0,0,0,2.2-.312c.26-.052.26-.052.364-.065l-.065-.9a10.719,10.719,0,0,1-2.34.442c.065-.39.1-.572.169-.988A12.29,12.29,0,0,1,83.161.639l-1.027-.1a12.712,12.712,0,0,1-.286,2.392c-.377.026-.52.026-.78.026a8.965,8.965,0,0,1-1.625-.117Zm9.815.637c-.975-.039-1.17-.039-1.417-.039a14.728,14.728,0,0,0-3.445.429l.091.884a11.315,11.315,0,0,1,3.25-.442,13.051,13.051,0,0,1,1.534.091ZM84.526,7.191c-.689.884-.871,1.287-.871,1.872,0,1.287,1.105,1.95,3.237,1.95a13.027,13.027,0,0,0,2.314-.221c.429-.065.429-.065.572-.091l-.091-.975a9.659,9.659,0,0,1-2.873.442c-1.482,0-2.275-.416-2.275-1.2a1.564,1.564,0,0,1,.325-.923,4.357,4.357,0,0,1,.39-.494ZM98.189,2.953v7.683A8.145,8.145,0,0,1,98.111,12h1a7.1,7.1,0,0,1-.091-1.365V8.647H101.7a7.413,7.413,0,0,1,1.144.078v-.9a7.413,7.413,0,0,1-1.144.078H99.021V5.8h2.639a8.043,8.043,0,0,1,1.144.078v-.9a7.3,7.3,0,0,1-1.144.078H99.021V2.953h3.055a7.179,7.179,0,0,1,1.183.065V2.134a6.274,6.274,0,0,1-1.183.078H97.955c.195-.455.26-.624.442-1.157a6.466,6.466,0,0,1,.26-.663l-.91-.3A7.149,7.149,0,0,1,97.2,1.939,11.269,11.269,0,0,1,94.9,5.5a1.875,1.875,0,0,1,.65.624,14.645,14.645,0,0,0,2.067-3.172ZM94.718.093a6.9,6.9,0,0,1-.546,1.742,11.283,11.283,0,0,1-2.743,3.9,2.557,2.557,0,0,1,.546.689A9.678,9.678,0,0,0,93.587,4.37c-.039.767-.052,1.118-.052,1.677v4.316a11.729,11.729,0,0,1-.091,1.586h1.014a10.958,10.958,0,0,1-.091-1.56V3.278a16.953,16.953,0,0,0,.962-2.158c.1-.26.143-.377.3-.728Zm12.246,3.783a9.88,9.88,0,0,1-.052,1.131,12.6,12.6,0,0,1,1.378-.052h4.433a12.33,12.33,0,0,1,1.365.052,9.137,9.137,0,0,1-.052-1.144v-2.2a8.544,8.544,0,0,1,.052-1.079,9.914,9.914,0,0,1-1.469.065h-4.251a10.723,10.723,0,0,1-1.456-.065,9.04,9.04,0,0,1,.052,1.092Zm.819-2.483H113.2V4.214h-5.421Zm-2.691,9.256A8.766,8.766,0,0,1,105.027,12h.871v-.819h3.016v.572h.845a10.013,10.013,0,0,1-.052-1.274v-3a11.357,11.357,0,0,1,.039-1.222c-.338.026-.637.039-1.053.039h-2.457a10.648,10.648,0,0,1-1.2-.052,12.076,12.076,0,0,1,.052,1.261Zm.806-3.627h3.016v3.432H105.9Zm5.1,3.7A10.69,10.69,0,0,1,110.942,12h.845v-.819h3.328V12H116a8.358,8.358,0,0,1-.065-1.352V7.516a11.262,11.262,0,0,1,.052-1.274,8.687,8.687,0,0,1-1.118.052h-2.86c-.442,0-.728-.013-1.053-.039a8.118,8.118,0,0,1,.039,1.118Zm.793-3.7h3.341v3.432h-3.341Zm9.724-4.771a18.19,18.19,0,0,1-2.782-.143l-.013.9A2.305,2.305,0,0,1,119,2.992h.208c.481.013,1.7.039,1.911.039a1.44,1.44,0,0,0,.247-.026l-.117.195a12.936,12.936,0,0,1-2.912,3.718l.728.728a4.3,4.3,0,0,1,1-1.079,4.884,4.884,0,0,1,2.9-1.378c.611,0,.923.312,1.027,1.027a10.092,10.092,0,0,0-1.937,1.04,2.688,2.688,0,0,0-1.326,2.054c0,1.339,1.131,2,3.458,2a20.168,20.168,0,0,0,3.159-.26,5.116,5.116,0,0,1,.52-.065l-.117-1a10.892,10.892,0,0,1-3.471.507c-1.833,0-2.639-.377-2.639-1.235,0-.78.676-1.391,2.444-2.223a3.416,3.416,0,0,1,.013.39A18.7,18.7,0,0,1,124.02,9.3l.884-.013a2.826,2.826,0,0,1-.026-.468c0-.117,0-.3.013-.585.013-.26.013-.546.013-.715,0-.325,0-.455-.026-.793a21.584,21.584,0,0,1,3.471-1.144l-.416-.91a2.86,2.86,0,0,1-.884.377c-.572.208-1.313.481-2.262.858a1.578,1.578,0,0,0-1.716-1.443,3.46,3.46,0,0,0-1.963.637c-.13.091-.13.091-.6.455a.1.1,0,0,1-.026-.039V5.5a.013.013,0,0,0,.013-.013,2.132,2.132,0,0,1,.169-.13c.052-.039.312-.338.442-.494a9.586,9.586,0,0,0,1.17-1.846,41.975,41.975,0,0,0,4.29-.338,4.052,4.052,0,0,1,.52-.065l-.078-.884a18.3,18.3,0,0,1-4.1.494,2.213,2.213,0,0,0-.273.013c.065-.117.234-.468.4-.884a2.761,2.761,0,0,1,.338-.7L122.343.47a5.517,5.517,0,0,1-.624,1.781Zm19.578-.234a8.315,8.315,0,0,1-1.547,1.807,11.688,11.688,0,0,1-1.105-.988,17.106,17.106,0,0,0,1.586-1.69l-.676-.481a7.985,7.985,0,0,1-1.352,1.69A4.009,4.009,0,0,1,136.942.548,8.112,8.112,0,0,1,135.785.6h-2.457a4.471,4.471,0,0,1-.936-.065v.819a8.172,8.172,0,0,1,.845-.065H135.6a8.867,8.867,0,0,1-1.612,1.937,17.706,17.706,0,0,0-1.9-1.612l-.572.52a14.1,14.1,0,0,1,1.9,1.586,11.409,11.409,0,0,1-2.977,1.794,2.164,2.164,0,0,1,.494.689A12.525,12.525,0,0,0,134.42,3.85a10.406,10.406,0,0,0,2.041-2.483,8.791,8.791,0,0,0,1.833,2.353,11.735,11.735,0,0,0,3.731,2.431,2.608,2.608,0,0,1,.481-.741,9.233,9.233,0,0,1-2.4-1.2,14.048,14.048,0,0,0,1.079-1.053c.4-.455.4-.455.585-.65Zm-9.048,8.8a6.761,6.761,0,0,1-1.261-.078v.9a8.725,8.725,0,0,1,1.287-.078h8.9a8.8,8.8,0,0,1,1.3.078v-.9a8.3,8.3,0,0,1-1.274.078H138.45a12.372,12.372,0,0,0,.819-1.417L138.5,9.05a8.952,8.952,0,0,1-.871,1.768h-2.249a12.907,12.907,0,0,0-.832-1.7l-.767.273a8.528,8.528,0,0,1,.767,1.43Zm2.2-5.824a5.624,5.624,0,0,1,1.053-.065h2.444a5.486,5.486,0,0,1,1.027.065V4.175a5.091,5.091,0,0,1-1.014.065h-2.483a5.32,5.32,0,0,1-1.027-.065ZM139.23,8.92c.442,0,.715.013,1.027.039a4.479,4.479,0,0,1-.052-.871V6.7a5.807,5.807,0,0,1,.052-.871,7.9,7.9,0,0,1-1.04.052h-5.434a8.152,8.152,0,0,1-1.04-.052,6.4,6.4,0,0,1,.052.871V8.088a6.526,6.526,0,0,1-.052.871c.3-.026.572-.039,1-.039ZM133.6,6.593h5.8V8.218h-5.8Zm17.784,4.277c0,.26-.1.325-.546.325a7.657,7.657,0,0,1-1.222-.117,3.044,3.044,0,0,1,.169.819c.546.039.936.052,1.209.052.871,0,1.144-.234,1.144-.975V9.011c0-.728-.026-1.222-.078-2.4a7.989,7.989,0,0,0,.975,2.3,7.781,7.781,0,0,0,2.158,2.314,2.63,2.63,0,0,1,.559-.715A7.243,7.243,0,0,1,153.4,8.2a14.506,14.506,0,0,0,1.781-2.041l-.676-.455a8.132,8.132,0,0,1-1.456,1.885,8.589,8.589,0,0,1-.9-2.457V5.1h2.106a7.632,7.632,0,0,1,1.209.065V4.331a7.906,7.906,0,0,1-1.222.078h-.286c.091-1.118.13-1.716.169-2.392a9.228,9.228,0,0,1,.117-1.352,11.156,11.156,0,0,1-1.261.052h-2.808a7.9,7.9,0,0,1-1.235-.065v.819a7.9,7.9,0,0,1,1.235-.065H153.4c-.026.624-.039.754-.052,1.144h-2.925a6.244,6.244,0,0,1-1.118-.065v.793a6.7,6.7,0,0,1,1.118-.065H153.3c-.039.546-.039.572-.1,1.2h-3.653a7.48,7.48,0,0,1-1.183-.078v.832a7.084,7.084,0,0,1,1.183-.065h1.846V8.075a15.561,15.561,0,0,1-3.094,1.963l-.026-.6c-.715.286-.975.377-1.547.559V6.2h.546a6.947,6.947,0,0,1,1.144.065V5.449a7.044,7.044,0,0,1-1.144.065h-.546V4.162h.442a5.7,5.7,0,0,1,.871.052V3.447a5.484,5.484,0,0,1-.871.052h-1.6a5.207,5.207,0,0,1-.858-.052,8.347,8.347,0,0,0,1.716-2.47,7.647,7.647,0,0,0,1.833,2.431,3.481,3.481,0,0,1,.468-.676A5.851,5.851,0,0,1,146.835.34h-.923a6.685,6.685,0,0,1-2.34,3.094,1.7,1.7,0,0,1,.468.637c.312-.273.429-.377.65-.6v.741a6.021,6.021,0,0,1,.845-.052h.442V5.514h-.884a7.814,7.814,0,0,1-1.222-.065v.819A8.042,8.042,0,0,1,145.08,6.2h.9v4a10.566,10.566,0,0,1-2.184.429l.169.871a7.537,7.537,0,0,1,.78-.221,26.764,26.764,0,0,0,3.562-1.131l.338.65c.169-.1.169-.1.39-.247,1.053-.676,1.053-.676,1.287-.845.364-.26.624-.455,1.066-.806Zm-6.019-1.339a16.487,16.487,0,0,0-.611-2.639l-.637.208a13.27,13.27,0,0,1,.572,2.665Zm2.392-.312A14.68,14.68,0,0,0,148.382,7l-.65-.247a8.36,8.36,0,0,1-.559,2.262Zm1.144-3.2a9.185,9.185,0,0,1,1.092,2.132l.637-.4a12.92,12.92,0,0,0-1.1-2.028Zm14.287-3.679c-.884.026-1.9.052-3.146.1-2.093.078-2.093.078-2.47.078-.195,0-.286,0-.52-.013l.039.949c.871-.143,3.5-.273,6.11-.325v.676c0,.156.013.286.013.338,0,.481,0,.533.013.715a2,2,0,0,0-1.508-.585,2.163,2.163,0,0,0-2.3,2.145,2.173,2.173,0,0,0,3.77,1.352,1.82,1.82,0,0,0,.351-.637,3.367,3.367,0,0,1-1.456,2.743,6.663,6.663,0,0,1-2.106.975,2.854,2.854,0,0,1,.572.819,8.269,8.269,0,0,0,2.054-1.053,4.184,4.184,0,0,0,1.742-3.393,3.725,3.725,0,0,0-.312-1.534V3.122c1.053-.026,1.2-.026,1.391-.026a23.105,23.105,0,0,1,2.483.065V2.238c-.429.052-1.43.078-3.887.091V2.186a10.762,10.762,0,0,1,.065-1.625h-.975a4.381,4.381,0,0,1,.052.754Zm-.039,3.8a1.457,1.457,0,0,1-1.521,1.534,1.256,1.256,0,0,1-1.339-1.287,1.376,1.376,0,0,1,1.443-1.365,1.663,1.663,0,0,1,.871.208A.941.941,0,0,1,163.15,6.138Zm8.983-3.848a6.4,6.4,0,0,1,.7-.065c1.976-.065,3.536-.156,3.952-.234a.5.5,0,0,1,.117-.013L176.93,2l-.052.052-.052.052-.182.182c-.9.884-2.951,2.691-4.342,3.8a14.483,14.483,0,0,1-1.82,1.326l.585.832a8.343,8.343,0,0,1,5.473-2.223c1.755,0,2.8.741,2.8,1.989,0,1.1-.715,1.9-2.08,2.275a3.722,3.722,0,0,0-.6-1.248,2.618,2.618,0,0,0-2.145-1.066,1.689,1.689,0,0,0-1.885,1.521c0,1.2,1.053,1.872,2.886,1.872,2.886,0,4.771-1.339,4.771-3.367,0-1.664-1.391-2.73-3.562-2.73a6.587,6.587,0,0,0-3.185.806l-.026-.039a33.357,33.357,0,0,0,4.277-3.692,2.4,2.4,0,0,1,.663-.546l-.546-.715a1.329,1.329,0,0,1-.624.143c-1.17.091-2.9.169-3.978.169a6,6,0,0,1-1.222-.078Zm4.264,8.229a4.681,4.681,0,0,1-.949.091,3.322,3.322,0,0,1-1.456-.3.887.887,0,0,1-.52-.793c0-.494.4-.806,1.053-.806C175.461,8.712,176.111,9.336,176.4,10.519Zm8.658-7.943a3.053,3.053,0,0,1,.429.039,25.43,25.43,0,0,0,2.86.169,10.275,10.275,0,0,0,1.963-.169c-.13.078-.156.078-.247.13-.156.078-.182.091-.325.169a20.141,20.141,0,0,0-1.729,1.079l.663.533a18.515,18.515,0,0,1,3.276-1.976l-.065-.858a14.217,14.217,0,0,1-3.289.273,14.863,14.863,0,0,1-3.458-.312Zm.78,3.328a3.416,3.416,0,0,0-1.5,2.509,2.071,2.071,0,0,0,1.482,1.963,9.171,9.171,0,0,0,2.99.4,21.206,21.206,0,0,0,3.51-.3,3.636,3.636,0,0,1,.442-.065l-.117-1.066a12.332,12.332,0,0,1-3.9.494,8.278,8.278,0,0,1-2.379-.26c-.728-.247-1.1-.676-1.1-1.274S185.653,7.1,186.5,6.4ZM199.03.8a4.349,4.349,0,0,1,.221.819,26.481,26.481,0,0,0,.949,3.64,8.1,8.1,0,0,0-1.7,1.053,2.812,2.812,0,0,0-1.157,2.21,2.158,2.158,0,0,0,1.612,2.132,8.844,8.844,0,0,0,2.886.351,26.078,26.078,0,0,0,2.873-.169,6.738,6.738,0,0,1,.962-.078l-.1-1.079a12.907,12.907,0,0,1-3.718.442c-2.548,0-3.549-.455-3.549-1.638,0-1.079.962-1.937,3.185-2.821A29.9,29.9,0,0,1,205.4,4.4l-.39-.988a7.029,7.029,0,0,1-.832.338c-2.015.7-2.379.845-3.146,1.157a22.609,22.609,0,0,1-.975-4.3ZM1.235,20.421a43.278,43.278,0,0,1,4.485-.429,26.606,26.606,0,0,0,2.86-.286,8.51,8.51,0,0,0-1.235.689,4.946,4.946,0,0,0-2.431,3.991,3.148,3.148,0,0,0,1.443,2.652,6.557,6.557,0,0,0,2.808,1c.234.039.26.052.4.078l.169-1.053h-.13a6.663,6.663,0,0,1-1.95-.416,2.549,2.549,0,0,1-1.82-2.405,3.973,3.973,0,0,1,1.6-3,6.394,6.394,0,0,1,2.5-1.3,5.453,5.453,0,0,1,1.456-.182L11.31,18.8a8.78,8.78,0,0,1-1.547.143l-.741.026c-.429.013-.6.026-2.2.117l-2.041.13c-1.6.091-1.677.1-2.4.156-.4.026-.559.039-.741.039-.091,0-.221,0-.468-.013Zm7.982,1.248a9.142,9.142,0,0,1,1.326,2.067l.663-.39a9.869,9.869,0,0,0-1.339-2.015Zm1.482-.7a10.288,10.288,0,0,1,1.326,2.041l.65-.364a10.535,10.535,0,0,0-1.339-2.028Zm2.249,5.057a12.975,12.975,0,0,1,2.561,2.834l.728-.689a13.246,13.246,0,0,0-2.613-2.756Zm14.2-5.98a1.347,1.347,0,0,1,.208-.013,2.112,2.112,0,0,1,.234.013c1.04.039,1.625.065,1.755.065h.52c-.065.949-.065,1.014-.078,1.963a4.431,4.431,0,0,0-3.016,3.874,1.775,1.775,0,0,0,1.677,1.976,4.262,4.262,0,0,0,2.9-1.573,11.707,11.707,0,0,0,2.47-3.9c1.4.364,2.145,1.144,2.145,2.262a2.867,2.867,0,0,1-2.236,2.6,6.055,6.055,0,0,1-1.95.351,2.68,2.68,0,0,1,.416.871,7.157,7.157,0,0,0,2.652-.741,3.335,3.335,0,0,0,2.041-3c0-1.521-1-2.626-2.8-3.042.221-.611.364-.962.4-1.04l-.9-.273a4.881,4.881,0,0,1-.312,1.17c-.325-.026-.481-.039-.754-.039a6.869,6.869,0,0,0-1.924.26c.013-.637.013-.637.091-1.742a36.417,36.417,0,0,0,4.6-.52c.247-.039.286-.039.455-.065l-.052-.91a19.976,19.976,0,0,1-4.953.728,8.643,8.643,0,0,1,.273-1.82L30,17.431a1.381,1.381,0,0,1,.013.195c0,.091-.026.6-.039.741-.052.663-.052.663-.065.975-.234.013-.286.013-.325.013a9.1,9.1,0,0,1-2.431-.208Zm2.639,2.847a18.386,18.386,0,0,0,.26,3.523,2.347,2.347,0,0,1-1.495.663c-.559,0-.936-.468-.936-1.183a3.071,3.071,0,0,1,.793-1.937A4.646,4.646,0,0,1,29.783,22.891Zm.962,2.977v-.143a.858.858,0,0,0-.013-.182,21.865,21.865,0,0,1-.143-2.977,5.848,5.848,0,0,1,1.807-.3c.143,0,.208,0,.624.026a11.742,11.742,0,0,1-1.989,3.25,1.409,1.409,0,0,0-.247.338ZM42.64,17.457A13.375,13.375,0,0,1,42.2,19.9c-.247,0-.676.013-.936.013a8.215,8.215,0,0,1-1.547-.1l-.013.9h.169c.039,0,.143,0,.286.013.195,0,.637.013.858.013.195,0,.637-.013.962-.026a19.465,19.465,0,0,1-1.352,3.354,11.477,11.477,0,0,1-1.248,2.028l.884.52c.065-.1.143-.26.26-.442.494-.858.611-1.079.923-1.7a24.22,24.22,0,0,0,1.443-3.8,15.694,15.694,0,0,0,2.132-.273c.312-.052.312-.052.455-.078l-.039-.9a10.818,10.818,0,0,1-2.327.429c.182-.663.26-.975.351-1.417a4.072,4.072,0,0,1,.208-.832ZM50.3,21.045a17.917,17.917,0,0,0-3.432-1.716l-.481.728a14.1,14.1,0,0,1,3.445,1.768Zm.026,5.759a1.316,1.316,0,0,1-.234-.208,9.338,9.338,0,0,0-2.548-1.573,15.507,15.507,0,0,1-.143-1.976,3.99,3.99,0,0,1,.169-1.209l-.884-.091a5.264,5.264,0,0,0-.13,1.261c0,.325.026.936.091,1.781a4.29,4.29,0,0,0-1.313-.195,3.8,3.8,0,0,0-1.534.286,1.844,1.844,0,0,0-1.209,1.651c0,1.157.975,1.885,2.535,1.885,1.586,0,2.47-.741,2.47-2.08a2.7,2.7,0,0,0-.026-.416,7.436,7.436,0,0,1,2.275,1.768Zm-3.614-1.183s.026.4.026.559c0,.975-.507,1.417-1.625,1.417-1.027,0-1.651-.4-1.651-1.066,0-.715.7-1.17,1.807-1.17A3.858,3.858,0,0,1,46.709,25.621Zm6.084-4.875a1.936,1.936,0,0,1,.221-.013h.052c.507.026.624.026,1.079.026.481,0,.637,0,.9-.013A26.146,26.146,0,0,1,52.6,27.935l.949.4a34.255,34.255,0,0,0,1.5-3.965c.351-1.183.715-2.652.91-3.679a19,19,0,0,0,2.2-.312c.26-.052.26-.052.364-.065l-.065-.9a10.719,10.719,0,0,1-2.34.442c.065-.39.1-.572.169-.988a12.292,12.292,0,0,1,.234-1.235l-1.027-.1a12.712,12.712,0,0,1-.286,2.392c-.377.026-.52.026-.78.026a8.965,8.965,0,0,1-1.625-.117Zm9.815.637c-.975-.039-1.17-.039-1.417-.039a14.729,14.729,0,0,0-3.445.429l.091.884a11.315,11.315,0,0,1,3.25-.442,13.052,13.052,0,0,1,1.534.091Zm-4.732,2.808c-.689.884-.871,1.287-.871,1.872,0,1.287,1.1,1.95,3.237,1.95a13.027,13.027,0,0,0,2.314-.221c.429-.065.429-.065.572-.091l-.091-.975a9.659,9.659,0,0,1-2.873.442c-1.482,0-2.275-.416-2.275-1.2a1.564,1.564,0,0,1,.325-.923,4.357,4.357,0,0,1,.39-.494Zm13.676-4.81a3.741,3.741,0,0,1,1.508.325,3.427,3.427,0,0,1,2.067,3.263,3.924,3.924,0,0,1-2.3,3.64,7.793,7.793,0,0,1-2.171.611,2.066,2.066,0,0,1,.455.871,10.057,10.057,0,0,0,1.976-.6,4.734,4.734,0,0,0,2.977-4.485A4.352,4.352,0,0,0,74.8,19.836a5.033,5.033,0,0,0-3.575-1.287,5.279,5.279,0,0,0-5.564,5.317c0,1.82.923,3.172,2.158,3.172.936,0,1.7-.78,2.457-2.5A19.487,19.487,0,0,0,71.552,19.381Zm-.936.013a17.856,17.856,0,0,1-1.183,4.81c-.559,1.274-1.079,1.885-1.625,1.885-.7,0-1.248-.962-1.248-2.21a4.5,4.5,0,0,1,2.119-3.874A4.106,4.106,0,0,1,70.616,19.394Zm18.447,7.9a32.33,32.33,0,0,0-4.329-3.9,15.72,15.72,0,0,0,2.145-3.64,2.426,2.426,0,0,1,.364-.637l-.546-.559a2.424,2.424,0,0,1-.832.1l-4.641.052h-.338a6.109,6.109,0,0,1-1.027-.065l.026,1.053a8.747,8.747,0,0,1,1.339-.1l4.342-.065a2.208,2.208,0,0,0,.312-.013.275.275,0,0,1-.039.091c-.026.065-.039.078-.065.156a14.09,14.09,0,0,1-4.641,5.863,10.465,10.465,0,0,1-2.639,1.495,2.893,2.893,0,0,1,.637.858,16.741,16.741,0,0,0,2.548-1.56A14.112,14.112,0,0,0,84.162,24.1a24.179,24.179,0,0,1,4.16,4.017Zm6.422-7.085-2.652.416a9.739,9.739,0,0,1-1.352.13l.182.988a10.708,10.708,0,0,1,1.3-.286l2.678-.416.468,2.626-3.458.559a6.841,6.841,0,0,1-1.287.117l.169.988a6.884,6.884,0,0,1,1.248-.26l3.484-.559.533,2.912a10.361,10.361,0,0,1,.156,1.248l1.04-.195a7.054,7.054,0,0,1-.286-1.235l-.533-2.873,3.263-.52c.091-.013.156-.026.3-.052.221-.039.351-.065.4-.065a3.842,3.842,0,0,1,.572-.065l-.182-.962a7.988,7.988,0,0,1-1.287.3l-3.224.52L96.525,20.9l2.951-.455c.806-.13.806-.13,1.157-.169l-.182-.936a6.106,6.106,0,0,1-1.144.26l-2.938.455-.26-1.43a6.7,6.7,0,0,1-.143-1.1l-1.027.169a4.432,4.432,0,0,1,.286,1.1Zm10.452-2.119a5.782,5.782,0,0,1,.052.923,17.735,17.735,0,0,1-.585,5.577,6.431,6.431,0,0,1-2.2,2.99,2.4,2.4,0,0,1,.78.7,7.947,7.947,0,0,0,2.249-3.211c.494-1.313.6-2.275.7-5.8a6.476,6.476,0,0,1,.078-1.118ZM109.174,18a5.216,5.216,0,0,1,.052,1.157l-.078,7.6a2.191,2.191,0,0,1-.091.884l.52.6a2.165,2.165,0,0,1,.3-.143c.182-.065.182-.065.416-.156A8.569,8.569,0,0,0,112.151,27a7.386,7.386,0,0,0,2.613-3.341,3.635,3.635,0,0,1-.728-.754,6.429,6.429,0,0,1-1.534,2.6,6.008,6.008,0,0,1-2.418,1.508l.078-7.852a5.04,5.04,0,0,1,.078-1.144Zm10.777,1.248a18.19,18.19,0,0,1-2.782-.143l-.013.9a2.305,2.305,0,0,1,.286-.013h.208c.481.013,1.7.039,1.911.039a1.44,1.44,0,0,0,.247-.026l-.117.195a12.936,12.936,0,0,1-2.912,3.718l.728.728a4.3,4.3,0,0,1,1-1.079,4.884,4.884,0,0,1,2.9-1.378c.611,0,.923.312,1.027,1.027a10.092,10.092,0,0,0-1.937,1.04,2.688,2.688,0,0,0-1.326,2.054c0,1.339,1.131,2,3.458,2a20.168,20.168,0,0,0,3.159-.26,5.116,5.116,0,0,1,.52-.065l-.117-1a10.892,10.892,0,0,1-3.471.507c-1.833,0-2.639-.377-2.639-1.235,0-.78.676-1.391,2.444-2.223a3.416,3.416,0,0,1,.013.39,18.7,18.7,0,0,1-.078,1.872l.884-.013a2.826,2.826,0,0,1-.026-.468c0-.117,0-.3.013-.585.013-.26.013-.546.013-.715,0-.325,0-.455-.026-.793a21.584,21.584,0,0,1,3.471-1.144l-.416-.91a2.86,2.86,0,0,1-.884.377c-.572.208-1.313.481-2.262.858a1.578,1.578,0,0,0-1.716-1.443,3.46,3.46,0,0,0-1.963.637c-.13.091-.13.091-.6.455a.1.1,0,0,1-.026-.039V22.5a.013.013,0,0,0,.013-.013c.013-.013.078-.065.169-.13.052-.039.312-.338.442-.494a9.586,9.586,0,0,0,1.17-1.846,41.976,41.976,0,0,0,4.29-.338,4.052,4.052,0,0,1,.52-.065l-.078-.884a18.3,18.3,0,0,1-4.1.494,2.213,2.213,0,0,0-.273.013c.065-.117.234-.468.4-.884a2.76,2.76,0,0,1,.338-.7l-1.04-.182a5.517,5.517,0,0,1-.624,1.781Zm10,6.786a11.084,11.084,0,0,1,1.17-1.235,3.658,3.658,0,0,0,.676-.715h.026c-.026.312-.026.416-.039,2a13.878,13.878,0,0,1-.065,2.457h1.027c-.065-.6-.078-1.248-.078-5.161,1.7-1.534,2.873-2.145,4.147-2.145a2.385,2.385,0,0,1,2.483,2.548,3.286,3.286,0,0,1-.364,1.56,2.894,2.894,0,0,1-2.6,1.469,5.693,5.693,0,0,1-2.3-.507,3.2,3.2,0,0,1,.1.754,1.7,1.7,0,0,1-.013.221,6.557,6.557,0,0,0,2.21.39,3.7,3.7,0,0,0,3.926-3.913,3.287,3.287,0,0,0-3.5-3.38,5.061,5.061,0,0,0-3.289,1.287,7.121,7.121,0,0,0-.754.663l-.039.039h-.026c0-.026.026-.468.065-1.313a3.843,3.843,0,0,1,.689-.845l-.338-.429a.76.76,0,0,1-.3.078c.013-.3.013-.3.026-.741a8.148,8.148,0,0,1,.13-1.508H131.9a2.339,2.339,0,0,1,.039.507c0,.507-.013,1-.052,1.807-1.066.078-1.612.1-1.807.1-.1,0-.182,0-.364-.013l.065.9a11.355,11.355,0,0,1,1.43-.156c.481-.026.481-.026.663-.039-.039,1.105-.039,1.222-.065,2.3-.169.143-.169.143-.377.338-.442.4-.442.4-.884.819a9.621,9.621,0,0,1-1.118.962Zm12.753-4.29a7.44,7.44,0,0,1,.754-.169c.117-.026.741-.13,1.859-.3a21.461,21.461,0,0,1-1.43,4.121,12.467,12.467,0,0,1-1.352,2.353l.884.52c.4-.728.676-1.248.845-1.56a24.526,24.526,0,0,0,1.963-5.512,7.464,7.464,0,0,1,.936-.065c1.209,0,1.6.442,1.6,1.82a10.063,10.063,0,0,1-.546,3.614q-.253.624-.741.624a4.859,4.859,0,0,1-1.937-.6,2.517,2.517,0,0,1,.039.52,2.828,2.828,0,0,1-.026.455,4.891,4.891,0,0,0,1.963.507,1.358,1.358,0,0,0,1.274-.611,8.96,8.96,0,0,0,.871-4.472,2.624,2.624,0,0,0-.637-2.093,2.484,2.484,0,0,0-1.872-.546,7.576,7.576,0,0,0-.767.039c.117-.624.208-1.1.273-1.482a7.992,7.992,0,0,1,.247-1.248l-1.04-.117v.169a15.888,15.888,0,0,1-.39,2.756c-1.053.169-2.4.325-2.873.338Zm7.67-1.716a10.641,10.641,0,0,1,2.652,4.667l.832-.481a11.755,11.755,0,0,0-2.717-4.6ZM157.9,17.47a2.605,2.605,0,0,1-.039.416,32.859,32.859,0,0,0-.442,4.8v.3l.026,1.352.013.234v.143l.936-.039c-.013-.2-.013-.26-.013-.312a6.785,6.785,0,0,1,.7-2.9c.741-1.521,1.573-2.262,2.561-2.262,1.248,0,1.976,1.209,1.976,3.3a4.477,4.477,0,0,1-2.236,4.316,6.869,6.869,0,0,1-2.639.819,2.683,2.683,0,0,1,.52.884,9.84,9.84,0,0,0,2.314-.767,5.364,5.364,0,0,0,3-5.109,5.34,5.34,0,0,0-.78-3.159,2.447,2.447,0,0,0-2.08-1.157,3.1,3.1,0,0,0-2.6,1.677,5.8,5.8,0,0,0-.793,1.937c-.065.273-.065.273-.091.377l-.052-.013c.039-.663.221-2.08.429-3.393a7.368,7.368,0,0,1,.3-1.339Zm12.116.9a13.06,13.06,0,0,1,.936,2.47c-.208.065-.338.091-.663.208a14.267,14.267,0,0,1-1.911.611l.338.923a12.389,12.389,0,0,1,1.781-.715,5.62,5.62,0,0,0,.7-.234,46.231,46.231,0,0,1,1.638,7.02l1.053-.234a4.124,4.124,0,0,1-.169-.559c-.546-2.444-1.014-4.277-1.677-6.487a15.328,15.328,0,0,1,4.238-.923c1.313,0,2.08.585,2.08,1.573a1.576,1.576,0,0,1-.624,1.326,2.633,2.633,0,0,1-1.56.507,4.418,4.418,0,0,1-2.184-.6,5.789,5.789,0,0,1,.078.741,1.869,1.869,0,0,1-.013.234,5.505,5.505,0,0,0,2.2.481,2.779,2.779,0,0,0,3.055-2.678c0-1.456-1.118-2.392-2.86-2.392a6.547,6.547,0,0,0-.975.078c-.013-.156-.013-.4-.013-.416a12.266,12.266,0,0,1,.065-1.755h-.975a18.017,18.017,0,0,1,.052,2.3,23.056,23.056,0,0,0-2.795.728c-.182-.585-.312-.949-.572-1.716a5.225,5.225,0,0,1-.247-.793Zm17.615.975c-.884.026-1.9.052-3.146.1-2.093.078-2.093.078-2.47.078-.195,0-.286,0-.52-.013l.039.949c.871-.143,3.5-.273,6.11-.325v.676c0,.156.013.286.013.338,0,.481,0,.533.013.715a2,2,0,0,0-1.508-.585,2.163,2.163,0,0,0-2.3,2.145,2.173,2.173,0,0,0,3.77,1.352,1.82,1.82,0,0,0,.351-.637,3.367,3.367,0,0,1-1.456,2.743,6.663,6.663,0,0,1-2.106.975,2.854,2.854,0,0,1,.572.819,8.269,8.269,0,0,0,2.054-1.053,4.184,4.184,0,0,0,1.742-3.393,3.725,3.725,0,0,0-.312-1.534V20.122c1.053-.026,1.2-.026,1.391-.026a23.106,23.106,0,0,1,2.483.065v-.923c-.429.052-1.43.078-3.887.091v-.143a10.762,10.762,0,0,1,.065-1.625h-.975a4.381,4.381,0,0,1,.052.754Zm-.039,3.8a1.457,1.457,0,0,1-1.521,1.534,1.256,1.256,0,0,1-1.339-1.287,1.376,1.376,0,0,1,1.443-1.365,1.663,1.663,0,0,1,.871.208A.941.941,0,0,1,187.59,23.138Zm13.9-5.616a20.668,20.668,0,0,1-3.809,3.562,10.046,10.046,0,0,0-1.105.884,1.259,1.259,0,0,0-.377.871c0,.442.208.728.936,1.3,1.9,1.482,2.418,1.911,3.289,2.717a12.272,12.272,0,0,1,1.677,1.781l.819-.806a3.308,3.308,0,0,1-.364-.325,38.331,38.331,0,0,0-4.16-3.549c-1.053-.819-1.157-.91-1.157-1.144,0-.182.091-.286.572-.65a37.871,37.871,0,0,0,2.99-2.457c1.352-1.3,1.456-1.391,1.6-1.508Zm16.289.884c-.234.091-.234.091-1.1.091H209.69a9.528,9.528,0,0,1-1.547-.091v1a12.552,12.552,0,0,1,1.534-.065h7.384a6.9,6.9,0,0,1-1.456,1.937,5.628,5.628,0,0,1-2.054,1.235,2.554,2.554,0,0,1,.637.741,7.781,7.781,0,0,0,3.8-3.705,2.333,2.333,0,0,1,.312-.52Zm-5.668,2.262a3.433,3.433,0,0,1,.052.7c0,2.535-.507,3.861-1.885,4.966a6.109,6.109,0,0,1-2.379,1.2,2.542,2.542,0,0,1,.6.871,7.082,7.082,0,0,0,3.328-2.249,6.963,6.963,0,0,0,1.287-4.576,4.717,4.717,0,0,1,.052-.91ZM3.627,36.16a5.752,5.752,0,0,1,.065-1.092H2.626a7.213,7.213,0,0,1,.052,1.079V42.14c0,.546.013.806.026,1.014A1.726,1.726,0,0,0,3.237,44.4c.455.377,1.313.533,2.847.533.9,0,2.613-.091,3.445-.182l.624-.065.169-.013c.195-.026.234-.026.429-.039l-.078-1.04a6.263,6.263,0,0,1-1.287.26,25.717,25.717,0,0,1-2.977.208,13.557,13.557,0,0,1-1.534-.078,1.56,1.56,0,0,1-.988-.338c-.221-.221-.273-.52-.273-1.43v-.143L3.627,42V40.1a19.929,19.929,0,0,0,6.149-2.171,5.735,5.735,0,0,1,.572-.286l-.663-.884a15.638,15.638,0,0,1-6.058,2.483Zm7.709-2.2a1.469,1.469,0,1,0,1.469,1.469A1.459,1.459,0,0,0,11.336,33.963Zm0,.546a.923.923,0,1,1-.936.923A.927.927,0,0,1,11.336,34.509Zm1.495,6.032a14.2,14.2,0,0,1,1.612-.052h7.54a14.871,14.871,0,0,1,1.586.052V39.488A10.253,10.253,0,0,1,22,39.553H14.443a9.2,9.2,0,0,1-1.612-.078Zm14.846-5.447a5.783,5.783,0,0,1,.052.923,17.735,17.735,0,0,1-.585,5.577,6.431,6.431,0,0,1-2.2,2.99,2.4,2.4,0,0,1,.78.7,7.947,7.947,0,0,0,2.249-3.211c.494-1.313.6-2.275.7-5.8a6.476,6.476,0,0,1,.078-1.118ZM30.914,35a5.216,5.216,0,0,1,.052,1.157l-.078,7.6a2.191,2.191,0,0,1-.091.884l.52.6a2.165,2.165,0,0,1,.3-.143c.182-.065.182-.065.416-.156A8.569,8.569,0,0,0,33.891,44,7.386,7.386,0,0,0,36.5,40.658a3.635,3.635,0,0,1-.728-.754,6.429,6.429,0,0,1-1.534,2.6,6.008,6.008,0,0,1-2.418,1.508L31.9,36.16a5.04,5.04,0,0,1,.078-1.144Zm13.455,1.339c-.884.026-1.9.052-3.146.1-2.093.078-2.093.078-2.47.078-.195,0-.286,0-.52-.013l.039.949c.871-.143,3.5-.273,6.11-.325v.676c0,.156.013.286.013.338,0,.481,0,.533.013.715a2,2,0,0,0-1.508-.585,2.163,2.163,0,0,0-2.3,2.145,2.173,2.173,0,0,0,3.77,1.352,1.821,1.821,0,0,0,.351-.637,3.367,3.367,0,0,1-1.456,2.743,6.663,6.663,0,0,1-2.106.975,2.854,2.854,0,0,1,.572.819,8.269,8.269,0,0,0,2.054-1.053,4.184,4.184,0,0,0,1.742-3.393,3.725,3.725,0,0,0-.312-1.534V37.122c1.053-.026,1.2-.026,1.391-.026a23.106,23.106,0,0,1,2.483.065v-.923c-.429.052-1.43.078-3.887.091v-.143a10.762,10.762,0,0,1,.065-1.625h-.975a4.381,4.381,0,0,1,.052.754Zm-.039,3.8a1.457,1.457,0,0,1-1.521,1.534,1.256,1.256,0,0,1-1.339-1.287,1.376,1.376,0,0,1,1.443-1.365,1.663,1.663,0,0,1,.871.208A.941.941,0,0,1,44.33,40.138Zm8.983-3.848a6.4,6.4,0,0,1,.7-.065c1.976-.065,3.536-.156,3.952-.234a.5.5,0,0,1,.117-.013L58.11,36l-.052.052-.052.052-.182.182c-.9.884-2.951,2.691-4.342,3.8a14.483,14.483,0,0,1-1.82,1.326l.585.832a8.343,8.343,0,0,1,5.473-2.223c1.755,0,2.795.741,2.795,1.989,0,1.105-.715,1.9-2.08,2.275a3.721,3.721,0,0,0-.6-1.248,2.618,2.618,0,0,0-2.145-1.066,1.689,1.689,0,0,0-1.885,1.521c0,1.2,1.053,1.872,2.886,1.872,2.886,0,4.771-1.339,4.771-3.367,0-1.664-1.391-2.73-3.562-2.73a6.587,6.587,0,0,0-3.185.806l-.026-.039a33.358,33.358,0,0,0,4.277-3.692,2.4,2.4,0,0,1,.663-.546l-.546-.715a1.329,1.329,0,0,1-.624.143c-1.17.091-2.9.169-3.978.169a6,6,0,0,1-1.222-.078Zm4.264,8.229a4.681,4.681,0,0,1-.949.091,3.322,3.322,0,0,1-1.456-.3.887.887,0,0,1-.52-.793c0-.494.4-.806,1.053-.806C56.641,42.712,57.291,43.336,57.577,44.519Zm8.658-7.943a3.053,3.053,0,0,1,.429.039,25.429,25.429,0,0,0,2.86.169,10.275,10.275,0,0,0,1.963-.169c-.13.078-.156.078-.247.13-.156.078-.182.091-.325.169a20.141,20.141,0,0,0-1.729,1.079l.663.533a18.515,18.515,0,0,1,3.276-1.976l-.065-.858a14.217,14.217,0,0,1-3.289.273,14.863,14.863,0,0,1-3.458-.312Zm.78,3.328a3.416,3.416,0,0,0-1.495,2.509A2.071,2.071,0,0,0,67,44.376a9.171,9.171,0,0,0,2.99.4,21.206,21.206,0,0,0,3.51-.3,3.637,3.637,0,0,1,.442-.065l-.117-1.066a12.332,12.332,0,0,1-3.9.494,8.278,8.278,0,0,1-2.379-.26c-.728-.247-1.105-.676-1.105-1.274s.39-1.209,1.235-1.911ZM80.21,34.795a4.349,4.349,0,0,1,.221.819,26.481,26.481,0,0,0,.949,3.64,8.1,8.1,0,0,0-1.7,1.053,2.812,2.812,0,0,0-1.157,2.21,2.158,2.158,0,0,0,1.612,2.132A8.844,8.844,0,0,0,83.018,45a26.079,26.079,0,0,0,2.873-.169,6.738,6.738,0,0,1,.962-.078l-.1-1.079a12.907,12.907,0,0,1-3.718.442c-2.548,0-3.549-.455-3.549-1.638,0-1.079.962-1.937,3.185-2.821A29.9,29.9,0,0,1,86.58,38.4l-.39-.988a7.03,7.03,0,0,1-.832.338c-2.015.7-2.379.845-3.146,1.157a22.611,22.611,0,0,1-.975-4.3Zm18.434,0a9.964,9.964,0,0,1,1.339,2.067l.65-.39a9.869,9.869,0,0,0-1.339-2.015Zm-8.372,4a16.923,16.923,0,0,1,2.613-.468A19.184,19.184,0,0,1,90.1,44.805l.884.52a25.249,25.249,0,0,0,2.808-7.072,7.465,7.465,0,0,1,.936-.065c1.209,0,1.6.442,1.6,1.82a10.063,10.063,0,0,1-.546,3.614q-.253.624-.741.624a4.859,4.859,0,0,1-1.937-.6,2.4,2.4,0,0,1,.039.507,2.9,2.9,0,0,1-.026.468,4.891,4.891,0,0,0,1.963.507,1.358,1.358,0,0,0,1.274-.611,8.961,8.961,0,0,0,.871-4.472,2.624,2.624,0,0,0-.637-2.093,2.484,2.484,0,0,0-1.872-.546,7.577,7.577,0,0,0-.767.039c.1-.559.221-1.157.273-1.482a7.992,7.992,0,0,1,.247-1.248l-1.04-.117v.169a16.057,16.057,0,0,1-.39,2.756,26.668,26.668,0,0,1-2.873.338Zm9.854-4.693a9.415,9.415,0,0,1,1.326,2.041l.65-.377a10.441,10.441,0,0,0-1.339-2.015ZM97.942,37.07a10.978,10.978,0,0,1,2.652,4.667l.832-.468a11.9,11.9,0,0,0-2.717-4.6Zm5.473.351a43.278,43.278,0,0,1,4.485-.429,26.607,26.607,0,0,0,2.86-.286,8.51,8.51,0,0,0-1.235.689,4.946,4.946,0,0,0-2.431,3.991,3.148,3.148,0,0,0,1.443,2.652,6.557,6.557,0,0,0,2.808,1c.234.039.26.052.4.078l.169-1.053h-.13a6.663,6.663,0,0,1-1.95-.416,2.549,2.549,0,0,1-1.82-2.4,3.973,3.973,0,0,1,1.6-3,6.394,6.394,0,0,1,2.5-1.3,5.453,5.453,0,0,1,1.456-.182l-.078-.962a8.779,8.779,0,0,1-1.547.143l-.741.026c-.429.013-.6.026-2.2.117l-2.041.13c-1.6.091-1.677.1-2.4.156-.4.026-.559.039-.741.039-.091,0-.221,0-.468-.013Zm7.982,1.248a9.142,9.142,0,0,1,1.326,2.067l.663-.39a9.869,9.869,0,0,0-1.339-2.015Zm1.482-.7a10.287,10.287,0,0,1,1.326,2.041l.65-.364a10.535,10.535,0,0,0-1.339-2.028Zm4.316-.533A7.1,7.1,0,0,1,118,37.4a27.656,27.656,0,0,0,3.51-.234c.325.7.4.845.741,1.482a25.9,25.9,0,0,1-4.1.325,10.1,10.1,0,0,1-1.04-.039l.026.858c.234-.026.286-.026.91-.052a27.084,27.084,0,0,0,4.563-.377,11.915,11.915,0,0,0,1.391,2,7.814,7.814,0,0,0-2.626-.377c-2.47,0-3.965.845-3.965,2.249a1.816,1.816,0,0,0,.975,1.612,5.246,5.246,0,0,0,2.678.546,11.323,11.323,0,0,0,3.328-.481,7.571,7.571,0,0,1,.78-.221L125,43.674a8.763,8.763,0,0,1-3.848.871c-1.781,0-2.769-.468-2.769-1.326,0-.9,1.209-1.482,3.081-1.482a13.143,13.143,0,0,1,1.7.117,3.525,3.525,0,0,1,1.43.494l.767-.546a15.237,15.237,0,0,1-1.911-2.587c.481-.091,1.131-.234,2.041-.468.429-.117.481-.117.7-.169l-.1-.871a13.224,13.224,0,0,1-2.977.806c-.195-.351-.546-1.04-.741-1.469.728-.117,2.119-.416,3.276-.728l-.078-.845a16.446,16.446,0,0,1-3.471.858,10.828,10.828,0,0,1-.689-1.833l-.975.169a16.834,16.834,0,0,1,.78,1.781,25.685,25.685,0,0,1-3.081.182c-.442,0-.663-.013-.975-.039Zm22.36,6.526a4.444,4.444,0,0,1-.442-.3,11.379,11.379,0,0,0-3.627-1.9c-.052-1.261-.052-1.261-.078-1.989.962-.065,1.989-.169,2.886-.312.455-.065.585-.078.754-.091l-.052-.9a15.691,15.691,0,0,1-3.6.533c-.013-.689-.013-.689-.026-1.755a27.005,27.005,0,0,0,3.016-.312c.676-.091.676-.091.9-.1l-.065-.884a18.325,18.325,0,0,1-3.848.533,14.508,14.508,0,0,1,.091-1.833h-1a10.183,10.183,0,0,1,.065,1.872c-.429,0-.871.013-1.131.013a16.15,16.15,0,0,1-3.328-.26l-.013.884a1.062,1.062,0,0,1,.182-.013,1.577,1.577,0,0,1,.234.013c1.17.091,2.223.13,3.172.13.3,0,.507,0,.884-.013l.026,1.781c-.364.013-.819.013-1.157.013a15.955,15.955,0,0,1-2.977-.208l-.013.858h.1c.078,0,.182,0,.325.013.806.065,1.417.091,2.2.091.416,0,1.066-.013,1.534-.026.013.338.013.585.026.754.013.377.013.65.026.767a1.036,1.036,0,0,0,.013.143c0,.117,0,.117.013.156a5.782,5.782,0,0,0-1.17-.1,5.663,5.663,0,0,0-1.352.13c-1.144.26-1.82.936-1.82,1.794a1.7,1.7,0,0,0,.7,1.365,3.386,3.386,0,0,0,2.015.52,2.617,2.617,0,0,0,2.2-.819,2.258,2.258,0,0,0,.325-1.417,3.737,3.737,0,0,0-.026-.468c.351.143.65.273.871.39a10.461,10.461,0,0,1,2.652,1.859Zm-4.9-1.053a1.7,1.7,0,0,1-.26,1.17,1.878,1.878,0,0,1-1.43.429c-1.131,0-1.781-.39-1.781-1.079s.845-1.157,2.132-1.157a4.772,4.772,0,0,1,1.326.143Zm13.715-6.565c-.884.026-1.9.052-3.146.1-2.093.078-2.093.078-2.47.078-.195,0-.286,0-.52-.013l.039.949c.871-.143,3.5-.273,6.11-.325v.676c0,.156.013.286.013.338,0,.481,0,.533.013.715a2,2,0,0,0-1.508-.585,2.163,2.163,0,0,0-2.3,2.145,2.173,2.173,0,0,0,3.77,1.352,1.82,1.82,0,0,0,.351-.637,3.367,3.367,0,0,1-1.456,2.743,6.663,6.663,0,0,1-2.106.975,2.854,2.854,0,0,1,.572.819,8.269,8.269,0,0,0,2.054-1.053,4.184,4.184,0,0,0,1.742-3.393,3.725,3.725,0,0,0-.312-1.534V37.122c1.053-.026,1.2-.026,1.391-.026a23.106,23.106,0,0,1,2.483.065v-.923c-.429.052-1.43.078-3.887.091v-.143a10.761,10.761,0,0,1,.065-1.625h-.975a4.381,4.381,0,0,1,.052.754Zm-.039,3.8a1.457,1.457,0,0,1-1.521,1.534,1.256,1.256,0,0,1-1.339-1.287,1.376,1.376,0,0,1,1.443-1.365,1.663,1.663,0,0,1,.871.208A.941.941,0,0,1,148.33,40.138Zm7.215,1.807a1.95,1.95,0,1,0,1.95,1.95A1.947,1.947,0,0,0,155.545,41.945Zm0,.741a1.209,1.209,0,1,1-1.209,1.209A1.215,1.215,0,0,1,155.545,42.686Zm14.911-4a8.018,8.018,0,0,1,1.2-.078h5.3a6.654,6.654,0,0,1,1.209.078v-.793a7.724,7.724,0,0,1-1.209.078h-2.47v-.832h1.794a6.483,6.483,0,0,1,1.144.065v-.728a6.456,6.456,0,0,1-1.17.065h-1.768V35.77h2.2a6.852,6.852,0,0,1,1.144.065v-.767a8.152,8.152,0,0,1-1.17.078h-2.171a5,5,0,0,1,.078-.975h-.91a5.187,5.187,0,0,1,.078.975h-1.846a6.408,6.408,0,0,1-1.131-.065v.754a6.187,6.187,0,0,1,1.092-.065h1.885v.767h-1.56a5.937,5.937,0,0,1-1.079-.065V37.2a5.923,5.923,0,0,1,1.092-.065h1.547v.832h-2.08a7.923,7.923,0,0,1-1.131-.052v-.468a5.706,5.706,0,0,1-.91.052H169.2V35.354a11.388,11.388,0,0,0,1.092-.416,2.757,2.757,0,0,1,.312-.13l-.481-.676a1.932,1.932,0,0,1-.533.3,10.079,10.079,0,0,1-3.029.806,1.654,1.654,0,0,1,.338.676,13.253,13.253,0,0,0,1.534-.338V37.5h-.7a6.589,6.589,0,0,1-1.131-.065v.845a6.441,6.441,0,0,1,1.105-.065h.624a9.387,9.387,0,0,1-1.989,4.082,2.562,2.562,0,0,1,.494.676,8.873,8.873,0,0,0,1.677-3.575c-.052.7-.078,1.534-.078,2.145v2.925a10.5,10.5,0,0,1-.078,1.482h.923a9.966,9.966,0,0,1-.078-1.5V41.165c0-.533-.026-1.339-.065-1.963a6.305,6.305,0,0,0,1.04,2,2.577,2.577,0,0,1,.455-.624,5.688,5.688,0,0,1-1.4-2.366h.377a7.31,7.31,0,0,1,.858.039Zm5.759,5.278c.442,0,.728.013,1.118.039a8.58,8.58,0,0,1-.052-1.235v-2.34a7.938,7.938,0,0,1,.052-1.2c-.338.026-.6.039-1.157.039h-3.952c-.533,0-.845-.013-1.144-.039a7.746,7.746,0,0,1,.052,1.17V42.8a9.138,9.138,0,0,1-.052,1.2q.234-.02,1.17-.039Zm-4.329-4.069h4.641v.741h-4.641Zm0,1.313h4.641v.741h-4.641Zm0,1.313h4.641v.819h-4.641Zm.793,1.586a7.151,7.151,0,0,1-2.873,1.261,2.482,2.482,0,0,1,.494.676,8.149,8.149,0,0,0,2.951-1.456Zm2.431.494a9.734,9.734,0,0,0,2.925,1.43,2.986,2.986,0,0,1,.481-.715,9.785,9.785,0,0,1-2.9-1.222Zm5.915-7.917h-.611a5.6,5.6,0,0,1-.91-.052v.819a6.974,6.974,0,0,1,.91-.065h.52a12.4,12.4,0,0,1-1.807,4.576,2.574,2.574,0,0,1,.507.7A12.212,12.212,0,0,0,181.09,38.8c-.039.793-.065,1.443-.065,2v3.666a11.05,11.05,0,0,1-.078,1.508h.91a10.123,10.123,0,0,1-.078-1.482V40.4c0-.494-.013-.754-.052-1.885a6.938,6.938,0,0,0,.9,1.924,3.114,3.114,0,0,1,.4-.715,5.589,5.589,0,0,1-1.222-2.34h.338a4.236,4.236,0,0,1,.832.052v-.806a5.037,5.037,0,0,1-.845.052h-.351V35.445a8.694,8.694,0,0,1,.065-1.326h-.884a7.688,7.688,0,0,1,.065,1.339Zm8.7-1.222a13.335,13.335,0,0,1,1.365.065v-.858a9.121,9.121,0,0,1-1.378.078h-5.655a9.532,9.532,0,0,1-1.365-.078v.858a13.061,13.061,0,0,1,1.352-.065h1.43a8.518,8.518,0,0,1-.806,1.95c.494-.013.754-.026.767-.026h1.144a43.515,43.515,0,0,1-.221,4.888c-.143,1.144-.182,1.222-.663,1.222a6.242,6.242,0,0,1-1.248-.156,2.4,2.4,0,0,1,.143.793,11,11,0,0,0,1.131.065c.819,0,1.066-.195,1.248-1.014a32.4,32.4,0,0,0,.351-4.641c.039-1.339.039-1.339.065-1.846a7.5,7.5,0,0,1-1.04.039h-.52a9.8,9.8,0,0,0,.442-1.274Zm1.053,1.872c-.247.013-.468.026-.741.026h-1.443a6.644,6.644,0,0,1-1.027-.052v.767a3.26,3.26,0,0,1,.4-.039,9.956,9.956,0,0,0,1.014,3.471,6.661,6.661,0,0,1-1.82,1.963,1.859,1.859,0,0,1,.507.6,8.418,8.418,0,0,0,1.7-1.9A7.954,7.954,0,0,0,190.931,44a2.261,2.261,0,0,1,.455-.7,5.828,5.828,0,0,1-1.612-1.807,12.65,12.65,0,0,0,1.157-3.874Zm-.663.7a8.839,8.839,0,0,1-.741,2.73,7.9,7.9,0,0,1-.728-2.73Zm-7.618,7.462a9.917,9.917,0,0,1,1.326-.065h6.032a10.515,10.515,0,0,1,1.378.065V44.61a8.927,8.927,0,0,1-1.365.078h-6.032a9.259,9.259,0,0,1-1.339-.078Zm2.4-3c.221,0,.351,0,.715.026-.013-.273-.026-.455-.026-.663V38.721a4.838,4.838,0,0,1,.026-.689,7.214,7.214,0,0,1-.845.039h-.858a7.184,7.184,0,0,1-.793-.039,6.312,6.312,0,0,1,.039.728v2.964c0,.3-.013.546-.026.793.273-.013.455-.026.715-.026Zm-1.053-3.783H184.9v3.133h-1.053ZM194.155,36.2h-.377a7.279,7.279,0,0,1-.78-.039,9.7,9.7,0,0,1,.052,1.235v6.591a11.6,11.6,0,0,1-.065,1.586h.871V44.428h2.535v.832h.858a11.224,11.224,0,0,1-.065-1.339V37.3c0-.468.013-.806.039-1.144-.052,0-.429.013-1.144.039h-.845c.247-.572.416-1.053.663-1.794l-.923-.169a9.164,9.164,0,0,1-.559,1.963Zm-.3.715h2.535v2.9h-2.535Zm0,3.614h2.535V43.7h-2.535Zm9.23-3.575c-.013,1.911-.026,2.808-.091,3.848a14.781,14.781,0,0,1-.481,3.588c-.156.416-.338.533-.819.533a9.745,9.745,0,0,1-1.846-.221,2.408,2.408,0,0,1,.221.923c.832.065,1.183.091,1.664.091a1.34,1.34,0,0,0,1.443-.832c.468-1.04.637-2.782.754-7.93a5.135,5.135,0,0,1,.052-.819,8.375,8.375,0,0,1-1.144.052h-3.146c.195-.507.312-.806.494-1.326a4.557,4.557,0,0,1,.182-.494l-.9-.169a5.773,5.773,0,0,1-.338,1.261,9.439,9.439,0,0,1-1.911,3.276,2.654,2.654,0,0,1,.624.585,12.363,12.363,0,0,0,1.5-2.366Zm-1.573,4.9a15.061,15.061,0,0,0-2.054-3.237l-.663.4a13.658,13.658,0,0,1,1.976,3.289ZM207.4,34.86a7.238,7.238,0,0,1-.182,1.04,21.506,21.506,0,0,0-.585,5.148,18.632,18.632,0,0,0,.338,3.679c.039.247.052.312.078.52l.936-.078v-.195A11.332,11.332,0,0,1,209.04,41.4l-.624-.3a12.078,12.078,0,0,0-.845,2.535c-.052-.689-.078-1.456-.078-2.47a19.217,19.217,0,0,1,.39-4.069,18.473,18.473,0,0,1,.546-2.08Zm2.678,2.457a17.316,17.316,0,0,0,2.08.13,21.946,21.946,0,0,0,2.795-.169q.858-.117.9-.117l-.065-.923a13.949,13.949,0,0,1-3.484.351,8.83,8.83,0,0,1-2.21-.195Zm.949,2.535A3.591,3.591,0,0,0,209.9,42.27a1.837,1.837,0,0,0,.39,1.2,3.613,3.613,0,0,0,2.977.988,13.412,13.412,0,0,0,2.665-.26c.26-.039.286-.052.455-.065l-.13-1a8.556,8.556,0,0,1-2.99.455c-1.677,0-2.5-.468-2.5-1.43a3.02,3.02,0,0,1,.975-1.911ZM11.089,53.017a8.315,8.315,0,0,1-1.547,1.807,11.688,11.688,0,0,1-1.105-.988,17.106,17.106,0,0,0,1.586-1.69l-.676-.481a7.985,7.985,0,0,1-1.352,1.69,4.009,4.009,0,0,1-1.053-1.807,8.112,8.112,0,0,1-1.157.052H3.328a4.471,4.471,0,0,1-.936-.065v.819a8.171,8.171,0,0,1,.845-.065H5.6a8.867,8.867,0,0,1-1.612,1.937,17.707,17.707,0,0,0-1.9-1.612l-.572.52a14.1,14.1,0,0,1,1.9,1.586A11.409,11.409,0,0,1,.442,56.514a2.163,2.163,0,0,1,.494.689A12.525,12.525,0,0,0,4.42,54.85a10.406,10.406,0,0,0,2.041-2.483A8.791,8.791,0,0,0,8.294,54.72a11.735,11.735,0,0,0,3.731,2.431,2.608,2.608,0,0,1,.481-.741,9.232,9.232,0,0,1-2.405-1.2,14.05,14.05,0,0,0,1.079-1.053c.4-.455.4-.455.585-.65Zm-9.048,8.8A6.761,6.761,0,0,1,.78,61.74v.9a8.725,8.725,0,0,1,1.287-.078h8.905a8.8,8.8,0,0,1,1.3.078v-.9A8.3,8.3,0,0,1,11,61.818H8.45A12.373,12.373,0,0,0,9.269,60.4L8.5,60.05a8.953,8.953,0,0,1-.871,1.768H5.382a12.906,12.906,0,0,0-.832-1.7l-.767.273a8.527,8.527,0,0,1,.767,1.43Zm2.2-5.824a5.625,5.625,0,0,1,1.053-.065H7.735a5.487,5.487,0,0,1,1.027.065v-.819a5.091,5.091,0,0,1-1.014.065H5.265a5.32,5.32,0,0,1-1.027-.065ZM9.23,59.92c.442,0,.715.013,1.027.039a4.479,4.479,0,0,1-.052-.871V57.7a5.807,5.807,0,0,1,.052-.871,7.9,7.9,0,0,1-1.04.052H3.783a8.152,8.152,0,0,1-1.04-.052A6.4,6.4,0,0,1,2.8,57.7v1.391a6.526,6.526,0,0,1-.052.871c.3-.026.572-.039,1-.039ZM3.6,57.593H9.4v1.625H3.6ZM21.385,61.87c0,.26-.1.325-.546.325a7.657,7.657,0,0,1-1.222-.117,3.044,3.044,0,0,1,.169.819c.546.039.936.052,1.209.052.871,0,1.144-.234,1.144-.975V60.011c0-.728-.026-1.222-.078-2.405a7.989,7.989,0,0,0,.975,2.3,7.781,7.781,0,0,0,2.158,2.314,2.63,2.63,0,0,1,.559-.715,7.243,7.243,0,0,1-2.353-2.3,14.507,14.507,0,0,0,1.781-2.041l-.676-.455a8.132,8.132,0,0,1-1.456,1.885,8.59,8.59,0,0,1-.9-2.457V56.1h2.106a7.632,7.632,0,0,1,1.209.065v-.832a7.907,7.907,0,0,1-1.222.078h-.286c.091-1.118.13-1.716.169-2.392a9.23,9.23,0,0,1,.117-1.352,11.156,11.156,0,0,1-1.261.052H20.176a7.9,7.9,0,0,1-1.235-.065v.819a7.9,7.9,0,0,1,1.235-.065H23.4c-.026.624-.039.754-.052,1.144H20.423a6.244,6.244,0,0,1-1.118-.065v.793a6.7,6.7,0,0,1,1.118-.065H23.3c-.039.546-.039.572-.1,1.2H19.539a7.481,7.481,0,0,1-1.183-.078v.832a7.083,7.083,0,0,1,1.183-.065h1.846v2.977a15.561,15.561,0,0,1-3.094,1.963l-.026-.6c-.715.286-.975.377-1.547.559V57.2h.546a6.947,6.947,0,0,1,1.144.065v-.819a7.044,7.044,0,0,1-1.144.065h-.546V55.162h.442a5.7,5.7,0,0,1,.871.052v-.767a5.484,5.484,0,0,1-.871.052h-1.6a5.207,5.207,0,0,1-.858-.052,8.346,8.346,0,0,0,1.716-2.47,7.647,7.647,0,0,0,1.833,2.431,3.481,3.481,0,0,1,.468-.676,5.851,5.851,0,0,1-1.885-2.392h-.923a6.685,6.685,0,0,1-2.34,3.094,1.7,1.7,0,0,1,.468.637c.312-.273.429-.377.65-.6v.741a6.021,6.021,0,0,1,.845-.052h.442v1.352h-.884a7.814,7.814,0,0,1-1.222-.065v.819A8.042,8.042,0,0,1,15.08,57.2h.9v4a10.566,10.566,0,0,1-2.184.429l.169.871a7.538,7.538,0,0,1,.78-.221A26.764,26.764,0,0,0,18.3,61.155l.338.65c.169-.1.169-.1.39-.247,1.053-.676,1.053-.676,1.287-.845.364-.26.624-.455,1.066-.806Zm-6.019-1.339a16.487,16.487,0,0,0-.611-2.639l-.637.208a13.269,13.269,0,0,1,.572,2.665Zm2.392-.312A14.68,14.68,0,0,0,18.382,58l-.65-.247a8.36,8.36,0,0,1-.559,2.262Zm1.144-3.2a9.185,9.185,0,0,1,1.092,2.132l.637-.4a12.921,12.921,0,0,0-1.105-2.028ZM29.016,51.86a4,4,0,0,1,.052.689c0,.208,0,.455-.013.845-.1,4.095-.117,4.42-.117,5.291a3.621,3.621,0,0,0,.715,2.665,3.083,3.083,0,0,0,2.444.91,4.552,4.552,0,0,0,3.666-1.625,7.908,7.908,0,0,0,1.443-2.951,3.677,3.677,0,0,1-.936-.624,7.723,7.723,0,0,1-.637,2.041,3.733,3.733,0,0,1-3.484,2.262,2.454,2.454,0,0,1-1.625-.507,2.046,2.046,0,0,1-.611-1.56c-.013-.3-.026-.624-.026-.78,0-.585.039-2.353.091-3.913a20.044,20.044,0,0,1,.169-2.743Zm10.543,2.587a38.185,38.185,0,0,1,4.485-.429,25.192,25.192,0,0,0,2.86-.286,8.509,8.509,0,0,0-1.235.689,4.928,4.928,0,0,0-2.431,3.991,3.164,3.164,0,0,0,1.443,2.652,6.557,6.557,0,0,0,2.808,1c.208.039.26.052.4.078l.169-1.053h-.13a6.663,6.663,0,0,1-1.95-.416,2.549,2.549,0,0,1-1.82-2.4,3.973,3.973,0,0,1,1.6-3,6.6,6.6,0,0,1,2.5-1.313,6.029,6.029,0,0,1,1.456-.169l-.078-.975a8.726,8.726,0,0,1-1.547.143c-1.677.078-5.837.312-7.384.429-.4.026-.559.039-.741.039h-.468Zm13.429-1.664a7.034,7.034,0,0,1,.039.767c.065,3.2.247,4.862.7,6.1s1.118,1.976,1.846,1.976c.923,0,1.521-.871,2.158-3.146a4.156,4.156,0,0,1-.767-.741,9.353,9.353,0,0,1-.676,2.223c-.195.429-.416.65-.65.65-.494,0-1.027-.9-1.313-2.223a22.262,22.262,0,0,1-.338-4.043A9.423,9.423,0,0,1,54.08,52.8Zm6.578,1.1a11.481,11.481,0,0,1,2.7,6.409l.923-.377a12.448,12.448,0,0,0-.975-3.471,11.284,11.284,0,0,0-1.859-2.964Zm6.669.546a7.1,7.1,0,0,1,.806-.039,27.656,27.656,0,0,0,3.51-.234c.325.7.4.845.741,1.482a25.9,25.9,0,0,1-4.1.325,10.1,10.1,0,0,1-1.04-.039l.026.858c.234-.026.286-.026.91-.052a27.084,27.084,0,0,0,4.563-.377,11.915,11.915,0,0,0,1.391,2,7.814,7.814,0,0,0-2.626-.377c-2.47,0-3.965.845-3.965,2.249a1.816,1.816,0,0,0,.975,1.612,5.246,5.246,0,0,0,2.678.546,11.323,11.323,0,0,0,3.328-.481,7.571,7.571,0,0,1,.78-.221l-.182-1.014a8.763,8.763,0,0,1-3.848.871c-1.781,0-2.769-.468-2.769-1.326,0-.9,1.209-1.482,3.081-1.482a13.143,13.143,0,0,1,1.7.117,3.525,3.525,0,0,1,1.43.494L74.4,58.8a15.238,15.238,0,0,1-1.911-2.587c.481-.091,1.131-.234,2.041-.468.429-.117.481-.117.7-.169l-.1-.871a13.224,13.224,0,0,1-2.977.806c-.195-.351-.546-1.04-.741-1.469.728-.117,2.119-.416,3.276-.728l-.078-.845a16.446,16.446,0,0,1-3.471.858,10.828,10.828,0,0,1-.689-1.833l-.975.169a16.834,16.834,0,0,1,.78,1.781,25.685,25.685,0,0,1-3.081.182c-.442,0-.663-.013-.975-.039ZM88.6,60.96a4.444,4.444,0,0,1-.442-.3,11.379,11.379,0,0,0-3.627-1.9c-.052-1.261-.052-1.261-.078-1.989.962-.065,1.989-.169,2.886-.312.455-.065.585-.078.754-.091l-.052-.9a15.691,15.691,0,0,1-3.6.533c-.013-.689-.013-.689-.026-1.755a27.005,27.005,0,0,0,3.016-.312c.676-.091.676-.091.9-.1l-.065-.884a18.326,18.326,0,0,1-3.848.533,14.509,14.509,0,0,1,.091-1.833h-1a10.179,10.179,0,0,1,.065,1.872c-.429,0-.871.013-1.131.013a16.15,16.15,0,0,1-3.328-.26l-.013.884a1.062,1.062,0,0,1,.182-.013,1.577,1.577,0,0,1,.234.013c1.17.091,2.223.13,3.172.13.3,0,.507,0,.884-.013l.026,1.781c-.364.013-.819.013-1.157.013a15.955,15.955,0,0,1-2.977-.208l-.013.858h.1c.078,0,.182,0,.325.013.806.065,1.417.091,2.2.091.416,0,1.066-.013,1.534-.026.013.338.013.585.026.754.013.377.013.65.026.767a1.036,1.036,0,0,0,.013.143c0,.117,0,.117.013.156a5.782,5.782,0,0,0-1.17-.1,5.663,5.663,0,0,0-1.352.13c-1.144.26-1.82.936-1.82,1.794a1.7,1.7,0,0,0,.7,1.365,3.386,3.386,0,0,0,2.015.52,2.617,2.617,0,0,0,2.2-.819,2.257,2.257,0,0,0,.325-1.417,3.737,3.737,0,0,0-.026-.468c.351.143.65.273.871.39a10.461,10.461,0,0,1,2.652,1.859Zm-4.9-1.053a1.7,1.7,0,0,1-.26,1.17,1.878,1.878,0,0,1-1.43.429c-1.131,0-1.781-.39-1.781-1.079s.845-1.157,2.132-1.157a4.772,4.772,0,0,1,1.326.143Zm9.542-8.047a4,4,0,0,1,.052.689c0,.208,0,.455-.013.845-.1,4.095-.117,4.42-.117,5.291a3.621,3.621,0,0,0,.715,2.665,3.083,3.083,0,0,0,2.444.91,4.552,4.552,0,0,0,3.666-1.625,7.908,7.908,0,0,0,1.443-2.951,3.677,3.677,0,0,1-.936-.624,7.723,7.723,0,0,1-.637,2.041,3.733,3.733,0,0,1-3.484,2.262,2.454,2.454,0,0,1-1.625-.507,2.046,2.046,0,0,1-.611-1.56c-.013-.3-.026-.624-.026-.78,0-.585.039-2.353.091-3.913a20.043,20.043,0,0,1,.169-2.743Zm15.912,1.885a2.276,2.276,0,0,1,.052.416l.013,1.417c.013,1.3.026,1.69.078,2.574.052,1.079.052,1.079.065,1.131a.583.583,0,0,0,.013.156,3.374,3.374,0,0,0-.975-.13,4.324,4.324,0,0,0-1.56.286,1.518,1.518,0,0,0-.988,1.4,1.413,1.413,0,0,0,.481,1.066,2.566,2.566,0,0,0,1.729.494,2.246,2.246,0,0,0,1.859-.663,2.011,2.011,0,0,0,.3-1.053,4.372,4.372,0,0,0-.026-.468,1.486,1.486,0,0,0,.208.1,8.157,8.157,0,0,1,2.509,1.7l.507-.806a2.522,2.522,0,0,1-.312-.195c-.793-.559-.91-.637-1.248-.845a9.523,9.523,0,0,0-1.677-.754c-.078-1.131-.1-1.833-.13-2.678a17.441,17.441,0,0,0,2.392-.195c.559-.078.559-.078.7-.091l-.091-.832a10.646,10.646,0,0,1-3.029.39c-.013-.572-.013-.871-.013-.91a7.1,7.1,0,0,1,.078-1.508Zm.234,6.409a3.283,3.283,0,0,1,.039.507,1.3,1.3,0,0,1-.169.754,1.5,1.5,0,0,1-1.235.39c-.871,0-1.339-.286-1.339-.819,0-.6.611-.962,1.638-.962A4.5,4.5,0,0,1,109.382,60.154Zm10.439-7.514a23.666,23.666,0,0,0,5.46.858l.143-.936a16.4,16.4,0,0,1-5.291-.806Zm-1.352,4.225a18.154,18.154,0,0,1,4.953-.871,3.621,3.621,0,0,1,1.6.286,1.577,1.577,0,0,1,.832,1.456,2.91,2.91,0,0,1-.663,1.768,3.182,3.182,0,0,1-1.118.923,8.253,8.253,0,0,1-3.653,1.053,3.3,3.3,0,0,1,.416.949,9.984,9.984,0,0,0,3.77-1.235,4.142,4.142,0,0,0,2.236-3.51,2.312,2.312,0,0,0-1.105-2.067,4.134,4.134,0,0,0-2.236-.494,21.721,21.721,0,0,0-3.965.468,10.229,10.229,0,0,1-1.313.221Zm13.416,2.08a1.95,1.95,0,1,0,1.95,1.95A1.947,1.947,0,0,0,131.885,58.945Zm0,.741a1.209,1.209,0,1,1-1.209,1.209A1.215,1.215,0,0,1,131.885,59.686Z" transform="translate(983.133 1010.145)" fill="#1b1311"/>
    <g id="グループ_62007" data-name="グループ 62007" transform="translate(381.379 -116.625)">
      <g id="長方形_13522" data-name="長方形 13522" transform="translate(720.552 1068.75)" fill="#fff" stroke="#707070" stroke-width="1">
        <rect id="fill" width="0.541" height="0.541" stroke="none"/>
        <path d="M0,0.04125553369522095h0.541255533695221M0.5,0v0.541255533695221M0.541255533695221,0.5h-0.541255533695221M0.04125553369522095,0.541255533695221v-0.541255533695221" fill="none" clip-path="url(#clip)"/>
      </g>
      <path id="パス_51327" data-name="パス 51327" d="M21.1,10.7a21.89,21.89,0,0,1,37.632,0L76.651,40.653c8.817,14.738-1.726,33.52-18.816,33.52H22c-17.09,0-27.633-18.783-18.816-33.52Z" transform="matrix(0.961, 0.276, -0.276, 0.961, 684.879, 1013)" fill="#ffc2b9"/>
      <path id="パス_51326" data-name="パス 51326" d="M21.318,10.742a22.191,22.191,0,0,1,38.02,0L77.44,40.8A22.191,22.191,0,0,1,58.43,74.44h-36.2A22.191,22.191,0,0,1,3.216,40.8Z" transform="translate(739.152 1115.497) rotate(-164)" fill="#ff8977" opacity="0.6"/>
      <g id="グループ_2793" data-name="グループ 2793" transform="translate(712.675 1058.026) rotate(8)">
        <g id="グループ_2792" data-name="グループ 2792" clip-path="url(#clip-path)">
          <path id="パス_5698" data-name="パス 5698" d="M5.67,1.62H.81A.81.81,0,1,1,.81,0H5.67a.81.81,0,1,1,0,1.62" transform="translate(6.48 10.936)"/>
          <path id="パス_5699" data-name="パス 5699" d="M3.24,1.62H.81A.81.81,0,1,1,.81,0H3.24a.81.81,0,1,1,0,1.62" transform="translate(6.48 14.176)"/>
          <path id="パス_5700" data-name="パス 5700" d="M5.67,5.265H.81A.81.81,0,0,1,0,4.455V.81A.81.81,0,0,1,.81,0H5.67a.81.81,0,0,1,.81.81V4.455a.81.81,0,0,1-.81.81M1.62,3.645H4.86V1.62H1.62Z" transform="translate(6.48 4.05)"/>
          <path id="パス_5701" data-name="パス 5701" d="M12.961,19.441H1.62A1.622,1.622,0,0,1,0,17.821V1.62A1.622,1.622,0,0,1,1.62,0H12.961a.81.81,0,1,1,0,1.62H1.62v16.2H12.961V3.58a.81.81,0,0,1,1.62,0V17.821a1.622,1.622,0,0,1-1.62,1.62" transform="translate(2.43 0)"/>
        </g>
      </g>
      <g id="グループ_2795" data-name="グループ 2795" transform="matrix(0.985, -0.174, 0.174, 0.985, 691.866, 1054.234)">
        <g id="グループ_2794" data-name="グループ 2794" clip-path="url(#clip-path)">
          <path id="パス_5702" data-name="パス 5702" d="M8.506,11.746H1.58A1.582,1.582,0,0,1,0,10.166V.81a.81.81,0,0,1,1.62,0v9.316H8.506a.81.81,0,1,1,0,1.62" transform="translate(1.62 7.695)"/>
          <path id="パス_5703" data-name="パス 5703" d="M11.341,16.2H1.62A1.622,1.622,0,0,1,0,14.581V1.62A1.622,1.622,0,0,1,1.62,0h9.721a.81.81,0,1,1,0,1.62H1.62V14.581h9.721V3.427a.81.81,0,0,1,1.62,0V14.581a1.622,1.622,0,0,1-1.62,1.62" transform="translate(4.86 0)"/>
          <path id="パス_5704" data-name="パス 5704" d="M4.05,1.62H.81A.81.81,0,1,1,.81,0H4.05a.81.81,0,1,1,0,1.62" transform="translate(8.911 4.05)"/>
          <path id="パス_5705" data-name="パス 5705" d="M4.05,1.62H.81A.81.81,0,1,1,.81,0H4.05a.81.81,0,1,1,0,1.62" transform="translate(8.911 7.29)"/>
          <path id="パス_5706" data-name="パス 5706" d="M1.62,1.62H.81A.81.81,0,1,1,.81,0h.81a.81.81,0,1,1,0,1.62" transform="translate(8.911 10.531)"/>
        </g>
      </g>
    </g>
  </g>
</svg>
