<svg xmlns="http://www.w3.org/2000/svg" xmlns:xlink="http://www.w3.org/1999/xlink" width="273.193" height="276.591" viewBox="0 0 273.193 276.591">
  <defs>
    <filter id="パス_106485" x="0" y="0" width="273.193" height="276.591" filterUnits="userSpaceOnUse">
      <feOffset dy="3" input="SourceAlpha"/>
      <feGaussianBlur stdDeviation="3" result="blur"/>
      <feFlood flood-opacity="0.161"/>
      <feComposite operator="in" in2="blur"/>
      <feComposite in="SourceGraphic"/>
    </filter>
    <clipPath id="clip-path">
      <rect id="長方形_1379" data-name="長方形 1379" width="27.568" height="26.036" transform="translate(0)"/>
    </clipPath>
    <clipPath id="clip-path-2">
      <rect id="長方形_1367" data-name="長方形 1367" width="20.789" height="20.789"/>
    </clipPath>
    <clipPath id="clip">
      <use xlink:href="#fill"/>
    </clipPath>
  </defs>
  <g id="グループ_62114" data-name="グループ 62114" transform="translate(-675 -1118.152)">
    <g transform="matrix(1, 0, 0, 1, 675, 1118.15)" filter="url(#パス_106485)">
      <path id="パス_106485-2" data-name="パス 106485" d="M4.252,0H250.941a4.252,4.252,0,0,1,4.252,4.252V254.339a4.252,4.252,0,0,1-4.252,4.252H4.252A4.252,4.252,0,0,1,0,254.339V4.252A4.252,4.252,0,0,1,4.252,0Z" transform="translate(9 6)" fill="#fff"/>
    </g>
    <path id="パス_106494" data-name="パス 106494" d="M-61.32-11.88a21.871,21.871,0,0,1-3.26,4.74,18.246,18.246,0,0,1-4.68,4.06,3.773,3.773,0,0,1,.94,1.18,21.4,21.4,0,0,0,3.8-3.36,18.7,18.7,0,0,0,3.78-5.78c-.06,1.08-.08,1.84-.08,2.58v4.54h-1.96a12.047,12.047,0,0,1-1.98-.1v1.4a11.225,11.225,0,0,1,2.02-.12h1.92V-.86a15.871,15.871,0,0,1-.14,2.32h1.58a14.879,14.879,0,0,1-.14-2.3v-1.9h2.14a11,11,0,0,1,1.98.12v-1.4a11.79,11.79,0,0,1-1.94.1h-2.18V-8.46c0-.66-.02-1.4-.08-2.6a19.035,19.035,0,0,0,3.74,5.62,22.7,22.7,0,0,0,4.16,3.5,5.3,5.3,0,0,1,.92-1.3,20.792,20.792,0,0,1-8.24-8.64h5.4a21.584,21.584,0,0,1,2.24.12v-1.46a13.1,13.1,0,0,1-2.24.14h-5.9V-14.8a10.75,10.75,0,0,1,.14-1.8h-1.58a11.331,11.331,0,0,1,.14,1.82v1.7h-5.6a14.894,14.894,0,0,1-2.2-.14v1.46a19.732,19.732,0,0,1,2.2-.12Zm20.5-4.5a13.656,13.656,0,0,1,.08,1.76c0,4.92-1.36,8.76-4.14,11.74A14.122,14.122,0,0,1-48.96.14a3.815,3.815,0,0,1,1.08,1.18A17.008,17.008,0,0,0-44.2-1.6a13.452,13.452,0,0,0,2.86-4.1,16.942,16.942,0,0,0,1.38-4.46,17.256,17.256,0,0,0,2.6,6.36,18.316,18.316,0,0,0,5.3,5.12A4.551,4.551,0,0,1-31.02.06,14.729,14.729,0,0,1-33.34-1.5,17.681,17.681,0,0,1-36.3-4.66a17.506,17.506,0,0,1-2.58-5.6,25.953,25.953,0,0,1-.44-4.34,13.608,13.608,0,0,1,.1-1.78ZM-15.6-.5V-2.86h1.84a13.852,13.852,0,0,1,1.78.1V-4a10.9,10.9,0,0,1-1.82.1h-1.8V-6.06h1.84a13.852,13.852,0,0,1,1.78.1V-7.2a10.9,10.9,0,0,1-1.82.1h-1.8V-9.28h2.12a14.459,14.459,0,0,1,1.78.1v-1.24a10.9,10.9,0,0,1-1.82.1h-1.76c.06-.12.06-.12.28-.6.16-.38.28-.64.34-.78a6.026,6.026,0,0,1,.24-.6l-1.22-.3a9.893,9.893,0,0,1-.84,2.28h-2.7a16.383,16.383,0,0,0,1.64-3.12h5.12v2.2h1.28a6.173,6.173,0,0,1-.08-1.1v-1a11.012,11.012,0,0,1,.06-1.32,14.628,14.628,0,0,1-2,.1h-3.96c.12-.36.2-.56.32-.94.24-.72.24-.72.36-1.04l-1.32-.24a17.653,17.653,0,0,1-.58,2.22H-20.5a15.942,15.942,0,0,1-1.76-.04c.04.56.04.68.04,1.04v1.16a6.645,6.645,0,0,1-.08,1.2h1.24v-2.24h2.3a13.826,13.826,0,0,1-.72,1.56,15.559,15.559,0,0,1-3.56,4.64,3.676,3.676,0,0,1,.76,1.04A10.518,10.518,0,0,0-20.9-7.9c-.02.16-.04.82-.08,1.98v5.4a14.664,14.664,0,0,1-.12,2.1h1.26v-1h6.66a14.911,14.911,0,0,1,1.9.12V-.6a12.3,12.3,0,0,1-1.9.1Zm-4.24-6.6V-9.28h3.1V-7.1Zm0,1.04h3.1V-3.9h-3.1Zm0,3.2h3.1V-.5h-3.1Zm-6.5-11.8a19.674,19.674,0,0,1-.78,3.56,13.951,13.951,0,0,1-2.44,4.84,3.383,3.383,0,0,1,.72,1.12,10.174,10.174,0,0,0,1.36-2.52c-.04.62-.1,1.92-.1,2.16V-.94A11.848,11.848,0,0,1-27.7.98h1.3V-1.1h2.18v.98h1.2A12.885,12.885,0,0,1-23.1-1.8V-8a12.279,12.279,0,0,1,.08-1.62,7.748,7.748,0,0,1-1.24.08h-2.2a25.462,25.462,0,0,0,1.34-5.12h1.14a11.081,11.081,0,0,1,1.46.08V-15.9a10.513,10.513,0,0,1-1.68.12h-2.78a11.868,11.868,0,0,1-1.78-.12v1.36a8.235,8.235,0,0,1,1.7-.12Zm-.06,6.22h2.18V-2.2H-26.4Zm25.12-4.02A21.879,21.879,0,0,1,1.36-11.4,7.66,7.66,0,0,1-2.42-7.74a3.707,3.707,0,0,1,.88.96,9.676,9.676,0,0,0,3.92-4.08A13.4,13.4,0,0,1,4.32-9.62l.66-.98c-1.02-.64-1.4-.84-2.2-1.26a12.853,12.853,0,0,0,.58-2.64H6.98a23.978,23.978,0,0,1-.5,4.64c-.22.86-.4,1.04-1.1,1.04A9.059,9.059,0,0,1,3.5-9.04a3.62,3.62,0,0,1,.3,1.26,16,16,0,0,0,1.64.1c1.08,0,1.5-.16,1.8-.72.5-.9.82-3,.98-6.32.04-.56.04-.68.08-.96a15.649,15.649,0,0,1-1.86.08H.32a12.741,12.741,0,0,1-2.02-.12v1.34a10.352,10.352,0,0,1,2-.12H2.18a11.444,11.444,0,0,1-.44,2.14A23.057,23.057,0,0,0-.7-13.32Zm-7-2.14a9.677,9.677,0,0,1,1.44-.08h2.6a10.026,10.026,0,0,1,1.44.08v-1.26a7.114,7.114,0,0,1-1.44.1h-2.6a7,7,0,0,1-1.44-.1ZM-9-11.8a11.764,11.764,0,0,1,1.6-.08h3.6a14.082,14.082,0,0,1,1.46.06V-13.1a7.918,7.918,0,0,1-1.6.1H-7.4A8.417,8.417,0,0,1-9-13.1Zm.78,2.76a7.932,7.932,0,0,1,1.36-.08h2.68a8.437,8.437,0,0,1,1.34.08v-1.24a7.386,7.386,0,0,1-1.34.08H-6.86a7.932,7.932,0,0,1-1.36-.08Zm0,2.76a8.39,8.39,0,0,1,1.36-.08h2.68a8.437,8.437,0,0,1,1.34.08V-7.52a7.528,7.528,0,0,1-1.34.08H-6.86a8.082,8.082,0,0,1-1.36-.08Zm1.3,7.74V.34h2.8V1.2H-2.9A9.3,9.3,0,0,1-3-.44V-3.26a14.154,14.154,0,0,1,.06-1.56,11.437,11.437,0,0,1-1.46.06H-6.52a11.529,11.529,0,0,1-1.62-.08A13.214,13.214,0,0,1-8.06-3.2V-.48c0,.68-.04,1.32-.1,1.94Zm-.02-5.2h2.82V-.7H-6.94Zm5.62-1.34A10.633,10.633,0,0,1-2.6-.56L-1.52,0A14.309,14.309,0,0,0-.18-4.84ZM1.9-3.86A6.168,6.168,0,0,1,2.02-5.4H.6A10.088,10.088,0,0,1,.72-3.78V-.2c0,1.04.44,1.26,2.46,1.26s2.6-.1,3-.5S6.8-.68,6.96-2.5a3.583,3.583,0,0,1-1.14-.42,12.31,12.31,0,0,1-.16,1.7C5.54-.38,5.38-.18,4.7-.1c-.2.02-1.12.06-1.58.06C2.1-.04,1.9-.12,1.9-.54Zm4.44-.96A16.007,16.007,0,0,1,8.7-.48l1.06-.66A17.888,17.888,0,0,0,7.32-5.36ZM1.22-7.18A11.033,11.033,0,0,1,4.4-4.44l.9-.84A16.4,16.4,0,0,0,2.08-7.9ZM11.9-11.66a66.582,66.582,0,0,1,6.9-.66,40.932,40.932,0,0,0,4.4-.44,13.092,13.092,0,0,0-1.9,1.06c-2.38,1.62-3.74,3.82-3.74,6.14a4.842,4.842,0,0,0,2.22,4.08A10.088,10.088,0,0,0,24.1.06c.36.06.4.08.62.12l.26-1.62h-.2a10.251,10.251,0,0,1-3-.64,3.921,3.921,0,0,1-2.8-3.7,6.113,6.113,0,0,1,2.46-4.62,9.837,9.837,0,0,1,3.84-2,8.389,8.389,0,0,1,2.24-.28l-.12-1.48a13.508,13.508,0,0,1-2.38.22l-1.14.04c-.66.02-.92.04-3.38.18l-3.14.2c-2.46.14-2.58.16-3.7.24-.62.04-.86.06-1.14.06-.14,0-.34,0-.72-.02ZM24.18-9.74a14.065,14.065,0,0,1,2.04,3.18l1.02-.6a15.183,15.183,0,0,0-2.06-3.1Zm2.28-1.08A15.827,15.827,0,0,1,28.5-7.68l1-.56a16.208,16.208,0,0,0-2.06-3.12Zm6.64-.82a10.914,10.914,0,0,1,1.24-.06,42.548,42.548,0,0,0,5.4-.36c.5,1.08.62,1.3,1.14,2.28a39.842,39.842,0,0,1-6.3.5,15.544,15.544,0,0,1-1.6-.06l.04,1.32c.36-.04.44-.04,1.4-.08a41.667,41.667,0,0,0,7.02-.58A18.331,18.331,0,0,0,43.58-5.6a12.022,12.022,0,0,0-4.04-.58c-3.8,0-6.1,1.3-6.1,3.46a2.794,2.794,0,0,0,1.5,2.48A8.07,8.07,0,0,0,39.06.6a17.42,17.42,0,0,0,5.12-.74,11.646,11.646,0,0,1,1.2-.34L45.1-2.04A13.482,13.482,0,0,1,39.18-.7c-2.74,0-4.26-.72-4.26-2.04,0-1.38,1.86-2.28,4.74-2.28a20.22,20.22,0,0,1,2.62.18,5.422,5.422,0,0,1,2.2.76l1.18-.84A23.442,23.442,0,0,1,42.72-8.9c.74-.14,1.74-.36,3.14-.72.66-.18.74-.18,1.08-.26l-.16-1.34A20.345,20.345,0,0,1,42.2-9.98c-.3-.54-.84-1.6-1.14-2.26,1.12-.18,3.26-.64,5.04-1.12l-.12-1.3a25.3,25.3,0,0,1-5.34,1.32,16.657,16.657,0,0,1-1.06-2.82l-1.5.26a25.9,25.9,0,0,1,1.2,2.74,39.516,39.516,0,0,1-4.74.28c-.68,0-1.02-.02-1.5-.06ZM54.82-13.4a9.853,9.853,0,0,1,1.08-.1c3.04-.1,5.44-.24,6.08-.36a.774.774,0,0,1,.18-.02l.04.04-.08.08-.08.08-.28.28c-1.38,1.36-4.54,4.14-6.68,5.84a22.281,22.281,0,0,1-2.8,2.04l.9,1.28A12.835,12.835,0,0,1,61.6-7.66c2.7,0,4.3,1.14,4.3,3.06,0,1.7-1.1,2.92-3.2,3.5a5.725,5.725,0,0,0-.92-1.92,4.028,4.028,0,0,0-3.3-1.64c-1.66,0-2.9,1-2.9,2.34C55.58-.48,57.2.56,60.02.56c4.44,0,7.34-2.06,7.34-5.18,0-2.56-2.14-4.2-5.48-4.2a10.134,10.134,0,0,0-4.9,1.24l-.04-.06a51.319,51.319,0,0,0,6.58-5.68,3.691,3.691,0,0,1,1.02-.84l-.84-1.1a2.045,2.045,0,0,1-.96.22c-1.8.14-4.46.26-6.12.26a9.236,9.236,0,0,1-1.88-.12ZM61.38-.74a7.2,7.2,0,0,1-1.46.14,5.11,5.11,0,0,1-2.24-.46,1.365,1.365,0,0,1-.8-1.22c0-.76.62-1.24,1.62-1.24C59.94-3.52,60.94-2.56,61.38-.74Zm-102,9.32h-5.94a14.461,14.461,0,0,1-2.22-.12v1.2a15.993,15.993,0,0,1,2.22-.1h5.94V10.8h-4.26a12.688,12.688,0,0,1-1.96-.1v1.16a12.818,12.818,0,0,1,1.98-.1h4.24v1.16h-4.6a13.242,13.242,0,0,1-2.02-.1V14a13.732,13.732,0,0,1,2.02-.1h4.6v1.22h-5.94A14.587,14.587,0,0,1-48.8,15v1.26a17.771,17.771,0,0,1,2.24-.12h13.22a17.653,17.653,0,0,1,2.22.12V15a14.283,14.283,0,0,1-2.22.12h-6.1V13.9h4.82a13.765,13.765,0,0,1,2,.1V12.82a12.95,12.95,0,0,1-2,.1h-4.82V11.76h4.08a20.873,20.873,0,0,1,2.18.08,14.809,14.809,0,0,1-.06-1.66V9.56a14.2,14.2,0,0,1,2.16.1V8.46a12.3,12.3,0,0,1-2.06.12h-.1V8.14a15.316,15.316,0,0,1,.06-1.74,20.942,20.942,0,0,1-2.24.08h-4.02a5.907,5.907,0,0,1,.14-1.36h-1.44a8.588,8.588,0,0,1,.12,1.36h-4.16a10.965,10.965,0,0,1-2.02-.12v1.2a12.75,12.75,0,0,1,1.92-.1h4.26Zm1.18,0V7.46h5.02V8.58Zm0,.98h5.02V10.8h-5.02Zm-6.74,11.92a12.065,12.065,0,0,1-.12,1.96h1.34v-.76h10.08v.76h1.36a9.3,9.3,0,0,1-.12-1.96V19.06a12.992,12.992,0,0,1,.08-1.92,17.577,17.577,0,0,1-2.34.06h-8.04a17.377,17.377,0,0,1-2.32-.06,13.57,13.57,0,0,1,.08,1.9Zm1.22-3.3h10.08v1.24H-44.96Zm0,2.2h10.08V21.7H-44.96Zm22.9-2.8a14.779,14.779,0,0,1,1.82.1V16.4a9.79,9.79,0,0,1-1.8.12H-24c.04-.3.04-.44.06-.68a3.788,3.788,0,0,1,.08-.88h-1.32a3.418,3.418,0,0,1,.08.84,4.854,4.854,0,0,1-.04.72h-2.02a10.967,10.967,0,0,1-1.78-.12v1.28a10.778,10.778,0,0,1,1.8-.1h1.84a5.181,5.181,0,0,1-1.08,2.34,7.476,7.476,0,0,1-2.8,2.04,3.378,3.378,0,0,1,.86.98,7.275,7.275,0,0,0,3.94-4.48,7.516,7.516,0,0,0,3,3.2,3.747,3.747,0,0,1,.72-1.1,6.4,6.4,0,0,1-3.16-2.98ZM-23.94,9.7V6.94a8.34,8.34,0,0,1,.1-1.34h-1.3a6.774,6.774,0,0,1,.1,1.34V9.7h-2.22a8.4,8.4,0,0,1-1.62-.1v1.22a8.441,8.441,0,0,1,1.58-.1h1.76a9.731,9.731,0,0,1-3.7,3.34,2.975,2.975,0,0,1,.7,1.02,11.764,11.764,0,0,0,3.56-3.6c-.04.44-.06.82-.06,1.22v.68a5.8,5.8,0,0,1-.08,1.08h1.26a5.372,5.372,0,0,1-.08-1.1V12.7c0-.42-.02-.9-.06-1.3a10.165,10.165,0,0,0,3.14,3.04,3.447,3.447,0,0,1,.64-1,9.769,9.769,0,0,1-3.26-2.72h1.88a7,7,0,0,1,1.32.08V9.62a5.533,5.533,0,0,1-1.34.08Zm7.84-2.4a11.59,11.59,0,0,1-.72,2.18h-.9c-.88,0-1.22-.02-1.74-.06a16.463,16.463,0,0,1,.08,1.88v6.62c0,.7-.02,1.26-.06,1.8.64-.04,1.08-.06,1.72-.06h4.3c.66,0,1.1.02,1.72.06-.04-.5-.06-1.14-.06-1.9V11.26c0-.78.02-1.36.06-1.86a12.81,12.81,0,0,1-1.8.08h-2.1a16.623,16.623,0,0,0,.78-2.18h1.98a10.152,10.152,0,0,1,1.94.12V6.06a11.3,11.3,0,0,1-1.94.12h-5.24a10.135,10.135,0,0,1-1.96-.12V7.42a9.457,9.457,0,0,1,1.9-.12Zm-2.12,3.24h5.3v1.9h-5.3Zm0,2.96h5.3v1.98h-5.3Zm0,3.04h5.3v2.04h-5.3Zm-10.28-10a10.55,10.55,0,0,1,1.54,2.72l1-.48a14.746,14.746,0,0,0-1.58-2.7Zm7-.52A9.169,9.169,0,0,1-23.16,8.8l.88.54a16.248,16.248,0,0,0,1.76-2.8Zm3.76,14.04a6.482,6.482,0,0,1-1.86,1.6,9.875,9.875,0,0,1-2.06,1.02,5.683,5.683,0,0,1,.86,1.02,12.19,12.19,0,0,0,4-2.86Zm2.74.72a16.922,16.922,0,0,0,3.62,2.9,4.338,4.338,0,0,1,.86-1.04,12.041,12.041,0,0,1-3.54-2.6ZM4.56,6.3A15.33,15.33,0,0,1,6.62,9.48l1-.6a15.183,15.183,0,0,0-2.06-3.1ZM-8.32,12.46a26.035,26.035,0,0,1,4.02-.72A29.514,29.514,0,0,1-8.58,21.7l1.36.8A38.844,38.844,0,0,0-2.9,11.62a11.483,11.483,0,0,1,1.44-.1C.4,11.52,1,12.2,1,14.32a15.482,15.482,0,0,1-.84,5.56q-.39.96-1.14.96a7.476,7.476,0,0,1-2.98-.92,3.691,3.691,0,0,1,.06.78,4.469,4.469,0,0,1-.04.72,7.524,7.524,0,0,0,3.02.78,2.089,2.089,0,0,0,1.96-.94c.82-1.16,1.34-3.82,1.34-6.88,0-1.64-.28-2.56-.98-3.22a3.822,3.822,0,0,0-2.88-.84,11.656,11.656,0,0,0-1.18.06c.16-.86.34-1.78.42-2.28a12.3,12.3,0,0,1,.38-1.92L-3.46,6v.26a24.7,24.7,0,0,1-.6,4.24,41.027,41.027,0,0,1-4.42.52ZM6.84,5.24A14.485,14.485,0,0,1,8.88,8.38l1-.58A16.064,16.064,0,0,0,7.82,4.7ZM3.48,9.8a16.889,16.889,0,0,1,4.08,7.18l1.28-.72A18.315,18.315,0,0,0,4.66,9.18ZM22.72,6.68a7.63,7.63,0,0,1,.14-1.62H21.44a7.213,7.213,0,0,1,.12,1.62H18.38v-.1a6.9,6.9,0,0,1,.14-1.52H17.1a7.213,7.213,0,0,1,.12,1.62H14.96a16.647,16.647,0,0,1-2.16-.1,11.082,11.082,0,0,1,.08,1.58v3.12a10.558,10.558,0,0,1-.08,1.58,17.374,17.374,0,0,1,2.12-.08H25.26a21.084,21.084,0,0,1,2.12.08,10.389,10.389,0,0,1-.08-1.58V8.16a10.558,10.558,0,0,1,.08-1.58,16.791,16.791,0,0,1-2.18.1Zm-5.5.98V9.2H14.08V7.66Zm1.16,0h3.18V9.2H18.38Zm4.34,0H26.1V9.2H22.72Zm-5.5,2.46v1.72H14.08V10.12Zm1.16,0h3.18v1.72H18.38Zm4.34,0H26.1v1.72H22.72ZM13.36,21.96a16.666,16.666,0,0,1-2.2-.12v1.34a13.355,13.355,0,0,1,2.2-.14H26.8a12.375,12.375,0,0,1,2.1.14V21.84a14.859,14.859,0,0,1-2.1.12H23.16a10.565,10.565,0,0,0,.96-1.48l-1.18-.46a7.731,7.731,0,0,1-1.08,1.94H18.32a11.362,11.362,0,0,0-1.18-1.94L16,20.46a8.455,8.455,0,0,1,1.08,1.5Zm15.32-8.08a12.686,12.686,0,0,1-2.22.14H13.54a11.826,11.826,0,0,1-2.14-.14v1.3a15.288,15.288,0,0,1,2.14-.12H26.46a16.371,16.371,0,0,1,2.22.12ZM13.76,18.62a7.331,7.331,0,0,1-.1,1.38,21.318,21.318,0,0,1,2.28-.08h8.14c.92,0,1.56.02,2.24.08a7.2,7.2,0,0,1-.1-1.38v-1.1a6.926,6.926,0,0,1,.1-1.4,18.694,18.694,0,0,1-2.28.1H15.98a19.2,19.2,0,0,1-2.32-.1,7.169,7.169,0,0,1,.1,1.4Zm1.28-1.42h9.92v1.74H15.04ZM39.14,6.8H33.7a19.725,19.725,0,0,1-2.02-.08,8.765,8.765,0,0,1,.08,1.34V9a9.328,9.328,0,0,1-.08,1.38h1.3V7.88H47.06v2.5h1.28a8.875,8.875,0,0,1-.08-1.36V8.06a8.437,8.437,0,0,1,.08-1.34,19.56,19.56,0,0,1-2,.08h-5.9V6.64a8.226,8.226,0,0,1,.12-1.44H39.02a8.745,8.745,0,0,1,.12,1.44Zm-5.26,3.46a9.719,9.719,0,0,1,1.64-.1h9a9.611,9.611,0,0,1,1.62.1V9.04a9.188,9.188,0,0,1-1.62.1h-9a9.3,9.3,0,0,1-1.64-.1Zm11.8,2.42a9.392,9.392,0,0,1,.08-1.36,13.905,13.905,0,0,1-1.68.08H35.94a13.694,13.694,0,0,1-1.68-.08,10.141,10.141,0,0,1,.08,1.36v.98a9.573,9.573,0,0,1-.08,1.36,14.561,14.561,0,0,1,1.68-.08h8.12a14.922,14.922,0,0,1,1.7.08,9.216,9.216,0,0,1-.08-1.36Zm-1.22-.32v1.62H35.54V12.36ZM32.6,21.48a13.682,13.682,0,0,1-.12,2.06h1.34v-.92H46.16v.92H47.5a13.144,13.144,0,0,1-.12-2.06V18.06a15.043,15.043,0,0,1,.08-1.94c-.44.04-.84.06-1.9.06H34.42c-1.06,0-1.46-.02-1.9-.06a14.647,14.647,0,0,1,.08,1.94Zm1.22-4.28H39.2v1.64H33.82Zm6.56,0h5.78v1.64H40.38Zm-6.56,2.66H39.2V21.6H33.82Zm6.56,0h5.78V21.6H40.38Z" transform="translate(811.73 1164.375)" fill="#070304"/>
    <path id="パス_106503" data-name="パス 106503" d="M9.087,12.261h3.354a8.289,8.289,0,0,1-1.378-2.418,11.133,11.133,0,0,1-.572-3.783,11.133,11.133,0,0,1,.572-3.783A8.289,8.289,0,0,1,12.441-.141H9.087Zm7.254-9.8H14.9a7.9,7.9,0,0,1-1.2-.078v.884A6.834,6.834,0,0,1,14.859,3.2h2.7a11.936,11.936,0,0,1-.637,3.38,29.612,29.612,0,0,0-2.093-2.353l-.611.52A22.6,22.6,0,0,1,16.575,7.4a9.1,9.1,0,0,1-3,3.549,2.291,2.291,0,0,1,.65.624A10.578,10.578,0,0,0,17.108,8.1a24.214,24.214,0,0,1,1.586,2.548l.65-.624A25.418,25.418,0,0,0,17.485,7.3a12.474,12.474,0,0,0,.923-4.1,9.168,9.168,0,0,1,1.183.052V2.381a7.9,7.9,0,0,1-1.2.078H17.16V1.588A9.6,9.6,0,0,1,17.225.275h-.962a7.429,7.429,0,0,1,.078,1.313Zm6.63,1.534v6.656c0,.273-.1.325-.689.325a12.48,12.48,0,0,1-1.664-.143,3.119,3.119,0,0,1,.273.871c.572.026.9.039,1.482.039,1.17,0,1.43-.2,1.43-1.053V3.993h.312a7.8,7.8,0,0,1,1.274.078v-.9a8.11,8.11,0,0,1-1.261.078H23.8V1.8A8.8,8.8,0,0,1,23.881.379h-1A7.453,7.453,0,0,1,22.971,1.8V3.252H20.943a7.5,7.5,0,0,1-1.235-.065v.884a8.024,8.024,0,0,1,1.222-.078ZM19.448,5.475a11.421,11.421,0,0,1,1.872,2.99l.715-.494a14.781,14.781,0,0,0-1.924-2.9Zm12.9-3.913H28.912A9.949,9.949,0,0,1,27.6,1.5a14,14,0,0,1,.065,1.755c0,4.693-.234,6.2-1.209,7.865a3.421,3.421,0,0,1,.728.6A8.258,8.258,0,0,0,28.2,8.764a38.108,38.108,0,0,0,.312-6.448h8.372a10,10,0,0,1,1.4.065v-.9a8.929,8.929,0,0,1-1.4.078H33.189V.886a2.9,2.9,0,0,1,.078-.832h-1a4.169,4.169,0,0,1,.078.819Zm-2.938,9a12.912,12.912,0,0,0,1.144-4.5l-.819-.221a9.833,9.833,0,0,1-1.1,4.251ZM31.5,4.708a6.364,6.364,0,0,1,.078,1.17v4.966c0,.767.312.9,2.145.9,1.261,0,1.768-.091,2.041-.4s.442-1.118.533-2.743a3,3,0,0,1-.832-.325V8.6a7.452,7.452,0,0,1-.221,2.015c-.13.273-.455.351-1.573.351a4.28,4.28,0,0,1-1.053-.078c-.169-.065-.208-.13-.208-.338V5.891a6.43,6.43,0,0,1,.078-1.183Zm3.887.143A16.439,16.439,0,0,0,32.227,2.8l-.546.572a11.417,11.417,0,0,1,3.133,2.145ZM38.4,10a18.8,18.8,0,0,0-1.586-4.264l-.754.325a13.828,13.828,0,0,1,1.495,4.3ZM48.854,1.575V10.7c0,.3-.1.364-.585.364a16,16,0,0,1-2.054-.156,3.119,3.119,0,0,1,.208.884c.7.039,1.287.065,1.729.065,1.261,0,1.56-.195,1.56-1.04V1.575h.26a10.393,10.393,0,0,1,1.352.078V.73a10.4,10.4,0,0,1-1.378.078h-8.71A9.918,9.918,0,0,1,39.871.73v.923a10.6,10.6,0,0,1,1.365-.078Zm-2.392,2.86a6.1,6.1,0,0,1,.065-1.092,10.273,10.273,0,0,1-1.222.052H42.64a9.9,9.9,0,0,1-1.209-.052A6.776,6.776,0,0,1,41.5,4.474V8.582a7,7,0,0,1-.078,1.04h.923V8.439h3.081c.377,0,.832.013,1.092.039a6.448,6.448,0,0,1-.052-.962Zm-4.121-.3h3.276V7.7H42.341Zm10.426-.377a5.184,5.184,0,0,1,.767-.091c1.274-.078,3.146-.286,4.108-.442.169.3.208.377.4.78l.689-.4A20.258,20.258,0,0,0,57.057.99l-.611.312a11.376,11.376,0,0,1,.819,1.274c-.923.117-1.43.169-2.73.26A21.858,21.858,0,0,0,55.614.873a3.123,3.123,0,0,1,.26-.507l-.91-.26a7.4,7.4,0,0,1-.715,1.755,10.087,10.087,0,0,1-.572,1.014c-.377.013-.377.013-.455.013-.1,0-.39-.013-.572-.013Zm7.215-2.3A5.117,5.117,0,0,1,60.06.327h-.949a7.006,7.006,0,0,1,.078,1.131V4.526c0,.754.325.884,2.184.884,1.677,0,2.184-.065,2.4-.338a3.51,3.51,0,0,0,.429-1.846A2.837,2.837,0,0,1,63.44,2.9c-.052,1.157-.117,1.495-.325,1.625-.182.117-.572.143-1.755.143-1.235,0-1.378-.039-1.378-.4V3.1a15.413,15.413,0,0,0,3.289-1.339c.52-.286.52-.286.728-.39L63.427.678a10.5,10.5,0,0,1-3.445,1.651Zm0,5.889a5.557,5.557,0,0,1,.065-1.131h-.923a5.941,5.941,0,0,1,.065,1.17v3.25c0,.429.1.624.416.754a4.946,4.946,0,0,0,1.989.195c1.43,0,1.872-.065,2.158-.338.312-.3.455-.806.559-2.041a3.533,3.533,0,0,1-.78-.338,3.908,3.908,0,0,1-.273,1.677c-.169.208-.585.286-1.612.286a7.016,7.016,0,0,1-1.248-.065c-.325-.052-.416-.143-.416-.4V8.816a14.365,14.365,0,0,0,2.08-.7c.455-.2,1.456-.7,2.028-1.027l-.611-.676a9.562,9.562,0,0,1-3.5,1.625Zm-6.461,3.3a8.626,8.626,0,0,1-.065,1.3h.923a8.8,8.8,0,0,1-.065-1.326V9h2.873v1.677c0,.234-.078.286-.429.286a7.612,7.612,0,0,1-1-.065,3.639,3.639,0,0,1,.195.806c.169.013.312.013.4.013,1.391,0,1.6-.13,1.6-.962V5.228c0-.234.013-.624.039-.871a9.661,9.661,0,0,1-1.2.052H54.522a7.857,7.857,0,0,1-1.053-.052,10.649,10.649,0,0,1,.052,1.2Zm.793-5.525h2.873V6.346H54.314Zm0,1.911h2.873V8.309H54.314ZM69.29.457A13.375,13.375,0,0,1,68.848,2.9c-.247,0-.676.013-.936.013a8.215,8.215,0,0,1-1.547-.1l-.013.9h.169c.039,0,.143,0,.286.013.195,0,.637.013.858.013.195,0,.637-.013.962-.026a19.465,19.465,0,0,1-1.352,3.354,11.477,11.477,0,0,1-1.248,2.028l.884.52c.065-.1.143-.26.26-.442.494-.858.611-1.079.923-1.7a24.22,24.22,0,0,0,1.443-3.8A15.694,15.694,0,0,0,71.669,3.4c.312-.052.312-.052.455-.078l-.039-.9a10.818,10.818,0,0,1-2.327.429c.182-.663.26-.975.351-1.417A4.071,4.071,0,0,1,70.317.6Zm7.657,3.588a17.918,17.918,0,0,0-3.432-1.716l-.481.728a14.1,14.1,0,0,1,3.445,1.768ZM76.973,9.8a1.316,1.316,0,0,1-.234-.208,9.338,9.338,0,0,0-2.548-1.573,15.507,15.507,0,0,1-.143-1.976,3.99,3.99,0,0,1,.169-1.209l-.884-.091a5.264,5.264,0,0,0-.13,1.261c0,.325.026.936.091,1.781a4.29,4.29,0,0,0-1.313-.2,3.8,3.8,0,0,0-1.534.286,1.844,1.844,0,0,0-1.209,1.651c0,1.157.975,1.885,2.535,1.885,1.586,0,2.47-.741,2.47-2.08a2.7,2.7,0,0,0-.026-.416,7.436,7.436,0,0,1,2.275,1.768ZM73.359,8.621s.026.4.026.559c0,.975-.507,1.417-1.625,1.417-1.027,0-1.651-.4-1.651-1.066,0-.715.7-1.17,1.807-1.17A3.858,3.858,0,0,1,73.359,8.621ZM83.642,3.278a14.216,14.216,0,0,1-2.119,3.081A11.86,11.86,0,0,1,78.481,9a2.452,2.452,0,0,1,.611.767,13.908,13.908,0,0,0,2.47-2.184,12.152,12.152,0,0,0,2.457-3.757c-.039.7-.052,1.2-.052,1.677V8.452H82.693a7.831,7.831,0,0,1-1.287-.065V9.3a7.3,7.3,0,0,1,1.313-.078h1.248v1.222a10.316,10.316,0,0,1-.091,1.508H84.9a9.671,9.671,0,0,1-.091-1.495V9.219H86.2A7.153,7.153,0,0,1,87.49,9.3v-.91a7.663,7.663,0,0,1-1.261.065H84.812V5.5c0-.429-.013-.91-.052-1.69a12.373,12.373,0,0,0,2.431,3.653,14.754,14.754,0,0,0,2.7,2.275,3.444,3.444,0,0,1,.6-.845,13.515,13.515,0,0,1-5.356-5.616h3.51a14.03,14.03,0,0,1,1.456.078V2.407a8.512,8.512,0,0,1-1.456.091H84.812V1.38A6.987,6.987,0,0,1,84.9.21H83.876a7.365,7.365,0,0,1,.091,1.183V2.5h-3.64a9.681,9.681,0,0,1-1.43-.091v.949a12.825,12.825,0,0,1,1.43-.078ZM96.967.353A8.877,8.877,0,0,1,97.019,1.5a10.647,10.647,0,0,1-2.691,7.631,9.179,9.179,0,0,1-2.652,1.963,2.48,2.48,0,0,1,.7.767,11.055,11.055,0,0,0,2.392-1.9A8.744,8.744,0,0,0,96.629,7.3a11.012,11.012,0,0,0,.9-2.9,11.216,11.216,0,0,0,1.69,4.134,11.905,11.905,0,0,0,3.445,3.328,2.958,2.958,0,0,1,.676-.819,9.574,9.574,0,0,1-1.508-1.014A11.493,11.493,0,0,1,99.9,7.971a11.379,11.379,0,0,1-1.677-3.64,16.87,16.87,0,0,1-.286-2.821A8.846,8.846,0,0,1,98.007.353ZM113.36,10.675V9.141h1.2a9,9,0,0,1,1.157.065V8.4a7.084,7.084,0,0,1-1.183.065h-1.17v-1.4h1.2a9,9,0,0,1,1.157.065V6.32a7.084,7.084,0,0,1-1.183.065h-1.17V4.968h1.378a9.4,9.4,0,0,1,1.157.065V4.227a7.084,7.084,0,0,1-1.183.065h-1.144c.039-.078.039-.078.182-.39.1-.247.182-.416.221-.507a3.916,3.916,0,0,1,.156-.39l-.793-.195a6.43,6.43,0,0,1-.546,1.482h-1.755A10.649,10.649,0,0,0,112.1,2.264h3.328v1.43h.832a4.012,4.012,0,0,1-.052-.715v-.65a7.158,7.158,0,0,1,.039-.858,9.508,9.508,0,0,1-1.3.065h-2.574c.078-.234.13-.364.208-.611.156-.468.156-.468.234-.676l-.858-.156a11.475,11.475,0,0,1-.377,1.443h-1.4a10.363,10.363,0,0,1-1.144-.026c.026.364.026.442.026.676V2.94a4.319,4.319,0,0,1-.052.78h.806V2.264h1.5a8.985,8.985,0,0,1-.468,1.014,10.113,10.113,0,0,1-2.314,3.016,2.39,2.39,0,0,1,.494.676,6.837,6.837,0,0,0,.9-1.105c-.013.1-.026.533-.052,1.287v3.51a9.533,9.533,0,0,1-.078,1.365h.819v-.65h4.329a9.692,9.692,0,0,1,1.235.078V10.61a8,8,0,0,1-1.235.065ZM110.6,6.385V4.968h2.015V6.385Zm0,.676h2.015v1.4H110.6Zm0,2.08h2.015v1.534H110.6Zm-4.225-7.67a12.788,12.788,0,0,1-.507,2.314,9.068,9.068,0,0,1-1.586,3.146,2.2,2.2,0,0,1,.468.728,6.613,6.613,0,0,0,.884-1.638c-.026.4-.065,1.248-.065,1.4v2.964a7.7,7.7,0,0,1-.078,1.248h.845V10.285h1.417v.637h.78a8.375,8.375,0,0,1-.052-1.092V5.8a7.981,7.981,0,0,1,.052-1.053,5.036,5.036,0,0,1-.806.052H106.3a16.551,16.551,0,0,0,.871-3.328h.741a7.2,7.2,0,0,1,.949.052V.665a6.833,6.833,0,0,1-1.092.078h-1.807a7.714,7.714,0,0,1-1.157-.078v.884a5.353,5.353,0,0,1,1.105-.078Zm-.039,4.043h1.417V9.57H106.34ZM122.668,2.9a14.221,14.221,0,0,1,1.716.689,4.979,4.979,0,0,1-2.457,2.379,2.41,2.41,0,0,1,.572.624,6.29,6.29,0,0,0,2.548-2.652,8.712,8.712,0,0,1,1.261.806l.429-.637c-.663-.416-.91-.546-1.43-.819a8.354,8.354,0,0,0,.377-1.716h2.353a15.586,15.586,0,0,1-.325,3.016c-.143.559-.26.676-.715.676a5.888,5.888,0,0,1-1.222-.143,2.353,2.353,0,0,1,.195.819,10.4,10.4,0,0,0,1.066.065c.7,0,.975-.1,1.17-.468a11.7,11.7,0,0,0,.637-4.108c.026-.364.026-.442.052-.624a10.172,10.172,0,0,1-1.209.052h-3.978a8.282,8.282,0,0,1-1.313-.078v.871a6.729,6.729,0,0,1,1.3-.078h1.222a7.438,7.438,0,0,1-.286,1.391,14.986,14.986,0,0,0-1.586-.624Zm-4.55-1.391a6.29,6.29,0,0,1,.936-.052h1.69a6.517,6.517,0,0,1,.936.052V.691a4.624,4.624,0,0,1-.936.065h-1.69a4.547,4.547,0,0,1-.936-.065Zm-.468,1.82a7.647,7.647,0,0,1,1.04-.052h2.34a9.153,9.153,0,0,1,.949.039V2.485a5.146,5.146,0,0,1-1.04.065H118.69a5.471,5.471,0,0,1-1.04-.065Zm.507,1.794a5.156,5.156,0,0,1,.884-.052h1.742a5.484,5.484,0,0,1,.871.052V4.318a4.8,4.8,0,0,1-.871.052h-1.742a5.156,5.156,0,0,1-.884-.052Zm0,1.794a5.454,5.454,0,0,1,.884-.052h1.742a5.484,5.484,0,0,1,.871.052V6.112a4.893,4.893,0,0,1-.871.052h-1.742a5.253,5.253,0,0,1-.884-.052ZM119,11.949v-.728h1.82v.559h.793a6.043,6.043,0,0,1-.065-1.066V8.881a9.2,9.2,0,0,1,.039-1.014,7.434,7.434,0,0,1-.949.039h-1.378a7.494,7.494,0,0,1-1.053-.052,8.589,8.589,0,0,1,.052,1.066v1.768c0,.442-.026.858-.065,1.261Zm-.013-3.38h1.833v1.976h-1.833Zm3.653-.871a6.912,6.912,0,0,1-.832,2.938l.7.364a9.3,9.3,0,0,0,.871-3.146Zm2.093.793a4.009,4.009,0,0,1,.078-1h-.923a6.557,6.557,0,0,1,.078,1.053V10.87c0,.676.286.819,1.6.819s1.69-.065,1.95-.325.4-.806.507-1.989a2.329,2.329,0,0,1-.741-.273,8,8,0,0,1-.1,1.1c-.078.546-.182.676-.624.728-.13.013-.728.039-1.027.039-.663,0-.793-.052-.793-.325Zm2.886-.624a10.4,10.4,0,0,1,1.534,2.821l.689-.429a11.627,11.627,0,0,0-1.586-2.743Zm-3.328-1.534a7.171,7.171,0,0,1,2.067,1.781l.585-.546a10.66,10.66,0,0,0-2.093-1.7Zm9.62,5.928V-.141h-3.354a8.289,8.289,0,0,1,1.378,2.418,11.03,11.03,0,0,1,.572,3.783,11.03,11.03,0,0,1-.572,3.783,8.289,8.289,0,0,1-1.378,2.418Zm16.588-4.6v.91h-2.5a8.809,8.809,0,0,1-1.092-.065V9.31a6.608,6.608,0,0,1,1.092-.078h2.5V9.4a7.245,7.245,0,0,1-.091,1.131h.9a7.6,7.6,0,0,1-.078-1.131V9.232h2.743a7.091,7.091,0,0,1,1.118.065V8.5a8.19,8.19,0,0,1-1.118.065h-2.743v-.91h2.145a8.254,8.254,0,0,1,1.014.052,5.669,5.669,0,0,1-.052-.845V4.747a6.035,6.035,0,0,1,.052-.871,7.355,7.355,0,0,1-1.014.052h-2.145V3.07h1.833a5.352,5.352,0,0,1,1,.065V2.381a6.23,6.23,0,0,1-.962.052h-1.872a3.487,3.487,0,0,1,.065-.7h-.858a4.154,4.154,0,0,1,.065.7h-1.586a5.2,5.2,0,0,1-.988-.065v.767a5.436,5.436,0,0,1,1-.065H150.5v.858h-1.924a7.271,7.271,0,0,1-1-.052,5.484,5.484,0,0,1,.052.871V6.866a5.449,5.449,0,0,1-.052.845,7.772,7.772,0,0,1,1-.052Zm0-3.133v.962h-2.132V4.526Zm.728,0H153.6v.962h-2.366ZM150.5,6.06v1h-2.132v-1Zm.728,0H153.6v1h-2.366ZM146.9,2.03a5.143,5.143,0,0,1-.052.806h.806V1.38h6.656V2.836h.832A4.869,4.869,0,0,1,155.09,2V1.458a4.667,4.667,0,0,1,.052-.793,10.9,10.9,0,0,1-1.209.052h-5.889a10.5,10.5,0,0,1-1.2-.052,5.038,5.038,0,0,1,.052.806ZM143.9,1a10.82,10.82,0,0,1,1.859,2.418l.65-.6a17.706,17.706,0,0,0-1.885-2.34Zm-.234,5.239a5.093,5.093,0,0,1,.949-.065h.832V9.31a8.09,8.09,0,0,1-2.08,1.547l.442.858a5.388,5.388,0,0,1,.494-.429,11.993,11.993,0,0,0,1.508-1.313,3.327,3.327,0,0,0,1.365,1.235c.767.364,1.469.442,3.861.442,1.443,0,2.73-.026,4.251-.091a3.439,3.439,0,0,1,.312-.91,39.722,39.722,0,0,1-5.239.234,7.229,7.229,0,0,1-2.977-.377,2.009,2.009,0,0,1-1.131-1.17V6.762a9.7,9.7,0,0,1,.065-1.378,6.17,6.17,0,0,1-1,.065h-.65a5.186,5.186,0,0,1-1-.065Zm16.25,3.432h1.131a6.7,6.7,0,0,1,1.118.065V8.907a6.025,6.025,0,0,1-1.079.065h-1.17v-1.2h.845a8.423,8.423,0,0,1,1.183.052c-.026-.273-.039-.65-.039-1.287V4.435c0-.6.013-.962.039-1.222a7.578,7.578,0,0,1-1.131.052h-.9V2.121h1.235a6.5,6.5,0,0,1,1.131.065V1.354a6.741,6.741,0,0,1-1.157.065h-1.209V1.25A6.531,6.531,0,0,1,160,.119h-.91a6.635,6.635,0,0,1,.091,1.131v.169h-1.209a6.573,6.573,0,0,1-1.144-.065v.832a6.682,6.682,0,0,1,1.131-.065h1.222V3.265h-.754a9.628,9.628,0,0,1-1.209-.052,10.619,10.619,0,0,1,.052,1.248v2.08a11.223,11.223,0,0,1-.052,1.287,10.445,10.445,0,0,1,1.261-.052h.7v1.2h-1.326a6.407,6.407,0,0,1-1.131-.065v.832a6.852,6.852,0,0,1,1.144-.065h1.313v1.053a7.143,7.143,0,0,1-.091,1.183H160a6.987,6.987,0,0,1-.091-1.17Zm0-2.561V5.787h1.3V7.113Zm0-1.95V3.928h1.3V5.163Zm-.728-1.235V5.163h-1.222V3.928Zm0,1.859V7.113h-1.222V5.787Zm5.1-.338a20.206,20.206,0,0,1-.52,1.963,25.508,25.508,0,0,1-1.092,3,6.813,6.813,0,0,1-.975.052l.208.91c.247-.052.4-.078.715-.13,2.431-.351,3.393-.52,4.641-.793.117.338.117.338.455,1.326l.754-.416a31.858,31.858,0,0,0-2.08-4.68l-.7.312a22.755,22.755,0,0,1,1.326,2.8c-1.131.234-1.859.338-3.471.533a31.536,31.536,0,0,0,1.625-4.875h2.093a7.12,7.12,0,0,1,1.157.065V4.63a5.456,5.456,0,0,1-1.157.078h-3.744a5.529,5.529,0,0,1-1.157-.078v.884a7.142,7.142,0,0,1,1.144-.065Zm-1.417-3.315a7.024,7.024,0,0,1,1.157-.065H166.8c.351,0,.676.013.845.026a1.58,1.58,0,0,0,.3.026V1.237a5.249,5.249,0,0,1-1.144.078h-2.782a5.383,5.383,0,0,1-1.157-.078Zm13.39,1.4a11.824,11.824,0,0,0,1.326-1.456c.26-.325.286-.364.442-.533l-.429-.481a5.916,5.916,0,0,1-1.209.065h-2.431a3.33,3.33,0,0,0,.208-.3A1.251,1.251,0,0,1,174.317.6l.208-.3-.91-.273A3.848,3.848,0,0,1,173,1.12a10.91,10.91,0,0,1-3.172,3.094,2.921,2.921,0,0,1,.546.6c.416-.3.559-.416.858-.65V6.229a9.8,9.8,0,0,1-.052,1.2,14.087,14.087,0,0,1,1.456-.052h1.014A3.559,3.559,0,0,1,172,10.285a5.869,5.869,0,0,1-2.327.936,2.349,2.349,0,0,1,.468.806,6.7,6.7,0,0,0,1.833-.689,4.815,4.815,0,0,0,1.586-1.378,5.117,5.117,0,0,0,.949-2.587h1.56v3.341c0,.767.442.949,2.444.949,1.443,0,2.106-.117,2.392-.429.26-.26.377-.806.416-1.924a2.673,2.673,0,0,1-.819-.338c0,1.2-.026,1.443-.208,1.651s-.637.286-1.82.286c-1.3,0-1.586-.078-1.586-.455V7.373h1.573c.715,0,.988.013,1.456.052a9.528,9.528,0,0,1-.052-1.2V4.682a9.661,9.661,0,0,1,.052-1.2,14.3,14.3,0,0,1-1.495.052Zm-4.316,0a13.926,13.926,0,0,0,1.508-1.69h3.3a8.334,8.334,0,0,1-1.456,1.69Zm3.926.715h3.2v2.4h-3.2Zm-.793,2.4h-3.029v-2.4h3.029ZM190.5,2.8V5.774h-1.885a8.158,8.158,0,0,1-1.248-.078v.91a10.049,10.049,0,0,1,1.313-.078h1.82v4.043a9.618,9.618,0,0,1-.091,1.417h1.014a7.967,7.967,0,0,1-.1-1.417V6.528h1.833a9.369,9.369,0,0,1,1.313.078V5.7a8.867,8.867,0,0,1-1.313.078h-1.833V2.8h1.521a8.8,8.8,0,0,1,1.3.078v-.9a8.989,8.989,0,0,1-1.313.078h-3.536c.208-.52.273-.7.364-.975.078-.221.143-.4.143-.416a2.156,2.156,0,0,0,.13-.39l-.91-.221a6.15,6.15,0,0,1-.3,1.235,8.56,8.56,0,0,1-1.7,3.159,2.533,2.533,0,0,1,.689.52A11.092,11.092,0,0,0,188.968,2.8Zm-7.449-1.43a7.517,7.517,0,0,1,1-.052h1.768a7.643,7.643,0,0,1,1,.052V.548a5.523,5.523,0,0,1-1,.065h-1.768a5.352,5.352,0,0,1-1-.065ZM182.559,3.2a7.647,7.647,0,0,1,1.04-.052h2.652a5.735,5.735,0,0,1,.949.052V2.355a5.146,5.146,0,0,1-1.04.065H183.6a5.555,5.555,0,0,1-1.04-.065Zm.559,1.794a6.18,6.18,0,0,1,.936-.052h1.82a6.213,6.213,0,0,1,.923.052V4.188a5.579,5.579,0,0,1-.923.052h-1.82a5.758,5.758,0,0,1-.936-.052Zm0,1.807a6.071,6.071,0,0,1,.936-.052h1.82a6.326,6.326,0,0,1,.923.052V5.995a5.579,5.579,0,0,1-.923.052h-1.82a5.758,5.758,0,0,1-.936-.052Zm.832,5.122v-.7h2.132v.52h.806a7.861,7.861,0,0,1-.065-1.079V8.855c0-.455.013-.741.039-1.027a5.918,5.918,0,0,1-.975.039h-1.716a8.7,8.7,0,0,1-1.04-.052,7.047,7.047,0,0,1,.065,1.092v1.755a8.588,8.588,0,0,1-.078,1.261Zm0-3.38h2.132v2H183.95Zm19.708,2H202.02V5.228a8.627,8.627,0,0,1,.078-1.313h-.962a7.825,7.825,0,0,1,.078,1.313v5.317a6.6,6.6,0,0,1-1.053-.052v.884a8.488,8.488,0,0,1,1.326-.065h4.706a9.186,9.186,0,0,1,1.326.078v-.923a9.369,9.369,0,0,1-1.313.078h-1.729V6.06H205.8a8.226,8.226,0,0,1,1.261.078v-.91a8.11,8.11,0,0,1-1.261.078h-1.326V1.6h1.469a9.511,9.511,0,0,1,1.339.078V.769a9.258,9.258,0,0,1-1.339.078H201.89a9.135,9.135,0,0,1-1.339-.078v.91A9.641,9.641,0,0,1,201.89,1.6h1.768Zm-7.592-9.113a7.436,7.436,0,0,1,.988-.052h1.833a7.189,7.189,0,0,1,.988.052V.613a5.371,5.371,0,0,1-.988.065h-1.833a5.286,5.286,0,0,1-.988-.065Zm-.442,1.82a7.647,7.647,0,0,1,1.04-.052h2.613a5.965,5.965,0,0,1,.936.052V2.407a5.307,5.307,0,0,1-1.04.065h-2.509a5.555,5.555,0,0,1-1.04-.065Zm.507,1.82a6.18,6.18,0,0,1,.936-.052h1.807a6.326,6.326,0,0,1,.923.052V4.266a5.479,5.479,0,0,1-.923.052h-1.807a5.757,5.757,0,0,1-.936-.052Zm0,1.794a5.86,5.86,0,0,1,.936-.052h1.807a6.1,6.1,0,0,1,.923.052V6.06a5.68,5.68,0,0,1-.923.052h-1.807a5.758,5.758,0,0,1-.936-.052Zm.754,5.109v-.689h2.093v.52h.767a10.049,10.049,0,0,1-.039-1.053V8.907c0-.468.013-.754.039-1.027a5.211,5.211,0,0,1-.936.039h-1.69a8.839,8.839,0,0,1-1.04-.052,6.845,6.845,0,0,1,.065,1.092v1.768a8.521,8.521,0,0,1-.078,1.248Zm0-3.38h2.093V10.61h-2.093Zm17.615-3.6a1.066,1.066,0,1,0,1.066,1.066A1.071,1.071,0,0,0,214.5,4.994ZM8.346,20.135H7.241A7.376,7.376,0,0,1,5.98,20.07v.793A6.483,6.483,0,0,1,7.124,20.8H8.346v1.183H7.423a6.79,6.79,0,0,1-.962-.052v.741a6.83,6.83,0,0,1,.949-.052h.936v1.04H7.358a6.142,6.142,0,0,1-1.131-.065v.78a6.407,6.407,0,0,1,1.131-.065h.988v1.1H6.864a8.474,8.474,0,0,1-1.209-.065v.806a7.258,7.258,0,0,1,1.2-.065h1.5v.26a6.387,6.387,0,0,1-.065.949h.858a5.883,5.883,0,0,1-.065-.962v-.247h1.95a11.559,11.559,0,0,1,1.274.052v-.793a11.132,11.132,0,0,1-1.274.065H9.074v-1.1h1.482a12.172,12.172,0,0,1,1.222.065v-.78a7.435,7.435,0,0,1-1.209.065H9.074v-1.04h1.508c.39,0,.715.013.988.026a6.958,6.958,0,0,1-.026-.793V20.8h.13a5.612,5.612,0,0,1,.871.065V20.07a4.171,4.171,0,0,1-.871.065h-.13V19.2a7.254,7.254,0,0,1,.026-.871,8.235,8.235,0,0,1-.975.039H9.074V18.25a6.6,6.6,0,0,1,.052-.949H8.281a6.522,6.522,0,0,1,.065.949v.117H7.527a5.038,5.038,0,0,1-.988-.065v.78a7.189,7.189,0,0,1,.988-.052h.819Zm.728,0V19.03H10.8v1.105Zm0,.663H10.8v1.183H9.074Zm-5.967,2.73A10.673,10.673,0,0,0,4.316,26.1a6.427,6.427,0,0,1-1.534,2.171,2.031,2.031,0,0,1,.559.624A8.96,8.96,0,0,0,4.81,26.739a4.543,4.543,0,0,0,2.054,1.326,11.381,11.381,0,0,0,3.783.481c.507,0,.871-.013,1.729-.052a2.177,2.177,0,0,1,.247-.845,24.1,24.1,0,0,1-2.444.143c-2.6,0-4-.494-5.07-1.768A16.945,16.945,0,0,0,5.941,22.4c.052-.351.052-.351.091-.676a7.6,7.6,0,0,1-1.2.052H4.29a17.973,17.973,0,0,0,1.547-2.86,3.063,3.063,0,0,1,.169-.351l-.377-.4a4.219,4.219,0,0,1-.689.039H4.277a6.089,6.089,0,0,1-.767-.039v.793a3.983,3.983,0,0,1,.728-.065h.819a16.882,16.882,0,0,1-2.028,3.562c.351-.026.546-.026.936-.026H5.226a15.067,15.067,0,0,1-.6,2.873,5.762,5.762,0,0,1-.767-2.08Zm-1.326,3.8a13.044,13.044,0,0,1-.078,1.6h.9c-.039-.429-.052-.845-.052-1.612V20.317a20.755,20.755,0,0,0,.845-2.353A4.388,4.388,0,0,1,3.6,17.34l-.832-.234a10.788,10.788,0,0,1-.546,2A13.02,13.02,0,0,1,.208,22.891a1.529,1.529,0,0,1,.143.2,1.205,1.205,0,0,1,.26.377,1.138,1.138,0,0,0,.091.156A10.444,10.444,0,0,0,1.82,21.695c-.026.624-.039,1.222-.039,1.976ZM19.708,21.63H15.522c.013-.793.026-1.326.026-2.678h8.476a9.209,9.209,0,0,1,1.235.065v-.845a8.285,8.285,0,0,1-1.352.078h-3.64v-.312a3.685,3.685,0,0,1,.065-.858H19.37a3.733,3.733,0,0,1,.078.845v.325h-3.3a10.377,10.377,0,0,1-1.456-.065,13.122,13.122,0,0,1,.052,1.469,35.323,35.323,0,0,1-.442,6.318,7.863,7.863,0,0,1-.819,2.314,2.834,2.834,0,0,1,.689.611c.858-1.742,1.2-3.393,1.326-6.591h4.212v1.04H17.316a5.419,5.419,0,0,1-1.014-.065v.793a5.726,5.726,0,0,1,1.04-.065h2.366v1.7A19.468,19.468,0,0,1,16.5,27.038a6.727,6.727,0,0,1-1.066.286l.4.819c.156-.065.286-.13.494-.208a26.942,26.942,0,0,0,3.38-1.482v1.313c0,.273-.078.312-.533.312a6.683,6.683,0,0,1-1.378-.156,2.9,2.9,0,0,1,.182.884c.481.039.858.052,1.2.052,1.014,0,1.274-.195,1.274-.975V25.842c0-.247-.026-.949-.065-1.313a8.36,8.36,0,0,0,1.638,2.288A10.167,10.167,0,0,0,24.8,28.741a4.1,4.1,0,0,1,.585-.715,9.359,9.359,0,0,1-2.86-1.755,14.272,14.272,0,0,0,2.158-1.729L24,24.048a7.63,7.63,0,0,1-1.976,1.729,7.467,7.467,0,0,1-1.261-1.768h2.3c.312,0,.312,0,.949.026a7.649,7.649,0,0,1-.026-.91v-.819h.377a6.3,6.3,0,0,1,1.027.065v-.806a4.78,4.78,0,0,1-1.014.065h-.39v-.78a5.963,5.963,0,0,1,.039-.9,9.083,9.083,0,0,1-1.118.052H20.462a3.6,3.6,0,0,1,.052-.754h-.871a4.46,4.46,0,0,1,.065.754H17.446a5.32,5.32,0,0,1-1.027-.065v.793a6.016,6.016,0,0,1,1.027-.065h2.262Zm3.523.676v1.04H20.462v-1.04Zm0-.676H20.462v-.962h2.769Zm-6.825,3.107a7.654,7.654,0,0,1,1.807,1.391l.533-.507a9.342,9.342,0,0,0-1.781-1.352Zm17.16-1.586H31.044a9.1,9.1,0,0,1-1.287-.078v.884a9.233,9.233,0,0,1,1.287-.078h2.249A8.282,8.282,0,0,1,31.8,25.595a10.269,10.269,0,0,1-2.548,1.7,2.933,2.933,0,0,1,.6.728,9.933,9.933,0,0,0,1.794-1.261A8.431,8.431,0,0,0,33.618,24.5a13.449,13.449,0,0,0-.052,1.4v1.768a9.716,9.716,0,0,1-.078,1.274h.936a7.7,7.7,0,0,1-.078-1.274V25.894a13.5,13.5,0,0,0-.065-1.391,8.58,8.58,0,0,0,1.742,2A13.547,13.547,0,0,0,38.09,28a3.776,3.776,0,0,1,.585-.806,9.5,9.5,0,0,1-2.353-1.456,9.083,9.083,0,0,1-1.755-1.859h2.444a11.1,11.1,0,0,1,1.261.078v-.884A9.166,9.166,0,0,1,37,23.151H34.346V21.773h1.729c.494,0,1.079.026,1.365.052a9.234,9.234,0,0,1-.052-1.157V18.991a8.065,8.065,0,0,1,.052-1.183,9.74,9.74,0,0,1-1.43.065H32.175a9.85,9.85,0,0,1-1.43-.065,10.064,10.064,0,0,1,.052,1.157v1.69c0,.481-.026.819-.052,1.17a13.059,13.059,0,0,1,1.378-.052h1.443ZM31.6,18.614h4.966v2.418H31.6Zm-3.458,8.775a13.4,13.4,0,0,1-.078,1.56H29a13.393,13.393,0,0,1-.065-1.521V20.512a16.667,16.667,0,0,0,1.04-2.431,5.37,5.37,0,0,1,.234-.7l-.884-.286a8.919,8.919,0,0,1-.52,1.794,10.476,10.476,0,0,1-2.522,3.874,3.782,3.782,0,0,1,.533.741,8.044,8.044,0,0,0,1.365-1.833c-.026.572-.039,1.053-.039,1.56Zm18.707-6.461v1.144h-1.82a8.878,8.878,0,0,1-1.144-.039,5.857,5.857,0,0,1,.039.858v1.677a6.445,6.445,0,0,1-.039.806,10.648,10.648,0,0,1,1.2-.052h1.352c-.585,1.521-1.651,2.366-3.705,2.912a2.174,2.174,0,0,1,.52.728c2.132-.741,3.25-1.69,3.861-3.289a6.935,6.935,0,0,0,3.952,3.237,2.891,2.891,0,0,1,.494-.754,6.1,6.1,0,0,1-3.848-2.834h1.716a11.01,11.01,0,0,1,1.261.052,9.476,9.476,0,0,1-.039-.988V22.969c0-.325.013-.533.039-.936-.286.026-.637.039-1.183.039h-1.9V20.928h.936a9.639,9.639,0,0,1,1.157.052v-.715a9.25,9.25,0,0,0,1.612.884,2.2,2.2,0,0,1,.546-.754,8.058,8.058,0,0,1-4.277-3.211h-.871a8.037,8.037,0,0,1-3.835,3.341,1.943,1.943,0,0,1,.546.663,9.193,9.193,0,0,0,1.534-.949v.741a9.875,9.875,0,0,1,1.17-.052Zm-.013,1.833a11.712,11.712,0,0,1-.208,1.859h-1.95V22.761Zm3.042,0V24.62H47.4a13.961,13.961,0,0,0,.182-1.859Zm-3.757-2.535c-.494,0-.806-.013-1.1-.039a9.175,9.175,0,0,0,2.158-2.353A9.474,9.474,0,0,0,49.6,20.187c-.3.026-.6.039-1.053.039Zm-3.276-1.9a21.21,21.21,0,0,1-1.391,3.237,4,4,0,0,1,1.2,2.964c0,.624-.156.806-.715.806a5.065,5.065,0,0,1-.754-.065,2.1,2.1,0,0,1,.221.806c.182.013.286.013.338.013A3.387,3.387,0,0,0,42.692,26c.494-.156.741-.585.741-1.313a5.263,5.263,0,0,0-.169-1.4,4.079,4.079,0,0,0-1.014-1.833,26.9,26.9,0,0,0,1.391-3,2.9,2.9,0,0,1,.195-.4l-.442-.494a3.854,3.854,0,0,1-.806.052H40.976a8.074,8.074,0,0,1-.9-.039c.026.325.039.637.039.988V27.7a7.725,7.725,0,0,1-.078,1.209h.949a7.835,7.835,0,0,1-.065-1.209V18.328Zm17.81,9.217H59.02V22.228a8.628,8.628,0,0,1,.078-1.313h-.962a7.825,7.825,0,0,1,.078,1.313v5.317a6.6,6.6,0,0,1-1.053-.052v.884a8.488,8.488,0,0,1,1.326-.065h4.706a9.186,9.186,0,0,1,1.326.078v-.923a9.369,9.369,0,0,1-1.313.078H61.477V23.06H62.8a8.226,8.226,0,0,1,1.261.078v-.91a8.11,8.11,0,0,1-1.261.078H61.477V18.6h1.469a9.511,9.511,0,0,1,1.339.078v-.91a9.259,9.259,0,0,1-1.339.078H58.89a9.135,9.135,0,0,1-1.339-.078v.91A9.641,9.641,0,0,1,58.89,18.6h1.768Zm-7.592-9.113a7.436,7.436,0,0,1,.988-.052h1.833a7.189,7.189,0,0,1,.988.052v-.819a5.37,5.37,0,0,1-.988.065H54.054a5.285,5.285,0,0,1-.988-.065Zm-.442,1.82a7.647,7.647,0,0,1,1.04-.052h2.613a5.965,5.965,0,0,1,.936.052v-.845a5.307,5.307,0,0,1-1.04.065H53.664a5.555,5.555,0,0,1-1.04-.065Zm.507,1.82a6.18,6.18,0,0,1,.936-.052h1.807a6.326,6.326,0,0,1,.923.052v-.806a5.479,5.479,0,0,1-.923.052H54.067a5.757,5.757,0,0,1-.936-.052Zm0,1.794a5.86,5.86,0,0,1,.936-.052h1.807a6.1,6.1,0,0,1,.923.052V23.06a5.68,5.68,0,0,1-.923.052H54.067a5.757,5.757,0,0,1-.936-.052Zm.754,5.109v-.689h2.093v.52h.767a10.05,10.05,0,0,1-.039-1.053V25.907c0-.468.013-.754.039-1.027a5.211,5.211,0,0,1-.936.039h-1.69a8.839,8.839,0,0,1-1.04-.052,6.845,6.845,0,0,1,.065,1.092v1.768a8.522,8.522,0,0,1-.078,1.248Zm0-3.38h2.093V27.61H53.885Zm17.615-3.6a1.066,1.066,0,1,0,1.066,1.066A1.071,1.071,0,0,0,71.5,21.994Zm10.465-3.445a1.436,1.436,0,0,1,.013.208,10.31,10.31,0,0,1-.13,1.222,15.055,15.055,0,0,1-1.339,4.511,8.357,8.357,0,0,1-1.885,2.574,2.846,2.846,0,0,1,.832.676c1.833-1.911,2.886-4.407,3.432-8.112a4.72,4.72,0,0,1,.169-.884Zm3.731.195a5.65,5.65,0,0,1,.169.858A15.619,15.619,0,0,0,89.4,27.766a2.811,2.811,0,0,1,.806-.728,11.473,11.473,0,0,1-2.951-5.369,15.71,15.71,0,0,1-.6-3.12Zm3.5-1.2a1.469,1.469,0,1,0,1.469,1.469A1.459,1.459,0,0,0,89.193,17.548Zm0,.546a.923.923,0,1,1-.936.923A.927.927,0,0,1,89.193,18.094Zm13.52,9.2a32.33,32.33,0,0,0-4.329-3.9,15.72,15.72,0,0,0,2.145-3.64,2.426,2.426,0,0,1,.364-.637l-.546-.559a2.424,2.424,0,0,1-.832.1l-4.641.052h-.338a6.109,6.109,0,0,1-1.027-.065l.026,1.053a8.747,8.747,0,0,1,1.339-.1l4.342-.065a2.208,2.208,0,0,0,.312-.013.275.275,0,0,1-.039.091c-.026.065-.039.078-.065.156a14.09,14.09,0,0,1-4.641,5.863,10.465,10.465,0,0,1-2.639,1.495,2.893,2.893,0,0,1,.637.858,16.741,16.741,0,0,0,2.548-1.56A14.112,14.112,0,0,0,97.812,24.1a24.179,24.179,0,0,1,4.16,4.017Zm7.228-7.4h-3.172a8.358,8.358,0,0,1-1.508-.078v.988a10.106,10.106,0,0,1,1.495-.065h3.185v6.487a7.234,7.234,0,0,1-.078,1.365h1.066a7.849,7.849,0,0,1-.065-1.378V20.746h3.3a10.106,10.106,0,0,1,1.5.065v-.988a8.527,8.527,0,0,1-1.521.078h-3.276v-.845a7.49,7.49,0,0,1,.065-1.352h-1.066a5.806,5.806,0,0,1,.078,1.326Zm-2.808,2.041a6.638,6.638,0,0,1-.455,1.768,8.294,8.294,0,0,1-1.911,3.2,2.882,2.882,0,0,1,.858.559,11.61,11.61,0,0,0,2.275-4.485l.065-.286.078-.26a1.555,1.555,0,0,1,.078-.221Zm5.551.26c.091.208.208.494.325.845a15.592,15.592,0,0,0,2.262,4.472,2.809,2.809,0,0,1,.819-.611,11.551,11.551,0,0,1-2.015-3.484,9.282,9.282,0,0,1-.481-1.469Zm2.34-5.564a1.476,1.476,0,1,0,1.469,1.469A1.459,1.459,0,0,0,115.024,16.638Zm0,.546a.93.93,0,1,1-.936.923A.927.927,0,0,1,115.024,17.184Zm2.717,6.357a14.2,14.2,0,0,1,1.612-.052h7.54a14.872,14.872,0,0,1,1.586.052V22.488a10.253,10.253,0,0,1-1.573.065h-7.553a9.2,9.2,0,0,1-1.612-.078ZM134.576,28.4a8.841,8.841,0,0,1-.065-1.378V23.112a4.54,4.54,0,0,0-.052-.767l.026-.013a1.434,1.434,0,0,0,.4.221,26.505,26.505,0,0,1,4.849,2.574l.559-.962a32.241,32.241,0,0,0-5.785-2.743V18.991a8.16,8.16,0,0,1,.065-1.352h-1.118a7.71,7.71,0,0,1,.078,1.326v8.073a8.363,8.363,0,0,1-.078,1.365Zm14.534-6.409a1.066,1.066,0,1,0,1.066,1.066A1.071,1.071,0,0,0,149.11,21.994Zm13.936-1.274v2.743h-1.625a9.512,9.512,0,0,1-1.339-.078v.884c.4-.039.871-.065,1.352-.065h1.612v3.367H160.5a10.144,10.144,0,0,1-1.4-.078v.9c.39-.039.884-.065,1.43-.065h6.058c.533,0,1.027.026,1.417.065v-.9a10.221,10.221,0,0,1-1.417.078h-2.691V24.2h1.937c.468,0,.949.026,1.339.065v-.884a9.714,9.714,0,0,1-1.352.078h-1.924V20.72h2.314c.494,0,.988.026,1.365.065v-.91a9.734,9.734,0,0,1-1.378.078h-5.135a9.163,9.163,0,0,1-1.365-.078v.91c.39-.039.871-.065,1.365-.065ZM157.729,27.3a9.923,9.923,0,0,1-.091,1.56h1.014a10.872,10.872,0,0,1-.091-1.521V20.278a24.491,24.491,0,0,0,1.222-2.86l-.858-.273a9.076,9.076,0,0,1-.546,1.742,11.8,11.8,0,0,1-2.444,3.757,1.579,1.579,0,0,1,.468.741,10.7,10.7,0,0,0,1.391-1.976c-.039.6-.065,1.118-.065,1.7Zm3.939-9.477a10.657,10.657,0,0,1,2.574,1.729l.611-.663a16.086,16.086,0,0,0-2.613-1.651Zm16.627,3.549c.52,0,.9.013,1.287.039a8.279,8.279,0,0,1-.039-.962V18.9a6.686,6.686,0,0,1,.039-1.04,10.1,10.1,0,0,1-1.352.065h-5.785a11.818,11.818,0,0,1-1.521-.065c.039.494.052.832.052,1.469v8.32a11.164,11.164,0,0,1-1.495.208l.221.936a6.064,6.064,0,0,1,.715-.182,39.682,39.682,0,0,0,5.317-1.417l-.026-.806a33.737,33.737,0,0,1-3.887,1.092V24.022l3.822-.052a9.31,9.31,0,0,0,1.391,2.782,4.164,4.164,0,0,0,2.613,1.976c.689,0,1.027-.585,1.313-2.314a2.7,2.7,0,0,1-.78-.494c-.117,1.3-.312,1.872-.611,1.872a3.08,3.08,0,0,1-1.417-.988,7.428,7.428,0,0,1-1.651-2.847l2.769-.026a11.721,11.721,0,0,1,1.365.039v-.9a6.484,6.484,0,0,1-1.378.091l-2.964.039a10,10,0,0,1-.3-1.833Zm-3.146,0c.091.754.169,1.222.3,1.846l-3.627.039V21.37Zm-3.328-2.7h6.9v1.976h-6.9Zm14.391-.221V19.5H184.34a8.857,8.857,0,0,1-1.1-.052,7.2,7.2,0,0,1,.052.949v1.014a6.927,6.927,0,0,1-.052.923,9.408,9.408,0,0,1,1.1-.052h7.5a9.083,9.083,0,0,1,1.118.052,6.517,6.517,0,0,1-.052-.936v-1a6.952,6.952,0,0,1,.052-.949,9.128,9.128,0,0,1-1.1.052H189.9V18.445h2.522a8.414,8.414,0,0,1,1.274.078v-.858a8.7,8.7,0,0,1-1.326.078h-8.489a8.775,8.775,0,0,1-1.339-.078v.858a8.656,8.656,0,0,1,1.274-.078Zm.754,0h2.184V19.5h-2.184Zm-.754,1.7V21.63H184.08V20.148Zm.754,0h2.184V21.63h-2.184Zm2.938,0h2.21V21.63H189.9Zm-2.093,5.395v2.249c0,.286-.078.338-.572.338a10.281,10.281,0,0,1-1.482-.117,2.7,2.7,0,0,1,.195.806c.559.039.858.052,1.209.052,1.235,0,1.508-.169,1.508-.923V25.543h3.692a8.8,8.8,0,0,1,1.3.078v-.858a8.918,8.918,0,0,1-1.3.078H183.82a9.044,9.044,0,0,1-1.3-.078v.858a9.432,9.432,0,0,1,1.3-.078Zm-4.121-1.586a7.1,7.1,0,0,1,1.17-.065h6.474a6.928,6.928,0,0,1,1.157.065v-.832a6.834,6.834,0,0,1-1.157.065H184.86a6.726,6.726,0,0,1-1.17-.065Zm1.638,1.937a4.908,4.908,0,0,1-1.17,1.157,7.76,7.76,0,0,1-1.729.936,1.876,1.876,0,0,1,.572.663,7.6,7.6,0,0,0,3.029-2.327Zm4.849.494a10.207,10.207,0,0,0,3.172,2.262,3.042,3.042,0,0,1,.507-.715,8.612,8.612,0,0,1-3.042-1.976Zm11.869-5.668v2.743h-1.625a9.512,9.512,0,0,1-1.339-.078v.884c.4-.039.871-.065,1.352-.065h1.612v3.367H199.5a10.144,10.144,0,0,1-1.4-.078v.9c.39-.039.884-.065,1.43-.065h6.058c.533,0,1.027.026,1.417.065v-.9a10.221,10.221,0,0,1-1.417.078h-2.691V24.2h1.937c.468,0,.949.026,1.339.065v-.884a9.714,9.714,0,0,1-1.352.078h-1.924V20.72h2.314c.494,0,.988.026,1.365.065v-.91a9.734,9.734,0,0,1-1.378.078h-5.135a9.163,9.163,0,0,1-1.365-.078v.91c.39-.039.871-.065,1.365-.065ZM196.729,27.3a9.923,9.923,0,0,1-.091,1.56h1.014a10.872,10.872,0,0,1-.091-1.521V20.278a24.491,24.491,0,0,0,1.222-2.86l-.858-.273a9.076,9.076,0,0,1-.546,1.742,11.8,11.8,0,0,1-2.444,3.757,1.579,1.579,0,0,1,.468.741,10.7,10.7,0,0,0,1.391-1.976c-.039.6-.065,1.118-.065,1.7Zm3.939-9.477a10.657,10.657,0,0,1,2.574,1.729l.611-.663a16.086,16.086,0,0,0-2.613-1.651Zm16.627,3.549c.52,0,.9.013,1.287.039a8.279,8.279,0,0,1-.039-.962V18.9a6.686,6.686,0,0,1,.039-1.04,10.1,10.1,0,0,1-1.352.065h-5.785a11.818,11.818,0,0,1-1.521-.065c.039.494.052.832.052,1.469v8.32a11.164,11.164,0,0,1-1.495.208l.221.936a6.064,6.064,0,0,1,.715-.182,39.682,39.682,0,0,0,5.317-1.417l-.026-.806a33.737,33.737,0,0,1-3.887,1.092V24.022l3.822-.052a9.31,9.31,0,0,0,1.391,2.782,4.164,4.164,0,0,0,2.613,1.976c.689,0,1.027-.585,1.313-2.314a2.7,2.7,0,0,1-.78-.494c-.117,1.3-.312,1.872-.611,1.872a3.08,3.08,0,0,1-1.417-.988,7.428,7.428,0,0,1-1.651-2.847l2.769-.026a11.721,11.721,0,0,1,1.365.039v-.9a6.484,6.484,0,0,1-1.378.091l-2.964.039a10,10,0,0,1-.3-1.833Zm-3.146,0c.091.754.169,1.222.3,1.846l-3.627.039V21.37Zm-3.328-2.7h6.9v1.976h-6.9ZM3.38,35.458H2.4a8.628,8.628,0,0,1-1.313-.078v.845c.4-.039.819-.065,1.313-.065H3.38v4.173H1.963a8.725,8.725,0,0,1-1.287-.078V41.1a9.044,9.044,0,0,1,1.3-.078h1.9a6.559,6.559,0,0,1-3.5,1.859,2.24,2.24,0,0,1,.455.78,8.04,8.04,0,0,0,4-2.639H8.047a8.594,8.594,0,0,0,4.16,2.587,3.472,3.472,0,0,1,.455-.793,7.433,7.433,0,0,1-3.627-1.794H11a9.3,9.3,0,0,1,1.3.078v-.845a9.44,9.44,0,0,1-1.326.078H9.542V36.16h1.2c.494,0,.9.026,1.313.065V35.38a8.747,8.747,0,0,1-1.313.078h-1.2V35.38a7.066,7.066,0,0,1,.065-1.131H8.671a6.074,6.074,0,0,1,.078,1.131v.078H4.173V35.38a9.164,9.164,0,0,1,.065-1.131H3.3A5.979,5.979,0,0,1,3.38,35.38Zm.793,4.875v-.962H8.749v.962Zm0-1.638v-.923H8.749v.923Zm0-1.6V36.16H8.749V37.1Zm1.82,5.538h-1.6a8.654,8.654,0,0,1-1.131-.052v.806a9.176,9.176,0,0,1,1.131-.052h1.6v1.443H2.8A10.827,10.827,0,0,1,1.4,44.714v.858a10.9,10.9,0,0,1,1.417-.078H10.3a10.607,10.607,0,0,1,1.391.078v-.858a9.066,9.066,0,0,1-1.365.065H6.76V43.336H8.619a8.781,8.781,0,0,1,1.131.052v-.806a8.654,8.654,0,0,1-1.131.052H6.76v-.117a5.555,5.555,0,0,1,.065-1.04h-.9a7.089,7.089,0,0,1,.065,1.04Zm12.649-5.356a14.216,14.216,0,0,1-2.119,3.081A11.86,11.86,0,0,1,13.481,43a2.452,2.452,0,0,1,.611.767,13.908,13.908,0,0,0,2.47-2.184,12.152,12.152,0,0,0,2.457-3.757c-.039.7-.052,1.2-.052,1.677v2.951H17.693a7.831,7.831,0,0,1-1.287-.065v.91a7.3,7.3,0,0,1,1.313-.078h1.248v1.222a10.316,10.316,0,0,1-.091,1.508H19.9a9.672,9.672,0,0,1-.091-1.5V43.219H21.2a7.153,7.153,0,0,1,1.287.078v-.91a7.664,7.664,0,0,1-1.261.065H19.812V39.5c0-.429-.013-.91-.052-1.69a12.373,12.373,0,0,0,2.431,3.653,14.754,14.754,0,0,0,2.7,2.275,3.444,3.444,0,0,1,.6-.845,13.515,13.515,0,0,1-5.356-5.616h3.51a14.03,14.03,0,0,1,1.456.078v-.949a8.512,8.512,0,0,1-1.456.091H19.812V35.38a6.988,6.988,0,0,1,.091-1.17H18.876a7.365,7.365,0,0,1,.091,1.183V36.5h-3.64a9.68,9.68,0,0,1-1.43-.091v.949a12.826,12.826,0,0,1,1.43-.078Zm9.607,1.144-.312.013a7.768,7.768,0,0,1-1-.065l.182.962a5.769,5.769,0,0,1,.611-.052c.4-.013.767-.026,1.079-.039,1.027-.026,1.69-.052,2.964-.13,2.21-.13,2.821-.182,4.6-.377.39.468.559.676,1.066,1.365l.728-.572a31.2,31.2,0,0,0-3.8-3.913l-.715.455a14.612,14.612,0,0,1,2.132,2c-2.2.208-2.483.221-5.954.325a29.181,29.181,0,0,0,2.275-3.562c.1-.195.1-.195.143-.273L31.3,34.21a15.914,15.914,0,0,1-2.457,4.212Zm.975,7.462v-.793h6.552v.793h.91a8.859,8.859,0,0,1-.078-1.209V41.568a6.272,6.272,0,0,1,.065-1.04,7.32,7.32,0,0,1-1.027.052H29.367a7.2,7.2,0,0,1-1.027-.052,8.753,8.753,0,0,1,.065,1.04v3.107a9.749,9.749,0,0,1-.078,1.209Zm0-4.537h6.552v2.977H29.224Zm17.459-.481a6.719,6.719,0,0,0,1.079,2.288,9.046,9.046,0,0,0,3.328,2.782,2.517,2.517,0,0,1,.468-.806,8.214,8.214,0,0,1-2.7-1.833,15.558,15.558,0,0,0,1.274-1.092c.39-.377.39-.377.52-.507L50,41.191a8.849,8.849,0,0,1-1.612,1.534,5.451,5.451,0,0,1-.936-1.859h2.587a8.906,8.906,0,0,1,1.274.078v-.858a7.068,7.068,0,0,1-1.248.078H45.8v-1.17h3.237a8.256,8.256,0,0,1,1.209.065v-.806a6.688,6.688,0,0,1-1.209.065H45.8V37.187h3.237a10.759,10.759,0,0,1,1.209.065v-.806a6.6,6.6,0,0,1-1.209.065H45.8V35.419h3.64a8.043,8.043,0,0,1,1.274.065v-.832a7.783,7.783,0,0,1-1.339.078H46.319a9.1,9.1,0,0,1-1.339-.065,9.882,9.882,0,0,1,.052,1.274v4.225h-.975V37.551a9.9,9.9,0,0,1,.052-1.209,4.913,4.913,0,0,1-1.04.065h-.7v-.858a6.477,6.477,0,0,1,.078-1.326h-.923a8.244,8.244,0,0,1,.078,1.326v.858h-.624a7.907,7.907,0,0,1-1.092-.065c.026.338.039.741.039,1.235v4.1a12.949,12.949,0,0,1-.065,1.417h.871a9.141,9.141,0,0,1-.065-1.391V37.135H41.6v7.423a7.463,7.463,0,0,1-.078,1.43h.923a7.3,7.3,0,0,1-.078-1.43V37.135h.949v4.758c0,.117-.039.156-.208.156a2.126,2.126,0,0,1-.52-.078,1.857,1.857,0,0,1,.117.793c.52.039.533.039.572.039.585,0,.78-.208.78-.793V40.866h.9v3.952a9.379,9.379,0,0,1-1.521.234l.195.858c.481-.1.507-.117.572-.13a26.781,26.781,0,0,0,3.718-1.014L47.879,44c-.949.325-1.352.442-2.119.637v-3.77ZM58.5,38.994a1.066,1.066,0,1,0,1.066,1.066A1.071,1.071,0,0,0,58.5,38.994ZM70.6,36.03c.1-.221.377-.9.507-1.2a3.8,3.8,0,0,1,.234-.559l-.962-.195a8.028,8.028,0,0,1-.65,1.95H67.314a9.2,9.2,0,0,1-1.43-.078v.91a12.7,12.7,0,0,1,1.43-.065h2.054a12.627,12.627,0,0,1-1.079,1.768h-.715a5.814,5.814,0,0,1,.065.832,12.181,12.181,0,0,1-2.093,1.963,2.307,2.307,0,0,1,.624.663,11.709,11.709,0,0,0,1.469-1.43v3.965a8.544,8.544,0,0,1-.078,1.339h.988a9.258,9.258,0,0,1-.078-1.339V39.6A18.756,18.756,0,0,0,70.239,36.8h5.59a12.774,12.774,0,0,1,1.417.065v-.91a9.123,9.123,0,0,1-1.417.078Zm2.73,4.1V39.033a7.882,7.882,0,0,1,.078-1.391H72.4a8.223,8.223,0,0,1,.078,1.378v1.1H70.733a7.069,7.069,0,0,1-1.248-.078v.871a10.762,10.762,0,0,1,1.248-.052h1.742v3.679h-2.21a12.368,12.368,0,0,1-1.3-.065v.9a9.3,9.3,0,0,1,1.3-.078h5.642a11.408,11.408,0,0,1,1.3.078v-.9a7.83,7.83,0,0,1-1.287.065H73.333V40.866h2.041a10.659,10.659,0,0,1,1.235.052v-.871a7,7,0,0,1-1.235.078ZM80.4,35.861a17.759,17.759,0,0,0,2.99-.78c.143-.052.247-.091.3-.1a2.612,2.612,0,0,0,.416-.143l-.637-.689a1.965,1.965,0,0,1-.546.286,14.286,14.286,0,0,1-3.38.832,4.93,4.93,0,0,1,.078.845l.117,2.938a4.9,4.9,0,0,1-1.027.182l.247.858c.26-.091.273-.091.364-.13a27.527,27.527,0,0,0,4.03-1.417,7.152,7.152,0,0,1,.286.663l.7-.351a10.227,10.227,0,0,0-1.612-2.483l-.65.325a7.933,7.933,0,0,1,.949,1.248,25.153,25.153,0,0,1-2.522.9Zm5.733-.169a4.389,4.389,0,0,1-.442,2.093,4.066,4.066,0,0,1-1.885,1.742,2.975,2.975,0,0,1,.546.637,5.437,5.437,0,0,0,1.885-1.716,4.8,4.8,0,0,0,.689-2.756H89.05a12.671,12.671,0,0,1-.377,3.055c-.078.234-.221.312-.546.312a5.7,5.7,0,0,1-1.443-.208,3.009,3.009,0,0,1,.143.806,11.934,11.934,0,0,0,1.352.1c.767,0,1.1-.195,1.261-.728a12.823,12.823,0,0,0,.39-2.782,9.234,9.234,0,0,1,.091-1.313c-.26.026-.6.039-1.079.039h-3.2a6.532,6.532,0,0,1-1.183-.065v.845a5.516,5.516,0,0,1,1.079-.065Zm-4.823,4.719a8.782,8.782,0,0,1-1.131-.052,10.033,10.033,0,0,1,.052,1.209v3.094a8.781,8.781,0,0,1-.078,1.222h.858V45.26H88.14v.624h.871a8.519,8.519,0,0,1-.078-1.222V41.581a9.213,9.213,0,0,1,.052-1.222,9.662,9.662,0,0,1-1.2.052Zm-.3.663H84.11v1.352H81.016Zm3.861,0h3.276v1.352H84.877Zm-3.861,2H84.11v1.508H81.016Zm3.861,0h3.276v1.508H84.877Zm9.269-5.915a7.161,7.161,0,0,1-1.4-.091l.013.988a7.837,7.837,0,0,1,1.378-.065L96.5,37.98a8.459,8.459,0,0,1-.806,3.094,7.6,7.6,0,0,1-3.38,3.419,2.693,2.693,0,0,1,.663.767,9.388,9.388,0,0,0,3.406-3.445,9.8,9.8,0,0,0,1.04-3.835l3.64-.013a28.624,28.624,0,0,1-.325,4.615c-.247,1.287-.455,1.6-1.092,1.6a5.489,5.489,0,0,1-1.677-.338,2.137,2.137,0,0,1,.143.819v.156a7.4,7.4,0,0,0,1.612.221c1.17,0,1.56-.468,1.885-2.249a35.463,35.463,0,0,0,.364-4.55,1.947,1.947,0,0,1,.1-.78l-.481-.416a2.077,2.077,0,0,1-.858.091l-3.25.013c.039-.364.039-.52.065-.923a10.856,10.856,0,0,1,.1-1.677L96.6,34.522a3.485,3.485,0,0,1,.052.676c0,.572-.026,1.287-.078,1.95Zm10.985,3.38a14.2,14.2,0,0,1,1.612-.052h7.54a14.871,14.871,0,0,1,1.586.052V39.488a10.253,10.253,0,0,1-1.573.065h-7.553a9.2,9.2,0,0,1-1.612-.078ZM121.966,45.4a8.041,8.041,0,0,1-.065-1.378V40.112a4.347,4.347,0,0,0-.052-.767l.026-.013a1.648,1.648,0,0,0,.4.221,27.074,27.074,0,0,1,4.849,2.574l.559-.962a34.131,34.131,0,0,0-5.785-2.743V35.991a7.4,7.4,0,0,1,.065-1.352h-1.118a7.64,7.64,0,0,1,.078,1.326v8.073a8.624,8.624,0,0,1-.078,1.365ZM125.19,35.5a9.628,9.628,0,0,1,1.339,2.067l.65-.39a9.869,9.869,0,0,0-1.339-2.015Zm1.482-.7A9.486,9.486,0,0,1,128,36.849l.65-.377a10.951,10.951,0,0,0-1.339-2.028Zm9.828,4.2a1.066,1.066,0,1,0,1.066,1.066A1.071,1.071,0,0,0,136.5,38.994Zm12.493-1.573v2.015H147.6a6.8,6.8,0,0,1-1.183-.065v.819a7.179,7.179,0,0,1,1.183-.065h1.391V42.5H147.03a8.725,8.725,0,0,1-1.287-.078v.858a9.1,9.1,0,0,1,1.287-.078h4.953a9.035,9.035,0,0,1,1.274.078v-.858a8.656,8.656,0,0,1-1.274.078H149.8V40.125h1.6a7.006,7.006,0,0,1,1.17.065v-.819a6.726,6.726,0,0,1-1.17.065h-1.6V37.421h2a8.266,8.266,0,0,1,1.261.065v-.832a7.953,7.953,0,0,1-1.274.078H147.2a6.313,6.313,0,0,1-1.222-.078v.832a7.813,7.813,0,0,1,1.222-.065Zm1.833,3.263a7.159,7.159,0,0,1,1.157,1.612l.611-.39a8.026,8.026,0,0,0-1.222-1.547Zm-6.682,3.523a12.6,12.6,0,0,1-.078,1.781h.91v-.793H154v.793h.91a12.727,12.727,0,0,1-.078-1.781V36.29a13.8,13.8,0,0,1,.078-1.6,13.05,13.05,0,0,1-1.547.065h-7.774a11.943,11.943,0,0,1-1.521-.065,14.963,14.963,0,0,1,.078,1.6Zm.832-8.71H154v8.957h-9.022Zm20.709,2.873c.52,0,.9.013,1.287.039a8.279,8.279,0,0,1-.039-.962V35.9a6.686,6.686,0,0,1,.039-1.04,10.1,10.1,0,0,1-1.352.065h-5.785a11.818,11.818,0,0,1-1.521-.065c.039.494.052.832.052,1.469v8.32a11.163,11.163,0,0,1-1.495.208l.221.936a6.064,6.064,0,0,1,.715-.182,39.682,39.682,0,0,0,5.317-1.417l-.026-.806a33.737,33.737,0,0,1-3.887,1.092V41.022l3.822-.052a9.31,9.31,0,0,0,1.391,2.782,4.164,4.164,0,0,0,2.613,1.976c.689,0,1.027-.585,1.313-2.314a2.7,2.7,0,0,1-.78-.494c-.117,1.3-.312,1.872-.611,1.872a3.08,3.08,0,0,1-1.417-.988,7.428,7.428,0,0,1-1.651-2.847l2.769-.026a11.72,11.72,0,0,1,1.365.039v-.9a6.484,6.484,0,0,1-1.378.091l-2.964.039a10,10,0,0,1-.3-1.833Zm-3.146,0c.091.754.169,1.222.3,1.846l-3.627.039V38.37Zm-3.328-2.7h6.9v1.976h-6.9Zm12.805,6.2h-.988a8.99,8.99,0,0,1-1.313-.078v.936a9.37,9.37,0,0,1,1.313-.078h4.693v2.145A5.788,5.788,0,0,1,175.643,46h1.027a5.928,5.928,0,0,1-.091-1.209V42.647h3.276a9.37,9.37,0,0,1,1.313.078v-.936a8.746,8.746,0,0,1-1.313.078h-3.276V39.319h2.366a9.407,9.407,0,0,1,1.144.052v-.858a7.024,7.024,0,0,1-1.157.065h-2.353V36.459h2.938a7.1,7.1,0,0,1,1.17.065V35.64a6.818,6.818,0,0,1-1.17.065h-6.448l.494-1.053c.078-.156.117-.247.169-.351l-.923-.26a5.146,5.146,0,0,1-.325.949,8.471,8.471,0,0,1-2.6,3.5,2.041,2.041,0,0,1,.624.624,10.694,10.694,0,0,0,2.158-2.652h3.055v2.119H172.9c-.364,0-.65-.013-.923-.039a7.206,7.206,0,0,1,.039.767Zm.845,0V39.319h2.86v2.548Zm15.106-3.146v1.768H184.6a8.534,8.534,0,0,1-1.274-.078v.91a8.84,8.84,0,0,1,1.261-.078h3.38v3.432h-3.549a12,12,0,0,1-1.482-.078v.936a11.338,11.338,0,0,1,1.482-.091h8.19a9.562,9.562,0,0,1,1.43.091V44.6a10.9,10.9,0,0,1-1.417.078h-3.809V41.243h3.627a8.78,8.78,0,0,1,1.274.078v-.91a8.3,8.3,0,0,1-1.274.078h-3.627V38.721H190.4a7.453,7.453,0,0,1,1.2.065V37.98a13.926,13.926,0,0,0,2.535,1.326,4.029,4.029,0,0,1,.52-.832,11.647,11.647,0,0,1-3.393-1.742,8.813,8.813,0,0,1-2.327-2.353h-1a10.644,10.644,0,0,1-5.486,4.121,2.8,2.8,0,0,1,.546.767,12.419,12.419,0,0,0,2.366-1.261v.78a7.835,7.835,0,0,1,1.209-.065Zm-1.417-.715a7.854,7.854,0,0,1-1.1-.052,10.837,10.837,0,0,0,2.99-2.847,11.788,11.788,0,0,0,3.107,2.847,8.375,8.375,0,0,1-1.144.052Zm-1.911,3.978A9.827,9.827,0,0,1,185.77,44.3l.754-.3a13.215,13.215,0,0,0-1.144-2.353Zm6.825-.312a8.779,8.779,0,0,1-1.3,2.457l.728.3a15.578,15.578,0,0,0,1.391-2.418Zm9.672-3.614H197.86a9.608,9.608,0,0,1-1.378-.078v.91a10.675,10.675,0,0,1,1.378-.078h3.276v2.041h-4a9.285,9.285,0,0,1-1.365-.078V41.7a9.787,9.787,0,0,1,1.365-.078h4v2.86c0,.286-.13.377-.546.377a14.027,14.027,0,0,1-2.21-.221,3.058,3.058,0,0,1,.234.9,18.913,18.913,0,0,0,1.95.117c1.105,0,1.417-.221,1.417-1.027v-3H205.7a9.918,9.918,0,0,1,1.365.078v-.923a9.532,9.532,0,0,1-1.365.078h-3.718V38.812h3.146a9.862,9.862,0,0,1,1.378.078v-.91a9.608,9.608,0,0,1-1.378.078h-3.146V35.874a23.011,23.011,0,0,0,3.965-.884l-.715-.767a12.634,12.634,0,0,1-3.315.884,34.1,34.1,0,0,1-5.382.416,2.376,2.376,0,0,1,.338.806,37.6,37.6,0,0,0,4.264-.338ZM7.683,57.866a6.719,6.719,0,0,0,1.079,2.288,9.046,9.046,0,0,0,3.328,2.782,2.517,2.517,0,0,1,.468-.806,8.214,8.214,0,0,1-2.7-1.833,15.558,15.558,0,0,0,1.274-1.092c.39-.377.39-.377.52-.507L11,58.191a8.849,8.849,0,0,1-1.612,1.534,5.451,5.451,0,0,1-.936-1.859h2.587a8.906,8.906,0,0,1,1.274.078v-.858a7.068,7.068,0,0,1-1.248.078H6.8v-1.17h3.237a8.256,8.256,0,0,1,1.209.065v-.806a6.688,6.688,0,0,1-1.209.065H6.8V54.187h3.237a10.759,10.759,0,0,1,1.209.065v-.806a6.6,6.6,0,0,1-1.209.065H6.8V52.419h3.64a8.043,8.043,0,0,1,1.274.065v-.832a7.783,7.783,0,0,1-1.339.078H7.319a9.1,9.1,0,0,1-1.339-.065,9.882,9.882,0,0,1,.052,1.274v4.225H5.057V54.551a9.9,9.9,0,0,1,.052-1.209,4.913,4.913,0,0,1-1.04.065h-.7v-.858a6.477,6.477,0,0,1,.078-1.326H2.522A8.244,8.244,0,0,1,2.6,52.549v.858H1.976a7.907,7.907,0,0,1-1.092-.065c.026.338.039.741.039,1.235v4.1a12.949,12.949,0,0,1-.065,1.417h.871A9.141,9.141,0,0,1,1.664,58.7V54.135H2.6v7.423a7.463,7.463,0,0,1-.078,1.43h.923a7.3,7.3,0,0,1-.078-1.43V54.135h.949v4.758c0,.117-.039.156-.208.156a2.126,2.126,0,0,1-.52-.078,1.857,1.857,0,0,1,.117.793c.52.039.533.039.572.039.585,0,.78-.208.78-.793V57.866h.9v3.952a9.379,9.379,0,0,1-1.521.234l.2.858c.481-.1.507-.117.572-.13a26.781,26.781,0,0,0,3.718-1.014L8.879,61c-.949.325-1.352.442-2.119.637v-3.77ZM19.5,55.994a1.066,1.066,0,1,0,1.066,1.066A1.071,1.071,0,0,0,19.5,55.994ZM29.9,53.9H28.639a9.5,9.5,0,0,1-1.313-.078v.923a8.819,8.819,0,0,1,1.313-.065H29.9V57.97H28.262a9.854,9.854,0,0,1-1.508-.091v.975a12.182,12.182,0,0,1,1.508-.091H36.7a12.768,12.768,0,0,1,1.56.091v-.975a12.28,12.28,0,0,1-1.56.091h-1.69V54.681H36.4a11.659,11.659,0,0,1,1.378.065v-.923A10.124,10.124,0,0,1,36.4,53.9H35.009v-1.2a8.02,8.02,0,0,1,.091-1.339H34.073a7.858,7.858,0,0,1,.078,1.352V53.9H30.745V52.692a8.659,8.659,0,0,1,.078-1.339H29.809a7.057,7.057,0,0,1,.091,1.339Zm.845,4.069V54.681h3.406V57.97Zm-.195,1.4a6.7,6.7,0,0,1-1.638,1.677,8.67,8.67,0,0,1-2.106,1.118,2.453,2.453,0,0,1,.611.715A9.762,9.762,0,0,0,29.2,61.87a10.108,10.108,0,0,0,2.093-2.015Zm3.068.494A11.436,11.436,0,0,0,35.347,61.6,10.814,10.814,0,0,0,37.6,62.962a2.548,2.548,0,0,1,.611-.754A10.637,10.637,0,0,1,36.1,61.09a6.518,6.518,0,0,1-1.755-1.729Zm15.34.247v1.378a10.4,10.4,0,0,1-.078,1.378h.936a9.917,9.917,0,0,1-.078-1.365V56.592a12.944,12.944,0,0,0,1.4.325,2.462,2.462,0,0,1,.429-.793A12.206,12.206,0,0,1,47.7,55.032a6.326,6.326,0,0,0,1.846-1.963h.572a6.5,6.5,0,0,1,1.131.065v-.806a6.818,6.818,0,0,1-1.17.065H47.242v-.182a6.067,6.067,0,0,1,.078-1.066h-.962a6.551,6.551,0,0,1,.078,1.079v.169H44.083a6.834,6.834,0,0,1-1.157-.065v.806a6.59,6.59,0,0,1,1.131-.065h.234a6.769,6.769,0,0,0,2.015,1.963,11.374,11.374,0,0,1-3.939,1.105,1.712,1.712,0,0,1,.4.754c.6-.1.793-.143,1.274-.26a11.638,11.638,0,0,1-.325,3.094,4.047,4.047,0,0,1-1.9,2.561,2.2,2.2,0,0,1,.715.611,4.852,4.852,0,0,0,1.9-2.782Zm0-2.782H44.824c.013-.286.026-.429.039-.923a10.211,10.211,0,0,0,2.145-.936,12.282,12.282,0,0,0,1.95.871Zm-.338-4.264a5.154,5.154,0,0,1-1.638,1.573,5.445,5.445,0,0,1-1.794-1.573Zm.338,4.953v1.391H44.616c.065-.4.13-.845.169-1.391Zm-8.827-6.1A8.888,8.888,0,0,1,42.2,53.706l.572-.663a14.12,14.12,0,0,0-2.093-1.69Zm-.6,3.185A8.757,8.757,0,0,1,41.769,56.9l.507-.728A11.3,11.3,0,0,0,40.04,54.5Zm2.184,2.964a12.433,12.433,0,0,1-2.132,4.082l.754.676c.052-.1.052-.1.1-.195.091-.169.1-.182.208-.364a20.908,20.908,0,0,0,1.755-3.692Zm11.18-.429a8.061,8.061,0,0,1,1.313-.13c.208-.013.377-.026.78-.065V61.6a10.043,10.043,0,0,1-.078,1.339h.949a9.384,9.384,0,0,1-.078-1.339V57.359c.286-.026.728-.078,1.339-.169.13.3.182.429.351.871l.65-.325a14.248,14.248,0,0,0-1.261-2.457l-.611.273a6.578,6.578,0,0,1,.585,1.027c-1,.13-1.3.156-2.093.208A29.961,29.961,0,0,0,57.1,53.446c.169-.247.247-.364.351-.494l-.754-.442A14.165,14.165,0,0,1,55.2,55.058c-.351-.416-.416-.494-.845-.949.4-.572.754-1.118,1.157-1.807a4.733,4.733,0,0,1,.468-.78l-.845-.351a10.4,10.4,0,0,1-1.287,2.418c-.3-.286-.377-.364-.754-.676l-.416.65a13.313,13.313,0,0,1,2.08,2.106c-.377.533-.494.676-.9,1.17-.169,0-.4.013-.52.013a3.541,3.541,0,0,1-.585-.039Zm.65.65a9.909,9.909,0,0,1-.975,3.458l.715.351a12.429,12.429,0,0,0,.988-3.64Zm2.808.143a11.419,11.419,0,0,1,.637,2.587l.689-.195a13.369,13.369,0,0,0-.689-2.6Zm7.007,3.25V53.277c0-.767.013-1.053.039-1.482a12.945,12.945,0,0,1-1.417.052H59.67c-.585,0-.923-.013-1.3-.039.039.429.052.806.052,1.339v8.541h-.507a6.392,6.392,0,0,1-1.092-.078v.884a8.392,8.392,0,0,1,1.222-.078h5.2a8.775,8.775,0,0,1,1.248.078V61.61a5.9,5.9,0,0,1-1.027.078ZM59.2,52.6h3.38v2.47H59.2Zm0,3.2h3.38v2.535H59.2Zm0,3.263h3.38v2.626H59.2Zm11.765-7.839a9.457,9.457,0,0,1-2,2.262,13.559,13.559,0,0,1-3.536,2.262,2.26,2.26,0,0,1,.546.741,15.031,15.031,0,0,0,2.756-1.69,12.113,12.113,0,0,0,2.73-2.847,10.921,10.921,0,0,0,2,2.184,18.172,18.172,0,0,0,3.666,2.392,3.365,3.365,0,0,1,.52-.819,13.632,13.632,0,0,1-3.562-2.132,8.93,8.93,0,0,1-2.145-2.353Zm-2.535,4.836a7.477,7.477,0,0,1,1.014-.052h4.043a8,8,0,0,1,1.092.052v-.884a7.762,7.762,0,0,1-1.092.052h-4.03a6.644,6.644,0,0,1-1.027-.052Zm-.091,6.786v-.754H74.62v.754h.936a9.035,9.035,0,0,1-.078-1.274V58.7a7.857,7.857,0,0,1,.065-1.2,6.889,6.889,0,0,1-1.014.052h-6.1a6.889,6.889,0,0,1-1.014-.052,8.175,8.175,0,0,1,.065,1.2v2.873a9.436,9.436,0,0,1-.078,1.274Zm0-4.5H74.62v2.977H68.341Zm14.6.156a19.6,19.6,0,0,1-1.651,3.133c-1.17.078-1.17.078-1.378.078a6.017,6.017,0,0,1-.663-.039l.156.988a15.6,15.6,0,0,1,2.2-.234c2.028-.156,3.991-.364,6.305-.676.273.338.442.559.949,1.274l.715-.533a28.117,28.117,0,0,0-3.146-3.432l-.676.416c.572.533.806.767,1.586,1.612-1.924.234-3.276.364-5.07.481A19.554,19.554,0,0,0,83.889,58.5h4.667a11.287,11.287,0,0,1,1.482.078v-.936a11.017,11.017,0,0,1-1.482.078H80.548a11.151,11.151,0,0,1-1.482-.078v.936a11.15,11.15,0,0,1,1.482-.078Zm1.079-7.254a9.561,9.561,0,0,1-2.067,2.314,13.639,13.639,0,0,1-3.445,2.119,2.61,2.61,0,0,1,.546.741,14.281,14.281,0,0,0,3.51-2.288A11.251,11.251,0,0,0,84.513,52a10.794,10.794,0,0,0,2.08,2.223,17.86,17.86,0,0,0,3.614,2.262,2.753,2.753,0,0,1,.507-.832,14.042,14.042,0,0,1-3.588-2.08,8.742,8.742,0,0,1-2.184-2.327ZM81.38,56.137a7.476,7.476,0,0,1,1.014-.052h4.212a8,8,0,0,1,1.092.052v-.871a7.881,7.881,0,0,1-1.092.052h-4.2a6.863,6.863,0,0,1-1.027-.052ZM101.7,52.549a6.754,6.754,0,0,1,.052-.936,10.8,10.8,0,0,1-1.482.065H94.757a10.684,10.684,0,0,1-1.482-.065,7.53,7.53,0,0,1,.052.936v.819a6.606,6.606,0,0,1-.052.91c.39-.026.858-.039,1.456-.039h5.551c.6,0,1.079.013,1.469.039a6.25,6.25,0,0,1-.052-.91Zm-.832-.182v1.209H94.146V52.367Zm-8.034,7.1a9,9,0,0,1-.052,1.365,14.534,14.534,0,0,1,1.469-.052h6.5a14.371,14.371,0,0,1,1.469.052c-.026-.247-.039-.351-.039-.442v-.221l-.013-.7V56.436a12.349,12.349,0,0,1,.052-1.417c-.39.039-.819.052-1.469.052h-6.5a14.535,14.535,0,0,1-1.469-.052,12.793,12.793,0,0,1,.052,1.417Zm.806-3.7h7.722v.988H93.639Zm0,1.638h7.722v1.014H93.639Zm0,1.664h7.722V60.1H93.639ZM95.3,60.83a8.016,8.016,0,0,1-3.757,1.495,2.558,2.558,0,0,1,.585.754,15.135,15.135,0,0,0,1.989-.663,8.375,8.375,0,0,0,1.872-1.066Zm3.64.494a10.583,10.583,0,0,0,3.939,1.768,2.661,2.661,0,0,1,.559-.728,9.729,9.729,0,0,1-3.874-1.547Zm13.715.221H111.02V56.228a8.627,8.627,0,0,1,.078-1.313h-.962a7.825,7.825,0,0,1,.078,1.313v5.317a6.6,6.6,0,0,1-1.053-.052v.884a8.488,8.488,0,0,1,1.326-.065h4.706a9.186,9.186,0,0,1,1.326.078v-.923a9.369,9.369,0,0,1-1.313.078h-1.729V57.06H114.8a8.226,8.226,0,0,1,1.261.078v-.91a8.11,8.11,0,0,1-1.261.078h-1.326V52.6h1.469a9.511,9.511,0,0,1,1.339.078v-.91a9.259,9.259,0,0,1-1.339.078H110.89a9.135,9.135,0,0,1-1.339-.078v.91a9.641,9.641,0,0,1,1.339-.078h1.768Zm-7.592-9.113a7.436,7.436,0,0,1,.988-.052h1.833a7.189,7.189,0,0,1,.988.052v-.819a5.37,5.37,0,0,1-.988.065h-1.833a5.285,5.285,0,0,1-.988-.065Zm-.442,1.82a7.647,7.647,0,0,1,1.04-.052h2.613a5.965,5.965,0,0,1,.936.052v-.845a5.306,5.306,0,0,1-1.04.065h-2.509a5.555,5.555,0,0,1-1.04-.065Zm.507,1.82a6.18,6.18,0,0,1,.936-.052h1.807a6.326,6.326,0,0,1,.923.052v-.806a5.479,5.479,0,0,1-.923.052h-1.807a5.757,5.757,0,0,1-.936-.052Zm0,1.794a5.86,5.86,0,0,1,.936-.052h1.807a6.1,6.1,0,0,1,.923.052V57.06a5.68,5.68,0,0,1-.923.052h-1.807a5.758,5.758,0,0,1-.936-.052Zm.754,5.109v-.689h2.093v.52h.767a10.049,10.049,0,0,1-.039-1.053V59.907c0-.468.013-.754.039-1.027a5.211,5.211,0,0,1-.936.039h-1.69a8.839,8.839,0,0,1-1.04-.052,6.846,6.846,0,0,1,.065,1.092v1.768a8.522,8.522,0,0,1-.078,1.248Zm0-3.38h2.093V61.61h-2.093Zm17.615-3.6a1.066,1.066,0,1,0,1.066,1.066A1.071,1.071,0,0,0,123.5,55.994Zm14.391,3.432v.949h-2.405a10.493,10.493,0,0,1-1.3-.052v.832a9.787,9.787,0,0,1,1.365-.078h2.34V61.7a8.438,8.438,0,0,1-.078,1.3h.936a8.325,8.325,0,0,1-.078-1.3v-.624h2.392a9.284,9.284,0,0,1,1.365.078V60.31a7.783,7.783,0,0,1-1.339.065h-2.418v-.949h1.7a11.3,11.3,0,0,1,1.222.052,8.23,8.23,0,0,1-.052-1.157V56.657a8.748,8.748,0,0,1,.052-1.144,9.112,9.112,0,0,1-1.209.052h-4.056a9.315,9.315,0,0,1-1.235-.052,9.3,9.3,0,0,1,.052,1.183v1.69c0,.4-.013.6-.052,1.092.39-.039.793-.052,1.222-.052Zm-1.976-3.2h4.862v.949h-4.862Zm0,1.586h4.862v.949h-4.862Zm2.73-5.616V52a3.927,3.927,0,0,1,.065-.832h-.91a5.6,5.6,0,0,1,.052.832V52.2h-1.638a9.539,9.539,0,0,1-1.287-.065v.78a7.973,7.973,0,0,1,1.1-.052h.065a6.957,6.957,0,0,1,.416,1.274H135.46a9.779,9.779,0,0,1-1.118-.065v.819a12.352,12.352,0,0,1,1.261-.065h5.525a12.223,12.223,0,0,1,1.274.065V54.07a11.227,11.227,0,0,1-1.261.065h-1.183a10.2,10.2,0,0,0,.533-1.274h.26a10.972,10.972,0,0,1,1.274.052v-.78a11.558,11.558,0,0,1-1.287.065Zm-1.339,1.937a9.016,9.016,0,0,0-.416-1.274h2.795a10,10,0,0,1-.507,1.274ZM131.222,61.4a9.766,9.766,0,0,1-.078,1.6h.949a9.4,9.4,0,0,1-.078-1.586V52.289h1.794a18.34,18.34,0,0,1-1.391,3.328,4.413,4.413,0,0,1,.91,1.352,3.99,3.99,0,0,1,.338,1.612c0,.676-.143.819-.78.819a4.473,4.473,0,0,1-.546-.039,1.557,1.557,0,0,1,.156.767h.273c1.209,0,1.651-.377,1.651-1.417a5.084,5.084,0,0,0-.338-1.781,4.6,4.6,0,0,0-.858-1.391,25.517,25.517,0,0,0,1.144-2.561,5.819,5.819,0,0,1,.4-.962l-.429-.481a8.279,8.279,0,0,1-.962.039h-1.313a7.162,7.162,0,0,1-.9-.039,11.422,11.422,0,0,1,.052,1.2Zm18.6-7.176a4.922,4.922,0,0,1,.078-.884h-.936a4.3,4.3,0,0,1,.065.884h-2.483a5.765,5.765,0,0,1-1.079-.065v.806a6.2,6.2,0,0,1,1.079-.065h2.483v.975h-2.99a5.681,5.681,0,0,1-1.079-.065v.78a6.2,6.2,0,0,1,1.079-.065h2.99v1.04H145.2a7.744,7.744,0,0,1-1.235-.078v.845a7.858,7.858,0,0,1,1.235-.078h8.658a7.744,7.744,0,0,1,1.235.078v-.845a7.744,7.744,0,0,1-1.235.078h-4.03v-1.04h3.25a6.043,6.043,0,0,1,1.066.065v-.78a5.364,5.364,0,0,1-1.066.065h-3.25V54.9h2.743a6.043,6.043,0,0,1,1.066.065v-.806a5.364,5.364,0,0,1-1.066.065Zm-.793-1.9h-3.588a12.822,12.822,0,0,1-1.313-.052,5.92,5.92,0,0,1,.052.871v.715a6.213,6.213,0,0,1-.052.923h.858V53.03h9.139v1.755h.845a6.028,6.028,0,0,1-.052-.91v-.728a5.382,5.382,0,0,1,.052-.871,12.715,12.715,0,0,1-1.3.052h-3.8V51.99a3.3,3.3,0,0,1,.091-.819h-1.027a3.44,3.44,0,0,1,.091.819Zm-2.795,10h6.63v.663h.9a8.128,8.128,0,0,1-.078-1.131v-1.7a6.016,6.016,0,0,1,.065-1.027,6.071,6.071,0,0,1-.936.052h-6.539a6.1,6.1,0,0,1-.923-.052,6.4,6.4,0,0,1,.065,1.027v1.69a8.9,8.9,0,0,1-.078,1.144h.9Zm0-2.431h6.63v1.729h-6.63Zm16.25-3.965a24.645,24.645,0,0,1-5.993,2.912,2.784,2.784,0,0,1,.507.741c1.092-.455,1.807-.767,2.548-1.157-.013.325-.013.663-.013.936v2.21a9.384,9.384,0,0,1-.078,1.339h.91V62.3h5.369v.611h.9a8.782,8.782,0,0,1-.065-1.339V58.659a10.006,10.006,0,0,1,.052-1.43c-.455.039-.793.052-1.417.052h-2.236c-.364,0-.663,0-1.352.026.767-.468,1.352-.845,2.093-1.378h3.068a11.4,11.4,0,0,1,1.43.078v-.9a9.081,9.081,0,0,1-1.391.078h-2.132a18.3,18.3,0,0,0,2.522-2.47c.169-.208.247-.3.4-.468l-.767-.507a12.535,12.535,0,0,1-3.276,3.445H162.4V53.563h1.248a9.141,9.141,0,0,1,1.391.065V52.77a9.319,9.319,0,0,1-1.43.078H162.4v-.455a6.147,6.147,0,0,1,.078-1.235H161.5a7.973,7.973,0,0,1,.078,1.235v.455H159.5a8.785,8.785,0,0,1-1.417-.078v.858a10,10,0,0,1,1.4-.065h2.093v1.625H158.3a8.945,8.945,0,0,1-1.443-.078v.9a11.112,11.112,0,0,1,1.43-.078Zm-2.119,2.054h5.382v1.378h-5.382Zm0,2.08h5.382V61.6h-5.382Zm14.768-5.005H171.86a9.608,9.608,0,0,1-1.378-.078v.91a10.675,10.675,0,0,1,1.378-.078h3.276v2.041h-4a9.285,9.285,0,0,1-1.365-.078V58.7a9.787,9.787,0,0,1,1.365-.078h4v2.86c0,.286-.13.377-.546.377a14.027,14.027,0,0,1-2.21-.221,3.058,3.058,0,0,1,.234.9,18.913,18.913,0,0,0,1.95.117c1.105,0,1.417-.221,1.417-1.027v-3H179.7a9.918,9.918,0,0,1,1.365.078v-.923a9.532,9.532,0,0,1-1.365.078h-3.718V55.812h3.146a9.862,9.862,0,0,1,1.378.078v-.91a9.608,9.608,0,0,1-1.378.078h-3.146V52.874a23.011,23.011,0,0,0,3.965-.884l-.715-.767a12.634,12.634,0,0,1-3.315.884,34.1,34.1,0,0,1-5.382.416,2.376,2.376,0,0,1,.338.806,37.6,37.6,0,0,0,4.264-.338Zm14.547,2.808a6.719,6.719,0,0,0,1.079,2.288,9.046,9.046,0,0,0,3.328,2.782,2.517,2.517,0,0,1,.468-.806,8.214,8.214,0,0,1-2.7-1.833,15.562,15.562,0,0,0,1.274-1.092c.39-.377.39-.377.52-.507l-.65-.507a8.849,8.849,0,0,1-1.612,1.534,5.451,5.451,0,0,1-.936-1.859h2.587a8.906,8.906,0,0,1,1.274.078v-.858a7.068,7.068,0,0,1-1.248.078H188.8v-1.17h3.237a8.255,8.255,0,0,1,1.209.065v-.806a6.688,6.688,0,0,1-1.209.065H188.8V54.187h3.237a10.759,10.759,0,0,1,1.209.065v-.806a6.6,6.6,0,0,1-1.209.065H188.8V52.419h3.64a8.043,8.043,0,0,1,1.274.065v-.832a7.783,7.783,0,0,1-1.339.078h-3.055a9.1,9.1,0,0,1-1.339-.065,9.882,9.882,0,0,1,.052,1.274v4.225h-.975V54.551a9.9,9.9,0,0,1,.052-1.209,4.913,4.913,0,0,1-1.04.065h-.7v-.858a6.477,6.477,0,0,1,.078-1.326h-.923a8.244,8.244,0,0,1,.078,1.326v.858h-.624a7.907,7.907,0,0,1-1.092-.065c.026.338.039.741.039,1.235v4.1a12.948,12.948,0,0,1-.065,1.417h.871a9.141,9.141,0,0,1-.065-1.391V54.135h.936v7.423a7.462,7.462,0,0,1-.078,1.43h.923a7.3,7.3,0,0,1-.078-1.43V54.135h.949v4.758c0,.117-.039.156-.208.156a2.126,2.126,0,0,1-.52-.078,1.857,1.857,0,0,1,.117.793c.52.039.533.039.572.039.585,0,.78-.208.78-.793V57.866h.9v3.952a9.379,9.379,0,0,1-1.521.234l.2.858c.481-.1.507-.117.572-.13a26.781,26.781,0,0,0,3.718-1.014L190.879,61c-.949.325-1.352.442-2.119.637v-3.77Z" transform="translate(699 1302.145)" fill="#1b1311"/>
    <g id="グループ_62011" data-name="グループ 62011" transform="translate(-314.449 -248.354)">
      <g id="長方形_13551" data-name="長方形 13551" transform="translate(1134.473 1492.75)" fill="#fff" stroke="#707070" stroke-width="1">
        <rect id="fill" width="0.541" height="0.541" stroke="none"/>
        <path d="M0,0.041255176067352295h0.5412551760673523M0.5,0v0.5412551760673523M0.5412551760673523,0.5h-0.5412551760673523M0.041255176067352295,0.5412551760673523v-0.5412551760673523" fill="none" clip-path="url(#clip)"/>
      </g>
      <path id="パス_51327" data-name="パス 51327" d="M21.1,10.7a21.89,21.89,0,0,1,37.632,0L76.651,40.653c8.817,14.738-1.726,33.52-18.816,33.52H22c-17.09,0-27.633-18.783-18.816-33.52Z" transform="matrix(0.961, 0.276, -0.276, 0.961, 1098.707, 1437)" fill="#ffc2b9"/>
      <path id="パス_51326" data-name="パス 51326" d="M21.318,10.742a22.191,22.191,0,0,1,38.02,0L77.44,40.8A22.191,22.191,0,0,1,58.43,74.44h-36.2A22.191,22.191,0,0,1,3.216,40.8Z" transform="translate(1152.981 1539.497) rotate(-164)" fill="#ff8977" opacity="0.6"/>
      <g id="グループ_20161" data-name="グループ 20161" transform="translate(1118.438 1482.539)">
        <g id="グループ_2818" data-name="グループ 2818" transform="translate(0 0)" clip-path="url(#clip-path)">
          <path id="パス_5724" data-name="パス 5724" d="M24.925,27.968H2.843A2.846,2.846,0,0,1,0,25.126V12.843A2.846,2.846,0,0,1,2.843,10H5.717a.817.817,0,1,1,0,1.633H2.843a1.211,1.211,0,0,0-1.209,1.209V25.126a1.211,1.211,0,0,0,1.209,1.209H24.925a1.21,1.21,0,0,0,1.209-1.209V12.843a1.21,1.21,0,0,0-1.209-1.209H24.5A.817.817,0,1,1,24.5,10h.425a2.846,2.846,0,0,1,2.842,2.842V25.126a2.846,2.846,0,0,1-2.842,2.842" transform="translate(0.09 -2.019)"/>
          <path id="パス_5725" data-name="パス 5725" d="M6.252,17.646a.816.816,0,0,1-.805-.951l.695-4.172a.813.813,0,0,1,.228-.443L18.212.239A.809.809,0,0,1,18.842,0,5.263,5.263,0,0,1,21.727,1.09a.8.8,0,0,1,.138.136,5.414,5.414,0,0,1,1.179,2.968.818.818,0,0,1-.237.642L10.966,16.676a.807.807,0,0,1-.435.227l-4.136.73a.754.754,0,0,1-.142.013m1.458-4.6-.462,2.773,2.745-.484L21.37,3.963a3.785,3.785,0,0,0-.719-1.638,3.634,3.634,0,0,0-1.562-.653Z" transform="translate(-0.907 -0.185)"/>
          <path id="パス_5726" data-name="パス 5726" d="M26.167,21.634h-7.35a.817.817,0,1,1,0-1.633h7.35a.817.817,0,1,1,0,1.633" transform="translate(-3.21 -3.852)"/>
          <path id="パス_5727" data-name="パス 5727" d="M25.433,26.634H14.817a.817.817,0,1,1,0-1.633H25.433a.817.817,0,0,1,0,1.633" transform="translate(-2.477 -4.769)"/>
          <path id="パス_5728" data-name="パス 5728" d="M20.544,9.575a.814.814,0,0,1-.577-.239L16.526,5.9A.817.817,0,1,1,17.681,4.74l3.441,3.441a.817.817,0,0,1-.577,1.394" transform="translate(-2.896 -1.011)"/>
          <path id="パス_5729" data-name="パス 5729" d="M21.485,13.6a.817.817,0,0,1-.577-1.394l4-4,.727.4-.672-.464a.353.353,0,0,0-.089-.492.849.849,0,0,1-.114-.095L23.71,6.509a.817.817,0,1,1,1.155-1.155l1,1a1.987,1.987,0,0,1,.189,3.011l-3.992,3.992a.814.814,0,0,1-.577.239" transform="translate(-3.699 -1.123)"/>
        </g>
      </g>
      <g id="グループ_2795" data-name="グループ 2795" transform="matrix(0.985, -0.174, 0.174, 0.985, 1104.538, 1471.532)">
        <g id="グループ_2794" data-name="グループ 2794" clip-path="url(#clip-path-2)">
          <path id="パス_5702" data-name="パス 5702" d="M9.1,12.56H1.689A1.691,1.691,0,0,1,0,10.871v-10a.866.866,0,0,1,1.732,0v9.962H9.1a.866.866,0,1,1,0,1.732" transform="translate(1.732 8.229)"/>
          <path id="パス_5703" data-name="パス 5703" d="M12.127,17.324H1.732A1.734,1.734,0,0,1,0,15.592V1.732A1.734,1.734,0,0,1,1.732,0H12.127a.866.866,0,1,1,0,1.732H1.732V15.592H12.127V3.664a.866.866,0,0,1,1.732,0V15.592a1.734,1.734,0,0,1-1.732,1.732" transform="translate(5.197 0)"/>
          <path id="パス_5704" data-name="パス 5704" d="M4.331,1.732H.866A.866.866,0,1,1,.866,0H4.331a.866.866,0,1,1,0,1.732" transform="translate(9.529 4.331)"/>
          <path id="パス_5705" data-name="パス 5705" d="M4.331,1.732H.866A.866.866,0,1,1,.866,0H4.331a.866.866,0,1,1,0,1.732" transform="translate(9.529 7.796)"/>
          <path id="パス_5706" data-name="パス 5706" d="M1.732,1.732H.866A.866.866,0,1,1,.866,0h.866a.866.866,0,1,1,0,1.732" transform="translate(9.529 11.261)"/>
        </g>
      </g>
    </g>
  </g>
</svg>
