<svg xmlns="http://www.w3.org/2000/svg" xmlns:xlink="http://www.w3.org/1999/xlink" width="273.193" height="276.591" viewBox="0 0 273.193 276.591">
  <defs>
    <filter id="パス_106479" x="0" y="0" width="273.193" height="276.591" filterUnits="userSpaceOnUse">
      <feOffset dy="3" input="SourceAlpha"/>
      <feGaussianBlur stdDeviation="3" result="blur"/>
      <feFlood flood-opacity="0.161"/>
      <feComposite operator="in" in2="blur"/>
      <feComposite in="SourceGraphic"/>
    </filter>
    <clipPath id="clip-path">
      <rect id="長方形_1350" data-name="長方形 1350" width="31.386" height="30.472"/>
    </clipPath>
  </defs>
  <g id="グループ_62100" data-name="グループ 62100" transform="translate(-112 -534.152)">
    <g id="グループ_62098" data-name="グループ 62098">
      <g transform="matrix(1, 0, 0, 1, 112, 534.15)" filter="url(#パス_106479)">
        <path id="パス_106479-2" data-name="パス 106479" d="M4.252,0H250.941a4.252,4.252,0,0,1,4.252,4.252V254.339a4.252,4.252,0,0,1-4.252,4.252H4.252A4.252,4.252,0,0,1,0,254.339V4.252A4.252,4.252,0,0,1,4.252,0Z" transform="translate(9 6)" fill="#fff"/>
      </g>
      <path id="パス_106477" data-name="パス 106477" d="M-75.16-12.06a11.017,11.017,0,0,1-2.16-.14l.02,1.52a12.056,12.056,0,0,1,2.12-.1l3.64-.02a13.013,13.013,0,0,1-1.24,4.76,11.7,11.7,0,0,1-5.2,5.26A4.144,4.144,0,0,1-76.96.4a14.443,14.443,0,0,0,5.24-5.3,15.082,15.082,0,0,0,1.6-5.9l5.6-.02a44.038,44.038,0,0,1-.5,7.1c-.38,1.98-.7,2.46-1.68,2.46a8.445,8.445,0,0,1-2.58-.52,3.288,3.288,0,0,1,.22,1.26v.24a11.383,11.383,0,0,0,2.48.34c1.8,0,2.4-.72,2.9-3.46a54.558,54.558,0,0,0,.56-7,3,3,0,0,1,.16-1.2l-.74-.64a3.2,3.2,0,0,1-1.32.14l-5,.02c.06-.56.06-.8.1-1.42a16.7,16.7,0,0,1,.16-2.58l-1.62-.04a5.361,5.361,0,0,1,.08,1.04c0,.88-.04,1.98-.12,3Zm19.86-3.38a11.762,11.762,0,0,1,.08,1.68v5.34a12.125,12.125,0,0,1-.08,1.68h1.66a10.592,10.592,0,0,1-.08-1.66v-5.38a10.926,10.926,0,0,1,.08-1.66Zm8.84,0a11.121,11.121,0,0,1,.08,1.76v2.26a24.868,24.868,0,0,1-.28,5.1,5.966,5.966,0,0,1-3.2,4.22,11.645,11.645,0,0,1-3.8,1.36A3.825,3.825,0,0,1-52.82.64,15.746,15.746,0,0,0-49.18-.8a7.6,7.6,0,0,0,3.8-4.44,22.54,22.54,0,0,0,.5-6.1V-13.7a8.927,8.927,0,0,1,.1-1.74Zm12,1.84a8.85,8.85,0,0,1,.1-1.68H-36a11.1,11.1,0,0,1,.08,1.66V-4.4c0,.84.02,1.24.04,1.56a2.656,2.656,0,0,0,.82,1.92c.7.58,2.02.82,4.38.82,1.38,0,4.02-.14,5.3-.28l.96-.1.26-.02c.3-.04.36-.04.66-.06l-.12-1.6a9.635,9.635,0,0,1-1.98.4,39.565,39.565,0,0,1-4.58.32,20.857,20.857,0,0,1-2.36-.12,2.4,2.4,0,0,1-1.52-.52c-.34-.34-.42-.8-.42-2.2V-4.5l.02-.12V-7.54a31.047,31.047,0,0,0,9.54-3.38c.46-.24.56-.28.86-.42l-1.02-1.36c-1.34,1.32-6.22,3.3-9.38,3.84Zm9.02-2.18a14.812,14.812,0,0,1,2.06,3.18l1-.6a15.183,15.183,0,0,0-2.06-3.1Zm2.28-1.08a14.982,14.982,0,0,1,2.04,3.14l1.02-.56a17.3,17.3,0,0,0-2.08-3.12ZM-12.36.62a13.6,13.6,0,0,1-.1-2.12V-7.52a6.985,6.985,0,0,0-.08-1.18l.04-.02a2.207,2.207,0,0,0,.62.34A40.778,40.778,0,0,1-4.42-4.42l.86-1.48a49.6,49.6,0,0,0-8.9-4.22v-3.74a12.554,12.554,0,0,1,.1-2.08h-1.72a11.858,11.858,0,0,1,.12,2.04V-1.48a12.864,12.864,0,0,1-.12,2.1ZM15.28-15.8a8.355,8.355,0,0,1-2.28.96,32.135,32.135,0,0,1-8.4,1.26c-.3,0-.6,0-1.16-.04a5.216,5.216,0,0,1,.48,1.34,37.933,37.933,0,0,0,5.92-.56c0,1.76-.02,2.88-.06,3.76H4.04a9.491,9.491,0,0,1-2.1-.14V-7.7a15.488,15.488,0,0,1,2.1-.1H9.66A7.522,7.522,0,0,1,8.44-3.88,9.349,9.349,0,0,1,3.76-.44,3.788,3.788,0,0,1,4.84.8,10.784,10.784,0,0,0,9.82-3.38a9.524,9.524,0,0,0,1.3-4.42h4.9a15.488,15.488,0,0,1,2.1.1V-9.22a9.491,9.491,0,0,1-2.1.14h-4.8c.02-.78.04-2.08.06-4a30.991,30.991,0,0,0,4.4-1.24,4.133,4.133,0,0,1,.62-.2ZM26.8-9.14l-1.92.32a9.645,9.645,0,0,1-1.86.18l.28,1.42a8.06,8.06,0,0,1,1.74-.4l1.98-.34,1.4,7.58a7.477,7.477,0,0,1,.18,1.6L30.14.94a6.488,6.488,0,0,1-.38-1.58L28.32-8.16l5.96-.98a5.217,5.217,0,0,0,.52-.12,1.262,1.262,0,0,0-.08.18A8.2,8.2,0,0,1,31.1-5.24a3.541,3.541,0,0,1,1.08.86,10.242,10.242,0,0,0,3.88-4.7,3.828,3.828,0,0,1,.46-.88l-.84-.74a2.83,2.83,0,0,1-.86.24L28.1-9.36l-.32-1.72a6.537,6.537,0,0,1-.22-1.5l-1.46.22a5.539,5.539,0,0,1,.38,1.46Zm16.94-1.42a16.5,16.5,0,0,1,1.88,4.48l1.36-.46A21.962,21.962,0,0,0,45-10.98Zm4.12-.84A17.546,17.546,0,0,1,49.7-7.02l1.32-.46a20.056,20.056,0,0,0-1.94-4.3Zm6.94-.02v.2a8.406,8.406,0,0,1-.22,1.36,15.09,15.09,0,0,1-1.7,4.3A12.837,12.837,0,0,1,46.54-.34,4.046,4.046,0,0,1,47.46.78,14.5,14.5,0,0,0,54.08-5a18.007,18.007,0,0,0,1.76-4.48,11.8,11.8,0,0,1,.44-1.62ZM67.64.62a13.6,13.6,0,0,1-.1-2.12V-7.52a6.985,6.985,0,0,0-.08-1.18l.04-.02a2.207,2.207,0,0,0,.62.34,40.778,40.778,0,0,1,7.46,3.96l.86-1.48a49.6,49.6,0,0,0-8.9-4.22v-3.74a12.554,12.554,0,0,1,.1-2.08H65.92a11.858,11.858,0,0,1,.12,2.04V-1.48a12.863,12.863,0,0,1-.12,2.1Z" transform="translate(248 602.375)" fill="#070304"/>
      <path id="パス_106478" data-name="パス 106478" d="M6.825,6.944V6.307a5.557,5.557,0,0,1,.052-.884H5.993a5.557,5.557,0,0,1,.052.884v.637H2.353A7.171,7.171,0,0,1,.988,6.866v.871a11.551,11.551,0,0,1,1.456-.078H5.512A11.316,11.316,0,0,1,.793,10.74a2.285,2.285,0,0,1,.494.78A15.375,15.375,0,0,0,4.2,9.83,11.729,11.729,0,0,0,6.084,8.036c-.026.442-.039.806-.039,1.118V10.74a6.381,6.381,0,0,1-.078,1.235H6.9a5.627,5.627,0,0,1-.078-1.235V9.154c0-.3-.013-.65-.039-1.144A10.247,10.247,0,0,0,8.515,9.661a13.772,13.772,0,0,0,3.38,1.924,3.956,3.956,0,0,1,.507-.819A13.051,13.051,0,0,1,8.723,8.907,8.2,8.2,0,0,1,7.345,7.659h3.276a11.629,11.629,0,0,1,1.469.078V6.866a8.137,8.137,0,0,1-1.443.078ZM9.4,1.055A7.435,7.435,0,0,1,8.19,1.12H5.3c.416-.507.6-.728.767-.91L5.187-.05A7.609,7.609,0,0,1,3.549,1.9,9.569,9.569,0,0,1,1.118,3.408a1.976,1.976,0,0,1,.52.611A9.28,9.28,0,0,0,4.16,2.342,10.779,10.779,0,0,0,5.889,3.876,14.7,14.7,0,0,1,.78,5.566a2.005,2.005,0,0,1,.377.741A17.564,17.564,0,0,0,4.94,5.124a13.517,13.517,0,0,0,1.625-.806,9.879,9.879,0,0,0,1.508.78,18.352,18.352,0,0,0,3.952,1.118,2.659,2.659,0,0,1,.416-.78A15.859,15.859,0,0,1,7.28,3.876,13.222,13.222,0,0,0,9.724,1.757a1.2,1.2,0,0,1,.169-.182Zm-4.654.728H8.619a11.064,11.064,0,0,1-2.054,1.69,8.278,8.278,0,0,1-1.911-1.6ZM20.826,3.1H18.967c.169-.455.26-.7.455-1.339.117-.351.156-.481.234-.7l-.9-.26a6.887,6.887,0,0,1-.442,1.729,9.545,9.545,0,0,1-1.573,2.86,2.593,2.593,0,0,1,.741.507,11.458,11.458,0,0,0,1.17-2.041h2.171V6.684h-2.6a9.088,9.088,0,0,1-1.352-.078v.923a9.457,9.457,0,0,1,1.352-.078h2.6v3.12a8.731,8.731,0,0,1-.091,1.352h1.027a8.4,8.4,0,0,1-.091-1.352V7.451h2.457a10.765,10.765,0,0,1,1.339.078V6.606a9.584,9.584,0,0,1-1.352.078H21.671V3.85h1.911a11.992,11.992,0,0,1,1.313.078v-.91a8.244,8.244,0,0,1-1.326.078h-1.9V1.64A8,8,0,0,1,21.762.327H20.735a8.22,8.22,0,0,1,.091,1.313ZM15.2,10.4a11.029,11.029,0,0,1-.078,1.56h.975c-.039-.442-.065-.923-.065-1.521V3.33A18.21,18.21,0,0,0,17.017.9c.1-.286.143-.4.208-.585l-.91-.273a7.841,7.841,0,0,1-.455,1.677,12.537,12.537,0,0,1-2.509,4.108,2.381,2.381,0,0,1,.52.754,9.89,9.89,0,0,0,1.378-2.015c-.039.585-.052,1.027-.052,1.56ZM34.164,5.28a3.533,3.533,0,0,1-.442.975A8.47,8.47,0,0,1,32.5,7.919,12.326,12.326,0,0,1,31.161,6.06a5.241,5.241,0,0,1-.351-.767l-.793.4a10.425,10.425,0,0,0,1.911,2.8,8.531,8.531,0,0,1-1.885,1.378,13.018,13.018,0,0,1-3.2,1.261,2.406,2.406,0,0,1,.481.806,13.137,13.137,0,0,0,3.484-1.56,10.828,10.828,0,0,0,1.69-1.3,9.623,9.623,0,0,0,1.625,1.248,13.991,13.991,0,0,0,3.731,1.612,2.316,2.316,0,0,1,.468-.858,13.161,13.161,0,0,1-3.588-1.4A10.772,10.772,0,0,1,33.1,8.491a14.806,14.806,0,0,0,1.911-2.782ZM31.993,1.848H28.366a8.513,8.513,0,0,1-1.456-.091v.936a9.717,9.717,0,0,1,1.456-.078H36.66a9.647,9.647,0,0,1,1.482.078V1.757a8.483,8.483,0,0,1-1.469.091H32.838V1.263A4.582,4.582,0,0,1,32.929.171H31.9a5.528,5.528,0,0,1,.091,1.092ZM30.277,3.057A7.091,7.091,0,0,1,28.847,4.9,9.786,9.786,0,0,1,26.962,6.32a2.506,2.506,0,0,1,.637.65,12.451,12.451,0,0,0,1.716-1.378,10.025,10.025,0,0,0,1.7-2.119Zm3.562.429A11.1,11.1,0,0,0,35.5,5.358,11.863,11.863,0,0,0,37.557,6.84a3.3,3.3,0,0,1,.572-.741,9.219,9.219,0,0,1-2.106-1.365,7.127,7.127,0,0,1-1.508-1.69Zm13.7.754V2.576h1.937a7.652,7.652,0,0,1,1.17.078V1.783a7.129,7.129,0,0,1-1.157.078h-1.95V1.367A6.9,6.9,0,0,1,47.619.236h-.936a6.5,6.5,0,0,1,.078,1.092V4.24h-1.82V2.316a6.776,6.776,0,0,1,.078-1.105H44.07a6.889,6.889,0,0,1,.078,1.105V4.24h-.286a7.418,7.418,0,0,1-1.222-.065v.858a7.8,7.8,0,0,1,1.235-.065h2.847V7.594c0,.26-.091.338-.39.338a8.706,8.706,0,0,1-1.352-.143,2.884,2.884,0,0,1,.182.819c.481.039.741.052,1.144.052a1.38,1.38,0,0,0,.962-.221.946.946,0,0,0,.247-.7V4.968h2.548a9.838,9.838,0,0,1,1.326.078V4.162a8.968,8.968,0,0,1-1.352.078Zm-7.15-3.224A9.735,9.735,0,0,1,42.471,2.8L43,2.147a11.44,11.44,0,0,0-2.08-1.7ZM39.611,4.1a10.02,10.02,0,0,1,2.21,1.755l.507-.728A15.132,15.132,0,0,0,40.1,3.5Zm2.028,3.185A11.105,11.105,0,0,1,39.624,11.1l.741.676c.091-.156.13-.234.26-.455a21.865,21.865,0,0,0,1.716-3.536ZM48.7,5.722A9.966,9.966,0,0,0,51,8.4a4.014,4.014,0,0,1,.546-.663,7.077,7.077,0,0,1-2.171-2.379Zm-4.147-.273a5.946,5.946,0,0,1-.832,1.625,6.035,6.035,0,0,1-1.157,1.261,2.664,2.664,0,0,1,.689.546,9.474,9.474,0,0,0,2.028-3.094Zm4.537,1.976A5.345,5.345,0,0,1,47.593,9.18a9.178,9.178,0,0,1-5.187,2,3.926,3.926,0,0,1,.416.806,10.6,10.6,0,0,0,3.51-1.066A9.251,9.251,0,0,0,49.3,8.6a4.371,4.371,0,0,1,.507-.572Zm4.147-4a43.278,43.278,0,0,1,4.485-.429,26.606,26.606,0,0,0,2.86-.286,8.51,8.51,0,0,0-1.235.689,4.946,4.946,0,0,0-2.431,3.991,3.148,3.148,0,0,0,1.443,2.652,6.557,6.557,0,0,0,2.808,1c.234.039.26.052.4.078l.169-1.053h-.13a6.663,6.663,0,0,1-1.95-.416,2.549,2.549,0,0,1-1.82-2.4,3.973,3.973,0,0,1,1.6-3,6.394,6.394,0,0,1,2.5-1.3,5.453,5.453,0,0,1,1.456-.182L63.31,1.8a8.78,8.78,0,0,1-1.547.143l-.741.026c-.429.013-.6.026-2.2.117l-2.041.13c-1.6.091-1.677.1-2.4.156-.4.026-.559.039-.741.039-.091,0-.221,0-.468-.013Zm7.982,1.248a9.142,9.142,0,0,1,1.326,2.067l.663-.39a9.869,9.869,0,0,0-1.339-2.015Zm1.482-.7a10.288,10.288,0,0,1,1.326,2.041l.65-.364a10.535,10.535,0,0,0-1.339-2.028ZM74.932.73a5.431,5.431,0,0,1-1.482.624,20.888,20.888,0,0,1-5.46.819c-.195,0-.39,0-.754-.026a3.39,3.39,0,0,1,.312.871A24.657,24.657,0,0,0,71.4,2.654c0,1.144-.013,1.872-.039,2.444H67.626a6.169,6.169,0,0,1-1.365-.091v.988a10.067,10.067,0,0,1,1.365-.065h3.653a4.889,4.889,0,0,1-.793,2.548,6.077,6.077,0,0,1-3.042,2.236,2.462,2.462,0,0,1,.7.806A7.009,7.009,0,0,0,71.383,8.8a6.19,6.19,0,0,0,.845-2.873h3.185a10.067,10.067,0,0,1,1.365.065V5.007a6.169,6.169,0,0,1-1.365.091h-3.12c.013-.507.026-1.352.039-2.6a20.145,20.145,0,0,0,2.86-.806,2.686,2.686,0,0,1,.4-.13ZM82.42,5.059l-1.248.208a6.27,6.27,0,0,1-1.209.117l.182.923a5.239,5.239,0,0,1,1.131-.26l1.287-.221.91,4.927a4.86,4.86,0,0,1,.117,1.04l1-.182a4.217,4.217,0,0,1-.247-1.027L83.408,5.7l3.874-.637a3.392,3.392,0,0,0,.338-.078.821.821,0,0,0-.052.117,5.332,5.332,0,0,1-2.353,2.5,2.3,2.3,0,0,1,.7.559A6.657,6.657,0,0,0,88.439,5.1a2.488,2.488,0,0,1,.3-.572l-.546-.481a1.84,1.84,0,0,1-.559.156l-4.368.715L83.057,3.8a4.249,4.249,0,0,1-.143-.975l-.949.143a3.6,3.6,0,0,1,.247.949Zm11.011-.923a10.724,10.724,0,0,1,1.222,2.912l.884-.3A14.276,14.276,0,0,0,94.25,3.863Zm2.678-.546a11.405,11.405,0,0,1,1.2,2.847l.858-.3A13.037,13.037,0,0,0,96.9,3.343Zm4.511-.013v.13a5.463,5.463,0,0,1-.143.884,9.809,9.809,0,0,1-1.1,2.8,8.344,8.344,0,0,1-4.121,3.393,2.63,2.63,0,0,1,.6.728,9.424,9.424,0,0,0,4.3-3.757A11.7,11.7,0,0,0,101.3,4.838a7.671,7.671,0,0,1,.286-1.053Zm8.346,7.826a8.841,8.841,0,0,1-.065-1.378V6.112a4.54,4.54,0,0,0-.052-.767l.026-.013a1.434,1.434,0,0,0,.4.221,26.505,26.505,0,0,1,4.849,2.574l.559-.962A32.241,32.241,0,0,0,108.9,4.422V1.991a8.16,8.16,0,0,1,.065-1.352h-1.118a7.708,7.708,0,0,1,.078,1.326v8.073a8.361,8.361,0,0,1-.078,1.365ZM126.464.8A9.964,9.964,0,0,1,127.8,2.862l.65-.39A9.869,9.869,0,0,0,127.114.457Zm-8.372,4a16.923,16.923,0,0,1,2.613-.468,19.184,19.184,0,0,1-2.782,6.474l.884.52a25.249,25.249,0,0,0,2.808-7.072,7.464,7.464,0,0,1,.936-.065c1.209,0,1.6.442,1.6,1.82a10.063,10.063,0,0,1-.546,3.614q-.254.624-.741.624a4.859,4.859,0,0,1-1.937-.6,2.4,2.4,0,0,1,.039.507,2.906,2.906,0,0,1-.026.468,4.891,4.891,0,0,0,1.963.507,1.358,1.358,0,0,0,1.274-.611,8.961,8.961,0,0,0,.871-4.472,2.624,2.624,0,0,0-.637-2.093,2.484,2.484,0,0,0-1.872-.546,7.576,7.576,0,0,0-.767.039c.1-.559.221-1.157.273-1.482a7.992,7.992,0,0,1,.247-1.248L121.251.6V.769a16.057,16.057,0,0,1-.39,2.756,26.668,26.668,0,0,1-2.873.338ZM127.946.106a9.416,9.416,0,0,1,1.326,2.041l.65-.377a10.441,10.441,0,0,0-1.339-2.015ZM125.762,3.07a10.978,10.978,0,0,1,2.652,4.667l.832-.468a11.9,11.9,0,0,0-2.717-4.6Zm5.473.351a43.278,43.278,0,0,1,4.485-.429,26.605,26.605,0,0,0,2.86-.286,8.51,8.51,0,0,0-1.235.689,4.946,4.946,0,0,0-2.431,3.991,3.148,3.148,0,0,0,1.443,2.652,6.558,6.558,0,0,0,2.808,1c.234.039.26.052.4.078l.169-1.053h-.13a6.663,6.663,0,0,1-1.95-.416,2.549,2.549,0,0,1-1.82-2.4,3.973,3.973,0,0,1,1.6-3,6.394,6.394,0,0,1,2.5-1.3,5.452,5.452,0,0,1,1.456-.182L141.31,1.8a8.78,8.78,0,0,1-1.547.143l-.741.026c-.429.013-.6.026-2.2.117l-2.041.13c-1.6.091-1.677.1-2.4.156-.4.026-.559.039-.741.039-.091,0-.221,0-.468-.013Zm7.982,1.248a9.142,9.142,0,0,1,1.326,2.067l.663-.39a9.869,9.869,0,0,0-1.339-2.015Zm1.482-.7a10.288,10.288,0,0,1,1.326,2.041l.65-.364a10.535,10.535,0,0,0-1.339-2.028Zm4.316-.533a7.094,7.094,0,0,1,.806-.039,27.656,27.656,0,0,0,3.51-.234c.325.7.4.845.741,1.482a25.9,25.9,0,0,1-4.1.325,10.1,10.1,0,0,1-1.04-.039l.026.858c.234-.026.286-.026.91-.052a27.084,27.084,0,0,0,4.563-.377,11.915,11.915,0,0,0,1.391,2,7.814,7.814,0,0,0-2.626-.377c-2.47,0-3.965.845-3.965,2.249a1.816,1.816,0,0,0,.975,1.612,5.245,5.245,0,0,0,2.678.546,11.323,11.323,0,0,0,3.328-.481,7.572,7.572,0,0,1,.78-.221l-.182-1.014a8.763,8.763,0,0,1-3.848.871c-1.781,0-2.769-.468-2.769-1.326,0-.9,1.209-1.482,3.081-1.482a13.143,13.143,0,0,1,1.7.117,3.525,3.525,0,0,1,1.43.494l.767-.546a15.237,15.237,0,0,1-1.911-2.587c.481-.091,1.131-.234,2.041-.468.429-.117.481-.117.7-.169l-.1-.871a13.224,13.224,0,0,1-2.977.806c-.195-.351-.546-1.04-.741-1.469.728-.117,2.119-.416,3.276-.728l-.078-.845a16.446,16.446,0,0,1-3.471.858A10.826,10.826,0,0,1,149.227.5l-.975.169a16.834,16.834,0,0,1,.78,1.781,25.685,25.685,0,0,1-3.081.182c-.442,0-.663-.013-.975-.039Zm22.36,6.526a4.444,4.444,0,0,1-.442-.3,11.379,11.379,0,0,0-3.627-1.9c-.052-1.261-.052-1.261-.078-1.989.962-.065,1.989-.169,2.886-.312.455-.065.585-.078.754-.091l-.052-.9a15.691,15.691,0,0,1-3.6.533c-.013-.689-.013-.689-.026-1.755a27.006,27.006,0,0,0,3.016-.312c.676-.091.676-.091.9-.1l-.065-.884a18.326,18.326,0,0,1-3.848.533A14.508,14.508,0,0,1,163.28.652h-1a10.183,10.183,0,0,1,.065,1.872c-.429,0-.871.013-1.131.013a16.15,16.15,0,0,1-3.328-.26l-.013.884a1.062,1.062,0,0,1,.182-.013,1.577,1.577,0,0,1,.234.013c1.17.091,2.223.13,3.172.13.3,0,.507,0,.884-.013l.026,1.781c-.364.013-.819.013-1.157.013a15.955,15.955,0,0,1-2.977-.208l-.013.858h.1c.078,0,.182,0,.325.013.806.065,1.417.091,2.2.091.416,0,1.066-.013,1.534-.026.013.338.013.585.026.754.013.377.013.65.026.767a1.036,1.036,0,0,0,.013.143c0,.117,0,.117.013.156a5.782,5.782,0,0,0-1.17-.1,5.663,5.663,0,0,0-1.352.13c-1.144.26-1.82.936-1.82,1.794a1.7,1.7,0,0,0,.7,1.365,3.386,3.386,0,0,0,2.015.52,2.617,2.617,0,0,0,2.2-.819,2.258,2.258,0,0,0,.325-1.417,3.737,3.737,0,0,0-.026-.468c.351.143.65.273.871.39a10.461,10.461,0,0,1,2.652,1.859Zm-4.9-1.053a1.7,1.7,0,0,1-.26,1.17,1.878,1.878,0,0,1-1.43.429c-1.131,0-1.781-.39-1.781-1.079s.845-1.157,2.132-1.157a4.772,4.772,0,0,1,1.326.143Zm13.715-6.565c-.884.026-1.9.052-3.146.1-2.093.078-2.093.078-2.47.078-.195,0-.286,0-.52-.013l.039.949c.871-.143,3.5-.273,6.11-.325v.676c0,.156.013.286.013.338,0,.481,0,.533.013.715a2,2,0,0,0-1.508-.585,2.163,2.163,0,0,0-2.3,2.145,2.173,2.173,0,0,0,3.77,1.352,1.82,1.82,0,0,0,.351-.637,3.367,3.367,0,0,1-1.456,2.743,6.663,6.663,0,0,1-2.106.975,2.854,2.854,0,0,1,.572.819,8.269,8.269,0,0,0,2.054-1.053,4.184,4.184,0,0,0,1.742-3.393,3.725,3.725,0,0,0-.312-1.534V3.122c1.053-.026,1.2-.026,1.391-.026a23.105,23.105,0,0,1,2.483.065V2.238c-.429.052-1.43.078-3.887.091V2.186a10.762,10.762,0,0,1,.065-1.625h-.975a4.381,4.381,0,0,1,.052.754Zm-.039,3.8a1.457,1.457,0,0,1-1.521,1.534,1.256,1.256,0,0,1-1.339-1.287,1.376,1.376,0,0,1,1.443-1.365,1.663,1.663,0,0,1,.871.208A.941.941,0,0,1,176.15,6.138Zm7.215,1.807a1.95,1.95,0,1,0,1.95,1.95A1.947,1.947,0,0,0,183.365,7.945Zm0,.741A1.209,1.209,0,1,1,182.156,9.9,1.215,1.215,0,0,1,183.365,8.686ZM11.375,26.96a4.444,4.444,0,0,1-.442-.3,11.379,11.379,0,0,0-3.627-1.9c-.052-1.261-.052-1.261-.078-1.989.962-.065,1.989-.169,2.886-.312.455-.065.585-.078.754-.091l-.052-.9a15.691,15.691,0,0,1-3.6.533c-.013-.689-.013-.689-.026-1.755A27.006,27.006,0,0,0,10.2,19.94c.676-.091.676-.091.9-.1l-.065-.884a18.326,18.326,0,0,1-3.848.533,14.509,14.509,0,0,1,.091-1.833h-1a10.18,10.18,0,0,1,.065,1.872c-.429,0-.871.013-1.131.013a16.15,16.15,0,0,1-3.328-.26l-.013.884a1.062,1.062,0,0,1,.182-.013,1.578,1.578,0,0,1,.234.013c1.17.091,2.223.13,3.172.13.3,0,.507,0,.884-.013l.026,1.781c-.364.013-.819.013-1.157.013a15.955,15.955,0,0,1-2.977-.208l-.013.858h.1c.078,0,.182,0,.325.013.806.065,1.417.091,2.2.091.416,0,1.066-.013,1.534-.026.013.338.013.585.026.754.013.377.013.65.026.767a1.036,1.036,0,0,0,.013.143c0,.117,0,.117.013.156a5.782,5.782,0,0,0-1.17-.1,5.663,5.663,0,0,0-1.352.13c-1.144.26-1.82.936-1.82,1.794a1.7,1.7,0,0,0,.7,1.365,3.386,3.386,0,0,0,2.015.52,2.617,2.617,0,0,0,2.2-.819,2.257,2.257,0,0,0,.325-1.417,3.738,3.738,0,0,0-.026-.468c.351.143.65.273.871.39a10.461,10.461,0,0,1,2.652,1.859Zm-4.9-1.053a1.7,1.7,0,0,1-.26,1.17,1.878,1.878,0,0,1-1.43.429C3.653,27.506,3,27.116,3,26.427s.845-1.157,2.132-1.157a4.772,4.772,0,0,1,1.326.143Zm7.969-5.161a1.936,1.936,0,0,1,.221-.013h.052c.507.026.624.026,1.079.026.481,0,.637,0,.9-.013a26.145,26.145,0,0,1-2.444,7.189l.949.4a34.255,34.255,0,0,0,1.495-3.965c.351-1.183.715-2.652.91-3.679a19,19,0,0,0,2.2-.312c.26-.052.26-.052.364-.065l-.065-.9a10.719,10.719,0,0,1-2.34.442c.065-.39.1-.572.169-.988a12.292,12.292,0,0,1,.234-1.235l-1.027-.1a12.712,12.712,0,0,1-.286,2.392c-.377.026-.52.026-.78.026a8.965,8.965,0,0,1-1.625-.117Zm9.815.637c-.975-.039-1.17-.039-1.417-.039a14.729,14.729,0,0,0-3.445.429l.091.884a11.315,11.315,0,0,1,3.25-.442,13.052,13.052,0,0,1,1.534.091Zm-4.732,2.808c-.689.884-.871,1.287-.871,1.872,0,1.287,1.1,1.95,3.237,1.95a13.027,13.027,0,0,0,2.314-.221c.429-.065.429-.065.572-.091l-.091-.975a9.659,9.659,0,0,1-2.873.442c-1.482,0-2.275-.416-2.275-1.2a1.564,1.564,0,0,1,.325-.923,4.356,4.356,0,0,1,.39-.494ZM26.6,26.024a12.975,12.975,0,0,1,2.561,2.834l.728-.689a13.246,13.246,0,0,0-2.613-2.756Zm14.625,1.9a7.927,7.927,0,0,1-.1-1.469V23.892h2.9c2.028,0,3.2-1.1,3.2-3.016,0-1.807-1.131-2.834-3.133-2.834H41.431c-.6,0-.962-.013-1.43-.039a9.581,9.581,0,0,1,.1,1.482v6.981a8.049,8.049,0,0,1-.1,1.456Zm-.1-4.927V18.939h2.9c1.4,0,2.158.689,2.158,1.989a1.916,1.916,0,0,1-2.158,2.067Zm7.592,3.419a9.143,9.143,0,0,1-.1,1.547c.455-.026.806-.039,1.43-.039h2.2a4.355,4.355,0,0,0,3.159-1.157,5.254,5.254,0,0,0,1.391-3.848c0-3.107-1.651-4.875-4.55-4.875h-2.2c-.624,0-.975-.013-1.43-.039a9.361,9.361,0,0,1,.1,1.482Zm1.014.6v-8.06H52.26a3.2,3.2,0,0,1,2.444.884,4.2,4.2,0,0,1,1.027,3.081,4.428,4.428,0,0,1-1.092,3.172,3.175,3.175,0,0,1-2.431.923Zm9.867-3.783h3.042a9.062,9.062,0,0,1,1.482.091V22.228a9.944,9.944,0,0,1-1.482.091H59.592V18.965h3.744a9.133,9.133,0,0,1,1.5.091v-1.1a10.129,10.129,0,0,1-1.5.091H59.891c-.624,0-.975-.013-1.43-.039a9.043,9.043,0,0,1,.1,1.482V26.4a8.175,8.175,0,0,1-.1,1.521H59.7a8.175,8.175,0,0,1-.1-1.521Zm8.268-4.862a13.059,13.059,0,0,1,.936,2.47c-.208.065-.338.091-.663.208a14.266,14.266,0,0,1-1.911.611l.338.923a12.389,12.389,0,0,1,1.781-.715,5.619,5.619,0,0,0,.7-.234,46.23,46.23,0,0,1,1.638,7.02l1.053-.234a4.127,4.127,0,0,1-.169-.559c-.546-2.444-1.014-4.277-1.677-6.487a15.328,15.328,0,0,1,4.238-.923c1.313,0,2.08.585,2.08,1.573a1.576,1.576,0,0,1-.624,1.326,2.633,2.633,0,0,1-1.56.507,4.418,4.418,0,0,1-2.184-.6,5.789,5.789,0,0,1,.078.741,1.869,1.869,0,0,1-.013.234,5.505,5.505,0,0,0,2.2.481,2.779,2.779,0,0,0,3.055-2.678c0-1.456-1.118-2.392-2.86-2.392a6.547,6.547,0,0,0-.975.078c-.013-.156-.013-.4-.013-.416a12.266,12.266,0,0,1,.065-1.755H72.4a18.017,18.017,0,0,1,.052,2.3,23.055,23.055,0,0,0-2.795.728c-.182-.585-.312-.949-.572-1.716a5.224,5.224,0,0,1-.247-.793Zm17.264,1.586V18.367H89.18a10.749,10.749,0,0,1,1.365.078v-.9a10.323,10.323,0,0,1-1.365.078H80.418a9.787,9.787,0,0,1-1.365-.078v.9a11.047,11.047,0,0,1,1.365-.078h3.926v1.586H82.6a8.677,8.677,0,0,1-1.079-.052,6.679,6.679,0,0,1,.052.923v4.628a6.606,6.606,0,0,1-.052.91,9.358,9.358,0,0,1,1.118-.052H86.9a9.358,9.358,0,0,1,1.118.052,6.606,6.606,0,0,1-.052-.91V20.824a6.679,6.679,0,0,1,.052-.923,8.545,8.545,0,0,1-1.079.052Zm-.78.7v1.976H82.329V20.655Zm.78,0h2.093v1.976H85.124Zm-.78,2.665v2.3H82.329v-2.3Zm.78,0h2.093v2.3H85.124Zm4.2-3.068a7.974,7.974,0,0,1,.078,1.235v6.045H80.223V21.5a7.484,7.484,0,0,1,.078-1.248h-.975a9.773,9.773,0,0,1,.078,1.339v5.85a11.746,11.746,0,0,1-.078,1.573h.91v-.741h9.152v.741h.91a11.525,11.525,0,0,1-.078-1.56V21.591a10.043,10.043,0,0,1,.078-1.339Zm6.318,1.417c0,.338-.013.663-.039.936q.487-.039,1.014-.039h1.547a9.12,9.12,0,0,1-3.627,1.56,2.568,2.568,0,0,1,.39.637,11.162,11.162,0,0,0,3.042-1.313,4.226,4.226,0,0,1,.611.676,12.566,12.566,0,0,1-4.1,1.859,3.075,3.075,0,0,1,.416.65,14.927,14.927,0,0,0,4.03-1.976,4.356,4.356,0,0,1,.364.832A14.171,14.171,0,0,1,94.5,27.9a2.083,2.083,0,0,1,.429.689,14.751,14.751,0,0,0,4.511-2.431,5.863,5.863,0,0,1,.065.91c0,.871-.156,1.066-.871,1.066a6.43,6.43,0,0,1-1.2-.117,3.5,3.5,0,0,1,.221.767,9,9,0,0,0,.949.052,1.8,1.8,0,0,0,1.235-.273,1.844,1.844,0,0,0,.429-1.417,5.832,5.832,0,0,0-.676-2.665,5.064,5.064,0,0,0-1.092-1.4c.221-.169.3-.234.624-.507h.6a10.329,10.329,0,0,0,1.092,2.743,8.67,8.67,0,0,0,2.7,2.912,6.452,6.452,0,0,1,.481-.754,6.848,6.848,0,0,1-2.639-2.6,12.667,12.667,0,0,0,2.223-1.612l-.663-.546a6.639,6.639,0,0,1-1.885,1.547,8.608,8.608,0,0,1-.624-1.69h1.729a9.938,9.938,0,0,1,1,.039,8.72,8.72,0,0,1-.026-.975v-.806a9.09,9.09,0,0,1,.039-.962,9.7,9.7,0,0,1-1.014.039h-2.067A10.447,10.447,0,0,0,101,18.874a3.407,3.407,0,0,1,.351-.429l-.455-.39a9.874,9.874,0,0,1-1.014.039H98.007a1.318,1.318,0,0,0,.13-.208c.221-.364.221-.364.364-.572l-.9-.195a4.861,4.861,0,0,1-.91,1.521,9.351,9.351,0,0,1-2.249,2,2,2,0,0,1,.507.546l.689-.559Zm.845-1.768a12.96,12.96,0,0,0,1.053-1.17h2.626a6.183,6.183,0,0,1-1,1.17Zm-.1.611h2.431v1.443H96.382Zm3.172,0h2.795v1.443H99.554ZM93.21,27.363a13.043,13.043,0,0,1-.078,1.6h.923c-.039-.416-.052-.845-.052-1.612v-6.9a20.457,20.457,0,0,0,.975-2.366c.13-.377.182-.52.26-.715l-.91-.234a7.553,7.553,0,0,1-.468,1.69A12.188,12.188,0,0,1,91.6,22.67a1.034,1.034,0,0,1,.286.351,3.64,3.64,0,0,0,.221.377A9.8,9.8,0,0,0,93.262,21.6c-.039.78-.052,1.274-.052,1.911Zm21.671-8.593a1.747,1.747,0,0,1-.832.1h-6.4a7.813,7.813,0,0,1-1.469-.091v1.053a9.04,9.04,0,0,1,1.456-.078h6.617a9.92,9.92,0,0,1-7.033,7.566,2.461,2.461,0,0,1,.637.91,11.938,11.938,0,0,0,4.082-2.444,11.076,11.076,0,0,0,3.263-5.642c.182-.663.182-.663.273-.806Zm5.044,2.574a10.21,10.21,0,0,1,1.391-.052l5.421-.039a1.349,1.349,0,0,0,.3-.039l.013.026a.417.417,0,0,1-.039.065.205.205,0,0,0-.065.1,5.039,5.039,0,0,1-2.73,2.288,2.724,2.724,0,0,1,.572.663,6.435,6.435,0,0,0,2.964-2.756,2.661,2.661,0,0,1,.377-.663l-.442-.559a1.68,1.68,0,0,1-.676.078l-5.681.026a7.568,7.568,0,0,1-1.4-.091Zm3.133.923a2.169,2.169,0,0,1,.026.4c0,3-.78,4.16-3.406,5.1a2.664,2.664,0,0,1,.533.754,5.805,5.805,0,0,0,2.678-1.807,5.666,5.666,0,0,0,1.066-3.614,5.034,5.034,0,0,1,.065-.832Zm17.407-4.589a10.912,10.912,0,0,1-2.483,2.457,18.3,18.3,0,0,1-6.747,3.367,3.01,3.01,0,0,1,.507.871A20.322,20.322,0,0,0,136.76,22.1v4.94a6.776,6.776,0,0,1-.078,1.352h1.131a8.638,8.638,0,0,1-.065-1.378V21.474a22.9,22.9,0,0,0,3.042-2.613,2.942,2.942,0,0,1,.572-.546Zm5.668.416a5.782,5.782,0,0,1,.052.923,17.736,17.736,0,0,1-.585,5.577,6.431,6.431,0,0,1-2.2,2.99,2.4,2.4,0,0,1,.78.7,7.947,7.947,0,0,0,2.249-3.211c.494-1.313.6-2.275.7-5.8a6.476,6.476,0,0,1,.078-1.118ZM149.37,18a5.216,5.216,0,0,1,.052,1.157l-.078,7.6a2.191,2.191,0,0,1-.091.884l.52.6a2.166,2.166,0,0,1,.3-.143c.182-.065.182-.065.416-.156A8.569,8.569,0,0,0,152.347,27a7.386,7.386,0,0,0,2.613-3.341,3.635,3.635,0,0,1-.728-.754,6.429,6.429,0,0,1-1.534,2.6,6.008,6.008,0,0,1-2.418,1.508l.078-7.852a5.04,5.04,0,0,1,.078-1.144Zm10.777,1.248a18.19,18.19,0,0,1-2.782-.143l-.013.9a2.3,2.3,0,0,1,.286-.013h.208c.481.013,1.7.039,1.911.039a1.44,1.44,0,0,0,.247-.026l-.117.195a12.936,12.936,0,0,1-2.912,3.718l.728.728a4.3,4.3,0,0,1,1-1.079,4.884,4.884,0,0,1,2.9-1.378c.611,0,.923.312,1.027,1.027a10.091,10.091,0,0,0-1.937,1.04,2.688,2.688,0,0,0-1.326,2.054c0,1.339,1.131,2,3.458,2a20.168,20.168,0,0,0,3.159-.26,5.116,5.116,0,0,1,.52-.065l-.117-1a10.893,10.893,0,0,1-3.471.507c-1.833,0-2.639-.377-2.639-1.235,0-.78.676-1.391,2.444-2.223a3.416,3.416,0,0,1,.013.39,18.7,18.7,0,0,1-.078,1.872l.884-.013a2.826,2.826,0,0,1-.026-.468c0-.117,0-.3.013-.585.013-.26.013-.546.013-.715,0-.325,0-.455-.026-.793a21.584,21.584,0,0,1,3.471-1.144l-.416-.91a2.86,2.86,0,0,1-.884.377c-.572.208-1.313.481-2.262.858a1.578,1.578,0,0,0-1.716-1.443,3.46,3.46,0,0,0-1.963.637c-.13.091-.13.091-.6.455a.1.1,0,0,1-.026-.039V22.5a.013.013,0,0,0,.013-.013c.013-.013.078-.065.169-.13.052-.039.312-.338.442-.494a9.586,9.586,0,0,0,1.17-1.846,41.975,41.975,0,0,0,4.29-.338,4.053,4.053,0,0,1,.52-.065l-.078-.884a18.3,18.3,0,0,1-4.1.494,2.213,2.213,0,0,0-.273.013c.065-.117.234-.468.4-.884a2.761,2.761,0,0,1,.338-.7l-1.04-.182a5.517,5.517,0,0,1-.624,1.781ZM7.514,37.317a13.335,13.335,0,0,1-.13,2.041H5.408a8.78,8.78,0,0,1-1.274-.078v.9A8.906,8.906,0,0,1,5.408,40.1h1.82a4.845,4.845,0,0,1-3.055,3.094,1.811,1.811,0,0,1,.585.676A5.85,5.85,0,0,0,7.93,40.5a5.62,5.62,0,0,0,1.391,1.976,6.953,6.953,0,0,0,2.392,1.482,2.119,2.119,0,0,1,.481-.78,6.239,6.239,0,0,1-2.7-1.625A5.335,5.335,0,0,1,8.5,40.1h2.366a8.918,8.918,0,0,1,1.3.078v-.9a8.158,8.158,0,0,1-1.248.078H8.177a13.993,13.993,0,0,0,.143-2.041h2.21a8.775,8.775,0,0,1,1.248.078v-.871a8.145,8.145,0,0,1-1.222.078H9.386a17.843,17.843,0,0,0,1.144-2.093l-.793-.325A13.986,13.986,0,0,1,8.528,36.6H5.759a8.456,8.456,0,0,1-1.235-.078V37.4a8.456,8.456,0,0,1,1.235-.078ZM5.395,34.509a9.636,9.636,0,0,1,1.144,1.937l.7-.4A10.625,10.625,0,0,0,6.1,34.132Zm-4.381.455a12.373,12.373,0,0,1,2.015,2.353l.663-.585a17.588,17.588,0,0,0-2.08-2.3Zm-.3,5.109a5.093,5.093,0,0,1,.949-.065h.858v3.133A7.993,7.993,0,0,1,.429,44.727l.429.858c.156-.143.351-.312.468-.4A13.559,13.559,0,0,0,2.9,43.8a3.034,3.034,0,0,0,1.872,1.43,11.813,11.813,0,0,0,3.419.26c1.3,0,2.353-.026,4.147-.091a3.193,3.193,0,0,1,.3-.949,35.5,35.5,0,0,1-5.031.26,9.053,9.053,0,0,1-2.873-.273,2.438,2.438,0,0,1-1.4-1.326V40.593a9.927,9.927,0,0,1,.065-1.378,7.768,7.768,0,0,1-1,.065H1.716a5.186,5.186,0,0,1-1-.065Zm15.132-2.847a16.5,16.5,0,0,0,.819-2.106,6.59,6.59,0,0,1,.247-.728l-.884-.273a7.5,7.5,0,0,1-.494,1.833,11.085,11.085,0,0,1-2.184,3.731,2.236,2.236,0,0,1,.52.715,9.042,9.042,0,0,0,1.222-1.924c-.039.7-.039.923-.039,1.573v4.342a13.4,13.4,0,0,1-.078,1.56h.936a13.116,13.116,0,0,1-.065-1.521Zm8.359-2.457a8.026,8.026,0,0,1-1.326.078H18.915a7.473,7.473,0,0,1-1.157-.078v.871a6.608,6.608,0,0,1,1.118-.065h4.03a10.644,10.644,0,0,1,1.3.065Zm0,3.627a6.5,6.5,0,0,1-1.131.065h-4.3a5.471,5.471,0,0,1-1.04-.065v.832a5.814,5.814,0,0,1,1.04-.065h4.316a6.7,6.7,0,0,1,1.118.065Zm0,1.781a6.423,6.423,0,0,1-1.118.065H18.772a5.471,5.471,0,0,1-1.04-.065V41a7.526,7.526,0,0,1,1.04-.052h4.316a6.608,6.608,0,0,1,1.118.065ZM18.46,45.26h4.888v.689h.871a8.4,8.4,0,0,1-.065-1.2V43.206a11.1,11.1,0,0,1,.052-1.235,9.34,9.34,0,0,1-1.222.052h-4.29a8.159,8.159,0,0,1-1.079-.052c.026.338.052.754.052,1.235v1.547a9.682,9.682,0,0,1-.065,1.2h.858Zm0-.715V42.738h4.888v1.807ZM16.783,37.46a6.95,6.95,0,0,1,1.092-.078h6.2a9.1,9.1,0,0,1,1.261.078v-.9a8.4,8.4,0,0,1-1.248.078H17.875a6.608,6.608,0,0,1-1.092-.078Zm16.406-1.118c-.884.026-1.9.052-3.146.1-2.093.078-2.093.078-2.47.078-.195,0-.286,0-.52-.013l.039.949c.871-.143,3.5-.273,6.11-.325v.676c0,.156.013.286.013.338,0,.481,0,.533.013.715a2,2,0,0,0-1.508-.585,2.163,2.163,0,0,0-2.3,2.145,2.173,2.173,0,0,0,3.77,1.352,1.821,1.821,0,0,0,.351-.637,3.367,3.367,0,0,1-1.456,2.743,6.663,6.663,0,0,1-2.106.975,2.854,2.854,0,0,1,.572.819A8.269,8.269,0,0,0,32.6,44.623a4.184,4.184,0,0,0,1.742-3.393,3.725,3.725,0,0,0-.312-1.534V37.122c1.053-.026,1.2-.026,1.391-.026a23.106,23.106,0,0,1,2.483.065v-.923c-.429.052-1.43.078-3.887.091v-.143a10.762,10.762,0,0,1,.065-1.625h-.975a4.381,4.381,0,0,1,.052.754Zm-.039,3.8a1.457,1.457,0,0,1-1.521,1.534,1.256,1.256,0,0,1-1.339-1.287,1.376,1.376,0,0,1,1.443-1.365,1.663,1.663,0,0,1,.871.208A.941.941,0,0,1,33.15,40.138Zm8.983-3.848a6.4,6.4,0,0,1,.7-.065c1.976-.065,3.536-.156,3.952-.234a.5.5,0,0,1,.117-.013L46.93,36l-.052.052-.052.052-.182.182c-.9.884-2.951,2.691-4.342,3.8a14.483,14.483,0,0,1-1.82,1.326l.585.832a8.343,8.343,0,0,1,5.473-2.223c1.755,0,2.795.741,2.795,1.989,0,1.105-.715,1.9-2.08,2.275a3.721,3.721,0,0,0-.6-1.248,2.618,2.618,0,0,0-2.145-1.066,1.689,1.689,0,0,0-1.885,1.521c0,1.2,1.053,1.872,2.886,1.872,2.886,0,4.771-1.339,4.771-3.367,0-1.664-1.391-2.73-3.562-2.73a6.587,6.587,0,0,0-3.185.806l-.026-.039a33.358,33.358,0,0,0,4.277-3.692,2.4,2.4,0,0,1,.663-.546l-.546-.715a1.329,1.329,0,0,1-.624.143c-1.17.091-2.9.169-3.978.169a6,6,0,0,1-1.222-.078ZM46.4,44.519a4.681,4.681,0,0,1-.949.091,3.322,3.322,0,0,1-1.456-.3.887.887,0,0,1-.52-.793c0-.494.4-.806,1.053-.806C45.461,42.712,46.111,43.336,46.4,44.519Zm11.6-3.094h-3.9a8.458,8.458,0,0,1-1.417-.078v.819a9.43,9.43,0,0,1,1.417-.065h3.9v.936H54.834a7.777,7.777,0,0,1-1.248-.065v.806a8.668,8.668,0,0,1,1.274-.065h3.133v1.066c0,.286-.117.351-.585.351A11.244,11.244,0,0,1,55.8,45a2.143,2.143,0,0,1,.221.819c.728.039.962.052,1.235.052,1.261,0,1.521-.182,1.521-1.079V43.713h3.484v.533H63.1a7.665,7.665,0,0,1-.078-1.3V42.1a8.841,8.841,0,0,1,1.378.065v-.819a6.607,6.607,0,0,1-1.378.078v-.546a10.289,10.289,0,0,1,.039-1.079,12.7,12.7,0,0,1-1.456.052H58.773v-.845h3a8.109,8.109,0,0,1,1.053.052,6.153,6.153,0,0,1-.052-.871v-.572a6.342,6.342,0,0,1,.052-.884,8.325,8.325,0,0,1-1.066.052h-2.99v-.858h4A11.628,11.628,0,0,1,64.246,36v-.858a9.848,9.848,0,0,1-1.5.078H58.773a4.239,4.239,0,0,1,.091-1.17h-.949a5.234,5.234,0,0,1,.078,1.17H54.249a9.647,9.647,0,0,1-1.482-.078V36a11.126,11.126,0,0,1,1.456-.078h3.77v.858h-2.7a8.678,8.678,0,0,1-1.079-.052,6.465,6.465,0,0,1,.052.884v.572a6.153,6.153,0,0,1-.052.871,8.2,8.2,0,0,1,1.066-.052h2.717v.845H54.964a7.581,7.581,0,0,1-1.248-.065v.806a8.228,8.228,0,0,1,1.222-.065h3.055Zm.78,0v-.9h3.484v.9Zm0,.676h3.484v.936H58.773Zm-.78-4.68v.962H55.042v-.962Zm.78,0H62v.962H58.773Zm7.852,3.224a1.355,1.355,0,0,1,.4.078,13.7,13.7,0,0,0,1.963.325c-.013.117-.013.117-.026.312a6.875,6.875,0,0,0-.052.858,3.525,3.525,0,0,0,.4,1.794,3.234,3.234,0,0,0,2.912,1.3c2.275,0,3.809-1.235,3.809-3.068a3.47,3.47,0,0,0-1.222-2.587,2.573,2.573,0,0,1-.949.26A2.964,2.964,0,0,1,75.1,42.179c0,1.378-1.131,2.275-2.873,2.275a2.733,2.733,0,0,1-1.833-.559,1.919,1.919,0,0,1-.6-1.56c0-.221.026-.65.052-.962a2.36,2.36,0,0,0,.013-.26c.585.026.793.026,1.118.026a15,15,0,0,0,1.833-.1c.182-.013.221-.013.351-.026l.026-.871a11.367,11.367,0,0,1-2.392.208c-.182,0-.364,0-.858-.013.078-.728.091-.858.3-2.353.715.026.936.026,1.144.026.377,0,.767-.013,1.17-.052.65-.052.65-.052.91-.078l.039-.9a10.549,10.549,0,0,1-2.379.221c-.208,0-.39,0-.754-.013.065-.364.091-.494.13-.78.117-.715.117-.715.13-.832a6.688,6.688,0,0,1,.208-.871l-1.04-.117v.1a20.457,20.457,0,0,1-.312,2.444,8.39,8.39,0,0,1-2.34-.507l-.117.858c.182.039.234.052.4.091a17.275,17.275,0,0,0,1.937.351c-.1.689-.234,1.7-.3,2.34a8.645,8.645,0,0,1-2.327-.52Zm21.229-5.07V44.7c0,.3-.1.364-.585.364a16,16,0,0,1-2.054-.156,3.119,3.119,0,0,1,.208.884c.7.039,1.287.065,1.729.065,1.261,0,1.56-.2,1.56-1.04V35.575h.26a10.392,10.392,0,0,1,1.352.078V34.73a10.4,10.4,0,0,1-1.378.078h-8.71a9.918,9.918,0,0,1-1.365-.078v.923a10.6,10.6,0,0,1,1.365-.078Zm-2.392,2.86a6.1,6.1,0,0,1,.065-1.092,10.274,10.274,0,0,1-1.222.052H81.64a9.9,9.9,0,0,1-1.209-.052,6.776,6.776,0,0,1,.065,1.131v4.108a7,7,0,0,1-.078,1.04h.923V42.439h3.081c.377,0,.832.013,1.092.039a6.448,6.448,0,0,1-.052-.962Zm-4.121-.3h3.276V41.7H81.341Zm10.426-.377a5.184,5.184,0,0,1,.767-.091c1.274-.078,3.146-.286,4.108-.442.169.3.208.377.4.78l.689-.4a20.258,20.258,0,0,0-1.677-2.613l-.611.312a11.377,11.377,0,0,1,.819,1.274c-.923.117-1.43.169-2.73.26a21.859,21.859,0,0,0,1.079-1.963,3.124,3.124,0,0,1,.26-.507l-.91-.26a7.4,7.4,0,0,1-.715,1.755,10.087,10.087,0,0,1-.572,1.014c-.377.013-.377.013-.455.013-.1,0-.39-.013-.572-.013Zm7.215-2.3a5.117,5.117,0,0,1,.078-1.131h-.949a7.006,7.006,0,0,1,.078,1.131v3.068c0,.754.325.884,2.184.884,1.677,0,2.184-.065,2.4-.338a3.51,3.51,0,0,0,.429-1.846,2.837,2.837,0,0,1-.767-.325c-.052,1.157-.117,1.495-.325,1.625-.182.117-.572.143-1.755.143-1.235,0-1.378-.039-1.378-.4V37.1a15.413,15.413,0,0,0,3.289-1.339c.52-.286.52-.286.728-.39l-.572-.689a10.5,10.5,0,0,1-3.445,1.651Zm0,5.889a5.558,5.558,0,0,1,.065-1.131h-.923a5.94,5.94,0,0,1,.065,1.17v3.25c0,.429.1.624.416.754a4.946,4.946,0,0,0,1.989.195c1.43,0,1.872-.065,2.158-.338.312-.3.455-.806.559-2.041a3.533,3.533,0,0,1-.78-.338,3.908,3.908,0,0,1-.273,1.677c-.169.208-.585.286-1.612.286a7.016,7.016,0,0,1-1.248-.065c-.325-.052-.416-.143-.416-.4V42.816a14.365,14.365,0,0,0,2.08-.7c.455-.195,1.456-.7,2.028-1.027l-.611-.676a9.563,9.563,0,0,1-3.5,1.625Zm-6.461,3.3a8.625,8.625,0,0,1-.065,1.3h.923a8.8,8.8,0,0,1-.065-1.326V43h2.873v1.677c0,.234-.078.286-.429.286a7.611,7.611,0,0,1-1-.065,3.64,3.64,0,0,1,.195.806c.169.013.312.013.4.013,1.391,0,1.6-.13,1.6-.962V39.228c0-.234.013-.624.039-.871a9.661,9.661,0,0,1-1.2.052H93.522a7.857,7.857,0,0,1-1.053-.052,10.647,10.647,0,0,1,.052,1.2Zm.793-5.525h2.873v1.222H93.314Zm0,1.911h2.873v1.274H93.314Zm11.921-3.614a43.278,43.278,0,0,1,4.485-.429,26.607,26.607,0,0,0,2.86-.286,8.51,8.51,0,0,0-1.235.689,4.946,4.946,0,0,0-2.431,3.991,3.148,3.148,0,0,0,1.443,2.652,6.557,6.557,0,0,0,2.808,1c.234.039.26.052.4.078l.169-1.053h-.13a6.663,6.663,0,0,1-1.95-.416,2.549,2.549,0,0,1-1.82-2.4,3.973,3.973,0,0,1,1.6-3,6.394,6.394,0,0,1,2.5-1.3,5.453,5.453,0,0,1,1.456-.182l-.078-.962a8.779,8.779,0,0,1-1.547.143l-.741.026c-.429.013-.6.026-2.2.117l-2.041.13c-1.6.091-1.677.1-2.4.156-.4.026-.559.039-.741.039-.091,0-.221,0-.468-.013Zm7.982,1.248a9.142,9.142,0,0,1,1.326,2.067l.663-.39a9.869,9.869,0,0,0-1.339-2.015Zm1.482-.7a10.287,10.287,0,0,1,1.326,2.041l.65-.364a10.535,10.535,0,0,0-1.339-2.028Zm9.49-1.625c-.884.026-1.9.052-3.146.1-2.093.078-2.093.078-2.47.078-.195,0-.286,0-.52-.013l.039.949c.871-.143,3.5-.273,6.11-.325v.676c0,.156.013.286.013.338,0,.481,0,.533.013.715a2,2,0,0,0-1.508-.585,2.163,2.163,0,0,0-2.3,2.145,2.173,2.173,0,0,0,3.77,1.352,1.821,1.821,0,0,0,.351-.637,3.367,3.367,0,0,1-1.456,2.743,6.663,6.663,0,0,1-2.106.975,2.854,2.854,0,0,1,.572.819,8.269,8.269,0,0,0,2.054-1.053,4.184,4.184,0,0,0,1.742-3.393,3.725,3.725,0,0,0-.312-1.534V37.122c1.053-.026,1.2-.026,1.391-.026a23.106,23.106,0,0,1,2.483.065v-.923c-.429.052-1.43.078-3.887.091v-.143a10.761,10.761,0,0,1,.065-1.625h-.975a4.381,4.381,0,0,1,.052.754Zm-.039,3.8a1.457,1.457,0,0,1-1.521,1.534,1.256,1.256,0,0,1-1.339-1.287,1.376,1.376,0,0,1,1.443-1.365,1.663,1.663,0,0,1,.871.208A.941.941,0,0,1,124.15,40.138Zm7.215,1.807a1.95,1.95,0,1,0,1.95,1.95A1.947,1.947,0,0,0,131.365,41.945Zm0,.741a1.209,1.209,0,1,1-1.209,1.209A1.215,1.215,0,0,1,131.365,42.686Z" transform="translate(138 718.145)" fill="#1b1311"/>
      <g id="グループ_61998" data-name="グループ 61998" transform="translate(-49.254 439.375)">
        <g id="グループ_3534" data-name="グループ 3534" transform="translate(247.121 165.135)">
          <path id="パス_51327" data-name="パス 51327" d="M21.157,10.732a21.949,21.949,0,0,1,37.733,0L76.856,40.761c8.841,14.777-1.731,33.61-18.866,33.61H22.058c-17.135,0-27.707-18.833-18.866-33.61Z" transform="matrix(0.961, 0.276, -0.276, 0.961, 23.32, 0)" fill="#ffc2b9"/>
          <path id="パス_51326" data-name="パス 51326" d="M21.375,10.771a22.251,22.251,0,0,1,38.121,0L77.647,40.908a22.251,22.251,0,0,1-19.061,33.73h-36.3A22.251,22.251,0,0,1,3.224,40.908Z" transform="translate(77.739 102.77) rotate(-164)" fill="#ff8977" opacity="0.6"/>
        </g>
        <g id="グループ_20114" data-name="グループ 20114" transform="translate(282.376 203.131)">
          <g id="グループ_2748" data-name="グループ 2748" clip-path="url(#clip-path)">
            <path id="パス_5672" data-name="パス 5672" d="M.9,31.73a.919.919,0,0,1-.343-.068A.9.9,0,0,1,0,30.834V16.189A4.069,4.069,0,0,1,4.025,12.12H15.777a4.059,4.059,0,0,1,4.048,4.072v7.472a4.072,4.072,0,0,1-4.048,4.042H5.3L1.53,31.468A.9.9,0,0,1,.9,31.73M4.033,13.912a2.272,2.272,0,0,0-2.241,2.274V28.674l2.5-2.5a.9.9,0,0,1,.634-.262H15.774a2.274,2.274,0,0,0,2.259-2.255V16.189a2.266,2.266,0,0,0-2.261-2.276Z" transform="translate(0 -1.258)"/>
            <path id="パス_5673" data-name="パス 5673" d="M31.827,19.61a.9.9,0,0,1-.633-.261l-3.788-3.763H22.846a.9.9,0,1,1,0-1.792h4.929a.9.9,0,0,1,.632.261L30.93,16.56V4.06a2.272,2.272,0,0,0-2.261-2.267H16.93A2.271,2.271,0,0,0,14.672,4.06V9.294a.9.9,0,0,1-1.792,0V4.06A4.067,4.067,0,0,1,16.928,0H28.672a4.068,4.068,0,0,1,4.051,4.06V18.714a.9.9,0,0,1-.9.9" transform="translate(-1.336)"/>
            <path id="パス_5674" data-name="パス 5674" d="M15.2,21.672H10.816a.9.9,0,1,1,0-1.792H15.2a.9.9,0,0,1,0,1.792" transform="translate(-1.029 -2.063)"/>
            <path id="パス_5675" data-name="パス 5675" d="M7.515,20.06a.735.735,0,1,1-.735.735.735.735,0,0,1,.735-.735" transform="translate(-0.703 -2.081)"/>
            <path id="パス_5676" data-name="パス 5676" d="M27.729,9.612H23.346a.9.9,0,1,1,0-1.792h4.383a.9.9,0,1,1,0,1.792" transform="translate(-2.329 -0.811)"/>
            <path id="パス_5677" data-name="パス 5677" d="M20.045,8.01a.735.735,0,1,1-.735.735.735.735,0,0,1,.735-.735" transform="translate(-2.004 -0.831)"/>
          </g>
        </g>
      </g>
    </g>
  </g>
</svg>
