<svg xmlns="http://www.w3.org/2000/svg" xmlns:xlink="http://www.w3.org/1999/xlink" width="273.193" height="276.591" viewBox="0 0 273.193 276.591">
  <defs>
    <filter id="パス_106484" x="0" y="0" width="273.193" height="276.591" filterUnits="userSpaceOnUse">
      <feOffset dy="3" input="SourceAlpha"/>
      <feGaussianBlur stdDeviation="3" result="blur"/>
      <feFlood flood-opacity="0.161"/>
      <feComposite operator="in" in2="blur"/>
      <feComposite in="SourceGraphic"/>
    </filter>
    <clipPath id="clip-path">
      <rect id="長方形_1377" data-name="長方形 1377" width="20.055" height="20.055"/>
    </clipPath>
    <clipPath id="clip-path-2">
      <rect id="長方形_1378" data-name="長方形 1378" width="22.309" height="22.309"/>
    </clipPath>
    <clipPath id="clip">
      <use xlink:href="#fill"/>
    </clipPath>
  </defs>
  <g id="グループ_62108" data-name="グループ 62108" transform="translate(-675 -826.152)">
    <g transform="matrix(1, 0, 0, 1, 675, 826.15)" filter="url(#パス_106484)">
      <path id="パス_106484-2" data-name="パス 106484" d="M4.252,0H250.941a4.252,4.252,0,0,1,4.252,4.252V254.339a4.252,4.252,0,0,1-4.252,4.252H4.252A4.252,4.252,0,0,1,0,254.339V4.252A4.252,4.252,0,0,1,4.252,0Z" transform="translate(9 6)" fill="#fff"/>
    </g>
    <path id="パス_106493" data-name="パス 106493" d="M-72.2-8.18a13.83,13.83,0,0,1,2.02.12V-9.48a12.916,12.916,0,0,1-2.02.12h-8.28l1.06-2.24c.18-.4.18-.4.32-.68l-1.44-.32a12.879,12.879,0,0,1-1.34,3.24h-3.56a10.837,10.837,0,0,1-2.02-.12v1.42a14.216,14.216,0,0,1,2.02-.12h2.92a25.625,25.625,0,0,1-2.6,3.78,41.052,41.052,0,0,1,5.44,1.66,12.459,12.459,0,0,1-2.2,1.24A22.684,22.684,0,0,1-87.5.12a4.445,4.445,0,0,1,.74,1.26,22.891,22.891,0,0,0,2.74-.7A24.107,24.107,0,0,0-80.36-.84a10.918,10.918,0,0,0,2.02-1.38,40.819,40.819,0,0,1,6.76,3.48l.96-1.14A55.831,55.831,0,0,0-77.4-3.1a12.228,12.228,0,0,0,2.94-5.08Zm-3.64,0a9.657,9.657,0,0,1-1.34,2.84,10.164,10.164,0,0,1-1.48,1.76A42.084,42.084,0,0,0-83.12-5,30.569,30.569,0,0,0-81.1-8.18Zm-3.92-6.24H-85.1a17.877,17.877,0,0,1-2.14-.1,12.125,12.125,0,0,1,.1,1.52v1.14a10.482,10.482,0,0,1-.1,1.4h1.34v-2.8h13.98v2.8h1.34a7.82,7.82,0,0,1-.1-1.4V-13a8.807,8.807,0,0,1,.1-1.52,18.223,18.223,0,0,1-2.16.1h-5.72v-.5a9.582,9.582,0,0,1,.12-1.66h-1.54a10.252,10.252,0,0,1,.12,1.66ZM-66.88-1.68a16.046,16.046,0,0,0,1.5-3.52,30.464,30.464,0,0,0,1.14-4.84l-1.34-.36a21.893,21.893,0,0,1-1.04,4.62,12.751,12.751,0,0,1-1.54,3.32Zm11.82-11.84a31.034,31.034,0,0,0-6.6-3.14l-.78,1.1a25.748,25.748,0,0,1,6.48,3.22Zm5.58,10.54a33.1,33.1,0,0,0-3.44-7.6l-1.18.62a23.147,23.147,0,0,1,1.84,3.54,30.323,30.323,0,0,1,1.48,4.18ZM-61.14-10.5A10.9,10.9,0,0,1-61-12.38h-1.62a13.5,13.5,0,0,1,.14,1.9V-.9c0,1.48.56,1.72,4,1.72,3.1,0,3.82-.18,4.3-1.12.38-.74.56-1.84.76-4.32a5.425,5.425,0,0,1-1.36-.52,19.15,19.15,0,0,1-.28,3.3c-.14.72-.34,1.04-.74,1.16a9.269,9.269,0,0,1-2.56.24c-2.32,0-2.78-.12-2.78-.74ZM-32.2-8.18a13.83,13.83,0,0,1,2.02.12V-9.48a12.916,12.916,0,0,1-2.02.12h-8.28l1.06-2.24c.18-.4.18-.4.32-.68l-1.44-.32a12.879,12.879,0,0,1-1.34,3.24h-3.56a10.837,10.837,0,0,1-2.02-.12v1.42a14.216,14.216,0,0,1,2.02-.12h2.92a25.625,25.625,0,0,1-2.6,3.78,41.052,41.052,0,0,1,5.44,1.66,12.459,12.459,0,0,1-2.2,1.24A22.684,22.684,0,0,1-47.5.12a4.445,4.445,0,0,1,.74,1.26,22.891,22.891,0,0,0,2.74-.7A24.108,24.108,0,0,0-40.36-.84a10.918,10.918,0,0,0,2.02-1.38,40.819,40.819,0,0,1,6.76,3.48l.96-1.14A55.831,55.831,0,0,0-37.4-3.1a12.228,12.228,0,0,0,2.94-5.08Zm-3.64,0a9.657,9.657,0,0,1-1.34,2.84,10.164,10.164,0,0,1-1.48,1.76A42.084,42.084,0,0,0-43.12-5,30.568,30.568,0,0,0-41.1-8.18Zm-3.92-6.24H-45.1a17.877,17.877,0,0,1-2.14-.1,12.124,12.124,0,0,1,.1,1.52v1.14a10.481,10.481,0,0,1-.1,1.4h1.34v-2.8h13.98v2.8h1.34a7.82,7.82,0,0,1-.1-1.4V-13a8.807,8.807,0,0,1,.1-1.52,18.223,18.223,0,0,1-2.16.1h-5.72v-.5a9.582,9.582,0,0,1,.12-1.66h-1.54a10.252,10.252,0,0,1,.12,1.66Zm20.04,6.1v3.04h-3.34a11.438,11.438,0,0,1-1.86-.1v1.36a11.742,11.742,0,0,1,1.86-.1h3.34V-.54H-25.4a16.494,16.494,0,0,1-2.24-.12V.8A15.175,15.175,0,0,1-25.42.66h13.06A14.8,14.8,0,0,1-10.18.8V-.66a16.249,16.249,0,0,1-2.2.12h-6.04V-4.12h3.72a11.466,11.466,0,0,1,1.84.1V-5.38a11.315,11.315,0,0,1-1.84.1h-3.72V-8.32h3.24a11.619,11.619,0,0,1,1.84.1V-9.58a11.074,11.074,0,0,1-1.8.1h-7.68a11.224,11.224,0,0,1-1.8-.1v1.36a11.9,11.9,0,0,1,1.86-.1Zm-.1-8.04A15.644,15.644,0,0,1-23.2-12.5a21.762,21.762,0,0,1-5.02,3.06,3.923,3.923,0,0,1,.88,1.2,24.919,24.919,0,0,0,5.14-3.4,16.422,16.422,0,0,0,3.2-3.6,17.494,17.494,0,0,0,3.66,3.84,28.361,28.361,0,0,0,5.08,3.22A5.362,5.362,0,0,1-9.4-9.5a20.575,20.575,0,0,1-4.94-2.8,15.594,15.594,0,0,1-3.9-4.06Zm17.52.14a20.577,20.577,0,0,1-.68,3.76c-.38,0-1.04.02-1.44.02A12.638,12.638,0,0,1-6.8-12.6l-.02,1.38h.26c.06,0,.22,0,.44.02.3,0,.98.02,1.32.02.3,0,.98-.02,1.48-.04A29.947,29.947,0,0,1-5.4-6.06,17.657,17.657,0,0,1-7.32-2.94l1.36.8c.1-.16.22-.4.4-.68.76-1.32.94-1.66,1.42-2.62a37.261,37.261,0,0,0,2.22-5.84,24.145,24.145,0,0,0,3.28-.42c.48-.08.48-.08.7-.12L2-13.2a16.643,16.643,0,0,1-3.58.66c.28-1.02.4-1.5.54-2.18A6.264,6.264,0,0,1-.72-16ZM9.48-10.7A27.566,27.566,0,0,0,4.2-13.34l-.74,1.12A21.691,21.691,0,0,1,8.76-9.5Zm.04,8.86a2.024,2.024,0,0,1-.36-.32A14.367,14.367,0,0,0,5.24-4.58a23.858,23.858,0,0,1-.22-3.04,6.138,6.138,0,0,1,.26-1.86L3.92-9.62a8.1,8.1,0,0,0-.2,1.94c0,.5.04,1.44.14,2.74a6.6,6.6,0,0,0-2.02-.3A5.845,5.845,0,0,0-.52-4.8,2.836,2.836,0,0,0-2.38-2.26c0,1.78,1.5,2.9,3.9,2.9,2.44,0,3.8-1.14,3.8-3.2a4.146,4.146,0,0,0-.04-.64A11.44,11.44,0,0,1,8.78-.48ZM3.96-3.66S4-3.04,4-2.8C4-1.3,3.22-.62,1.5-.62c-1.58,0-2.54-.62-2.54-1.64,0-1.1,1.08-1.8,2.78-1.8A5.935,5.935,0,0,1,3.96-3.66Zm11.6-10.5a21.032,21.032,0,0,1,4.92,2.64l.82-1.34a29.573,29.573,0,0,0-4.96-2.52ZM13.98-9.38a22.206,22.206,0,0,1,5.1,2.74l.78-1.34a30.509,30.509,0,0,0-5.08-2.62ZM14.66.2a4.694,4.694,0,0,1,.78-.22c.4-.08.76-.16,1.08-.22a22.845,22.845,0,0,0,5.06-1.72,15.677,15.677,0,0,0,7.7-8.62,6.03,6.03,0,0,1-1.24-1.06,14.893,14.893,0,0,1-2.4,4.48,13.173,13.173,0,0,1-6,4.46,17.3,17.3,0,0,1-5.38,1.24ZM48.12-1.08a49.739,49.739,0,0,0-6.66-6,24.185,24.185,0,0,0,3.3-5.6,3.733,3.733,0,0,1,.56-.98l-.84-.86a3.729,3.729,0,0,1-1.28.16l-7.14.08h-.52a9.4,9.4,0,0,1-1.58-.1L34-12.76a13.457,13.457,0,0,1,2.06-.16l6.68-.1a3.4,3.4,0,0,0,.48-.02.424.424,0,0,1-.06.14c-.04.1-.06.12-.1.24a21.677,21.677,0,0,1-7.14,9.02,16.1,16.1,0,0,1-4.06,2.3,4.451,4.451,0,0,1,.98,1.32,25.755,25.755,0,0,0,3.92-2.4A21.71,21.71,0,0,0,40.58-6,37.2,37.2,0,0,1,46.98.18Zm17.84-7.6a18.256,18.256,0,0,1,2.3.1v-1.48a14.409,14.409,0,0,1-2.32.12H54.24a14.409,14.409,0,0,1-2.32-.12v1.48a18.257,18.257,0,0,1,2.3-.1h5.42a11.446,11.446,0,0,1-.8,4.14c-.82,1.82-2.44,3.1-5.06,3.94A3.5,3.5,0,0,1,54.72.7a11.761,11.761,0,0,0,3.52-1.98,7.87,7.87,0,0,0,2.7-5.28,18.652,18.652,0,0,0,.22-2.12ZM53.94-13.5a16.086,16.086,0,0,1,2.28-.1h7.82a16.086,16.086,0,0,1,2.28.1v-1.52a11.053,11.053,0,0,1-2.3.14H56.24a11.053,11.053,0,0,1-2.3-.14ZM77.3-15.9a37.95,37.95,0,0,1-1.58,5.76A76.276,76.276,0,0,1,72.7-2.22c-.46.04-1.56.1-1.7.1-.1,0-.1,0-.56-.02l.2,1.66a13.908,13.908,0,0,1,1.7-.22,123.546,123.546,0,0,0,12.3-1.66A27.145,27.145,0,0,1,85.82.34l1.4-.76a51.806,51.806,0,0,0-4.98-9.04L81-8.78A38.9,38.9,0,0,1,84.08-3.6c-2.36.46-7.06,1.08-9.72,1.26a108.358,108.358,0,0,0,4.16-11.7,7.907,7.907,0,0,1,.54-1.44Z" transform="translate(811.73 894.375)" fill="#070304"/>
    <path id="パス_106502" data-name="パス 106502" d="M6.851,3.161H9.36a11.841,11.841,0,0,1,1.508.065v-1A9.449,9.449,0,0,1,9.347,2.3H3.64a9.449,9.449,0,0,1-1.521-.078v1a11.841,11.841,0,0,1,1.508-.065H5.889V8.92H2.639a9.271,9.271,0,0,1-1.508-.078V9.856a11.867,11.867,0,0,1,1.5-.065h7.722a11.967,11.967,0,0,1,1.508.065V8.842a9.354,9.354,0,0,1-1.521.078H6.851ZM24.713,10.3a32.33,32.33,0,0,0-4.329-3.9,15.72,15.72,0,0,0,2.145-3.64,2.426,2.426,0,0,1,.364-.637l-.546-.559a2.424,2.424,0,0,1-.832.1l-4.641.052h-.338a6.109,6.109,0,0,1-1.027-.065l.026,1.053a8.747,8.747,0,0,1,1.339-.1l4.342-.065a2.208,2.208,0,0,0,.312-.013.275.275,0,0,1-.039.091c-.026.065-.039.078-.065.156a14.09,14.09,0,0,1-4.641,5.863,10.465,10.465,0,0,1-2.639,1.495,2.893,2.893,0,0,1,.637.858,16.741,16.741,0,0,0,2.548-1.56A14.112,14.112,0,0,0,19.812,7.1a24.179,24.179,0,0,1,4.16,4.017ZM31.525.4a5.9,5.9,0,0,1-.819,1.9,9.631,9.631,0,0,1-3.263,3.562,1.933,1.933,0,0,1,.728.676,12.532,12.532,0,0,0,3.107-3.38l4.381-.078a11.945,11.945,0,0,1-2.236,4.355,11.058,11.058,0,0,1-4.589,3.289,1.96,1.96,0,0,1,.65.767,12.73,12.73,0,0,0,4.524-3.25,13.753,13.753,0,0,0,2.6-4.888c.143-.468.143-.481.26-.637l-.559-.546a1.277,1.277,0,0,1-.676.091c-3.757.065-3.757.065-3.926.1a12.435,12.435,0,0,0,.6-1.157,2.483,2.483,0,0,1,.286-.533ZM48.984,9.934v.923h.988c-.026-.273-.039-.611-.039-1V2.823a7.05,7.05,0,0,1,.039-1.014,6.765,6.765,0,0,1-1.014.039H42.029a9.364,9.364,0,0,1-1.014-.039,6.667,6.667,0,0,1,.052,1.014V9.882a6.754,6.754,0,0,1-.052.975h1V9.934Zm0-.845H42.016V2.706h6.968Zm4.147-2.548a14.2,14.2,0,0,1,1.612-.052h7.54a14.872,14.872,0,0,1,1.586.052V5.488a10.253,10.253,0,0,1-1.573.065H54.743a9.2,9.2,0,0,1-1.612-.078Zm22.971.13a9.241,9.241,0,0,1,1.313.078v-.91a7.3,7.3,0,0,1-1.118.078h-.13V3.434a7.762,7.762,0,0,1,.052-1.092,7.879,7.879,0,0,1-1.157.052H72.943V1.471A6.837,6.837,0,0,1,73.034.2h-.988a7.413,7.413,0,0,1,.091,1.274v.923h-1.4a8.476,8.476,0,0,1-1.261-.065v.884a8.371,8.371,0,0,1,1.261-.065h1.4a22.2,22.2,0,0,1-.182,2.769H70.239a9.457,9.457,0,0,1-1.352-.078v.91a9.532,9.532,0,0,1,1.365-.078h1.573a6.294,6.294,0,0,1-.975,2.418,6.559,6.559,0,0,1-2.795,2.158,2.432,2.432,0,0,1,.572.728A8.128,8.128,0,0,0,71.305,9.8a7.4,7.4,0,0,0,1.248-2.73,8.811,8.811,0,0,0,4.316,4.81,3.2,3.2,0,0,1,.52-.845A7.772,7.772,0,0,1,73.1,6.671Zm-3.341-.754a21.364,21.364,0,0,0,.169-2.769h2.431V5.917ZM66.235.99a9.781,9.781,0,0,1,2.171,1.9l.533-.676A11.373,11.373,0,0,0,66.768.4Zm-.611,3.172a10.4,10.4,0,0,1,2.249,1.807l.507-.728a12.341,12.341,0,0,0-2.262-1.69Zm2.158,3.094a11.118,11.118,0,0,1-2.054,3.822l.754.689a3.73,3.73,0,0,1,.273-.468,21.471,21.471,0,0,0,1.7-3.536ZM87.958,9.115v1.378a10.4,10.4,0,0,1-.078,1.378h.936a9.917,9.917,0,0,1-.078-1.365V5.592a12.944,12.944,0,0,0,1.4.325,2.462,2.462,0,0,1,.429-.793A12.206,12.206,0,0,1,86.7,4.032a6.326,6.326,0,0,0,1.846-1.963h.572a6.5,6.5,0,0,1,1.131.065V1.328a6.818,6.818,0,0,1-1.17.065H86.242V1.211A6.067,6.067,0,0,1,86.32.145h-.962a6.551,6.551,0,0,1,.078,1.079v.169H83.083a6.834,6.834,0,0,1-1.157-.065v.806a6.59,6.59,0,0,1,1.131-.065h.234a6.769,6.769,0,0,0,2.015,1.963,11.374,11.374,0,0,1-3.939,1.105,1.712,1.712,0,0,1,.4.754c.6-.1.793-.143,1.274-.26a11.638,11.638,0,0,1-.325,3.094,4.047,4.047,0,0,1-1.9,2.561,2.2,2.2,0,0,1,.715.611,4.852,4.852,0,0,0,1.9-2.782Zm0-2.782H83.824c.013-.286.026-.429.039-.923a10.211,10.211,0,0,0,2.145-.936,12.282,12.282,0,0,0,1.95.871ZM87.62,2.069a5.154,5.154,0,0,1-1.638,1.573,5.445,5.445,0,0,1-1.794-1.573Zm.338,4.953V8.413H83.616c.065-.4.13-.845.169-1.391ZM79.131.925A8.888,8.888,0,0,1,81.2,2.706l.572-.663A14.121,14.121,0,0,0,79.677.353Zm-.6,3.185A8.757,8.757,0,0,1,80.769,5.9l.507-.728A11.3,11.3,0,0,0,79.04,3.5Zm2.184,2.964a12.433,12.433,0,0,1-2.132,4.082l.754.676c.052-.1.052-.1.1-.195.091-.169.1-.182.208-.364a20.908,20.908,0,0,0,1.755-3.692ZM91.6,9.024a12.975,12.975,0,0,1,2.561,2.834l.728-.689a13.247,13.247,0,0,0-2.613-2.756Zm18.044-5.746a14.216,14.216,0,0,1-2.119,3.081A11.86,11.86,0,0,1,104.481,9a2.452,2.452,0,0,1,.611.767,13.908,13.908,0,0,0,2.47-2.184,12.152,12.152,0,0,0,2.457-3.757c-.039.7-.052,1.2-.052,1.677V8.452h-1.274a7.831,7.831,0,0,1-1.287-.065V9.3a7.3,7.3,0,0,1,1.313-.078h1.248v1.222a10.316,10.316,0,0,1-.091,1.508H110.9a9.671,9.671,0,0,1-.091-1.495V9.219H112.2a7.153,7.153,0,0,1,1.287.078v-.91a7.663,7.663,0,0,1-1.261.065h-1.417V5.5c0-.429-.013-.91-.052-1.69a12.373,12.373,0,0,0,2.431,3.653,14.754,14.754,0,0,0,2.7,2.275,3.444,3.444,0,0,1,.6-.845,13.515,13.515,0,0,1-5.356-5.616h3.51a14.03,14.03,0,0,1,1.456.078V2.407a8.512,8.512,0,0,1-1.456.091h-3.835V1.38A6.987,6.987,0,0,1,110.9.21h-1.027a7.365,7.365,0,0,1,.091,1.183V2.5h-3.64a9.681,9.681,0,0,1-1.43-.091v.949a12.825,12.825,0,0,1,1.43-.078ZM122.967.353a8.877,8.877,0,0,1,.052,1.144,10.647,10.647,0,0,1-2.691,7.631,9.179,9.179,0,0,1-2.652,1.963,2.48,2.48,0,0,1,.7.767,11.055,11.055,0,0,0,2.392-1.9A8.744,8.744,0,0,0,122.629,7.3a11.012,11.012,0,0,0,.9-2.9,11.216,11.216,0,0,0,1.69,4.134,11.905,11.905,0,0,0,3.445,3.328,2.958,2.958,0,0,1,.676-.819,9.573,9.573,0,0,1-1.508-1.014A11.493,11.493,0,0,1,125.9,7.971a11.379,11.379,0,0,1-1.677-3.64,16.87,16.87,0,0,1-.286-2.821,8.846,8.846,0,0,1,.065-1.157ZM139.36,10.675V9.141h1.2a9,9,0,0,1,1.157.065V8.4a7.084,7.084,0,0,1-1.183.065h-1.17v-1.4h1.2a9,9,0,0,1,1.157.065V6.32a7.084,7.084,0,0,1-1.183.065h-1.17V4.968h1.378a9.4,9.4,0,0,1,1.157.065V4.227a7.084,7.084,0,0,1-1.183.065h-1.144c.039-.078.039-.078.182-.39.1-.247.182-.416.221-.507a3.914,3.914,0,0,1,.156-.39l-.793-.195a6.43,6.43,0,0,1-.546,1.482h-1.755A10.649,10.649,0,0,0,138.1,2.264h3.328v1.43h.832a4.012,4.012,0,0,1-.052-.715v-.65a7.158,7.158,0,0,1,.039-.858,9.508,9.508,0,0,1-1.3.065h-2.574c.078-.234.13-.364.208-.611.156-.468.156-.468.234-.676l-.858-.156a11.471,11.471,0,0,1-.377,1.443h-1.4a10.363,10.363,0,0,1-1.144-.026c.026.364.026.442.026.676V2.94a4.319,4.319,0,0,1-.052.78h.806V2.264h1.495a8.986,8.986,0,0,1-.468,1.014,10.113,10.113,0,0,1-2.314,3.016,2.39,2.39,0,0,1,.494.676,6.836,6.836,0,0,0,.9-1.105c-.013.1-.026.533-.052,1.287v3.51a9.531,9.531,0,0,1-.078,1.365h.819v-.65h4.329a9.692,9.692,0,0,1,1.235.078V10.61a8,8,0,0,1-1.235.065ZM136.6,6.385V4.968h2.015V6.385Zm0,.676h2.015v1.4H136.6Zm0,2.08h2.015v1.534H136.6Zm-4.225-7.67a12.788,12.788,0,0,1-.507,2.314,9.068,9.068,0,0,1-1.586,3.146,2.2,2.2,0,0,1,.468.728,6.613,6.613,0,0,0,.884-1.638c-.026.4-.065,1.248-.065,1.4v2.964a7.7,7.7,0,0,1-.078,1.248h.845V10.285h1.417v.637h.78a8.375,8.375,0,0,1-.052-1.092V5.8a7.981,7.981,0,0,1,.052-1.053,5.036,5.036,0,0,1-.806.052H132.3a16.55,16.55,0,0,0,.871-3.328h.741a7.2,7.2,0,0,1,.949.052V.665a6.833,6.833,0,0,1-1.092.078h-1.807a7.714,7.714,0,0,1-1.157-.078v.884a5.353,5.353,0,0,1,1.1-.078Zm-.039,4.043h1.417V9.57H132.34ZM148.668,2.9a14.222,14.222,0,0,1,1.716.689,4.979,4.979,0,0,1-2.457,2.379,2.41,2.41,0,0,1,.572.624,6.29,6.29,0,0,0,2.548-2.652,8.712,8.712,0,0,1,1.261.806l.429-.637c-.663-.416-.91-.546-1.43-.819a8.355,8.355,0,0,0,.377-1.716h2.353a15.587,15.587,0,0,1-.325,3.016c-.143.559-.26.676-.715.676a5.888,5.888,0,0,1-1.222-.143,2.353,2.353,0,0,1,.2.819,10.4,10.4,0,0,0,1.066.065c.7,0,.975-.1,1.17-.468a11.7,11.7,0,0,0,.637-4.108c.026-.364.026-.442.052-.624a10.172,10.172,0,0,1-1.209.052h-3.978A8.282,8.282,0,0,1,148.4.782v.871a6.729,6.729,0,0,1,1.3-.078h1.222a7.438,7.438,0,0,1-.286,1.391,14.986,14.986,0,0,0-1.586-.624Zm-4.55-1.391a6.29,6.29,0,0,1,.936-.052h1.69a6.517,6.517,0,0,1,.936.052V.691a4.624,4.624,0,0,1-.936.065h-1.69a4.547,4.547,0,0,1-.936-.065Zm-.468,1.82a7.647,7.647,0,0,1,1.04-.052h2.34a9.154,9.154,0,0,1,.949.039V2.485a5.147,5.147,0,0,1-1.04.065H144.69a5.471,5.471,0,0,1-1.04-.065Zm.507,1.794a5.156,5.156,0,0,1,.884-.052h1.742a5.484,5.484,0,0,1,.871.052V4.318a4.8,4.8,0,0,1-.871.052h-1.742a5.156,5.156,0,0,1-.884-.052Zm0,1.794a5.454,5.454,0,0,1,.884-.052h1.742a5.484,5.484,0,0,1,.871.052V6.112a4.893,4.893,0,0,1-.871.052h-1.742a5.253,5.253,0,0,1-.884-.052ZM145,11.949v-.728h1.82v.559h.793a6.043,6.043,0,0,1-.065-1.066V8.881a9.2,9.2,0,0,1,.039-1.014,7.434,7.434,0,0,1-.949.039h-1.378a7.494,7.494,0,0,1-1.053-.052,8.589,8.589,0,0,1,.052,1.066v1.768c0,.442-.026.858-.065,1.261Zm-.013-3.38h1.833v1.976h-1.833Zm3.653-.871a6.912,6.912,0,0,1-.832,2.938l.7.364a9.3,9.3,0,0,0,.871-3.146Zm2.093.793a4.009,4.009,0,0,1,.078-1h-.923a6.557,6.557,0,0,1,.078,1.053V10.87c0,.676.286.819,1.6.819s1.69-.065,1.95-.325.4-.806.507-1.989a2.329,2.329,0,0,1-.741-.273,8,8,0,0,1-.1,1.1c-.078.546-.182.676-.624.728-.13.013-.728.039-1.027.039-.663,0-.793-.052-.793-.325Zm2.886-.624a10.4,10.4,0,0,1,1.534,2.821l.689-.429a11.627,11.627,0,0,0-1.586-2.743Zm-3.328-1.534a7.171,7.171,0,0,1,2.067,1.781l.585-.546a10.66,10.66,0,0,0-2.093-1.7ZM164.034,7.49a7.469,7.469,0,0,0,.793,2.2,9.04,9.04,0,0,1-3.367,1.573,1.963,1.963,0,0,1,.52.663,10.186,10.186,0,0,0,3.224-1.638c.741,1.066,1.443,1.612,2.08,1.612.611,0,.871-.481,1.17-2.119a2.628,2.628,0,0,1-.663-.455,5.924,5.924,0,0,1-.234,1.313c-.117.338-.2.442-.351.442-.338,0-.871-.468-1.43-1.261a15.428,15.428,0,0,0,1.508-1.586l-.663-.455a4.669,4.669,0,0,1-1.209,1.456,6.139,6.139,0,0,1-.65-1.742h2.171a8.2,8.2,0,0,1,1.378.078V6.723a6.842,6.842,0,0,1-1.378.078h-2.3a33.344,33.344,0,0,1-.364-5.239,7,7,0,0,1,.065-1.274h-.91a5.1,5.1,0,0,1,.065.819,33.716,33.716,0,0,0,.195,4.069A14.871,14.871,0,0,0,163.9,6.8H160.94a7.2,7.2,0,0,1-1.17-.065v.819a7.7,7.7,0,0,1,1.17-.065h.143a4.45,4.45,0,0,1-1.872,3.783,1.975,1.975,0,0,1,.624.559,5.358,5.358,0,0,0,1.781-2.938,5.8,5.8,0,0,0,1.417,1.235,2.739,2.739,0,0,1,.429-.624,5.132,5.132,0,0,1-1.69-1.391c.026-.26.026-.286.052-.624Zm.741-1.846A2.011,2.011,0,0,1,165,5.605c1.4-.182,2.262-.3,2.561-.364.091.234.143.377.26.767l.6-.234a11.127,11.127,0,0,0-.949-2l-.533.208a4.383,4.383,0,0,1,.39.728,14.192,14.192,0,0,1-1.586.182c.637-.715,1-1.183,2.184-2.769l-.6-.468a13.253,13.253,0,0,1-1,1.56c-.247-.312-.364-.455-.624-.741A14.789,14.789,0,0,0,166.881.678l-.676-.364a7.225,7.225,0,0,1-.949,1.716c-.143-.143-.195-.195-.4-.39l-.429.546a7.475,7.475,0,0,1,1.5,1.573c-.416.533-.52.663-.962,1.17a.488.488,0,0,1-.13.013,1.2,1.2,0,0,1-.195-.013ZM161.564.262a6.71,6.71,0,0,1-.988,1.872c-.143-.13-.26-.247-.364-.351l-.468.52a8.553,8.553,0,0,1,1.534,1.625c-.338.494-.572.793-1.04,1.365a1.5,1.5,0,0,1-.221.013.812.812,0,0,1-.156-.013l.156.741a3.564,3.564,0,0,1,.364-.065c1.248-.2,1.937-.325,2.483-.442.065.234.091.312.156.572l.585-.247a8.148,8.148,0,0,0-.845-1.859l-.52.195a4.852,4.852,0,0,1,.429.806c-.416.078-.988.156-1.625.234a23.469,23.469,0,0,0,2.015-2.86l-.624-.442a10.667,10.667,0,0,1-.78,1.43,6.379,6.379,0,0,0-.624-.754,11.876,11.876,0,0,0,1.222-2Zm-3.549,2.561h-.559a5.134,5.134,0,0,1-.9-.052V3.59a5.631,5.631,0,0,1,.9-.052h.455a11.06,11.06,0,0,1-1.69,4.29,2.74,2.74,0,0,1,.468.754,11.22,11.22,0,0,0,1.469-4.069c-.078.988-.13,2-.13,2.509v3.549a10.92,10.92,0,0,1-.078,1.508h.91a10.538,10.538,0,0,1-.065-1.508V6.307c0-.455-.026-1.014-.052-1.911a4.5,4.5,0,0,0,.7,1.391,4.42,4.42,0,0,1,.364-.676,5.065,5.065,0,0,1-.962-1.573h.312a5.6,5.6,0,0,1,.832.052V2.771a4.75,4.75,0,0,1-.845.052h-.351V1.536A10.956,10.956,0,0,1,158.847.2h-.9a7.965,7.965,0,0,1,.065,1.352Zm7.566,3.107a4.714,4.714,0,0,1,.975.858l.468-.442a4.484,4.484,0,0,0-.988-.793Zm4.186-2.171a5.184,5.184,0,0,1,.767-.091c1.274-.078,3.146-.286,4.108-.442.169.3.208.377.4.78l.689-.4A20.258,20.258,0,0,0,174.057.99l-.611.312a11.377,11.377,0,0,1,.819,1.274c-.923.117-1.43.169-2.73.26A21.861,21.861,0,0,0,172.614.873a3.124,3.124,0,0,1,.26-.507l-.91-.26a7.4,7.4,0,0,1-.715,1.755,10.087,10.087,0,0,1-.572,1.014c-.377.013-.377.013-.455.013-.1,0-.39-.013-.572-.013Zm7.215-2.3A5.117,5.117,0,0,1,177.06.327h-.949a7.006,7.006,0,0,1,.078,1.131V4.526c0,.754.325.884,2.184.884,1.677,0,2.184-.065,2.4-.338a3.51,3.51,0,0,0,.429-1.846,2.837,2.837,0,0,1-.767-.325c-.052,1.157-.117,1.495-.325,1.625-.182.117-.572.143-1.755.143-1.235,0-1.378-.039-1.378-.4V3.1a15.412,15.412,0,0,0,3.289-1.339c.52-.286.52-.286.728-.39l-.572-.689a10.5,10.5,0,0,1-3.445,1.651Zm0,5.889a5.557,5.557,0,0,1,.065-1.131h-.923a5.94,5.94,0,0,1,.065,1.17v3.25c0,.429.1.624.416.754a4.946,4.946,0,0,0,1.989.195c1.43,0,1.872-.065,2.158-.338.312-.3.455-.806.559-2.041a3.533,3.533,0,0,1-.78-.338,3.908,3.908,0,0,1-.273,1.677c-.169.208-.585.286-1.612.286a7.017,7.017,0,0,1-1.248-.065c-.325-.052-.416-.143-.416-.4V8.816a14.364,14.364,0,0,0,2.08-.7c.455-.2,1.456-.7,2.028-1.027l-.611-.676a9.562,9.562,0,0,1-3.5,1.625Zm-6.461,3.3a8.625,8.625,0,0,1-.065,1.3h.923a8.8,8.8,0,0,1-.065-1.326V9h2.873v1.677c0,.234-.078.286-.429.286a7.612,7.612,0,0,1-1-.065,3.639,3.639,0,0,1,.195.806c.169.013.312.013.4.013,1.391,0,1.6-.13,1.6-.962V5.228c0-.234.013-.624.039-.871a9.661,9.661,0,0,1-1.2.052h-2.275a7.857,7.857,0,0,1-1.053-.052,10.648,10.648,0,0,1,.052,1.2Zm.793-5.525h2.873V6.346h-2.873Zm0,1.911h2.873V8.309h-2.873ZM182.6,9.024a12.975,12.975,0,0,1,2.561,2.834l.728-.689a13.246,13.246,0,0,0-2.613-2.756Zm16.991-5.59c.3,0,.559.013.845.039V2.667a5.208,5.208,0,0,1-.858.052h-.949V1.458a8.575,8.575,0,0,1,.065-1.339h-.949a7.773,7.773,0,0,1,.065,1.352V2.719h-1.053a5.758,5.758,0,0,1-.936-.052v.819a6.071,6.071,0,0,1,.936-.052h.936a11.574,11.574,0,0,1-2.236,4.628,2.4,2.4,0,0,1,.507.754,11.616,11.616,0,0,0,1.924-4.121c-.065,1.287-.078,1.573-.078,2.119v3.679A10.92,10.92,0,0,1,197.73,12h.975a10.538,10.538,0,0,1-.078-1.508V6.541c0-.429-.013-.91-.052-2.106a9.336,9.336,0,0,0,1.508,2.73,3,3,0,0,1,.468-.728,8.288,8.288,0,0,1-1.859-3Zm2.184,8.5V11h4.121v.884h.871a14.962,14.962,0,0,1-.052-1.547V2.082c0-.715.013-1.014.039-1.3a6.1,6.1,0,0,1-.988.039h-3.848A9.841,9.841,0,0,1,200.9.8c.039.637.052.949.052,1.4V10.35c0,.676-.026,1.144-.065,1.586Zm0-10.361h4.121V3.9h-4.121Zm0,3.068h4.121V6.957h-4.121Zm0,3.055h4.121v2.561h-4.121ZM8.32,25.322c-.117.6-.208.975-.572,2.366H2.184A9.2,9.2,0,0,1,.676,27.6v.962a10.456,10.456,0,0,1,1.534-.091h8.554a10,10,0,0,1,1.534.091V27.6a9.523,9.523,0,0,1-1.508.091H8.645a56.487,56.487,0,0,0,1.183-5.915,9.656,9.656,0,0,1,.234-1.2,9.73,9.73,0,0,1-1.287.052H4.953c.182-.767.182-.767.468-2.171h5.044a11.188,11.188,0,0,1,1.443.078v-.923a11.188,11.188,0,0,1-1.443.078H2.444A10.91,10.91,0,0,1,1,17.613v.923a11.345,11.345,0,0,1,1.469-.078H4.524a27.151,27.151,0,0,1-.663,2.977,28.023,28.023,0,0,1-1.625,4.55l.975.078c.143-.351.182-.468.286-.741Zm-4.55-.754c.364-1.027.676-2.041.988-3.185H9.022a31.953,31.953,0,0,1-.559,3.185Zm17.641-6.136v4.992h-1.9a7.006,7.006,0,0,1-1.17-.065v.9a7.652,7.652,0,0,1,1.17-.078h1.9v3.276A9.628,9.628,0,0,1,21.32,28.9h1.014a7.544,7.544,0,0,1-.1-1.443V24.178h2.132a7.773,7.773,0,0,1,1.17.078v-.9a6.929,6.929,0,0,1-1.157.065H22.23V18.432h1.833a7.7,7.7,0,0,1,1.17.065v-.884a7.48,7.48,0,0,1-1.183.078H19.721a7.659,7.659,0,0,1-1.2-.078V18.5a7.883,7.883,0,0,1,1.183-.065Zm-7.254-.013a7.189,7.189,0,0,1,.988-.052h1.729a7.436,7.436,0,0,1,.988.052V17.6a5.119,5.119,0,0,1-.988.065H15.145a5.2,5.2,0,0,1-.988-.065Zm-.546,1.833a8.152,8.152,0,0,1,1.04-.052h2.483a5.939,5.939,0,0,1,.949.052v-.845a5.307,5.307,0,0,1-1.04.065H14.651a5.555,5.555,0,0,1-1.04-.065Zm.6,1.807a6.29,6.29,0,0,1,.936-.052h1.846a6.559,6.559,0,0,1,.923.052v-.806a5.579,5.579,0,0,1-.923.052H15.145a5.86,5.86,0,0,1-.936-.052Zm0,1.807a6.071,6.071,0,0,1,.936-.052h1.846a6.326,6.326,0,0,1,.923.052V23.06a5.579,5.579,0,0,1-.923.052H15.145a5.86,5.86,0,0,1-.936-.052Zm.728,5.109v-.7h2.158v.533H17.9a7.685,7.685,0,0,1-.065-1.131V25.907a10.049,10.049,0,0,1,.039-1.014,5.385,5.385,0,0,1-.949.039H15.158a8.839,8.839,0,0,1-1.04-.052,6.675,6.675,0,0,1,.065,1.079v1.755a8.588,8.588,0,0,1-.078,1.261Zm0-3.354h2.158V27.6H14.937Zm3.731-6.136A12.725,12.725,0,0,1,19.812,22.8l.715-.312a16.6,16.6,0,0,0-1.17-3.315Zm5.746-.312a12.637,12.637,0,0,1-1.443,3.354l.676.325a18.635,18.635,0,0,0,1.534-3.341Zm11.128,1.885V18.8h1.612a9.713,9.713,0,0,1,1.352.078v-.91a28.6,28.6,0,0,1-3.393.117c-1.352,0-2.639-.013-3.887-.039a9.512,9.512,0,0,1-1.352-.078v.91a9.978,9.978,0,0,1,1.352-.078H32.37v2.262h-1.3a9.1,9.1,0,0,1-1.157-.052,10.27,10.27,0,0,1,.065,1.183v5.317a10.819,10.819,0,0,1-.078,1.378h.884v-.858h6.409v.858h.884A9.807,9.807,0,0,1,38,27.467v-5.33a8.041,8.041,0,0,1,.052-1.131,8.135,8.135,0,0,1-1.144.052Zm-.78,0H33.15V18.8h1.612Zm-2.392.728V27.3H30.784V21.786Zm.78,0h1.612V27.3H33.15Zm2.392,0h1.651V27.3H35.542Zm-7.67,5.668a12.934,12.934,0,0,1-.078,1.56h.936a12.322,12.322,0,0,1-.065-1.521v-7.15a17.944,17.944,0,0,0,.884-2.275c.117-.377.156-.468.247-.7l-.871-.312a8.293,8.293,0,0,1-.494,1.833A11.453,11.453,0,0,1,26.247,22.7a3.149,3.149,0,0,1,.52.715,10.765,10.765,0,0,0,1.144-1.859c-.039.585-.039.91-.039,1.56Zm14.963-7.67v1.534H40.963a6.18,6.18,0,0,1-1.2-.078v.884A7.858,7.858,0,0,1,41,22.046h1.833v1.417H41.457a9.209,9.209,0,0,1-1.235-.065,10.747,10.747,0,0,1,.052,1.209v2.054A7.688,7.688,0,0,1,40.209,28h.9a12.217,12.217,0,0,1-.052-1.352V24.191h1.781v3.315a11.628,11.628,0,0,1-.078,1.469h.936a10.472,10.472,0,0,1-.065-1.469V24.191H45.4v2.8c0,.182-.078.221-.468.221a4.741,4.741,0,0,1-.91-.065,2.793,2.793,0,0,1,.13.78c.468.026.533.026.715.026,1.04,0,1.3-.156,1.3-.78V24.594a10.071,10.071,0,0,1,.052-1.2,8.586,8.586,0,0,1-1.209.065H43.628V22.046h1.807a7.12,7.12,0,0,1,1.235.065v-.858a8.018,8.018,0,0,1-1.222.065h-1.82V19.784h1.326a7.845,7.845,0,0,1,1.274.065v-.858a7.459,7.459,0,0,1-1.274.065H43.628v-.52a6.561,6.561,0,0,1,.078-1.313h-.949a6.871,6.871,0,0,1,.078,1.326v.507H41.457c.1-.286.156-.455.247-.754a4.126,4.126,0,0,1,.221-.676l-.845-.208a3.351,3.351,0,0,1-.143.728,7,7,0,0,1-1.183,2.5,2.975,2.975,0,0,1,.728.377,8.288,8.288,0,0,0,.676-1.235Zm4.433-1.794a7.885,7.885,0,0,1,.078,1.43V24.5a8.975,8.975,0,0,1-.065,1.456h.949a8.772,8.772,0,0,1-.065-1.456v-5.1a7.554,7.554,0,0,1,.078-1.417Zm2.652-.728a9.545,9.545,0,0,1,.091,1.586v8.788c0,.325-.091.39-.624.39a12.329,12.329,0,0,1-1.638-.13,2.392,2.392,0,0,1,.247.832c.624.052,1.04.065,1.378.065,1.183,0,1.456-.221,1.456-1.17V18.835a9.266,9.266,0,0,1,.091-1.573Zm7.02,3.822v1.274a7.642,7.642,0,0,1-.039.78,7.667,7.667,0,0,1,.936-.026h2.9a6.879,6.879,0,0,1,.845.026,6.939,6.939,0,0,1-.039-.78V21.084H63.1a6.8,6.8,0,0,1,1.183.065v-.832a6.8,6.8,0,0,1-1.183.065h-1.56v-.195a5.18,5.18,0,0,1,.052-.871h-.9a7.787,7.787,0,0,1,.052.858v.208H57.733v-.221a5.669,5.669,0,0,1,.052-.845h-.9a5.309,5.309,0,0,1,.052.858v.208H54.574l.013-1.391h8.32a9.633,9.633,0,0,1,1.352.065V18.2a9.123,9.123,0,0,1-1.417.078H59.28V17.9a4.961,4.961,0,0,1,.065-.845h-.962a4.247,4.247,0,0,1,.078.845v.377H55.042c-.507,0-.923-.026-1.339-.065a14.871,14.871,0,0,1,.052,1.586,30.678,30.678,0,0,1-.39,6.006,6.893,6.893,0,0,1-.923,2.353,2.628,2.628,0,0,1,.689.637c1.066-1.963,1.352-3.5,1.443-7.709Zm.793,0h3.016v1.365H57.733Zm4.459,3a8.074,8.074,0,0,1-.9.039H56.576a7.805,7.805,0,0,1-1.313-.065v.806A8.128,8.128,0,0,1,56.55,24.8a8.01,8.01,0,0,0,2.093,2.184,13.226,13.226,0,0,1-4.368,1.183,2.587,2.587,0,0,1,.364.806,14.081,14.081,0,0,0,4.719-1.534,12.071,12.071,0,0,0,4.6,1.482,3.217,3.217,0,0,1,.39-.858,11.509,11.509,0,0,1-4.238-1.079,11.741,11.741,0,0,0,2.106-1.9c.221-.26.286-.325.442-.494Zm-.741.715a8.663,8.663,0,0,1-2.08,1.768A5.747,5.747,0,0,1,57.46,24.8Zm7.839-7.345a13.375,13.375,0,0,1-.442,2.444c-.247,0-.676.013-.936.013a8.215,8.215,0,0,1-1.547-.1l-.013.9h.169c.039,0,.143,0,.286.013.195,0,.637.013.858.013.195,0,.637-.013.962-.026a19.465,19.465,0,0,1-1.352,3.354,11.477,11.477,0,0,1-1.248,2.028l.884.52c.065-.1.143-.26.26-.442.494-.858.611-1.079.923-1.7a24.22,24.22,0,0,0,1.443-3.8,15.694,15.694,0,0,0,2.132-.273c.312-.052.312-.052.455-.078l-.039-.9a10.818,10.818,0,0,1-2.327.429c.182-.663.26-.975.351-1.417a4.071,4.071,0,0,1,.208-.832Zm7.657,3.588a17.918,17.918,0,0,0-3.432-1.716l-.481.728a14.1,14.1,0,0,1,3.445,1.768Zm.026,5.759a1.316,1.316,0,0,1-.234-.208,9.338,9.338,0,0,0-2.548-1.573,15.507,15.507,0,0,1-.143-1.976,3.99,3.99,0,0,1,.169-1.209l-.884-.091a5.264,5.264,0,0,0-.13,1.261c0,.325.026.936.091,1.781a4.29,4.29,0,0,0-1.313-.195,3.8,3.8,0,0,0-1.534.286,1.844,1.844,0,0,0-1.209,1.651c0,1.157.975,1.885,2.535,1.885,1.586,0,2.47-.741,2.47-2.08a2.7,2.7,0,0,0-.026-.416,7.436,7.436,0,0,1,2.275,1.768Zm-3.614-1.183s.026.4.026.559c0,.975-.507,1.417-1.625,1.417-1.027,0-1.651-.4-1.651-1.066,0-.715.7-1.17,1.807-1.17A3.858,3.858,0,0,1,73.359,25.621Zm8.632-7.748a5.622,5.622,0,0,1,.221.832,26.253,26.253,0,0,0,.949,3.627,8.081,8.081,0,0,0-1.7,1.066,2.812,2.812,0,0,0-1.157,2.21,2.158,2.158,0,0,0,1.612,2.132,8.844,8.844,0,0,0,2.886.351,26.078,26.078,0,0,0,2.873-.169l.442-.052.13-.013a3.416,3.416,0,0,1,.39-.013l-.1-1.079a12.907,12.907,0,0,1-3.718.442c-2.548,0-3.549-.468-3.549-1.638,0-1.079.962-1.937,3.185-2.834a34.425,34.425,0,0,1,3.913-1.261l-.39-.988a5.882,5.882,0,0,1-.832.351c-2,.689-2.431.858-3.146,1.157a23.688,23.688,0,0,1-.975-4.3Zm4.771-.039A10.137,10.137,0,0,1,88.088,19.9l.663-.39A10.435,10.435,0,0,0,87.412,17.5Zm1.482-.7a10.9,10.9,0,0,1,1.326,2.041l.65-.364a10.4,10.4,0,0,0-1.352-2.028ZM91.6,26.024a12.975,12.975,0,0,1,2.561,2.834l.728-.689a13.247,13.247,0,0,0-2.613-2.756Zm20.033-6.591a13.138,13.138,0,0,1-2.652.559V18.744a7.435,7.435,0,0,1,.065-1.209h-.962a8.635,8.635,0,0,1,.065,1.235v1.287c-.39.026-.9.039-1.248.039a7.363,7.363,0,0,1-1.326-.091v.858h.533c.143.013.494.013.689.013.377,0,.6,0,.832-.013.4-.026.4-.026.52-.039v2.457a6.954,6.954,0,0,0-1.833,1.066,2.353,2.353,0,0,0-1.027,1.729,1.568,1.568,0,0,0,.6,1.222,3.433,3.433,0,0,0,2.145.832c.637,0,.949-.338.949-1.04V23.84a8.771,8.771,0,0,1,2.756-.507c1.7,0,2.782.793,2.782,2.067a1.726,1.726,0,0,1-1.742,1.833c-.949,0-1.339-.559-1.339-1.911a3.861,3.861,0,0,1,.026-.507,2.818,2.818,0,0,1-.858.338,4.744,4.744,0,0,0,.156,1.469,1.917,1.917,0,0,0,2,1.469,2.675,2.675,0,0,0,1.313-4.992,4.4,4.4,0,0,0-2.3-.546,9.21,9.21,0,0,0-2.8.468V20.772a22.816,22.816,0,0,0,2.3-.39c.182-.039.234-.052.39-.078Zm-3.484,7.176c0,.559-.039.637-.3.637a2.428,2.428,0,0,1-1.157-.377c-.377-.247-.559-.507-.559-.78,0-.624.728-1.326,2.015-1.95Zm7.813-5.5a10.924,10.924,0,0,0-2.626-2.47l-.676.507a10.647,10.647,0,0,1,2.626,2.548Zm9.36,4.212c-.117.6-.208.975-.572,2.366h-5.564a9.2,9.2,0,0,1-1.508-.091v.962a10.456,10.456,0,0,1,1.534-.091h8.554a10,10,0,0,1,1.534.091V27.6a9.523,9.523,0,0,1-1.508.091h-2.145a56.489,56.489,0,0,0,1.183-5.915,9.657,9.657,0,0,1,.234-1.2,9.73,9.73,0,0,1-1.287.052h-3.822c.182-.767.182-.767.468-2.171h5.044a11.188,11.188,0,0,1,1.443.078v-.923a11.188,11.188,0,0,1-1.443.078h-8.021A10.91,10.91,0,0,1,118,17.613v.923a11.345,11.345,0,0,1,1.469-.078h2.054a27.152,27.152,0,0,1-.663,2.977,28.024,28.024,0,0,1-1.625,4.55l.975.078c.143-.351.182-.468.286-.741Zm-4.55-.754c.364-1.027.676-2.041.988-3.185h4.264a31.954,31.954,0,0,1-.559,3.185Zm11-5.785a7.033,7.033,0,0,1,.039.767c.065,3.2.247,4.862.7,6.1s1.118,1.976,1.846,1.976c.923,0,1.521-.871,2.158-3.146a4.155,4.155,0,0,1-.767-.741,9.354,9.354,0,0,1-.676,2.223c-.2.429-.416.65-.65.65-.494,0-1.027-.9-1.313-2.223a22.263,22.263,0,0,1-.338-4.043,9.423,9.423,0,0,1,.091-1.547Zm6.578,1.1a11.481,11.481,0,0,1,2.7,6.409l.923-.377A12.447,12.447,0,0,0,141,22.449a11.284,11.284,0,0,0-1.859-2.964Zm7.176-2.028a7.238,7.238,0,0,1-.182,1.04,21.506,21.506,0,0,0-.585,5.148,18.632,18.632,0,0,0,.338,3.679c.039.247.052.312.078.52l.936-.078v-.195A11.332,11.332,0,0,1,147.16,24.4l-.624-.3a12.078,12.078,0,0,0-.845,2.535c-.052-.689-.078-1.456-.078-2.47A19.217,19.217,0,0,1,146,20.1a18.473,18.473,0,0,1,.546-2.08Zm2.678,2.457a17.315,17.315,0,0,0,2.08.13,21.946,21.946,0,0,0,2.795-.169q.858-.117.9-.117l-.065-.923a13.949,13.949,0,0,1-3.484.351,8.83,8.83,0,0,1-2.21-.195Zm.949,2.535a3.591,3.591,0,0,0-1.131,2.418,1.837,1.837,0,0,0,.39,1.2,3.613,3.613,0,0,0,2.977.988,13.412,13.412,0,0,0,2.665-.26c.26-.039.286-.052.455-.065l-.13-1a8.556,8.556,0,0,1-2.99.455c-1.677,0-2.5-.468-2.5-1.43a3.02,3.02,0,0,1,.975-1.911Zm17.706-.169a8.989,8.989,0,0,1,1.313.078v-.923a8.4,8.4,0,0,1-1.313.078h-5.382l.689-1.456c.117-.26.117-.26.208-.442l-.936-.208a8.371,8.371,0,0,1-.871,2.106h-2.314a7.044,7.044,0,0,1-1.313-.078v.923a9.241,9.241,0,0,1,1.313-.078h1.9a16.657,16.657,0,0,1-1.69,2.457,26.684,26.684,0,0,1,3.536,1.079,8.1,8.1,0,0,1-1.43.806,14.745,14.745,0,0,1-3.653,1.053,2.889,2.889,0,0,1,.481.819,14.88,14.88,0,0,0,1.781-.455,15.669,15.669,0,0,0,2.379-.988,7.1,7.1,0,0,0,1.313-.9,26.532,26.532,0,0,1,4.394,2.262l.624-.741a36.291,36.291,0,0,0-4.407-2.093,7.948,7.948,0,0,0,1.911-3.3Zm-2.366,0a6.277,6.277,0,0,1-.871,1.846,6.606,6.606,0,0,1-.962,1.144,27.355,27.355,0,0,0-2.9-.923,19.872,19.872,0,0,0,1.313-2.067Zm-2.548-4.056H158.47a11.62,11.62,0,0,1-1.391-.065,7.881,7.881,0,0,1,.065.988v.741a6.813,6.813,0,0,1-.065.91h.871v-1.82h9.087V21.2h.871a5.083,5.083,0,0,1-.065-.91V19.55a5.725,5.725,0,0,1,.065-.988,11.845,11.845,0,0,1-1.4.065h-3.718V18.3a6.228,6.228,0,0,1,.078-1.079h-1a6.665,6.665,0,0,1,.078,1.079Zm8.372,8.281a10.43,10.43,0,0,0,.975-2.288,19.8,19.8,0,0,0,.741-3.146l-.871-.234a14.231,14.231,0,0,1-.676,3,8.288,8.288,0,0,1-1,2.158Zm7.683-7.7a20.172,20.172,0,0,0-4.29-2.041l-.507.715a16.736,16.736,0,0,1,4.212,2.093Zm3.627,6.851a21.516,21.516,0,0,0-2.236-4.94l-.767.4a15.045,15.045,0,0,1,1.2,2.3,19.71,19.71,0,0,1,.962,2.717Zm-7.579-4.888a7.089,7.089,0,0,1,.091-1.222h-1.053a8.774,8.774,0,0,1,.091,1.235v6.227c0,.962.364,1.118,2.6,1.118,2.015,0,2.483-.117,2.795-.728A8.055,8.055,0,0,0,179.062,25a3.526,3.526,0,0,1-.884-.338A12.446,12.446,0,0,1,178,26.8c-.091.468-.221.676-.481.754a6.025,6.025,0,0,1-1.664.156c-1.508,0-1.807-.078-1.807-.481Zm10.972-3.315a4,4,0,0,1,.052.689c0,.208,0,.455-.013.845-.1,4.095-.117,4.42-.117,5.291a3.621,3.621,0,0,0,.715,2.665,3.083,3.083,0,0,0,2.444.91,4.552,4.552,0,0,0,3.666-1.625,7.908,7.908,0,0,0,1.443-2.951,3.677,3.677,0,0,1-.936-.624,7.723,7.723,0,0,1-.637,2.041,3.733,3.733,0,0,1-3.484,2.262,2.454,2.454,0,0,1-1.625-.507,2.046,2.046,0,0,1-.611-1.56c-.013-.3-.026-.624-.026-.78,0-.585.039-2.353.091-3.913a20.043,20.043,0,0,1,.169-2.743Zm10.543,2.587a38.184,38.184,0,0,1,4.485-.429,25.193,25.193,0,0,0,2.86-.286,8.51,8.51,0,0,0-1.235.689,4.928,4.928,0,0,0-2.431,3.991,3.164,3.164,0,0,0,1.443,2.652,6.557,6.557,0,0,0,2.808,1c.208.039.26.052.4.078l.169-1.053h-.13a6.663,6.663,0,0,1-1.95-.416,2.549,2.549,0,0,1-1.82-2.4,3.973,3.973,0,0,1,1.6-3,6.6,6.6,0,0,1,2.5-1.313,6.029,6.029,0,0,1,1.456-.169l-.078-.975a8.727,8.727,0,0,1-1.547.143c-1.677.078-5.837.312-7.384.429-.4.026-.559.039-.741.039h-.468ZM1.768,35.419v7.7a6.9,6.9,0,0,1-1.183.143l.26.923a4.422,4.422,0,0,1,.637-.169c1.755-.377,2.769-.637,3.588-.884v1.521A10.114,10.114,0,0,1,4.992,46h.975a8.775,8.775,0,0,1-.078-1.339V35.419c.364,0,.416,0,.936.026v-.806a6.754,6.754,0,0,1-.975.052H1.729a7.821,7.821,0,0,1-1.014-.065v.858a5.725,5.725,0,0,1,.949-.065Zm.819,0H5.07v1.924H2.587Zm0,2.6H5.07v1.963H2.587Zm0,2.652H5.07v1.7c-.975.273-1.482.39-2.483.585Zm4.979-5.1a6.461,6.461,0,0,1-1.092-.065v.884a4.948,4.948,0,0,1,.767-.065A14.261,14.261,0,0,0,9,42.205a8.71,8.71,0,0,1-2.912,2.678,2.638,2.638,0,0,1,.52.78,10.366,10.366,0,0,0,2.847-2.73,9.866,9.866,0,0,0,2.808,2.717,2.847,2.847,0,0,1,.507-.845,8.439,8.439,0,0,1-2.821-2.6,15.759,15.759,0,0,0,2.067-5.941c.039-.26.091-.611.117-.741a7.885,7.885,0,0,1-.975.052Zm3.6.754a13.9,13.9,0,0,1-1.69,5.122,11.738,11.738,0,0,1-.949-2.4,16.388,16.388,0,0,1-.494-2.717Zm4.2,4.134c.156-.65.273-1.2.4-2.028h2.86c.364,0,.754.013,1.118.039a8.92,8.92,0,0,1-.039-.962V35.77c0-.39.013-.676.039-1a10.9,10.9,0,0,1-1.144.052H15.678a8.588,8.588,0,0,1-1.261-.078v.923a9.454,9.454,0,0,1,1.248-.078h3.2v2.106H16.107a9.083,9.083,0,0,1-1.118-.052,16.345,16.345,0,0,1-.637,3.6c.312-.026.611-.039.975-.039h3.588a11.212,11.212,0,0,1-.611,3.224c-.13.273-.377.39-.884.39a11.261,11.261,0,0,1-2.327-.286,3.856,3.856,0,0,1,.182.936,17.19,17.19,0,0,0,2.171.156c.936,0,1.391-.208,1.638-.767a13.6,13.6,0,0,0,.7-3.783,5.147,5.147,0,0,1,.078-.676,7.547,7.547,0,0,1-1.144.065Zm7.5-6.019a8,8,0,0,1,.091,1.261v8.619a11.257,11.257,0,0,1-.091,1.521H23.92a10.805,10.805,0,0,1-.091-1.508V35.705a6.622,6.622,0,0,1,.091-1.261Zm4.368,2.977a43.278,43.278,0,0,1,4.485-.429,26.606,26.606,0,0,0,2.86-.286,8.51,8.51,0,0,0-1.235.689,4.946,4.946,0,0,0-2.431,3.991,3.148,3.148,0,0,0,1.443,2.652,6.557,6.557,0,0,0,2.808,1c.234.039.26.052.4.078l.169-1.053h-.13a6.663,6.663,0,0,1-1.95-.416,2.549,2.549,0,0,1-1.82-2.4,3.973,3.973,0,0,1,1.6-3,6.394,6.394,0,0,1,2.5-1.3,5.453,5.453,0,0,1,1.456-.182L37.31,35.8a8.78,8.78,0,0,1-1.547.143l-.741.026c-.429.013-.6.026-2.2.117l-2.041.13c-1.6.091-1.677.1-2.405.156-.4.026-.559.039-.741.039-.091,0-.221,0-.468-.013Zm7.982,1.248a9.142,9.142,0,0,1,1.326,2.067l.663-.39a9.869,9.869,0,0,0-1.339-2.015Zm1.482-.7a10.288,10.288,0,0,1,1.326,2.041l.65-.364a10.535,10.535,0,0,0-1.339-2.028Zm4.316-.533a7.1,7.1,0,0,1,.806-.039,27.656,27.656,0,0,0,3.51-.234c.325.7.4.845.741,1.482a25.9,25.9,0,0,1-4.095.325,10.1,10.1,0,0,1-1.04-.039l.026.858c.234-.026.286-.026.91-.052a27.084,27.084,0,0,0,4.563-.377,11.915,11.915,0,0,0,1.391,2,7.814,7.814,0,0,0-2.626-.377c-2.47,0-3.965.845-3.965,2.249a1.816,1.816,0,0,0,.975,1.612,5.246,5.246,0,0,0,2.678.546,11.323,11.323,0,0,0,3.328-.481,7.571,7.571,0,0,1,.78-.221l-.182-1.014a8.763,8.763,0,0,1-3.848.871c-1.781,0-2.769-.468-2.769-1.326,0-.9,1.209-1.482,3.081-1.482a13.143,13.143,0,0,1,1.7.117,3.525,3.525,0,0,1,1.43.494l.767-.546a15.237,15.237,0,0,1-1.911-2.587c.481-.091,1.131-.234,2.041-.468.429-.117.481-.117.7-.169l-.1-.871a13.224,13.224,0,0,1-2.977.806c-.195-.351-.546-1.04-.741-1.469.728-.117,2.119-.416,3.276-.728l-.078-.845a16.446,16.446,0,0,1-3.471.858,10.827,10.827,0,0,1-.689-1.833l-.975.169a16.834,16.834,0,0,1,.78,1.781,25.685,25.685,0,0,1-3.081.182c-.442,0-.663-.013-.975-.039ZM55.133,36.29a6.4,6.4,0,0,1,.7-.065c1.976-.065,3.536-.156,3.952-.234a.5.5,0,0,1,.117-.013L59.93,36l-.052.052-.052.052-.182.182c-.9.884-2.951,2.691-4.342,3.8a14.483,14.483,0,0,1-1.82,1.326l.585.832a8.343,8.343,0,0,1,5.473-2.223c1.755,0,2.795.741,2.795,1.989,0,1.105-.715,1.9-2.08,2.275a3.721,3.721,0,0,0-.6-1.248,2.618,2.618,0,0,0-2.145-1.066,1.689,1.689,0,0,0-1.885,1.521c0,1.2,1.053,1.872,2.886,1.872,2.886,0,4.771-1.339,4.771-3.367,0-1.664-1.391-2.73-3.562-2.73a6.587,6.587,0,0,0-3.185.806l-.026-.039a33.358,33.358,0,0,0,4.277-3.692,2.4,2.4,0,0,1,.663-.546l-.546-.715a1.329,1.329,0,0,1-.624.143c-1.17.091-2.9.169-3.978.169a6,6,0,0,1-1.222-.078ZM59.4,44.519a4.681,4.681,0,0,1-.949.091,3.322,3.322,0,0,1-1.456-.3.887.887,0,0,1-.52-.793c0-.494.4-.806,1.053-.806C58.461,42.712,59.111,43.336,59.4,44.519ZM67.9,35.8a13.671,13.671,0,0,1,3.2,1.716l.533-.871A19.223,19.223,0,0,0,68.406,35ZM66.872,38.9a14.434,14.434,0,0,1,3.315,1.781l.507-.871a19.83,19.83,0,0,0-3.3-1.7Zm.442,6.227a3.051,3.051,0,0,1,.507-.143c.26-.052.494-.1.7-.143a14.849,14.849,0,0,0,3.289-1.118,10.19,10.19,0,0,0,5.005-5.6,3.92,3.92,0,0,1-.806-.689,9.68,9.68,0,0,1-1.56,2.912,8.562,8.562,0,0,1-3.9,2.9,11.242,11.242,0,0,1-3.5.806ZM89.063,44.3a32.33,32.33,0,0,0-4.329-3.9,15.72,15.72,0,0,0,2.145-3.64,2.426,2.426,0,0,1,.364-.637l-.546-.559a2.424,2.424,0,0,1-.832.1l-4.641.052h-.338a6.109,6.109,0,0,1-1.027-.065l.026,1.053a8.747,8.747,0,0,1,1.339-.1l4.342-.065a2.209,2.209,0,0,0,.312-.013.275.275,0,0,1-.039.091c-.026.065-.039.078-.065.156a14.09,14.09,0,0,1-4.641,5.863,10.465,10.465,0,0,1-2.639,1.5,2.893,2.893,0,0,1,.637.858,16.741,16.741,0,0,0,2.548-1.56A14.112,14.112,0,0,0,84.162,41.1a24.179,24.179,0,0,1,4.16,4.017Zm11.6-4.94a11.867,11.867,0,0,1,1.5.065v-.962a9.366,9.366,0,0,1-1.508.078h-7.6a9.366,9.366,0,0,1-1.508-.078v.962a11.867,11.867,0,0,1,1.5-.065h3.523a7.44,7.44,0,0,1-.52,2.691,4.932,4.932,0,0,1-3.289,2.561,2.273,2.273,0,0,1,.611.845,7.644,7.644,0,0,0,2.288-1.287A5.115,5.115,0,0,0,97.4,40.736a12.124,12.124,0,0,0,.143-1.378Zm-7.813-3.133a10.456,10.456,0,0,1,1.482-.065h5.083a10.456,10.456,0,0,1,1.482.065v-.988a7.185,7.185,0,0,1-1.5.091H94.341a7.185,7.185,0,0,1-1.495-.091Zm15.184-1.56A24.667,24.667,0,0,1,107,38.409a49.58,49.58,0,0,1-1.963,5.148c-.3.026-1.014.065-1.105.065-.065,0-.065,0-.364-.013l.13,1.079a9.041,9.041,0,0,1,1.105-.143,80.3,80.3,0,0,0,8-1.079,17.647,17.647,0,0,1,.767,1.755l.91-.494a33.673,33.673,0,0,0-3.237-5.876l-.806.442a25.288,25.288,0,0,1,2,3.367c-1.534.3-4.589.7-6.318.819a70.433,70.433,0,0,0,2.7-7.6,5.14,5.14,0,0,1,.351-.936Zm12.051,1.586a18.19,18.19,0,0,1-2.782-.143l-.013.9a2.305,2.305,0,0,1,.286-.013h.208c.481.013,1.7.039,1.911.039a1.44,1.44,0,0,0,.247-.026l-.117.195a12.936,12.936,0,0,1-2.912,3.718l.728.728a4.3,4.3,0,0,1,1-1.079,4.884,4.884,0,0,1,2.9-1.378c.611,0,.923.312,1.027,1.027a10.092,10.092,0,0,0-1.937,1.04A2.688,2.688,0,0,0,119.3,43.31c0,1.339,1.131,2,3.458,2a20.167,20.167,0,0,0,3.159-.26,5.117,5.117,0,0,1,.52-.065l-.117-1a10.892,10.892,0,0,1-3.471.507c-1.833,0-2.639-.377-2.639-1.235,0-.78.676-1.391,2.444-2.223a3.416,3.416,0,0,1,.013.39,18.7,18.7,0,0,1-.078,1.872l.884-.013a2.826,2.826,0,0,1-.026-.468c0-.117,0-.3.013-.585.013-.26.013-.546.013-.715,0-.325,0-.455-.026-.793a21.584,21.584,0,0,1,3.471-1.144l-.416-.91a2.86,2.86,0,0,1-.884.377c-.572.208-1.313.481-2.262.858a1.578,1.578,0,0,0-1.716-1.443,3.46,3.46,0,0,0-1.963.637c-.13.091-.13.091-.6.455a.1.1,0,0,1-.026-.039V39.5a.013.013,0,0,0,.013-.013,2.132,2.132,0,0,1,.169-.13c.052-.039.312-.338.442-.494a9.586,9.586,0,0,0,1.17-1.846,41.975,41.975,0,0,0,4.29-.338,4.052,4.052,0,0,1,.52-.065l-.078-.884a18.3,18.3,0,0,1-4.1.494,2.213,2.213,0,0,0-.273.013c.065-.117.234-.468.4-.884a2.76,2.76,0,0,1,.338-.7l-1.04-.182a5.517,5.517,0,0,1-.624,1.781Zm20.709-.663a8.945,8.945,0,0,1-1.2.078h-2.5a9.862,9.862,0,0,0,.52-1.313l-.793-.169a6.129,6.129,0,0,1-.65,1.859,5.425,5.425,0,0,1-1.248,1.612,2.112,2.112,0,0,1,.546.52,9.64,9.64,0,0,0,.819-1.04,6.519,6.519,0,0,0,1.144,1.807,5.967,5.967,0,0,1-2.574,1.417,2.081,2.081,0,0,1,.429.663,6.746,6.746,0,0,0,2.639-1.573,7.984,7.984,0,0,0,2.6,1.625,2.568,2.568,0,0,1,.429-.754,6.631,6.631,0,0,1-2.535-1.378,6.444,6.444,0,0,0,1.339-2.587,5.658,5.658,0,0,1,1.027.065Zm-1.807.767a5.053,5.053,0,0,1-1.066,2.106,6.132,6.132,0,0,1-1.222-1.976l.065-.13Zm-4.316,8.476h-2.119V43.648a5.265,5.265,0,0,1,.065-.949h-.91a4.687,4.687,0,0,1,.065.949v1.183h-1.131a9.773,9.773,0,0,1-1.339-.078v.832a10.325,10.325,0,0,1,1.339-.078h8.957a10.115,10.115,0,0,1,1.326.078v-.832a9.44,9.44,0,0,1-1.326.078h-4.173V43.674h2.873a7.548,7.548,0,0,1,1.144.065v-.806a6.665,6.665,0,0,1-1.144.065h-2.873V41.971h3.393a8.418,8.418,0,0,1,1.3.065V41.23a7.915,7.915,0,0,1-1.3.065h-7.592a7.5,7.5,0,0,1-1.235-.065v.806a7.9,7.9,0,0,1,1.235-.065h3.445Zm-1.989-9.8a4.211,4.211,0,0,1,.065-.845h-.819a4.632,4.632,0,0,1,.065.845h-1.534a6.408,6.408,0,0,1-1.131-.065v.78a6.333,6.333,0,0,1,1.118-.065h1.547v.78h-1.144a7.036,7.036,0,0,1-1.053-.052,6.033,6.033,0,0,1,.039.78V37.9c0,.286-.013.572-.039.832a6.181,6.181,0,0,1,.988-.052h.78a6.456,6.456,0,0,1-2.6,1.768,2.132,2.132,0,0,1,.52.6,6.384,6.384,0,0,0,2.561-2.145,7.778,7.778,0,0,0-.052.793v.468a3.723,3.723,0,0,1-.052.78h.793a4.6,4.6,0,0,1-.052-.78v-.455a6.373,6.373,0,0,0-.039-.65.933.933,0,0,0-.013-.169,5.7,5.7,0,0,0,1.885,1.638,1.937,1.937,0,0,1,.442-.6,4.882,4.882,0,0,1-1.872-1.248h.858a6.832,6.832,0,0,1,.975.039,7.19,7.19,0,0,1-.039-.819v-.715a5.5,5.5,0,0,1,.039-.78,7.236,7.236,0,0,1-1.066.052h-1.17v-.78h1.69a7.982,7.982,0,0,1,1.053.052v-.767a5.78,5.78,0,0,1-1.066.065Zm-.689,2.015v1.079h-1.482V37.044Zm.689,0h1.534v1.079h-1.534Zm12.688-1.56a18.52,18.52,0,0,0,4.849.884l.182-.871a15.9,15.9,0,0,1-4.706-.806Zm-1.118,3.354c.338-.039.611-.065,1.235-.1a24.936,24.936,0,0,0,3.874-.416c-.936.9-1.6,1.547-1.976,1.924-1.053,1.04-2.132,2.08-3.068,2.951a9.366,9.366,0,0,1-1.4,1.2l.728.806c.455-.52,1.313-1.4,1.95-1.989,1.079-1,1.716-1.365,2.392-1.365a.635.635,0,0,1,.6.312,2.249,2.249,0,0,1,.143.9,3.289,3.289,0,0,0,.286,1.43c.273.507.845.741,1.82.741a10.337,10.337,0,0,0,1.781-.169c.923-.143.923-.143,1.053-.156l-.143-1a7.01,7.01,0,0,1-2.626.481c-.6,0-.9-.1-1.079-.351-.143-.208-.182-.4-.234-1.222-.052-.741-.143-1.04-.4-1.3a1.206,1.206,0,0,0-.884-.338,2.758,2.758,0,0,0-1.3.429,28.846,28.846,0,0,0,2.574-2.34,11.971,11.971,0,0,1,1.157-1.079l-.572-.715a2.472,2.472,0,0,1-.624.143,44.326,44.326,0,0,1-4.563.312c-.286,0-.455,0-.78-.026Zm10.621-1.391a38.185,38.185,0,0,1,4.485-.429,25.192,25.192,0,0,0,2.86-.286,8.509,8.509,0,0,0-1.235.689,4.928,4.928,0,0,0-2.431,3.991,3.164,3.164,0,0,0,1.443,2.652,6.557,6.557,0,0,0,2.808,1c.208.039.26.052.4.078l.169-1.053h-.13a6.663,6.663,0,0,1-1.95-.416,2.549,2.549,0,0,1-1.82-2.4,3.973,3.973,0,0,1,1.6-3,6.6,6.6,0,0,1,2.5-1.313,6.029,6.029,0,0,1,1.456-.169l-.078-.975a8.726,8.726,0,0,1-1.547.143c-1.677.078-5.837.312-7.384.429-.4.026-.559.039-.741.039H154.8ZM168.3,35.783a7.033,7.033,0,0,1,.039.767c.065,3.2.247,4.862.7,6.1s1.118,1.976,1.846,1.976c.923,0,1.521-.871,2.158-3.146a4.156,4.156,0,0,1-.767-.741,9.354,9.354,0,0,1-.676,2.223c-.2.429-.416.65-.65.65-.494,0-1.027-.9-1.313-2.223a22.263,22.263,0,0,1-.338-4.043,9.423,9.423,0,0,1,.091-1.547Zm6.578,1.1a11.481,11.481,0,0,1,2.7,6.409l.923-.377a12.447,12.447,0,0,0-.975-3.471,11.284,11.284,0,0,0-1.859-2.964ZM190.9,43.96a4.444,4.444,0,0,1-.442-.3,11.379,11.379,0,0,0-3.627-1.9c-.052-1.261-.052-1.261-.078-1.989.962-.065,1.989-.169,2.886-.312.455-.065.585-.078.754-.091l-.052-.9a15.691,15.691,0,0,1-3.6.533c-.013-.689-.013-.689-.026-1.755a27.005,27.005,0,0,0,3.016-.312c.676-.091.676-.091.9-.1l-.065-.884a18.325,18.325,0,0,1-3.848.533,14.508,14.508,0,0,1,.091-1.833h-1a10.183,10.183,0,0,1,.065,1.872c-.429,0-.871.013-1.131.013a16.15,16.15,0,0,1-3.328-.26l-.013.884a1.062,1.062,0,0,1,.182-.013,1.577,1.577,0,0,1,.234.013c1.17.091,2.223.13,3.172.13.3,0,.507,0,.884-.013l.026,1.781c-.364.013-.819.013-1.157.013a15.955,15.955,0,0,1-2.977-.208l-.013.858h.1c.078,0,.182,0,.325.013.806.065,1.417.091,2.2.091.416,0,1.066-.013,1.534-.026.013.338.013.585.026.754.013.377.013.65.026.767a1.036,1.036,0,0,0,.013.143c0,.117,0,.117.013.156a5.782,5.782,0,0,0-1.17-.1,5.663,5.663,0,0,0-1.352.13c-1.144.26-1.82.936-1.82,1.794a1.7,1.7,0,0,0,.7,1.365,3.386,3.386,0,0,0,2.015.52,2.617,2.617,0,0,0,2.2-.819,2.258,2.258,0,0,0,.325-1.417,3.737,3.737,0,0,0-.026-.468c.351.143.65.273.871.39a10.461,10.461,0,0,1,2.652,1.859ZM186,42.907a1.7,1.7,0,0,1-.26,1.17,1.878,1.878,0,0,1-1.43.429c-1.131,0-1.781-.39-1.781-1.079s.845-1.157,2.132-1.157a4.772,4.772,0,0,1,1.326.143Zm13.715-6.565c-.884.026-1.9.052-3.146.1-2.093.078-2.093.078-2.47.078-.195,0-.286,0-.52-.013l.039.949c.871-.143,3.5-.273,6.11-.325v.676c0,.156.013.286.013.338,0,.481,0,.533.013.715a2,2,0,0,0-1.508-.585,2.163,2.163,0,0,0-2.3,2.145,2.173,2.173,0,0,0,3.77,1.352,1.82,1.82,0,0,0,.351-.637,3.367,3.367,0,0,1-1.456,2.743,6.663,6.663,0,0,1-2.106.975,2.854,2.854,0,0,1,.572.819,8.269,8.269,0,0,0,2.054-1.053,4.184,4.184,0,0,0,1.742-3.393,3.725,3.725,0,0,0-.312-1.534V37.122c1.053-.026,1.2-.026,1.391-.026a23.106,23.106,0,0,1,2.483.065v-.923c-.429.052-1.43.078-3.887.091v-.143a10.761,10.761,0,0,1,.065-1.625h-.975a4.381,4.381,0,0,1,.052.754Zm-.039,3.8a1.457,1.457,0,0,1-1.521,1.534,1.256,1.256,0,0,1-1.339-1.287,1.376,1.376,0,0,1,1.443-1.365,1.663,1.663,0,0,1,.871.208A.941.941,0,0,1,199.68,40.138Zm7.215,1.807a1.95,1.95,0,1,0,1.95,1.95A1.947,1.947,0,0,0,206.895,41.945Zm0,.741a1.209,1.209,0,1,1-1.209,1.209A1.215,1.215,0,0,1,206.895,42.686Z" transform="translate(701.73 1010.145)" fill="#1b1311"/>
    <g id="グループ_62008" data-name="グループ 62008" transform="translate(513.879 -116.488)">
      <g id="長方形_13523" data-name="長方形 13523" transform="translate(306.323 1068.811)" fill="#fff" stroke="#707070" stroke-width="1">
        <rect id="fill" width="0.541" height="0.541" stroke="none"/>
        <path d="M0,0.04125553369522095h0.541255533695221M0.5,0v0.541255533695221M0.541255533695221,0.5h-0.541255533695221M0.04125553369522095,0.541255533695221v-0.541255533695221" fill="none" clip-path="url(#clip)"/>
      </g>
      <path id="パス_51327" data-name="パス 51327" d="M21.1,10.7a21.89,21.89,0,0,1,37.632,0L76.651,40.653c8.817,14.738-1.726,33.52-18.816,33.52H22c-17.09,0-27.633-18.783-18.816-33.52Z" transform="matrix(0.961, 0.276, -0.276, 0.961, 270.379, 1013.135)" fill="#ffc2b9"/>
      <path id="パス_51326" data-name="パス 51326" d="M21.318,10.742a22.191,22.191,0,0,1,38.02,0L77.44,40.8A22.191,22.191,0,0,1,58.43,74.44h-36.2A22.191,22.191,0,0,1,3.216,40.8Z" transform="translate(324.652 1115.632) rotate(-164)" fill="#ff8977" opacity="0.6"/>
      <g id="グループ_2815" data-name="グループ 2815" transform="translate(275.062 1053.766) rotate(-11)">
        <g id="グループ_2814" data-name="グループ 2814" clip-path="url(#clip-path)">
          <path id="パス_5719" data-name="パス 5719" d="M15.828,11.663H1.666A1.668,1.668,0,0,1,0,10V1.666A1.668,1.668,0,0,1,1.666,0H15.828a1.668,1.668,0,0,1,1.666,1.666V10a1.668,1.668,0,0,1-1.666,1.666m-14.162-10h0V10H15.828V1.666Z" transform="translate(1.25 4.165)"/>
          <path id="パス_5720" data-name="パス 5720" d="M13.329,1.666H.833A.833.833,0,1,1,.833,0h12.5a.833.833,0,0,1,0,1.666" transform="translate(1.25 7.497)"/>
          <path id="パス_5721" data-name="パス 5721" d="M1.666,1.666H.833A.833.833,0,1,1,.833,0h.833a.833.833,0,0,1,0,1.666" transform="translate(12.912 10.83)"/>
        </g>
      </g>
      <g id="グループ_2817" data-name="グループ 2817" transform="translate(297.036 1058.047) rotate(7)">
        <g id="グループ_2816" data-name="グループ 2816" clip-path="url(#clip-path-2)">
          <path id="パス_5722" data-name="パス 5722" d="M4.85,16.745a2.853,2.853,0,0,1-1.748-.6,1.863,1.863,0,0,1-.423-.423,2.844,2.844,0,0,1,.5-3.974c.053-.042.11-.084.169-.124l-1.8-9.764H.93A.93.93,0,1,1,.93,0H1.6A1.8,1.8,0,0,1,3.376,1.521l1.8,9.8A1.78,1.78,0,0,1,4.4,13.157a.774.774,0,0,0-.068.048.986.986,0,0,0-.172,1.387q.017.021.032.043l.047.035a.985.985,0,0,0,1.529-.41,1.827,1.827,0,0,1,1.693-1.246H11.09A1.833,1.833,0,0,1,12.8,14.261a.985.985,0,0,0,1.53.409c.015-.013.031-.024.047-.035s.022-.031.034-.046a.972.972,0,0,0-.474-1.533.929.929,0,1,1,.548-1.776,2.831,2.831,0,0,1,1.4,4.442,1.856,1.856,0,0,1-.421.421A2.844,2.844,0,0,1,11.055,14.9l-.008-.023H7.478a2.644,2.644,0,0,1-1.452,1.615,2.833,2.833,0,0,1-1.176.257m-1.5-5.077h0ZM1.544,1.837Z" transform="translate(1.59 2.514)"/>
          <path id="パス_5723" data-name="パス 5723" d="M5.27,7.9a.93.93,0,0,1-.245-1.826l8-2.2.983-2.016L.932,1.887h0a.93.93,0,0,1,0-1.859L14.095,0a1.833,1.833,0,0,1,1.271.517,1.8,1.8,0,0,1,.35,2.079L14.686,4.707a1.791,1.791,0,0,1-1.14.953l-8.03,2.2A.922.922,0,0,1,5.27,7.9m7.741-4h0ZM14.1,1.859Z" transform="translate(3.755 6.702)"/>
        </g>
      </g>
    </g>
  </g>
</svg>
