<svg xmlns="http://www.w3.org/2000/svg" xmlns:xlink="http://www.w3.org/1999/xlink" width="273.193" height="276.591" viewBox="0 0 273.193 276.591">
  <defs>
    <filter id="パス_106483" x="0" y="0" width="273.193" height="276.591" filterUnits="userSpaceOnUse">
      <feOffset dy="3" input="SourceAlpha"/>
      <feGaussianBlur stdDeviation="3" result="blur"/>
      <feFlood flood-opacity="0.161"/>
      <feComposite operator="in" in2="blur"/>
      <feComposite in="SourceGraphic"/>
    </filter>
    <clipPath id="clip-path">
      <rect id="長方形_1396" data-name="長方形 1396" width="36.264" height="36.264" transform="translate(0 0)"/>
    </clipPath>
    <clipPath id="clip">
      <use xlink:href="#fill"/>
    </clipPath>
  </defs>
  <g id="グループ_62113" data-name="グループ 62113" transform="translate(-393 -1118.152)">
    <g transform="matrix(1, 0, 0, 1, 393, 1118.15)" filter="url(#パス_106483)">
      <path id="パス_106483-2" data-name="パス 106483" d="M4.252,0H250.941a4.252,4.252,0,0,1,4.252,4.252V254.339a4.252,4.252,0,0,1-4.252,4.252H4.252A4.252,4.252,0,0,1,0,254.339V4.252A4.252,4.252,0,0,1,4.252,0Z" transform="translate(9 6)" fill="#fff"/>
    </g>
    <path id="パス_106492" data-name="パス 106492" d="M-45.04-14.16a21.032,21.032,0,0,1,4.92,2.64l.82-1.34a29.573,29.573,0,0,0-4.96-2.52Zm-1.58,4.78a22.206,22.206,0,0,1,5.1,2.74l.78-1.34a30.509,30.509,0,0,0-5.08-2.62ZM-45.94.2a4.694,4.694,0,0,1,.78-.22c.4-.08.76-.16,1.08-.22a22.845,22.845,0,0,0,5.06-1.72,15.677,15.677,0,0,0,7.7-8.62,6.03,6.03,0,0,1-1.24-1.06,14.893,14.893,0,0,1-2.4,4.48,13.173,13.173,0,0,1-6,4.46,17.3,17.3,0,0,1-5.38,1.24Zm19.56-13.26a22.084,22.084,0,0,1,4.76,3.92l1.04-1.24a26.054,26.054,0,0,0-4.82-3.76Zm.14,13a10.508,10.508,0,0,1,1.2-.32,20.164,20.164,0,0,0,7.46-2.98A17.541,17.541,0,0,0-11.48-11a4.006,4.006,0,0,1-1.22-1.18,15.112,15.112,0,0,1-8.16,8.9,17.408,17.408,0,0,1-5.82,1.54ZM5.36-13.98H-4.48a14.179,14.179,0,0,1-2.26-.12v1.6a14.767,14.767,0,0,1,2.24-.12H5.68A16.208,16.208,0,0,1,2.18-5.5,16.06,16.06,0,0,1-5.14-.96,3.957,3.957,0,0,1-4.16.42,18.559,18.559,0,0,0,3.12-4.32,17.862,17.862,0,0,0,7.2-12.28l.04-.12a2.357,2.357,0,0,0,.7.1,2.279,2.279,0,0,0,2.28-2.28,2.271,2.271,0,0,0-2.26-2.26,2.279,2.279,0,0,0-2.28,2.28,2.119,2.119,0,0,0,.08.58ZM7.96-16a1.425,1.425,0,0,1,1.42,1.42,1.43,1.43,0,0,1-1.42,1.44,1.434,1.434,0,0,1-1.44-1.44A1.43,1.43,0,0,1,7.96-16Zm6.92.76a8.9,8.9,0,0,1,.08,1.42c0,4.22-.28,6.84-.9,8.58a9.894,9.894,0,0,1-3.38,4.6A3.7,3.7,0,0,1,11.88.44,12.226,12.226,0,0,0,15.34-4.5c.76-2.02.92-3.5,1.08-8.92a9.963,9.963,0,0,1,.12-1.72Zm4.98-.14a8.025,8.025,0,0,1,.08,1.78L19.82-1.9a3.37,3.37,0,0,1-.14,1.36l.8.92a3.332,3.332,0,0,1,.46-.22c.28-.1.28-.1.64-.24a13.183,13.183,0,0,0,2.86-1.46,11.364,11.364,0,0,0,4.02-5.14,5.592,5.592,0,0,1-1.12-1.16,9.89,9.89,0,0,1-2.36,4,9.243,9.243,0,0,1-3.72,2.32l.12-12.08a7.754,7.754,0,0,1,.12-1.76ZM31.4-11.66a66.582,66.582,0,0,1,6.9-.66,40.932,40.932,0,0,0,4.4-.44,13.092,13.092,0,0,0-1.9,1.06c-2.38,1.62-3.74,3.82-3.74,6.14a4.842,4.842,0,0,0,2.22,4.08A10.088,10.088,0,0,0,43.6.06c.36.06.4.08.62.12l.26-1.62h-.2a10.251,10.251,0,0,1-3-.64,3.921,3.921,0,0,1-2.8-3.7,6.113,6.113,0,0,1,2.46-4.62,9.837,9.837,0,0,1,3.84-2,8.389,8.389,0,0,1,2.24-.28l-.12-1.48a13.508,13.508,0,0,1-2.38.22l-1.14.04c-.66.02-.92.04-3.38.18l-3.14.2c-2.46.14-2.58.16-3.7.24-.62.04-.86.06-1.14.06-.14,0-.34,0-.72-.02ZM43.68-9.74a14.065,14.065,0,0,1,2.04,3.18l1.02-.6a15.183,15.183,0,0,0-2.06-3.1Zm2.28-1.08A15.827,15.827,0,0,1,48-7.68l1-.56a16.208,16.208,0,0,0-2.06-3.12ZM-72.16,17.66a4.692,4.692,0,0,1-.36,1.38,5,5,0,0,1-2.78,2.58,11.927,11.927,0,0,1-3.06.84,4.02,4.02,0,0,1,.7,1.2,9.79,9.79,0,0,0,5.12-2.36,5.878,5.878,0,0,0,1.76-3.64h2.44v4.02c0,.64.12.9.48,1.12a7.038,7.038,0,0,0,2.94.34c3.8,0,4.02-.18,4.48-3.76a6.049,6.049,0,0,1-1.26-.54,6.683,6.683,0,0,1-.48,2.62c-.28.42-.74.5-2.64.5-2.04,0-2.24-.06-2.24-.68V17.66h1.74c1.08,0,1.68.02,2.24.06a15.132,15.132,0,0,1-.1-2.1V8.84a26.344,26.344,0,0,1,.1-2.66,21.372,21.372,0,0,1-2.14.1h-8.36a17.078,17.078,0,0,1-2.14-.1,26.056,26.056,0,0,1,.1,2.66v6.78a15.487,15.487,0,0,1-.1,2.1c.62-.04,1.14-.06,2.26-.06Zm-2.22-10.2h9.96V9.64h-9.96Zm0,3.3h9.96v2.3h-9.96Zm0,3.42h9.96v2.38h-9.96Zm18.94-7A20.091,20.091,0,0,1-54,10.98c-.32.1-.52.14-1.02.32a21.948,21.948,0,0,1-2.94.94l.52,1.42a19.061,19.061,0,0,1,2.74-1.1,8.644,8.644,0,0,0,1.08-.36A71.123,71.123,0,0,1-51.1,23l1.62-.36a6.348,6.348,0,0,1-.26-.86c-.84-3.76-1.56-6.58-2.58-9.98a23.582,23.582,0,0,1,6.52-1.42c2.02,0,3.2.9,3.2,2.42a2.425,2.425,0,0,1-.96,2.04,4.051,4.051,0,0,1-2.4.78,6.8,6.8,0,0,1-3.36-.92,8.906,8.906,0,0,1,.12,1.14,2.875,2.875,0,0,1-.02.36,8.469,8.469,0,0,0,3.38.74c2.74,0,4.7-1.72,4.7-4.12,0-2.24-1.72-3.68-4.4-3.68a10.073,10.073,0,0,0-1.5.12c-.02-.24-.02-.62-.02-.64a18.872,18.872,0,0,1,.1-2.7h-1.5a27.719,27.719,0,0,1,.08,3.54,35.468,35.468,0,0,0-4.3,1.12c-.28-.9-.48-1.46-.88-2.64a8.038,8.038,0,0,1-.38-1.22Zm27.1,1.5c-1.36.04-2.92.08-4.84.16-3.22.12-3.22.12-3.8.12-.3,0-.44,0-.8-.02l.06,1.46c1.34-.22,5.38-.42,9.4-.5v1.04c0,.24.02.44.02.52,0,.74,0,.82.02,1.1a3.071,3.071,0,0,0-2.32-.9,3.327,3.327,0,0,0-3.54,3.3,3.1,3.1,0,0,0,3.28,3.16,3.126,3.126,0,0,0,2.52-1.08,2.8,2.8,0,0,0,.54-.98,5.18,5.18,0,0,1-2.24,4.22,10.251,10.251,0,0,1-3.24,1.5,4.391,4.391,0,0,1,.88,1.26,12.721,12.721,0,0,0,3.16-1.62,6.437,6.437,0,0,0,2.68-5.22,5.731,5.731,0,0,0-.48-2.36V9.88c1.62-.04,1.84-.04,2.14-.04a35.546,35.546,0,0,1,3.82.1V8.52c-.66.08-2.2.12-5.98.14V8.44a16.557,16.557,0,0,1,.1-2.5h-1.5a6.74,6.74,0,0,1,.08,1.16Zm-.06,5.84a2.242,2.242,0,0,1-2.34,2.36A1.933,1.933,0,0,1-32.8,14.9a2.117,2.117,0,0,1,2.22-2.1,2.558,2.558,0,0,1,1.34.32A1.448,1.448,0,0,1-28.4,14.52Zm11.72-6.7A10.821,10.821,0,0,1-16.62,9c.1,4.92.38,7.48,1.08,9.38.68,1.92,1.72,3.04,2.84,3.04,1.42,0,2.34-1.34,3.32-4.84a6.393,6.393,0,0,1-1.18-1.14,14.389,14.389,0,0,1-1.04,3.42c-.3.66-.64,1-1,1-.76,0-1.58-1.38-2.02-3.42a34.249,34.249,0,0,1-.52-6.22A14.5,14.5,0,0,1-15,7.84Zm10.12,1.7A17.663,17.663,0,0,1-2.4,19.38l1.42-.58a19.15,19.15,0,0,0-1.5-5.34A17.36,17.36,0,0,0-5.34,8.9ZM16.4,13.28a15.718,15.718,0,0,1,2.3.1V11.9a13.13,13.13,0,0,1-2.32.12H4.68a13.268,13.268,0,0,1-2.32-.12v1.48a15.718,15.718,0,0,1,2.3-.1h5.42c-.16,4.56-1.72,6.7-5.86,8.08a3.5,3.5,0,0,1,.94,1.3c4.52-1.76,6.2-4.2,6.44-9.38ZM4.38,8.46a13.934,13.934,0,0,1,2.28-.1h6.08q1.89.03,2.28.06V6.98a18.064,18.064,0,0,1-2.3.1H6.68a10.386,10.386,0,0,1-2.3-.14ZM15.1,5.74a15.24,15.24,0,0,1,1.94,3.24l1.02-.56A15.564,15.564,0,0,0,16.1,5.26ZM17.56,5A15.663,15.663,0,0,1,19.5,8.22l1.02-.56A16.647,16.647,0,0,0,18.56,4.5Zm9.8,5.4V8.02a10.655,10.655,0,0,1,.08-1.62H25.82a9.768,9.768,0,0,1,.08,1.68V10.4H24.24a13.672,13.672,0,0,1-2.34-.12V11.8a16.039,16.039,0,0,1,2.32-.1H25.9v3.28a9.614,9.614,0,0,1-.08,1.68h1.62a10.487,10.487,0,0,1-.08-1.62V11.7h6.08c-.04,3.2-.16,4.4-.6,5.6a7.619,7.619,0,0,1-5.44,4.24,3.583,3.583,0,0,1,.9,1.26,9.3,9.3,0,0,0,5.58-4.32c.74-1.44.96-2.92.98-6.78h1.76a16.039,16.039,0,0,1,2.32.1V10.28a13.672,13.672,0,0,1-2.34.12H34.88V8.3a15.277,15.277,0,0,1,.08-1.9H33.4a13.986,13.986,0,0,1,.06,2.04V10.4Zm8.36-4.96a15.443,15.443,0,0,1,1.42,3.34l1.06-.36a15.892,15.892,0,0,0-1.42-3.28Zm2.34-.62a15.972,15.972,0,0,1,1.4,3.28l1.04-.36a15.5,15.5,0,0,0-1.42-3.26Zm17,1.3A16.788,16.788,0,0,1,51.24,9.9a28.161,28.161,0,0,1-10.38,5.18,4.63,4.63,0,0,1,.78,1.34,31.265,31.265,0,0,0,7.72-3.5v7.6a10.424,10.424,0,0,1-.12,2.08h1.74a13.286,13.286,0,0,1-.1-2.12V11.96a35.224,35.224,0,0,0,4.68-4.02,4.527,4.527,0,0,1,.88-.84Zm7.46,2.82a22.084,22.084,0,0,1,4.76,3.92l1.04-1.24A26.054,26.054,0,0,0,63.5,7.86Zm.14,13a10.508,10.508,0,0,1,1.2-.32,20.164,20.164,0,0,0,7.46-2.98A17.541,17.541,0,0,0,77.42,11,4.006,4.006,0,0,1,76.2,9.82a15.112,15.112,0,0,1-8.16,8.9,17.408,17.408,0,0,1-5.82,1.54Z" transform="translate(530 1164.375)" fill="#070304"/>
    <path id="パス_106501" data-name="パス 106501" d="M7.709,1.965a17.99,17.99,0,0,1-.52,4.693A8.143,8.143,0,0,1,4.381,11.13a3.064,3.064,0,0,1,.65.65A9.7,9.7,0,0,0,8.047,6.671a19.9,19.9,0,0,0,.52-4.706h2.418a60.949,60.949,0,0,1-.416,7.982c-.13.741-.247.858-.871.858a13.782,13.782,0,0,1-1.82-.182,2.674,2.674,0,0,1,.208.9,14.543,14.543,0,0,0,1.729.091c.962,0,1.313-.273,1.508-1.17a50.237,50.237,0,0,0,.52-7.891,12.246,12.246,0,0,1,.065-1.391,9.292,9.292,0,0,1-1.274.065H7.007a10.414,10.414,0,0,1-1.469-.078v.9a10.414,10.414,0,0,1,1.469-.078Zm-2.08,2.6A8.871,8.871,0,0,1,4.225,6.5a5.469,5.469,0,0,1-.754-.689A11.312,11.312,0,0,0,5.122,3.3c.117-.221.208-.416.26-.494l-.4-.481A6.529,6.529,0,0,1,4,2.381H3.471V1.25A4.747,4.747,0,0,1,3.549.184H2.587A6.5,6.5,0,0,1,2.665,1.25V2.381H2.08A5.461,5.461,0,0,1,.845,2.316v.845A9.464,9.464,0,0,1,2.08,3.1H4.368A9.066,9.066,0,0,1,2.444,5.9a11.157,11.157,0,0,1-2.119,1.7,2.544,2.544,0,0,1,.468.7,12.032,12.032,0,0,0,1.872-1.6c-.013.442-.013.715-.013.78v2.925a11.812,11.812,0,0,1-.078,1.521H3.51a9.932,9.932,0,0,1-.078-1.508V7.269c0-.182,0-.338-.013-.6A13.956,13.956,0,0,0,5.356,8.2a2.789,2.789,0,0,1,.468-.637c-.494-.286-.689-.4-1.066-.663a20.775,20.775,0,0,0,1.5-1.859ZM15.886,1.393a3.033,3.033,0,0,1,.169.689c.117.65.273,1.417.364,1.833a5,5,0,0,0-1.3,1.326,4.668,4.668,0,0,0-.754,2.483c0,1.534.741,2.548,1.872,2.548A3.174,3.174,0,0,0,18.551,8.79a14.708,14.708,0,0,0,2.522-5.1c1.794.377,2.743,1.417,2.743,3a3.2,3.2,0,0,1-.572,1.846,4.23,4.23,0,0,1-1.95,1.417,5.891,5.891,0,0,1-1.937.481,2.148,2.148,0,0,1,.507.871c.559-.13.624-.143.819-.2A6.9,6.9,0,0,0,23.309,9.83a4.087,4.087,0,0,0,1.417-3.12,3.789,3.789,0,0,0-3.445-3.783c.065-.247.091-.39.156-.611A10.262,10.262,0,0,1,21.788.951L20.813.743a14.6,14.6,0,0,1-.4,2.093c-.182-.013-.338-.013-.429-.013a6.194,6.194,0,0,0-2.782.65,16.854,16.854,0,0,1-.351-2.262Zm.754,3.393a17.971,17.971,0,0,0,1.222,3.5c-.585.715-1.144,1.105-1.6,1.105-.637,0-1.053-.676-1.053-1.7a3.876,3.876,0,0,1,.52-1.82A3.835,3.835,0,0,1,16.64,4.786Zm1.807,2.782a2.094,2.094,0,0,0-.1-.3,18.43,18.43,0,0,1-.975-3.016,4.858,4.858,0,0,1,2.509-.663c.065,0,.182.013.325.013a14.845,14.845,0,0,1-1.586,3.679,2.128,2.128,0,0,0-.156.286Zm8.5-4.121a38.184,38.184,0,0,1,4.485-.429,25.192,25.192,0,0,0,2.86-.286,8.51,8.51,0,0,0-1.235.689,4.928,4.928,0,0,0-2.431,3.991,3.164,3.164,0,0,0,1.443,2.652,6.557,6.557,0,0,0,2.808,1c.208.039.26.052.4.078l.169-1.053h-.13a6.663,6.663,0,0,1-1.95-.416,2.549,2.549,0,0,1-1.82-2.4,3.973,3.973,0,0,1,1.6-3,6.6,6.6,0,0,1,2.5-1.313A6.029,6.029,0,0,1,37.1,2.784l-.078-.975a8.727,8.727,0,0,1-1.547.143c-1.677.078-5.837.312-7.384.429-.4.026-.559.039-.741.039h-.468ZM45.422,2.381a3.741,3.741,0,0,1,1.508.325A3.427,3.427,0,0,1,49,5.969a3.924,3.924,0,0,1-2.3,3.64,7.793,7.793,0,0,1-2.171.611,2.066,2.066,0,0,1,.455.871,10.057,10.057,0,0,0,1.976-.6,4.734,4.734,0,0,0,2.977-4.485,4.352,4.352,0,0,0-1.261-3.172A5.033,5.033,0,0,0,45.1,1.549a5.43,5.43,0,0,0-4.2,1.729,5.408,5.408,0,0,0-1.365,3.588c0,1.82.923,3.172,2.158,3.172.936,0,1.7-.78,2.457-2.5A19.487,19.487,0,0,0,45.422,2.381Zm-.936.013A17.856,17.856,0,0,1,43.3,7.2c-.559,1.274-1.079,1.885-1.625,1.885-.7,0-1.248-.962-1.248-2.21a4.5,4.5,0,0,1,2.119-3.874A4.106,4.106,0,0,1,44.486,2.394Zm12.688-.026h-3.7a8.749,8.749,0,0,1-1.443-.091v.975a10.081,10.081,0,0,1,1.456-.078h2.73c-.1,2.73-.611,4.5-1.677,5.876A6.737,6.737,0,0,1,51.9,11.156a2.516,2.516,0,0,1,.637.728,7.778,7.778,0,0,0,1.417-.949,8.293,8.293,0,0,0,1.612-1.794A8.734,8.734,0,0,0,56.8,5.813h4.082a24.929,24.929,0,0,1-.4,3.939c-.195.962-.325,1.118-.884,1.118a10.522,10.522,0,0,1-1.963-.208,2.832,2.832,0,0,1,.208.923c.7.078,1.391.117,1.807.117,1.04,0,1.352-.273,1.625-1.391a27.2,27.2,0,0,0,.494-4.433c.026-.507.039-.65.065-.91a8.272,8.272,0,0,1-1.339.065H56.94a18.021,18.021,0,0,0,.182-1.859h4.927a8.119,8.119,0,0,1,1.469.078V2.277a9.133,9.133,0,0,1-1.495.091H58.045V1.393A6.332,6.332,0,0,1,58.123.249h-1.04a7.156,7.156,0,0,1,.091,1.144Zm8.281,1.053a43.278,43.278,0,0,1,4.485-.429,26.606,26.606,0,0,0,2.86-.286,8.51,8.51,0,0,0-1.235.689,4.946,4.946,0,0,0-2.431,3.991,3.148,3.148,0,0,0,1.443,2.652,6.557,6.557,0,0,0,2.808,1c.234.039.26.052.4.078l.169-1.053h-.13a6.663,6.663,0,0,1-1.95-.416,2.549,2.549,0,0,1-1.82-2.4,3.973,3.973,0,0,1,1.6-3,6.394,6.394,0,0,1,2.5-1.3,5.453,5.453,0,0,1,1.456-.182L75.53,1.8a8.78,8.78,0,0,1-1.547.143l-.741.026c-.429.013-.6.026-2.2.117L69,2.212c-1.6.091-1.677.1-2.4.156-.4.026-.559.039-.741.039-.091,0-.221,0-.468-.013Zm7.982,1.248a9.142,9.142,0,0,1,1.326,2.067l.663-.39a9.869,9.869,0,0,0-1.339-2.015Zm1.482-.7a10.287,10.287,0,0,1,1.326,2.041l.65-.364a10.535,10.535,0,0,0-1.339-2.028Zm3.926,2.678a1.355,1.355,0,0,1,.4.078,13.7,13.7,0,0,0,1.963.325c-.013.117-.013.117-.026.312a6.875,6.875,0,0,0-.052.858,3.525,3.525,0,0,0,.4,1.794,3.234,3.234,0,0,0,2.912,1.3c2.275,0,3.809-1.235,3.809-3.068a3.47,3.47,0,0,0-1.222-2.587,2.573,2.573,0,0,1-.949.26,2.964,2.964,0,0,1,1.235,2.262c0,1.378-1.131,2.275-2.873,2.275A2.733,2.733,0,0,1,82.615,9.9a1.919,1.919,0,0,1-.6-1.56c0-.221.026-.65.052-.962a2.36,2.36,0,0,0,.013-.26c.585.026.793.026,1.118.026a15,15,0,0,0,1.833-.1c.182-.013.221-.013.351-.026l.026-.871a11.367,11.367,0,0,1-2.392.208c-.182,0-.364,0-.858-.013.078-.728.091-.858.3-2.353.715.026.936.026,1.144.026.377,0,.767-.013,1.17-.052.65-.052.65-.052.91-.078l.039-.9a10.549,10.549,0,0,1-2.379.221c-.208,0-.39,0-.754-.013.065-.364.091-.494.13-.78.117-.715.117-.715.13-.832A6.688,6.688,0,0,1,83.057.7L82.017.587v.1a20.457,20.457,0,0,1-.312,2.444,8.39,8.39,0,0,1-2.34-.507l-.117.858c.182.039.234.052.4.091a17.274,17.274,0,0,0,1.937.351c-.1.689-.234,1.7-.3,2.34a8.645,8.645,0,0,1-2.327-.52Zm18.642.468a4.96,4.96,0,0,1-.533,1.7,4.4,4.4,0,0,1-1.04-1.287l-.728.429c.091.091.1.117.208.234a8.241,8.241,0,0,0,1.131,1.235,7.128,7.128,0,0,1-3.146,1.768,2.794,2.794,0,0,1,.507.715,7.093,7.093,0,0,0,3.2-2.041,11.908,11.908,0,0,0,5.161,1.95,3.452,3.452,0,0,1,.4-.858,10.57,10.57,0,0,1-5.109-1.69,5.513,5.513,0,0,0,.728-2.158h2.249a11.369,11.369,0,0,1,1.287.052,6.78,6.78,0,0,1-.039-1.04V4.565q0-.546.039-.975c-.351.026-.65.039-1.209.039H98.488V3.174c.013-.247.013-.416.013-.468V2.329h2.821a8.018,8.018,0,0,1,1.222.065V1.523a9.3,9.3,0,0,1-1.3.078H98.5A9.78,9.78,0,0,1,98.566.106H97.63A8.724,8.724,0,0,1,97.708,1.6H95.3a8.521,8.521,0,0,1-1.248-.078v.871a7.453,7.453,0,0,1,1.2-.065h2.47v.52l-.013.78H95.576c-.637,0-.819-.013-1.17-.039a5.6,5.6,0,0,1,.052.91V6.281a6.342,6.342,0,0,1-.052.884,9.826,9.826,0,0,1,1.144-.052Zm.208-2.756c-.026.9-.065,1.521-.117,2.028H95.251V4.357Zm3.263,0V6.385h-2.6c.052-.6.078-1.144.1-2.028ZM92.17,10.428a13.4,13.4,0,0,1-.078,1.56h.949a13.392,13.392,0,0,1-.065-1.521V3.343a19.552,19.552,0,0,0,.884-2.275c.1-.338.143-.455.234-.715L93.2.119A7.561,7.561,0,0,1,92.7,1.965a11.832,11.832,0,0,1-2.184,3.8,2.664,2.664,0,0,1,.52.715A9.55,9.55,0,0,0,92.209,4.6c-.039.819-.039.91-.039,1.573Zm12.818-8.645a7.033,7.033,0,0,1,.039.767c.065,3.2.247,4.862.7,6.1s1.118,1.976,1.846,1.976c.923,0,1.521-.871,2.158-3.146a4.155,4.155,0,0,1-.767-.741,9.353,9.353,0,0,1-.676,2.223c-.195.429-.416.65-.65.65-.494,0-1.027-.9-1.313-2.223a22.262,22.262,0,0,1-.338-4.043A9.423,9.423,0,0,1,106.08,1.8Zm6.578,1.1a11.481,11.481,0,0,1,2.7,6.409l.923-.377a12.448,12.448,0,0,0-.975-3.471,11.284,11.284,0,0,0-1.859-2.964Zm7.228-1.521a13.059,13.059,0,0,1,.936,2.47c-.208.065-.338.091-.663.208a14.266,14.266,0,0,1-1.911.611l.338.923a12.39,12.39,0,0,1,1.781-.715,5.619,5.619,0,0,0,.7-.234,46.23,46.23,0,0,1,1.638,7.02l1.053-.234a4.127,4.127,0,0,1-.169-.559c-.546-2.444-1.014-4.277-1.677-6.487a15.328,15.328,0,0,1,4.238-.923c1.313,0,2.08.585,2.08,1.573a1.576,1.576,0,0,1-.624,1.326,2.633,2.633,0,0,1-1.56.507,4.418,4.418,0,0,1-2.184-.6A5.789,5.789,0,0,1,122.85,7a1.869,1.869,0,0,1-.013.234,5.505,5.505,0,0,0,2.2.481,2.779,2.779,0,0,0,3.055-2.678c0-1.456-1.118-2.392-2.86-2.392a6.547,6.547,0,0,0-.975.078c-.013-.156-.013-.4-.013-.416a12.266,12.266,0,0,1,.065-1.755h-.975a18.017,18.017,0,0,1,.052,2.3,23.055,23.055,0,0,0-2.8.728c-.182-.585-.312-.949-.572-1.716a5.224,5.224,0,0,1-.247-.793Zm17.615.975c-.884.026-1.9.052-3.146.1-2.093.078-2.093.078-2.47.078-.195,0-.286,0-.52-.013l.039.949c.871-.143,3.5-.273,6.11-.325v.676c0,.156.013.286.013.338,0,.481,0,.533.013.715a2,2,0,0,0-1.508-.585,2.163,2.163,0,0,0-2.3,2.145,2.173,2.173,0,0,0,3.77,1.352,1.82,1.82,0,0,0,.351-.637A3.367,3.367,0,0,1,135.3,9.882a6.663,6.663,0,0,1-2.106.975,2.854,2.854,0,0,1,.572.819,8.269,8.269,0,0,0,2.054-1.053,4.184,4.184,0,0,0,1.742-3.393,3.725,3.725,0,0,0-.312-1.534V3.122c1.053-.026,1.2-.026,1.391-.026a23.105,23.105,0,0,1,2.483.065V2.238c-.429.052-1.43.078-3.887.091V2.186a10.762,10.762,0,0,1,.065-1.625h-.975a4.381,4.381,0,0,1,.052.754Zm-.039,3.8a1.457,1.457,0,0,1-1.521,1.534,1.256,1.256,0,0,1-1.339-1.287,1.376,1.376,0,0,1,1.443-1.365,1.663,1.663,0,0,1,.871.208A.941.941,0,0,1,136.37,6.138Zm7.618-4.355a7.033,7.033,0,0,1,.039.767c.065,3.2.247,4.862.7,6.1s1.118,1.976,1.846,1.976c.923,0,1.521-.871,2.158-3.146a4.155,4.155,0,0,1-.767-.741,9.354,9.354,0,0,1-.676,2.223c-.2.429-.416.65-.65.65-.494,0-1.027-.9-1.313-2.223a22.263,22.263,0,0,1-.338-4.043A9.423,9.423,0,0,1,145.08,1.8Zm6.578,1.1a11.481,11.481,0,0,1,2.7,6.409l.923-.377a12.447,12.447,0,0,0-.975-3.471,11.284,11.284,0,0,0-1.859-2.964ZM161.044.522a5.976,5.976,0,0,1,.065,1.053c.013,1.859.1,4.368.208,5.863v.078a.36.36,0,0,1,.013.117c-.039-.026-.039-.026-.065-.026-.052,0-.052-.013-.117-.026a5.6,5.6,0,0,0-1.131-.117c-1.846,0-3.055.806-3.055,2.054,0,1.2,1.027,1.924,2.7,1.924a2.747,2.747,0,0,0,2.314-.9,2.328,2.328,0,0,0,.325-1.313,3.714,3.714,0,0,0-.052-.559,2.523,2.523,0,0,0,.312.143,13.078,13.078,0,0,1,1.755,1,5.753,5.753,0,0,1,1.352,1.131l.611-.91a5.96,5.96,0,0,1-.6-.4,11.236,11.236,0,0,0-3.471-1.846c-.065-.832-.13-2.093-.169-3.354a22.444,22.444,0,0,0,3.133-.286,7.231,7.231,0,0,1,.78-.091l-.117-.962a12.94,12.94,0,0,1-3.809.494c-.026-.923-.026-1.066-.026-1.352a9.328,9.328,0,0,1,.078-1.716Zm.3,7.943a6.947,6.947,0,0,1,.039.715,1.205,1.205,0,0,1-.312.975,2.2,2.2,0,0,1-1.443.429,2.1,2.1,0,0,1-1.56-.52.882.882,0,0,1-.2-.559c0-.754.806-1.222,2.132-1.222A4.428,4.428,0,0,1,161.343,8.465ZM171.821,1.64a23.666,23.666,0,0,0,5.46.858l.143-.936a16.4,16.4,0,0,1-5.291-.806Zm-1.352,4.225a18.154,18.154,0,0,1,4.953-.871,3.621,3.621,0,0,1,1.6.286,1.577,1.577,0,0,1,.832,1.456A2.91,2.91,0,0,1,177.19,8.5a3.183,3.183,0,0,1-1.118.923,8.253,8.253,0,0,1-3.653,1.053,3.3,3.3,0,0,1,.416.949,9.984,9.984,0,0,0,3.77-1.235,4.142,4.142,0,0,0,2.236-3.51,2.312,2.312,0,0,0-1.1-2.067,4.134,4.134,0,0,0-2.236-.494,21.721,21.721,0,0,0-3.965.468,10.229,10.229,0,0,1-1.313.221Zm11.349,3.159a12.975,12.975,0,0,1,2.561,2.834l.728-.689a13.246,13.246,0,0,0-2.613-2.756ZM204.49,5.332a10.217,10.217,0,0,1,1.495.065V4.435a8.535,8.535,0,0,1-1.508.078h-7.605a8.624,8.624,0,0,1-1.508-.078V5.4a10.217,10.217,0,0,1,1.5-.065h3.523c-.1,2.964-1.118,4.355-3.809,5.252a2.273,2.273,0,0,1,.611.845c2.938-1.144,4.03-2.73,4.186-6.1ZM196.677,2.2a9.057,9.057,0,0,1,1.482-.065h3.952q1.229.02,1.482.039V1.237A11.742,11.742,0,0,1,202.1,1.3h-3.926a6.751,6.751,0,0,1-1.495-.091ZM203.645.431a9.906,9.906,0,0,1,1.261,2.106l.663-.364A10.116,10.116,0,0,0,204.295.119Zm1.6-.481a10.181,10.181,0,0,1,1.261,2.093l.663-.364a10.82,10.82,0,0,0-1.274-2.054Zm6.37,3.51V1.913A6.925,6.925,0,0,1,211.666.86h-1.053a6.349,6.349,0,0,1,.052,1.092V3.46h-1.079a8.887,8.887,0,0,1-1.521-.078V4.37a10.425,10.425,0,0,1,1.508-.065h1.092V6.437a6.248,6.248,0,0,1-.052,1.092h1.053a6.816,6.816,0,0,1-.052-1.053V4.305h3.952a10.581,10.581,0,0,1-.39,3.64A4.952,4.952,0,0,1,211.64,10.7a2.329,2.329,0,0,1,.585.819,6.047,6.047,0,0,0,3.627-2.808c.481-.936.624-1.9.637-4.407h1.144a10.426,10.426,0,0,1,1.508.065V3.382a8.887,8.887,0,0,1-1.521.078H216.5V2.1A9.93,9.93,0,0,1,216.554.86H215.54a9.094,9.094,0,0,1,.039,1.326V3.46ZM217.048.236a10.038,10.038,0,0,1,.923,2.171l.689-.234a10.329,10.329,0,0,0-.923-2.132Zm1.521-.4a10.382,10.382,0,0,1,.91,2.132l.676-.234a10.076,10.076,0,0,0-.923-2.119ZM10.179,17.678A10.912,10.912,0,0,1,7.7,20.135,18.3,18.3,0,0,1,.949,23.5a3.01,3.01,0,0,1,.507.871A20.322,20.322,0,0,0,6.474,22.1v4.94A6.776,6.776,0,0,1,6.4,28.39H7.527a8.636,8.636,0,0,1-.065-1.378V21.474A22.9,22.9,0,0,0,10.5,18.861a2.943,2.943,0,0,1,.572-.546Zm4.849,1.833a14.355,14.355,0,0,1,3.094,2.548l.676-.806a16.935,16.935,0,0,0-3.133-2.444Zm.091,8.45a6.83,6.83,0,0,1,.78-.208,13.107,13.107,0,0,0,4.849-1.937,11.4,11.4,0,0,0,3.965-4.966,2.6,2.6,0,0,1-.793-.767,9.823,9.823,0,0,1-5.3,5.785,11.315,11.315,0,0,1-3.783,1Zm13.4-10.1a7.239,7.239,0,0,1-.182,1.04,21.506,21.506,0,0,0-.585,5.148,18.632,18.632,0,0,0,.338,3.679c.039.247.052.312.078.52l.936-.078v-.195A11.332,11.332,0,0,1,30.16,24.4l-.624-.3a12.078,12.078,0,0,0-.845,2.535c-.052-.689-.078-1.456-.078-2.47A19.218,19.218,0,0,1,29,20.1a18.473,18.473,0,0,1,.546-2.08ZM31.2,20.317a17.315,17.315,0,0,0,2.08.13,21.946,21.946,0,0,0,2.8-.169q.858-.117.9-.117l-.065-.923a13.949,13.949,0,0,1-3.484.351,8.83,8.83,0,0,1-2.21-.195Zm.949,2.535a3.591,3.591,0,0,0-1.131,2.418,1.837,1.837,0,0,0,.39,1.2,3.613,3.613,0,0,0,2.977.988,13.412,13.412,0,0,0,2.665-.26c.26-.039.286-.052.455-.065l-.13-1a8.556,8.556,0,0,1-2.99.455c-1.677,0-2.5-.468-2.5-1.43a3.02,3.02,0,0,1,.975-1.911Zm9.906-3.276a3.053,3.053,0,0,1,.429.039,25.43,25.43,0,0,0,2.86.169,10.275,10.275,0,0,0,1.963-.169c-.13.078-.156.078-.247.13-.156.078-.182.091-.325.169a20.142,20.142,0,0,0-1.729,1.079l.663.533a18.515,18.515,0,0,1,3.276-1.976l-.065-.858a14.217,14.217,0,0,1-3.289.273,14.863,14.863,0,0,1-3.458-.312Zm.78,3.328a3.416,3.416,0,0,0-1.495,2.509,2.071,2.071,0,0,0,1.482,1.963,9.171,9.171,0,0,0,2.99.4,21.206,21.206,0,0,0,3.51-.3,3.636,3.636,0,0,1,.442-.065l-.117-1.066a12.332,12.332,0,0,1-3.9.494,8.278,8.278,0,0,1-2.379-.26c-.728-.247-1.1-.676-1.1-1.274S42.653,24.1,43.5,23.4Zm10.491-2.158a1.936,1.936,0,0,1,.221-.013H53.6c.507.026.624.026,1.079.026.481,0,.637,0,.9-.013a26.458,26.458,0,0,1-2.444,7.189l.949.4a34.759,34.759,0,0,0,2.4-7.644,17.345,17.345,0,0,0,2.2-.312l.234-.052.13-.013-.065-.9a10.57,10.57,0,0,1-2.34.442c.065-.351.091-.533.169-.988s.117-.7.13-.78c.039-.182.052-.247.1-.455l-1.027-.1v.091a16.032,16.032,0,0,1-.286,2.3c-.377.026-.52.026-.78.026a8.965,8.965,0,0,1-1.625-.117Zm9.815.637c-.975-.039-1.17-.039-1.417-.039a14.729,14.729,0,0,0-3.445.429l.091.884a11.315,11.315,0,0,1,3.25-.442,13.052,13.052,0,0,1,1.534.091Zm-4.732,2.808c-.689.884-.871,1.287-.871,1.872,0,1.287,1.1,1.95,3.237,1.95a14.233,14.233,0,0,0,2.314-.208l.4-.078.169-.026-.091-.975a9.659,9.659,0,0,1-2.873.442c-1.482,0-2.275-.416-2.275-1.2a1.564,1.564,0,0,1,.325-.923,4.356,4.356,0,0,1,.39-.494Zm2.145-6.1a9.516,9.516,0,0,1,1.339,2.054l.65-.39A9.869,9.869,0,0,0,61.2,17.743Zm1.482-.7a9.738,9.738,0,0,1,1.326,2.041l.65-.377a10.441,10.441,0,0,0-1.339-2.015Zm4.472,8.645a11.082,11.082,0,0,1,1.17-1.235,3.658,3.658,0,0,0,.676-.715h.026c-.026.312-.026.416-.039,2a13.878,13.878,0,0,1-.065,2.457H69.3c-.065-.6-.078-1.248-.078-5.161,1.7-1.534,2.873-2.145,4.147-2.145a2.385,2.385,0,0,1,2.483,2.548,3.286,3.286,0,0,1-.364,1.56,2.894,2.894,0,0,1-2.6,1.469,5.693,5.693,0,0,1-2.3-.507,3.2,3.2,0,0,1,.1.754,1.7,1.7,0,0,1-.013.221,6.557,6.557,0,0,0,2.21.39,3.7,3.7,0,0,0,3.926-3.913,3.287,3.287,0,0,0-3.5-3.38,5.061,5.061,0,0,0-3.289,1.287,7.119,7.119,0,0,0-.754.663l-.039.039h-.026c0-.026.026-.468.065-1.313a3.843,3.843,0,0,1,.689-.845l-.338-.429a.76.76,0,0,1-.3.078c.013-.3.013-.3.026-.741a8.148,8.148,0,0,1,.13-1.508H68.458a2.339,2.339,0,0,1,.039.507c0,.507-.013,1-.052,1.807-1.066.078-1.612.1-1.807.1-.1,0-.182,0-.364-.013l.065.9a11.355,11.355,0,0,1,1.43-.156c.481-.026.481-.026.663-.039-.039,1.105-.039,1.222-.065,2.3-.169.143-.169.143-.377.338-.442.4-.442.4-.884.819a9.62,9.62,0,0,1-1.118.962Zm13.858-2.366a5.737,5.737,0,0,1,1.391-.429,15.11,15.11,0,0,1,3.419-.52c1.573,0,2.4.637,2.4,1.82,0,1.157-.9,2.145-2.379,2.626a8.864,8.864,0,0,1-2.561.4.989.989,0,0,1-.182-.013,2.847,2.847,0,0,1,.338.9,12.313,12.313,0,0,0,2.678-.494,3.8,3.8,0,0,0,2.977-3.354,2.844,2.844,0,0,0-.4-1.482,2.973,2.973,0,0,0-2.756-1.209,16.784,16.784,0,0,0-3.965.572,6.1,6.1,0,0,1-1.2.234Zm12.077-2.925a1.936,1.936,0,0,1,.221-.013h.052c.507.026.624.026,1.079.026.481,0,.637,0,.9-.013a26.146,26.146,0,0,1-2.444,7.189l.949.4a34.255,34.255,0,0,0,1.5-3.965c.351-1.183.715-2.652.91-3.679a19,19,0,0,0,2.2-.312c.26-.052.26-.052.364-.065l-.065-.9a10.719,10.719,0,0,1-2.34.442c.065-.39.1-.572.169-.988a12.29,12.29,0,0,1,.234-1.235l-1.027-.1a12.712,12.712,0,0,1-.286,2.392c-.377.026-.52.026-.78.026a8.965,8.965,0,0,1-1.625-.117Zm9.815.637c-.975-.039-1.17-.039-1.417-.039a14.729,14.729,0,0,0-3.445.429l.091.884a11.315,11.315,0,0,1,3.25-.442,13.052,13.052,0,0,1,1.534.091Zm-4.732,2.808c-.689.884-.871,1.287-.871,1.872,0,1.287,1.105,1.95,3.237,1.95a13.027,13.027,0,0,0,2.314-.221c.429-.065.429-.065.572-.091l-.091-.975a9.659,9.659,0,0,1-2.873.442c-1.482,0-2.275-.416-2.275-1.2a1.564,1.564,0,0,1,.325-.923,4.358,4.358,0,0,1,.39-.494Zm17.81-5.785c-.234.091-.234.091-1.1.091H107.25a9.528,9.528,0,0,1-1.547-.091v1a12.552,12.552,0,0,1,1.534-.065h7.384a6.9,6.9,0,0,1-1.456,1.937,5.628,5.628,0,0,1-2.054,1.235,2.554,2.554,0,0,1,.637.741,7.781,7.781,0,0,0,3.8-3.705,2.333,2.333,0,0,1,.312-.52Zm-5.668,2.262a3.433,3.433,0,0,1,.052.7c0,2.535-.507,3.861-1.885,4.966a6.109,6.109,0,0,1-2.379,1.2,2.542,2.542,0,0,1,.6.871,7.082,7.082,0,0,0,3.328-2.249,6.964,6.964,0,0,0,1.287-4.576,4.715,4.715,0,0,1,.052-.91Zm16.991-1.755h-6.4a9.216,9.216,0,0,1-1.469-.078v1.04a9.6,9.6,0,0,1,1.456-.078h6.617a10.535,10.535,0,0,1-2.275,4.628,10.439,10.439,0,0,1-4.758,2.951,2.572,2.572,0,0,1,.637.9,12.064,12.064,0,0,0,4.732-3.081,11.61,11.61,0,0,0,2.652-5.174l.026-.078a1.532,1.532,0,0,0,.455.065,1.476,1.476,0,1,0-1.469-1.469,1.378,1.378,0,0,0,.052.377Zm1.69-1.313a.93.93,0,1,1-.936.923A.927.927,0,0,1,128.349,17.6Zm4.706.364a7.645,7.645,0,0,1,.052,1.092v3.471a7.881,7.881,0,0,1-.052,1.092h1.079a6.884,6.884,0,0,1-.052-1.079v-3.5a7.1,7.1,0,0,1,.052-1.079Zm5.746,0a7.228,7.228,0,0,1,.052,1.144v1.469a16.165,16.165,0,0,1-.182,3.315,3.878,3.878,0,0,1-2.08,2.743,7.569,7.569,0,0,1-2.47.884,2.486,2.486,0,0,1,.546.9,10.235,10.235,0,0,0,2.366-.936,4.94,4.94,0,0,0,2.47-2.886,14.651,14.651,0,0,0,.325-3.965V19.1a5.8,5.8,0,0,1,.065-1.131Zm5.434,2.457a43.278,43.278,0,0,1,4.485-.429,26.605,26.605,0,0,0,2.86-.286,8.51,8.51,0,0,0-1.235.689,4.946,4.946,0,0,0-2.431,3.991,3.148,3.148,0,0,0,1.443,2.652,6.558,6.558,0,0,0,2.808,1c.234.039.26.052.4.078l.169-1.053h-.13a6.663,6.663,0,0,1-1.95-.416,2.549,2.549,0,0,1-1.82-2.405,3.973,3.973,0,0,1,1.6-3,6.394,6.394,0,0,1,2.5-1.3,5.453,5.453,0,0,1,1.456-.182l-.078-.962a8.78,8.78,0,0,1-1.547.143l-.741.026c-.429.013-.6.026-2.2.117l-2.041.13c-1.6.091-1.677.1-2.4.156-.4.026-.559.039-.741.039-.091,0-.221,0-.468-.013Zm7.982,1.248a9.142,9.142,0,0,1,1.326,2.067l.663-.39a9.869,9.869,0,0,0-1.339-2.015Zm1.482-.7a10.288,10.288,0,0,1,1.326,2.041l.65-.364a10.535,10.535,0,0,0-1.339-2.028Zm9.49-1.625c-.884.026-1.9.052-3.146.1-2.093.078-2.093.078-2.47.078-.195,0-.286,0-.52-.013l.039.949c.871-.143,3.5-.273,6.11-.325v.676c0,.156.013.286.013.338,0,.481,0,.533.013.715a2,2,0,0,0-1.508-.585,2.163,2.163,0,0,0-2.3,2.145,2.173,2.173,0,0,0,3.77,1.352,1.82,1.82,0,0,0,.351-.637,3.367,3.367,0,0,1-1.456,2.743,6.663,6.663,0,0,1-2.106.975,2.854,2.854,0,0,1,.572.819,8.269,8.269,0,0,0,2.054-1.053,4.184,4.184,0,0,0,1.742-3.393,3.725,3.725,0,0,0-.312-1.534V20.122c1.053-.026,1.2-.026,1.391-.026a23.106,23.106,0,0,1,2.483.065v-.923c-.429.052-1.43.078-3.887.091v-.143a10.762,10.762,0,0,1,.065-1.625h-.975a4.381,4.381,0,0,1,.052.754Zm-.039,3.8a1.457,1.457,0,0,1-1.521,1.534,1.256,1.256,0,0,1-1.339-1.287,1.376,1.376,0,0,1,1.443-1.365,1.663,1.663,0,0,1,.871.208A.941.941,0,0,1,163.15,23.138Zm7.215,1.807a1.95,1.95,0,1,0,1.95,1.95A1.947,1.947,0,0,0,170.365,24.945Zm0,.741a1.209,1.209,0,1,1-1.209,1.209A1.215,1.215,0,0,1,170.365,25.686Zm13.481-5.525a7.161,7.161,0,0,1-1.4-.091l.013.988a7.836,7.836,0,0,1,1.378-.065l2.366-.013a8.458,8.458,0,0,1-.806,3.094,7.6,7.6,0,0,1-3.38,3.419,2.693,2.693,0,0,1,.663.767,9.388,9.388,0,0,0,3.406-3.445,9.8,9.8,0,0,0,1.04-3.835l3.64-.013a28.624,28.624,0,0,1-.325,4.615c-.247,1.287-.455,1.6-1.092,1.6a5.489,5.489,0,0,1-1.677-.338,2.137,2.137,0,0,1,.143.819v.156a7.4,7.4,0,0,0,1.612.221c1.17,0,1.56-.468,1.885-2.249a35.465,35.465,0,0,0,.364-4.55,1.947,1.947,0,0,1,.1-.78l-.481-.416a2.077,2.077,0,0,1-.858.091l-3.25.013c.039-.364.039-.52.065-.923a10.854,10.854,0,0,1,.1-1.677l-1.053-.026a3.485,3.485,0,0,1,.052.676c0,.572-.026,1.287-.078,1.95Zm12.909-2.2a7.645,7.645,0,0,1,.052,1.092v3.471a7.881,7.881,0,0,1-.052,1.092h1.079a6.884,6.884,0,0,1-.052-1.079v-3.5a7.1,7.1,0,0,1,.052-1.079Zm5.746,0a7.228,7.228,0,0,1,.052,1.144v1.469a16.165,16.165,0,0,1-.182,3.315,3.878,3.878,0,0,1-2.08,2.743,7.569,7.569,0,0,1-2.47.884,2.486,2.486,0,0,1,.546.9,10.235,10.235,0,0,0,2.366-.936,4.94,4.94,0,0,0,2.47-2.886,14.651,14.651,0,0,0,.325-3.965V19.1a5.8,5.8,0,0,1,.065-1.131Zm7.8,1.2a5.752,5.752,0,0,1,.065-1.092H209.3a7.215,7.215,0,0,1,.052,1.079V25.14c0,.546.013.806.026,1.014a1.726,1.726,0,0,0,.533,1.248c.455.377,1.313.533,2.847.533.9,0,2.613-.091,3.445-.182l.624-.065.169-.013c.195-.026.234-.026.429-.039l-.078-1.04a6.263,6.263,0,0,1-1.287.26,25.717,25.717,0,0,1-2.977.208,13.557,13.557,0,0,1-1.534-.078,1.561,1.561,0,0,1-.988-.338c-.221-.221-.273-.52-.273-1.43v-.143L210.3,25V23.1a20.181,20.181,0,0,0,6.2-2.2c.3-.156.364-.182.559-.273l-.663-.884c-.871.858-4.043,2.145-6.1,2.5Zm5.863-1.417A9.628,9.628,0,0,1,217.5,19.81l.65-.39a9.869,9.869,0,0,0-1.339-2.015Zm1.482-.7a9.739,9.739,0,0,1,1.326,2.041l.663-.364a11.241,11.241,0,0,0-1.352-2.028ZM4.966,45.4A8.841,8.841,0,0,1,4.9,44.025V40.112a4.54,4.54,0,0,0-.052-.767l.026-.013a1.435,1.435,0,0,0,.4.221,26.505,26.505,0,0,1,4.849,2.574l.559-.962A32.241,32.241,0,0,0,4.9,38.422V35.991a8.16,8.16,0,0,1,.065-1.352H3.848a7.708,7.708,0,0,1,.078,1.326v8.073A8.361,8.361,0,0,1,3.848,45.4Zm8.619-2.613a3.377,3.377,0,0,0,.663,1.261,3.714,3.714,0,0,0,2.912,1.066c2.171,0,3.523-1.092,3.523-2.847a2.381,2.381,0,0,0-.871-1.963,2.788,2.788,0,0,0-1.6-.559,2.67,2.67,0,0,0,1.222-.468,2.284,2.284,0,0,0,.91-1.9c0-1.56-1.2-2.548-3.081-2.548a3.377,3.377,0,0,0-2.587.949,2.963,2.963,0,0,0-.7,1.3l1.079.234a2.46,2.46,0,0,1,.416-.923,2.042,2.042,0,0,1,1.729-.689c1.313,0,2.093.65,2.093,1.768a1.79,1.79,0,0,1-.52,1.261,2.6,2.6,0,0,1-1.9.6,5.545,5.545,0,0,1-.962-.078v1.027a9.116,9.116,0,0,1,1.04-.065c1.729,0,2.652.7,2.652,1.989,0,1.235-.949,2.015-2.457,2.015a2.867,2.867,0,0,1-1.677-.468,1.963,1.963,0,0,1-.793-1.235Zm12.6-3.2a6.326,6.326,0,0,1-.689,3.185c-.611,1.066-1.534,1.742-3.367,2.457a2.852,2.852,0,0,1,.585.754A6.974,6.974,0,0,0,26.1,43.427a7.315,7.315,0,0,0,.962-3.835h1.69V44.6c0,.884.364,1.053,2.249,1.053,2.158,0,2.587-.195,2.808-1.274a10.745,10.745,0,0,0,.169-1.755,2.991,2.991,0,0,1-.858-.351,6.976,6.976,0,0,1-.221,2.21c-.156.312-.533.39-1.768.39a5.879,5.879,0,0,1-1.235-.078c-.221-.052-.273-.117-.273-.364V39.592H30.94a13.1,13.1,0,0,1,1.365.052,10.949,10.949,0,0,1-.052-1.235V35.8a9.042,9.042,0,0,1,.052-1.131,11.957,11.957,0,0,1-1.456.065h-5.6a13,13,0,0,1-1.469-.065,8.634,8.634,0,0,1,.052,1.092v2.691a10.213,10.213,0,0,1-.052,1.2,13.377,13.377,0,0,1,1.378-.052Zm5.239-4.082v3.328h-6.76V35.51Zm9.191,1.235.026,1.69H37.531a9.087,9.087,0,0,1-.962-.039,13.924,13.924,0,0,1-.936,3.6l.884.065c.1-.3.156-.429.208-.624H40.1a9.91,9.91,0,0,1-5.018,3.25,2.985,2.985,0,0,1,.611.728,11.367,11.367,0,0,0,5.031-3.536c-.026.585-.026.845-.026,1.1l.013,1.612v.26a8.406,8.406,0,0,1-.065,1.131h.962a7.053,7.053,0,0,1-.091-1.4l-.039-3.146H45.6a9.192,9.192,0,0,1-.351,2.34c-.1.195-.26.26-.65.26a7.109,7.109,0,0,1-1.56-.182,3.167,3.167,0,0,1,.208.858c.637.065,1.04.091,1.365.091.676,0,1.027-.1,1.235-.39a7.742,7.742,0,0,0,.572-3.016,5.28,5.28,0,0,1,.1-.741,8.9,8.9,0,0,1-1.092.052H41.47l-.013-1.547H44.98c.338,0,.624.013.962.039a7.19,7.19,0,0,1-.039-.819v-1.6a7.279,7.279,0,0,1,.039-.832c-.273.026-.663.039-.988.039H42.848a13.153,13.153,0,0,0,1.131-1.651l-.845-.3a9.06,9.06,0,0,1-1.183,1.95H39.962a9.585,9.585,0,0,0-1.209-1.846l-.754.3a7.7,7.7,0,0,1,1.079,1.547h-1.95a8.92,8.92,0,0,1-1.17-.065V36.8a9.366,9.366,0,0,1,1.157-.052Zm.819,0h3.653v1.69h-3.64Zm-.767,3.965H36.946c.169-.637.234-.871.377-1.547h3.315Zm16.341-5.915a9.964,9.964,0,0,1,1.339,2.067l.65-.39a9.869,9.869,0,0,0-1.339-2.015Zm-8.372,4a16.923,16.923,0,0,1,2.613-.468,19.184,19.184,0,0,1-2.782,6.474l.884.52a25.249,25.249,0,0,0,2.808-7.072,7.465,7.465,0,0,1,.936-.065c1.209,0,1.6.442,1.6,1.82a10.063,10.063,0,0,1-.546,3.614q-.253.624-.741.624a4.859,4.859,0,0,1-1.937-.6,2.4,2.4,0,0,1,.039.507,2.9,2.9,0,0,1-.026.468,4.891,4.891,0,0,0,1.963.507,1.358,1.358,0,0,0,1.274-.611,8.96,8.96,0,0,0,.871-4.472,2.624,2.624,0,0,0-.637-2.093,2.484,2.484,0,0,0-1.872-.546,7.577,7.577,0,0,0-.767.039c.1-.559.221-1.157.273-1.482a7.992,7.992,0,0,1,.247-1.248l-1.04-.117v.169a16.057,16.057,0,0,1-.39,2.756,26.668,26.668,0,0,1-2.873.338Zm9.854-4.693a9.415,9.415,0,0,1,1.326,2.041l.65-.377a10.441,10.441,0,0,0-1.339-2.015ZM56.3,37.07a10.978,10.978,0,0,1,2.652,4.667l.832-.468a11.9,11.9,0,0,0-2.717-4.6Zm6.032-.026a1.347,1.347,0,0,1,.208-.013,2.112,2.112,0,0,1,.234.013c1.04.039,1.625.065,1.755.065h.52c-.065.949-.065,1.014-.078,1.963a4.431,4.431,0,0,0-3.016,3.874,1.775,1.775,0,0,0,1.677,1.976,4.262,4.262,0,0,0,2.9-1.573,11.707,11.707,0,0,0,2.47-3.9c1.4.364,2.145,1.144,2.145,2.262a2.866,2.866,0,0,1-2.236,2.6,6.054,6.054,0,0,1-1.95.351,2.68,2.68,0,0,1,.416.871,7.157,7.157,0,0,0,2.652-.741,3.335,3.335,0,0,0,2.041-3c0-1.521-1-2.626-2.795-3.042.221-.611.364-.962.4-1.04l-.9-.273a4.881,4.881,0,0,1-.312,1.17c-.325-.026-.481-.039-.754-.039a6.869,6.869,0,0,0-1.924.26c.013-.637.013-.637.091-1.742a36.418,36.418,0,0,0,4.6-.52c.247-.039.286-.039.455-.065l-.052-.91a19.977,19.977,0,0,1-4.953.728,8.644,8.644,0,0,1,.273-1.82l-1.014-.065a1.38,1.38,0,0,1,.013.195c0,.091-.026.6-.039.741-.052.663-.052.663-.065.975-.234.013-.286.013-.325.013a9.1,9.1,0,0,1-2.431-.208Zm2.639,2.847a18.386,18.386,0,0,0,.26,3.523,2.347,2.347,0,0,1-1.495.663c-.559,0-.936-.468-.936-1.183a3.071,3.071,0,0,1,.793-1.937A4.646,4.646,0,0,1,64.974,39.891Zm.962,2.977v-.143a.859.859,0,0,0-.013-.182,21.864,21.864,0,0,1-.143-2.977,5.847,5.847,0,0,1,1.807-.3c.143,0,.208,0,.624.026a11.741,11.741,0,0,1-1.989,3.25,1.409,1.409,0,0,0-.247.338Zm11.9-8.411a13.375,13.375,0,0,1-.442,2.444c-.247,0-.676.013-.936.013a8.215,8.215,0,0,1-1.547-.1l-.013.9h.169c.039,0,.143,0,.286.013.195,0,.637.013.858.013.195,0,.637-.013.962-.026a19.465,19.465,0,0,1-1.352,3.354,11.477,11.477,0,0,1-1.248,2.028l.884.52c.065-.1.143-.26.26-.442.494-.858.611-1.079.923-1.7a24.22,24.22,0,0,0,1.443-3.8A15.693,15.693,0,0,0,80.21,37.4c.312-.052.312-.052.455-.078l-.039-.9a10.818,10.818,0,0,1-2.327.429c.182-.663.26-.975.351-1.417a4.071,4.071,0,0,1,.208-.832Zm7.657,3.588a17.918,17.918,0,0,0-3.432-1.716l-.481.728a14.1,14.1,0,0,1,3.445,1.768Zm.026,5.759a1.316,1.316,0,0,1-.234-.208,9.338,9.338,0,0,0-2.548-1.573,15.507,15.507,0,0,1-.143-1.976,3.99,3.99,0,0,1,.169-1.209l-.884-.091a5.264,5.264,0,0,0-.13,1.261c0,.325.026.936.091,1.781a4.29,4.29,0,0,0-1.313-.195,3.8,3.8,0,0,0-1.534.286,1.844,1.844,0,0,0-1.209,1.651c0,1.157.975,1.885,2.535,1.885,1.586,0,2.47-.741,2.47-2.08a2.7,2.7,0,0,0-.026-.416,7.436,7.436,0,0,1,2.275,1.768ZM81.9,42.621s.026.4.026.559c0,.975-.507,1.417-1.625,1.417-1.027,0-1.651-.4-1.651-1.066,0-.715.7-1.17,1.807-1.17A3.858,3.858,0,0,1,81.9,42.621Zm6.084-4.875a1.936,1.936,0,0,1,.221-.013h.052c.507.026.624.026,1.079.026.481,0,.637,0,.9-.013a26.146,26.146,0,0,1-2.444,7.189l.949.4a34.255,34.255,0,0,0,1.5-3.965c.351-1.183.715-2.652.91-3.679a19,19,0,0,0,2.2-.312c.26-.052.26-.052.364-.065l-.065-.9a10.719,10.719,0,0,1-2.34.442c.065-.39.1-.572.169-.988a12.29,12.29,0,0,1,.234-1.235l-1.027-.1a12.712,12.712,0,0,1-.286,2.392c-.377.026-.52.026-.78.026a8.965,8.965,0,0,1-1.625-.117Zm9.815.637c-.975-.039-1.17-.039-1.417-.039a14.728,14.728,0,0,0-3.445.429l.091.884a11.315,11.315,0,0,1,3.25-.442,13.052,13.052,0,0,1,1.534.091Zm-4.732,2.808c-.689.884-.871,1.287-.871,1.872,0,1.287,1.105,1.95,3.237,1.95a13.026,13.026,0,0,0,2.314-.221c.429-.065.429-.065.572-.091l-.091-.975a9.659,9.659,0,0,1-2.873.442c-1.482,0-2.275-.416-2.275-1.2a1.564,1.564,0,0,1,.325-.923,4.357,4.357,0,0,1,.39-.494Zm13.676-4.81a3.741,3.741,0,0,1,1.508.325,3.427,3.427,0,0,1,2.067,3.263,3.924,3.924,0,0,1-2.3,3.64,7.793,7.793,0,0,1-2.171.611,2.066,2.066,0,0,1,.455.871,10.057,10.057,0,0,0,1.976-.6,4.734,4.734,0,0,0,2.977-4.485,4.352,4.352,0,0,0-1.261-3.172,5.033,5.033,0,0,0-3.575-1.287,5.279,5.279,0,0,0-5.564,5.317c0,1.82.923,3.172,2.158,3.172.936,0,1.7-.78,2.457-2.5A19.487,19.487,0,0,0,106.743,36.381Zm-.936.013a17.856,17.856,0,0,1-1.183,4.81c-.559,1.274-1.079,1.885-1.625,1.885-.7,0-1.248-.962-1.248-2.21a4.5,4.5,0,0,1,2.119-3.874A4.106,4.106,0,0,1,105.807,36.394Zm18.447,7.9a32.33,32.33,0,0,0-4.329-3.9,15.72,15.72,0,0,0,2.145-3.64,2.426,2.426,0,0,1,.364-.637l-.546-.559a2.424,2.424,0,0,1-.832.1l-4.641.052h-.338a6.109,6.109,0,0,1-1.027-.065l.026,1.053a8.747,8.747,0,0,1,1.339-.1l4.342-.065a2.209,2.209,0,0,0,.312-.013.275.275,0,0,1-.039.091c-.026.065-.039.078-.065.156a14.09,14.09,0,0,1-4.641,5.863,10.465,10.465,0,0,1-2.639,1.5,2.893,2.893,0,0,1,.637.858,16.741,16.741,0,0,0,2.548-1.56,14.112,14.112,0,0,0,2.483-2.327,24.179,24.179,0,0,1,4.16,4.017Zm6.422-7.085-2.652.416a9.739,9.739,0,0,1-1.352.13l.182.988a10.708,10.708,0,0,1,1.3-.286l2.678-.416.468,2.626-3.458.559a6.841,6.841,0,0,1-1.287.117l.169.988a6.885,6.885,0,0,1,1.248-.26l3.484-.559.533,2.912a10.361,10.361,0,0,1,.156,1.248l1.04-.195a7.055,7.055,0,0,1-.286-1.235l-.533-2.873,3.263-.52c.091-.013.156-.026.3-.052.221-.039.351-.065.4-.065a3.841,3.841,0,0,1,.572-.065l-.182-.962a7.989,7.989,0,0,1-1.287.3l-3.224.52-.494-2.626,2.951-.455c.806-.13.806-.13,1.157-.169l-.182-.936a6.106,6.106,0,0,1-1.144.26l-2.938.455-.26-1.43a6.7,6.7,0,0,1-.143-1.1l-1.027.169a4.433,4.433,0,0,1,.286,1.1Zm10.452-2.119a5.782,5.782,0,0,1,.052.923,17.736,17.736,0,0,1-.585,5.577,6.431,6.431,0,0,1-2.2,2.99,2.4,2.4,0,0,1,.78.7,7.947,7.947,0,0,0,2.249-3.211c.494-1.313.6-2.275.7-5.8a6.476,6.476,0,0,1,.078-1.118ZM144.365,35a5.216,5.216,0,0,1,.052,1.157l-.078,7.6a2.191,2.191,0,0,1-.091.884l.52.6a2.165,2.165,0,0,1,.3-.143c.182-.065.182-.065.416-.156A8.57,8.57,0,0,0,147.342,44a7.386,7.386,0,0,0,2.613-3.341,3.635,3.635,0,0,1-.728-.754,6.429,6.429,0,0,1-1.534,2.6,6.008,6.008,0,0,1-2.418,1.508l.078-7.852a5.04,5.04,0,0,1,.078-1.144Zm8.775.793a13.671,13.671,0,0,1,3.2,1.716l.533-.871A19.224,19.224,0,0,0,153.647,35ZM152.113,38.9a14.434,14.434,0,0,1,3.315,1.781l.507-.871a19.83,19.83,0,0,0-3.3-1.7Zm.442,6.227a3.052,3.052,0,0,1,.507-.143c.26-.052.494-.1.7-.143a14.849,14.849,0,0,0,3.289-1.118,10.19,10.19,0,0,0,5.005-5.6,3.92,3.92,0,0,1-.806-.689,9.68,9.68,0,0,1-1.56,2.912,8.562,8.562,0,0,1-3.9,2.9,11.242,11.242,0,0,1-3.5.806Zm17.563-5.421h2a6.2,6.2,0,0,1,1.144.052v-.91a6.6,6.6,0,0,1-1.157.078h-4.745a6.8,6.8,0,0,1-1.157-.078v.91a8.471,8.471,0,0,1,1.157-.052h1.859v4.5h-2.639a5.3,5.3,0,0,1-1.17-.078v.923A9.168,9.168,0,0,1,166.6,45h6.292a9.429,9.429,0,0,1,1.183.052v-.91a6.545,6.545,0,0,1-1.17.065h-2.782Zm17.459-4.3c-.234.091-.234.091-1.1.091h-6.981a9.528,9.528,0,0,1-1.547-.091v1a12.553,12.553,0,0,1,1.534-.065h7.384a6.9,6.9,0,0,1-1.456,1.937,5.628,5.628,0,0,1-2.054,1.235,2.554,2.554,0,0,1,.637.741,7.781,7.781,0,0,0,3.8-3.705,2.333,2.333,0,0,1,.312-.52Zm-5.668,2.262a3.433,3.433,0,0,1,.052.7c0,2.535-.507,3.861-1.885,4.966a6.109,6.109,0,0,1-2.379,1.2,2.542,2.542,0,0,1,.6.871,7.082,7.082,0,0,0,3.328-2.249,6.963,6.963,0,0,0,1.287-4.576,4.717,4.717,0,0,1,.052-.91Zm11.843-1.417a18.19,18.19,0,0,1-2.782-.143l-.013.9a2.3,2.3,0,0,1,.286-.013h.208c.481.013,1.7.039,1.911.039a1.44,1.44,0,0,0,.247-.026l-.117.195a12.936,12.936,0,0,1-2.912,3.718l.728.728a4.3,4.3,0,0,1,1-1.079,4.884,4.884,0,0,1,2.9-1.378c.611,0,.923.312,1.027,1.027a10.091,10.091,0,0,0-1.937,1.04,2.688,2.688,0,0,0-1.326,2.054c0,1.339,1.131,2,3.458,2a20.167,20.167,0,0,0,3.159-.26,5.117,5.117,0,0,1,.52-.065l-.117-1a10.893,10.893,0,0,1-3.471.507c-1.833,0-2.639-.377-2.639-1.235,0-.78.676-1.391,2.444-2.223a3.416,3.416,0,0,1,.013.39,18.7,18.7,0,0,1-.078,1.872l.884-.013a2.826,2.826,0,0,1-.026-.468c0-.117,0-.3.013-.585.013-.26.013-.546.013-.715,0-.325,0-.455-.026-.793a21.584,21.584,0,0,1,3.471-1.144l-.416-.91a2.86,2.86,0,0,1-.884.377c-.572.208-1.313.481-2.262.858a1.578,1.578,0,0,0-1.716-1.443,3.46,3.46,0,0,0-1.963.637c-.13.091-.13.091-.6.455a.1.1,0,0,1-.026-.039V39.5a.013.013,0,0,0,.013-.013c.013-.013.078-.065.169-.13.052-.039.312-.338.442-.494a9.586,9.586,0,0,0,1.17-1.846,41.975,41.975,0,0,0,4.29-.338,4.053,4.053,0,0,1,.52-.065l-.078-.884a18.3,18.3,0,0,1-4.1.494,2.213,2.213,0,0,0-.273.013c.065-.117.234-.468.4-.884a2.761,2.761,0,0,1,.338-.7l-1.04-.182a5.517,5.517,0,0,1-.624,1.781Zm13,1.1V35.822a5.617,5.617,0,0,1,.052-1.053h-1.053a7.529,7.529,0,0,1,.052,1.092v1.495h-1.079a9.449,9.449,0,0,1-1.521-.078v.988a11.967,11.967,0,0,1,1.508-.065H205.8v2.132a7.415,7.415,0,0,1-.052,1.092H206.8a7.148,7.148,0,0,1-.052-1.053V38.2H210.7c-.013,1.053-.026,1.456-.052,1.872a4.23,4.23,0,0,1-1.391,3.25,5.748,5.748,0,0,1-2.483,1.274,2.329,2.329,0,0,1,.585.819,9.651,9.651,0,0,0,1.508-.663,5.5,5.5,0,0,0,2.119-2.145c.481-.936.611-1.768.637-4.407h1.144a11.967,11.967,0,0,1,1.508.065v-.988a9.449,9.449,0,0,1-1.521.078H211.64V35.991a8.914,8.914,0,0,1,.052-1.209h-1.014a8.64,8.64,0,0,1,.039,1.313v1.261ZM5.941,53.9H2.769a8.357,8.357,0,0,1-1.508-.078v.988a10.106,10.106,0,0,1,1.5-.065H5.941v6.487A7.234,7.234,0,0,1,5.863,62.6H6.929a7.849,7.849,0,0,1-.065-1.378V54.746h3.3a10.106,10.106,0,0,1,1.495.065v-.988a8.526,8.526,0,0,1-1.521.078H6.864v-.845A7.491,7.491,0,0,1,6.929,51.7H5.863a5.806,5.806,0,0,1,.078,1.326ZM3.133,55.942a6.638,6.638,0,0,1-.455,1.768,8.294,8.294,0,0,1-1.911,3.2,2.882,2.882,0,0,1,.858.559A11.61,11.61,0,0,0,3.9,56.982l.065-.286.078-.26a1.556,1.556,0,0,1,.078-.221Zm5.551.26c.091.208.208.494.325.845a15.592,15.592,0,0,0,2.262,4.472,2.809,2.809,0,0,1,.819-.611,11.551,11.551,0,0,1-2.015-3.484,9.282,9.282,0,0,1-.481-1.469Zm2.34-5.564a1.476,1.476,0,1,0,1.469,1.469A1.459,1.459,0,0,0,11.024,50.638Zm0,.546a.93.93,0,1,1-.936.923A.927.927,0,0,1,11.024,51.184Zm2.717,6.357a14.2,14.2,0,0,1,1.612-.052h7.54a14.871,14.871,0,0,1,1.586.052V56.488a10.253,10.253,0,0,1-1.573.065H15.353a9.2,9.2,0,0,1-1.612-.078ZM30.576,62.4a8.841,8.841,0,0,1-.065-1.378V57.112a4.54,4.54,0,0,0-.052-.767l.026-.013a1.435,1.435,0,0,0,.4.221,26.505,26.505,0,0,1,4.849,2.574l.559-.962a32.241,32.241,0,0,0-5.785-2.743V52.991a8.16,8.16,0,0,1,.065-1.352H29.458a7.708,7.708,0,0,1,.078,1.326v8.073a8.361,8.361,0,0,1-.078,1.365ZM41.626,51.86a4,4,0,0,1,.052.689c0,.208,0,.455-.013.845-.1,4.095-.117,4.42-.117,5.291a3.621,3.621,0,0,0,.715,2.665,3.083,3.083,0,0,0,2.444.91,4.552,4.552,0,0,0,3.666-1.625,7.908,7.908,0,0,0,1.443-2.951,3.677,3.677,0,0,1-.936-.624,7.723,7.723,0,0,1-.637,2.041,3.733,3.733,0,0,1-3.484,2.262,2.454,2.454,0,0,1-1.625-.507,2.046,2.046,0,0,1-.611-1.56c-.013-.3-.026-.624-.026-.78,0-.585.039-2.353.091-3.913a20.043,20.043,0,0,1,.169-2.743Zm21.359,9.1a4.444,4.444,0,0,1-.442-.3,11.379,11.379,0,0,0-3.627-1.9c-.052-1.261-.052-1.261-.078-1.989.962-.065,1.989-.169,2.886-.312.455-.065.585-.078.754-.091l-.052-.9a15.691,15.691,0,0,1-3.6.533c-.013-.689-.013-.689-.026-1.755a27.005,27.005,0,0,0,3.016-.312c.676-.091.676-.091.9-.1l-.065-.884a18.325,18.325,0,0,1-3.848.533,14.509,14.509,0,0,1,.091-1.833h-1a10.179,10.179,0,0,1,.065,1.872c-.429,0-.871.013-1.131.013a16.15,16.15,0,0,1-3.328-.26l-.013.884a1.062,1.062,0,0,1,.182-.013,1.577,1.577,0,0,1,.234.013c1.17.091,2.223.13,3.172.13.3,0,.507,0,.884-.013l.026,1.781c-.364.013-.819.013-1.157.013a15.955,15.955,0,0,1-2.977-.208l-.013.858h.1c.078,0,.182,0,.325.013.806.065,1.417.091,2.2.091.416,0,1.066-.013,1.534-.026.013.338.013.585.026.754.013.377.013.65.026.767a1.036,1.036,0,0,0,.013.143c0,.117,0,.117.013.156a5.782,5.782,0,0,0-1.17-.1,5.663,5.663,0,0,0-1.352.13c-1.144.26-1.82.936-1.82,1.794a1.7,1.7,0,0,0,.7,1.365,3.386,3.386,0,0,0,2.015.52,2.617,2.617,0,0,0,2.2-.819,2.258,2.258,0,0,0,.325-1.417,3.737,3.737,0,0,0-.026-.468c.351.143.65.273.871.39a10.461,10.461,0,0,1,2.652,1.859Zm-4.9-1.053a1.7,1.7,0,0,1-.26,1.17,1.878,1.878,0,0,1-1.43.429c-1.131,0-1.781-.39-1.781-1.079s.845-1.157,2.132-1.157a4.772,4.772,0,0,1,1.326.143ZM71.8,53.342c-.884.026-1.9.052-3.146.1-2.093.078-2.093.078-2.47.078-.195,0-.286,0-.52-.013l.039.949c.871-.143,3.5-.273,6.11-.325v.676c0,.156.013.286.013.338,0,.481,0,.533.013.715a2,2,0,0,0-1.508-.585,2.163,2.163,0,0,0-2.3,2.145,2.173,2.173,0,0,0,3.77,1.352,1.821,1.821,0,0,0,.351-.637,3.367,3.367,0,0,1-1.456,2.743,6.663,6.663,0,0,1-2.106.975,2.854,2.854,0,0,1,.572.819,8.269,8.269,0,0,0,2.054-1.053,4.184,4.184,0,0,0,1.742-3.393,3.725,3.725,0,0,0-.312-1.534V54.122c1.053-.026,1.2-.026,1.391-.026a23.106,23.106,0,0,1,2.483.065v-.923c-.429.052-1.43.078-3.887.091v-.143a10.761,10.761,0,0,1,.065-1.625h-.975a4.381,4.381,0,0,1,.052.754Zm-.039,3.8a1.457,1.457,0,0,1-1.521,1.534A1.256,1.256,0,0,1,68.9,57.385a1.376,1.376,0,0,1,1.443-1.365,1.663,1.663,0,0,1,.871.208A.941.941,0,0,1,71.76,57.138Zm7.215,1.807a1.95,1.95,0,1,0,1.95,1.95A1.947,1.947,0,0,0,78.975,58.945Zm0,.741A1.209,1.209,0,1,1,77.766,60.9,1.215,1.215,0,0,1,78.975,59.686Z" transform="translate(420 1302.145)" fill="#1b1311"/>
    <g id="グループ_62010" data-name="グループ 62010" transform="translate(-181.621 -247.998)">
      <g id="長方形_13529" data-name="長方形 13529" transform="translate(720.552 1492.75)" fill="#fff" stroke="#707070" stroke-width="1">
        <rect id="fill" width="0.541" height="0.541" stroke="none"/>
        <path d="M0,0.04125553369522095h0.541255533695221M0.5,0v0.541255533695221M0.541255533695221,0.5h-0.541255533695221M0.04125553369522095,0.541255533695221v-0.541255533695221" fill="none" clip-path="url(#clip)"/>
      </g>
      <path id="パス_51327" data-name="パス 51327" d="M21.1,10.7a21.89,21.89,0,0,1,37.632,0L76.651,40.653c8.817,14.738-1.726,33.52-18.816,33.52H22c-17.09,0-27.633-18.783-18.816-33.52Z" transform="matrix(0.961, 0.276, -0.276, 0.961, 684.879, 1437)" fill="#ffc2b9"/>
      <path id="パス_51326" data-name="パス 51326" d="M21.318,10.742a22.191,22.191,0,0,1,38.02,0L77.44,40.8A22.191,22.191,0,0,1,58.43,74.44h-36.2A22.191,22.191,0,0,1,3.216,40.8Z" transform="translate(739.152 1539.497) rotate(-164)" fill="#ff8977" opacity="0.6"/>
      <g id="グループ_2839" data-name="グループ 2839" transform="translate(693.76 1469.476)" clip-path="url(#clip-path)">
        <path id="パス_5737" data-name="パス 5737" d="M13.469,38.438A10.969,10.969,0,1,1,24.438,27.469,10.982,10.982,0,0,1,13.469,38.438m0-19.669a8.7,8.7,0,1,0,8.7,8.7,8.71,8.71,0,0,0-8.7-8.7" transform="translate(-0.609 -4.002)"/>
        <path id="パス_5738" data-name="パス 5738" d="M27.469,38.438A10.969,10.969,0,1,1,38.438,27.469,10.982,10.982,0,0,1,27.469,38.438m0-19.669a8.7,8.7,0,1,0,8.7,8.7,8.71,8.71,0,0,0-8.7-8.7" transform="translate(-4.018 -4.002)"/>
        <path id="パス_5739" data-name="パス 5739" d="M20.469,24.438A10.969,10.969,0,1,1,31.438,13.469,10.982,10.982,0,0,1,20.469,24.438m0-19.669a8.7,8.7,0,1,0,8.7,8.7,8.71,8.71,0,0,0-8.7-8.7" transform="translate(-2.313 -0.593)"/>
      </g>
    </g>
  </g>
</svg>
