<svg xmlns="http://www.w3.org/2000/svg" xmlns:xlink="http://www.w3.org/1999/xlink" width="273.193" height="276.591" viewBox="0 0 273.193 276.591">
  <defs>
    <filter id="パス_106514" x="0" y="0" width="273.193" height="276.591" filterUnits="userSpaceOnUse">
      <feOffset dy="3" input="SourceAlpha"/>
      <feGaussianBlur stdDeviation="3" result="blur"/>
      <feFlood flood-opacity="0.161"/>
      <feComposite operator="in" in2="blur"/>
      <feComposite in="SourceGraphic"/>
    </filter>
  </defs>
  <g id="グループ_62104" data-name="グループ 62104" transform="translate(-1244.5 -534.152)">
    <g transform="matrix(1, 0, 0, 1, 1244.5, 534.15)" filter="url(#パス_106514)">
      <path id="パス_106514-2" data-name="パス 106514" d="M4.252,0H250.941a4.252,4.252,0,0,1,4.252,4.252V254.339a4.252,4.252,0,0,1-4.252,4.252H4.252A4.252,4.252,0,0,1,0,254.339V4.252A4.252,4.252,0,0,1,4.252,0Z" transform="translate(9 6)" fill="#fff"/>
    </g>
    <path id="パス_106517" data-name="パス 106517" d="M9.828,6.84V.873h2.561V.067H8.944V6.84Zm4.94-5.057a7.033,7.033,0,0,1,.039.767c.065,3.2.247,4.862.7,6.1s1.118,1.976,1.846,1.976c.923,0,1.521-.871,2.158-3.146a4.156,4.156,0,0,1-.767-.741,9.353,9.353,0,0,1-.676,2.223c-.195.429-.416.65-.65.65-.494,0-1.027-.9-1.313-2.223a22.262,22.262,0,0,1-.338-4.043A9.423,9.423,0,0,1,15.86,1.8Zm6.578,1.1A11.481,11.481,0,0,1,24.05,9.3l.923-.377A12.448,12.448,0,0,0,24,5.449a11.284,11.284,0,0,0-1.859-2.964Zm6.422-1.1a7.032,7.032,0,0,1,.039.767c.065,3.2.247,4.862.7,6.1s1.118,1.976,1.846,1.976c.923,0,1.521-.871,2.158-3.146a4.155,4.155,0,0,1-.767-.741,9.353,9.353,0,0,1-.676,2.223c-.195.429-.416.65-.65.65-.494,0-1.027-.9-1.313-2.223a22.262,22.262,0,0,1-.338-4.043A9.423,9.423,0,0,1,28.86,1.8Zm6.578,1.1A11.481,11.481,0,0,1,37.05,9.3l.923-.377A12.448,12.448,0,0,0,37,5.449a11.284,11.284,0,0,0-1.859-2.964ZM43.29.457A13.375,13.375,0,0,1,42.848,2.9c-.247,0-.676.013-.936.013a8.215,8.215,0,0,1-1.547-.1l-.013.9h.169c.039,0,.143,0,.286.013.195,0,.637.013.858.013.195,0,.637-.013.962-.026a19.465,19.465,0,0,1-1.352,3.354,11.477,11.477,0,0,1-1.248,2.028l.884.52c.065-.1.143-.26.26-.442.494-.858.611-1.079.923-1.7a24.22,24.22,0,0,0,1.443-3.8A15.694,15.694,0,0,0,45.669,3.4c.312-.052.312-.052.455-.078l-.039-.9a10.818,10.818,0,0,1-2.327.429c.182-.663.26-.975.351-1.417A4.072,4.072,0,0,1,44.317.6Zm7.657,3.588a17.917,17.917,0,0,0-3.432-1.716l-.481.728a14.1,14.1,0,0,1,3.445,1.768ZM50.973,9.8a1.316,1.316,0,0,1-.234-.208,9.338,9.338,0,0,0-2.548-1.573,15.507,15.507,0,0,1-.143-1.976,3.99,3.99,0,0,1,.169-1.209l-.884-.091a5.264,5.264,0,0,0-.13,1.261c0,.325.026.936.091,1.781a4.29,4.29,0,0,0-1.313-.2,3.8,3.8,0,0,0-1.534.286,1.844,1.844,0,0,0-1.209,1.651c0,1.157.975,1.885,2.535,1.885,1.586,0,2.47-.741,2.47-2.08a2.7,2.7,0,0,0-.026-.416,7.436,7.436,0,0,1,2.275,1.768ZM47.359,8.621s.026.4.026.559c0,.975-.507,1.417-1.625,1.417-1.027,0-1.651-.4-1.651-1.066,0-.715.7-1.17,1.807-1.17A3.858,3.858,0,0,1,47.359,8.621ZM55.172,5.28v5.967H52.611v.806h3.445V5.28ZM69.03.8a4.348,4.348,0,0,1,.221.819,26.481,26.481,0,0,0,.949,3.64,8.1,8.1,0,0,0-1.7,1.053,2.812,2.812,0,0,0-1.157,2.21,2.158,2.158,0,0,0,1.612,2.132A8.844,8.844,0,0,0,71.838,11a26.078,26.078,0,0,0,2.873-.169,6.738,6.738,0,0,1,.962-.078l-.1-1.079a12.907,12.907,0,0,1-3.718.442c-2.548,0-3.549-.455-3.549-1.638,0-1.079.962-1.937,3.185-2.821A29.9,29.9,0,0,1,75.4,4.4l-.39-.988a7.03,7.03,0,0,1-.832.338c-2.015.7-2.379.845-3.146,1.157A22.611,22.611,0,0,1,70.057.6ZM88.972,2.056A10.445,10.445,0,0,1,89.024.8,8.123,8.123,0,0,1,87.8.86H81.25A8.123,8.123,0,0,1,80.028.8a11.01,11.01,0,0,1,.052,1.261V5.228a10.6,10.6,0,0,1-.052,1.209,11.123,11.123,0,0,1,1.209-.065H87.8a8.894,8.894,0,0,1,1.222.065,10.033,10.033,0,0,1-.052-1.209Zm-4.9-.481V3.226h-3.2V1.575Zm.767,1.651V1.575h3.341V3.226Zm-.767.7V5.657h-3.2V3.928Zm.767,1.729V3.928h3.341V5.657Zm-5.382,5.629a7.065,7.065,0,0,0,.884-1.443,11.511,11.511,0,0,0,.806-2.2l-.793-.273a7.331,7.331,0,0,1-.741,2.08,5.076,5.076,0,0,1-.9,1.3Zm3.5-2.808a5.649,5.649,0,0,1,.078-1.2h-.975a5.153,5.153,0,0,1,.078,1.2v2.015c0,.988.39,1.157,2.548,1.157,1.7,0,2.457-.091,2.795-.338s.442-.637.572-1.911a2.562,2.562,0,0,1-.806-.325,3.357,3.357,0,0,1-.234,1.495c-.182.247-.676.312-2.171.312-1.664,0-1.885-.065-1.885-.559Zm3.393.533a13.3,13.3,0,0,0-1.872-2.158l-.611.429a8.442,8.442,0,0,1,1.82,2.249Zm4.16,1.625a16.808,16.808,0,0,0-2.145-3.354l-.637.39a12.537,12.537,0,0,1,2.041,3.471Zm2.86-3.965a5.737,5.737,0,0,1,1.391-.429,15.11,15.11,0,0,1,3.419-.52c1.573,0,2.4.637,2.4,1.82,0,1.157-.9,2.145-2.379,2.626a8.864,8.864,0,0,1-2.561.4.988.988,0,0,1-.182-.013,2.847,2.847,0,0,1,.338.9,12.313,12.313,0,0,0,2.678-.494,3.8,3.8,0,0,0,2.977-3.354,2.844,2.844,0,0,0-.4-1.482,2.973,2.973,0,0,0-2.756-1.209,16.784,16.784,0,0,0-3.965.572,6.1,6.1,0,0,1-1.2.234Zm12.077-2.925a1.936,1.936,0,0,1,.221-.013h.052c.507.026.624.026,1.079.026.481,0,.637,0,.9-.013a26.146,26.146,0,0,1-2.444,7.189l.949.4a34.255,34.255,0,0,0,1.5-3.965c.351-1.183.715-2.652.91-3.679a19,19,0,0,0,2.2-.312c.26-.052.26-.052.364-.065l-.065-.9a10.719,10.719,0,0,1-2.34.442c.065-.39.1-.572.169-.988a12.29,12.29,0,0,1,.234-1.235l-1.027-.1a12.712,12.712,0,0,1-.286,2.392c-.377.026-.52.026-.78.026a8.965,8.965,0,0,1-1.625-.117Zm9.815.637c-.975-.039-1.17-.039-1.417-.039a14.728,14.728,0,0,0-3.445.429l.091.884a11.315,11.315,0,0,1,3.25-.442,13.051,13.051,0,0,1,1.534.091Zm-4.732,2.808c-.689.884-.871,1.287-.871,1.872,0,1.287,1.105,1.95,3.237,1.95a13.027,13.027,0,0,0,2.314-.221c.429-.065.429-.065.572-.091l-.091-.975a9.659,9.659,0,0,1-2.873.442c-1.482,0-2.275-.416-2.275-1.2a1.564,1.564,0,0,1,.325-.923,4.357,4.357,0,0,1,.39-.494Zm14.1-4.758a13.138,13.138,0,0,1-2.652.559V1.744a7.435,7.435,0,0,1,.065-1.209h-.962a8.635,8.635,0,0,1,.065,1.235V3.057c-.39.026-.9.039-1.248.039a7.363,7.363,0,0,1-1.326-.091v.858h.533c.143.013.494.013.689.013.377,0,.6,0,.832-.013.4-.026.4-.026.52-.039V6.281a6.954,6.954,0,0,0-1.833,1.066,2.353,2.353,0,0,0-1.027,1.729,1.568,1.568,0,0,0,.6,1.222,3.433,3.433,0,0,0,2.145.832c.637,0,.949-.338.949-1.04V6.84a8.771,8.771,0,0,1,2.756-.507c1.7,0,2.782.793,2.782,2.067a1.726,1.726,0,0,1-1.742,1.833c-.949,0-1.339-.559-1.339-1.911a3.861,3.861,0,0,1,.026-.507,2.818,2.818,0,0,1-.858.338,4.744,4.744,0,0,0,.156,1.469,1.917,1.917,0,0,0,2,1.469A2.675,2.675,0,0,0,127.075,6.1a4.4,4.4,0,0,0-2.3-.546,9.21,9.21,0,0,0-2.8.468V3.772a22.817,22.817,0,0,0,2.3-.39c.182-.039.234-.052.39-.078Zm-3.484,7.176c0,.559-.039.637-.3.637a2.428,2.428,0,0,1-1.157-.377c-.377-.247-.559-.507-.559-.78,0-.624.728-1.326,2.015-1.95Zm7.813-5.5a10.925,10.925,0,0,0-2.626-2.47l-.676.507a10.647,10.647,0,0,1,2.626,2.548Zm8.619.247h-2.223a9.155,9.155,0,0,1-1.417-.091v.962a9.927,9.927,0,0,1,1.4-.091h2.236v5.356h-1.937a9.027,9.027,0,0,1-1.391-.091v.949a9.437,9.437,0,0,1,1.4-.091h4.966a9.556,9.556,0,0,1,1.4.091V10.4a9.2,9.2,0,0,1-1.4.091H138.45V5.137h2.574a10.054,10.054,0,0,1,1.4.091V4.266a9.09,9.09,0,0,1-1.4.091H138.45V1.6a6.421,6.421,0,0,1,.078-1.2H137.5a7.959,7.959,0,0,1,.078,1.183Zm-5.213,5.993a12.934,12.934,0,0,1-.078,1.56h.988a13.533,13.533,0,0,1-.065-1.521V3.434a16.531,16.531,0,0,0,1.014-2.353c.1-.3.169-.429.26-.663l-.91-.3a9.476,9.476,0,0,1-.923,2.613,12.783,12.783,0,0,1-2.21,3.133c.039.052.078.091.091.117a1.973,1.973,0,0,0,.195.234c.078.117.13.208.234.39a9.308,9.308,0,0,0,1.43-2c-.026.78-.026,1.027-.026,1.586Zm16.627-2.925h-3.9a8.458,8.458,0,0,1-1.417-.078v.819a9.431,9.431,0,0,1,1.417-.065h3.9v.936h-3.159a7.777,7.777,0,0,1-1.248-.065v.806a8.668,8.668,0,0,1,1.274-.065h3.133v1.066c0,.286-.117.351-.585.351A11.244,11.244,0,0,1,146.8,11a2.143,2.143,0,0,1,.221.819c.728.039.962.052,1.235.052,1.261,0,1.521-.182,1.521-1.079V9.713h3.484v.533h.845a7.664,7.664,0,0,1-.078-1.3V8.1a8.842,8.842,0,0,1,1.378.065V7.347a6.607,6.607,0,0,1-1.378.078V6.879a10.289,10.289,0,0,1,.039-1.079,12.705,12.705,0,0,1-1.456.052h-2.834V5.007h3a8.108,8.108,0,0,1,1.053.052,6.153,6.153,0,0,1-.052-.871V3.616a6.342,6.342,0,0,1,.052-.884,8.325,8.325,0,0,1-1.066.052h-2.99V1.926h4A11.629,11.629,0,0,1,155.246,2V1.146a9.848,9.848,0,0,1-1.495.078h-3.978a4.239,4.239,0,0,1,.091-1.17h-.949a5.234,5.234,0,0,1,.078,1.17h-3.744a9.647,9.647,0,0,1-1.482-.078V2a11.127,11.127,0,0,1,1.456-.078h3.77v.858h-2.7a8.677,8.677,0,0,1-1.079-.052,6.468,6.468,0,0,1,.052.884v.572a6.155,6.155,0,0,1-.052.871,8.2,8.2,0,0,1,1.066-.052h2.717v.845h-3.029a7.581,7.581,0,0,1-1.248-.065v.806a8.229,8.229,0,0,1,1.222-.065h3.055Zm.78,0v-.9h3.484v.9Zm0,.676h3.484v.936h-3.484Zm-.78-4.68v.962h-2.951V3.421Zm.78,0H153v.962h-3.224Zm11,.871h.052a.6.6,0,0,1,.13.013,1.936,1.936,0,0,1,.221.013,3.409,3.409,0,0,1,.416.026c.455.026.936.039,1.469.039.494,0,.9-.013,1.482-.039.039,1.9.091,3.12.13,3.393a3.672,3.672,0,0,0-1.443-.26c-1.443,0-2.47.767-2.47,1.846,0,1.131.949,1.846,2.457,1.846a2.22,2.22,0,0,0,2.171-1.092,2.241,2.241,0,0,0,.156-.884,1.865,1.865,0,0,0-.026-.338.913.913,0,0,1,.117.078.834.834,0,0,0,.13.078,7.024,7.024,0,0,1,1.846,1.352l.4-.91c-.143-.091-.169-.117-.325-.221a9.41,9.41,0,0,0-2.171-1.274c-.1-1.729-.13-2.392-.143-3.679a12.429,12.429,0,0,0,1.378-.208c.884-.182.884-.182.91-.182l-.039-.884a8.86,8.86,0,0,1-2.249.481c-.013-.286-.013-.494-.013-.637a13.3,13.3,0,0,1,.091-2.041h-.975a2.884,2.884,0,0,1,.039.533c0,.988,0,.988.013,2.21-.533.026-.884.039-1.391.039a9,9,0,0,1-2.34-.208Zm3.913,4.238s.013.3.013.39a1.519,1.519,0,0,1-.247,1.014,1.792,1.792,0,0,1-1.326.455c-.91,0-1.508-.416-1.508-1.053s.663-1.079,1.677-1.079A3.358,3.358,0,0,1,164.684,8.53ZM158.47.8a5.988,5.988,0,0,1-.143.819,22.027,22.027,0,0,0-.676,5.343,20.7,20.7,0,0,0,.364,3.861c.052.3.065.364.078.481l.923-.091a1.416,1.416,0,0,1-.026-.26,11.226,11.226,0,0,1,1.118-3.692l-.637-.3a1.791,1.791,0,0,1-.1.26,11.539,11.539,0,0,0-.767,2.288l-.052-.013V9.245c-.013-.234-.013-.26-.013-.364-.026-.6-.052-1.365-.052-1.82a18.524,18.524,0,0,1,1-6.1ZM169.6,9.024a12.975,12.975,0,0,1,2.561,2.834l.728-.689a13.246,13.246,0,0,0-2.613-2.756Zm20.2-5.577a3,3,0,0,0-.572-1.378,3.426,3.426,0,0,0-2.873-1.2c-2.015,0-3.328,1.053-3.328,2.691a2.22,2.22,0,0,0,1.209,2.054,5.9,5.9,0,0,0,1.768.6,6.389,6.389,0,0,1,2.145.637,1.485,1.485,0,0,1,.754,1.391c0,1.209-.936,1.937-2.483,1.937a2.632,2.632,0,0,1-2.171-.9,2.025,2.025,0,0,1-.4-1.287l-1.131.143a3.35,3.35,0,0,0,.611,1.716,3.711,3.711,0,0,0,3.133,1.235c2.236,0,3.5-1.04,3.5-2.873,0-1.508-.832-2.3-2.912-2.743a9.518,9.518,0,0,1-1.859-.468,1.53,1.53,0,0,1-1.131-1.469c0-1.053.936-1.768,2.275-1.768a2.411,2.411,0,0,1,1.924.754,2.123,2.123,0,0,1,.455,1.079Zm1.924-2.4a8.141,8.141,0,0,1,.1,1.456V9.375a8.3,8.3,0,0,1-.1,1.547h1.209a8.3,8.3,0,0,1-.1-1.547V3.824c0-.338-.026-.975-.078-1.586.182.351.611,1.092.715,1.248l4.173,6.266a8.793,8.793,0,0,1,.676,1.17h1.417a7.433,7.433,0,0,1-.1-1.456V2.537a8.139,8.139,0,0,1,.1-1.495h-1.209a8.23,8.23,0,0,1,.1,1.495V8.049c0,.117.026.689.078,1.729-.312-.559-.7-1.2-.845-1.417l-4.108-6.149a6.78,6.78,0,0,1-.663-1.17Zm16.835,2.4a3,3,0,0,0-.572-1.378,3.426,3.426,0,0,0-2.873-1.2c-2.015,0-3.328,1.053-3.328,2.691a2.22,2.22,0,0,0,1.209,2.054,5.9,5.9,0,0,0,1.768.6,6.389,6.389,0,0,1,2.145.637,1.485,1.485,0,0,1,.754,1.391c0,1.209-.936,1.937-2.483,1.937a2.632,2.632,0,0,1-2.171-.9A2.025,2.025,0,0,1,202.6,8l-1.131.143a3.35,3.35,0,0,0,.611,1.716,3.711,3.711,0,0,0,3.133,1.235c2.236,0,3.5-1.04,3.5-2.873,0-1.508-.832-2.3-2.912-2.743a9.518,9.518,0,0,1-1.859-.468,1.53,1.53,0,0,1-1.131-1.469c0-1.053.936-1.768,2.275-1.768a2.411,2.411,0,0,1,1.924.754,2.123,2.123,0,0,1,.455,1.079Zm2.132-.026a43.278,43.278,0,0,1,4.485-.429,26.605,26.605,0,0,0,2.86-.286A8.51,8.51,0,0,0,216.8,3.4a4.946,4.946,0,0,0-2.431,3.991,3.148,3.148,0,0,0,1.443,2.652,6.558,6.558,0,0,0,2.808,1c.234.039.26.052.4.078l.169-1.053h-.13a6.663,6.663,0,0,1-1.95-.416,2.549,2.549,0,0,1-1.82-2.4,3.973,3.973,0,0,1,1.6-3,6.394,6.394,0,0,1,2.5-1.3,5.452,5.452,0,0,1,1.456-.182l-.078-.962a8.78,8.78,0,0,1-1.547.143l-.741.026c-.429.013-.6.026-2.2.117l-2.041.13c-1.6.091-1.677.1-2.4.156-.4.026-.559.039-.741.039-.091,0-.221,0-.468-.013Zm7.982,1.248A9.142,9.142,0,0,1,220,6.736l.663-.39a9.869,9.869,0,0,0-1.339-2.015Zm1.482-.7a10.288,10.288,0,0,1,1.326,2.041l.65-.364a10.535,10.535,0,0,0-1.339-2.028ZM2.9,18.8a13.671,13.671,0,0,1,3.2,1.716l.533-.871A19.223,19.223,0,0,0,3.406,18ZM1.872,21.9a14.434,14.434,0,0,1,3.315,1.781l.507-.871a19.831,19.831,0,0,0-3.3-1.7Zm.442,6.227a3.051,3.051,0,0,1,.507-.143c.26-.052.494-.1.7-.143a14.849,14.849,0,0,0,3.289-1.118,10.19,10.19,0,0,0,5-5.6,3.92,3.92,0,0,1-.806-.689,9.68,9.68,0,0,1-1.56,2.912,8.562,8.562,0,0,1-3.9,2.9,11.242,11.242,0,0,1-3.5.806Zm17.563-5.421h2a6.2,6.2,0,0,1,1.144.052v-.91a6.6,6.6,0,0,1-1.157.078H17.121a6.8,6.8,0,0,1-1.157-.078v.91a8.471,8.471,0,0,1,1.157-.052H18.98v4.5H16.341a5.3,5.3,0,0,1-1.17-.078v.923A9.168,9.168,0,0,1,16.354,28h6.292a9.429,9.429,0,0,1,1.183.052v-.91a6.545,6.545,0,0,1-1.17.065H19.877Zm17.459-4.3c-.234.091-.234.091-1.1.091H29.25a9.528,9.528,0,0,1-1.547-.091v1a12.552,12.552,0,0,1,1.534-.065h7.384a6.9,6.9,0,0,1-1.456,1.937,5.628,5.628,0,0,1-2.054,1.235,2.554,2.554,0,0,1,.637.741,7.781,7.781,0,0,0,3.8-3.705,2.333,2.333,0,0,1,.312-.52Zm-5.668,2.262a3.433,3.433,0,0,1,.052.7c0,2.535-.507,3.861-1.885,4.966a6.109,6.109,0,0,1-2.379,1.2,2.542,2.542,0,0,1,.6.871,7.082,7.082,0,0,0,3.328-2.249,6.963,6.963,0,0,0,1.287-4.576,4.715,4.715,0,0,1,.052-.91Zm14.521-1.326c-.884.026-1.9.052-3.146.1-2.093.078-2.093.078-2.47.078-.195,0-.286,0-.52-.013l.039.949c.871-.143,3.5-.273,6.11-.325v.676c0,.156.013.286.013.338,0,.481,0,.533.013.715a2,2,0,0,0-1.508-.585,2.163,2.163,0,0,0-2.3,2.145,2.173,2.173,0,0,0,3.77,1.352,1.821,1.821,0,0,0,.351-.637,3.367,3.367,0,0,1-1.456,2.743,6.663,6.663,0,0,1-2.106.975,2.854,2.854,0,0,1,.572.819A8.269,8.269,0,0,0,45.6,27.623a4.184,4.184,0,0,0,1.742-3.393,3.725,3.725,0,0,0-.312-1.534V20.122c1.053-.026,1.2-.026,1.391-.026a23.106,23.106,0,0,1,2.483.065v-.923c-.429.052-1.43.078-3.887.091v-.143a10.762,10.762,0,0,1,.065-1.625h-.975a4.381,4.381,0,0,1,.052.754Zm-.039,3.8a1.457,1.457,0,0,1-1.521,1.534,1.256,1.256,0,0,1-1.339-1.287,1.376,1.376,0,0,1,1.443-1.365,1.663,1.663,0,0,1,.871.208A.941.941,0,0,1,46.15,23.138Zm8.983-3.848a6.4,6.4,0,0,1,.7-.065c1.976-.065,3.536-.156,3.952-.234a.5.5,0,0,1,.117-.013L59.93,19l-.052.052-.052.052-.182.182c-.9.884-2.951,2.691-4.342,3.8a14.483,14.483,0,0,1-1.82,1.326l.585.832a8.343,8.343,0,0,1,5.473-2.223c1.755,0,2.795.741,2.795,1.989,0,1.1-.715,1.9-2.08,2.275a3.721,3.721,0,0,0-.6-1.248,2.618,2.618,0,0,0-2.145-1.066,1.689,1.689,0,0,0-1.885,1.521c0,1.2,1.053,1.872,2.886,1.872,2.886,0,4.771-1.339,4.771-3.367,0-1.664-1.391-2.73-3.562-2.73a6.587,6.587,0,0,0-3.185.806l-.026-.039a33.358,33.358,0,0,0,4.277-3.692,2.4,2.4,0,0,1,.663-.546l-.546-.715a1.329,1.329,0,0,1-.624.143c-1.17.091-2.9.169-3.978.169a6,6,0,0,1-1.222-.078ZM59.4,27.519a4.681,4.681,0,0,1-.949.091,3.322,3.322,0,0,1-1.456-.3.887.887,0,0,1-.52-.793c0-.494.4-.806,1.053-.806C58.461,25.712,59.111,26.336,59.4,27.519Zm8.658-7.943a3.053,3.053,0,0,1,.429.039,25.43,25.43,0,0,0,2.86.169,10.275,10.275,0,0,0,1.963-.169c-.13.078-.156.078-.247.13-.156.078-.182.091-.325.169a20.142,20.142,0,0,0-1.729,1.079l.663.533a18.515,18.515,0,0,1,3.276-1.976l-.065-.858a14.217,14.217,0,0,1-3.289.273,14.863,14.863,0,0,1-3.458-.312Zm.78,3.328a3.416,3.416,0,0,0-1.5,2.509,2.071,2.071,0,0,0,1.482,1.963,9.171,9.171,0,0,0,2.99.4,21.206,21.206,0,0,0,3.51-.3,3.636,3.636,0,0,1,.442-.065l-.117-1.066a12.332,12.332,0,0,1-3.9.494,8.278,8.278,0,0,1-2.379-.26c-.728-.247-1.1-.676-1.1-1.274S68.653,24.1,69.5,23.4ZM82.03,17.8a4.349,4.349,0,0,1,.221.819,26.481,26.481,0,0,0,.949,3.64,8.1,8.1,0,0,0-1.7,1.053,2.812,2.812,0,0,0-1.157,2.21,2.158,2.158,0,0,0,1.612,2.132A8.844,8.844,0,0,0,84.838,28a26.078,26.078,0,0,0,2.873-.169,6.738,6.738,0,0,1,.962-.078l-.1-1.079a12.907,12.907,0,0,1-3.718.442c-2.548,0-3.549-.455-3.549-1.638,0-1.079.962-1.937,3.185-2.821A29.9,29.9,0,0,1,88.4,21.4l-.39-.988a7.03,7.03,0,0,1-.832.338c-2.015.7-2.379.845-3.146,1.157a22.611,22.611,0,0,1-.975-4.3Zm18.434,0a9.964,9.964,0,0,1,1.339,2.067l.65-.39a9.869,9.869,0,0,0-1.339-2.015Zm-8.372,4a16.923,16.923,0,0,1,2.613-.468,19.184,19.184,0,0,1-2.782,6.474l.884.52a25.249,25.249,0,0,0,2.808-7.072,7.464,7.464,0,0,1,.936-.065c1.209,0,1.6.442,1.6,1.82a10.063,10.063,0,0,1-.546,3.614q-.254.624-.741.624a4.859,4.859,0,0,1-1.937-.6,2.4,2.4,0,0,1,.039.507,2.906,2.906,0,0,1-.026.468,4.891,4.891,0,0,0,1.963.507,1.358,1.358,0,0,0,1.274-.611,8.961,8.961,0,0,0,.871-4.472,2.624,2.624,0,0,0-.637-2.093,2.484,2.484,0,0,0-1.872-.546,7.576,7.576,0,0,0-.767.039c.1-.559.221-1.157.273-1.482a7.992,7.992,0,0,1,.247-1.248l-1.04-.117v.169a16.057,16.057,0,0,1-.39,2.756,26.667,26.667,0,0,1-2.873.338Zm9.854-4.693a9.415,9.415,0,0,1,1.326,2.041l.65-.377a10.441,10.441,0,0,0-1.339-2.015ZM99.762,20.07a10.978,10.978,0,0,1,2.652,4.667l.832-.468a11.9,11.9,0,0,0-2.717-4.6Zm5.473.351a43.279,43.279,0,0,1,4.485-.429,26.606,26.606,0,0,0,2.86-.286,8.51,8.51,0,0,0-1.235.689,4.946,4.946,0,0,0-2.431,3.991,3.148,3.148,0,0,0,1.443,2.652,6.557,6.557,0,0,0,2.808,1c.234.039.26.052.4.078l.169-1.053h-.13a6.663,6.663,0,0,1-1.95-.416,2.549,2.549,0,0,1-1.82-2.405,3.973,3.973,0,0,1,1.6-3,6.394,6.394,0,0,1,2.5-1.3,5.453,5.453,0,0,1,1.456-.182l-.078-.962a8.78,8.78,0,0,1-1.547.143l-.741.026c-.429.013-.6.026-2.2.117l-2.041.13c-1.6.091-1.677.1-2.4.156-.4.026-.559.039-.741.039-.091,0-.221,0-.468-.013Zm7.982,1.248a9.142,9.142,0,0,1,1.326,2.067l.663-.39a9.869,9.869,0,0,0-1.339-2.015Zm1.482-.7a10.287,10.287,0,0,1,1.326,2.041l.65-.364a10.535,10.535,0,0,0-1.339-2.028Zm4.316-.533a7.1,7.1,0,0,1,.806-.039,27.656,27.656,0,0,0,3.51-.234c.325.7.4.845.741,1.482a25.9,25.9,0,0,1-4.1.325,10.1,10.1,0,0,1-1.04-.039l.026.858c.234-.026.286-.026.91-.052a27.084,27.084,0,0,0,4.563-.377,11.915,11.915,0,0,0,1.391,2,7.814,7.814,0,0,0-2.626-.377c-2.47,0-3.965.845-3.965,2.249a1.816,1.816,0,0,0,.975,1.612,5.245,5.245,0,0,0,2.678.546,11.323,11.323,0,0,0,3.328-.481,7.57,7.57,0,0,1,.78-.221l-.182-1.014a8.763,8.763,0,0,1-3.848.871c-1.781,0-2.769-.468-2.769-1.326,0-.9,1.209-1.482,3.081-1.482a13.143,13.143,0,0,1,1.7.117,3.525,3.525,0,0,1,1.43.494l.767-.546a15.238,15.238,0,0,1-1.911-2.587c.481-.091,1.131-.234,2.041-.468.429-.117.481-.117.7-.169l-.1-.871a13.224,13.224,0,0,1-2.977.806c-.195-.351-.546-1.04-.741-1.469.728-.117,2.119-.416,3.276-.728l-.078-.845a16.446,16.446,0,0,1-3.471.858,10.828,10.828,0,0,1-.689-1.833l-.975.169a16.834,16.834,0,0,1,.78,1.781,25.685,25.685,0,0,1-3.081.182c-.442,0-.663-.013-.975-.039Zm22.36,6.526a4.444,4.444,0,0,1-.442-.3,11.379,11.379,0,0,0-3.627-1.9c-.052-1.261-.052-1.261-.078-1.989.962-.065,1.989-.169,2.886-.312.455-.065.585-.078.754-.091l-.052-.9a15.691,15.691,0,0,1-3.6.533c-.013-.689-.013-.689-.026-1.755a27.006,27.006,0,0,0,3.016-.312c.676-.091.676-.091.9-.1l-.065-.884a18.325,18.325,0,0,1-3.848.533,14.508,14.508,0,0,1,.091-1.833h-1a10.183,10.183,0,0,1,.065,1.872c-.429,0-.871.013-1.131.013a16.15,16.15,0,0,1-3.328-.26l-.013.884a1.062,1.062,0,0,1,.182-.013,1.577,1.577,0,0,1,.234.013c1.17.091,2.223.13,3.172.13.3,0,.507,0,.884-.013l.026,1.781c-.364.013-.819.013-1.157.013a15.955,15.955,0,0,1-2.977-.208l-.013.858h.1c.078,0,.182,0,.325.013.806.065,1.417.091,2.2.091.416,0,1.066-.013,1.534-.026.013.338.013.585.026.754.013.377.013.65.026.767a1.036,1.036,0,0,0,.013.143c0,.117,0,.117.013.156a5.782,5.782,0,0,0-1.17-.1,5.663,5.663,0,0,0-1.352.13c-1.144.26-1.82.936-1.82,1.794a1.7,1.7,0,0,0,.7,1.365,3.386,3.386,0,0,0,2.015.52,2.617,2.617,0,0,0,2.2-.819,2.258,2.258,0,0,0,.325-1.417,3.737,3.737,0,0,0-.026-.468c.351.143.65.273.871.39a10.461,10.461,0,0,1,2.652,1.859Zm-4.9-1.053a1.7,1.7,0,0,1-.26,1.17,1.878,1.878,0,0,1-1.43.429c-1.131,0-1.781-.39-1.781-1.079s.845-1.157,2.132-1.157a4.772,4.772,0,0,1,1.326.143Zm13.715-6.565c-.884.026-1.9.052-3.146.1-2.093.078-2.093.078-2.47.078-.195,0-.286,0-.52-.013l.039.949c.871-.143,3.5-.273,6.11-.325v.676c0,.156.013.286.013.338,0,.481,0,.533.013.715a2,2,0,0,0-1.508-.585,2.163,2.163,0,0,0-2.3,2.145,2.173,2.173,0,0,0,3.77,1.352,1.82,1.82,0,0,0,.351-.637,3.367,3.367,0,0,1-1.456,2.743,6.663,6.663,0,0,1-2.106.975,2.854,2.854,0,0,1,.572.819,8.269,8.269,0,0,0,2.054-1.053,4.184,4.184,0,0,0,1.742-3.393,3.725,3.725,0,0,0-.312-1.534V20.122c1.053-.026,1.2-.026,1.391-.026a23.106,23.106,0,0,1,2.483.065v-.923c-.429.052-1.43.078-3.887.091v-.143a10.762,10.762,0,0,1,.065-1.625h-.975a4.381,4.381,0,0,1,.052.754Zm-.039,3.8a1.457,1.457,0,0,1-1.521,1.534,1.256,1.256,0,0,1-1.339-1.287,1.376,1.376,0,0,1,1.443-1.365,1.663,1.663,0,0,1,.871.208A.941.941,0,0,1,150.15,23.138Zm7.215,1.807a1.95,1.95,0,1,0,1.95,1.95A1.947,1.947,0,0,0,157.365,24.945Zm0,.741a1.209,1.209,0,1,1-1.209,1.209A1.215,1.215,0,0,1,157.365,25.686Zm16.562-3.77H172.12a6.61,6.61,0,0,1-1.2-.065v.832a7.779,7.779,0,0,1,1.183-.065h4.5a7.6,7.6,0,0,1,1.17.065v-.832a6.533,6.533,0,0,1-1.183.065h-1.885V20.538h1.456a8.125,8.125,0,0,1,1.092.052V19.8a7.256,7.256,0,0,1-1.092.065h-1.456a5.238,5.238,0,0,1,.065-1.027h-.91a5,5,0,0,1,.065,1.027h-1.4a7.473,7.473,0,0,1-1.131-.065v.793a8.309,8.309,0,0,1,1.118-.052h1.417Zm-3.51-3.484h7.891v9.126c0,.338-.078.377-.7.377a17.087,17.087,0,0,1-1.911-.156,4.048,4.048,0,0,1,.208.871c.65.039,1.17.065,1.547.065,1.391,0,1.677-.169,1.677-1.014V18.913a11.865,11.865,0,0,1,.052-1.274,9.908,9.908,0,0,1-1.261.052h-7.137a9.936,9.936,0,0,1-1.248-.052A21.915,21.915,0,0,1,169.6,19.9a29.132,29.132,0,0,1-.455,6.331,4.975,4.975,0,0,1-1,2.093,2.733,2.733,0,0,1,.715.6,6.231,6.231,0,0,0,1.04-2.184,25.558,25.558,0,0,0,.52-6.643Zm6.305,5.941a7.01,7.01,0,0,1,.039-.858,7.042,7.042,0,0,1-1,.039h-3.042c-.442,0-.637-.013-.962-.039a6.915,6.915,0,0,1,.039.845v2.2a6.722,6.722,0,0,1-.052.988h.858v-.793h3.172a8.046,8.046,0,0,1,.988.039,6.77,6.77,0,0,1-.039-.845Zm-4.134-.143h3.341v1.833h-3.341Zm11.57-6.76a2.607,2.607,0,0,1-.039.416,32.859,32.859,0,0,0-.442,4.8v.3l.026,1.352.013.234v.143l.936-.039c-.013-.2-.013-.26-.013-.312a6.785,6.785,0,0,1,.7-2.9c.741-1.521,1.573-2.262,2.561-2.262,1.248,0,1.976,1.209,1.976,3.3a4.477,4.477,0,0,1-2.236,4.316,6.869,6.869,0,0,1-2.639.819,2.683,2.683,0,0,1,.52.884,9.84,9.84,0,0,0,2.314-.767,5.364,5.364,0,0,0,3-5.109,5.34,5.34,0,0,0-.78-3.159,2.447,2.447,0,0,0-2.08-1.157,3.1,3.1,0,0,0-2.6,1.677,5.8,5.8,0,0,0-.793,1.937c-.065.273-.065.273-.091.377l-.052-.013c.039-.663.221-2.08.429-3.393a7.368,7.368,0,0,1,.3-1.339Zm12.064.39a7.238,7.238,0,0,1-.182,1.04,21.506,21.506,0,0,0-.585,5.148,18.632,18.632,0,0,0,.338,3.679c.039.247.052.312.078.52l.936-.078v-.195A11.332,11.332,0,0,1,197.86,24.4l-.624-.3a12.078,12.078,0,0,0-.845,2.535c-.052-.689-.078-1.456-.078-2.47a19.217,19.217,0,0,1,.39-4.069,18.473,18.473,0,0,1,.546-2.08Zm2.678,2.457a17.315,17.315,0,0,0,2.08.13,21.946,21.946,0,0,0,2.795-.169q.858-.117.9-.117l-.065-.923a13.949,13.949,0,0,1-3.484.351,8.83,8.83,0,0,1-2.21-.195Zm.949,2.535a3.591,3.591,0,0,0-1.131,2.418,1.837,1.837,0,0,0,.39,1.2,3.613,3.613,0,0,0,2.977.988,13.412,13.412,0,0,0,2.665-.26c.26-.039.286-.052.455-.065l-.13-1a8.556,8.556,0,0,1-2.99.455c-1.677,0-2.5-.468-2.5-1.43a3.02,3.02,0,0,1,.975-1.911Zm10.842-4.979a5.622,5.622,0,0,1,.221.832,26.253,26.253,0,0,0,.949,3.627,8.081,8.081,0,0,0-1.7,1.066A2.812,2.812,0,0,0,209,25.608a2.158,2.158,0,0,0,1.612,2.132,8.844,8.844,0,0,0,2.886.351,26.079,26.079,0,0,0,2.873-.169l.442-.052.13-.013a3.416,3.416,0,0,1,.39-.013l-.1-1.079a12.907,12.907,0,0,1-3.718.442c-2.548,0-3.549-.468-3.549-1.638,0-1.079.962-1.937,3.185-2.834a34.424,34.424,0,0,1,3.913-1.261l-.39-.988a5.882,5.882,0,0,1-.832.351c-2,.689-2.431.858-3.146,1.157a23.688,23.688,0,0,1-.975-4.3Zm4.771-.039a10.137,10.137,0,0,1,1.326,2.067l.663-.39a10.436,10.436,0,0,0-1.339-2.015Zm1.482-.7a10.9,10.9,0,0,1,1.326,2.041l.65-.364a10.4,10.4,0,0,0-1.352-2.028ZM4.927,34.587c-.078.39-.364,1.209-1.781,4.966-1.872,4.992-1.872,4.992-2.041,5.356l1,.312a13.306,13.306,0,0,1,1.2-2.99C4.03,41,4.875,40.307,5.629,40.307a.7.7,0,0,1,.741.481,2.8,2.8,0,0,1,.1.988v.741a5.359,5.359,0,0,0,.117,1.4,1.829,1.829,0,0,0,1.9,1.17,3.027,3.027,0,0,0,2.587-1.417A7.022,7.022,0,0,0,12,41.386a3.71,3.71,0,0,1-.858-.663,5.693,5.693,0,0,1-.494,1.846,2.249,2.249,0,0,1-2.08,1.625,1.211,1.211,0,0,1-.988-.4,2.21,2.21,0,0,1-.208-1.235v-.884A3.279,3.279,0,0,0,7.15,40.2a1.443,1.443,0,0,0-1.3-.767c-.923,0-1.586.468-2.444,1.7l-.065-.026a1.956,1.956,0,0,1,.117-.234l.143-.286a22.036,22.036,0,0,0,.936-2.145c1.274-3.263,1.274-3.263,1.443-3.575Zm12.064.286a5.623,5.623,0,0,1,.221.832,26.253,26.253,0,0,0,.949,3.627,8.08,8.08,0,0,0-1.7,1.066,2.812,2.812,0,0,0-1.157,2.21,2.158,2.158,0,0,0,1.612,2.132,8.844,8.844,0,0,0,2.886.351,26.079,26.079,0,0,0,2.873-.169l.442-.052.13-.013a3.417,3.417,0,0,1,.39-.013l-.1-1.079a12.907,12.907,0,0,1-3.718.442c-2.548,0-3.549-.468-3.549-1.638,0-1.079.962-1.937,3.185-2.834a34.424,34.424,0,0,1,3.913-1.261l-.39-.988a5.882,5.882,0,0,1-.832.351c-2,.689-2.431.858-3.146,1.157a23.688,23.688,0,0,1-.975-4.3Zm4.771-.039A10.138,10.138,0,0,1,23.088,36.9l.663-.39A10.435,10.435,0,0,0,22.412,34.5Zm1.482-.7a10.9,10.9,0,0,1,1.326,2.041l.65-.364a10.4,10.4,0,0,0-1.352-2.028Zm7.683.455c-.078.39-.364,1.209-1.781,4.966-1.872,4.992-1.872,4.992-2.041,5.356l1,.312a13.306,13.306,0,0,1,1.2-2.99c.728-1.235,1.573-1.924,2.327-1.924a.7.7,0,0,1,.741.481,2.8,2.8,0,0,1,.1.988v.741a5.359,5.359,0,0,0,.117,1.4,1.829,1.829,0,0,0,1.9,1.17,3.027,3.027,0,0,0,2.587-1.417A7.022,7.022,0,0,0,38,41.386a3.71,3.71,0,0,1-.858-.663,5.693,5.693,0,0,1-.494,1.846,2.249,2.249,0,0,1-2.08,1.625,1.211,1.211,0,0,1-.988-.4,2.21,2.21,0,0,1-.208-1.235v-.884A3.279,3.279,0,0,0,33.15,40.2a1.443,1.443,0,0,0-1.3-.767c-.923,0-1.586.468-2.444,1.7l-.065-.026a1.955,1.955,0,0,1,.117-.234l.143-.286a22.037,22.037,0,0,0,.936-2.145c1.274-3.263,1.274-3.263,1.443-3.575Zm10.842,10.8a3.479,3.479,0,0,1,.559-.065,55.025,55.025,0,0,0,7.306-.936,15.72,15.72,0,0,1,.754,1.547l.767-.507a26.529,26.529,0,0,0-3.25-4.966l-.715.429a22.061,22.061,0,0,1,2.041,2.821c-.884.169-1.4.247-2.522.377-.442.052-1.352.143-2.756.273a38.177,38.177,0,0,0,2.3-6.019c.117-.39.169-.546.26-.793l-1.027-.26a27.6,27.6,0,0,1-2.47,7.124c-.312.026-.793.039-1.027.039a2.168,2.168,0,0,1-.416-.026Zm3.7-9.529H42.159a9.862,9.862,0,0,1-1.3-.065,15.915,15.915,0,0,1,.052,1.625,25.292,25.292,0,0,1-.429,5.421,7.754,7.754,0,0,1-1,2.366,3.2,3.2,0,0,1,.715.624,9.1,9.1,0,0,0,1.157-3.055,32.711,32.711,0,0,0,.416-6.149h8.073a8.815,8.815,0,0,1,1.4.065v-.91a9.044,9.044,0,0,1-1.4.078H46.319v-.754a3.108,3.108,0,0,1,.078-.845h-1a3.175,3.175,0,0,1,.078.832Zm9.412-.468a3.033,3.033,0,0,1,.169.689c.117.65.273,1.417.364,1.833a5,5,0,0,0-1.3,1.326,4.668,4.668,0,0,0-.754,2.483c0,1.534.741,2.548,1.872,2.548a3.174,3.174,0,0,0,2.314-1.482,14.708,14.708,0,0,0,2.522-5.1c1.794.377,2.743,1.417,2.743,3a3.2,3.2,0,0,1-.572,1.846,4.23,4.23,0,0,1-1.95,1.417,5.891,5.891,0,0,1-1.937.481,2.148,2.148,0,0,1,.507.871c.559-.13.624-.143.819-.195a6.9,6.9,0,0,0,2.626-1.287,4.087,4.087,0,0,0,1.417-3.12,3.789,3.789,0,0,0-3.445-3.783c.065-.247.091-.39.156-.611a10.261,10.261,0,0,1,.351-1.365l-.975-.208a14.6,14.6,0,0,1-.4,2.093c-.182-.013-.338-.013-.429-.013a6.194,6.194,0,0,0-2.782.65,16.854,16.854,0,0,1-.351-2.262Zm.754,3.393a17.971,17.971,0,0,0,1.222,3.5c-.585.715-1.144,1.1-1.6,1.1-.637,0-1.053-.676-1.053-1.7a3.876,3.876,0,0,1,.52-1.82A3.835,3.835,0,0,1,55.64,38.786Zm1.807,2.782a2.094,2.094,0,0,0-.1-.3,18.429,18.429,0,0,1-.975-3.016,4.858,4.858,0,0,1,2.509-.663c.065,0,.182.013.325.013a14.845,14.845,0,0,1-1.586,3.679,2.128,2.128,0,0,0-.156.286Zm8.5-4.121a38.186,38.186,0,0,1,4.485-.429,25.192,25.192,0,0,0,2.86-.286,8.51,8.51,0,0,0-1.235.689,4.928,4.928,0,0,0-2.431,3.991,3.164,3.164,0,0,0,1.443,2.652,6.557,6.557,0,0,0,2.808,1c.208.039.26.052.4.078l.169-1.053h-.13a6.663,6.663,0,0,1-1.95-.416,2.549,2.549,0,0,1-1.82-2.4,3.973,3.973,0,0,1,1.6-3,6.6,6.6,0,0,1,2.5-1.313,6.029,6.029,0,0,1,1.456-.169l-.078-.975a8.726,8.726,0,0,1-1.547.143c-1.677.078-5.837.312-7.384.429-.4.026-.559.039-.741.039h-.468Zm13.429-1.664a7.033,7.033,0,0,1,.039.767c.065,3.2.247,4.862.7,6.1s1.118,1.976,1.846,1.976c.923,0,1.521-.871,2.158-3.146a4.156,4.156,0,0,1-.767-.741,9.353,9.353,0,0,1-.676,2.223c-.195.429-.416.65-.65.65-.494,0-1.027-.9-1.313-2.223a22.262,22.262,0,0,1-.338-4.043A9.423,9.423,0,0,1,80.47,35.8Zm6.578,1.1a11.481,11.481,0,0,1,2.7,6.409l.923-.377a12.448,12.448,0,0,0-.975-3.471,11.284,11.284,0,0,0-1.859-2.964Zm6.669.546a7.1,7.1,0,0,1,.806-.039,27.656,27.656,0,0,0,3.51-.234c.325.7.4.845.741,1.482a25.9,25.9,0,0,1-4.1.325,10.1,10.1,0,0,1-1.04-.039l.026.858c.234-.026.286-.026.91-.052a27.084,27.084,0,0,0,4.563-.377,11.915,11.915,0,0,0,1.391,2,7.814,7.814,0,0,0-2.626-.377c-2.47,0-3.965.845-3.965,2.249a1.816,1.816,0,0,0,.975,1.612,5.246,5.246,0,0,0,2.678.546,11.323,11.323,0,0,0,3.328-.481,7.571,7.571,0,0,1,.78-.221l-.182-1.014a8.763,8.763,0,0,1-3.848.871c-1.781,0-2.769-.468-2.769-1.326,0-.9,1.209-1.482,3.081-1.482a13.143,13.143,0,0,1,1.7.117,3.525,3.525,0,0,1,1.43.494l.767-.546a15.238,15.238,0,0,1-1.911-2.587c.481-.091,1.131-.234,2.041-.468.429-.117.481-.117.7-.169l-.1-.871a13.224,13.224,0,0,1-2.977.806c-.195-.351-.546-1.04-.741-1.469.728-.117,2.119-.416,3.276-.728L101,35.471a16.446,16.446,0,0,1-3.471.858,10.828,10.828,0,0,1-.689-1.833l-.975.169a16.834,16.834,0,0,1,.78,1.781,25.685,25.685,0,0,1-3.081.182c-.442,0-.663-.013-.975-.039Zm22.36,6.526a4.444,4.444,0,0,1-.442-.3,11.379,11.379,0,0,0-3.627-1.9c-.052-1.261-.052-1.261-.078-1.989.962-.065,1.989-.169,2.886-.312.455-.065.585-.078.754-.091l-.052-.9a15.691,15.691,0,0,1-3.6.533c-.013-.689-.013-.689-.026-1.755a27.005,27.005,0,0,0,3.016-.312c.676-.091.676-.091.9-.1l-.065-.884a18.326,18.326,0,0,1-3.848.533,14.509,14.509,0,0,1,.091-1.833h-1a10.179,10.179,0,0,1,.065,1.872c-.429,0-.871.013-1.131.013a16.15,16.15,0,0,1-3.328-.26l-.013.884a1.062,1.062,0,0,1,.182-.013,1.577,1.577,0,0,1,.234.013c1.17.091,2.223.13,3.172.13.3,0,.507,0,.884-.013l.026,1.781c-.364.013-.819.013-1.157.013a15.955,15.955,0,0,1-2.977-.208l-.013.858h.1c.078,0,.182,0,.325.013.806.065,1.417.091,2.2.091.416,0,1.066-.013,1.534-.026.013.338.013.585.026.754.013.377.013.65.026.767a1.036,1.036,0,0,0,.013.143c0,.117,0,.117.013.156a5.782,5.782,0,0,0-1.17-.1,5.663,5.663,0,0,0-1.352.13c-1.144.26-1.82.936-1.82,1.794a1.7,1.7,0,0,0,.7,1.365,3.386,3.386,0,0,0,2.015.52,2.617,2.617,0,0,0,2.2-.819,2.257,2.257,0,0,0,.325-1.417,3.737,3.737,0,0,0-.026-.468c.351.143.65.273.871.39a10.461,10.461,0,0,1,2.652,1.859Zm-4.9-1.053a1.7,1.7,0,0,1-.26,1.17,1.878,1.878,0,0,1-1.43.429c-1.131,0-1.781-.39-1.781-1.079s.845-1.157,2.132-1.157a4.772,4.772,0,0,1,1.326.143Zm9.542-8.047a4,4,0,0,1,.052.689c0,.208,0,.455-.013.845-.1,4.095-.117,4.42-.117,5.291a3.621,3.621,0,0,0,.715,2.665,3.083,3.083,0,0,0,2.444.91,4.552,4.552,0,0,0,3.666-1.625,7.908,7.908,0,0,0,1.443-2.951,3.677,3.677,0,0,1-.936-.624,7.723,7.723,0,0,1-.637,2.041,3.733,3.733,0,0,1-3.484,2.262,2.454,2.454,0,0,1-1.625-.507,2.046,2.046,0,0,1-.611-1.56c-.013-.3-.026-.624-.026-.78,0-.585.039-2.353.091-3.913a20.043,20.043,0,0,1,.169-2.743Zm15.912,1.885a2.276,2.276,0,0,1,.052.416l.013,1.417c.013,1.3.026,1.69.078,2.574.052,1.079.052,1.079.065,1.131a.583.583,0,0,0,.013.156,3.374,3.374,0,0,0-.975-.13,4.324,4.324,0,0,0-1.56.286,1.518,1.518,0,0,0-.988,1.4,1.413,1.413,0,0,0,.481,1.066,2.566,2.566,0,0,0,1.729.494A2.246,2.246,0,0,0,136.3,44.9a2.011,2.011,0,0,0,.3-1.053,4.372,4.372,0,0,0-.026-.468,1.487,1.487,0,0,0,.208.1,8.157,8.157,0,0,1,2.509,1.7l.507-.806a2.521,2.521,0,0,1-.312-.195c-.793-.559-.91-.637-1.248-.845a9.523,9.523,0,0,0-1.677-.754c-.078-1.131-.1-1.833-.13-2.678a17.441,17.441,0,0,0,2.392-.195c.559-.078.559-.078.7-.091l-.091-.832a10.646,10.646,0,0,1-3.029.39c-.013-.572-.013-.871-.013-.91a7.1,7.1,0,0,1,.078-1.508Zm.234,6.409a3.283,3.283,0,0,1,.039.507,1.3,1.3,0,0,1-.169.754,1.5,1.5,0,0,1-1.235.39c-.871,0-1.339-.286-1.339-.819,0-.6.611-.962,1.638-.962A4.5,4.5,0,0,1,135.772,43.154Zm10.439-7.514a23.666,23.666,0,0,0,5.46.858l.143-.936a16.4,16.4,0,0,1-5.291-.806Zm-1.352,4.225a18.154,18.154,0,0,1,4.953-.871,3.621,3.621,0,0,1,1.6.286,1.577,1.577,0,0,1,.832,1.456,2.91,2.91,0,0,1-.663,1.768,3.183,3.183,0,0,1-1.118.923,8.253,8.253,0,0,1-3.653,1.053,3.3,3.3,0,0,1,.416.949,9.984,9.984,0,0,0,3.77-1.235,4.142,4.142,0,0,0,2.236-3.51,2.312,2.312,0,0,0-1.1-2.067,4.134,4.134,0,0,0-2.236-.494,21.721,21.721,0,0,0-3.965.468,10.23,10.23,0,0,1-1.313.221Zm13.416,2.08a1.95,1.95,0,1,0,1.95,1.95A1.947,1.947,0,0,0,158.275,41.945Zm0,.741a1.209,1.209,0,1,1-1.209,1.209A1.215,1.215,0,0,1,158.275,42.686Zm13.234-6.89a13.671,13.671,0,0,1,3.2,1.716l.533-.871A19.223,19.223,0,0,0,172.016,35ZM170.482,38.9a14.434,14.434,0,0,1,3.315,1.781l.507-.871a19.83,19.83,0,0,0-3.3-1.7Zm.442,6.227a3.052,3.052,0,0,1,.507-.143c.26-.052.494-.1.7-.143a14.849,14.849,0,0,0,3.289-1.118,10.19,10.19,0,0,0,5.005-5.6,3.92,3.92,0,0,1-.806-.689,9.68,9.68,0,0,1-1.56,2.912,8.562,8.562,0,0,1-3.9,2.9,11.242,11.242,0,0,1-3.5.806Zm17.563-5.421h2a6.2,6.2,0,0,1,1.144.052v-.91a6.6,6.6,0,0,1-1.157.078h-4.745a6.8,6.8,0,0,1-1.157-.078v.91a8.471,8.471,0,0,1,1.157-.052h1.859v4.5h-2.639a5.3,5.3,0,0,1-1.17-.078v.923A9.168,9.168,0,0,1,184.964,45h6.292a9.429,9.429,0,0,1,1.183.052v-.91a6.545,6.545,0,0,1-1.17.065h-2.782Zm17.459-4.3c-.234.091-.234.091-1.1.091H197.86a9.528,9.528,0,0,1-1.547-.091v1a12.553,12.553,0,0,1,1.534-.065h7.384a6.9,6.9,0,0,1-1.456,1.937,5.628,5.628,0,0,1-2.054,1.235,2.554,2.554,0,0,1,.637.741,7.781,7.781,0,0,0,3.8-3.705,2.333,2.333,0,0,1,.312-.52Zm-5.668,2.262a3.433,3.433,0,0,1,.052.7c0,2.535-.507,3.861-1.885,4.966a6.109,6.109,0,0,1-2.379,1.2,2.542,2.542,0,0,1,.6.871,7.082,7.082,0,0,0,3.328-2.249,6.963,6.963,0,0,0,1.287-4.576,4.717,4.717,0,0,1,.052-.91ZM214.8,36.342c-.884.026-1.9.052-3.146.1-2.093.078-2.093.078-2.47.078-.195,0-.286,0-.52-.013l.039.949c.871-.143,3.5-.273,6.11-.325v.676c0,.156.013.286.013.338,0,.481,0,.533.013.715a2,2,0,0,0-1.508-.585,2.163,2.163,0,0,0-2.3,2.145,2.173,2.173,0,0,0,3.77,1.352,1.82,1.82,0,0,0,.351-.637,3.367,3.367,0,0,1-1.456,2.743,6.663,6.663,0,0,1-2.106.975,2.854,2.854,0,0,1,.572.819,8.269,8.269,0,0,0,2.054-1.053,4.184,4.184,0,0,0,1.742-3.393,3.725,3.725,0,0,0-.312-1.534V37.122c1.053-.026,1.2-.026,1.391-.026a23.106,23.106,0,0,1,2.483.065v-.923c-.429.052-1.43.078-3.887.091v-.143a10.761,10.761,0,0,1,.065-1.625h-.975a4.382,4.382,0,0,1,.052.754Zm-.039,3.8a1.457,1.457,0,0,1-1.521,1.534,1.256,1.256,0,0,1-1.339-1.287,1.376,1.376,0,0,1,1.443-1.365,1.663,1.663,0,0,1,.871.208A.941.941,0,0,1,214.76,40.138ZM3.133,53.29a6.4,6.4,0,0,1,.7-.065c1.976-.065,3.536-.156,3.952-.234a.5.5,0,0,1,.117-.013L7.93,53l-.052.052-.052.052-.182.182c-.9.884-2.951,2.691-4.342,3.8a14.483,14.483,0,0,1-1.82,1.326l.585.832A8.343,8.343,0,0,1,7.54,57.021c1.755,0,2.8.741,2.8,1.989,0,1.105-.715,1.9-2.08,2.275a3.721,3.721,0,0,0-.6-1.248,2.618,2.618,0,0,0-2.145-1.066,1.689,1.689,0,0,0-1.885,1.521c0,1.2,1.053,1.872,2.886,1.872,2.886,0,4.771-1.339,4.771-3.367,0-1.664-1.391-2.73-3.562-2.73a6.587,6.587,0,0,0-3.185.806l-.026-.039a33.357,33.357,0,0,0,4.277-3.692,2.4,2.4,0,0,1,.663-.546L8.9,52.081a1.329,1.329,0,0,1-.624.143c-1.17.091-2.9.169-3.978.169a6,6,0,0,1-1.222-.078ZM7.4,61.519a4.681,4.681,0,0,1-.949.091,3.322,3.322,0,0,1-1.456-.3.887.887,0,0,1-.52-.793c0-.494.4-.806,1.053-.806C6.461,59.712,7.111,60.336,7.4,61.519Zm8.658-7.943a3.053,3.053,0,0,1,.429.039,25.429,25.429,0,0,0,2.86.169,10.275,10.275,0,0,0,1.963-.169c-.13.078-.156.078-.247.13-.156.078-.182.091-.325.169a20.141,20.141,0,0,0-1.729,1.079l.663.533a18.515,18.515,0,0,1,3.276-1.976l-.065-.858a14.217,14.217,0,0,1-3.289.273,14.863,14.863,0,0,1-3.458-.312Zm.78,3.328a3.416,3.416,0,0,0-1.495,2.509,2.071,2.071,0,0,0,1.482,1.963,9.171,9.171,0,0,0,2.99.4,21.206,21.206,0,0,0,3.51-.3,3.636,3.636,0,0,1,.442-.065l-.117-1.066a12.332,12.332,0,0,1-3.9.494,8.278,8.278,0,0,1-2.379-.26c-.728-.247-1.1-.676-1.1-1.274S16.653,58.1,17.5,57.4Zm13.2-5.109a4.349,4.349,0,0,1,.221.819,26.482,26.482,0,0,0,.949,3.64,8.1,8.1,0,0,0-1.7,1.053,2.812,2.812,0,0,0-1.157,2.21,2.158,2.158,0,0,0,1.612,2.132A8.844,8.844,0,0,0,32.838,62a26.079,26.079,0,0,0,2.873-.169,6.738,6.738,0,0,1,.962-.078l-.1-1.079a12.907,12.907,0,0,1-3.718.442c-2.548,0-3.549-.455-3.549-1.638,0-1.079.962-1.937,3.185-2.821A29.9,29.9,0,0,1,36.4,55.4l-.39-.988a7.03,7.03,0,0,1-.832.338c-2.015.7-2.379.845-3.146,1.157a22.611,22.611,0,0,1-.975-4.3Zm10.2,2.626a43.278,43.278,0,0,1,4.485-.429,26.606,26.606,0,0,0,2.86-.286,8.51,8.51,0,0,0-1.235.689,4.946,4.946,0,0,0-2.431,3.991,3.148,3.148,0,0,0,1.443,2.652,6.557,6.557,0,0,0,2.808,1c.234.039.26.052.4.078l.169-1.053h-.13a6.663,6.663,0,0,1-1.95-.416,2.549,2.549,0,0,1-1.82-2.4,3.973,3.973,0,0,1,1.6-3,6.394,6.394,0,0,1,2.5-1.3,5.453,5.453,0,0,1,1.456-.182L50.31,52.8a8.78,8.78,0,0,1-1.547.143l-.741.026c-.429.013-.6.026-2.2.117l-2.041.13c-1.6.091-1.677.1-2.4.156-.4.026-.559.039-.741.039-.091,0-.221,0-.468-.013Zm7.982,1.248a9.142,9.142,0,0,1,1.326,2.067l.663-.39a9.869,9.869,0,0,0-1.339-2.015Zm1.482-.7a10.288,10.288,0,0,1,1.326,2.041l.65-.364a10.535,10.535,0,0,0-1.339-2.028ZM57.941,53.9H54.769a8.357,8.357,0,0,1-1.508-.078v.988a10.106,10.106,0,0,1,1.495-.065h3.185v6.487a7.234,7.234,0,0,1-.078,1.365h1.066a7.849,7.849,0,0,1-.065-1.378V54.746h3.3a10.106,10.106,0,0,1,1.495.065v-.988a8.526,8.526,0,0,1-1.521.078H58.864v-.845a7.49,7.49,0,0,1,.065-1.352H57.863a5.806,5.806,0,0,1,.078,1.326Zm-2.808,2.041a6.638,6.638,0,0,1-.455,1.768,8.294,8.294,0,0,1-1.911,3.2,2.882,2.882,0,0,1,.858.559A11.61,11.61,0,0,0,55.9,56.982l.065-.286.078-.26a1.556,1.556,0,0,1,.078-.221Zm5.551.26c.091.208.208.494.325.845a15.592,15.592,0,0,0,2.262,4.472,2.809,2.809,0,0,1,.819-.611,11.551,11.551,0,0,1-2.015-3.484,9.282,9.282,0,0,1-.481-1.469Zm2.34-5.564a1.476,1.476,0,1,0,1.469,1.469A1.459,1.459,0,0,0,63.024,50.638Zm0,.546a.93.93,0,1,1-.936.923A.927.927,0,0,1,63.024,51.184Zm11.765.494a10.912,10.912,0,0,1-2.483,2.457A18.3,18.3,0,0,1,65.559,57.5a3.01,3.01,0,0,1,.507.871A20.322,20.322,0,0,0,71.084,56.1v4.94a6.776,6.776,0,0,1-.078,1.352h1.131a8.636,8.636,0,0,1-.065-1.378V55.474a22.9,22.9,0,0,0,3.042-2.613,2.943,2.943,0,0,1,.572-.546Zm4.849,1.833a14.355,14.355,0,0,1,3.094,2.548l.676-.806a16.936,16.936,0,0,0-3.133-2.444Zm.091,8.45a6.83,6.83,0,0,1,.78-.208,13.107,13.107,0,0,0,4.849-1.937,11.4,11.4,0,0,0,3.965-4.966,2.6,2.6,0,0,1-.793-.767,9.823,9.823,0,0,1-5.3,5.785,11.315,11.315,0,0,1-3.783,1Zm15.847.442a8.841,8.841,0,0,1-.065-1.378V57.112a4.54,4.54,0,0,0-.052-.767l.026-.013a1.435,1.435,0,0,0,.4.221,26.505,26.505,0,0,1,4.849,2.574l.559-.962a32.241,32.241,0,0,0-5.785-2.743V52.991a8.16,8.16,0,0,1,.065-1.352H94.458a7.708,7.708,0,0,1,.078,1.326v8.073a8.361,8.361,0,0,1-.078,1.365Zm9.659-4.758a1.355,1.355,0,0,1,.4.078,13.7,13.7,0,0,0,1.963.325c-.013.117-.013.117-.026.312a6.875,6.875,0,0,0-.052.858,3.525,3.525,0,0,0,.4,1.794,3.234,3.234,0,0,0,2.912,1.3c2.275,0,3.809-1.235,3.809-3.068a3.47,3.47,0,0,0-1.222-2.587,2.573,2.573,0,0,1-.949.26,2.964,2.964,0,0,1,1.235,2.262c0,1.378-1.131,2.275-2.873,2.275A2.733,2.733,0,0,1,109,60.9a1.919,1.919,0,0,1-.6-1.56c0-.221.026-.65.052-.962a2.36,2.36,0,0,0,.013-.26c.585.026.793.026,1.118.026a15,15,0,0,0,1.833-.1c.182-.013.221-.013.351-.026l.026-.871a11.367,11.367,0,0,1-2.392.208c-.182,0-.364,0-.858-.013.078-.728.091-.858.3-2.353.715.026.936.026,1.144.026.377,0,.767-.013,1.17-.052.65-.052.65-.052.91-.078l.039-.9a10.549,10.549,0,0,1-2.379.221c-.208,0-.39,0-.754-.013.065-.364.091-.494.13-.78.117-.715.117-.715.13-.832a6.688,6.688,0,0,1,.208-.871l-1.04-.117v.1a20.457,20.457,0,0,1-.312,2.444,8.39,8.39,0,0,1-2.34-.507l-.117.858c.182.039.234.052.4.091a17.275,17.275,0,0,0,1.937.351c-.1.689-.234,1.7-.3,2.34a8.645,8.645,0,0,1-2.327-.52Zm19.708-4.628h-1.391a10.138,10.138,0,0,1-1.352-.052,6.485,6.485,0,0,1,.052.91v.819a5.769,5.769,0,0,1-.052.884h.819V53.745h4.927v1.794h.819a6.026,6.026,0,0,1-.052-.91v-.715a7.538,7.538,0,0,1,.052-.962c-.416.039-.858.065-1.326.065h-1.677v-.871a3.354,3.354,0,0,1,.078-.832h-.975a3.461,3.461,0,0,1,.078.845ZM125.1,56.9v4.771c0,.273-.1.325-.611.325a9.983,9.983,0,0,1-1.391-.117,3.36,3.36,0,0,1,.169.845c.468.039.91.052,1.222.052,1.2,0,1.443-.182,1.443-1.027V56.9h1.781a6.7,6.7,0,0,1,1.118.065V56.1a6.423,6.423,0,0,1-1.118.065h-4.329a6.589,6.589,0,0,1-1.131-.065v.871a6.776,6.776,0,0,1,1.131-.065Zm-4.6,2.743c.481,0,.832.013,1.118.039-.026-.286-.039-.637-.039-1.2V52.848c0-.559.013-.936.039-1.209-.286.026-.663.039-1.144.039h-1.443a4.982,4.982,0,0,1-.793-.013,2.669,2.669,0,0,0-.351-.026c.039.416.052.845.052,1.235v5.59c0,.507-.013.936-.039,1.222.273-.026.624-.039,1.079-.039ZM118.7,52.393h2.119V54.07H118.7Zm0,2.353h2.119v1.742H118.7Zm0,2.431h2.119v1.768H118.7Zm.026,2.925a5.734,5.734,0,0,1-1.482,2.4,2.746,2.746,0,0,1,.689.494,8.1,8.1,0,0,0,1.5-2.548Zm1.43.3a13.8,13.8,0,0,0,1.326,2.288,3.3,3.3,0,0,1,.637-.533,9.049,9.049,0,0,1-1.313-2.119Zm20.826.559a4.444,4.444,0,0,1-.442-.3,11.379,11.379,0,0,0-3.627-1.9c-.052-1.261-.052-1.261-.078-1.989.962-.065,1.989-.169,2.886-.312.455-.065.585-.078.754-.091l-.052-.9a15.691,15.691,0,0,1-3.6.533c-.013-.689-.013-.689-.026-1.755a27.005,27.005,0,0,0,3.016-.312c.676-.091.676-.091.9-.1l-.065-.884a18.325,18.325,0,0,1-3.848.533,14.508,14.508,0,0,1,.091-1.833h-1a10.183,10.183,0,0,1,.065,1.872c-.429,0-.871.013-1.131.013a16.15,16.15,0,0,1-3.328-.26l-.013.884a1.062,1.062,0,0,1,.182-.013,1.577,1.577,0,0,1,.234.013c1.17.091,2.223.13,3.172.13.3,0,.507,0,.884-.013l.026,1.781c-.364.013-.819.013-1.157.013a15.955,15.955,0,0,1-2.977-.208l-.013.858h.1c.078,0,.182,0,.325.013.806.065,1.417.091,2.2.091.416,0,1.066-.013,1.534-.026.013.338.013.585.026.754.013.377.013.65.026.767a1.036,1.036,0,0,0,.013.143c0,.117,0,.117.013.156a5.782,5.782,0,0,0-1.17-.1,5.663,5.663,0,0,0-1.352.13c-1.144.26-1.82.936-1.82,1.794a1.7,1.7,0,0,0,.7,1.365,3.386,3.386,0,0,0,2.015.52,2.617,2.617,0,0,0,2.2-.819,2.258,2.258,0,0,0,.325-1.417,3.737,3.737,0,0,0-.026-.468c.351.143.65.273.871.39a10.461,10.461,0,0,1,2.652,1.859Zm-4.9-1.053a1.7,1.7,0,0,1-.26,1.17,1.878,1.878,0,0,1-1.43.429c-1.131,0-1.781-.39-1.781-1.079s.845-1.157,2.132-1.157a4.772,4.772,0,0,1,1.326.143Zm9.984-8.437a2.607,2.607,0,0,1-.039.416,32.859,32.859,0,0,0-.442,4.8v.3l.026,1.352.013.234v.143l.936-.039c-.013-.195-.013-.26-.013-.312a6.785,6.785,0,0,1,.7-2.9c.741-1.521,1.573-2.262,2.561-2.262,1.248,0,1.976,1.209,1.976,3.3a4.477,4.477,0,0,1-2.236,4.316,6.869,6.869,0,0,1-2.639.819,2.683,2.683,0,0,1,.52.884,9.84,9.84,0,0,0,2.314-.767,5.364,5.364,0,0,0,3-5.109,5.34,5.34,0,0,0-.78-3.159,2.447,2.447,0,0,0-2.08-1.157,3.1,3.1,0,0,0-2.6,1.677,5.8,5.8,0,0,0-.793,1.937c-.065.273-.065.273-.091.377l-.052-.013c.039-.663.221-2.08.429-3.393a7.368,7.368,0,0,1,.3-1.339Zm20.917,9.49a4.444,4.444,0,0,1-.442-.3,11.379,11.379,0,0,0-3.627-1.9c-.052-1.261-.052-1.261-.078-1.989.962-.065,1.989-.169,2.886-.312.455-.065.585-.078.754-.091l-.052-.9a15.691,15.691,0,0,1-3.6.533c-.013-.689-.013-.689-.026-1.755a27.005,27.005,0,0,0,3.016-.312c.676-.091.676-.091.9-.1l-.065-.884a18.325,18.325,0,0,1-3.848.533,14.508,14.508,0,0,1,.091-1.833h-1a10.183,10.183,0,0,1,.065,1.872c-.429,0-.871.013-1.131.013a16.15,16.15,0,0,1-3.328-.26l-.013.884a1.062,1.062,0,0,1,.182-.013,1.577,1.577,0,0,1,.234.013c1.17.091,2.223.13,3.172.13.3,0,.507,0,.884-.013l.026,1.781c-.364.013-.819.013-1.157.013a15.955,15.955,0,0,1-2.977-.208l-.013.858h.1c.078,0,.182,0,.325.013.806.065,1.417.091,2.2.091.416,0,1.066-.013,1.534-.026.013.338.013.585.026.754.013.377.013.65.026.767a1.036,1.036,0,0,0,.013.143c0,.117,0,.117.013.156a5.782,5.782,0,0,0-1.17-.1,5.663,5.663,0,0,0-1.352.13c-1.144.26-1.82.936-1.82,1.794a1.7,1.7,0,0,0,.7,1.365,3.386,3.386,0,0,0,2.015.52,2.617,2.617,0,0,0,2.2-.819,2.258,2.258,0,0,0,.325-1.417,3.737,3.737,0,0,0-.026-.468c.351.143.65.273.871.39a10.461,10.461,0,0,1,2.652,1.859Zm-4.9-1.053a1.7,1.7,0,0,1-.26,1.17,1.878,1.878,0,0,1-1.43.429c-1.131,0-1.781-.39-1.781-1.079s.845-1.157,2.132-1.157a4.772,4.772,0,0,1,1.326.143ZM175.8,53.342c-.884.026-1.9.052-3.146.1-2.093.078-2.093.078-2.47.078-.195,0-.286,0-.52-.013l.039.949c.871-.143,3.5-.273,6.11-.325v.676c0,.156.013.286.013.338,0,.481,0,.533.013.715a2,2,0,0,0-1.508-.585,2.163,2.163,0,0,0-2.3,2.145,2.173,2.173,0,0,0,3.77,1.352,1.82,1.82,0,0,0,.351-.637,3.367,3.367,0,0,1-1.456,2.743,6.663,6.663,0,0,1-2.106.975,2.854,2.854,0,0,1,.572.819,8.269,8.269,0,0,0,2.054-1.053,4.184,4.184,0,0,0,1.742-3.393,3.725,3.725,0,0,0-.312-1.534V54.122c1.053-.026,1.2-.026,1.391-.026a23.106,23.106,0,0,1,2.483.065v-.923c-.429.052-1.43.078-3.887.091v-.143a10.761,10.761,0,0,1,.065-1.625h-.975a4.382,4.382,0,0,1,.052.754Zm-.039,3.8a1.457,1.457,0,0,1-1.521,1.534,1.256,1.256,0,0,1-1.339-1.287,1.376,1.376,0,0,1,1.443-1.365,1.663,1.663,0,0,1,.871.208A.941.941,0,0,1,175.76,57.138Zm7.215,1.807a1.95,1.95,0,1,0,1.95,1.95A1.947,1.947,0,0,0,182.975,58.945Zm0,.741a1.209,1.209,0,1,1-1.209,1.209A1.215,1.215,0,0,1,182.975,59.686Z" transform="translate(1269.597 718.145)" fill="#1b1311"/>
    <path id="パス_106522" data-name="パス 106522" d="M-55.54-14.16a21.032,21.032,0,0,1,4.92,2.64l.82-1.34a29.573,29.573,0,0,0-4.96-2.52Zm-1.58,4.78a22.206,22.206,0,0,1,5.1,2.74l.78-1.34a30.509,30.509,0,0,0-5.08-2.62ZM-56.44.2a4.694,4.694,0,0,1,.78-.22c.4-.08.76-.16,1.08-.22a22.845,22.845,0,0,0,5.06-1.72,15.677,15.677,0,0,0,7.7-8.62,6.03,6.03,0,0,1-1.24-1.06,14.893,14.893,0,0,1-2.4,4.48,13.173,13.173,0,0,1-6,4.46,17.3,17.3,0,0,1-5.38,1.24Zm27.02-8.34h3.08a9.533,9.533,0,0,1,1.76.08v-1.4a10.148,10.148,0,0,1-1.78.12h-7.3a10.467,10.467,0,0,1-1.78-.12v1.4a13.032,13.032,0,0,1,1.78-.08h2.86v6.92h-4.06a8.16,8.16,0,0,1-1.8-.12V.08A14.1,14.1,0,0,1-34.84,0h9.68a14.505,14.505,0,0,1,1.82.08v-1.4a10.069,10.069,0,0,1-1.8.1h-4.28Zm26.86-6.62c-.36.14-.36.14-1.7.14H-15a14.659,14.659,0,0,1-2.38-.14v1.54a19.311,19.311,0,0,1,2.36-.1H-3.66A10.611,10.611,0,0,1-5.9-10.34a8.659,8.659,0,0,1-3.16,1.9A3.929,3.929,0,0,1-8.08-7.3,11.97,11.97,0,0,0-2.24-13a3.589,3.589,0,0,1,.48-.8Zm-8.72,3.48a5.281,5.281,0,0,1,.08,1.08c0,3.9-.78,5.94-2.9,7.64A9.4,9.4,0,0,1-17.76-.72,3.911,3.911,0,0,1-16.84.62a10.9,10.9,0,0,0,5.12-3.46c1.36-1.72,1.92-3.7,1.98-7.04a7.254,7.254,0,0,1,.08-1.4ZM12.36-5.4a11.49,11.49,0,0,0,1.22,3.38A13.908,13.908,0,0,1,8.4.4a3.02,3.02,0,0,1,.8,1.02A15.67,15.67,0,0,0,14.16-1.1c1.14,1.64,2.22,2.48,3.2,2.48.94,0,1.34-.74,1.8-3.26a4.043,4.043,0,0,1-1.02-.7,9.112,9.112,0,0,1-.36,2.02c-.18.52-.3.68-.54.68-.52,0-1.34-.72-2.2-1.94a23.737,23.737,0,0,0,2.32-2.44l-1.02-.7a7.182,7.182,0,0,1-1.86,2.24,9.445,9.445,0,0,1-1-2.68h3.34a12.611,12.611,0,0,1,2.12.12v-1.3a10.526,10.526,0,0,1-2.12.12H13.28a51.3,51.3,0,0,1-.56-8.06,10.763,10.763,0,0,1,.1-1.96h-1.4a7.851,7.851,0,0,1,.1,1.26,51.871,51.871,0,0,0,.3,6.26,22.88,22.88,0,0,0,.34,2.5H7.6a11.074,11.074,0,0,1-1.8-.1V-5.3a11.847,11.847,0,0,1,1.8-.1h.22C7.62-2.54,6.78-.86,4.94.42a3.038,3.038,0,0,1,.96.86A8.243,8.243,0,0,0,8.64-3.24a8.922,8.922,0,0,0,2.18,1.9,4.215,4.215,0,0,1,.66-.96,7.9,7.9,0,0,1-2.6-2.14c.04-.4.04-.44.08-.96ZM13.5-8.24a3.093,3.093,0,0,1,.34-.06c2.16-.28,3.48-.46,3.94-.56.14.36.22.58.4,1.18l.92-.36a17.119,17.119,0,0,0-1.46-3.08l-.82.32a6.744,6.744,0,0,1,.6,1.12,21.834,21.834,0,0,1-2.44.28c.98-1.1,1.54-1.82,3.36-4.26l-.92-.72a20.388,20.388,0,0,1-1.54,2.4c-.38-.48-.56-.7-.96-1.14a22.753,22.753,0,0,0,1.82-2.76l-1.04-.56a11.116,11.116,0,0,1-1.46,2.64c-.22-.22-.3-.3-.62-.6l-.66.84a11.5,11.5,0,0,1,2.3,2.42c-.64.82-.8,1.02-1.48,1.8a.75.75,0,0,1-.2.02,1.847,1.847,0,0,1-.3-.02ZM8.56-16.52a10.324,10.324,0,0,1-1.52,2.88c-.22-.2-.4-.38-.56-.54l-.72.8a13.158,13.158,0,0,1,2.36,2.5c-.52.76-.88,1.22-1.6,2.1a2.312,2.312,0,0,1-.34.02,1.249,1.249,0,0,1-.24-.02l.24,1.14a5.482,5.482,0,0,1,.56-.1c1.92-.3,2.98-.5,3.82-.68.1.36.14.48.24.88l.9-.38a12.535,12.535,0,0,0-1.3-2.86l-.8.3a7.463,7.463,0,0,1,.66,1.24c-.64.12-1.52.24-2.5.36a36.106,36.106,0,0,0,3.1-4.4l-.96-.68a16.411,16.411,0,0,1-1.2,2.2,9.814,9.814,0,0,0-.96-1.16A18.27,18.27,0,0,0,9.62-16ZM3.1-12.58H2.24a7.9,7.9,0,0,1-1.38-.08v1.26a8.663,8.663,0,0,1,1.38-.08h.7a17.016,17.016,0,0,1-2.6,6.6,4.216,4.216,0,0,1,.72,1.16A17.261,17.261,0,0,0,3.32-9.98c-.12,1.52-.2,3.08-.2,3.86V-.66A16.8,16.8,0,0,1,3,1.66H4.4A16.212,16.212,0,0,1,4.3-.66V-7.22c0-.7-.04-1.56-.08-2.94A6.916,6.916,0,0,0,5.3-8.02a6.8,6.8,0,0,1,.56-1.04,7.792,7.792,0,0,1-1.48-2.42h.48a8.62,8.62,0,0,1,1.28.08v-1.26a7.308,7.308,0,0,1-1.3.08H4.3v-1.98a16.857,16.857,0,0,1,.08-2.06H3a12.254,12.254,0,0,1,.1,2.08ZM14.74-7.8a7.252,7.252,0,0,1,1.5,1.32l.72-.68a6.9,6.9,0,0,0-1.52-1.22Zm6.44-3.34a7.975,7.975,0,0,1,1.18-.14c1.96-.12,4.84-.44,6.32-.68.26.46.32.58.62,1.2l1.06-.62a31.166,31.166,0,0,0-2.58-4.02l-.94.48a17.5,17.5,0,0,1,1.26,1.96c-1.42.18-2.2.26-4.2.4a33.629,33.629,0,0,0,1.66-3.02,4.805,4.805,0,0,1,.4-.78l-1.4-.4a11.386,11.386,0,0,1-1.1,2.7,15.518,15.518,0,0,1-.88,1.56c-.58.02-.58.02-.7.02-.16,0-.6-.02-.88-.02Zm11.1-3.54a7.872,7.872,0,0,1,.12-1.74H30.94a10.779,10.779,0,0,1,.12,1.74v4.72c0,1.16.5,1.36,3.36,1.36,2.58,0,3.36-.1,3.7-.52.34-.4.52-1.16.66-2.84a4.365,4.365,0,0,1-1.18-.5c-.08,1.78-.18,2.3-.5,2.5-.28.18-.88.22-2.7.22-1.9,0-2.12-.06-2.12-.62v-1.8a23.712,23.712,0,0,0,5.06-2.06c.8-.44.8-.44,1.12-.6l-.88-1.06a16.152,16.152,0,0,1-5.3,2.54Zm0,9.06a8.549,8.549,0,0,1,.1-1.74H30.96a9.139,9.139,0,0,1,.1,1.8v5c0,.66.16.96.64,1.16a7.609,7.609,0,0,0,3.06.3c2.2,0,2.88-.1,3.32-.52.48-.46.7-1.24.86-3.14a5.436,5.436,0,0,1-1.2-.52A6.012,6.012,0,0,1,37.32-.7c-.26.32-.9.44-2.48.44a10.8,10.8,0,0,1-1.92-.1c-.5-.08-.64-.22-.64-.62V-3.36a22.1,22.1,0,0,0,3.2-1.08c.7-.3,2.24-1.08,3.12-1.58l-.94-1.04a14.711,14.711,0,0,1-5.38,2.5ZM22.34-.54a13.27,13.27,0,0,1-.1,2h1.42a13.538,13.538,0,0,1-.1-2.04v-2.5h4.42V-.5c0,.36-.12.44-.66.44a11.71,11.71,0,0,1-1.54-.1,5.6,5.6,0,0,1,.3,1.24c.26.02.48.02.62.02,2.14,0,2.46-.2,2.46-1.48v-8.5c0-.36.02-.96.06-1.34a14.863,14.863,0,0,1-1.84.08h-3.5a12.087,12.087,0,0,1-1.62-.08,16.382,16.382,0,0,1,.08,1.84Zm1.22-8.5h4.42v1.88H23.56Zm0,2.94h4.42v1.96H23.56ZM41.9-11.66a66.581,66.581,0,0,1,6.9-.66,40.932,40.932,0,0,0,4.4-.44,13.092,13.092,0,0,0-1.9,1.06c-2.38,1.62-3.74,3.82-3.74,6.14a4.842,4.842,0,0,0,2.22,4.08A10.088,10.088,0,0,0,54.1.06c.36.06.4.08.62.12l.26-1.62h-.2a10.251,10.251,0,0,1-3-.64,3.921,3.921,0,0,1-2.8-3.7,6.113,6.113,0,0,1,2.46-4.62,9.837,9.837,0,0,1,3.84-2,8.389,8.389,0,0,1,2.24-.28l-.12-1.48a13.508,13.508,0,0,1-2.38.22l-1.14.04c-.66.02-.92.04-3.38.18l-3.14.2c-2.46.14-2.58.16-3.7.24-.62.04-.86.06-1.14.06-.14,0-.34,0-.72-.02ZM54.18-9.74a14.065,14.065,0,0,1,2.04,3.18l1.02-.6a15.183,15.183,0,0,0-2.06-3.1Zm2.28-1.08A15.827,15.827,0,0,1,58.5-7.68l1-.56a16.208,16.208,0,0,0-2.06-3.12ZM-50.56,9.54h-4.88a12.858,12.858,0,0,1-2.32-.12v1.52a15.548,15.548,0,0,1,2.3-.1h4.9v9.98a11.129,11.129,0,0,1-.12,2.1h1.64a12.075,12.075,0,0,1-.1-2.12V10.84h5.08a15.548,15.548,0,0,1,2.3.1V9.42a13.118,13.118,0,0,1-2.34.12h-5.04V8.24a11.524,11.524,0,0,1,.1-2.08h-1.64a8.932,8.932,0,0,1,.12,2.04Zm-4.32,3.14a10.212,10.212,0,0,1-.7,2.72,12.761,12.761,0,0,1-2.94,4.92,4.434,4.434,0,0,1,1.32.86,17.861,17.861,0,0,0,3.5-6.9l.1-.44.12-.4a2.393,2.393,0,0,1,.12-.34Zm8.54.4c.14.32.32.76.5,1.3a23.987,23.987,0,0,0,3.48,6.88,4.322,4.322,0,0,1,1.26-.94,17.77,17.77,0,0,1-3.1-5.36,14.28,14.28,0,0,1-.74-2.26Zm3.6-8.56a2.275,2.275,0,0,0-2.28,2.26,2.279,2.279,0,0,0,2.28,2.28,2.275,2.275,0,0,0,2.26-2.28A2.245,2.245,0,0,0-42.74,4.52Zm0,.84a1.425,1.425,0,0,1,1.42,1.42,1.43,1.43,0,0,1-1.42,1.44,1.434,1.434,0,0,1-1.44-1.44A1.43,1.43,0,0,1-42.74,5.36Zm18.1.76A16.788,16.788,0,0,1-28.46,9.9a28.161,28.161,0,0,1-10.38,5.18,4.63,4.63,0,0,1,.78,1.34,31.265,31.265,0,0,0,7.72-3.5v7.6a10.424,10.424,0,0,1-.12,2.08h1.74a13.287,13.287,0,0,1-.1-2.12V11.96a35.224,35.224,0,0,0,4.68-4.02,4.527,4.527,0,0,1,.88-.84Zm7.46,2.82a22.084,22.084,0,0,1,4.76,3.92l1.04-1.24A26.054,26.054,0,0,0-16.2,7.86Zm.14,13a10.508,10.508,0,0,1,1.2-.32,20.164,20.164,0,0,0,7.46-2.98A17.541,17.541,0,0,0-2.28,11,4.006,4.006,0,0,1-3.5,9.82a15.112,15.112,0,0,1-8.16,8.9,17.408,17.408,0,0,1-5.82,1.54Zm24.38.68a13.6,13.6,0,0,1-.1-2.12V14.48a6.985,6.985,0,0,0-.08-1.18l.04-.02a2.207,2.207,0,0,0,.62.34,40.778,40.778,0,0,1,7.46,3.96l.86-1.48a49.6,49.6,0,0,0-8.9-4.22V8.14a12.554,12.554,0,0,1,.1-2.08H5.62A11.858,11.858,0,0,1,5.74,8.1V20.52a12.864,12.864,0,0,1-.12,2.1Zm26-10.68V10.86h3.22a10.222,10.222,0,0,1,1.58.08V9.86a10.189,10.189,0,0,1-1.6.08H33.3c.26-.38.34-.52.6-.96h1.26a4.24,4.24,0,0,1-.08-1v-.2h1.74a18.2,18.2,0,0,1,1.9.1V6.7a13.009,13.009,0,0,1-1.9.12H35.08V6.54a3.69,3.69,0,0,1,.1-1.08H33.86a5.039,5.039,0,0,1,.08,1.08v.28H30.5V6.54a4.7,4.7,0,0,1,.08-1.08H29.26a3.774,3.774,0,0,1,.1,1.08v.28H28.12a11.964,11.964,0,0,1-1.84-.12V7.88a18.007,18.007,0,0,1,1.86-.1h1.22v.14a5,5,0,0,1-.04.86l-.96-.32a8.431,8.431,0,0,1-2.98,3.72,2.882,2.882,0,0,1,.76.8,10.986,10.986,0,0,0,1.38-1.42c-.02.54-.04.88-.04,1.02v2.78c0,.66-.02,1-.06,1.52.58-.04.96-.06,1.52-.06h7.84a8.871,8.871,0,0,1,1.56.1V15.84a9.765,9.765,0,0,1-1.56.08H33.34V14.78h2.64a8.491,8.491,0,0,1,1.48.08V13.82a8.055,8.055,0,0,1-1.48.08H33.34V12.82h2.64a8.67,8.67,0,0,1,1.46.08V11.86a7.52,7.52,0,0,1-1.46.08Zm-4.76.88h3.68V13.9H28.58Zm0-.88V10.86h3.68v1.08Zm.12-2c.3-.44.42-.66.64-1.02h1.22a5.658,5.658,0,0,1-.06-1V7.78h3.44v.2a7.111,7.111,0,0,1-.02.74l-1-.32a5.451,5.451,0,0,1-.74,1.54Zm3.56,4.84v1.14H28.58V14.78Zm-6.8-9.5a9.078,9.078,0,0,1-1.7,2.68,14.771,14.771,0,0,0-1.52-2.24l-1.04.76a8.31,8.31,0,0,1,1.72,2.38,14.256,14.256,0,0,1-2.56,2,3.4,3.4,0,0,1,.86.92,17.434,17.434,0,0,0,2.2-1.82,13.917,13.917,0,0,1,.7,2.86A12.474,12.474,0,0,1,22.7,15a13.452,13.452,0,0,1-2.46,2.42,3.131,3.131,0,0,1,.86.92,14.418,14.418,0,0,0,3.2-3.92c.08,1.06.1,1.76.1,2.6a19.306,19.306,0,0,1-.24,3.64c-.16,1.06-.42,1.46-.98,1.46a7.727,7.727,0,0,1-2.16-.48,4.758,4.758,0,0,1,.14,1.26,11.032,11.032,0,0,0,2.4.36,1.459,1.459,0,0,0,1.42-.92,14.8,14.8,0,0,0,.62-5.24,19.9,19.9,0,0,0-1.3-8.06,18.805,18.805,0,0,0,1.66-2.16c.46-.72.46-.72.6-.92ZM36.34,17.82a7.17,7.17,0,0,1-1.5.1H28.28a10.492,10.492,0,0,1-1.7-.1v1.16a14.327,14.327,0,0,1,1.68-.1h.2a11.288,11.288,0,0,0,2.82,2.16,22.393,22.393,0,0,1-5.7,1.28,3.541,3.541,0,0,1,.64,1.1,23.129,23.129,0,0,0,6.26-1.76,23.508,23.508,0,0,0,5.94,1.76,3.645,3.645,0,0,1,.6-1.22,18.888,18.888,0,0,1-5.28-1.16,14.851,14.851,0,0,0,3.34-2.46Zm-1.22,1.06a11.828,11.828,0,0,1-2.64,1.64,9.224,9.224,0,0,1-2.52-1.64Zm19.32-4.02V16.5H47.22a11.434,11.434,0,0,1-1.84-.12v1.3a12.746,12.746,0,0,1,1.84-.1h7.22v3.94c0,.4-.14.48-.9.48a15.824,15.824,0,0,1-2.34-.24,3.994,3.994,0,0,1,.32,1.34c.76.06,1.38.08,2,.08,1.72,0,2.16-.3,2.16-1.44V17.58h.76a12.413,12.413,0,0,1,1.84.1v-1.3a11.434,11.434,0,0,1-1.84.12h-.76V14.86h.68a12.746,12.746,0,0,1,1.84.1v-1.3a11.033,11.033,0,0,1-1.86.12H47.46a11.141,11.141,0,0,1-1.86-.1v1.28a12.578,12.578,0,0,1,1.84-.1ZM44.74,5.3A10.74,10.74,0,0,1,40.6,9.68a3.693,3.693,0,0,1,.84.94,14.235,14.235,0,0,0,2.9-2.6c.46-.54.46-.54,1.52-1.98Zm10.34,7.04a15.436,15.436,0,0,1,1.86.08,14.41,14.41,0,0,1-.08-1.86V7.98a14.61,14.61,0,0,1,.08-1.86,14.882,14.882,0,0,1-1.92.08H49.38a15.651,15.651,0,0,1-1.94-.08c.04.5.06.84.06,1.82v2.6c0,1-.02,1.38-.06,1.88a14.766,14.766,0,0,1,1.88-.08ZM48.7,7.22h6.94v1.5H48.7Zm0,2.52h6.94v1.6H48.7Zm2.72,11.1a21.256,21.256,0,0,0-2.64-2.94l-.96.74a13.574,13.574,0,0,1,2.56,3.1Zm-8.38.42a15.453,15.453,0,0,1-.12,2.2h1.52a13.473,13.473,0,0,1-.12-2.24v-8.4a29.566,29.566,0,0,0,1.74-2.56L44.9,9.52a7.773,7.773,0,0,1-.88,1.72,13.881,13.881,0,0,1-3.74,3.82,3.821,3.821,0,0,1,.76,1.08,9.128,9.128,0,0,0,2.06-2.06c-.04.9-.06,1.52-.06,2.32Z" transform="translate(1381.097 581.648)" fill="#070304"/>
    <g id="グループ_62001" data-name="グループ 62001" transform="translate(-132.024 16.648)">
      <path id="パス_51327" data-name="パス 51327" d="M21.1,10.7a21.89,21.89,0,0,1,37.632,0L76.651,40.653c8.817,14.738-1.726,33.52-18.816,33.52H22c-17.09,0-27.633-18.783-18.816-33.52Z" transform="matrix(0.961, 0.276, -0.276, 0.961, 1486.379, 589)" fill="#ffc2b9"/>
      <path id="パス_51326" data-name="パス 51326" d="M21.318,10.742a22.191,22.191,0,0,1,38.02,0L77.44,40.8A22.191,22.191,0,0,1,58.43,74.44h-36.2A22.191,22.191,0,0,1,3.216,40.8Z" transform="translate(1540.652 691.497) rotate(-164)" fill="#ff8977" opacity="0.6"/>
      <path id="パス_64684" data-name="パス 64684" d="M321.715,477.521a2.521,2.521,0,0,1-1.681-3.633,2.522,2.522,0,0,0-1.551-1.068,2.46,2.46,0,0,0,.237-.672,2.522,2.522,0,0,0-1.92-2.964,2.523,2.523,0,0,0-3.628-3.277l-2.512,1.664a15.607,15.607,0,0,0-4.241-1.435,11.729,11.729,0,0,0-1.619-1.96l-1.039-1.006a2.274,2.274,0,0,0-3.479,2.887c.028.042.054.083.08.125A15.828,15.828,0,1,0,318.4,487.072a.544.544,0,0,0-1.023-.369,14.76,14.76,0,0,1-18.521,8.982l4.426-2.932h0l3.679-2.437h0a1.484,1.484,0,0,0,.419-2.057l-.048-.073.713-.474a2.426,2.426,0,0,1,1.728-.372,3.5,3.5,0,0,0,2.5-.542l5.929-3.924a14.973,14.973,0,0,1-.2,1.528.544.544,0,0,0,.435.634.508.508,0,0,0,.1.009.543.543,0,0,0,.535-.445,15.913,15.913,0,0,0,.26-2.474l1.67-1.106a2.526,2.526,0,0,0,.71-3.5ZM309.6,468.271l-1.662,1.1-.329-.883a11.422,11.422,0,0,0-.466-1.08A14.56,14.56,0,0,1,309.6,468.271Zm-17.229,3.772a14.744,14.744,0,0,1,8.508-4.852,6.728,6.728,0,0,1,.339,4.071l-1.326,5.732a1.482,1.482,0,0,0-1.9-.222l-3.758,2.488h0l-5.42,3.59c-.029-.383-.045-.769-.045-1.153A14.735,14.735,0,0,1,292.376,472.042Zm14.16,17.115a.392.392,0,0,1-.17.251h0l-3.232,2.14-6-8.943a.544.544,0,1,0-.9.606l5.993,8.937-4.612,3.055a14.787,14.787,0,0,1-8.654-11.165l5.427-3.582.623.931a.544.544,0,0,0,.453.242.524.524,0,0,0,.3-.094.542.542,0,0,0,.149-.755l-.62-.924,3.3-2.179a.382.382,0,0,1,.3-.057.4.4,0,0,1,.253.168l7.331,11.07A.4.4,0,0,1,306.536,489.157Zm14.482-9.957a1.425,1.425,0,0,1-.613.912l-1.909,1.264,0,0-6.815,4.513a2.422,2.422,0,0,1-1.726.374,3.517,3.517,0,0,0-2.5.54l-.713.474-6.005-9.067,1.553-6.7a7.822,7.822,0,0,0-.573-5.131l-.023-.048a7.907,7.907,0,0,0-.5-.871A1.186,1.186,0,0,1,303,463.952l1.039,1.007a10.612,10.612,0,0,1,2.552,3.909l.566,1.525,0,.009,0,.01.012.024a.322.322,0,0,0,.038.067.543.543,0,0,0,.753.154l5.8-3.843a1.436,1.436,0,1,1,1.586,2.394l-.5.332v0l-1.123.743-.005,0-.017.014a.543.543,0,0,0,.623.89l1.124-.744a1.436,1.436,0,1,1,1.586,2.394l-1.629,1.078a.545.545,0,0,0,.3,1,.53.53,0,0,0,.3-.092l.253-.166.871-.578a1.436,1.436,0,1,1,1.586,2.394l-.814.538-.012.009-.8.531a.543.543,0,0,0,.3,1,.55.55,0,0,0,.3-.09l.251-.166h0l.871-.578a1.435,1.435,0,0,1,1.989.405A1.409,1.409,0,0,1,321.018,479.2Z" transform="translate(1209.736 160.222)" stroke="#000" stroke-width="1"/>
    </g>
  </g>
</svg>
