<svg xmlns="http://www.w3.org/2000/svg" xmlns:xlink="http://www.w3.org/1999/xlink" width="273.193" height="276.591" viewBox="0 0 273.193 276.591">
  <defs>
    <filter id="パス_106480" x="0" y="0" width="273.193" height="276.591" filterUnits="userSpaceOnUse">
      <feOffset dy="3" input="SourceAlpha"/>
      <feGaussianBlur stdDeviation="3" result="blur"/>
      <feFlood flood-opacity="0.161"/>
      <feComposite operator="in" in2="blur"/>
      <feComposite in="SourceGraphic"/>
    </filter>
  </defs>
  <g id="グループ_62106" data-name="グループ 62106" transform="translate(-115 -826.152)">
    <g transform="matrix(1, 0, 0, 1, 115, 826.15)" filter="url(#パス_106480)">
      <path id="パス_106480-2" data-name="パス 106480" d="M4.252,0H250.941a4.252,4.252,0,0,1,4.252,4.252V254.339a4.252,4.252,0,0,1-4.252,4.252H4.252A4.252,4.252,0,0,1,0,254.339V4.252A4.252,4.252,0,0,1,4.252,0Z" transform="translate(9 6)" fill="#fff"/>
    </g>
    <path id="パス_106489" data-name="パス 106489" d="M-55.16-12.06a11.017,11.017,0,0,1-2.16-.14l.02,1.52a12.056,12.056,0,0,1,2.12-.1l3.64-.02a13.013,13.013,0,0,1-1.24,4.76,11.7,11.7,0,0,1-5.2,5.26A4.143,4.143,0,0,1-56.96.4a14.444,14.444,0,0,0,5.24-5.3,15.082,15.082,0,0,0,1.6-5.9l5.6-.02a44.037,44.037,0,0,1-.5,7.1c-.38,1.98-.7,2.46-1.68,2.46a8.445,8.445,0,0,1-2.58-.52,3.288,3.288,0,0,1,.22,1.26v.24a11.383,11.383,0,0,0,2.48.34c1.8,0,2.4-.72,2.9-3.46a54.558,54.558,0,0,0,.56-7,3,3,0,0,1,.16-1.2l-.74-.64a3.2,3.2,0,0,1-1.32.14l-5,.02c.06-.56.06-.8.1-1.42a16.7,16.7,0,0,1,.16-2.58l-1.62-.04a5.361,5.361,0,0,1,.08,1.04c0,.88-.04,1.98-.12,3Zm19.86-3.38a11.762,11.762,0,0,1,.08,1.68v5.34a12.125,12.125,0,0,1-.08,1.68h1.66a10.592,10.592,0,0,1-.08-1.66v-5.38a10.926,10.926,0,0,1,.08-1.66Zm8.84,0a11.121,11.121,0,0,1,.08,1.76v2.26a24.868,24.868,0,0,1-.28,5.1,5.966,5.966,0,0,1-3.2,4.22,11.645,11.645,0,0,1-3.8,1.36A3.825,3.825,0,0,1-32.82.64,15.746,15.746,0,0,0-29.18-.8a7.6,7.6,0,0,0,3.8-4.44,22.54,22.54,0,0,0,.5-6.1V-13.7a8.927,8.927,0,0,1,.1-1.74Zm12,1.84a8.85,8.85,0,0,1,.1-1.68H-16a11.1,11.1,0,0,1,.08,1.66V-4.4c0,.84.02,1.24.04,1.56a2.656,2.656,0,0,0,.82,1.92c.7.58,2.02.82,4.38.82,1.38,0,4.02-.14,5.3-.28l.96-.1.26-.02c.3-.04.36-.04.66-.06l-.12-1.6a9.635,9.635,0,0,1-1.98.4,39.565,39.565,0,0,1-4.58.32,20.857,20.857,0,0,1-2.36-.12,2.4,2.4,0,0,1-1.52-.52c-.34-.34-.42-.8-.42-2.2V-4.5l.02-.12V-7.54a31.047,31.047,0,0,0,9.54-3.38c.46-.24.56-.28.86-.42L-5.08-12.7c-1.34,1.32-6.22,3.3-9.38,3.84Zm9.02-2.18A14.812,14.812,0,0,1-3.38-12.6l1-.6a15.183,15.183,0,0,0-2.06-3.1Zm2.28-1.08a14.982,14.982,0,0,1,2.04,3.14l1.02-.56A17.3,17.3,0,0,0-2.18-17.4ZM7.64.62a13.6,13.6,0,0,1-.1-2.12V-7.52A6.985,6.985,0,0,0,7.46-8.7l.04-.02a2.207,2.207,0,0,0,.62.34,40.778,40.778,0,0,1,7.46,3.96l.86-1.48a49.6,49.6,0,0,0-8.9-4.22v-3.74a12.554,12.554,0,0,1,.1-2.08H5.92a11.858,11.858,0,0,1,.12,2.04V-1.48A12.864,12.864,0,0,1,5.92.62Zm25.3-15.34v7.68H30.02a10.778,10.778,0,0,1-1.8-.1v1.38a11.773,11.773,0,0,1,1.8-.12h2.92V-.84a14.811,14.811,0,0,1-.14,2.22h1.56A11.605,11.605,0,0,1,34.2-.84V-5.88h3.28a11.959,11.959,0,0,1,1.8.12V-7.14a10.659,10.659,0,0,1-1.78.1H34.2v-7.68h2.82a11.847,11.847,0,0,1,1.8.1v-1.36a11.508,11.508,0,0,1-1.82.12H30.34a11.784,11.784,0,0,1-1.84-.12v1.36a12.128,12.128,0,0,1,1.82-.1Zm-11.16-.02a11.06,11.06,0,0,1,1.52-.08h2.66a11.44,11.44,0,0,1,1.52.08V-16a7.876,7.876,0,0,1-1.52.1H23.3a8,8,0,0,1-1.52-.1Zm-.84,2.82a12.541,12.541,0,0,1,1.6-.08h3.82a9.137,9.137,0,0,1,1.46.08v-1.3a8.164,8.164,0,0,1-1.6.1H22.54a8.546,8.546,0,0,1-1.6-.1Zm.92,2.78a9.677,9.677,0,0,1,1.44-.08h2.84a10.09,10.09,0,0,1,1.42.08v-1.24a8.583,8.583,0,0,1-1.42.08H23.3a9.016,9.016,0,0,1-1.44-.08Zm0,2.78a9.34,9.34,0,0,1,1.44-.08h2.84a9.732,9.732,0,0,1,1.42.08V-7.6a8.583,8.583,0,0,1-1.42.08H23.3a9.016,9.016,0,0,1-1.44-.08ZM22.98,1.5V.42H26.3v.82h1.24a11.824,11.824,0,0,1-.1-1.74V-3.22a15.461,15.461,0,0,1,.06-1.56,8.285,8.285,0,0,1-1.46.06H23.32a13.6,13.6,0,0,1-1.6-.08,10.27,10.27,0,0,1,.1,1.66v2.7A13.212,13.212,0,0,1,21.7,1.5Zm0-5.16H26.3V-.62H22.98Zm5.74-9.44A19.577,19.577,0,0,1,30.48-8l1.1-.48a25.53,25.53,0,0,0-1.8-5.1Zm8.84-.48a19.441,19.441,0,0,1-2.22,5.16l1.04.5a28.67,28.67,0,0,0,2.36-5.14Zm17.12,2.9v-3.48h2.48a14.944,14.944,0,0,1,2.08.12v-1.4a44,44,0,0,1-5.22.18c-2.08,0-4.06-.02-5.98-.06a14.634,14.634,0,0,1-2.08-.12v1.4a15.351,15.351,0,0,1,2.08-.12H49.8v3.48h-2a14,14,0,0,1-1.78-.08,15.8,15.8,0,0,1,.1,1.82V-.76A16.644,16.644,0,0,1,46,1.36h1.36V.04h9.86V1.36h1.36a15.087,15.087,0,0,1-.12-2.18v-8.2a12.369,12.369,0,0,1,.08-1.74,12.515,12.515,0,0,1-1.76.08Zm-1.2,0H51v-3.48h2.48ZM49.8-9.56v8.48H47.36V-9.56Zm1.2,0h2.48v8.48H51Zm3.68,0h2.54v8.48H54.68ZM42.88-.84a19.9,19.9,0,0,1-.12,2.4H44.2a18.956,18.956,0,0,1-.1-2.34v-11a27.605,27.605,0,0,0,1.36-3.5c.18-.58.24-.72.38-1.08l-1.34-.48a12.758,12.758,0,0,1-.76,2.82,17.62,17.62,0,0,1-3.36,5.86,4.844,4.844,0,0,1,.8,1.1,16.562,16.562,0,0,0,1.76-2.86c-.06.9-.06,1.4-.06,2.4Z" transform="translate(248 894.375)" fill="#070304"/>
    <path id="パス_106498" data-name="パス 106498" d="M5.98,4.721H2.808V2.277a6.674,6.674,0,0,1,.052-.962H1.885a9.215,9.215,0,0,1,.065,1V4.89c0,.221-.013.416-.026.663.273-.013.572-.026.806-.026H5.98v4.758H2.275V7.88A6.534,6.534,0,0,1,2.34,6.775H1.352a7.218,7.218,0,0,1,.065,1.157v2.86a6.833,6.833,0,0,1-.078,1.092h.936V11.1h8.45v.78h.936a6.5,6.5,0,0,1-.078-1.092V7.854A7.218,7.218,0,0,1,11.648,6.7H10.66a6.894,6.894,0,0,1,.065,1.118v2.47H6.851V5.527h3.5c.247,0,.546.013.806.026-.013-.221-.026-.4-.026-.663V2.3a6.412,6.412,0,0,1,.065-.988h-.975a7.076,7.076,0,0,1,.052.949V4.721H6.851V1.432A5.9,5.9,0,0,1,6.942.249H5.889A5.257,5.257,0,0,1,5.98,1.432Zm9.984-.845a9.879,9.879,0,0,1-.052,1.131,12.6,12.6,0,0,1,1.378-.052h4.433a12.33,12.33,0,0,1,1.365.052,9.137,9.137,0,0,1-.052-1.144v-2.2A8.544,8.544,0,0,1,23.088.587a9.915,9.915,0,0,1-1.469.065H17.368A10.723,10.723,0,0,1,15.912.587a9.038,9.038,0,0,1,.052,1.092Zm.819-2.483H22.2V4.214H16.783Zm-2.691,9.256A8.767,8.767,0,0,1,14.027,12H14.9v-.819h3.016v.572h.845a10.013,10.013,0,0,1-.052-1.274v-3a11.357,11.357,0,0,1,.039-1.222c-.338.026-.637.039-1.053.039H15.236a10.648,10.648,0,0,1-1.2-.052A12.077,12.077,0,0,1,14.092,7.5ZM14.9,7.022h3.016v3.432H14.9Zm5.1,3.7A10.69,10.69,0,0,1,19.942,12h.845v-.819h3.328V12H25a8.359,8.359,0,0,1-.065-1.352V7.516a11.262,11.262,0,0,1,.052-1.274,8.687,8.687,0,0,1-1.118.052h-2.86c-.442,0-.728-.013-1.053-.039a8.119,8.119,0,0,1,.039,1.118Zm.793-3.7h3.341v3.432H20.787Zm11.7-2.093a24.645,24.645,0,0,1-5.993,2.912A2.784,2.784,0,0,1,27,8.582c1.092-.455,1.807-.767,2.548-1.157-.013.325-.013.663-.013.936v2.21a9.384,9.384,0,0,1-.078,1.339h.91V11.3h5.369v.611h.9a8.783,8.783,0,0,1-.065-1.339V7.659a10.007,10.007,0,0,1,.052-1.43c-.455.039-.793.052-1.417.052H32.968c-.364,0-.663,0-1.352.026.767-.468,1.352-.845,2.093-1.378h3.068a11.4,11.4,0,0,1,1.43.078v-.9a9.081,9.081,0,0,1-1.391.078H34.684a18.3,18.3,0,0,0,2.522-2.47c.169-.208.247-.3.4-.468L36.842.743a12.535,12.535,0,0,1-3.276,3.445H32.4V2.563h1.248a9.141,9.141,0,0,1,1.391.065V1.77a9.319,9.319,0,0,1-1.43.078H32.4V1.393A6.147,6.147,0,0,1,32.474.158H31.5a7.973,7.973,0,0,1,.078,1.235v.455H29.5A8.785,8.785,0,0,1,28.08,1.77v.858a10,10,0,0,1,1.4-.065h2.093V4.188H28.3a8.945,8.945,0,0,1-1.443-.078v.9a11.111,11.111,0,0,1,1.43-.078ZM30.368,6.983H35.75V8.361H30.368Zm0,2.08H35.75V10.6H30.368ZM41.639,3.187a16.932,16.932,0,0,0,.819-2.132A4.807,4.807,0,0,1,42.679.4L41.834.132A6.549,6.549,0,0,1,41.483,1.5a12.573,12.573,0,0,1-2.3,4.134,2.575,2.575,0,0,1,.533.7A10.438,10.438,0,0,0,40.9,4.344c-.039,1.43-.039,1.43-.039,1.989v3.991a13.312,13.312,0,0,1-.078,1.638h.91c-.039-.455-.052-.832-.052-1.651Zm4.069,5.538c.442,0,.637,0,1.144.039-.026-.325-.039-.689-.039-1.261V2A11.733,11.733,0,0,1,46.865.691c-.273.026-.585.039-1.027.039H43.979a9.587,9.587,0,0,1-1-.039c.026.286.039.741.039,1.183V7.412c0,.689-.013,1.04-.039,1.352.286-.026.585-.039,1.066-.039Zm-1.937-7.28h2.288v1.69H43.771Zm0,2.379h2.288V5.54H43.771Zm0,2.4h2.288V8.01H43.771ZM45.24,9.466a10.632,10.632,0,0,0,1.7,2.314,2.972,2.972,0,0,1,.65-.585A6.7,6.7,0,0,1,45.916,9.1Zm3.614-.585a8.961,8.961,0,0,1-.065-1.365V2.459a7.421,7.421,0,0,1,.078-1.365h-.949a9.61,9.61,0,0,1,.065,1.365V7.516A7.42,7.42,0,0,1,47.9,8.881ZM43.823,9.1a5.3,5.3,0,0,1-1.7,2.275,2.634,2.634,0,0,1,.637.585,7.3,7.3,0,0,0,1.768-2.535ZM50.05.47a11.673,11.673,0,0,1,.078,1.521V10.7c0,.286-.1.338-.637.338a10.04,10.04,0,0,1-1.3-.1,2.591,2.591,0,0,1,.208.819c.351.013.741.026,1,.026,1.261,0,1.534-.182,1.534-.988v-8.8A10.623,10.623,0,0,1,51.012.47ZM56.03.8a4.349,4.349,0,0,1,.221.819,26.481,26.481,0,0,0,.949,3.64,8.1,8.1,0,0,0-1.7,1.053,2.812,2.812,0,0,0-1.157,2.21,2.158,2.158,0,0,0,1.612,2.132A8.844,8.844,0,0,0,58.838,11a26.078,26.078,0,0,0,2.873-.169,6.738,6.738,0,0,1,.962-.078l-.1-1.079a12.907,12.907,0,0,1-3.718.442c-2.548,0-3.549-.455-3.549-1.638,0-1.079.962-1.937,3.185-2.821A29.9,29.9,0,0,1,62.4,4.4l-.39-.988a7.03,7.03,0,0,1-.832.338c-2.015.7-2.379.845-3.146,1.157A22.611,22.611,0,0,1,57.057.6ZM68.484,3.811H67.132A5.772,5.772,0,0,1,65.9,3.733v.884a7.906,7.906,0,0,1,1.222-.078h1.235a12.194,12.194,0,0,1-1,2.171,9,9,0,0,1-1.768,2.184,2.865,2.865,0,0,1,.533.741A10.7,10.7,0,0,0,68.536,5.7c-.052,1.118-.065,1.482-.065,2.21v2.535a10.518,10.518,0,0,1-.091,1.586h.962a9.49,9.49,0,0,1-.078-1.586v-2.7c0-.585-.026-1.469-.065-2.2a8.569,8.569,0,0,0,1.846,2.574,2.81,2.81,0,0,1,.481-.7,8.992,8.992,0,0,1-1.612-1.729,4.346,4.346,0,0,1-.624-1.144h1.222a7.024,7.024,0,0,1,1.157.065V3.746a7.267,7.267,0,0,1-1.131.065H69.264V1.783c.65-.182,1.105-.338,1.7-.559.312-.1.312-.1.52-.182L70.9.353a3.12,3.12,0,0,1-.845.377,17.5,17.5,0,0,1-4.121.988,2.659,2.659,0,0,1,.377.741c.962-.169,1.365-.26,2.171-.455Zm4.1-2.678a10.371,10.371,0,0,1,.078,1.482V7.633a9.663,9.663,0,0,1-.065,1.508h.962a9.556,9.556,0,0,1-.065-1.508V2.615a10.684,10.684,0,0,1,.065-1.482ZM75.764.4a13.023,13.023,0,0,1,.078,1.638v8.515c0,.325-.1.39-.624.39a15.566,15.566,0,0,1-1.677-.117,3.467,3.467,0,0,1,.273.858c.416.026.962.039,1.326.039,1.235,0,1.547-.221,1.547-1.144V2.043A10.825,10.825,0,0,1,76.778.4Zm9.217,7.241H88.79v2.938c0,.325-.117.39-.689.39a16.624,16.624,0,0,1-1.859-.143,3.037,3.037,0,0,1,.195.845c.546.039,1.2.065,1.612.065,1.261,0,1.56-.2,1.56-1.014V2A10.972,10.972,0,0,1,89.661.73a12.6,12.6,0,0,1-1.378.052H81.289A13.846,13.846,0,0,1,79.859.73a19.756,19.756,0,0,1,.052,2.119,30.431,30.431,0,0,1-.4,6.305,5.225,5.225,0,0,1-1.053,2.2,3.154,3.154,0,0,1,.754.559,7.839,7.839,0,0,0,1.4-4.264h3.562V10.1a9.538,9.538,0,0,1-.065,1.417h.936a9.325,9.325,0,0,1-.065-1.417Zm0-3.809V1.562H88.79V3.837Zm-.806,0H80.743l.013-.728V1.562h3.419Zm.806.741H88.79V6.892H84.981Zm-.806,0V6.892h-3.51c.039-.6.039-.65.052-1.456,0-.182,0-.494.013-.858Zm13.312.351a24.645,24.645,0,0,1-5.993,2.912A2.784,2.784,0,0,1,92,8.582c1.092-.455,1.807-.767,2.548-1.157-.013.325-.013.663-.013.936v2.21a9.384,9.384,0,0,1-.078,1.339h.91V11.3h5.369v.611h.9a8.782,8.782,0,0,1-.065-1.339V7.659a10.006,10.006,0,0,1,.052-1.43c-.455.039-.793.052-1.417.052H97.968c-.364,0-.663,0-1.352.026.767-.468,1.352-.845,2.093-1.378h3.068a11.4,11.4,0,0,1,1.43.078v-.9a9.081,9.081,0,0,1-1.391.078H99.684a18.3,18.3,0,0,0,2.522-2.47c.169-.208.247-.3.4-.468l-.767-.507a12.535,12.535,0,0,1-3.276,3.445H97.4V2.563h1.248a9.141,9.141,0,0,1,1.391.065V1.77a9.319,9.319,0,0,1-1.43.078H97.4V1.393A6.147,6.147,0,0,1,97.474.158H96.5a7.973,7.973,0,0,1,.078,1.235v.455H94.5A8.784,8.784,0,0,1,93.08,1.77v.858a10,10,0,0,1,1.4-.065h2.093V4.188H93.3a8.945,8.945,0,0,1-1.443-.078v.9a11.111,11.111,0,0,1,1.43-.078ZM95.368,6.983h5.382V8.361H95.368Zm0,2.08h5.382V10.6H95.368Zm11.271-5.876a16.932,16.932,0,0,0,.819-2.132,4.806,4.806,0,0,1,.221-.65l-.845-.273a6.549,6.549,0,0,1-.351,1.365,12.573,12.573,0,0,1-2.3,4.134,2.575,2.575,0,0,1,.533.7A10.438,10.438,0,0,0,105.9,4.344c-.039,1.43-.039,1.43-.039,1.989v3.991a13.312,13.312,0,0,1-.078,1.638h.91c-.039-.455-.052-.832-.052-1.651Zm4.069,5.538c.442,0,.637,0,1.144.039-.026-.325-.039-.689-.039-1.261V2a11.735,11.735,0,0,1,.052-1.313c-.273.026-.585.039-1.027.039h-1.859a9.587,9.587,0,0,1-1-.039c.026.286.039.741.039,1.183V7.412c0,.689-.013,1.04-.039,1.352.286-.026.585-.039,1.066-.039Zm-1.937-7.28h2.288v1.69h-2.288Zm0,2.379h2.288V5.54h-2.288Zm0,2.4h2.288V8.01h-2.288Zm1.469,3.237a10.632,10.632,0,0,0,1.7,2.314,2.972,2.972,0,0,1,.65-.585A6.7,6.7,0,0,1,110.916,9.1Zm3.614-.585a8.96,8.96,0,0,1-.065-1.365V2.459a7.421,7.421,0,0,1,.078-1.365h-.949a9.61,9.61,0,0,1,.065,1.365V7.516a7.42,7.42,0,0,1-.078,1.365Zm-5.031.221a5.3,5.3,0,0,1-1.7,2.275,2.634,2.634,0,0,1,.637.585,7.3,7.3,0,0,0,1.768-2.535ZM115.05.47a11.674,11.674,0,0,1,.078,1.521V10.7c0,.286-.1.338-.637.338a10.04,10.04,0,0,1-1.3-.1,2.591,2.591,0,0,1,.208.819c.351.013.741.026,1,.026,1.261,0,1.534-.182,1.534-.988v-8.8A10.623,10.623,0,0,1,116.012.47ZM126.464.8A9.964,9.964,0,0,1,127.8,2.862l.65-.39A9.869,9.869,0,0,0,127.114.457Zm-8.372,4a16.923,16.923,0,0,1,2.613-.468,19.184,19.184,0,0,1-2.782,6.474l.884.52a25.249,25.249,0,0,0,2.808-7.072,7.464,7.464,0,0,1,.936-.065c1.209,0,1.6.442,1.6,1.82a10.063,10.063,0,0,1-.546,3.614q-.254.624-.741.624a4.859,4.859,0,0,1-1.937-.6,2.4,2.4,0,0,1,.039.507,2.906,2.906,0,0,1-.026.468,4.891,4.891,0,0,0,1.963.507,1.358,1.358,0,0,0,1.274-.611,8.961,8.961,0,0,0,.871-4.472,2.624,2.624,0,0,0-.637-2.093,2.484,2.484,0,0,0-1.872-.546,7.576,7.576,0,0,0-.767.039c.1-.559.221-1.157.273-1.482a7.992,7.992,0,0,1,.247-1.248L121.251.6V.769a16.057,16.057,0,0,1-.39,2.756,26.668,26.668,0,0,1-2.873.338ZM127.946.106a9.416,9.416,0,0,1,1.326,2.041l.65-.377a10.441,10.441,0,0,0-1.339-2.015ZM125.762,3.07a10.978,10.978,0,0,1,2.652,4.667l.832-.468a11.9,11.9,0,0,0-2.717-4.6Zm11.869-.637a13.138,13.138,0,0,1-2.652.559V1.744a7.435,7.435,0,0,1,.065-1.209h-.962a8.635,8.635,0,0,1,.065,1.235V3.057c-.39.026-.9.039-1.248.039a7.363,7.363,0,0,1-1.326-.091v.858h.533c.143.013.494.013.689.013.377,0,.6,0,.832-.013.4-.026.4-.026.52-.039V6.281a6.954,6.954,0,0,0-1.833,1.066,2.353,2.353,0,0,0-1.027,1.729,1.568,1.568,0,0,0,.6,1.222,3.433,3.433,0,0,0,2.145.832c.637,0,.949-.338.949-1.04V6.84a8.771,8.771,0,0,1,2.756-.507c1.7,0,2.782.793,2.782,2.067a1.726,1.726,0,0,1-1.742,1.833c-.949,0-1.339-.559-1.339-1.911a3.861,3.861,0,0,1,.026-.507,2.818,2.818,0,0,1-.858.338,4.744,4.744,0,0,0,.156,1.469,1.917,1.917,0,0,0,2,1.469A2.675,2.675,0,0,0,140.075,6.1a4.4,4.4,0,0,0-2.3-.546,9.21,9.21,0,0,0-2.795.468V3.772a22.817,22.817,0,0,0,2.3-.39c.182-.039.234-.052.39-.078Zm-3.484,7.176c0,.559-.039.637-.3.637a2.428,2.428,0,0,1-1.157-.377c-.377-.247-.559-.507-.559-.78,0-.624.728-1.326,2.015-1.95Zm7.813-5.5a10.925,10.925,0,0,0-2.626-2.47l-.676.507a10.647,10.647,0,0,1,2.626,2.548Zm9.36,4.212c-.117.6-.208.975-.572,2.366h-5.564a9.2,9.2,0,0,1-1.508-.091v.962a10.457,10.457,0,0,1,1.534-.091h8.554a10,10,0,0,1,1.534.091V10.6a9.523,9.523,0,0,1-1.508.091h-2.145a56.491,56.491,0,0,0,1.183-5.915,9.654,9.654,0,0,1,.234-1.2,9.73,9.73,0,0,1-1.287.052h-3.822c.182-.767.182-.767.468-2.171h5.044a11.188,11.188,0,0,1,1.443.078V.613a11.188,11.188,0,0,1-1.443.078h-8.021A10.91,10.91,0,0,1,144,.613v.923a11.345,11.345,0,0,1,1.469-.078h2.054a27.15,27.15,0,0,1-.663,2.977,28.021,28.021,0,0,1-1.625,4.55l.975.078c.143-.351.182-.468.286-.741Zm-4.55-.754c.364-1.027.676-2.041.988-3.185h4.264a31.954,31.954,0,0,1-.559,3.185Zm11-5.785a7.033,7.033,0,0,1,.039.767c.065,3.2.247,4.862.7,6.1s1.118,1.976,1.846,1.976c.923,0,1.521-.871,2.158-3.146a4.155,4.155,0,0,1-.767-.741,9.354,9.354,0,0,1-.676,2.223c-.2.429-.416.65-.65.65-.494,0-1.027-.9-1.313-2.223a22.263,22.263,0,0,1-.338-4.043A9.423,9.423,0,0,1,158.86,1.8Zm6.578,1.1a11.481,11.481,0,0,1,2.7,6.409l.923-.377A12.447,12.447,0,0,0,167,5.449a11.284,11.284,0,0,0-1.859-2.964ZM171.522.86a7.238,7.238,0,0,1-.182,1.04,21.506,21.506,0,0,0-.585,5.148,18.632,18.632,0,0,0,.338,3.679c.039.247.052.312.078.52l.936-.078v-.195A11.332,11.332,0,0,1,173.16,7.4l-.624-.3a12.078,12.078,0,0,0-.845,2.535c-.052-.689-.078-1.456-.078-2.47A19.217,19.217,0,0,1,172,3.1a18.473,18.473,0,0,1,.546-2.08ZM174.2,3.317a17.316,17.316,0,0,0,2.08.13,21.946,21.946,0,0,0,2.795-.169q.858-.117.9-.117l-.065-.923a13.949,13.949,0,0,1-3.484.351,8.829,8.829,0,0,1-2.21-.195Zm.949,2.535a3.591,3.591,0,0,0-1.131,2.418,1.837,1.837,0,0,0,.39,1.2,3.613,3.613,0,0,0,2.977.988,13.412,13.412,0,0,0,2.665-.26c.26-.039.286-.052.455-.065l-.13-1a8.556,8.556,0,0,1-2.99.455c-1.677,0-2.5-.468-2.5-1.43a3.02,3.02,0,0,1,.975-1.911Zm15.262-4.42V6.424h-1.9a7.006,7.006,0,0,1-1.17-.065v.9a7.652,7.652,0,0,1,1.17-.078h1.9v3.276a9.629,9.629,0,0,1-.091,1.443h1.014a7.543,7.543,0,0,1-.1-1.443V7.178h2.132a7.773,7.773,0,0,1,1.17.078v-.9a6.928,6.928,0,0,1-1.157.065H191.23V1.432h1.833a7.7,7.7,0,0,1,1.17.065V.613a7.48,7.48,0,0,1-1.183.078h-4.329a7.66,7.66,0,0,1-1.2-.078V1.5a7.884,7.884,0,0,1,1.183-.065Zm-7.254-.013a7.189,7.189,0,0,1,.988-.052h1.729a7.436,7.436,0,0,1,.988.052V.6a5.119,5.119,0,0,1-.988.065h-1.729A5.2,5.2,0,0,1,183.157.6Zm-.546,1.833a8.152,8.152,0,0,1,1.04-.052h2.483a5.939,5.939,0,0,1,.949.052V2.407a5.307,5.307,0,0,1-1.04.065h-2.392a5.555,5.555,0,0,1-1.04-.065Zm.6,1.807a6.29,6.29,0,0,1,.936-.052h1.846a6.559,6.559,0,0,1,.923.052V4.253a5.579,5.579,0,0,1-.923.052h-1.846a5.86,5.86,0,0,1-.936-.052Zm0,1.807a6.071,6.071,0,0,1,.936-.052h1.846a6.326,6.326,0,0,1,.923.052V6.06a5.579,5.579,0,0,1-.923.052h-1.846a5.86,5.86,0,0,1-.936-.052Zm.728,5.109v-.7H186.1v.533h.806a7.685,7.685,0,0,1-.065-1.131V8.907a10.049,10.049,0,0,1,.039-1.014,5.385,5.385,0,0,1-.949.039h-1.768a8.839,8.839,0,0,1-1.04-.052,6.675,6.675,0,0,1,.065,1.079v1.755a8.588,8.588,0,0,1-.078,1.261Zm0-3.354H186.1V10.6h-2.158Zm3.731-6.136A12.725,12.725,0,0,1,188.812,5.8l.715-.312a16.594,16.594,0,0,0-1.17-3.315Zm5.746-.312a12.636,12.636,0,0,1-1.443,3.354l.676.325a18.636,18.636,0,0,0,1.534-3.341Zm11.128,1.885V1.8h1.612a9.714,9.714,0,0,1,1.352.078V.964a28.6,28.6,0,0,1-3.393.117c-1.352,0-2.639-.013-3.887-.039a9.512,9.512,0,0,1-1.352-.078v.91a9.978,9.978,0,0,1,1.352-.078h1.144V4.058h-1.3a9.1,9.1,0,0,1-1.157-.052,10.269,10.269,0,0,1,.065,1.183v5.317a10.818,10.818,0,0,1-.078,1.378h.884v-.858h6.409v.858h.884A9.806,9.806,0,0,1,207,10.467V5.137a8.04,8.04,0,0,1,.052-1.131,8.135,8.135,0,0,1-1.144.052Zm-.78,0H202.15V1.8h1.612Zm-2.392.728V10.3h-1.586V4.786Zm.78,0h1.612V10.3H202.15Zm2.392,0h1.651V10.3h-1.651Zm-7.67,5.668a12.937,12.937,0,0,1-.078,1.56h.936a12.321,12.321,0,0,1-.065-1.521V3.343a17.943,17.943,0,0,0,.884-2.275c.117-.377.156-.468.247-.7l-.871-.312a8.293,8.293,0,0,1-.494,1.833A11.453,11.453,0,0,1,195.247,5.7a3.148,3.148,0,0,1,.52.715,10.764,10.764,0,0,0,1.144-1.859c-.039.585-.039.91-.039,1.56ZM3.016,17.86a4,4,0,0,1,.052.689c0,.208,0,.455-.013.845-.1,4.095-.117,4.42-.117,5.291a3.621,3.621,0,0,0,.715,2.665,3.083,3.083,0,0,0,2.444.91,4.552,4.552,0,0,0,3.666-1.625,7.908,7.908,0,0,0,1.443-2.951,3.677,3.677,0,0,1-.936-.624A7.723,7.723,0,0,1,9.633,25.1a3.733,3.733,0,0,1-3.484,2.262,2.454,2.454,0,0,1-1.625-.507,2.046,2.046,0,0,1-.611-1.56c-.013-.3-.026-.624-.026-.78,0-.585.039-2.353.091-3.913a20.043,20.043,0,0,1,.169-2.743ZM13.6,26.024a12.975,12.975,0,0,1,2.561,2.834l.728-.689a13.246,13.246,0,0,0-2.613-2.756Zm20.813-7.592v4.992h-1.9a7.006,7.006,0,0,1-1.17-.065v.9a7.652,7.652,0,0,1,1.17-.078h1.9v3.276A9.627,9.627,0,0,1,34.32,28.9h1.014a7.544,7.544,0,0,1-.1-1.443V24.178h2.132a7.773,7.773,0,0,1,1.17.078v-.9a6.929,6.929,0,0,1-1.157.065H35.23V18.432h1.833a7.7,7.7,0,0,1,1.17.065v-.884a7.48,7.48,0,0,1-1.183.078H32.721a7.659,7.659,0,0,1-1.2-.078V18.5a7.883,7.883,0,0,1,1.183-.065Zm-7.254-.013a7.189,7.189,0,0,1,.988-.052h1.729a7.436,7.436,0,0,1,.988.052V17.6a5.119,5.119,0,0,1-.988.065H28.145a5.2,5.2,0,0,1-.988-.065Zm-.546,1.833a8.152,8.152,0,0,1,1.04-.052h2.483a5.939,5.939,0,0,1,.949.052v-.845a5.307,5.307,0,0,1-1.04.065H27.651a5.555,5.555,0,0,1-1.04-.065Zm.6,1.807a6.29,6.29,0,0,1,.936-.052h1.846a6.559,6.559,0,0,1,.923.052v-.806a5.579,5.579,0,0,1-.923.052H28.145a5.86,5.86,0,0,1-.936-.052Zm0,1.807a6.071,6.071,0,0,1,.936-.052h1.846a6.326,6.326,0,0,1,.923.052V23.06a5.579,5.579,0,0,1-.923.052H28.145a5.86,5.86,0,0,1-.936-.052Zm.728,5.109v-.7h2.158v.533H30.9a7.685,7.685,0,0,1-.065-1.131V25.907a10.049,10.049,0,0,1,.039-1.014,5.385,5.385,0,0,1-.949.039H28.158a8.839,8.839,0,0,1-1.04-.052,6.675,6.675,0,0,1,.065,1.079v1.755a8.588,8.588,0,0,1-.078,1.261Zm0-3.354h2.158V27.6H27.937Zm3.731-6.136A12.725,12.725,0,0,1,32.812,22.8l.715-.312a16.6,16.6,0,0,0-1.17-3.315Zm5.746-.312a12.637,12.637,0,0,1-1.443,3.354l.676.325a18.635,18.635,0,0,0,1.534-3.341Zm11.128,1.885V18.8h1.612a9.713,9.713,0,0,1,1.352.078v-.91a28.6,28.6,0,0,1-3.393.117c-1.352,0-2.639-.013-3.887-.039a9.512,9.512,0,0,1-1.352-.078v.91a9.978,9.978,0,0,1,1.352-.078H45.37v2.262h-1.3a9.1,9.1,0,0,1-1.157-.052,10.27,10.27,0,0,1,.065,1.183v5.317a10.819,10.819,0,0,1-.078,1.378h.884v-.858h6.409v.858h.884A9.807,9.807,0,0,1,51,27.467v-5.33a8.041,8.041,0,0,1,.052-1.131,8.135,8.135,0,0,1-1.144.052Zm-.78,0H46.15V18.8h1.612Zm-2.392.728V27.3H43.784V21.786Zm.78,0h1.612V27.3H46.15Zm2.392,0h1.651V27.3H48.542Zm-7.67,5.668a12.934,12.934,0,0,1-.078,1.56h.936a12.322,12.322,0,0,1-.065-1.521v-7.15a17.944,17.944,0,0,0,.884-2.275c.117-.377.156-.468.247-.7l-.871-.312a8.293,8.293,0,0,1-.494,1.833A11.453,11.453,0,0,1,39.247,22.7a3.149,3.149,0,0,1,.52.715,10.765,10.765,0,0,0,1.144-1.859c-.039.585-.039.91-.039,1.56Zm21.957-7.592v7.657c0,.3-.091.338-.7.338a9.475,9.475,0,0,1-1.781-.169,3.008,3.008,0,0,1,.208.9c.533.039,1.053.065,1.482.065,1.378,0,1.651-.156,1.651-.975V20.161a9.271,9.271,0,0,1,.052-1.144,10.316,10.316,0,0,1-1.313.065H58.851c.013-.312.026-.494.039-1.079a3.725,3.725,0,0,1,.091-.936H57.967a4.4,4.4,0,0,1,.091.936c0,.481,0,.637-.026,1.079H54.587a10.148,10.148,0,0,1-1.287-.065,9.736,9.736,0,0,1,.052,1.17v7.254a9.067,9.067,0,0,1-.091,1.443h1.014a9.509,9.509,0,0,1-.065-1.443V19.862h3.744a6.108,6.108,0,0,1-1.274,3.38,6.745,6.745,0,0,1-2.249,1.742,2.466,2.466,0,0,1,.585.663,7.387,7.387,0,0,0,2.7-2.431,6.041,6.041,0,0,0,.728-1.638,8.839,8.839,0,0,0,3.575,3.952,2.814,2.814,0,0,1,.572-.754,8.722,8.722,0,0,1-2.574-2.054,7.815,7.815,0,0,1-1.313-2.3c.039-.221.052-.312.078-.559Zm8.112-1.56h-3.51c-.52,0-.91-.013-1.313-.052a5.99,5.99,0,0,1,.052.884v.832a6.177,6.177,0,0,1-.052.9h.858V19.056H76.1v1.807h.845a5.952,5.952,0,0,1-.052-.9v-.832a5.991,5.991,0,0,1,.052-.884c-.416.039-.793.052-1.3.052H71.786v-.4a3.39,3.39,0,0,1,.078-.806H70.85a3.407,3.407,0,0,1,.091.806Zm-2.964,9.529A8.558,8.558,0,0,1,67.9,29h.9v-.65h5.46V29h.884a8.1,8.1,0,0,1-.078-1.157V24.906a19.369,19.369,0,0,0,1.859,1.079,2.806,2.806,0,0,1,.481-.793,12.267,12.267,0,0,1-2.964-1.651,9.68,9.68,0,0,1-2.483-2.535h-.832A9.135,9.135,0,0,1,68.874,23.4a12.876,12.876,0,0,1-3.159,1.833,2.386,2.386,0,0,1,.494.728,13.022,13.022,0,0,0,1.508-.871c.169-.117.169-.117.26-.182Zm.78-3.471a9.771,9.771,0,0,0,1.17-.91,11.058,11.058,0,0,0,1.638-1.755,11.284,11.284,0,0,0,2.717,2.665Zm.039.754h5.46V27.6H68.8Zm.689-5.46a8.26,8.26,0,0,1-1.6,1.625,6.6,6.6,0,0,1-1.534.9,2.445,2.445,0,0,1,.624.65A8.379,8.379,0,0,0,68.6,21.695a10.207,10.207,0,0,0,1.586-1.651Zm3.263.429A10.486,10.486,0,0,0,76.271,22.8a3.171,3.171,0,0,1,.494-.715,8.287,8.287,0,0,1-3.354-2.457Zm9.763-.832a18.19,18.19,0,0,1-2.782-.143l-.013.9A2.305,2.305,0,0,1,80,19.992h.208c.481.013,1.7.039,1.911.039a1.44,1.44,0,0,0,.247-.026l-.117.195a12.936,12.936,0,0,1-2.912,3.718l.728.728a4.3,4.3,0,0,1,1-1.079,4.884,4.884,0,0,1,2.9-1.378c.611,0,.923.312,1.027,1.027a10.092,10.092,0,0,0-1.937,1.04,2.688,2.688,0,0,0-1.326,2.054c0,1.339,1.131,2,3.458,2a20.168,20.168,0,0,0,3.159-.26,5.116,5.116,0,0,1,.52-.065l-.117-1a10.892,10.892,0,0,1-3.471.507c-1.833,0-2.639-.377-2.639-1.235,0-.78.676-1.391,2.444-2.223a3.416,3.416,0,0,1,.013.39A18.7,18.7,0,0,1,85.02,26.3l.884-.013a2.826,2.826,0,0,1-.026-.468c0-.117,0-.3.013-.585.013-.26.013-.546.013-.715,0-.325,0-.455-.026-.793a21.584,21.584,0,0,1,3.471-1.144l-.416-.91a2.86,2.86,0,0,1-.884.377c-.572.208-1.313.481-2.262.858a1.578,1.578,0,0,0-1.716-1.443,3.46,3.46,0,0,0-1.963.637c-.13.091-.13.091-.6.455a.1.1,0,0,1-.026-.039V22.5a.013.013,0,0,0,.013-.013c.013-.013.078-.065.169-.13.052-.039.312-.338.442-.494a9.586,9.586,0,0,0,1.17-1.846,41.976,41.976,0,0,0,4.29-.338,4.052,4.052,0,0,1,.52-.065l-.078-.884a18.3,18.3,0,0,1-4.1.494,2.213,2.213,0,0,0-.273.013c.065-.117.234-.468.4-.884a2.76,2.76,0,0,1,.338-.7l-1.04-.182a5.517,5.517,0,0,1-.624,1.781Zm12.7,8.437a12.553,12.553,0,0,1-1.924.247l.221.91c.169-.052.4-.1.611-.156,1.924-.377,3.133-.676,4.823-1.157v-.793c-1.326.39-1.885.546-2.938.78V24.477a11.22,11.22,0,0,0,1.261-1.209h.143a9.79,9.79,0,0,0,5.577,5.447,3.459,3.459,0,0,1,.559-.78A9.89,9.89,0,0,1,100.1,25.92a18.9,18.9,0,0,0,1.885-1.612,3.283,3.283,0,0,1,.26-.247l-.754-.507a10.453,10.453,0,0,1-1.911,1.82,7.687,7.687,0,0,1-1.352-2.106h3.627a11.036,11.036,0,0,1,1.417.078v-.884a9.009,9.009,0,0,1-1.417.078H97.786V21.279h2.886a10.488,10.488,0,0,1,1.378.052V20.5a10.619,10.619,0,0,1-1.378.052H97.786V19.329h3.6a9.885,9.885,0,0,1,1.4.065v-.858a9.674,9.674,0,0,1-1.43.078H97.786v-.3a5.476,5.476,0,0,1,.078-1.131h-.949a6.074,6.074,0,0,1,.078,1.131v.3H93.652a9.276,9.276,0,0,1-1.4-.078v.858a9.371,9.371,0,0,1,1.378-.065h3.367v1.222H94.3a9.922,9.922,0,0,1-1.326-.052v.832a9.669,9.669,0,0,1,1.326-.052h2.691V22.54H93.158a7.706,7.706,0,0,1-1.443-.078v.884a11.048,11.048,0,0,1,1.443-.078h3.133A11.677,11.677,0,0,1,91.6,26.089a3,3,0,0,1,.52.741A15.6,15.6,0,0,0,95.212,25.1ZM110.188,21.8v5.733c0,.273-.091.325-.624.325a11.191,11.191,0,0,1-1.859-.169,3.026,3.026,0,0,1,.221.9c.533.052,1.209.078,1.716.078,1.157,0,1.417-.195,1.417-1.04V21.8h3.692a9.978,9.978,0,0,1,1.352.078v-.962a9.659,9.659,0,0,1-1.365.078h-8.411a9.407,9.407,0,0,1-1.365-.078v.962a9.978,9.978,0,0,1,1.352-.078Zm4.615-3.835a9.714,9.714,0,0,1-1.352.078h-5.928a9.532,9.532,0,0,1-1.365-.078v.949a10.83,10.83,0,0,1,1.352-.078h5.928a10.462,10.462,0,0,1,1.365.078Zm-7.358,4.966a8.944,8.944,0,0,1-2.7,4.225,3.323,3.323,0,0,1,.741.6,11.171,11.171,0,0,0,2.795-4.5Zm5.447.325a14.082,14.082,0,0,0,2.847,4.433,3.84,3.84,0,0,1,.728-.676,8.675,8.675,0,0,1-1.027-1.079,12.314,12.314,0,0,1-1.781-3.016Zm11.3-3.913c-.884.026-1.9.052-3.146.1-2.093.078-2.093.078-2.47.078-.195,0-.286,0-.52-.013l.039.949c.871-.143,3.5-.273,6.11-.325v.676c0,.156.013.286.013.338,0,.481,0,.533.013.715a2,2,0,0,0-1.508-.585,2.163,2.163,0,0,0-2.3,2.145,2.173,2.173,0,0,0,3.77,1.352,1.821,1.821,0,0,0,.351-.637,3.367,3.367,0,0,1-1.456,2.743,6.663,6.663,0,0,1-2.106.975,2.854,2.854,0,0,1,.572.819,8.269,8.269,0,0,0,2.054-1.053,4.184,4.184,0,0,0,1.742-3.393,3.725,3.725,0,0,0-.312-1.534V20.122c1.053-.026,1.2-.026,1.391-.026a23.106,23.106,0,0,1,2.483.065v-.923c-.429.052-1.43.078-3.887.091v-.143a10.762,10.762,0,0,1,.065-1.625h-.975a4.381,4.381,0,0,1,.052.754Zm-.039,3.8a1.457,1.457,0,0,1-1.521,1.534,1.256,1.256,0,0,1-1.339-1.287,1.376,1.376,0,0,1,1.443-1.365,1.663,1.663,0,0,1,.871.208A.941.941,0,0,1,124.15,23.138Zm8.983-3.848a6.4,6.4,0,0,1,.7-.065c1.976-.065,3.536-.156,3.952-.234a.5.5,0,0,1,.117-.013l.026.026-.052.052-.052.052-.182.182c-.9.884-2.951,2.691-4.342,3.8a14.483,14.483,0,0,1-1.82,1.326l.585.832a8.343,8.343,0,0,1,5.473-2.223c1.755,0,2.8.741,2.8,1.989,0,1.1-.715,1.9-2.08,2.275a3.722,3.722,0,0,0-.6-1.248,2.618,2.618,0,0,0-2.145-1.066,1.689,1.689,0,0,0-1.885,1.521c0,1.2,1.053,1.872,2.886,1.872,2.886,0,4.771-1.339,4.771-3.367,0-1.664-1.391-2.73-3.562-2.73a6.587,6.587,0,0,0-3.185.806l-.026-.039a33.357,33.357,0,0,0,4.277-3.692,2.4,2.4,0,0,1,.663-.546l-.546-.715a1.329,1.329,0,0,1-.624.143c-1.17.091-2.9.169-3.978.169a6,6,0,0,1-1.222-.078Zm4.264,8.229a4.681,4.681,0,0,1-.949.091,3.322,3.322,0,0,1-1.456-.3.887.887,0,0,1-.52-.793c0-.494.4-.806,1.053-.806C136.461,25.712,137.111,26.336,137.4,27.519Zm10.192-7.085c.3,0,.559.013.845.039v-.806a5.207,5.207,0,0,1-.858.052h-.949V18.458a8.575,8.575,0,0,1,.065-1.339h-.949a7.773,7.773,0,0,1,.065,1.352v1.248h-1.053a5.757,5.757,0,0,1-.936-.052v.819a6.071,6.071,0,0,1,.936-.052h.936a11.574,11.574,0,0,1-2.236,4.628,2.4,2.4,0,0,1,.507.754,11.616,11.616,0,0,0,1.924-4.121c-.065,1.287-.078,1.573-.078,2.119v3.679A10.92,10.92,0,0,1,145.73,29h.975a10.538,10.538,0,0,1-.078-1.508V23.541c0-.429-.013-.91-.052-2.106a9.336,9.336,0,0,0,1.508,2.73,3,3,0,0,1,.468-.728,8.288,8.288,0,0,1-1.859-3Zm2.184,8.5V28h4.121v.884h.871a14.963,14.963,0,0,1-.052-1.547V19.082c0-.715.013-1.014.039-1.3a6.1,6.1,0,0,1-.988.039h-3.848A9.842,9.842,0,0,1,148.9,17.8c.039.637.052.949.052,1.4V27.35c0,.676-.026,1.144-.065,1.586Zm0-10.361h4.121V20.9h-4.121Zm0,3.068h4.121v2.314h-4.121Zm0,3.055h4.121v2.561h-4.121Zm14.547.624c-.117.6-.208.975-.572,2.366h-5.564a9.2,9.2,0,0,1-1.508-.091v.962a10.456,10.456,0,0,1,1.534-.091h8.554a10,10,0,0,1,1.534.091V27.6a9.523,9.523,0,0,1-1.508.091h-2.145a56.491,56.491,0,0,0,1.183-5.915,9.654,9.654,0,0,1,.234-1.2,9.73,9.73,0,0,1-1.287.052h-3.822c.182-.767.182-.767.468-2.171h5.044a11.188,11.188,0,0,1,1.443.078v-.923a11.188,11.188,0,0,1-1.443.078h-8.021A10.91,10.91,0,0,1,157,17.613v.923a11.345,11.345,0,0,1,1.469-.078h2.054a27.15,27.15,0,0,1-.663,2.977,28.021,28.021,0,0,1-1.625,4.55l.975.078c.143-.351.182-.468.286-.741Zm-4.55-.754c.364-1.027.676-2.041.988-3.185h4.264a31.954,31.954,0,0,1-.559,3.185Zm17.641-6.136v4.992h-1.9a7.006,7.006,0,0,1-1.17-.065v.9a7.652,7.652,0,0,1,1.17-.078h1.9v3.276a9.629,9.629,0,0,1-.091,1.443h1.014a7.543,7.543,0,0,1-.1-1.443V24.178h2.132a7.773,7.773,0,0,1,1.17.078v-.9a6.929,6.929,0,0,1-1.157.065H178.23V18.432h1.833a7.7,7.7,0,0,1,1.17.065v-.884a7.48,7.48,0,0,1-1.183.078h-4.329a7.66,7.66,0,0,1-1.2-.078V18.5a7.884,7.884,0,0,1,1.183-.065Zm-7.254-.013a7.189,7.189,0,0,1,.988-.052h1.729a7.436,7.436,0,0,1,.988.052V17.6a5.119,5.119,0,0,1-.988.065h-1.729a5.2,5.2,0,0,1-.988-.065Zm-.546,1.833a8.152,8.152,0,0,1,1.04-.052h2.483a5.939,5.939,0,0,1,.949.052v-.845a5.307,5.307,0,0,1-1.04.065h-2.392a5.555,5.555,0,0,1-1.04-.065Zm.6,1.807a6.29,6.29,0,0,1,.936-.052h1.846a6.559,6.559,0,0,1,.923.052v-.806a5.579,5.579,0,0,1-.923.052h-1.846a5.86,5.86,0,0,1-.936-.052Zm0,1.807a6.071,6.071,0,0,1,.936-.052h1.846a6.326,6.326,0,0,1,.923.052V23.06a5.579,5.579,0,0,1-.923.052h-1.846a5.86,5.86,0,0,1-.936-.052Zm.728,5.109v-.7H173.1v.533h.806a7.685,7.685,0,0,1-.065-1.131V25.907a10.049,10.049,0,0,1,.039-1.014,5.385,5.385,0,0,1-.949.039h-1.768a8.839,8.839,0,0,1-1.04-.052,6.675,6.675,0,0,1,.065,1.079v1.755a8.588,8.588,0,0,1-.078,1.261Zm0-3.354H173.1V27.6h-2.158Zm3.731-6.136a12.725,12.725,0,0,1,1.144,3.315l.715-.312a16.594,16.594,0,0,0-1.17-3.315Zm5.746-.312a12.637,12.637,0,0,1-1.443,3.354l.676.325a18.636,18.636,0,0,0,1.534-3.341Zm11.128,1.885V18.8h1.612a9.713,9.713,0,0,1,1.352.078v-.91a28.6,28.6,0,0,1-3.393.117c-1.352,0-2.639-.013-3.887-.039a9.513,9.513,0,0,1-1.352-.078v.91a9.978,9.978,0,0,1,1.352-.078h1.144v2.262h-1.3a9.1,9.1,0,0,1-1.157-.052,10.269,10.269,0,0,1,.065,1.183v5.317a10.818,10.818,0,0,1-.078,1.378h.884v-.858h6.409v.858h.884A9.806,9.806,0,0,1,194,27.467v-5.33a8.04,8.04,0,0,1,.052-1.131,8.135,8.135,0,0,1-1.144.052Zm-.78,0H189.15V18.8h1.612Zm-2.392.728V27.3h-1.586V21.786Zm.78,0h1.612V27.3H189.15Zm2.392,0h1.651V27.3h-1.651Zm-7.67,5.668a12.937,12.937,0,0,1-.078,1.56h.936a12.321,12.321,0,0,1-.065-1.521v-7.15a17.943,17.943,0,0,0,.884-2.275c.117-.377.156-.468.247-.7l-.871-.312a8.293,8.293,0,0,1-.494,1.833,11.453,11.453,0,0,1-2.184,3.809,3.148,3.148,0,0,1,.52.715,10.764,10.764,0,0,0,1.144-1.859c-.039.585-.039.91-.039,1.56Zm18.33-8.073a3.741,3.741,0,0,1,1.508.325,3.427,3.427,0,0,1,2.067,3.263,3.924,3.924,0,0,1-2.3,3.64,7.792,7.792,0,0,1-2.171.611,2.065,2.065,0,0,1,.455.871,10.057,10.057,0,0,0,1.976-.6,4.734,4.734,0,0,0,2.977-4.485,4.352,4.352,0,0,0-1.261-3.172,5.033,5.033,0,0,0-3.575-1.287,5.279,5.279,0,0,0-5.564,5.317c0,1.82.923,3.172,2.158,3.172.936,0,1.7-.78,2.457-2.5A19.487,19.487,0,0,0,202.2,19.381Zm-.936.013a17.856,17.856,0,0,1-1.183,4.81c-.559,1.274-1.079,1.885-1.625,1.885-.7,0-1.248-.962-1.248-2.21a4.5,4.5,0,0,1,2.119-3.874A4.106,4.106,0,0,1,201.266,19.394ZM8.034,41.49a7.468,7.468,0,0,0,.793,2.2A9.04,9.04,0,0,1,5.46,45.26a1.963,1.963,0,0,1,.52.663A10.186,10.186,0,0,0,9.2,44.285c.741,1.066,1.443,1.612,2.08,1.612.611,0,.871-.481,1.17-2.119a2.628,2.628,0,0,1-.663-.455,5.923,5.923,0,0,1-.234,1.313c-.117.338-.195.442-.351.442-.338,0-.871-.468-1.43-1.261a15.429,15.429,0,0,0,1.508-1.586l-.663-.455a4.668,4.668,0,0,1-1.209,1.456,6.139,6.139,0,0,1-.65-1.742h2.171a8.2,8.2,0,0,1,1.378.078v-.845a6.841,6.841,0,0,1-1.378.078h-2.3a33.345,33.345,0,0,1-.364-5.239,7,7,0,0,1,.065-1.274h-.91a5.1,5.1,0,0,1,.065.819,33.716,33.716,0,0,0,.2,4.069A14.872,14.872,0,0,0,7.9,40.8H4.94a7.2,7.2,0,0,1-1.17-.065v.819a7.7,7.7,0,0,1,1.17-.065h.143a4.45,4.45,0,0,1-1.872,3.783,1.975,1.975,0,0,1,.624.559,5.358,5.358,0,0,0,1.781-2.938,5.8,5.8,0,0,0,1.417,1.235,2.74,2.74,0,0,1,.429-.624,5.132,5.132,0,0,1-1.69-1.391c.026-.26.026-.286.052-.624Zm.741-1.846A2.01,2.01,0,0,1,9,39.6c1.4-.182,2.262-.3,2.561-.364.091.234.143.377.26.767l.6-.234a11.127,11.127,0,0,0-.949-2l-.533.208a4.383,4.383,0,0,1,.39.728,14.192,14.192,0,0,1-1.586.182c.637-.715,1-1.183,2.184-2.769l-.6-.468a13.252,13.252,0,0,1-1,1.56c-.247-.312-.364-.455-.624-.741a14.79,14.79,0,0,0,1.183-1.794l-.676-.364a7.226,7.226,0,0,1-.949,1.716c-.143-.143-.195-.195-.4-.39l-.429.546a7.475,7.475,0,0,1,1.5,1.573c-.416.533-.52.663-.962,1.17a.488.488,0,0,1-.13.013,1.2,1.2,0,0,1-.2-.013ZM5.564,34.262a6.71,6.71,0,0,1-.988,1.872c-.143-.13-.26-.247-.364-.351l-.468.52a8.552,8.552,0,0,1,1.534,1.625c-.338.494-.572.793-1.04,1.365a1.5,1.5,0,0,1-.221.013.812.812,0,0,1-.156-.013l.156.741a3.562,3.562,0,0,1,.364-.065c1.248-.2,1.937-.325,2.483-.442.065.234.091.312.156.572l.585-.247a8.148,8.148,0,0,0-.845-1.859l-.52.195a4.851,4.851,0,0,1,.429.806c-.416.078-.988.156-1.625.234a23.469,23.469,0,0,0,2.015-2.86l-.624-.442a10.667,10.667,0,0,1-.78,1.43,6.38,6.38,0,0,0-.624-.754,11.875,11.875,0,0,0,1.222-2ZM2.015,36.823H1.456a5.134,5.134,0,0,1-.9-.052v.819a5.631,5.631,0,0,1,.9-.052h.455a11.06,11.06,0,0,1-1.69,4.29,2.74,2.74,0,0,1,.468.754,11.22,11.22,0,0,0,1.469-4.069c-.078.988-.13,2-.13,2.509v3.549a10.92,10.92,0,0,1-.078,1.508h.91A10.538,10.538,0,0,1,2.8,44.571V40.307c0-.455-.026-1.014-.052-1.911a4.5,4.5,0,0,0,.7,1.391,4.421,4.421,0,0,1,.364-.676,5.065,5.065,0,0,1-.962-1.573h.312a5.6,5.6,0,0,1,.832.052v-.819a4.75,4.75,0,0,1-.845.052H2.8V35.536A10.957,10.957,0,0,1,2.847,34.2h-.9a7.965,7.965,0,0,1,.065,1.352ZM9.581,39.93a4.714,4.714,0,0,1,.975.858l.468-.442a4.484,4.484,0,0,0-.988-.793Zm4.186-2.171a5.184,5.184,0,0,1,.767-.091c1.274-.078,3.146-.286,4.108-.442.169.3.208.377.4.78l.689-.4a20.258,20.258,0,0,0-1.677-2.613l-.611.312a11.377,11.377,0,0,1,.819,1.274c-.923.117-1.43.169-2.73.26a21.859,21.859,0,0,0,1.079-1.963,3.123,3.123,0,0,1,.26-.507l-.91-.26a7.4,7.4,0,0,1-.715,1.755,10.087,10.087,0,0,1-.572,1.014c-.377.013-.377.013-.455.013-.1,0-.39-.013-.572-.013Zm7.215-2.3a5.117,5.117,0,0,1,.078-1.131h-.949a7.006,7.006,0,0,1,.078,1.131v3.068c0,.754.325.884,2.184.884,1.677,0,2.184-.065,2.4-.338a3.509,3.509,0,0,0,.429-1.846,2.838,2.838,0,0,1-.767-.325c-.052,1.157-.117,1.495-.325,1.625-.182.117-.572.143-1.755.143-1.235,0-1.378-.039-1.378-.4V37.1a15.413,15.413,0,0,0,3.289-1.339c.52-.286.52-.286.728-.39l-.572-.689a10.5,10.5,0,0,1-3.445,1.651Zm0,5.889a5.557,5.557,0,0,1,.065-1.131h-.923a5.941,5.941,0,0,1,.065,1.17v3.25c0,.429.1.624.416.754a4.946,4.946,0,0,0,1.989.195c1.43,0,1.872-.065,2.158-.338.312-.3.455-.806.559-2.041a3.533,3.533,0,0,1-.78-.338,3.908,3.908,0,0,1-.273,1.677c-.169.208-.585.286-1.612.286a7.016,7.016,0,0,1-1.248-.065c-.325-.052-.416-.143-.416-.4V42.816a14.365,14.365,0,0,0,2.08-.7c.455-.195,1.456-.7,2.028-1.027l-.611-.676a9.562,9.562,0,0,1-3.5,1.625Zm-6.461,3.3a8.626,8.626,0,0,1-.065,1.3h.923a8.8,8.8,0,0,1-.065-1.326V43h2.873v1.677c0,.234-.078.286-.429.286a7.612,7.612,0,0,1-1-.065,3.639,3.639,0,0,1,.195.806c.169.013.312.013.4.013,1.391,0,1.6-.13,1.6-.962V39.228c0-.234.013-.624.039-.871a9.662,9.662,0,0,1-1.2.052H15.522a7.857,7.857,0,0,1-1.053-.052,10.648,10.648,0,0,1,.052,1.2Zm.793-5.525h2.873v1.222H15.314Zm0,1.911h2.873v1.274H15.314Zm11.921-3.614a43.278,43.278,0,0,1,4.485-.429,26.606,26.606,0,0,0,2.86-.286,8.51,8.51,0,0,0-1.235.689,4.946,4.946,0,0,0-2.431,3.991,3.148,3.148,0,0,0,1.443,2.652,6.557,6.557,0,0,0,2.808,1c.234.039.26.052.4.078l.169-1.053h-.13a6.663,6.663,0,0,1-1.95-.416,2.549,2.549,0,0,1-1.82-2.4,3.973,3.973,0,0,1,1.6-3,6.394,6.394,0,0,1,2.5-1.3,5.453,5.453,0,0,1,1.456-.182L37.31,35.8a8.78,8.78,0,0,1-1.547.143l-.741.026c-.429.013-.6.026-2.2.117l-2.041.13c-1.6.091-1.677.1-2.405.156-.4.026-.559.039-.741.039-.091,0-.221,0-.468-.013Zm7.982,1.248a9.142,9.142,0,0,1,1.326,2.067l.663-.39a9.869,9.869,0,0,0-1.339-2.015Zm1.482-.7a10.288,10.288,0,0,1,1.326,2.041l.65-.364a10.535,10.535,0,0,0-1.339-2.028Zm9.49-1.625c-.884.026-1.9.052-3.146.1-2.093.078-2.093.078-2.47.078-.195,0-.286,0-.52-.013l.039.949c.871-.143,3.5-.273,6.11-.325v.676c0,.156.013.286.013.338,0,.481,0,.533.013.715a2,2,0,0,0-1.508-.585,2.163,2.163,0,0,0-2.3,2.145,2.173,2.173,0,0,0,3.77,1.352,1.821,1.821,0,0,0,.351-.637,3.367,3.367,0,0,1-1.456,2.743,6.663,6.663,0,0,1-2.106.975,2.854,2.854,0,0,1,.572.819A8.269,8.269,0,0,0,45.6,44.623a4.184,4.184,0,0,0,1.742-3.393,3.725,3.725,0,0,0-.312-1.534V37.122c1.053-.026,1.2-.026,1.391-.026a23.106,23.106,0,0,1,2.483.065v-.923c-.429.052-1.43.078-3.887.091v-.143a10.762,10.762,0,0,1,.065-1.625h-.975a4.381,4.381,0,0,1,.052.754Zm-.039,3.8a1.457,1.457,0,0,1-1.521,1.534,1.256,1.256,0,0,1-1.339-1.287,1.376,1.376,0,0,1,1.443-1.365,1.663,1.663,0,0,1,.871.208A.941.941,0,0,1,46.15,40.138Zm7.215,1.807a1.95,1.95,0,1,0,1.95,1.95A1.947,1.947,0,0,0,53.365,41.945Zm0,.741A1.209,1.209,0,1,1,52.156,43.9,1.215,1.215,0,0,1,53.365,42.686Zm17.966-6.253a13.138,13.138,0,0,1-2.652.559V35.744a7.435,7.435,0,0,1,.065-1.209h-.962a8.635,8.635,0,0,1,.065,1.235v1.287c-.39.026-.9.039-1.248.039a7.363,7.363,0,0,1-1.326-.091v.858h.533c.143.013.494.013.689.013.377,0,.6,0,.832-.013.4-.026.4-.026.52-.039v2.457a6.954,6.954,0,0,0-1.833,1.066,2.353,2.353,0,0,0-1.027,1.729,1.568,1.568,0,0,0,.6,1.222,3.433,3.433,0,0,0,2.145.832c.637,0,.949-.338.949-1.04V40.84a8.771,8.771,0,0,1,2.756-.507c1.7,0,2.782.793,2.782,2.067a1.726,1.726,0,0,1-1.742,1.833c-.949,0-1.339-.559-1.339-1.911a3.861,3.861,0,0,1,.026-.507,2.818,2.818,0,0,1-.858.338,4.744,4.744,0,0,0,.156,1.469,1.917,1.917,0,0,0,2,1.469A2.675,2.675,0,0,0,73.775,40.1a4.4,4.4,0,0,0-2.3-.546,9.21,9.21,0,0,0-2.795.468V37.772a22.816,22.816,0,0,0,2.3-.39c.182-.039.234-.052.39-.078Zm-3.484,7.176c0,.559-.039.637-.3.637a2.428,2.428,0,0,1-1.157-.377c-.377-.247-.559-.507-.559-.78,0-.624.728-1.326,2.015-1.95Zm7.813-5.5a10.924,10.924,0,0,0-2.626-2.47l-.676.507a10.647,10.647,0,0,1,2.626,2.548Zm9.36,4.212c-.117.6-.208.975-.572,2.366H78.884a9.2,9.2,0,0,1-1.508-.091v.962a10.456,10.456,0,0,1,1.534-.091h8.554A10,10,0,0,1,89,45.559V44.6a9.523,9.523,0,0,1-1.508.091H85.345a56.489,56.489,0,0,0,1.183-5.915,9.657,9.657,0,0,1,.234-1.2,9.729,9.729,0,0,1-1.287.052H81.653c.182-.767.182-.767.468-2.171h5.044a11.188,11.188,0,0,1,1.443.078v-.923a11.188,11.188,0,0,1-1.443.078H79.144a10.91,10.91,0,0,1-1.443-.078v.923a11.345,11.345,0,0,1,1.469-.078h2.054a27.152,27.152,0,0,1-.663,2.977,28.024,28.024,0,0,1-1.625,4.55l.975.078c.143-.351.182-.468.286-.741Zm-4.55-.754c.364-1.027.676-2.041.988-3.185h4.264a31.954,31.954,0,0,1-.559,3.185Zm11-5.785a7.033,7.033,0,0,1,.039.767c.065,3.2.247,4.862.7,6.1s1.118,1.976,1.846,1.976c.923,0,1.521-.871,2.158-3.146a4.156,4.156,0,0,1-.767-.741,9.353,9.353,0,0,1-.676,2.223c-.195.429-.416.65-.65.65-.494,0-1.027-.9-1.313-2.223a22.262,22.262,0,0,1-.338-4.043A9.423,9.423,0,0,1,92.56,35.8Zm6.578,1.1a11.481,11.481,0,0,1,2.7,6.409l.923-.377a12.448,12.448,0,0,0-.975-3.471,11.284,11.284,0,0,0-1.859-2.964Zm7.176-2.028a7.238,7.238,0,0,1-.182,1.04,21.507,21.507,0,0,0-.585,5.148,18.632,18.632,0,0,0,.338,3.679c.039.247.052.312.078.52l.936-.078v-.195A11.332,11.332,0,0,1,106.86,41.4l-.624-.3a12.078,12.078,0,0,0-.845,2.535c-.052-.689-.078-1.456-.078-2.47a19.218,19.218,0,0,1,.39-4.069,18.471,18.471,0,0,1,.546-2.08Zm2.678,2.457a17.316,17.316,0,0,0,2.08.13,21.946,21.946,0,0,0,2.795-.169q.858-.117.9-.117l-.065-.923a13.949,13.949,0,0,1-3.484.351,8.83,8.83,0,0,1-2.21-.195Zm.949,2.535a3.591,3.591,0,0,0-1.131,2.418,1.838,1.838,0,0,0,.39,1.2,3.613,3.613,0,0,0,2.977.988,13.412,13.412,0,0,0,2.665-.26c.26-.039.286-.052.455-.065l-.13-1a8.556,8.556,0,0,1-2.99.455c-1.677,0-2.5-.468-2.5-1.43a3.02,3.02,0,0,1,.975-1.911Zm17.706-.169a8.989,8.989,0,0,1,1.313.078v-.923a8.4,8.4,0,0,1-1.313.078h-5.382l.689-1.456c.117-.26.117-.26.208-.442l-.936-.208a8.371,8.371,0,0,1-.871,2.106h-2.314a7.045,7.045,0,0,1-1.313-.078v.923a9.24,9.24,0,0,1,1.313-.078h1.9a16.657,16.657,0,0,1-1.69,2.457,26.684,26.684,0,0,1,3.536,1.079,8.1,8.1,0,0,1-1.43.806,14.745,14.745,0,0,1-3.653,1.053,2.889,2.889,0,0,1,.481.819,14.879,14.879,0,0,0,1.781-.455,15.67,15.67,0,0,0,2.379-.988,7.1,7.1,0,0,0,1.313-.9,26.532,26.532,0,0,1,4.394,2.262l.624-.741a36.29,36.29,0,0,0-4.407-2.093,7.948,7.948,0,0,0,1.911-3.3Zm-2.366,0a6.277,6.277,0,0,1-.871,1.846,6.607,6.607,0,0,1-.962,1.144,27.355,27.355,0,0,0-2.9-.923,19.869,19.869,0,0,0,1.313-2.067Zm-2.548-4.056H118.17a11.62,11.62,0,0,1-1.391-.065,7.882,7.882,0,0,1,.065.988v.741a6.814,6.814,0,0,1-.065.91h.871v-1.82h9.087V38.2h.871a5.084,5.084,0,0,1-.065-.91V36.55a5.725,5.725,0,0,1,.065-.988,11.845,11.845,0,0,1-1.4.065h-3.718V35.3a6.228,6.228,0,0,1,.078-1.079h-1a6.664,6.664,0,0,1,.078,1.079Zm8.372,8.281a10.43,10.43,0,0,0,.975-2.288,19.8,19.8,0,0,0,.741-3.146l-.871-.234a14.231,14.231,0,0,1-.676,3,8.288,8.288,0,0,1-1,2.158Zm7.683-7.7a20.172,20.172,0,0,0-4.29-2.041l-.507.715a16.736,16.736,0,0,1,4.212,2.093Zm3.627,6.851a21.516,21.516,0,0,0-2.236-4.94l-.767.4a15.045,15.045,0,0,1,1.2,2.3,19.71,19.71,0,0,1,.962,2.717Zm-7.579-4.888a7.087,7.087,0,0,1,.091-1.222h-1.053a8.774,8.774,0,0,1,.091,1.235v6.227c0,.962.364,1.118,2.6,1.118,2.015,0,2.483-.117,2.795-.728A8.055,8.055,0,0,0,138.762,42a3.527,3.527,0,0,1-.884-.338A12.448,12.448,0,0,1,137.7,43.8c-.091.468-.221.676-.481.754a6.025,6.025,0,0,1-1.664.156c-1.508,0-1.807-.078-1.807-.481Zm10.972-3.315a4,4,0,0,1,.052.689c0,.208,0,.455-.013.845-.1,4.095-.117,4.42-.117,5.291a3.621,3.621,0,0,0,.715,2.665,3.083,3.083,0,0,0,2.444.91,4.552,4.552,0,0,0,3.666-1.625,7.908,7.908,0,0,0,1.443-2.951,3.677,3.677,0,0,1-.936-.624,7.722,7.722,0,0,1-.637,2.041,3.733,3.733,0,0,1-3.484,2.262,2.454,2.454,0,0,1-1.625-.507,2.046,2.046,0,0,1-.611-1.56c-.013-.3-.026-.624-.026-.78,0-.585.039-2.353.091-3.913a20.043,20.043,0,0,1,.169-2.743Zm10.543,2.587a38.185,38.185,0,0,1,4.485-.429,25.192,25.192,0,0,0,2.86-.286,8.509,8.509,0,0,0-1.235.689,4.928,4.928,0,0,0-2.431,3.991,3.164,3.164,0,0,0,1.443,2.652,6.557,6.557,0,0,0,2.808,1c.208.039.26.052.4.078l.169-1.053h-.13a6.663,6.663,0,0,1-1.95-.416,2.549,2.549,0,0,1-1.82-2.4,3.973,3.973,0,0,1,1.6-3,6.6,6.6,0,0,1,2.5-1.313,6.029,6.029,0,0,1,1.456-.169l-.078-.975a8.726,8.726,0,0,1-1.547.143c-1.677.078-5.837.312-7.384.429-.4.026-.559.039-.741.039h-.468Zm13.429-2.028v7.7a6.9,6.9,0,0,1-1.183.143l.26.923a4.422,4.422,0,0,1,.637-.169c1.755-.377,2.769-.637,3.588-.884v1.521A10.114,10.114,0,0,1,171.912,46h.975a8.775,8.775,0,0,1-.078-1.339V35.419c.364,0,.416,0,.936.026v-.806a6.754,6.754,0,0,1-.975.052h-4.121a7.821,7.821,0,0,1-1.014-.065v.858a5.725,5.725,0,0,1,.949-.065Zm.819,0h2.483v1.924h-2.483Zm0,2.6h2.483v1.963h-2.483Zm0,2.652h2.483v1.7c-.975.273-1.482.39-2.483.585Zm4.979-5.1a6.461,6.461,0,0,1-1.092-.065v.884a4.948,4.948,0,0,1,.767-.065,14.261,14.261,0,0,0,1.755,5.876A8.71,8.71,0,0,1,173,44.883a2.638,2.638,0,0,1,.52.78,10.366,10.366,0,0,0,2.847-2.73,9.866,9.866,0,0,0,2.808,2.717,2.847,2.847,0,0,1,.507-.845,8.439,8.439,0,0,1-2.821-2.6,15.759,15.759,0,0,0,2.067-5.941c.039-.26.091-.611.117-.741a7.885,7.885,0,0,1-.975.052Zm3.6.754a13.9,13.9,0,0,1-1.69,5.122,11.737,11.737,0,0,1-.949-2.4,16.39,16.39,0,0,1-.494-2.717Zm4.2,4.134c.156-.65.273-1.2.4-2.028h2.86c.364,0,.754.013,1.118.039a8.919,8.919,0,0,1-.039-.962V35.77c0-.39.013-.676.039-1a10.9,10.9,0,0,1-1.144.052H182.6a8.588,8.588,0,0,1-1.261-.078v.923a9.454,9.454,0,0,1,1.248-.078h3.2v2.106h-2.756a9.083,9.083,0,0,1-1.118-.052,16.345,16.345,0,0,1-.637,3.6c.312-.026.611-.039.975-.039h3.588a11.211,11.211,0,0,1-.611,3.224c-.13.273-.377.39-.884.39a11.261,11.261,0,0,1-2.327-.286,3.856,3.856,0,0,1,.182.936,17.19,17.19,0,0,0,2.171.156c.936,0,1.391-.208,1.638-.767a13.6,13.6,0,0,0,.7-3.783,5.146,5.146,0,0,1,.078-.676,7.547,7.547,0,0,1-1.144.065Zm7.5-6.019a8,8,0,0,1,.091,1.261v8.619a11.257,11.257,0,0,1-.091,1.521h1.053a10.8,10.8,0,0,1-.091-1.508V35.705a6.622,6.622,0,0,1,.091-1.261Zm7.644,1.807a18.19,18.19,0,0,1-2.782-.143l-.013.9a2.3,2.3,0,0,1,.286-.013h.208c.481.013,1.7.039,1.911.039a1.44,1.44,0,0,0,.247-.026l-.117.195a12.936,12.936,0,0,1-2.912,3.718l.728.728a4.3,4.3,0,0,1,1-1.079,4.884,4.884,0,0,1,2.9-1.378c.611,0,.923.312,1.027,1.027a10.091,10.091,0,0,0-1.937,1.04,2.688,2.688,0,0,0-1.326,2.054c0,1.339,1.131,2,3.458,2a20.168,20.168,0,0,0,3.159-.26,5.117,5.117,0,0,1,.52-.065l-.117-1a10.893,10.893,0,0,1-3.471.507c-1.833,0-2.639-.377-2.639-1.235,0-.78.676-1.391,2.444-2.223a3.416,3.416,0,0,1,.013.39,18.7,18.7,0,0,1-.078,1.872l.884-.013a2.826,2.826,0,0,1-.026-.468c0-.117,0-.3.013-.585.013-.26.013-.546.013-.715,0-.325,0-.455-.026-.793a21.584,21.584,0,0,1,3.471-1.144l-.416-.91a2.86,2.86,0,0,1-.884.377c-.572.208-1.313.481-2.262.858a1.578,1.578,0,0,0-1.716-1.443,3.46,3.46,0,0,0-1.963.637c-.13.091-.13.091-.6.455a.1.1,0,0,1-.026-.039V39.5a.013.013,0,0,0,.013-.013c.013-.013.078-.065.169-.13.052-.039.312-.338.442-.494a9.586,9.586,0,0,0,1.17-1.846,41.975,41.975,0,0,0,4.29-.338,4.053,4.053,0,0,1,.52-.065l-.078-.884a18.3,18.3,0,0,1-4.1.494,2.213,2.213,0,0,0-.273.013c.065-.117.234-.468.4-.884a2.761,2.761,0,0,1,.338-.7l-1.04-.182a5.517,5.517,0,0,1-.624,1.781Zm11.505-1.391a4,4,0,0,1,.052.689c0,.208,0,.455-.013.845-.1,4.095-.117,4.42-.117,5.291a3.621,3.621,0,0,0,.715,2.665,3.083,3.083,0,0,0,2.444.91,4.552,4.552,0,0,0,3.666-1.625,7.908,7.908,0,0,0,1.443-2.951,3.677,3.677,0,0,1-.936-.624,7.722,7.722,0,0,1-.637,2.041,3.733,3.733,0,0,1-3.484,2.262,2.454,2.454,0,0,1-1.625-.507,2.046,2.046,0,0,1-.611-1.56c-.013-.3-.026-.624-.026-.78,0-.585.039-2.353.091-3.913a20.043,20.043,0,0,1,.169-2.743ZM1.339,54.447a38.185,38.185,0,0,1,4.485-.429,25.192,25.192,0,0,0,2.86-.286,8.509,8.509,0,0,0-1.235.689,4.928,4.928,0,0,0-2.431,3.991,3.164,3.164,0,0,0,1.443,2.652,6.557,6.557,0,0,0,2.808,1c.208.039.26.052.4.078l.169-1.053h-.13a6.663,6.663,0,0,1-1.95-.416,2.549,2.549,0,0,1-1.82-2.4,3.973,3.973,0,0,1,1.6-3,6.6,6.6,0,0,1,2.5-1.313,6.029,6.029,0,0,1,1.456-.169l-.078-.975a8.726,8.726,0,0,1-1.547.143c-1.677.078-5.837.312-7.384.429-.4.026-.559.039-.741.039H1.274Zm13.429-1.664a7.033,7.033,0,0,1,.039.767c.065,3.2.247,4.862.7,6.1s1.118,1.976,1.846,1.976c.923,0,1.521-.871,2.158-3.146a4.156,4.156,0,0,1-.767-.741,9.353,9.353,0,0,1-.676,2.223c-.195.429-.416.65-.65.65-.494,0-1.027-.9-1.313-2.223a22.262,22.262,0,0,1-.338-4.043A9.423,9.423,0,0,1,15.86,52.8Zm6.578,1.1a11.481,11.481,0,0,1,2.7,6.409l.923-.377A12.448,12.448,0,0,0,24,56.449a11.284,11.284,0,0,0-1.859-2.964Zm12.7-2.366a20.668,20.668,0,0,1-3.809,3.562,10.045,10.045,0,0,0-1.1.884,1.259,1.259,0,0,0-.377.871c0,.442.208.728.936,1.3,1.9,1.482,2.418,1.911,3.289,2.717a12.272,12.272,0,0,1,1.677,1.781l.819-.806a3.31,3.31,0,0,1-.364-.325,38.33,38.33,0,0,0-4.16-3.549c-1.053-.819-1.157-.91-1.157-1.144,0-.182.091-.286.572-.65a37.87,37.87,0,0,0,2.99-2.457c1.352-1.3,1.456-1.391,1.6-1.508Zm6.4,3.224a1.936,1.936,0,0,1,.221-.013h.052c.507.026.624.026,1.079.026.481,0,.637,0,.9-.013a26.146,26.146,0,0,1-2.444,7.189l.949.4a34.255,34.255,0,0,0,1.5-3.965c.351-1.183.715-2.652.91-3.679a19,19,0,0,0,2.2-.312c.26-.052.26-.052.364-.065l-.065-.9a10.719,10.719,0,0,1-2.34.442c.065-.39.1-.572.169-.988a12.292,12.292,0,0,1,.234-1.235l-1.027-.1a12.712,12.712,0,0,1-.286,2.392c-.377.026-.52.026-.78.026a8.965,8.965,0,0,1-1.625-.117Zm9.815.637c-.975-.039-1.17-.039-1.417-.039a14.728,14.728,0,0,0-3.445.429l.091.884a11.315,11.315,0,0,1,3.25-.442,13.052,13.052,0,0,1,1.534.091Zm-4.732,2.808c-.689.884-.871,1.287-.871,1.872,0,1.287,1.1,1.95,3.237,1.95a13.026,13.026,0,0,0,2.314-.221c.429-.065.429-.065.572-.091l-.091-.975a9.659,9.659,0,0,1-2.873.442c-1.482,0-2.275-.416-2.275-1.2a1.564,1.564,0,0,1,.325-.923,4.357,4.357,0,0,1,.39-.494Zm9.36-5.8a3.033,3.033,0,0,1,.169.689c.117.65.273,1.417.364,1.833a5,5,0,0,0-1.3,1.326,4.668,4.668,0,0,0-.754,2.483c0,1.534.741,2.548,1.872,2.548a3.174,3.174,0,0,0,2.314-1.482,14.708,14.708,0,0,0,2.522-5.1c1.794.377,2.743,1.417,2.743,3a3.2,3.2,0,0,1-.572,1.846,4.23,4.23,0,0,1-1.95,1.417,5.891,5.891,0,0,1-1.937.481,2.148,2.148,0,0,1,.507.871c.559-.13.624-.143.819-.195a6.9,6.9,0,0,0,2.626-1.287,4.087,4.087,0,0,0,1.417-3.12,3.789,3.789,0,0,0-3.445-3.783c.065-.247.091-.39.156-.611a10.261,10.261,0,0,1,.351-1.365l-.975-.208a14.6,14.6,0,0,1-.4,2.093c-.182-.013-.338-.013-.429-.013a6.194,6.194,0,0,0-2.782.65,16.854,16.854,0,0,1-.351-2.262Zm.754,3.393a17.971,17.971,0,0,0,1.222,3.5c-.585.715-1.144,1.1-1.6,1.1-.637,0-1.053-.676-1.053-1.7a3.876,3.876,0,0,1,.52-1.82A3.835,3.835,0,0,1,55.64,55.786Zm1.807,2.782a2.094,2.094,0,0,0-.1-.3,18.429,18.429,0,0,1-.975-3.016,4.858,4.858,0,0,1,2.509-.663c.065,0,.182.013.325.013a14.845,14.845,0,0,1-1.586,3.679,2.128,2.128,0,0,0-.156.286ZM72.2,53.381a3.741,3.741,0,0,1,1.508.325,3.427,3.427,0,0,1,2.067,3.263,3.924,3.924,0,0,1-2.3,3.64,7.793,7.793,0,0,1-2.171.611,2.066,2.066,0,0,1,.455.871,10.057,10.057,0,0,0,1.976-.6,4.734,4.734,0,0,0,2.977-4.485,4.352,4.352,0,0,0-1.261-3.172,5.033,5.033,0,0,0-3.575-1.287,5.279,5.279,0,0,0-5.564,5.317c0,1.82.923,3.172,2.158,3.172.936,0,1.7-.78,2.457-2.5A19.487,19.487,0,0,0,72.2,53.381Zm-.936.013a17.856,17.856,0,0,1-1.183,4.81c-.559,1.274-1.079,1.885-1.625,1.885-.7,0-1.248-.962-1.248-2.21a4.5,4.5,0,0,1,2.119-3.874A4.106,4.106,0,0,1,71.266,53.394Zm10.114-.936H80.4a8.628,8.628,0,0,1-1.313-.078v.845c.4-.039.819-.065,1.313-.065h.975v4.173H79.963a8.725,8.725,0,0,1-1.287-.078V58.1a9.044,9.044,0,0,1,1.3-.078h1.9a6.559,6.559,0,0,1-3.5,1.859,2.24,2.24,0,0,1,.455.78,8.04,8.04,0,0,0,4-2.639h3.211a8.594,8.594,0,0,0,4.16,2.587,3.472,3.472,0,0,1,.455-.793,7.433,7.433,0,0,1-3.627-1.794H89a9.3,9.3,0,0,1,1.3.078v-.845a9.44,9.44,0,0,1-1.326.078h-1.43V53.16h1.2c.494,0,.9.026,1.313.065V52.38a8.747,8.747,0,0,1-1.313.078h-1.2V52.38a7.066,7.066,0,0,1,.065-1.131h-.936a6.073,6.073,0,0,1,.078,1.131v.078H82.173V52.38a9.164,9.164,0,0,1,.065-1.131H81.3a5.979,5.979,0,0,1,.078,1.131Zm.793,4.875v-.962h4.576v.962Zm0-1.638v-.923h4.576v.923Zm0-1.6V53.16h4.576V54.1Zm1.82,5.538h-1.6a8.654,8.654,0,0,1-1.131-.052v.806a9.176,9.176,0,0,1,1.131-.052h1.6v1.443h-3.2a10.827,10.827,0,0,1-1.391-.065v.858a10.9,10.9,0,0,1,1.417-.078H88.3a10.607,10.607,0,0,1,1.391.078v-.858a9.066,9.066,0,0,1-1.365.065H84.76V60.336h1.859a8.781,8.781,0,0,1,1.131.052v-.806a8.654,8.654,0,0,1-1.131.052H84.76v-.117a5.556,5.556,0,0,1,.065-1.04h-.9a7.089,7.089,0,0,1,.065,1.04ZM99.9,54.278V53.251h1.95a9.86,9.86,0,0,1,1.17.065v-.793a11.514,11.514,0,0,1-1.248.065H99.97a7.979,7.979,0,0,0,.793-1.183l-.754-.26a5.709,5.709,0,0,1-.806,1.443H97.032c.351-.533.4-.611.546-.871l.234-.4-.793-.273a8.237,8.237,0,0,1-2.652,3.484,1.734,1.734,0,0,1,.52.6,7.849,7.849,0,0,0,1.066-1.157c-.039.52-.052.793-.052,1.391V57.5a7.884,7.884,0,0,1-.052.975,8.639,8.639,0,0,1,1.053-.052H102a10.884,10.884,0,0,1,1.261.065v-.806a8.417,8.417,0,0,1-1.235.065H99.9V56.592h1.534a9.729,9.729,0,0,1,1.222.052V55.89a9.064,9.064,0,0,1-1.235.052H99.9V54.928h1.534a9.864,9.864,0,0,1,1.222.052v-.754a8.842,8.842,0,0,1-1.222.052Zm-3.25,0V53.251h2.522v1.027Zm0,.65h2.522v1.014H96.655Zm0,1.664h2.522v1.157H96.655Zm1.131,3.926h4.134a9.511,9.511,0,0,1,1.339.078v-.91a7.31,7.31,0,0,1-1.3.078H97.786v-.078a4.068,4.068,0,0,1,.065-.9h-.936a5.631,5.631,0,0,1,.052.9v.078H92.976a8.227,8.227,0,0,1-1.261-.078v.91a9.312,9.312,0,0,1,1.326-.078h3.926v1.209a9.2,9.2,0,0,1-.091,1.352h1a8.791,8.791,0,0,1-.091-1.365Zm-5.369-8.723A7.77,7.77,0,0,1,94.445,53.3l.507-.65a10.117,10.117,0,0,0-1.989-1.43Zm-.7,2.47a9.024,9.024,0,0,1,2.119,1.391l.494-.676a12.159,12.159,0,0,0-2.08-1.3Zm3.016,1.573a11.479,11.479,0,0,1-2.938,2.444l.533.754c.247-.208.247-.208.442-.351A15.955,15.955,0,0,0,95.121,56.5Zm13.3-4.043a4.349,4.349,0,0,1,.221.819,26.481,26.481,0,0,0,.949,3.64,8.1,8.1,0,0,0-1.7,1.053,2.812,2.812,0,0,0-1.157,2.21,2.158,2.158,0,0,0,1.612,2.132,8.844,8.844,0,0,0,2.886.351,26.079,26.079,0,0,0,2.873-.169,6.738,6.738,0,0,1,.962-.078l-.1-1.079a12.907,12.907,0,0,1-3.718.442c-2.548,0-3.549-.455-3.549-1.638,0-1.079.962-1.937,3.185-2.821A29.9,29.9,0,0,1,114.4,55.4l-.39-.988a7.03,7.03,0,0,1-.832.338c-2.015.7-2.379.845-3.146,1.157a22.611,22.611,0,0,1-.975-4.3Zm11.986.065a4,4,0,0,1,.052.689c0,.208,0,.455-.013.845-.1,4.095-.117,4.42-.117,5.291a3.621,3.621,0,0,0,.715,2.665,3.083,3.083,0,0,0,2.444.91,4.552,4.552,0,0,0,3.666-1.625,7.908,7.908,0,0,0,1.443-2.951,3.677,3.677,0,0,1-.936-.624,7.723,7.723,0,0,1-.637,2.041,3.733,3.733,0,0,1-3.484,2.262,2.454,2.454,0,0,1-1.625-.507,2.046,2.046,0,0,1-.611-1.56c-.013-.3-.026-.624-.026-.78,0-.585.039-2.353.091-3.913a20.043,20.043,0,0,1,.169-2.743Zm21.359,9.1a4.444,4.444,0,0,1-.442-.3,11.379,11.379,0,0,0-3.627-1.9c-.052-1.261-.052-1.261-.078-1.989.962-.065,1.989-.169,2.886-.312.455-.065.585-.078.754-.091l-.052-.9a15.691,15.691,0,0,1-3.6.533c-.013-.689-.013-.689-.026-1.755a27.005,27.005,0,0,0,3.016-.312c.676-.091.676-.091.9-.1l-.065-.884a18.325,18.325,0,0,1-3.848.533,14.508,14.508,0,0,1,.091-1.833h-1a10.183,10.183,0,0,1,.065,1.872c-.429,0-.871.013-1.131.013a16.15,16.15,0,0,1-3.328-.26l-.013.884a1.062,1.062,0,0,1,.182-.013,1.577,1.577,0,0,1,.234.013c1.17.091,2.223.13,3.172.13.3,0,.507,0,.884-.013l.026,1.781c-.364.013-.819.013-1.157.013a15.955,15.955,0,0,1-2.977-.208l-.013.858h.1c.078,0,.182,0,.325.013.806.065,1.417.091,2.2.091.416,0,1.066-.013,1.534-.026.013.338.013.585.026.754.013.377.013.65.026.767a1.036,1.036,0,0,0,.013.143c0,.117,0,.117.013.156a5.782,5.782,0,0,0-1.17-.1,5.663,5.663,0,0,0-1.352.13c-1.144.26-1.82.936-1.82,1.794a1.7,1.7,0,0,0,.7,1.365,3.386,3.386,0,0,0,2.015.52,2.617,2.617,0,0,0,2.2-.819,2.258,2.258,0,0,0,.325-1.417,3.737,3.737,0,0,0-.026-.468c.351.143.65.273.871.39a10.461,10.461,0,0,1,2.652,1.859Zm-4.9-1.053a1.7,1.7,0,0,1-.26,1.17,1.878,1.878,0,0,1-1.43.429c-1.131,0-1.781-.39-1.781-1.079s.845-1.157,2.132-1.157a4.772,4.772,0,0,1,1.326.143Zm9.542-8.047a4,4,0,0,1,.052.689c0,.208,0,.455-.013.845-.1,4.095-.117,4.42-.117,5.291a3.621,3.621,0,0,0,.715,2.665,3.083,3.083,0,0,0,2.444.91,4.552,4.552,0,0,0,3.666-1.625,7.908,7.908,0,0,0,1.443-2.951,3.677,3.677,0,0,1-.936-.624,7.722,7.722,0,0,1-.637,2.041,3.733,3.733,0,0,1-3.484,2.262,2.454,2.454,0,0,1-1.625-.507,2.046,2.046,0,0,1-.611-1.56c-.013-.3-.026-.624-.026-.78,0-.585.039-2.353.091-3.913a20.043,20.043,0,0,1,.169-2.743Zm15.912,1.885a2.276,2.276,0,0,1,.052.416l.013,1.417c.013,1.3.026,1.69.078,2.574.052,1.079.052,1.079.065,1.131a.583.583,0,0,0,.013.156,3.374,3.374,0,0,0-.975-.13,4.324,4.324,0,0,0-1.56.286,1.518,1.518,0,0,0-.988,1.4,1.413,1.413,0,0,0,.481,1.066,2.566,2.566,0,0,0,1.729.494A2.246,2.246,0,0,0,162.7,61.9a2.011,2.011,0,0,0,.3-1.053,4.372,4.372,0,0,0-.026-.468,1.487,1.487,0,0,0,.208.1,8.157,8.157,0,0,1,2.509,1.7l.507-.806a2.521,2.521,0,0,1-.312-.195c-.793-.559-.91-.637-1.248-.845a9.523,9.523,0,0,0-1.677-.754c-.078-1.131-.1-1.833-.13-2.678a17.441,17.441,0,0,0,2.392-.195c.559-.078.559-.078.7-.091l-.091-.832a10.646,10.646,0,0,1-3.029.39c-.013-.572-.013-.871-.013-.91a7.1,7.1,0,0,1,.078-1.508Zm.234,6.409a3.283,3.283,0,0,1,.039.507,1.3,1.3,0,0,1-.169.754,1.5,1.5,0,0,1-1.235.39c-.871,0-1.339-.286-1.339-.819,0-.6.611-.962,1.638-.962A4.5,4.5,0,0,1,162.162,60.154ZM172.6,52.64a23.666,23.666,0,0,0,5.46.858l.143-.936a16.4,16.4,0,0,1-5.291-.806Zm-1.352,4.225a18.154,18.154,0,0,1,4.953-.871,3.621,3.621,0,0,1,1.6.286,1.577,1.577,0,0,1,.832,1.456,2.91,2.91,0,0,1-.663,1.768,3.183,3.183,0,0,1-1.118.923A8.253,8.253,0,0,1,173.2,61.48a3.3,3.3,0,0,1,.416.949,9.984,9.984,0,0,0,3.77-1.235,4.142,4.142,0,0,0,2.236-3.51,2.312,2.312,0,0,0-1.1-2.067,4.134,4.134,0,0,0-2.236-.494,21.721,21.721,0,0,0-3.965.468,10.23,10.23,0,0,1-1.313.221Zm13.416,2.08a1.95,1.95,0,1,0,1.95,1.95A1.947,1.947,0,0,0,184.665,58.945Zm0,.741a1.209,1.209,0,1,1-1.209,1.209A1.215,1.215,0,0,1,184.665,59.686Z" transform="translate(142 1010.145)" fill="#1b1311"/>
    <g id="グループ_62003" data-name="グループ 62003" transform="translate(-877.582 307.51)">
      <path id="パス_51327" data-name="パス 51327" d="M21.1,10.7a21.89,21.89,0,0,1,37.632,0L76.651,40.653c8.817,14.738-1.726,33.52-18.816,33.52H22c-17.09,0-27.633-18.783-18.816-33.52Z" transform="matrix(0.961, 0.276, -0.276, 0.961, 1098.707, 589)" fill="#ffc2b9"/>
      <path id="パス_51326" data-name="パス 51326" d="M21.318,10.742a22.191,22.191,0,0,1,38.02,0L77.44,40.8A22.191,22.191,0,0,1,58.43,74.44h-36.2A22.191,22.191,0,0,1,3.216,40.8Z" transform="translate(1152.981 691.497) rotate(-164)" fill="#ff8977" opacity="0.6"/>
      <path id="パス_51380" data-name="パス 51380" d="M252.481,134.975a1.813,1.813,0,0,1-1.765-2.216l2.191-9.659-7.436-6.523a1.813,1.813,0,0,1,1.026-3.171l9.84-.892,3.89-9.105a1.812,1.812,0,0,1,3.332,0l3.89,9.107,9.839.892a1.814,1.814,0,0,1,1.029,3.171l-7.436,6.521,2.191,9.659a1.81,1.81,0,0,1-2.7,1.957l-8.485-5.07-8.485,5.073a1.828,1.828,0,0,1-.929.257m9.414-7.515a1.823,1.823,0,0,1,.929.257l8.008,4.79-2.07-9.118a1.813,1.813,0,0,1,.574-1.765l7.024-6.159-9.291-.844a1.812,1.812,0,0,1-1.506-1.1l-3.667-8.593-3.672,8.593a1.805,1.805,0,0,1-1.5,1.094l-9.291.844,7.022,6.159a1.809,1.809,0,0,1,.574,1.766l-2.069,9.118,8.008-4.789a1.827,1.827,0,0,1,.929-.257m-5.632-14.77,0,0Zm11.261,0,0,0,0,0" transform="translate(863.623 521.008)"/>
    </g>
  </g>
</svg>
