<svg xmlns="http://www.w3.org/2000/svg" xmlns:xlink="http://www.w3.org/1999/xlink" width="273.193" height="276.591" viewBox="0 0 273.193 276.591">
  <defs>
    <filter id="パス_106481" x="0" y="0" width="273.193" height="276.591" filterUnits="userSpaceOnUse">
      <feOffset dy="3" input="SourceAlpha"/>
      <feGaussianBlur stdDeviation="3" result="blur"/>
      <feFlood flood-opacity="0.161"/>
      <feComposite operator="in" in2="blur"/>
      <feComposite in="SourceGraphic"/>
    </filter>
    <clipPath id="clip-path">
      <rect id="長方形_1395" data-name="長方形 1395" width="27.063" height="27.063" transform="translate(0 0)"/>
    </clipPath>
    <clipPath id="clip">
      <use xlink:href="#fill"/>
    </clipPath>
  </defs>
  <g id="グループ_62112" data-name="グループ 62112" transform="translate(-115 -1118.152)">
    <g transform="matrix(1, 0, 0, 1, 115, 1118.15)" filter="url(#パス_106481)">
      <path id="パス_106481-2" data-name="パス 106481" d="M4.252,0H250.941a4.252,4.252,0,0,1,4.252,4.252V254.339a4.252,4.252,0,0,1-4.252,4.252H4.252A4.252,4.252,0,0,1,0,254.339V4.252A4.252,4.252,0,0,1,4.252,0Z" transform="translate(9 6)" fill="#fff"/>
    </g>
    <path id="パス_106490" data-name="パス 106490" d="M-50.56-10.68H-55.6a14.781,14.781,0,0,1-2.12-.12v1.4a16.423,16.423,0,0,1,2.12-.12h5.04v3.14h-6.16a14.283,14.283,0,0,1-2.1-.12v1.42a15.057,15.057,0,0,1,2.1-.12h6.16V-.8c0,.44-.2.58-.84.58a21.579,21.579,0,0,1-3.4-.34A4.7,4.7,0,0,1-54.44.82a29.1,29.1,0,0,0,3,.18c1.7,0,2.18-.34,2.18-1.58V-5.2h5.72a15.258,15.258,0,0,1,2.1.12V-6.5a14.664,14.664,0,0,1-2.1.12h-5.72V-9.52h4.84a15.172,15.172,0,0,1,2.12.12v-1.4a14.781,14.781,0,0,1-2.12.12h-4.84v-3.36a35.4,35.4,0,0,0,6.1-1.36l-1.1-1.18a19.437,19.437,0,0,1-5.1,1.36,52.453,52.453,0,0,1-8.28.64,3.656,3.656,0,0,1,.52,1.24,57.839,57.839,0,0,0,6.56-.52Zm29.74-2.18a9.134,9.134,0,0,1-1.86.12h-4.24c.26-.78.4-1.34.66-2.32a12.387,12.387,0,0,1,.36-1.26l-1.36-.3a15.506,15.506,0,0,1-1.02,4.3A13.527,13.527,0,0,1-30.74-8a3.089,3.089,0,0,1,1,.78,11.622,11.622,0,0,0,1.46-2.32,15.506,15.506,0,0,0,2.06,5.88A12.927,12.927,0,0,1-31.4.42a3.958,3.958,0,0,1,.82,1.12A15.7,15.7,0,0,0-25.5-2.58a14.06,14.06,0,0,0,4.44,3.96A5.215,5.215,0,0,1-20.32.14a12.384,12.384,0,0,1-4.44-3.78,13.179,13.179,0,0,0,1.56-3.6,18.14,18.14,0,0,0,.68-4.36,8.087,8.087,0,0,1,1.7.1Zm-2.94,1.26A14.015,14.015,0,0,1-24-9.28,13.927,13.927,0,0,1-25.5-4.8a17.259,17.259,0,0,1-2.02-6.36c.1-.22.1-.26.18-.44ZM-30.6-.98a17.391,17.391,0,0,0-2.08-1.18,7.844,7.844,0,0,0,1.52-3.06h.38a6.879,6.879,0,0,1,1.44.1V-6.38a6.133,6.133,0,0,1-1.4.1h-3.64c.2-.44.28-.64.54-1.3l-1.2-.28a8.822,8.822,0,0,1-.6,1.58h-1.78a6.334,6.334,0,0,1-1.42-.1v1.26a6.669,6.669,0,0,1,1.42-.1h1.22a17.341,17.341,0,0,1-1.42,2.16c1.62.6,2.16.82,3.06,1.24A11.436,11.436,0,0,1-38.96.3a4.057,4.057,0,0,1,.64,1.1,12.255,12.255,0,0,0,4.84-2.66A13.15,13.15,0,0,1-31.3.12Zm-1.76-4.24a6.448,6.448,0,0,1-1.36,2.56c-.76-.36-1.14-.5-2.22-.92.5-.78.7-1.08,1.02-1.64Zm-1.04-7.34v-2.68a6.774,6.774,0,0,1,.1-1.34h-1.34a7.154,7.154,0,0,1,.1,1.34v2.68h-2.6a8.4,8.4,0,0,1-1.62-.1v1.24a8.185,8.185,0,0,1,1.58-.1h1.84a7.389,7.389,0,0,1-.8,1.04A11.327,11.327,0,0,1-39.1-8.2a3.68,3.68,0,0,1,.88.96,10.948,10.948,0,0,0,3.76-3.94,9.369,9.369,0,0,0-.08,1.16V-8.9a3.681,3.681,0,0,1-.08.82h1.3a3.745,3.745,0,0,1-.08-.84v-1.12a9.616,9.616,0,0,0-.08-1.16,7.788,7.788,0,0,0,2.4,2.6,3.92,3.92,0,0,1,.78-.96,7.772,7.772,0,0,1-2.44-1.96h1.96a7.64,7.64,0,0,1,1.36.08v-1.2a7.109,7.109,0,0,1-1.34.08Zm-4.76-3.16a10.085,10.085,0,0,1,1.44,2.62l1.08-.44a13.95,13.95,0,0,0-1.5-2.64Zm7.32-.52a9.554,9.554,0,0,1-1.66,2.86l1,.5a15.144,15.144,0,0,0,1.74-2.86ZM-4.3-4.94l-5.46,1.3a10.866,10.866,0,0,1-1.92.32l.26,1.42a13.834,13.834,0,0,1,1.86-.54L-4.3-3.72V-.7a11.738,11.738,0,0,1-.12,2.2H-2.9A15.527,15.527,0,0,1-3.02-.68V-4.02l.46-.12A14.062,14.062,0,0,1-.64-4.48l-.24-1.4a12.508,12.508,0,0,1-1.84.56l-.3.06v-9.2a14.357,14.357,0,0,1,.12-2.08H-4.42a12.7,12.7,0,0,1,.12,2.1ZM-15.4-8.6a16.142,16.142,0,0,1-1.12,2.68A12.686,12.686,0,0,1-18.9-2.56a4.2,4.2,0,0,1,.76,1.12,15.191,15.191,0,0,0,3.08-5.72c-.06,1.06-.1,2.18-.1,3.1v3.4a17.653,17.653,0,0,1-.12,2.22h1.46a16.456,16.456,0,0,1-.12-2.2V-4.38c0-.38-.06-2.16-.1-2.96A11.834,11.834,0,0,0-11.7-3.82,6.986,6.986,0,0,1-11-4.9a11.954,11.954,0,0,1-2.86-3.7h1.1a10.569,10.569,0,0,1,1.5.08V-9.78a9.584,9.584,0,0,1-1.48.08h-1.2v-4.74a13.323,13.323,0,0,1,.12-2.12h-1.46a14.151,14.151,0,0,1,.12,2.14V-9.7h-1.58a9.056,9.056,0,0,1-1.74-.1v1.3a9.857,9.857,0,0,1,1.74-.1Zm-2.98-6.24a17.7,17.7,0,0,1,1.32,4.28l1.06-.46a23.467,23.467,0,0,0-1.34-4.28Zm6.46-.52a14.927,14.927,0,0,1-1.46,4.34l.98.46a22.583,22.583,0,0,0,1.62-4.36Zm2.02,1.2a16.929,16.929,0,0,1,3.64,3.24l.82-1.04a20.5,20.5,0,0,0-3.6-3.12Zm-.62,5A14.715,14.715,0,0,1-6.9-6.04l.84-1a17.72,17.72,0,0,0-3.58-3.04ZM14.56-15.7a15.33,15.33,0,0,1,2.06,3.18l1-.6a15.183,15.183,0,0,0-2.06-3.1ZM1.68-9.54a26.035,26.035,0,0,1,4.02-.72A29.514,29.514,0,0,1,1.42-.3L2.78.5A38.844,38.844,0,0,0,7.1-10.38a11.483,11.483,0,0,1,1.44-.1c1.86,0,2.46.68,2.46,2.8a15.482,15.482,0,0,1-.84,5.56q-.39.96-1.14.96a7.476,7.476,0,0,1-2.98-.92,3.691,3.691,0,0,1,.06.78,4.469,4.469,0,0,1-.04.72A7.524,7.524,0,0,0,9.08.2a2.089,2.089,0,0,0,1.96-.94c.82-1.16,1.34-3.82,1.34-6.88,0-1.64-.28-2.56-.98-3.22a3.822,3.822,0,0,0-2.88-.84,11.656,11.656,0,0,0-1.18.06c.16-.86.34-1.78.42-2.28a12.3,12.3,0,0,1,.38-1.92L6.54-16v.26a24.7,24.7,0,0,1-.6,4.24,41.027,41.027,0,0,1-4.42.52Zm15.16-7.22a14.485,14.485,0,0,1,2.04,3.14l1-.58a16.064,16.064,0,0,0-2.06-3.1ZM13.48-12.2a16.889,16.889,0,0,1,4.08,7.18l1.28-.72a18.315,18.315,0,0,0-4.18-7.08ZM36.7-8.18a13.83,13.83,0,0,1,2.02.12V-9.48a12.916,12.916,0,0,1-2.02.12H28.42l1.06-2.24c.18-.4.18-.4.32-.68l-1.44-.32a12.879,12.879,0,0,1-1.34,3.24H23.46a10.837,10.837,0,0,1-2.02-.12v1.42a14.216,14.216,0,0,1,2.02-.12h2.92a25.625,25.625,0,0,1-2.6,3.78,41.052,41.052,0,0,1,5.44,1.66,12.459,12.459,0,0,1-2.2,1.24A22.684,22.684,0,0,1,21.4.12a4.444,4.444,0,0,1,.74,1.26,22.891,22.891,0,0,0,2.74-.7A24.108,24.108,0,0,0,28.54-.84a10.918,10.918,0,0,0,2.02-1.38,40.819,40.819,0,0,1,6.76,3.48L38.28.12A55.831,55.831,0,0,0,31.5-3.1a12.228,12.228,0,0,0,2.94-5.08Zm-3.64,0a9.657,9.657,0,0,1-1.34,2.84,10.164,10.164,0,0,1-1.48,1.76A42.084,42.084,0,0,0,25.78-5,30.568,30.568,0,0,0,27.8-8.18Zm-3.92-6.24H23.8a17.877,17.877,0,0,1-2.14-.1,12.124,12.124,0,0,1,.1,1.52v1.14a10.482,10.482,0,0,1-.1,1.4H23v-2.8H36.98v2.8h1.34a7.82,7.82,0,0,1-.1-1.4V-13a8.807,8.807,0,0,1,.1-1.52,18.223,18.223,0,0,1-2.16.1H30.44v-.5a9.582,9.582,0,0,1,.12-1.66H29.02a10.252,10.252,0,0,1,.12,1.66Zm13.58.24A10.821,10.821,0,0,1,42.78-13c.1,4.92.38,7.48,1.08,9.38C44.54-1.7,45.58-.58,46.7-.58c1.42,0,2.34-1.34,3.32-4.84a6.393,6.393,0,0,1-1.18-1.14A14.389,14.389,0,0,1,47.8-3.14c-.3.66-.64,1-1,1-.76,0-1.58-1.38-2.02-3.42a34.25,34.25,0,0,1-.52-6.22,14.5,14.5,0,0,1,.14-2.38Zm10.12,1.7A17.663,17.663,0,0,1,57-2.62l1.42-.58a19.15,19.15,0,0,0-1.5-5.34,17.36,17.36,0,0,0-2.86-4.56Z" transform="translate(248 1186.375)" fill="#070304"/>
    <path id="パス_106499" data-name="パス 106499" d="M3.146,3.161a7.161,7.161,0,0,1-1.4-.091l.013.988a7.837,7.837,0,0,1,1.378-.065L5.5,3.98a8.459,8.459,0,0,1-.806,3.094,7.6,7.6,0,0,1-3.38,3.419,2.693,2.693,0,0,1,.663.767A9.388,9.388,0,0,0,5.382,7.815,9.8,9.8,0,0,0,6.422,3.98l3.64-.013a28.624,28.624,0,0,1-.325,4.615c-.247,1.287-.455,1.6-1.092,1.6a5.489,5.489,0,0,1-1.677-.338,2.137,2.137,0,0,1,.143.819v.156a7.4,7.4,0,0,0,1.612.221c1.17,0,1.56-.468,1.885-2.249a35.463,35.463,0,0,0,.364-4.55,1.947,1.947,0,0,1,.1-.78L10.6,3.044a2.077,2.077,0,0,1-.858.091l-3.25.013c.039-.364.039-.52.065-.923a10.854,10.854,0,0,1,.1-1.677L5.6.522a3.485,3.485,0,0,1,.052.676c0,.572-.026,1.287-.078,1.95ZM16.055.964a7.645,7.645,0,0,1,.052,1.092V5.527a7.882,7.882,0,0,1-.052,1.092h1.079a6.885,6.885,0,0,1-.052-1.079v-3.5A7.1,7.1,0,0,1,17.134.964Zm5.746,0a7.228,7.228,0,0,1,.052,1.144V3.577a16.164,16.164,0,0,1-.182,3.315,3.878,3.878,0,0,1-2.08,2.743,7.569,7.569,0,0,1-2.47.884,2.486,2.486,0,0,1,.546.9,10.235,10.235,0,0,0,2.366-.936A4.94,4.94,0,0,0,22.5,7.594a14.651,14.651,0,0,0,.325-3.965V2.1A5.8,5.8,0,0,1,22.893.964Zm7.8,1.2a5.752,5.752,0,0,1,.065-1.092H28.6a7.213,7.213,0,0,1,.052,1.079V8.14c0,.546.013.806.026,1.014a1.726,1.726,0,0,0,.533,1.248c.455.377,1.313.533,2.847.533.9,0,2.613-.091,3.445-.182l.624-.065.169-.013c.2-.026.234-.026.429-.039L36.647,9.6a6.263,6.263,0,0,1-1.287.26,25.717,25.717,0,0,1-2.977.208,13.557,13.557,0,0,1-1.534-.078,1.56,1.56,0,0,1-.988-.338c-.221-.221-.273-.52-.273-1.43V8.075L29.6,8V6.1a20.181,20.181,0,0,0,6.2-2.2c.3-.156.364-.182.559-.273L35.7,2.745c-.871.858-4.043,2.145-6.1,2.5ZM35.464.743A9.628,9.628,0,0,1,36.8,2.81l.65-.39A9.869,9.869,0,0,0,36.114.4Zm1.482-.7a9.738,9.738,0,0,1,1.326,2.041l.663-.364A11.242,11.242,0,0,0,37.583-.31ZM43.966,11.4a8.842,8.842,0,0,1-.065-1.378V6.112a4.54,4.54,0,0,0-.052-.767l.026-.013a1.434,1.434,0,0,0,.4.221,26.505,26.505,0,0,1,4.849,2.574l.559-.962A32.241,32.241,0,0,0,43.9,4.422V1.991A8.16,8.16,0,0,1,43.966.639H42.848a7.708,7.708,0,0,1,.078,1.326v8.073a8.361,8.361,0,0,1-.078,1.365ZM59.2,2.381a3.741,3.741,0,0,1,1.508.325,3.427,3.427,0,0,1,2.067,3.263,3.924,3.924,0,0,1-2.3,3.64,7.793,7.793,0,0,1-2.171.611,2.066,2.066,0,0,1,.455.871,10.057,10.057,0,0,0,1.976-.6,4.734,4.734,0,0,0,2.977-4.485,4.352,4.352,0,0,0-1.261-3.172,5.033,5.033,0,0,0-3.575-1.287,5.43,5.43,0,0,0-4.2,1.729,5.408,5.408,0,0,0-1.365,3.588c0,1.82.923,3.172,2.158,3.172.936,0,1.7-.78,2.457-2.5A19.487,19.487,0,0,0,59.2,2.381Zm-.936.013A17.856,17.856,0,0,1,57.083,7.2C56.524,8.478,56,9.089,55.458,9.089c-.7,0-1.248-.962-1.248-2.21a4.5,4.5,0,0,1,2.119-3.874A4.106,4.106,0,0,1,58.266,2.394Zm17.2,1.742a10.01,10.01,0,0,1-1.6,3.575,15.269,15.269,0,0,1-.858-4.68h2.743a10.723,10.723,0,0,1,1.456.065V2.212a7.075,7.075,0,0,1-1.391.078H72.982c-.026-.611-.026-.806-.026-1.04A5.611,5.611,0,0,1,73.021.184h-1a12.586,12.586,0,0,1,.13,2.106H68.315a13.768,13.768,0,0,1-1.586-.065,8.526,8.526,0,0,1,.078,1.521,24.725,24.725,0,0,1-.429,5.46,5.32,5.32,0,0,1-.91,1.95,2.4,2.4,0,0,1,.689.585,6.131,6.131,0,0,0,.988-2.275,18.121,18.121,0,0,0,.416-3.588h2.6a19.456,19.456,0,0,1-.169,2.548c-.091.572-.195.689-.624.689a6.75,6.75,0,0,1-1.534-.208,3.038,3.038,0,0,1,.156.845,7.734,7.734,0,0,0,1.365.117c.728,0,1.014-.117,1.209-.52a9.67,9.67,0,0,0,.39-2.8A12.674,12.674,0,0,1,71.045,5.1a6.419,6.419,0,0,1-.975.052H67.587c.013-.546.026-.988.026-2.119h4.576a16.5,16.5,0,0,0,1.1,5.408,9.416,9.416,0,0,1-3.861,2.691,2.214,2.214,0,0,1,.637.663,11.055,11.055,0,0,0,3.6-2.587,6.324,6.324,0,0,0,1.079,1.456,2.372,2.372,0,0,0,1.365.806c.338,0,.6-.208.806-.624a5.452,5.452,0,0,0,.468-1.586,3.573,3.573,0,0,1-.7-.572c-.156,1.2-.377,1.872-.585,1.872a1.23,1.23,0,0,1-.559-.3A4.653,4.653,0,0,1,74.23,8.53a11.9,11.9,0,0,0,1.729-3.172c.221-.52.351-.806.39-.871Zm.715-2.6A10.18,10.18,0,0,0,74.321.249L73.762.7a8.6,8.6,0,0,1,1.872,1.378Zm2.587,5.148a4.709,4.709,0,0,1,.793-.091c.494-.039.494-.039,1.456-.13v4.186a9.642,9.642,0,0,1-.078,1.339h.949a9.439,9.439,0,0,1-.078-1.326V6.385c.494-.052.793-.091.9-.1a2.091,2.091,0,0,0,.325-.039c.13.338.169.455.3.871l.663-.3a14.082,14.082,0,0,0-1.144-2.47l-.6.234a10.929,10.929,0,0,1,.52,1.027c-.9.117-1.131.13-2.106.195a28.466,28.466,0,0,0,2.4-3.289c.182-.26.26-.377.377-.533l-.767-.455a13.315,13.315,0,0,1-1.5,2.457c-.273-.325-.481-.559-.871-.949A19.93,19.93,0,0,0,81.6.99,4.717,4.717,0,0,1,81.9.5L81.094.132a9.672,9.672,0,0,1-1.287,2.4c-.208-.208-.273-.26-.559-.533l-.481.611A12.892,12.892,0,0,1,80.743,4.6c-.377.507-.507.676-.988,1.248-.208.013-.6.026-.663.026a2.964,2.964,0,0,1-.468-.039ZM89.154,3.122a36.409,36.409,0,0,1-.559,6.8c-.182.832-.325.988-.936.988a10.258,10.258,0,0,1-1.729-.169,3.127,3.127,0,0,1,.221.9c.52.052,1,.078,1.378.078,1.248,0,1.573-.273,1.872-1.521a32.56,32.56,0,0,0,.559-5.889,19.567,19.567,0,0,1,.065-2,7.036,7.036,0,0,1-1.053.052h-3.25c.169-.416.273-.676.377-.962.234-.65.234-.65.338-.9L85.553.275a8.139,8.139,0,0,1-.728,2.145,8.439,8.439,0,0,1-1.456,2.223,2.366,2.366,0,0,1,.676.507,10.111,10.111,0,0,0,1.326-2.028ZM79.508,7.308a9.619,9.619,0,0,1-.858,3.484l.715.338a11.512,11.512,0,0,0,.858-3.679Zm3.016.13a17.147,17.147,0,0,1,.663,3.133l.754-.247a20.691,20.691,0,0,0-.767-3.094Zm4.966.455a15.583,15.583,0,0,0-1.846-3.172l-.676.39a12.591,12.591,0,0,1,1.781,3.224Zm9.646-3.835H93.86a9.607,9.607,0,0,1-1.378-.078v.91a10.675,10.675,0,0,1,1.378-.078h3.276V6.853h-4a9.284,9.284,0,0,1-1.365-.078V7.7a9.787,9.787,0,0,1,1.365-.078h4v2.86c0,.286-.13.377-.546.377a14.026,14.026,0,0,1-2.21-.221,3.057,3.057,0,0,1,.234.9,18.913,18.913,0,0,0,1.95.117c1.1,0,1.417-.221,1.417-1.027v-3H101.7a9.918,9.918,0,0,1,1.365.078V6.775a9.532,9.532,0,0,1-1.365.078H97.981V4.812h3.146a9.862,9.862,0,0,1,1.378.078V3.98a9.607,9.607,0,0,1-1.378.078H97.981V1.874A23.012,23.012,0,0,0,101.946.99l-.715-.767a12.634,12.634,0,0,1-3.315.884,34.1,34.1,0,0,1-5.382.416,2.377,2.377,0,0,1,.338.806,37.6,37.6,0,0,0,4.264-.338Zm19.331-1.417a5.937,5.937,0,0,1-1.209.078H112.5c.169-.507.26-.871.429-1.508a8.05,8.05,0,0,1,.234-.819L112.281.2a10.079,10.079,0,0,1-.663,2.795,8.792,8.792,0,0,1-1.6,2.808,2.008,2.008,0,0,1,.65.507,7.555,7.555,0,0,0,.949-1.508,10.079,10.079,0,0,0,1.339,3.822,8.4,8.4,0,0,1-3.367,2.652,2.573,2.573,0,0,1,.533.728,10.206,10.206,0,0,0,3.3-2.678,9.139,9.139,0,0,0,2.886,2.574,3.39,3.39,0,0,1,.481-.806,8.049,8.049,0,0,1-2.886-2.457,8.566,8.566,0,0,0,1.014-2.34,11.791,11.791,0,0,0,.442-2.834,5.256,5.256,0,0,1,1.105.065Zm-1.911.819a9.11,9.11,0,0,1-.156,1.508,9.052,9.052,0,0,1-.975,2.912,11.218,11.218,0,0,1-1.313-4.134c.065-.143.065-.169.117-.286Zm-4.446,6.9a11.3,11.3,0,0,0-1.352-.767,5.1,5.1,0,0,0,.988-1.989h.247a4.471,4.471,0,0,1,.936.065V6.853a3.987,3.987,0,0,1-.91.065h-2.366c.13-.286.182-.416.351-.845l-.78-.182a5.734,5.734,0,0,1-.39,1.027h-1.157a4.117,4.117,0,0,1-.923-.065v.819a4.335,4.335,0,0,1,.923-.065h.793a11.272,11.272,0,0,1-.923,1.4c1.053.39,1.4.533,1.989.806a7.434,7.434,0,0,1-2.86,1.378,2.637,2.637,0,0,1,.416.715,7.966,7.966,0,0,0,3.146-1.729,8.547,8.547,0,0,1,1.417.9Zm-1.144-2.756a4.191,4.191,0,0,1-.884,1.664c-.494-.234-.741-.325-1.443-.6.325-.507.455-.7.663-1.066Zm-.676-4.771V1.094a4.4,4.4,0,0,1,.065-.871h-.871a4.65,4.65,0,0,1,.065.871V2.836h-1.69a5.458,5.458,0,0,1-1.053-.065v.806a5.32,5.32,0,0,1,1.027-.065h1.2a4.8,4.8,0,0,1-.52.676,7.363,7.363,0,0,1-1.924,1.482,2.392,2.392,0,0,1,.572.624A7.116,7.116,0,0,0,107.6,3.733a6.089,6.089,0,0,0-.052.754v.728a2.392,2.392,0,0,1-.052.533h.845a2.434,2.434,0,0,1-.052-.546V4.474a6.251,6.251,0,0,0-.052-.754,5.062,5.062,0,0,0,1.56,1.69,2.548,2.548,0,0,1,.507-.624,5.051,5.051,0,0,1-1.586-1.274h1.274a4.966,4.966,0,0,1,.884.052v-.78a4.621,4.621,0,0,1-.871.052ZM105.2.782a6.555,6.555,0,0,1,.936,1.7l.7-.286a9.067,9.067,0,0,0-.975-1.716Zm4.758-.338A6.21,6.21,0,0,1,108.875,2.3l.65.325A9.844,9.844,0,0,0,110.656.769Zm17.251,7.345-3.549.845a7.063,7.063,0,0,1-1.248.208l.169.923a8.992,8.992,0,0,1,1.209-.351l3.419-.832v1.963a7.629,7.629,0,0,1-.078,1.43h.988a10.092,10.092,0,0,1-.078-1.417V8.387l.3-.078a9.141,9.141,0,0,1,1.248-.221l-.156-.91a8.13,8.13,0,0,1-1.2.364l-.195.039V1.6a9.332,9.332,0,0,1,.078-1.352h-.988a8.252,8.252,0,0,1,.078,1.365ZM119.99,5.41a10.492,10.492,0,0,1-.728,1.742,8.246,8.246,0,0,1-1.547,2.184,2.731,2.731,0,0,1,.494.728,9.874,9.874,0,0,0,2-3.718c-.039.689-.065,1.417-.065,2.015v2.21a11.474,11.474,0,0,1-.078,1.443h.949a10.7,10.7,0,0,1-.078-1.43V8.153c0-.247-.039-1.4-.065-1.924a7.692,7.692,0,0,0,1.521,2.288,4.541,4.541,0,0,1,.455-.7,7.771,7.771,0,0,1-1.859-2.405h.715a6.87,6.87,0,0,1,.975.052V4.643a6.23,6.23,0,0,1-.962.052h-.78V1.614a8.66,8.66,0,0,1,.078-1.378h-.949a9.2,9.2,0,0,1,.078,1.391V4.695h-1.027a5.886,5.886,0,0,1-1.131-.065v.845a6.407,6.407,0,0,1,1.131-.065Zm-1.937-4.056a11.5,11.5,0,0,1,.858,2.782l.689-.3a15.254,15.254,0,0,0-.871-2.782Zm4.2-.338a9.7,9.7,0,0,1-.949,2.821l.637.3A14.679,14.679,0,0,0,122.993,1.3Zm1.313.78A11,11,0,0,1,125.931,3.9l.533-.676a13.327,13.327,0,0,0-2.34-2.028Zm-.4,3.25a9.565,9.565,0,0,1,2.353,2.028l.546-.65a11.518,11.518,0,0,0-2.327-1.976Zm11.609-.754h.052a.6.6,0,0,1,.13.013,1.936,1.936,0,0,1,.221.013,3.409,3.409,0,0,1,.416.026c.455.026.936.039,1.469.039.494,0,.9-.013,1.482-.039.039,1.9.091,3.12.13,3.393a3.672,3.672,0,0,0-1.443-.26c-1.443,0-2.47.767-2.47,1.846,0,1.131.949,1.846,2.457,1.846a2.22,2.22,0,0,0,2.171-1.092,2.241,2.241,0,0,0,.156-.884,1.865,1.865,0,0,0-.026-.338.913.913,0,0,1,.117.078.834.834,0,0,0,.13.078,7.024,7.024,0,0,1,1.846,1.352l.4-.91c-.143-.091-.169-.117-.325-.221a9.41,9.41,0,0,0-2.171-1.274c-.1-1.729-.13-2.392-.143-3.679a12.429,12.429,0,0,0,1.378-.208c.884-.182.884-.182.91-.182l-.039-.884a8.86,8.86,0,0,1-2.249.481c-.013-.286-.013-.494-.013-.637a13.3,13.3,0,0,1,.091-2.041h-.975a2.884,2.884,0,0,1,.039.533c0,.988,0,.988.013,2.21-.533.026-.884.039-1.391.039a9,9,0,0,1-2.34-.208Zm3.913,4.238s.013.3.013.39a1.519,1.519,0,0,1-.247,1.014,1.792,1.792,0,0,1-1.326.455c-.91,0-1.508-.416-1.508-1.053s.663-1.079,1.677-1.079A3.358,3.358,0,0,1,138.684,8.53ZM132.47.8a5.988,5.988,0,0,1-.143.819,22.027,22.027,0,0,0-.676,5.343,20.7,20.7,0,0,0,.364,3.861c.052.3.065.364.078.481l.923-.091a1.416,1.416,0,0,1-.026-.26,11.226,11.226,0,0,1,1.118-3.692l-.637-.3a1.791,1.791,0,0,1-.1.26,11.539,11.539,0,0,0-.767,2.288l-.052-.013V9.245c-.013-.234-.013-.26-.013-.364-.026-.6-.052-1.365-.052-1.82a18.524,18.524,0,0,1,1-6.1ZM145.093,2a7.858,7.858,0,0,1,1.131-.078h.7V9.453a8.2,8.2,0,0,1-.1,1.469h1.235a8.294,8.294,0,0,1-.1-1.469V3.135A21.329,21.329,0,0,1,148.07.977a7.4,7.4,0,0,1-1.079.065h-.819a6.3,6.3,0,0,1-1.079-.065Zm9.009-.065h3.055a9.019,9.019,0,0,1,1.521.1V.938a8.539,8.539,0,0,1-1.521.1h-2.678A8.841,8.841,0,0,1,153.1.977a5.2,5.2,0,0,1,.026.559c0,.247-.013.4-.039.78L152.8,5.254a10.358,10.358,0,0,1-.2,1.339l.975.091a1.668,1.668,0,0,1,.6-.78,2.7,2.7,0,0,1,1.7-.546,2.181,2.181,0,0,1,2.275,2.366,2.32,2.32,0,0,1-2.431,2.483,2.418,2.418,0,0,1-1.846-.767,1.973,1.973,0,0,1-.416-.754L152.4,9a4.042,4.042,0,0,0,.819,1.222,3.516,3.516,0,0,0,2.483.884,3.243,3.243,0,0,0,3.51-3.432,3.017,3.017,0,0,0-.871-2.288A3.262,3.262,0,0,0,156,4.5a3.159,3.159,0,0,0-2.275.9,3.744,3.744,0,0,0,.1-.585Zm9.581,4.537a2.163,2.163,0,0,0,1.534-.585,3,3,0,0,0,.715-2.184c0-1.755-.832-2.769-2.249-2.769s-2.262,1.027-2.262,2.769a3,3,0,0,0,.715,2.184A2.173,2.173,0,0,0,163.683,6.476Zm0-4.771c.884,0,1.378.715,1.378,2s-.507,2-1.378,2-1.391-.728-1.391-2S162.786,1.7,163.683,1.7Zm-1.313,9.113.546.429,7.878-9.971L170.248.86Zm7.124.364a2.163,2.163,0,0,0,1.534-.585,2.989,2.989,0,0,0,.715-2.171c0-1.768-.819-2.782-2.249-2.782s-2.262,1.027-2.262,2.769a3,3,0,0,0,.715,2.184A2.119,2.119,0,0,0,169.494,11.182Zm0-4.771c.884,0,1.378.715,1.378,2s-.507,2-1.378,2-1.391-.728-1.391-2S168.6,6.411,169.494,6.411Zm10.569,2.158c-.026-.325-.039-.559-.039-.793,0-.052,0-.052.013-.6l.1-4.628c.013-.546.039-.936.078-1.43h-1.287c.052.494.065.884.078,1.43l.117,4.628v.468c0,.429,0,.52-.026.923ZM180.219,11V9.778h-1.261V11Zm17.576-.7a32.329,32.329,0,0,0-4.329-3.9,15.72,15.72,0,0,0,2.145-3.64,2.426,2.426,0,0,1,.364-.637l-.546-.559a2.424,2.424,0,0,1-.832.1l-4.641.052h-.338a6.109,6.109,0,0,1-1.027-.065l.026,1.053a8.747,8.747,0,0,1,1.339-.1l4.342-.065a2.208,2.208,0,0,0,.312-.013.275.275,0,0,1-.039.091c-.026.065-.039.078-.065.156a14.09,14.09,0,0,1-4.641,5.863,10.465,10.465,0,0,1-2.639,1.495,2.893,2.893,0,0,1,.637.858,16.741,16.741,0,0,0,2.548-1.56A14.112,14.112,0,0,0,192.894,7.1a24.179,24.179,0,0,1,4.16,4.017Zm6.422-7.085-2.652.416a9.739,9.739,0,0,1-1.352.13l.182.988a10.707,10.707,0,0,1,1.3-.286l2.678-.416.468,2.626-3.458.559a6.841,6.841,0,0,1-1.287.117l.169.988a6.884,6.884,0,0,1,1.248-.26L205,7.516l.533,2.912a10.361,10.361,0,0,1,.156,1.248l1.04-.195a7.055,7.055,0,0,1-.286-1.235l-.533-2.873,3.263-.52c.091-.013.156-.026.3-.052.221-.039.351-.065.4-.065a3.842,3.842,0,0,1,.572-.065l-.182-.962a7.988,7.988,0,0,1-1.287.3l-3.224.52L205.257,3.9l2.951-.455c.806-.13.806-.13,1.157-.169l-.182-.936a6.106,6.106,0,0,1-1.144.26l-2.938.455-.26-1.43a6.7,6.7,0,0,1-.143-1.1l-1.027.169a4.434,4.434,0,0,1,.286,1.1ZM3.5,18.094a5.783,5.783,0,0,1,.052.923,17.735,17.735,0,0,1-.585,5.577,6.431,6.431,0,0,1-2.2,2.99,2.4,2.4,0,0,1,.78.7A7.947,7.947,0,0,0,3.8,25.075c.494-1.313.6-2.275.7-5.8a6.476,6.476,0,0,1,.078-1.118ZM6.734,18a5.216,5.216,0,0,1,.052,1.157l-.078,7.6a2.191,2.191,0,0,1-.091.884l.52.6a2.166,2.166,0,0,1,.3-.143c.182-.065.182-.065.416-.156A8.569,8.569,0,0,0,9.711,27a7.386,7.386,0,0,0,2.613-3.341A3.635,3.635,0,0,1,11.6,22.9a6.429,6.429,0,0,1-1.534,2.6,6.008,6.008,0,0,1-2.418,1.508l.078-7.852A5.04,5.04,0,0,1,7.8,18.016Zm8.775.793a13.671,13.671,0,0,1,3.2,1.716l.533-.871A19.223,19.223,0,0,0,16.016,18ZM14.482,21.9A14.434,14.434,0,0,1,17.8,23.684l.507-.871a19.831,19.831,0,0,0-3.3-1.7Zm.442,6.227a3.051,3.051,0,0,1,.507-.143c.26-.052.494-.1.7-.143a14.849,14.849,0,0,0,3.289-1.118,10.19,10.19,0,0,0,5-5.6,3.92,3.92,0,0,1-.806-.689,9.68,9.68,0,0,1-1.56,2.912,8.562,8.562,0,0,1-3.9,2.9,11.242,11.242,0,0,1-3.5.806Zm17.563-5.421h2a6.2,6.2,0,0,1,1.144.052v-.91a6.6,6.6,0,0,1-1.157.078H29.731a6.8,6.8,0,0,1-1.157-.078v.91a8.471,8.471,0,0,1,1.157-.052H31.59v4.5H28.951a5.3,5.3,0,0,1-1.17-.078v.923A9.168,9.168,0,0,1,28.964,28h6.292a9.429,9.429,0,0,1,1.183.052v-.91a6.545,6.545,0,0,1-1.17.065H32.487Zm17.459-4.3c-.234.091-.234.091-1.1.091H41.86a9.528,9.528,0,0,1-1.547-.091v1a12.552,12.552,0,0,1,1.534-.065h7.384a6.9,6.9,0,0,1-1.456,1.937,5.628,5.628,0,0,1-2.054,1.235,2.554,2.554,0,0,1,.637.741,7.781,7.781,0,0,0,3.8-3.705,2.333,2.333,0,0,1,.312-.52Zm-5.668,2.262a3.433,3.433,0,0,1,.052.7c0,2.535-.507,3.861-1.885,4.966a6.109,6.109,0,0,1-2.379,1.2,2.542,2.542,0,0,1,.6.871,7.082,7.082,0,0,0,3.328-2.249,6.963,6.963,0,0,0,1.287-4.576,4.715,4.715,0,0,1,.052-.91Zm11.843-1.417a18.19,18.19,0,0,1-2.782-.143l-.013.9a2.305,2.305,0,0,1,.286-.013h.208c.481.013,1.7.039,1.911.039a1.44,1.44,0,0,0,.247-.026l-.117.195a12.936,12.936,0,0,1-2.912,3.718l.728.728a4.3,4.3,0,0,1,1-1.079,4.884,4.884,0,0,1,2.9-1.378c.611,0,.923.312,1.027,1.027a10.092,10.092,0,0,0-1.937,1.04,2.688,2.688,0,0,0-1.326,2.054c0,1.339,1.131,2,3.458,2a20.168,20.168,0,0,0,3.159-.26,5.116,5.116,0,0,1,.52-.065l-.117-1a10.892,10.892,0,0,1-3.471.507c-1.833,0-2.639-.377-2.639-1.235,0-.78.676-1.391,2.444-2.223a3.416,3.416,0,0,1,.013.39A18.7,18.7,0,0,1,58.63,26.3l.884-.013a2.826,2.826,0,0,1-.026-.468c0-.117,0-.3.013-.585.013-.26.013-.546.013-.715,0-.325,0-.455-.026-.793a21.584,21.584,0,0,1,3.471-1.144l-.416-.91a2.86,2.86,0,0,1-.884.377c-.572.208-1.313.481-2.262.858a1.578,1.578,0,0,0-1.716-1.443,3.46,3.46,0,0,0-1.963.637c-.13.091-.13.091-.6.455a.1.1,0,0,1-.026-.039V22.5a.013.013,0,0,0,.013-.013c.013-.013.078-.065.169-.13.052-.039.312-.338.442-.494a9.586,9.586,0,0,0,1.17-1.846,41.976,41.976,0,0,0,4.29-.338,4.052,4.052,0,0,1,.52-.065l-.078-.884a18.3,18.3,0,0,1-4.1.494,2.213,2.213,0,0,0-.273.013c.065-.117.234-.468.4-.884a2.761,2.761,0,0,1,.338-.7l-1.04-.182a5.517,5.517,0,0,1-.624,1.781Zm16.12.182a13.138,13.138,0,0,1-2.652.559V18.744a7.435,7.435,0,0,1,.065-1.209h-.962a8.635,8.635,0,0,1,.065,1.235v1.287c-.39.026-.9.039-1.248.039a7.363,7.363,0,0,1-1.326-.091v.858h.533c.143.013.494.013.689.013.377,0,.6,0,.832-.013.4-.026.4-.026.52-.039v2.457a6.954,6.954,0,0,0-1.833,1.066A2.353,2.353,0,0,0,65.9,26.076a1.568,1.568,0,0,0,.6,1.222,3.433,3.433,0,0,0,2.145.832c.637,0,.949-.338.949-1.04V23.84a8.771,8.771,0,0,1,2.756-.507c1.7,0,2.782.793,2.782,2.067a1.726,1.726,0,0,1-1.742,1.833c-.949,0-1.339-.559-1.339-1.911a3.861,3.861,0,0,1,.026-.507,2.818,2.818,0,0,1-.858.338,4.744,4.744,0,0,0,.156,1.469,1.917,1.917,0,0,0,2,1.469A2.675,2.675,0,0,0,74.685,23.1a4.4,4.4,0,0,0-2.3-.546,9.21,9.21,0,0,0-2.8.468V20.772a22.816,22.816,0,0,0,2.3-.39c.182-.039.234-.052.39-.078Zm-3.484,7.176c0,.559-.039.637-.3.637a2.428,2.428,0,0,1-1.157-.377c-.377-.247-.559-.507-.559-.78,0-.624.728-1.326,2.015-1.95Zm7.813-5.5a10.924,10.924,0,0,0-2.626-2.47l-.676.507a10.647,10.647,0,0,1,2.626,2.548Zm10.621,2.249v1.066H82.5a7.432,7.432,0,0,1-1.2-.078v.845a8.285,8.285,0,0,1,1.2-.065h4.693v2.561c0,.26-.091.312-.585.312a10.286,10.286,0,0,1-1.521-.156,2.6,2.6,0,0,1,.208.871c.494.039.9.052,1.3.052,1.118,0,1.4-.195,1.4-.936v-2.7h.494a8.068,8.068,0,0,1,1.2.065v-.845a7.432,7.432,0,0,1-1.2.078H88V23.359h.442a8.285,8.285,0,0,1,1.2.065v-.845a7.172,7.172,0,0,1-1.209.078H82.654a7.242,7.242,0,0,1-1.209-.065v.832a8.176,8.176,0,0,1,1.2-.065Zm-6.305-6.214a6.981,6.981,0,0,1-2.691,2.847,2.4,2.4,0,0,1,.546.611,9.252,9.252,0,0,0,1.885-1.69c.3-.351.3-.351.988-1.287Zm6.721,4.576a10.034,10.034,0,0,1,1.209.052,9.367,9.367,0,0,1-.052-1.209V18.887a9.5,9.5,0,0,1,.052-1.209,9.674,9.674,0,0,1-1.248.052H83.9a10.174,10.174,0,0,1-1.261-.052c.026.325.039.546.039,1.183v1.69c0,.65-.013.9-.039,1.222a9.6,9.6,0,0,1,1.222-.052ZM83.46,18.393h4.511v.975H83.46Zm0,1.638h4.511v1.04H83.46Zm1.768,7.215a13.816,13.816,0,0,0-1.716-1.911l-.624.481a8.823,8.823,0,0,1,1.664,2.015Zm-5.447.273a10.045,10.045,0,0,1-.078,1.43h.988a8.757,8.757,0,0,1-.078-1.456v-5.46a19.218,19.218,0,0,0,1.131-1.664l-.754-.481a5.052,5.052,0,0,1-.572,1.118,9.023,9.023,0,0,1-2.431,2.483,2.484,2.484,0,0,1,.494.7,5.933,5.933,0,0,0,1.339-1.339c-.026.585-.039.988-.039,1.508ZM93.132,17.86a7.238,7.238,0,0,1-.182,1.04,21.507,21.507,0,0,0-.585,5.148,18.632,18.632,0,0,0,.338,3.679c.039.247.052.312.078.52l.936-.078v-.195A11.332,11.332,0,0,1,94.77,24.4l-.624-.3a12.078,12.078,0,0,0-.845,2.535c-.052-.689-.078-1.456-.078-2.47a19.218,19.218,0,0,1,.39-4.069,18.471,18.471,0,0,1,.546-2.08Zm2.678,2.457a17.315,17.315,0,0,0,2.08.13,21.946,21.946,0,0,0,2.795-.169q.858-.117.9-.117l-.065-.923a13.949,13.949,0,0,1-3.484.351,8.83,8.83,0,0,1-2.21-.195Zm.949,2.535a3.591,3.591,0,0,0-1.131,2.418,1.838,1.838,0,0,0,.39,1.2A3.613,3.613,0,0,0,99,27.454a13.412,13.412,0,0,0,2.665-.26c.26-.039.286-.052.455-.065l-.13-1a8.556,8.556,0,0,1-2.99.455c-1.677,0-2.5-.468-2.5-1.43a3.02,3.02,0,0,1,.975-1.911Zm12.233-.143a3.533,3.533,0,0,1,.819-.13c2.34-.208,2.886-.273,4.992-.559.221.442.286.572.533,1.118l.741-.442a22.588,22.588,0,0,0-2.34-3.757l-.715.364a15.458,15.458,0,0,1,1.43,2.054c-1.638.208-1.924.234-3.8.39.689-1.534.949-2.171,1.222-2.951a10.825,10.825,0,0,1,.494-1.4l-.988-.247A18.766,18.766,0,0,1,109.8,21.8c-.182,0-.377.013-.455.013-.234,0-.364-.013-.546-.026Zm-2.171-2.873c.156-.767.26-1.352.338-1.794a6.075,6.075,0,0,1,.143-.754l-.936-.091a.746.746,0,0,1,.013.156,14,14,0,0,1-.351,2.483h-.559a6.5,6.5,0,0,1-1.066-.078v.884a6.391,6.391,0,0,1,1.04-.078h.429a18.712,18.712,0,0,1-1.183,3.614,14.088,14.088,0,0,1,1.937,1.339,8.136,8.136,0,0,1-2.392,2.535,2.34,2.34,0,0,1,.6.637,8.354,8.354,0,0,0,2.4-2.639,12.746,12.746,0,0,1,1.248,1.326l.52-.715a17.578,17.578,0,0,0-1.378-1.339,12.156,12.156,0,0,0,.988-3.484c.091-.572.091-.572.234-2.054a8.642,8.642,0,0,1-1.2.052Zm1.17.728A11.941,11.941,0,0,1,107,24.815c-.416-.312-.65-.468-1.352-.949a22.649,22.649,0,0,0,1.014-3.3Zm2.457,7.657H114.3v.754h.9a6.776,6.776,0,0,1-.078-1.352V24.36a6.325,6.325,0,0,1,.065-.845,8.82,8.82,0,0,1-1.235.052h-3.2a9.5,9.5,0,0,1-1.157-.052,9.63,9.63,0,0,1,.052,1.209v3.094a8.472,8.472,0,0,1-.052,1.157h.858Zm0-3.913H114.3V27.48h-3.848Zm9.048-5.915a3.034,3.034,0,0,1,.169.689c.117.65.273,1.417.364,1.833a5,5,0,0,0-1.3,1.326,4.668,4.668,0,0,0-.754,2.483c0,1.534.741,2.548,1.872,2.548a3.174,3.174,0,0,0,2.314-1.482,14.708,14.708,0,0,0,2.522-5.1c1.794.377,2.743,1.417,2.743,3a3.2,3.2,0,0,1-.572,1.846,4.23,4.23,0,0,1-1.95,1.417,5.891,5.891,0,0,1-1.937.481,2.148,2.148,0,0,1,.507.871c.559-.13.624-.143.819-.195a6.9,6.9,0,0,0,2.626-1.287,4.087,4.087,0,0,0,1.417-3.12,3.789,3.789,0,0,0-3.445-3.783c.065-.247.091-.39.156-.611a10.262,10.262,0,0,1,.351-1.365l-.975-.208a14.6,14.6,0,0,1-.4,2.093c-.182-.013-.338-.013-.429-.013a6.194,6.194,0,0,0-2.782.65,16.854,16.854,0,0,1-.351-2.262Zm.754,3.393a17.971,17.971,0,0,0,1.222,3.5c-.585.715-1.144,1.1-1.6,1.1-.637,0-1.053-.676-1.053-1.7a3.876,3.876,0,0,1,.52-1.82A3.835,3.835,0,0,1,120.25,21.786Zm1.807,2.782a2.1,2.1,0,0,0-.1-.3,18.43,18.43,0,0,1-.975-3.016,4.858,4.858,0,0,1,2.509-.663c.065,0,.182.013.325.013a14.845,14.845,0,0,1-1.586,3.679,2.128,2.128,0,0,0-.156.286Zm11.687-5.993a14.479,14.479,0,0,0,1.989.819,20.052,20.052,0,0,0,2.535.741l.364-.91a15.673,15.673,0,0,1-4.407-1.443Zm-1.079,1.4a4.37,4.37,0,0,1-.091.689c-.182,1.092-.416,2.6-.546,3.588-.052.416-.065.533-.1.767l1.014.026a2.26,2.26,0,0,1,.52-.533,6.3,6.3,0,0,1,3.64-1.131c1.586,0,2.522.624,2.522,1.69,0,1.326-1.365,2.184-3.51,2.184a9.233,9.233,0,0,1-3.315-.65,3.007,3.007,0,0,1,.091.806,2.049,2.049,0,0,1-.013.247c.793.195.793.195,1.04.26a10.8,10.8,0,0,0,2.275.234,5.4,5.4,0,0,0,3.237-.858,2.779,2.779,0,0,0,1.17-2.236c0-1.521-1.365-2.509-3.484-2.509a6.435,6.435,0,0,0-3.757,1.118,3.639,3.639,0,0,0-.4.39l-.026-.013a1.566,1.566,0,0,0,.052-.3c.039-.3.065-.39.377-2.275a10.878,10.878,0,0,1,.3-1.43Zm11.375,6.409a2.755,2.755,0,0,1,.338-.416c.221-.247.4-.455.546-.611.442-.494.442-.494.637-.715a1.444,1.444,0,0,0,.234-.312h.026c-.039.585-.039.585-.039,2.106a11.115,11.115,0,0,1-.091,2.145h1.014a20.156,20.156,0,0,1-.039-2.158V23.619a21.081,21.081,0,0,1,2.509-2.21,3.7,3.7,0,0,1,1.963-.884.659.659,0,0,1,.715.7,9.745,9.745,0,0,1-.325,1.95,12.628,12.628,0,0,0-.494,3.029,1.5,1.5,0,0,0,1.521,1.755,2.238,2.238,0,0,0,1.794-.936,6.417,6.417,0,0,0,.806-1.287,4.279,4.279,0,0,1-.6-.884,5.35,5.35,0,0,1-.741,1.495,1.568,1.568,0,0,1-1.1.715c-.507,0-.78-.325-.78-.923a14.3,14.3,0,0,1,.559-3.081,8.684,8.684,0,0,0,.3-1.9,1.413,1.413,0,0,0-1.521-1.521,5.225,5.225,0,0,0-2.938,1.43,9.279,9.279,0,0,0-1.651,1.521l-.026-.013c0-.078.013-.1.013-.208a.664.664,0,0,0,.013-.117c.013-.611.013-.611.026-.871a2.215,2.215,0,0,0,.013-.325,4.48,4.48,0,0,1,.663-.806l-.338-.4a.849.849,0,0,1-.26.065,15.133,15.133,0,0,1,.156-2.314l-1.027-.013a5.291,5.291,0,0,1,.039.65c0,.169-.013.754-.052,1.742-1.092.065-1.664.1-1.7.1a2.63,2.63,0,0,1-.4-.026l.052.9a13.247,13.247,0,0,1,2.041-.182c-.039,1.144-.065,1.963-.078,2.483a19.962,19.962,0,0,1-2.288,2.2Zm14.7-7.1a6.4,6.4,0,0,1,.7-.065c1.976-.065,3.536-.156,3.952-.234a.5.5,0,0,1,.117-.013l.026.026-.052.052-.052.052-.182.182c-.9.884-2.951,2.691-4.342,3.8a14.483,14.483,0,0,1-1.82,1.326l.585.832a8.343,8.343,0,0,1,5.473-2.223c1.755,0,2.8.741,2.8,1.989,0,1.1-.715,1.9-2.08,2.275a3.721,3.721,0,0,0-.6-1.248,2.618,2.618,0,0,0-2.145-1.066,1.689,1.689,0,0,0-1.885,1.521c0,1.2,1.053,1.872,2.886,1.872,2.886,0,4.771-1.339,4.771-3.367,0-1.664-1.391-2.73-3.562-2.73a6.587,6.587,0,0,0-3.185.806l-.026-.039a33.357,33.357,0,0,0,4.277-3.692,2.4,2.4,0,0,1,.663-.546l-.546-.715a1.329,1.329,0,0,1-.624.143c-1.17.091-2.9.169-3.978.169a6,6,0,0,1-1.222-.078Zm4.264,8.229a4.681,4.681,0,0,1-.949.091,3.322,3.322,0,0,1-1.456-.3.887.887,0,0,1-.52-.793c0-.494.4-.806,1.053-.806C162.071,25.712,162.721,26.336,163.007,27.519Zm16.939-9.113c-.234.091-.234.091-1.1.091H171.86a9.528,9.528,0,0,1-1.547-.091v1a12.552,12.552,0,0,1,1.534-.065h7.384a6.9,6.9,0,0,1-1.456,1.937,5.628,5.628,0,0,1-2.054,1.235,2.554,2.554,0,0,1,.637.741,7.781,7.781,0,0,0,3.8-3.705,2.333,2.333,0,0,1,.312-.52Zm-5.668,2.262a3.433,3.433,0,0,1,.052.7c0,2.535-.507,3.861-1.885,4.966a6.109,6.109,0,0,1-2.379,1.2,2.542,2.542,0,0,1,.6.871,7.082,7.082,0,0,0,3.328-2.249,6.963,6.963,0,0,0,1.287-4.576,4.717,4.717,0,0,1,.052-.91Zm16.991-1.755h-6.4a9.216,9.216,0,0,1-1.469-.078v1.04a9.6,9.6,0,0,1,1.456-.078h6.617a10.535,10.535,0,0,1-2.275,4.628,10.439,10.439,0,0,1-4.758,2.951,2.572,2.572,0,0,1,.637.9,12.064,12.064,0,0,0,4.732-3.081,11.61,11.61,0,0,0,2.652-5.174l.026-.078a1.532,1.532,0,0,0,.455.065,1.476,1.476,0,1,0-1.469-1.469,1.378,1.378,0,0,0,.052.377Zm1.69-1.313a.93.93,0,1,1-.936.923A.927.927,0,0,1,192.959,17.6Zm4.706.364a7.645,7.645,0,0,1,.052,1.092v3.471a7.881,7.881,0,0,1-.052,1.092h1.079a6.884,6.884,0,0,1-.052-1.079v-3.5a7.1,7.1,0,0,1,.052-1.079Zm5.746,0a7.228,7.228,0,0,1,.052,1.144v1.469a16.165,16.165,0,0,1-.182,3.315,3.878,3.878,0,0,1-2.08,2.743,7.569,7.569,0,0,1-2.47.884,2.486,2.486,0,0,1,.546.9,10.235,10.235,0,0,0,2.366-.936,4.94,4.94,0,0,0,2.47-2.886,14.651,14.651,0,0,0,.325-3.965V19.1a5.8,5.8,0,0,1,.065-1.131ZM1.235,37.421a43.278,43.278,0,0,1,4.485-.429,26.606,26.606,0,0,0,2.86-.286,8.51,8.51,0,0,0-1.235.689,4.946,4.946,0,0,0-2.431,3.991,3.148,3.148,0,0,0,1.443,2.652,6.557,6.557,0,0,0,2.808,1c.234.039.26.052.4.078l.169-1.053h-.13a6.663,6.663,0,0,1-1.95-.416,2.549,2.549,0,0,1-1.82-2.4,3.973,3.973,0,0,1,1.6-3,6.394,6.394,0,0,1,2.5-1.3,5.453,5.453,0,0,1,1.456-.182L11.31,35.8a8.779,8.779,0,0,1-1.547.143l-.741.026c-.429.013-.6.026-2.2.117l-2.041.13c-1.6.091-1.677.1-2.4.156-.4.026-.559.039-.741.039-.091,0-.221,0-.468-.013Zm7.982,1.248a9.142,9.142,0,0,1,1.326,2.067l.663-.39a9.869,9.869,0,0,0-1.339-2.015Zm1.482-.7a10.287,10.287,0,0,1,1.326,2.041l.65-.364a10.535,10.535,0,0,0-1.339-2.028Zm9.49-1.625c-.884.026-1.9.052-3.146.1-2.093.078-2.093.078-2.47.078-.195,0-.286,0-.52-.013l.039.949c.871-.143,3.5-.273,6.11-.325v.676c0,.156.013.286.013.338,0,.481,0,.533.013.715a2,2,0,0,0-1.508-.585,2.163,2.163,0,0,0-2.3,2.145,2.015,2.015,0,0,0,2.132,2.054,2.032,2.032,0,0,0,1.638-.7,1.821,1.821,0,0,0,.351-.637,3.367,3.367,0,0,1-1.456,2.743,6.663,6.663,0,0,1-2.106.975,2.854,2.854,0,0,1,.572.819A8.269,8.269,0,0,0,19.6,44.623a4.184,4.184,0,0,0,1.742-3.393,3.725,3.725,0,0,0-.312-1.534V37.122c1.053-.026,1.2-.026,1.391-.026a23.106,23.106,0,0,1,2.483.065v-.923c-.429.052-1.43.078-3.887.091v-.143a10.762,10.762,0,0,1,.065-1.625h-.975a4.381,4.381,0,0,1,.052.754Zm-.039,3.8a1.457,1.457,0,0,1-1.521,1.534,1.256,1.256,0,0,1-1.339-1.287,1.376,1.376,0,0,1,1.443-1.365,1.663,1.663,0,0,1,.871.208A.941.941,0,0,1,20.15,40.138Zm7.215,1.807a1.95,1.95,0,1,0,1.95,1.95A1.947,1.947,0,0,0,27.365,41.945Zm0,.741A1.209,1.209,0,1,1,26.156,43.9,1.215,1.215,0,0,1,27.365,42.686Z" transform="translate(142 1302.145)" fill="#1b1311"/>
    <g id="グループ_62009" data-name="グループ 62009" transform="translate(-49.121 -247.998)">
      <g id="長方形_1825" data-name="長方形 1825" transform="translate(306.323 1492.75)" fill="#fff" stroke="#707070" stroke-width="1">
        <rect id="fill" width="0.541" height="0.541" stroke="none"/>
        <path d="M0,0.04125553369522095h0.541255533695221M0.5,0v0.541255533695221M0.541255533695221,0.5h-0.541255533695221M0.04125553369522095,0.541255533695221v-0.541255533695221" fill="none" clip-path="url(#clip)"/>
      </g>
      <path id="パス_51327" data-name="パス 51327" d="M21.1,10.7a21.89,21.89,0,0,1,37.632,0L76.651,40.653c8.817,14.738-1.726,33.52-18.816,33.52H22c-17.09,0-27.633-18.783-18.816-33.52Z" transform="matrix(0.961, 0.276, -0.276, 0.961, 270.379, 1437)" fill="#ffc2b9"/>
      <path id="パス_51326" data-name="パス 51326" d="M21.318,10.742a22.191,22.191,0,0,1,38.02,0L77.44,40.8A22.191,22.191,0,0,1,58.43,74.44h-36.2A22.191,22.191,0,0,1,3.216,40.8Z" transform="translate(324.652 1539.497) rotate(-164)" fill="#ff8977" opacity="0.6"/>
      <g id="グループ_2837" data-name="グループ 2837" transform="translate(283.861 1475.429)" clip-path="url(#clip-path)">
        <path id="パス_5733" data-name="パス 5733" d="M26,42.261H1.131a1.131,1.131,0,1,1,0-2.261H26a1.131,1.131,0,1,1,0,2.261" transform="translate(-0.271 -17.658)"/>
        <path id="パス_5734" data-name="パス 5734" d="M7.653,26.133A1.131,1.131,0,0,1,6.523,25V14.261H4.261V25A1.131,1.131,0,0,1,2,25V13.131A1.131,1.131,0,0,1,3.131,12H7.653a1.131,1.131,0,0,1,1.131,1.131V25a1.131,1.131,0,0,1-1.131,1.131" transform="translate(-1.14 -5.487)"/>
        <path id="パス_5735" data-name="パス 5735" d="M23.653,29.176a1.131,1.131,0,0,1-1.131-1.131V21.261H20.261v6.784a1.131,1.131,0,1,1-2.261,0V20.131A1.131,1.131,0,0,1,19.131,19h4.523a1.131,1.131,0,0,1,1.131,1.131v7.914a1.131,1.131,0,0,1-1.131,1.131" transform="translate(-8.095 -8.53)"/>
        <path id="パス_5736" data-name="パス 5736" d="M39.653,22.221a1.131,1.131,0,0,1-1.131-1.131V5.261H36.261V21.09a1.131,1.131,0,1,1-2.261,0V4.131A1.131,1.131,0,0,1,35.131,3h4.523a1.131,1.131,0,0,1,1.131,1.131V21.09a1.131,1.131,0,0,1-1.131,1.131" transform="translate(-15.05 -1.575)"/>
      </g>
    </g>
  </g>
</svg>
