<svg xmlns="http://www.w3.org/2000/svg" xmlns:xlink="http://www.w3.org/1999/xlink" width="273.193" height="276.591" viewBox="0 0 273.193 276.591">
  <defs>
    <filter id="パス_106513" x="0" y="0" width="273.193" height="276.591" filterUnits="userSpaceOnUse">
      <feOffset dy="3" input="SourceAlpha"/>
      <feGaussianBlur stdDeviation="3" result="blur"/>
      <feFlood flood-opacity="0.161"/>
      <feComposite operator="in" in2="blur"/>
      <feComposite in="SourceGraphic"/>
    </filter>
  </defs>
  <g id="グループ_62103" data-name="グループ 62103" transform="translate(-956 -534.152)">
    <g transform="matrix(1, 0, 0, 1, 956, 534.15)" filter="url(#パス_106513)">
      <path id="パス_106513-2" data-name="パス 106513" d="M4.252,0H250.941a4.252,4.252,0,0,1,4.252,4.252V254.339a4.252,4.252,0,0,1-4.252,4.252H4.252A4.252,4.252,0,0,1,0,254.339V4.252A4.252,4.252,0,0,1,4.252,0Z" transform="translate(9 6)" fill="#fff"/>
    </g>
    <path id="パス_106516" data-name="パス 106516" d="M10.062,2.056a9.349,9.349,0,0,1,1.638.091V1.211a10.713,10.713,0,0,1-1.638.091h-6.4c.195-.351.247-.468.364-.7A2.989,2.989,0,0,1,4.251.145L3.328-.063A2.607,2.607,0,0,1,3.081.7,8.831,8.831,0,0,1,.6,3.993a1.539,1.539,0,0,1,.611.572A10.206,10.206,0,0,0,3.25,2.056ZM8.84,10.7A30.4,30.4,0,0,0,6.266,8.556,13.7,13.7,0,0,0,7.384,7.2c.26-.351.26-.351.325-.442.13-.156.13-.156.182-.221L7.059,6.06A6.652,6.652,0,0,1,5.6,8.075,24.119,24.119,0,0,0,3.12,6.5l-.559.52a24.814,24.814,0,0,1,2.483,1.6,12.543,12.543,0,0,1-4.03,2.431,2.179,2.179,0,0,1,.624.715A13.868,13.868,0,0,0,5.707,9.115a21.853,21.853,0,0,1,2.535,2.262Zm.6-4.966A14.126,14.126,0,0,0,9.932,10c.351,1.053.988,1.82,1.495,1.82.325,0,.611-.3.78-.845a7.586,7.586,0,0,0,.351-1.781,1.964,1.964,0,0,1-.715-.507c-.078,1.2-.286,2.171-.468,2.171-.143,0-.468-.507-.65-1.027a12.052,12.052,0,0,1-.481-3.783A10.157,10.157,0,0,1,10.3,4.942a10.247,10.247,0,0,1-1.469.065H2.6a7.841,7.841,0,0,1-1.209-.078v.884A9.384,9.384,0,0,1,2.73,5.735ZM2.951,3.954A7.632,7.632,0,0,1,4.16,3.889H9.347a6.588,6.588,0,0,1,1.274.078V3.083a7.11,7.11,0,0,1-1.274.078H4.082A6.056,6.056,0,0,1,2.951,3.1ZM15.522.86A7.239,7.239,0,0,1,15.34,1.9a21.506,21.506,0,0,0-.585,5.148,18.632,18.632,0,0,0,.338,3.679c.039.247.052.312.078.52l.936-.078v-.195A11.332,11.332,0,0,1,17.16,7.4l-.624-.3a12.078,12.078,0,0,0-.845,2.535c-.052-.689-.078-1.456-.078-2.47A19.218,19.218,0,0,1,16,3.1a18.472,18.472,0,0,1,.546-2.08ZM18.2,3.317a17.315,17.315,0,0,0,2.08.13,21.946,21.946,0,0,0,2.8-.169q.858-.117.9-.117l-.065-.923a13.949,13.949,0,0,1-3.484.351,8.829,8.829,0,0,1-2.21-.195Zm.949,2.535A3.591,3.591,0,0,0,18.018,8.27a1.837,1.837,0,0,0,.39,1.2,3.613,3.613,0,0,0,2.977.988,13.412,13.412,0,0,0,2.665-.26c.26-.039.286-.052.455-.065l-.13-1a8.556,8.556,0,0,1-2.99.455c-1.677,0-2.5-.468-2.5-1.43a3.02,3.02,0,0,1,.975-1.911ZM30.29.457A13.375,13.375,0,0,1,29.848,2.9c-.247,0-.676.013-.936.013a8.215,8.215,0,0,1-1.547-.1l-.013.9h.169c.039,0,.143,0,.286.013.2,0,.637.013.858.013.195,0,.637-.013.962-.026a19.465,19.465,0,0,1-1.352,3.354,11.477,11.477,0,0,1-1.248,2.028l.884.52c.065-.1.143-.26.26-.442.494-.858.611-1.079.923-1.7a24.22,24.22,0,0,0,1.443-3.8A15.694,15.694,0,0,0,32.669,3.4c.312-.052.312-.052.455-.078l-.039-.9a10.818,10.818,0,0,1-2.327.429c.182-.663.26-.975.351-1.417A4.072,4.072,0,0,1,31.317.6Zm7.657,3.588a17.917,17.917,0,0,0-3.432-1.716l-.481.728a14.1,14.1,0,0,1,3.445,1.768ZM37.973,9.8a1.316,1.316,0,0,1-.234-.208,9.338,9.338,0,0,0-2.548-1.573,15.507,15.507,0,0,1-.143-1.976,3.99,3.99,0,0,1,.169-1.209l-.884-.091a5.264,5.264,0,0,0-.13,1.261c0,.325.026.936.091,1.781a4.29,4.29,0,0,0-1.313-.2,3.8,3.8,0,0,0-1.534.286,1.844,1.844,0,0,0-1.209,1.651c0,1.157.975,1.885,2.535,1.885,1.586,0,2.47-.741,2.47-2.08a2.7,2.7,0,0,0-.026-.416,7.436,7.436,0,0,1,2.275,1.768ZM34.359,8.621s.026.4.026.559c0,.975-.507,1.417-1.625,1.417-1.027,0-1.651-.4-1.651-1.066,0-.715.7-1.17,1.807-1.17A3.858,3.858,0,0,1,34.359,8.621ZM42.133,2.29a6.4,6.4,0,0,1,.7-.065c1.976-.065,3.536-.156,3.952-.234a.5.5,0,0,1,.117-.013L46.93,2l-.052.052-.052.052-.182.182c-.9.884-2.951,2.691-4.342,3.8a14.483,14.483,0,0,1-1.82,1.326l.585.832A8.343,8.343,0,0,1,46.54,6.021c1.755,0,2.795.741,2.795,1.989,0,1.1-.715,1.9-2.08,2.275a3.721,3.721,0,0,0-.6-1.248,2.618,2.618,0,0,0-2.145-1.066,1.689,1.689,0,0,0-1.885,1.521c0,1.2,1.053,1.872,2.886,1.872,2.886,0,4.771-1.339,4.771-3.367,0-1.664-1.391-2.73-3.562-2.73a6.587,6.587,0,0,0-3.185.806l-.026-.039a33.358,33.358,0,0,0,4.277-3.692,2.4,2.4,0,0,1,.663-.546L47.9,1.081a1.329,1.329,0,0,1-.624.143c-1.17.091-2.9.169-3.978.169a6,6,0,0,1-1.222-.078ZM46.4,10.519a4.681,4.681,0,0,1-.949.091,3.322,3.322,0,0,1-1.456-.3.887.887,0,0,1-.52-.793c0-.494.4-.806,1.053-.806C45.461,8.712,46.111,9.336,46.4,10.519ZM59.579,4.357H57.356a9.155,9.155,0,0,1-1.417-.091v.962a9.927,9.927,0,0,1,1.4-.091h2.236v5.356H57.642a9.028,9.028,0,0,1-1.391-.091v.949a9.437,9.437,0,0,1,1.4-.091h4.966a9.556,9.556,0,0,1,1.4.091V10.4a9.2,9.2,0,0,1-1.4.091H60.45V5.137h2.574a10.055,10.055,0,0,1,1.4.091V4.266a9.091,9.091,0,0,1-1.4.091H60.45V1.6A6.422,6.422,0,0,1,60.528.4H59.5a7.956,7.956,0,0,1,.078,1.183ZM54.366,10.35a12.934,12.934,0,0,1-.078,1.56h.988a13.533,13.533,0,0,1-.065-1.521V3.434a16.53,16.53,0,0,0,1.014-2.353c.1-.3.169-.429.26-.663l-.91-.3a9.476,9.476,0,0,1-.923,2.613,12.784,12.784,0,0,1-2.21,3.133c.039.052.078.091.091.117a1.974,1.974,0,0,0,.195.234c.078.117.13.208.234.39a9.307,9.307,0,0,0,1.43-2c-.026.78-.026,1.027-.026,1.586ZM70.993,7.425h-3.9a8.458,8.458,0,0,1-1.417-.078v.819A9.431,9.431,0,0,1,67.093,8.1h3.9v.936H67.834a7.777,7.777,0,0,1-1.248-.065v.806a8.668,8.668,0,0,1,1.274-.065h3.133v1.066c0,.286-.117.351-.585.351A11.244,11.244,0,0,1,68.8,11a2.143,2.143,0,0,1,.221.819c.728.039.962.052,1.235.052,1.261,0,1.521-.182,1.521-1.079V9.713h3.484v.533H76.1a7.665,7.665,0,0,1-.078-1.3V8.1a8.841,8.841,0,0,1,1.378.065V7.347a6.607,6.607,0,0,1-1.378.078V6.879A10.289,10.289,0,0,1,76.063,5.8a12.705,12.705,0,0,1-1.456.052H71.773V5.007h3a8.108,8.108,0,0,1,1.053.052,6.153,6.153,0,0,1-.052-.871V3.616a6.342,6.342,0,0,1,.052-.884,8.325,8.325,0,0,1-1.066.052h-2.99V1.926h4A11.629,11.629,0,0,1,77.246,2V1.146a9.848,9.848,0,0,1-1.5.078H71.773a4.239,4.239,0,0,1,.091-1.17h-.949a5.234,5.234,0,0,1,.078,1.17H67.249a9.647,9.647,0,0,1-1.482-.078V2a11.127,11.127,0,0,1,1.456-.078h3.77v.858h-2.7a8.677,8.677,0,0,1-1.079-.052,6.465,6.465,0,0,1,.052.884v.572a6.153,6.153,0,0,1-.052.871,8.2,8.2,0,0,1,1.066-.052h2.717v.845H67.964a7.581,7.581,0,0,1-1.248-.065v.806a8.229,8.229,0,0,1,1.222-.065h3.055Zm.78,0v-.9h3.484v.9Zm0,.676h3.484v.936H71.773Zm-.78-4.68v.962H68.042V3.421Zm.78,0H75v.962H71.773Zm8.8-2.054a13.059,13.059,0,0,1,.936,2.47c-.208.065-.338.091-.663.208a14.266,14.266,0,0,1-1.911.611l.338.923a12.39,12.39,0,0,1,1.781-.715,5.619,5.619,0,0,0,.7-.234,46.23,46.23,0,0,1,1.638,7.02l1.053-.234a4.127,4.127,0,0,1-.169-.559C83.733,8.413,83.265,6.58,82.6,4.37a15.328,15.328,0,0,1,4.238-.923c1.313,0,2.08.585,2.08,1.573A1.576,1.576,0,0,1,88.3,6.346a2.633,2.633,0,0,1-1.56.507,4.418,4.418,0,0,1-2.184-.6A5.789,5.789,0,0,1,84.63,7a1.869,1.869,0,0,1-.013.234,5.505,5.505,0,0,0,2.2.481,2.779,2.779,0,0,0,3.055-2.678c0-1.456-1.118-2.392-2.86-2.392a6.547,6.547,0,0,0-.975.078c-.013-.156-.013-.4-.013-.416A12.266,12.266,0,0,1,86.086.548h-.975a18.017,18.017,0,0,1,.052,2.3,23.055,23.055,0,0,0-2.8.728c-.182-.585-.312-.949-.572-1.716a5.224,5.224,0,0,1-.247-.793ZM96.967.353A8.877,8.877,0,0,1,97.019,1.5a10.647,10.647,0,0,1-2.691,7.631,9.179,9.179,0,0,1-2.652,1.963,2.48,2.48,0,0,1,.7.767,11.055,11.055,0,0,0,2.392-1.9A8.744,8.744,0,0,0,96.629,7.3a11.012,11.012,0,0,0,.9-2.9,11.216,11.216,0,0,0,1.69,4.134,11.905,11.905,0,0,0,3.445,3.328,2.958,2.958,0,0,1,.676-.819,9.574,9.574,0,0,1-1.508-1.014A11.493,11.493,0,0,1,99.9,7.971a11.379,11.379,0,0,1-1.677-3.64,16.87,16.87,0,0,1-.286-2.821A8.846,8.846,0,0,1,98.007.353Zm16.5,3.133a15.131,15.131,0,0,1-1.378,2.4,11.9,11.9,0,0,1-3.211,3,2.452,2.452,0,0,1,.6.663,12.742,12.742,0,0,0,2.756-2.6A12.592,12.592,0,0,0,113.815,4.4l.013,6.214c0,.273-.1.325-.689.325a9.486,9.486,0,0,1-1.573-.143,2.881,2.881,0,0,1,.221.858,14.418,14.418,0,0,0,1.456.078c1.17,0,1.43-.195,1.43-1.027l-.052-7.215h.637a7.545,7.545,0,0,1,1.2.078V2.68a7.545,7.545,0,0,1-1.2.078h-.637V1.64A9.369,9.369,0,0,1,114.7.21h-.975a11.4,11.4,0,0,1,.078,1.43V2.758h-2.314a9.122,9.122,0,0,1-1.326-.065v.858a9.32,9.32,0,0,1,1.339-.065Zm-4.693-.013a7.509,7.509,0,0,1,.975.065V2.68a7.509,7.509,0,0,1-.975.065h-.819V1.38A5.937,5.937,0,0,1,108.03.171h-.975a8.267,8.267,0,0,1,.078,1.222V2.745h-1.04a5.187,5.187,0,0,1-1.131-.078v.884a7.124,7.124,0,0,1,1.105-.078H107a11.81,11.81,0,0,1-2.444,4.849,2.338,2.338,0,0,1,.533.754,12,12,0,0,0,2.106-4.3c-.039.65-.065,1.729-.065,2.444v3.419a9.483,9.483,0,0,1-.078,1.378h.975a9.483,9.483,0,0,1-.078-1.378V7.048c0-.936-.026-1.69-.091-2.535a6.88,6.88,0,0,0,1.56,2.392,2.557,2.557,0,0,1,.494-.728A6.273,6.273,0,0,1,108,3.473Zm12.74-1.222a18.19,18.19,0,0,1-2.782-.143l-.013.9A2.305,2.305,0,0,1,119,2.992h.208c.481.013,1.7.039,1.911.039a1.44,1.44,0,0,0,.247-.026l-.117.195a12.936,12.936,0,0,1-2.912,3.718l.728.728a4.3,4.3,0,0,1,1-1.079,4.884,4.884,0,0,1,2.9-1.378c.611,0,.923.312,1.027,1.027a10.092,10.092,0,0,0-1.937,1.04,2.688,2.688,0,0,0-1.326,2.054c0,1.339,1.131,2,3.458,2a20.168,20.168,0,0,0,3.159-.26,5.116,5.116,0,0,1,.52-.065l-.117-1a10.892,10.892,0,0,1-3.471.507c-1.833,0-2.639-.377-2.639-1.235,0-.78.676-1.391,2.444-2.223a3.416,3.416,0,0,1,.013.39A18.7,18.7,0,0,1,124.02,9.3l.884-.013a2.826,2.826,0,0,1-.026-.468c0-.117,0-.3.013-.585.013-.26.013-.546.013-.715,0-.325,0-.455-.026-.793a21.584,21.584,0,0,1,3.471-1.144l-.416-.91a2.86,2.86,0,0,1-.884.377c-.572.208-1.313.481-2.262.858a1.578,1.578,0,0,0-1.716-1.443,3.46,3.46,0,0,0-1.963.637c-.13.091-.13.091-.6.455a.1.1,0,0,1-.026-.039V5.5a.013.013,0,0,0,.013-.013,2.132,2.132,0,0,1,.169-.13c.052-.039.312-.338.442-.494a9.586,9.586,0,0,0,1.17-1.846,41.975,41.975,0,0,0,4.29-.338,4.052,4.052,0,0,1,.52-.065l-.078-.884a18.3,18.3,0,0,1-4.1.494,2.213,2.213,0,0,0-.273.013c.065-.117.234-.468.4-.884a2.761,2.761,0,0,1,.338-.7L122.343.47a5.517,5.517,0,0,1-.624,1.781ZM7.631,19.433a13.138,13.138,0,0,1-2.652.559V18.744a7.435,7.435,0,0,1,.065-1.209H4.082a8.636,8.636,0,0,1,.065,1.235v1.287c-.39.026-.9.039-1.248.039a7.363,7.363,0,0,1-1.326-.091v.858h.533c.143.013.494.013.689.013.377,0,.6,0,.832-.013.4-.026.4-.026.52-.039v2.457a6.954,6.954,0,0,0-1.833,1.066,2.353,2.353,0,0,0-1.027,1.729,1.568,1.568,0,0,0,.6,1.222,3.433,3.433,0,0,0,2.145.832c.637,0,.949-.338.949-1.04V23.84a8.771,8.771,0,0,1,2.756-.507c1.7,0,2.782.793,2.782,2.067a1.726,1.726,0,0,1-1.742,1.833c-.949,0-1.339-.559-1.339-1.911a3.861,3.861,0,0,1,.026-.507,2.818,2.818,0,0,1-.858.338,4.744,4.744,0,0,0,.156,1.469,1.917,1.917,0,0,0,2,1.469A2.675,2.675,0,0,0,10.075,23.1a4.4,4.4,0,0,0-2.3-.546,9.21,9.21,0,0,0-2.8.468V20.772a22.816,22.816,0,0,0,2.3-.39c.182-.039.234-.052.39-.078ZM4.147,26.609c0,.559-.039.637-.3.637a2.428,2.428,0,0,1-1.157-.377c-.377-.247-.559-.507-.559-.78,0-.624.728-1.326,2.015-1.95Zm7.813-5.5a10.924,10.924,0,0,0-2.626-2.47l-.676.507a10.647,10.647,0,0,1,2.626,2.548Zm11.1-2.054a9.35,9.35,0,0,1,1.638.091v-.936a10.712,10.712,0,0,1-1.638.091h-6.4c.195-.351.247-.468.364-.7a2.989,2.989,0,0,1,.221-.455l-.923-.208a2.607,2.607,0,0,1-.247.767A8.831,8.831,0,0,1,13.6,20.993a1.539,1.539,0,0,1,.611.572,10.206,10.206,0,0,0,2.041-2.509ZM21.84,27.7a30.4,30.4,0,0,0-2.574-2.145A13.7,13.7,0,0,0,20.384,24.2c.26-.351.26-.351.325-.442.13-.156.13-.156.182-.221l-.832-.481A6.652,6.652,0,0,1,18.6,25.075,24.119,24.119,0,0,0,16.12,23.5l-.559.52a24.814,24.814,0,0,1,2.483,1.6,12.543,12.543,0,0,1-4.03,2.431,2.179,2.179,0,0,1,.624.715,13.868,13.868,0,0,0,4.069-2.652,21.853,21.853,0,0,1,2.535,2.262Zm.6-4.966A14.126,14.126,0,0,0,22.932,27c.351,1.053.988,1.82,1.5,1.82.325,0,.611-.3.78-.845a7.586,7.586,0,0,0,.351-1.781,1.964,1.964,0,0,1-.715-.507c-.078,1.2-.286,2.171-.468,2.171-.143,0-.468-.507-.65-1.027a12.052,12.052,0,0,1-.481-3.783,10.157,10.157,0,0,1,.052-1.105,10.247,10.247,0,0,1-1.469.065H15.6a7.841,7.841,0,0,1-1.209-.078v.884a9.384,9.384,0,0,1,1.339-.078Zm-6.487-1.781a7.632,7.632,0,0,1,1.209-.065h5.187a6.588,6.588,0,0,1,1.274.078v-.884a7.11,7.11,0,0,1-1.274.078H17.082a6.056,6.056,0,0,1-1.131-.065ZM28.522,17.86a7.239,7.239,0,0,1-.182,1.04,21.506,21.506,0,0,0-.585,5.148,18.632,18.632,0,0,0,.338,3.679c.039.247.052.312.078.52l.936-.078v-.195A11.332,11.332,0,0,1,30.16,24.4l-.624-.3a12.078,12.078,0,0,0-.845,2.535c-.052-.689-.078-1.456-.078-2.47A19.218,19.218,0,0,1,29,20.1a18.473,18.473,0,0,1,.546-2.08ZM31.2,20.317a17.315,17.315,0,0,0,2.08.13,21.946,21.946,0,0,0,2.8-.169q.858-.117.9-.117l-.065-.923a13.949,13.949,0,0,1-3.484.351,8.83,8.83,0,0,1-2.21-.195Zm.949,2.535a3.591,3.591,0,0,0-1.131,2.418,1.837,1.837,0,0,0,.39,1.2,3.613,3.613,0,0,0,2.977.988,13.412,13.412,0,0,0,2.665-.26c.26-.039.286-.052.455-.065l-.13-1a8.556,8.556,0,0,1-2.99.455c-1.677,0-2.5-.468-2.5-1.43a3.02,3.02,0,0,1,.975-1.911ZM45.11,18.8a11.3,11.3,0,0,1-.416,2.834,10.519,10.519,0,0,1-2,3.783,10.9,10.9,0,0,1-3.016,2.561,2.332,2.332,0,0,1,.7.767,12.873,12.873,0,0,0,3.393-3.25,11.2,11.2,0,0,0,1.82-4.212,10.243,10.243,0,0,0,.819,2.405,11.959,11.959,0,0,0,1.859,2.808,12.184,12.184,0,0,0,2.522,2.223,2.869,2.869,0,0,1,.728-.832A10.581,10.581,0,0,1,49.088,26a11.619,11.619,0,0,1-1.95-2.691,9.48,9.48,0,0,1-1.1-4.537,6.733,6.733,0,0,1,.052-.858,6.188,6.188,0,0,1-1.209.078H43.16a4.88,4.88,0,0,1-.988-.065v.936c.429-.039.741-.065.988-.065ZM55.458,17.47a2.606,2.606,0,0,1-.039.416,32.861,32.861,0,0,0-.442,4.8v.3L55,24.334l.013.234v.143l.936-.039c-.013-.2-.013-.26-.013-.312a6.785,6.785,0,0,1,.7-2.9C57.382,19.94,58.214,19.2,59.2,19.2c1.248,0,1.976,1.209,1.976,3.3a4.477,4.477,0,0,1-2.236,4.316,6.869,6.869,0,0,1-2.639.819,2.683,2.683,0,0,1,.52.884,9.84,9.84,0,0,0,2.314-.767,5.364,5.364,0,0,0,3-5.109,5.34,5.34,0,0,0-.78-3.159,2.447,2.447,0,0,0-2.08-1.157,3.1,3.1,0,0,0-2.6,1.677,5.8,5.8,0,0,0-.793,1.937c-.065.273-.065.273-.091.377l-.052-.013c.039-.663.221-2.08.429-3.393a7.369,7.369,0,0,1,.3-1.339Zm20.631,1.547a8.315,8.315,0,0,1-1.547,1.807,11.688,11.688,0,0,1-1.105-.988,17.106,17.106,0,0,0,1.586-1.69l-.676-.481A7.985,7.985,0,0,1,73,19.355a4.009,4.009,0,0,1-1.053-1.807,8.112,8.112,0,0,1-1.157.052H68.328a4.471,4.471,0,0,1-.936-.065v.819a8.171,8.171,0,0,1,.845-.065H70.6a8.867,8.867,0,0,1-1.612,1.937,17.706,17.706,0,0,0-1.9-1.612l-.572.52a14.1,14.1,0,0,1,1.9,1.586,11.409,11.409,0,0,1-2.977,1.794,2.163,2.163,0,0,1,.494.689A12.525,12.525,0,0,0,69.42,20.85a10.406,10.406,0,0,0,2.041-2.483,8.791,8.791,0,0,0,1.833,2.353,11.735,11.735,0,0,0,3.731,2.431,2.608,2.608,0,0,1,.481-.741,9.233,9.233,0,0,1-2.4-1.2,14.05,14.05,0,0,0,1.079-1.053c.4-.455.4-.455.585-.65Zm-9.048,8.8a6.761,6.761,0,0,1-1.261-.078v.9a8.725,8.725,0,0,1,1.287-.078h8.9a8.8,8.8,0,0,1,1.3.078v-.9A8.3,8.3,0,0,1,76,27.818H73.45a12.373,12.373,0,0,0,.819-1.417L73.5,26.05a8.952,8.952,0,0,1-.871,1.768H70.382a12.906,12.906,0,0,0-.832-1.7l-.767.273a8.526,8.526,0,0,1,.767,1.43Zm2.2-5.824a5.625,5.625,0,0,1,1.053-.065h2.444a5.487,5.487,0,0,1,1.027.065v-.819a5.091,5.091,0,0,1-1.014.065H70.265a5.32,5.32,0,0,1-1.027-.065ZM74.23,25.92c.442,0,.715.013,1.027.039a4.479,4.479,0,0,1-.052-.871V23.7a5.807,5.807,0,0,1,.052-.871,7.9,7.9,0,0,1-1.04.052H68.783a8.152,8.152,0,0,1-1.04-.052,6.4,6.4,0,0,1,.052.871v1.391a6.526,6.526,0,0,1-.052.871c.3-.026.572-.039,1-.039ZM68.6,23.593h5.8v1.625H68.6ZM86.385,27.87c0,.26-.1.325-.546.325a7.656,7.656,0,0,1-1.222-.117,3.044,3.044,0,0,1,.169.819c.546.039.936.052,1.209.052.871,0,1.144-.234,1.144-.975V26.011c0-.728-.026-1.222-.078-2.405a7.989,7.989,0,0,0,.975,2.3,7.781,7.781,0,0,0,2.158,2.314,2.63,2.63,0,0,1,.559-.715A7.243,7.243,0,0,1,88.4,25.2a14.506,14.506,0,0,0,1.781-2.041l-.676-.455a8.132,8.132,0,0,1-1.456,1.885,8.59,8.59,0,0,1-.9-2.457V22.1h2.106a7.632,7.632,0,0,1,1.209.065v-.832a7.906,7.906,0,0,1-1.222.078h-.286c.091-1.118.13-1.716.169-2.392a9.229,9.229,0,0,1,.117-1.352,11.157,11.157,0,0,1-1.261.052H85.176a7.9,7.9,0,0,1-1.235-.065v.819a7.9,7.9,0,0,1,1.235-.065H88.4c-.026.624-.039.754-.052,1.144H85.423a6.244,6.244,0,0,1-1.118-.065v.793a6.7,6.7,0,0,1,1.118-.065H88.3c-.039.546-.039.572-.1,1.2H84.539a7.48,7.48,0,0,1-1.183-.078v.832a7.084,7.084,0,0,1,1.183-.065h1.846v2.977a15.562,15.562,0,0,1-3.094,1.963l-.026-.6c-.715.286-.975.377-1.547.559V23.2h.546a6.947,6.947,0,0,1,1.144.065v-.819a7.044,7.044,0,0,1-1.144.065h-.546V21.162h.442a5.7,5.7,0,0,1,.871.052v-.767a5.484,5.484,0,0,1-.871.052h-1.6a5.207,5.207,0,0,1-.858-.052,8.346,8.346,0,0,0,1.716-2.47,7.647,7.647,0,0,0,1.833,2.431,3.481,3.481,0,0,1,.468-.676,5.851,5.851,0,0,1-1.885-2.392h-.923a6.685,6.685,0,0,1-2.34,3.094,1.7,1.7,0,0,1,.468.637c.312-.273.429-.377.65-.6v.741a6.021,6.021,0,0,1,.845-.052h.442v1.352h-.884a7.814,7.814,0,0,1-1.222-.065v.819A8.042,8.042,0,0,1,80.08,23.2h.9v4a10.566,10.566,0,0,1-2.184.429l.169.871a7.538,7.538,0,0,1,.78-.221A26.764,26.764,0,0,0,83.3,27.155l.338.65c.169-.1.169-.1.39-.247,1.053-.676,1.053-.676,1.287-.845.364-.26.624-.455,1.066-.806Zm-6.019-1.339a16.487,16.487,0,0,0-.611-2.639l-.637.208a13.27,13.27,0,0,1,.572,2.665Zm2.392-.312A14.681,14.681,0,0,0,83.382,24l-.65-.247a8.361,8.361,0,0,1-.559,2.262Zm1.144-3.2a9.185,9.185,0,0,1,1.092,2.132l.637-.4a12.921,12.921,0,0,0-1.1-2.028Zm11.609-3.77a18.19,18.19,0,0,1-2.782-.143l-.013.9A2.305,2.305,0,0,1,93,19.992h.208c.481.013,1.7.039,1.911.039a1.44,1.44,0,0,0,.247-.026l-.117.195a12.936,12.936,0,0,1-2.912,3.718l.728.728a4.3,4.3,0,0,1,1-1.079,4.884,4.884,0,0,1,2.9-1.378c.611,0,.923.312,1.027,1.027a10.092,10.092,0,0,0-1.937,1.04,2.688,2.688,0,0,0-1.326,2.054c0,1.339,1.131,2,3.458,2a20.168,20.168,0,0,0,3.159-.26,5.116,5.116,0,0,1,.52-.065l-.117-1a10.892,10.892,0,0,1-3.471.507c-1.833,0-2.639-.377-2.639-1.235,0-.78.676-1.391,2.444-2.223a3.416,3.416,0,0,1,.013.39A18.7,18.7,0,0,1,98.02,26.3l.884-.013a2.826,2.826,0,0,1-.026-.468c0-.117,0-.3.013-.585.013-.26.013-.546.013-.715,0-.325,0-.455-.026-.793a21.584,21.584,0,0,1,3.471-1.144l-.416-.91a2.86,2.86,0,0,1-.884.377c-.572.208-1.313.481-2.262.858a1.578,1.578,0,0,0-1.716-1.443,3.46,3.46,0,0,0-1.963.637c-.13.091-.13.091-.6.455a.1.1,0,0,1-.026-.039V22.5a.013.013,0,0,0,.013-.013c.013-.013.078-.065.169-.13.052-.039.312-.338.442-.494a9.586,9.586,0,0,0,1.17-1.846,41.976,41.976,0,0,0,4.29-.338,4.052,4.052,0,0,1,.52-.065l-.078-.884a18.3,18.3,0,0,1-4.1.494,2.213,2.213,0,0,0-.273.013c.065-.117.234-.468.4-.884a2.76,2.76,0,0,1,.338-.7l-1.04-.182a5.517,5.517,0,0,1-.624,1.781Zm15.678.091c-.884.026-1.9.052-3.146.1-2.093.078-2.093.078-2.47.078-.195,0-.286,0-.52-.013l.039.949c.871-.143,3.5-.273,6.11-.325v.676c0,.156.013.286.013.338,0,.481,0,.533.013.715a2,2,0,0,0-1.508-.585,2.163,2.163,0,0,0-2.3,2.145,2.173,2.173,0,0,0,3.77,1.352,1.821,1.821,0,0,0,.351-.637,3.367,3.367,0,0,1-1.456,2.743,6.663,6.663,0,0,1-2.106.975,2.854,2.854,0,0,1,.572.819,8.269,8.269,0,0,0,2.054-1.053,4.184,4.184,0,0,0,1.742-3.393,3.725,3.725,0,0,0-.312-1.534V20.122c1.053-.026,1.2-.026,1.391-.026a23.106,23.106,0,0,1,2.483.065v-.923c-.429.052-1.43.078-3.887.091v-.143a10.762,10.762,0,0,1,.065-1.625h-.975a4.381,4.381,0,0,1,.052.754Zm-.039,3.8a1.457,1.457,0,0,1-1.521,1.534,1.256,1.256,0,0,1-1.339-1.287,1.376,1.376,0,0,1,1.443-1.365,1.663,1.663,0,0,1,.871.208A.941.941,0,0,1,111.15,23.138Zm8.983-3.848a6.4,6.4,0,0,1,.7-.065c1.976-.065,3.536-.156,3.952-.234a.5.5,0,0,1,.117-.013l.026.026-.052.052-.052.052-.182.182c-.9.884-2.951,2.691-4.342,3.8a14.484,14.484,0,0,1-1.82,1.326l.585.832a8.343,8.343,0,0,1,5.473-2.223c1.755,0,2.795.741,2.795,1.989,0,1.1-.715,1.9-2.08,2.275a3.721,3.721,0,0,0-.6-1.248,2.618,2.618,0,0,0-2.145-1.066,1.689,1.689,0,0,0-1.885,1.521c0,1.2,1.053,1.872,2.886,1.872,2.886,0,4.771-1.339,4.771-3.367,0-1.664-1.391-2.73-3.562-2.73a6.587,6.587,0,0,0-3.185.806l-.026-.039a33.358,33.358,0,0,0,4.277-3.692,2.4,2.4,0,0,1,.663-.546l-.546-.715a1.329,1.329,0,0,1-.624.143c-1.17.091-2.9.169-3.978.169a6,6,0,0,1-1.222-.078Zm4.264,8.229a4.681,4.681,0,0,1-.949.091,3.322,3.322,0,0,1-1.456-.3.887.887,0,0,1-.52-.793c0-.494.4-.806,1.053-.806C123.461,25.712,124.111,26.336,124.4,27.519Zm11.6-3.094h-3.9a8.458,8.458,0,0,1-1.417-.078v.819a9.431,9.431,0,0,1,1.417-.065h3.9v.936h-3.159a7.777,7.777,0,0,1-1.248-.065v.806a8.668,8.668,0,0,1,1.274-.065h3.133v1.066c0,.286-.117.351-.585.351A11.244,11.244,0,0,1,133.8,28a2.143,2.143,0,0,1,.221.819c.728.039.962.052,1.235.052,1.261,0,1.521-.182,1.521-1.079V26.713h3.484v.533h.845a7.664,7.664,0,0,1-.078-1.3V25.1a8.842,8.842,0,0,1,1.378.065v-.819a6.607,6.607,0,0,1-1.378.078v-.546a10.289,10.289,0,0,1,.039-1.079,12.7,12.7,0,0,1-1.456.052h-2.834v-.845h3a8.108,8.108,0,0,1,1.053.052,6.153,6.153,0,0,1-.052-.871v-.572a6.342,6.342,0,0,1,.052-.884,8.325,8.325,0,0,1-1.066.052h-2.99v-.858h4a11.628,11.628,0,0,1,1.469.078v-.858a9.848,9.848,0,0,1-1.495.078h-3.978a4.239,4.239,0,0,1,.091-1.17h-.949a5.234,5.234,0,0,1,.078,1.17h-3.744a9.647,9.647,0,0,1-1.482-.078V19a11.126,11.126,0,0,1,1.456-.078h3.77v.858h-2.7a8.677,8.677,0,0,1-1.079-.052,6.468,6.468,0,0,1,.052.884v.572a6.155,6.155,0,0,1-.052.871,8.2,8.2,0,0,1,1.066-.052h2.717v.845h-3.029a7.581,7.581,0,0,1-1.248-.065v.806a8.229,8.229,0,0,1,1.222-.065h3.055Zm.78,0v-.9h3.484v.9Zm0,.676h3.484v.936h-3.484Zm-.78-4.68v.962h-2.951v-.962Zm.78,0H140v.962h-3.224Zm7.462,0a43.278,43.278,0,0,1,4.485-.429,26.605,26.605,0,0,0,2.86-.286,8.51,8.51,0,0,0-1.235.689,4.946,4.946,0,0,0-2.431,3.991,3.148,3.148,0,0,0,1.443,2.652,6.558,6.558,0,0,0,2.808,1c.234.039.26.052.4.078l.169-1.053h-.13a6.663,6.663,0,0,1-1.95-.416,2.549,2.549,0,0,1-1.82-2.405,3.973,3.973,0,0,1,1.6-3,6.394,6.394,0,0,1,2.5-1.3,5.453,5.453,0,0,1,1.456-.182l-.078-.962a8.78,8.78,0,0,1-1.547.143l-.741.026c-.429.013-.6.026-2.2.117l-2.041.13c-1.6.091-1.677.1-2.4.156-.4.026-.559.039-.741.039-.091,0-.221,0-.468-.013Zm7.982,1.248a9.142,9.142,0,0,1,1.326,2.067l.663-.39a9.869,9.869,0,0,0-1.339-2.015Zm1.482-.7a10.288,10.288,0,0,1,1.326,2.041l.65-.364a10.535,10.535,0,0,0-1.339-2.028ZM5.1,39.644a6.294,6.294,0,0,1-.7,2.678,6.623,6.623,0,0,1-3.276,2.847,2.717,2.717,0,0,1,.572.728,7.629,7.629,0,0,0,3.276-2.834A7.4,7.4,0,0,0,5.98,39.644H9.009a18.5,18.5,0,0,1-.429,4.81c-.091.247-.234.325-.65.325A10.015,10.015,0,0,1,6.1,44.558a3.6,3.6,0,0,1,.208.923c.819.078,1.274.1,1.7.1.754,0,1.066-.13,1.287-.52a16.524,16.524,0,0,0,.585-5.33,5.744,5.744,0,0,1,.052-.923,9.837,9.837,0,0,1-1.365.065H4.29A9.978,9.978,0,0,1,2.938,38.8v.923a10.468,10.468,0,0,1,1.339-.078Zm-.533-5.4A4.181,4.181,0,0,1,4,35.614,10.712,10.712,0,0,1,.442,39.423a2.861,2.861,0,0,1,.637.7A12.9,12.9,0,0,0,5.174,35.25a3.547,3.547,0,0,1,.364-.663Zm2.886.364c.065.1.143.247.208.364A13.17,13.17,0,0,0,12.038,40.2a3.207,3.207,0,0,1,.611-.793,10.842,10.842,0,0,1-3.835-4.043,5.263,5.263,0,0,1-.494-1.092Zm6.812,4.134a7.439,7.439,0,0,1,.754-.169c.117-.026.741-.13,1.859-.3a21.461,21.461,0,0,1-1.43,4.121,12.467,12.467,0,0,1-1.352,2.353l.884.52c.4-.728.676-1.248.845-1.56A24.526,24.526,0,0,0,17.784,38.2a7.464,7.464,0,0,1,.936-.065c1.209,0,1.6.442,1.6,1.82a10.063,10.063,0,0,1-.546,3.614q-.254.624-.741.624a4.859,4.859,0,0,1-1.937-.6,2.517,2.517,0,0,1,.039.52,2.828,2.828,0,0,1-.026.455,4.891,4.891,0,0,0,1.963.507,1.358,1.358,0,0,0,1.274-.611,8.96,8.96,0,0,0,.871-4.472,2.624,2.624,0,0,0-.637-2.093,2.484,2.484,0,0,0-1.872-.546,7.576,7.576,0,0,0-.767.039c.117-.624.208-1.1.273-1.482a7.992,7.992,0,0,1,.247-1.248l-1.04-.117v.169a15.889,15.889,0,0,1-.39,2.756c-1.053.169-2.405.325-2.873.338Zm7.67-1.716A10.641,10.641,0,0,1,24.583,41.7l.832-.481a11.755,11.755,0,0,0-2.717-4.6Zm8.2-1.456a14.479,14.479,0,0,0,1.989.819,20.051,20.051,0,0,0,2.535.741l.364-.91a15.673,15.673,0,0,1-4.407-1.443Zm-1.079,1.4a4.373,4.373,0,0,1-.091.689c-.182,1.092-.416,2.6-.546,3.588-.052.416-.065.533-.1.767l1.014.026a2.26,2.26,0,0,1,.52-.533,6.3,6.3,0,0,1,3.64-1.131c1.586,0,2.522.624,2.522,1.69,0,1.326-1.365,2.184-3.51,2.184a9.233,9.233,0,0,1-3.315-.65,3.007,3.007,0,0,1,.091.806,2.049,2.049,0,0,1-.013.247c.793.195.793.195,1.04.26a10.8,10.8,0,0,0,2.275.234,5.4,5.4,0,0,0,3.237-.858,2.779,2.779,0,0,0,1.17-2.236c0-1.521-1.365-2.509-3.484-2.509a6.435,6.435,0,0,0-3.757,1.118,3.641,3.641,0,0,0-.4.39l-.026-.013a1.566,1.566,0,0,0,.052-.3c.039-.3.065-.39.377-2.275a10.88,10.88,0,0,1,.3-1.43ZM43.29,34.457a13.375,13.375,0,0,1-.442,2.444c-.247,0-.676.013-.936.013a8.215,8.215,0,0,1-1.547-.1l-.013.9h.169c.039,0,.143,0,.286.013.195,0,.637.013.858.013.195,0,.637-.013.962-.026a19.465,19.465,0,0,1-1.352,3.354,11.477,11.477,0,0,1-1.248,2.028l.884.52c.065-.1.143-.26.26-.442.494-.858.611-1.079.923-1.7a24.22,24.22,0,0,0,1.443-3.8,15.693,15.693,0,0,0,2.132-.273c.312-.052.312-.052.455-.078l-.039-.9a10.818,10.818,0,0,1-2.327.429c.182-.663.26-.975.351-1.417a4.072,4.072,0,0,1,.208-.832Zm7.657,3.588a17.918,17.918,0,0,0-3.432-1.716l-.481.728a14.1,14.1,0,0,1,3.445,1.768Zm.026,5.759a1.316,1.316,0,0,1-.234-.208,9.338,9.338,0,0,0-2.548-1.573,15.507,15.507,0,0,1-.143-1.976,3.99,3.99,0,0,1,.169-1.209l-.884-.091a5.264,5.264,0,0,0-.13,1.261c0,.325.026.936.091,1.781a4.29,4.29,0,0,0-1.313-.195,3.8,3.8,0,0,0-1.534.286,1.844,1.844,0,0,0-1.209,1.651c0,1.157.975,1.885,2.535,1.885,1.586,0,2.47-.741,2.47-2.08a2.7,2.7,0,0,0-.026-.416,7.436,7.436,0,0,1,2.275,1.768Zm-3.614-1.183s.026.4.026.559c0,.975-.507,1.417-1.625,1.417-1.027,0-1.651-.4-1.651-1.066,0-.715.7-1.17,1.807-1.17A3.858,3.858,0,0,1,47.359,42.621Zm12.688-8.1a20.668,20.668,0,0,1-3.809,3.562,10.045,10.045,0,0,0-1.1.884,1.259,1.259,0,0,0-.377.871c0,.442.208.728.936,1.3,1.9,1.482,2.418,1.911,3.289,2.717a12.272,12.272,0,0,1,1.677,1.781l.819-.806a3.31,3.31,0,0,1-.364-.325,38.33,38.33,0,0,0-4.16-3.549c-1.053-.819-1.157-.91-1.157-1.144,0-.182.091-.286.572-.65a37.87,37.87,0,0,0,2.99-2.457c1.352-1.3,1.456-1.391,1.6-1.508Zm9.243-.065a13.375,13.375,0,0,1-.442,2.444c-.247,0-.676.013-.936.013a8.215,8.215,0,0,1-1.547-.1l-.013.9h.169c.039,0,.143,0,.286.013.195,0,.637.013.858.013.195,0,.637-.013.962-.026a19.465,19.465,0,0,1-1.352,3.354,11.477,11.477,0,0,1-1.248,2.028l.884.52c.065-.1.143-.26.26-.442.494-.858.611-1.079.923-1.7a24.22,24.22,0,0,0,1.443-3.8,15.693,15.693,0,0,0,2.132-.273c.312-.052.312-.052.455-.078l-.039-.9a10.818,10.818,0,0,1-2.327.429c.182-.663.26-.975.351-1.417a4.071,4.071,0,0,1,.208-.832Zm7.657,3.588a17.918,17.918,0,0,0-3.432-1.716l-.481.728a14.1,14.1,0,0,1,3.445,1.768Zm.026,5.759a1.316,1.316,0,0,1-.234-.208,9.338,9.338,0,0,0-2.548-1.573,15.507,15.507,0,0,1-.143-1.976,3.99,3.99,0,0,1,.169-1.209l-.884-.091a5.264,5.264,0,0,0-.13,1.261c0,.325.026.936.091,1.781a4.29,4.29,0,0,0-1.313-.195,3.8,3.8,0,0,0-1.534.286,1.844,1.844,0,0,0-1.209,1.651c0,1.157.975,1.885,2.535,1.885,1.586,0,2.47-.741,2.47-2.08a2.7,2.7,0,0,0-.026-.416,7.436,7.436,0,0,1,2.275,1.768Zm-3.614-1.183s.026.4.026.559c0,.975-.507,1.417-1.625,1.417-1.027,0-1.651-.4-1.651-1.066,0-.715.7-1.17,1.807-1.17A3.858,3.858,0,0,1,73.359,42.621Zm7.774-6.331a6.4,6.4,0,0,1,.7-.065c1.976-.065,3.536-.156,3.952-.234a.5.5,0,0,1,.117-.013L85.93,36l-.052.052-.052.052-.182.182c-.9.884-2.951,2.691-4.342,3.8a14.483,14.483,0,0,1-1.82,1.326l.585.832a8.343,8.343,0,0,1,5.473-2.223c1.755,0,2.795.741,2.795,1.989,0,1.105-.715,1.9-2.08,2.275a3.721,3.721,0,0,0-.6-1.248,2.618,2.618,0,0,0-2.145-1.066,1.689,1.689,0,0,0-1.885,1.521c0,1.2,1.053,1.872,2.886,1.872,2.886,0,4.771-1.339,4.771-3.367,0-1.664-1.391-2.73-3.562-2.73a6.587,6.587,0,0,0-3.185.806l-.026-.039a33.358,33.358,0,0,0,4.277-3.692,2.4,2.4,0,0,1,.663-.546l-.546-.715a1.329,1.329,0,0,1-.624.143c-1.17.091-2.9.169-3.978.169a6,6,0,0,1-1.222-.078ZM85.4,44.519a4.681,4.681,0,0,1-.949.091,3.322,3.322,0,0,1-1.456-.3.887.887,0,0,1-.52-.793c0-.494.4-.806,1.053-.806C84.461,42.712,85.111,43.336,85.4,44.519Zm8.658-7.943a3.053,3.053,0,0,1,.429.039,25.429,25.429,0,0,0,2.86.169,10.275,10.275,0,0,0,1.963-.169c-.13.078-.156.078-.247.13-.156.078-.182.091-.325.169a20.141,20.141,0,0,0-1.729,1.079l.663.533a18.515,18.515,0,0,1,3.276-1.976l-.065-.858a14.217,14.217,0,0,1-3.289.273,14.863,14.863,0,0,1-3.458-.312Zm.78,3.328a3.416,3.416,0,0,0-1.5,2.509,2.071,2.071,0,0,0,1.482,1.963,9.171,9.171,0,0,0,2.99.4,21.206,21.206,0,0,0,3.51-.3,3.637,3.637,0,0,1,.442-.065l-.117-1.066a12.332,12.332,0,0,1-3.9.494,8.278,8.278,0,0,1-2.379-.26c-.728-.247-1.1-.676-1.1-1.274S94.653,41.1,95.5,40.4Zm13.195-5.109a4.349,4.349,0,0,1,.221.819,26.481,26.481,0,0,0,.949,3.64,8.1,8.1,0,0,0-1.7,1.053,2.812,2.812,0,0,0-1.157,2.21,2.158,2.158,0,0,0,1.612,2.132,8.844,8.844,0,0,0,2.886.351,26.079,26.079,0,0,0,2.873-.169,6.738,6.738,0,0,1,.962-.078l-.1-1.079a12.907,12.907,0,0,1-3.718.442c-2.548,0-3.549-.455-3.549-1.638,0-1.079.962-1.937,3.185-2.821A29.9,29.9,0,0,1,114.4,38.4l-.39-.988a7.03,7.03,0,0,1-.832.338c-2.015.7-2.379.845-3.146,1.157a22.611,22.611,0,0,1-.975-4.3Zm18.434,0a9.964,9.964,0,0,1,1.339,2.067l.65-.39a9.869,9.869,0,0,0-1.339-2.015Zm-8.372,4a16.923,16.923,0,0,1,2.613-.468,19.184,19.184,0,0,1-2.782,6.474l.884.52a25.249,25.249,0,0,0,2.808-7.072,7.465,7.465,0,0,1,.936-.065c1.209,0,1.6.442,1.6,1.82a10.063,10.063,0,0,1-.546,3.614q-.254.624-.741.624a4.859,4.859,0,0,1-1.937-.6,2.4,2.4,0,0,1,.039.507,2.906,2.906,0,0,1-.026.468,4.891,4.891,0,0,0,1.963.507,1.358,1.358,0,0,0,1.274-.611,8.961,8.961,0,0,0,.871-4.472,2.624,2.624,0,0,0-.637-2.093,2.484,2.484,0,0,0-1.872-.546,7.577,7.577,0,0,0-.767.039c.1-.559.221-1.157.273-1.482a7.992,7.992,0,0,1,.247-1.248l-1.04-.117v.169a16.057,16.057,0,0,1-.39,2.756,26.668,26.668,0,0,1-2.873.338Zm9.854-4.693a9.416,9.416,0,0,1,1.326,2.041l.65-.377a10.441,10.441,0,0,0-1.339-2.015Zm-2.184,2.964a10.978,10.978,0,0,1,2.652,4.667l.832-.468a11.9,11.9,0,0,0-2.717-4.6Zm6.032-.026a1.347,1.347,0,0,1,.208-.013,2.111,2.111,0,0,1,.234.013c1.04.039,1.625.065,1.755.065h.52c-.065.949-.065,1.014-.078,1.963a4.431,4.431,0,0,0-3.016,3.874,1.775,1.775,0,0,0,1.677,1.976,4.262,4.262,0,0,0,2.9-1.573,11.707,11.707,0,0,0,2.47-3.9c1.4.364,2.145,1.144,2.145,2.262a2.866,2.866,0,0,1-2.236,2.6,6.054,6.054,0,0,1-1.95.351,2.68,2.68,0,0,1,.416.871,7.157,7.157,0,0,0,2.652-.741,3.335,3.335,0,0,0,2.041-3c0-1.521-1-2.626-2.8-3.042.221-.611.364-.962.4-1.04l-.9-.273a4.881,4.881,0,0,1-.312,1.17c-.325-.026-.481-.039-.754-.039a6.869,6.869,0,0,0-1.924.26c.013-.637.013-.637.091-1.742a36.418,36.418,0,0,0,4.6-.52c.247-.039.286-.039.455-.065l-.052-.91a19.976,19.976,0,0,1-4.953.728,8.642,8.642,0,0,1,.273-1.82l-1.014-.065a1.382,1.382,0,0,1,.013.195c0,.091-.026.6-.039.741-.052.663-.052.663-.065.975-.234.013-.286.013-.325.013a9.1,9.1,0,0,1-2.431-.208Zm2.639,2.847a18.387,18.387,0,0,0,.26,3.523,2.347,2.347,0,0,1-1.495.663c-.559,0-.936-.468-.936-1.183a3.071,3.071,0,0,1,.793-1.937A4.647,4.647,0,0,1,134.433,39.891Zm.962,2.977v-.143a.858.858,0,0,0-.013-.182,21.864,21.864,0,0,1-.143-2.977,5.847,5.847,0,0,1,1.807-.3c.143,0,.208,0,.624.026a11.741,11.741,0,0,1-1.989,3.25,1.409,1.409,0,0,0-.247.338Zm11.063-8.4a2.605,2.605,0,0,1-.039.416,32.859,32.859,0,0,0-.442,4.8v.3L146,41.334l.013.234v.143l.936-.039c-.013-.195-.013-.26-.013-.312a6.785,6.785,0,0,1,.7-2.9c.741-1.521,1.573-2.262,2.561-2.262,1.248,0,1.976,1.209,1.976,3.3a4.477,4.477,0,0,1-2.236,4.316,6.869,6.869,0,0,1-2.639.819,2.683,2.683,0,0,1,.52.884,9.84,9.84,0,0,0,2.314-.767,5.364,5.364,0,0,0,3-5.109,5.34,5.34,0,0,0-.78-3.159,2.447,2.447,0,0,0-2.08-1.157,3.1,3.1,0,0,0-2.6,1.677,5.8,5.8,0,0,0-.793,1.937c-.065.273-.065.273-.091.377l-.052-.013c.039-.663.221-2.08.429-3.393a7.368,7.368,0,0,1,.3-1.339Zm20.917,9.49a4.444,4.444,0,0,1-.442-.3,11.379,11.379,0,0,0-3.627-1.9c-.052-1.261-.052-1.261-.078-1.989.962-.065,1.989-.169,2.886-.312.455-.065.585-.078.754-.091l-.052-.9a15.691,15.691,0,0,1-3.6.533c-.013-.689-.013-.689-.026-1.755a27.005,27.005,0,0,0,3.016-.312c.676-.091.676-.091.9-.1l-.065-.884a18.325,18.325,0,0,1-3.848.533,14.508,14.508,0,0,1,.091-1.833h-1a10.183,10.183,0,0,1,.065,1.872c-.429,0-.871.013-1.131.013a16.15,16.15,0,0,1-3.328-.26l-.013.884a1.062,1.062,0,0,1,.182-.013,1.577,1.577,0,0,1,.234.013c1.17.091,2.223.13,3.172.13.3,0,.507,0,.884-.013l.026,1.781c-.364.013-.819.013-1.157.013a15.955,15.955,0,0,1-2.977-.208l-.013.858h.1c.078,0,.182,0,.325.013.806.065,1.417.091,2.2.091.416,0,1.066-.013,1.534-.026.013.338.013.585.026.754.013.377.013.65.026.767a1.036,1.036,0,0,0,.013.143c0,.117,0,.117.013.156a5.782,5.782,0,0,0-1.17-.1,5.663,5.663,0,0,0-1.352.13c-1.144.26-1.82.936-1.82,1.794a1.7,1.7,0,0,0,.7,1.365,3.386,3.386,0,0,0,2.015.52,2.617,2.617,0,0,0,2.2-.819,2.258,2.258,0,0,0,.325-1.417,3.737,3.737,0,0,0-.026-.468c.351.143.65.273.871.39a10.461,10.461,0,0,1,2.652,1.859Zm-4.9-1.053a1.7,1.7,0,0,1-.26,1.17,1.878,1.878,0,0,1-1.43.429c-1.131,0-1.781-.39-1.781-1.079s.845-1.157,2.132-1.157a4.772,4.772,0,0,1,1.326.143Zm9.854-7.8a13.824,13.824,0,0,1,.065,1.937v.845c-1.365.117-2.171.169-2.4.169a2.772,2.772,0,0,1-.286-.013l.078.91a26.2,26.2,0,0,1,2.613-.273v1.625a13.719,13.719,0,0,0,.169,3.081C172.9,44.558,173.888,45,176.2,45a22.09,22.09,0,0,0,3.289-.273c.312-.039.338-.052.52-.065l-.1-1a11.786,11.786,0,0,1-3.614.481,7.223,7.223,0,0,1-2.028-.221,1.117,1.117,0,0,1-.871-.845,19.933,19.933,0,0,1-.13-3.276V38.63c1.729-.117,2.665-.169,4.238-.221a11.822,11.822,0,0,1-.156,2c-.117.637-.273.845-.637.845a3.692,3.692,0,0,1-1.7-.715c.013.26.026.39.026.533s-.013.195-.026.39a3.729,3.729,0,0,0,1.807.6,1.3,1.3,0,0,0,1.313-1.144,12.362,12.362,0,0,0,.234-2.535c.416,0,.7-.013.91-.013.429-.013.767-.013.884-.013.546,0,.624,0,.975.026l-.026-.923c-.429.052-1.443.091-2.717.117v-.351l.013-.845v-.546a7.034,7.034,0,0,1,.052-1h-1a12.458,12.458,0,0,1,.078,1.976c0,.156,0,.3-.013.442v.364c-1.625.065-2.145.091-4.251.208a15.042,15.042,0,0,1,.117-2.717Zm14.6-.52c-.078.39-.364,1.209-1.781,4.966-1.872,4.992-1.872,4.992-2.041,5.356l1,.312a13.306,13.306,0,0,1,1.2-2.99c.728-1.235,1.573-1.924,2.327-1.924a.7.7,0,0,1,.741.481,2.8,2.8,0,0,1,.1.988v.741a5.359,5.359,0,0,0,.117,1.4,1.829,1.829,0,0,0,1.9,1.17,3.027,3.027,0,0,0,2.587-1.417A7.022,7.022,0,0,0,194,41.386a3.71,3.71,0,0,1-.858-.663,5.693,5.693,0,0,1-.494,1.846,2.249,2.249,0,0,1-2.08,1.625,1.211,1.211,0,0,1-.988-.4,2.21,2.21,0,0,1-.208-1.235v-.884a3.279,3.279,0,0,0-.221-1.469,1.443,1.443,0,0,0-1.3-.767c-.923,0-1.586.468-2.444,1.7l-.065-.026a1.958,1.958,0,0,1,.117-.234l.143-.286a22.035,22.035,0,0,0,.936-2.145c1.274-3.263,1.274-3.263,1.443-3.575Zm10.738,7.358a1.95,1.95,0,1,0,1.95,1.95A1.947,1.947,0,0,0,197.665,41.945Zm0,.741a1.209,1.209,0,1,1-1.209,1.209A1.215,1.215,0,0,1,197.665,42.686Z" transform="translate(982 718.145)" fill="#1b1311"/>
    <path id="パス_106521" data-name="パス 106521" d="M-77.28-15.32a7.63,7.63,0,0,1,.14-1.62h-1.42a7.213,7.213,0,0,1,.12,1.62h-3.18v-.1a6.9,6.9,0,0,1,.14-1.52H-82.9a7.213,7.213,0,0,1,.12,1.62h-2.26a16.647,16.647,0,0,1-2.16-.1,11.083,11.083,0,0,1,.08,1.58v3.12a10.559,10.559,0,0,1-.08,1.58,17.373,17.373,0,0,1,2.12-.08h10.34a21.084,21.084,0,0,1,2.12.08,10.388,10.388,0,0,1-.08-1.58v-3.12a10.557,10.557,0,0,1,.08-1.58,16.791,16.791,0,0,1-2.18.1Zm-5.5.98v1.54h-3.14v-1.54Zm1.16,0h3.18v1.54h-3.18Zm4.34,0h3.38v1.54h-3.38Zm-5.5,2.46v1.72h-3.14v-1.72Zm1.16,0h3.18v1.72h-3.18Zm4.34,0h3.38v1.72h-3.38ZM-86.64-.04a16.665,16.665,0,0,1-2.2-.12V1.18a13.355,13.355,0,0,1,2.2-.14H-73.2a12.375,12.375,0,0,1,2.1.14V-.16a14.859,14.859,0,0,1-2.1.12h-3.64a10.565,10.565,0,0,0,.96-1.48l-1.18-.46A7.731,7.731,0,0,1-78.14-.04h-3.54a11.362,11.362,0,0,0-1.18-1.94L-84-1.54a8.455,8.455,0,0,1,1.08,1.5Zm15.32-8.08a12.686,12.686,0,0,1-2.22.14H-86.46a11.826,11.826,0,0,1-2.14-.14v1.3a15.288,15.288,0,0,1,2.14-.12h12.92a16.371,16.371,0,0,1,2.22.12ZM-86.24-3.38A7.331,7.331,0,0,1-86.34-2a21.318,21.318,0,0,1,2.28-.08h8.14c.92,0,1.56.02,2.24.08a7.2,7.2,0,0,1-.1-1.38v-1.1a6.925,6.925,0,0,1,.1-1.4,18.694,18.694,0,0,1-2.28.1h-8.06a19.2,19.2,0,0,1-2.32-.1,7.17,7.17,0,0,1,.1,1.4Zm1.28-1.42h9.92v1.74h-9.92Zm24.1-10.4H-66.3a19.725,19.725,0,0,1-2.02-.08,8.765,8.765,0,0,1,.08,1.34V-13a9.328,9.328,0,0,1-.08,1.38h1.3v-2.5h14.08v2.5h1.28a8.875,8.875,0,0,1-.08-1.36v-.96a8.437,8.437,0,0,1,.08-1.34,19.56,19.56,0,0,1-2,.08h-5.9v-.16a8.226,8.226,0,0,1,.12-1.44h-1.54a8.745,8.745,0,0,1,.12,1.44Zm-5.26,3.46a9.719,9.719,0,0,1,1.64-.1h9a9.611,9.611,0,0,1,1.62.1v-1.22a9.188,9.188,0,0,1-1.62.1h-9a9.3,9.3,0,0,1-1.64-.1Zm11.8,2.42a9.392,9.392,0,0,1,.08-1.36,13.905,13.905,0,0,1-1.68.08h-8.14a13.694,13.694,0,0,1-1.68-.08,10.141,10.141,0,0,1,.08,1.36v.98a9.573,9.573,0,0,1-.08,1.36,14.561,14.561,0,0,1,1.68-.08h8.12a14.922,14.922,0,0,1,1.7.08,9.216,9.216,0,0,1-.08-1.36Zm-1.22-.32v1.62h-8.92V-9.64ZM-67.4-.52a13.683,13.683,0,0,1-.12,2.06h1.34V.62h12.34v.92h1.34a13.144,13.144,0,0,1-.12-2.06V-3.94a15.043,15.043,0,0,1,.08-1.94c-.44.04-.84.06-1.9.06H-65.58c-1.06,0-1.46-.02-1.9-.06a14.646,14.646,0,0,1,.08,1.94Zm1.22-4.28h5.38v1.64h-5.38Zm6.56,0h5.78v1.64h-5.78Zm-6.56,2.66h5.38V-.4h-5.38Zm6.56,0h5.78V-.4h-5.78ZM-43.4-16.22a20.576,20.576,0,0,1-.68,3.76c-.38,0-1.04.02-1.44.02a12.638,12.638,0,0,1-2.38-.16l-.02,1.38h.26c.06,0,.22,0,.44.02.3,0,.98.02,1.32.02.3,0,.98-.02,1.48-.04A29.947,29.947,0,0,1-46.5-6.06a17.657,17.657,0,0,1-1.92,3.12l1.36.8c.1-.16.22-.4.4-.68.76-1.32.94-1.66,1.42-2.62a37.261,37.261,0,0,0,2.22-5.84,24.145,24.145,0,0,0,3.28-.42c.48-.08.48-.08.7-.12l-.06-1.38a16.643,16.643,0,0,1-3.58.66c.28-1.02.4-1.5.54-2.18A6.264,6.264,0,0,1-41.82-16Zm11.78,5.52a27.566,27.566,0,0,0-5.28-2.64l-.74,1.12a21.691,21.691,0,0,1,5.3,2.72Zm.04,8.86a2.024,2.024,0,0,1-.36-.32,14.367,14.367,0,0,0-3.92-2.42,23.858,23.858,0,0,1-.22-3.04,6.138,6.138,0,0,1,.26-1.86l-1.36-.14a8.1,8.1,0,0,0-.2,1.94c0,.5.04,1.44.14,2.74a6.6,6.6,0,0,0-2.02-.3,5.845,5.845,0,0,0-2.36.44,2.836,2.836,0,0,0-1.86,2.54c0,1.78,1.5,2.9,3.9,2.9,2.44,0,3.8-1.14,3.8-3.2a4.145,4.145,0,0,0-.04-.64,11.44,11.44,0,0,1,3.5,2.72Zm-5.56-1.82s.04.62.04.86c0,1.5-.78,2.18-2.5,2.18-1.58,0-2.54-.62-2.54-1.64,0-1.1,1.08-1.8,2.78-1.8A5.935,5.935,0,0,1-37.14-3.66Zm11.98-8.4a11.017,11.017,0,0,1-2.16-.14l.02,1.52a12.056,12.056,0,0,1,2.12-.1l3.64-.02a13.013,13.013,0,0,1-1.24,4.76,11.7,11.7,0,0,1-5.2,5.26A4.143,4.143,0,0,1-26.96.4a14.444,14.444,0,0,0,5.24-5.3,15.082,15.082,0,0,0,1.6-5.9l5.6-.02a44.037,44.037,0,0,1-.5,7.1c-.38,1.98-.7,2.46-1.68,2.46a8.445,8.445,0,0,1-2.58-.52,3.288,3.288,0,0,1,.22,1.26v.24a11.383,11.383,0,0,0,2.48.34c1.8,0,2.4-.72,2.9-3.46a54.558,54.558,0,0,0,.56-7,3,3,0,0,1,.16-1.2l-.74-.64a3.2,3.2,0,0,1-1.32.14l-5,.02c.06-.56.06-.8.1-1.42a16.7,16.7,0,0,1,.16-2.58l-1.62-.04a5.361,5.361,0,0,1,.08,1.04c0,.88-.04,1.98-.12,3ZM5.86-8.68a18.257,18.257,0,0,1,2.3.1v-1.48a14.409,14.409,0,0,1-2.32.12H-5.86a14.409,14.409,0,0,1-2.32-.12v1.48a18.257,18.257,0,0,1,2.3-.1H-.46a11.446,11.446,0,0,1-.8,4.14C-2.08-2.72-3.7-1.44-6.32-.6A3.5,3.5,0,0,1-5.38.7,11.761,11.761,0,0,0-1.86-1.28,7.87,7.87,0,0,0,.84-6.56a18.653,18.653,0,0,0,.22-2.12ZM-6.16-13.5a16.086,16.086,0,0,1,2.28-.1H3.94a16.086,16.086,0,0,1,2.28.1v-1.52a11.053,11.053,0,0,1-2.3.14H-3.86a11.053,11.053,0,0,1-2.3-.14ZM24.44-1.34V-.12h1.6a10.66,10.66,0,0,1-.1-1.84V-13.74c-.22,0-.74.02-1.58.04H15.34a10.5,10.5,0,0,1-2.3-.14v1.6a15.548,15.548,0,0,1,2.3-.1h9.1V-2.7H14.92a9.463,9.463,0,0,1-2.18-.14v1.6a6.745,6.745,0,0,1,1.22-.08l.92-.02Zm.18-14.56a13.83,13.83,0,0,1,2.04,3.18l1-.6a15.942,15.942,0,0,0-2.04-3.1Zm2.26-1.06a15.4,15.4,0,0,1,2.06,3.14l1-.58a16.159,16.159,0,0,0-2.08-3.1Zm7.82,1.52a11.762,11.762,0,0,1,.08,1.68v5.34a12.125,12.125,0,0,1-.08,1.68h1.66a10.592,10.592,0,0,1-.08-1.66v-5.38a10.926,10.926,0,0,1,.08-1.66Zm8.84,0a11.121,11.121,0,0,1,.08,1.76v2.26a24.868,24.868,0,0,1-.28,5.1,5.966,5.966,0,0,1-3.2,4.22,11.645,11.645,0,0,1-3.8,1.36A3.825,3.825,0,0,1,37.18.64,15.746,15.746,0,0,0,40.82-.8a7.6,7.6,0,0,0,3.8-4.44,22.54,22.54,0,0,0,.5-6.1V-13.7a8.927,8.927,0,0,1,.1-1.74Zm8.2,8.58a21.848,21.848,0,0,1,2.48-.08h11.6a22.879,22.879,0,0,1,2.44.08V-8.48a15.774,15.774,0,0,1-2.42.1H54.22a14.148,14.148,0,0,1-2.48-.12ZM87.56,0c-.56-.48-1.24-1.12-1.9-1.78L84.36-3.1a13.431,13.431,0,0,0,2.28-4.86l-1.4-.54A10.194,10.194,0,0,1,83.4-4.06l-4.18-4.2a8.591,8.591,0,0,0,2.62-1.42A3.316,3.316,0,0,0,83-12.34c0-1.86-1.64-3.14-4.04-3.14a3.947,3.947,0,0,0-3.52,1.58,2.839,2.839,0,0,0-.52,1.68A3.755,3.755,0,0,0,76.24-9.4l.68.72a7.444,7.444,0,0,0-2.58,1.62,4.246,4.246,0,0,0-1.32,3.14A4.078,4.078,0,0,0,74.16-1,5.077,5.077,0,0,0,77.92.3a7.962,7.962,0,0,0,3.02-.58A6.946,6.946,0,0,0,83.38-2l.46.48A16.472,16.472,0,0,1,85.1,0ZM77.38-10.14a2.607,2.607,0,0,1-.94-1.98c0-1.3.98-2.1,2.54-2.1s2.52.78,2.52,2.06a2.254,2.254,0,0,1-1.16,1.96,11.23,11.23,0,0,1-2.08.96Zm5.04,7.18a5.941,5.941,0,0,1-1.9,1.36,5.959,5.959,0,0,1-2.48.54c-2.14,0-3.5-1.16-3.5-2.96a3.1,3.1,0,0,1,1-2.3,7.28,7.28,0,0,1,2.32-1.36ZM-85.16,9.94a11.017,11.017,0,0,1-2.16-.14l.02,1.52a12.056,12.056,0,0,1,2.12-.1l3.64-.02a13.013,13.013,0,0,1-1.24,4.76,11.7,11.7,0,0,1-5.2,5.26,4.144,4.144,0,0,1,1.02,1.18,14.443,14.443,0,0,0,5.24-5.3,15.082,15.082,0,0,0,1.6-5.9l5.6-.02a44.038,44.038,0,0,1-.5,7.1c-.38,1.98-.7,2.46-1.68,2.46a8.445,8.445,0,0,1-2.58-.52,3.288,3.288,0,0,1,.22,1.26v.24a11.383,11.383,0,0,0,2.48.34c1.8,0,2.4-.72,2.9-3.46a54.558,54.558,0,0,0,.56-7,3,3,0,0,1,.16-1.2l-.74-.64a3.2,3.2,0,0,1-1.32.14l-5,.02c.06-.56.06-.8.1-1.42a16.7,16.7,0,0,1,.16-2.58l-1.62-.04a5.361,5.361,0,0,1,.08,1.04c0,.88-.04,1.98-.12,3Zm31.02,3.38a18.257,18.257,0,0,1,2.3.1V11.94a14.409,14.409,0,0,1-2.32.12h-11.7a14.409,14.409,0,0,1-2.32-.12v1.48a18.257,18.257,0,0,1,2.3-.1h5.42a11.446,11.446,0,0,1-.8,4.14c-.82,1.82-2.44,3.1-5.06,3.94a3.5,3.5,0,0,1,.94,1.3,11.761,11.761,0,0,0,3.52-1.98,7.87,7.87,0,0,0,2.7-5.28,18.652,18.652,0,0,0,.22-2.12ZM-66.16,8.5a16.086,16.086,0,0,1,2.28-.1h7.82a16.086,16.086,0,0,1,2.28.1V6.98a11.053,11.053,0,0,1-2.3.14h-7.78a11.053,11.053,0,0,1-2.3-.14Zm30.6,12.16v1.22h1.6a10.659,10.659,0,0,1-.1-1.84V8.26c-.22,0-.74.02-1.58.04h-9.02a10.5,10.5,0,0,1-2.3-.14v1.6a15.548,15.548,0,0,1,2.3-.1h9.1V19.3h-9.52a9.463,9.463,0,0,1-2.18-.14v1.6a6.745,6.745,0,0,1,1.22-.08l.92-.02Zm.18-14.56a13.829,13.829,0,0,1,2.04,3.18l1-.6a15.943,15.943,0,0,0-2.04-3.1Zm2.26-1.06a15.4,15.4,0,0,1,2.06,3.14l1-.58a16.159,16.159,0,0,0-2.08-3.1Zm7.82,1.52a11.762,11.762,0,0,1,.08,1.68v5.34a12.126,12.126,0,0,1-.08,1.68h1.66a10.592,10.592,0,0,1-.08-1.66V8.22a10.926,10.926,0,0,1,.08-1.66Zm8.84,0a11.121,11.121,0,0,1,.08,1.76v2.26a24.868,24.868,0,0,1-.28,5.1,5.966,5.966,0,0,1-3.2,4.22,11.645,11.645,0,0,1-3.8,1.36,3.825,3.825,0,0,1,.84,1.38,15.746,15.746,0,0,0,3.64-1.44,7.6,7.6,0,0,0,3.8-4.44,22.54,22.54,0,0,0,.5-6.1V8.3a8.927,8.927,0,0,1,.1-1.74Zm8.2,8.58a21.848,21.848,0,0,1,2.48-.08H5.82a22.879,22.879,0,0,1,2.44.08V13.52a15.774,15.774,0,0,1-2.42.1H-5.78a14.148,14.148,0,0,1-2.48-.12ZM19.12,7.48a14.287,14.287,0,0,1-1.6-.08,12.7,12.7,0,0,1,.08,1.36v9.78c0,.5-.02.92-.06,1.36.46-.04.94-.06,1.54-.06h7.2c.54,0,.96.02,1.4.06-.04-.52-.06-.9-.06-1.34V16.02a15.288,15.288,0,0,1,.06-1.54,8.669,8.669,0,0,1-1.44.06H18.86V12.48h6.78c.58,0,.94.02,1.46.06a8.757,8.757,0,0,1-.06-1.36V8.74A9.436,9.436,0,0,1,27.1,7.4a9.34,9.34,0,0,1-1.44.08h-3.4c.32-.48.68-1.08,1.12-1.9l-1.34-.32A12.319,12.319,0,0,1,20.9,7.48Zm-.26,1.1H25.8V11.4H18.86Zm0,7.04h7.52v3.1H18.86ZM11.28,6.66a17.99,17.99,0,0,1,3.1,3.64l1.02-.9a22.18,22.18,0,0,0-3.18-3.58Zm-.14,8a7.835,7.835,0,0,1,1.46-.1h1.32v4.82A14.171,14.171,0,0,1,10.7,21.8l.66,1.3c.3-.26.5-.44.74-.62a20.962,20.962,0,0,0,2.4-2.14,4.718,4.718,0,0,0,2.02,1.88c1.14.56,2.5.74,5.78.74,2.28,0,4-.04,6.64-.12a4.439,4.439,0,0,1,.46-1.44,64.857,64.857,0,0,1-7.94.36c-2.78,0-4.02-.2-4.96-.82a3.007,3.007,0,0,1-1.32-1.62v-3.9a19.2,19.2,0,0,1,.08-2.1,11.312,11.312,0,0,1-1.5.1H12.68a8.1,8.1,0,0,1-1.54-.1ZM35.76,9.14a22.474,22.474,0,0,1,.18-3.78H34.42a9.154,9.154,0,0,1,.14,2.18c0,.62,0,1.04-.04,1.6H33.36A11.851,11.851,0,0,1,31.16,9v1.48a11.918,11.918,0,0,1,2.1-.14h1.2a21.948,21.948,0,0,1-1.76,8.32,12.3,12.3,0,0,1-2.24,3.32,4.544,4.544,0,0,1,1.02,1.12,15.42,15.42,0,0,0,2.02-3.06,16.506,16.506,0,0,0,1.46-4.02,31.312,31.312,0,0,0,.76-5.68h2.92c-.02,2.14-.06,3.26-.16,5.16a27.918,27.918,0,0,1-.76,5.38c-.14.34-.4.48-.94.48a12.091,12.091,0,0,1-2.34-.32,5.029,5.029,0,0,1,.2,1.32,17.909,17.909,0,0,0,2.44.22c1.38,0,1.8-.46,2.16-2.46a61.284,61.284,0,0,0,.66-8.52A15.773,15.773,0,0,1,40,9.06a19.5,19.5,0,0,1-2.08.08Zm7.22,12.04h4.14v1.44H48.5a14.307,14.307,0,0,1-.12-1.96V9.9a15.133,15.133,0,0,1,.1-2.1,11.5,11.5,0,0,1-1.74.1H43.38a11.452,11.452,0,0,1-1.76-.1,15.487,15.487,0,0,1,.1,2.1V20.5a18.46,18.46,0,0,1-.12,2.28h1.38Zm0-12.12h4.14V20.02H42.98ZM62.36,16.6a11.49,11.49,0,0,0,1.22,3.38A13.908,13.908,0,0,1,58.4,22.4a3.02,3.02,0,0,1,.8,1.02,15.67,15.67,0,0,0,4.96-2.52c1.14,1.64,2.22,2.48,3.2,2.48.94,0,1.34-.74,1.8-3.26a4.043,4.043,0,0,1-1.02-.7,9.111,9.111,0,0,1-.36,2.02c-.18.52-.3.68-.54.68-.52,0-1.34-.72-2.2-1.94a23.737,23.737,0,0,0,2.32-2.44l-1.02-.7a7.182,7.182,0,0,1-1.86,2.24,9.445,9.445,0,0,1-1-2.68h3.34a12.611,12.611,0,0,1,2.12.12v-1.3a10.525,10.525,0,0,1-2.12.12H63.28a51.3,51.3,0,0,1-.56-8.06,10.763,10.763,0,0,1,.1-1.96h-1.4a7.851,7.851,0,0,1,.1,1.26,51.871,51.871,0,0,0,.3,6.26,22.879,22.879,0,0,0,.34,2.5H57.6a11.074,11.074,0,0,1-1.8-.1V16.7a11.847,11.847,0,0,1,1.8-.1h.22c-.2,2.86-1.04,4.54-2.88,5.82a3.038,3.038,0,0,1,.96.86,8.243,8.243,0,0,0,2.74-4.52,8.922,8.922,0,0,0,2.18,1.9,4.215,4.215,0,0,1,.66-.96,7.9,7.9,0,0,1-2.6-2.14c.04-.4.04-.44.08-.96Zm1.14-2.84a3.093,3.093,0,0,1,.34-.06c2.16-.28,3.48-.46,3.94-.56.14.36.22.58.4,1.18l.92-.36a17.119,17.119,0,0,0-1.46-3.08l-.82.32a6.744,6.744,0,0,1,.6,1.12,21.834,21.834,0,0,1-2.44.28c.98-1.1,1.54-1.82,3.36-4.26l-.92-.72a20.388,20.388,0,0,1-1.54,2.4c-.38-.48-.56-.7-.96-1.14a22.752,22.752,0,0,0,1.82-2.76L65.7,5.56A11.116,11.116,0,0,1,64.24,8.2c-.22-.22-.3-.3-.62-.6l-.66.84a11.5,11.5,0,0,1,2.3,2.42c-.64.82-.8,1.02-1.48,1.8a.75.75,0,0,1-.2.02,1.847,1.847,0,0,1-.3-.02ZM58.56,5.48a10.324,10.324,0,0,1-1.52,2.88c-.22-.2-.4-.38-.56-.54l-.72.8a13.158,13.158,0,0,1,2.36,2.5c-.52.76-.88,1.22-1.6,2.1a2.312,2.312,0,0,1-.34.02,1.249,1.249,0,0,1-.24-.02l.24,1.14a5.482,5.482,0,0,1,.56-.1c1.92-.3,2.98-.5,3.82-.68.1.36.14.48.24.88l.9-.38a12.535,12.535,0,0,0-1.3-2.86l-.8.3a7.463,7.463,0,0,1,.66,1.24c-.64.12-1.52.24-2.5.36a36.106,36.106,0,0,0,3.1-4.4l-.96-.68a16.411,16.411,0,0,1-1.2,2.2,9.814,9.814,0,0,0-.96-1.16A18.27,18.27,0,0,0,59.62,6ZM53.1,9.42h-.86a7.9,7.9,0,0,1-1.38-.08V10.6a8.663,8.663,0,0,1,1.38-.08h.7a17.016,17.016,0,0,1-2.6,6.6,4.216,4.216,0,0,1,.72,1.16,17.261,17.261,0,0,0,2.26-6.26c-.12,1.52-.2,3.08-.2,3.86v5.46A16.8,16.8,0,0,1,53,23.66h1.4a16.212,16.212,0,0,1-.1-2.32V14.78c0-.7-.04-1.56-.08-2.94a6.916,6.916,0,0,0,1.08,2.14,6.8,6.8,0,0,1,.56-1.04,7.792,7.792,0,0,1-1.48-2.42h.48a8.62,8.62,0,0,1,1.28.08V9.34a7.308,7.308,0,0,1-1.3.08H54.3V7.44a16.856,16.856,0,0,1,.08-2.06H53a12.254,12.254,0,0,1,.1,2.08ZM64.74,14.2a7.252,7.252,0,0,1,1.5,1.32l.72-.68a6.9,6.9,0,0,0-1.52-1.22Zm6.44-3.34a7.975,7.975,0,0,1,1.18-.14c1.96-.12,4.84-.44,6.32-.68.26.46.32.58.62,1.2l1.06-.62A31.167,31.167,0,0,0,77.78,6.6l-.94.48A17.5,17.5,0,0,1,78.1,9.04c-1.42.18-2.2.26-4.2.4a33.63,33.63,0,0,0,1.66-3.02,4.805,4.805,0,0,1,.4-.78l-1.4-.4a11.386,11.386,0,0,1-1.1,2.7,15.519,15.519,0,0,1-.88,1.56c-.58.02-.58.02-.7.02-.16,0-.6-.02-.88-.02Zm11.1-3.54a7.872,7.872,0,0,1,.12-1.74H80.94a10.779,10.779,0,0,1,.12,1.74v4.72c0,1.16.5,1.36,3.36,1.36,2.58,0,3.36-.1,3.7-.52.34-.4.52-1.16.66-2.84a4.365,4.365,0,0,1-1.18-.5c-.08,1.78-.18,2.3-.5,2.5-.28.18-.88.22-2.7.22-1.9,0-2.12-.06-2.12-.62V9.84a23.712,23.712,0,0,0,5.06-2.06c.8-.44.8-.44,1.12-.6l-.88-1.06a16.152,16.152,0,0,1-5.3,2.54Zm0,9.06a8.55,8.55,0,0,1,.1-1.74H80.96a9.139,9.139,0,0,1,.1,1.8v5c0,.66.16.96.64,1.16a7.609,7.609,0,0,0,3.06.3c2.2,0,2.88-.1,3.32-.52.48-.46.7-1.24.86-3.14a5.436,5.436,0,0,1-1.2-.52,6.012,6.012,0,0,1-.42,2.58c-.26.32-.9.44-2.48.44a10.8,10.8,0,0,1-1.92-.1c-.5-.08-.64-.22-.64-.62V18.64a22.1,22.1,0,0,0,3.2-1.08c.7-.3,2.24-1.08,3.12-1.58l-.94-1.04a14.711,14.711,0,0,1-5.38,2.5Zm-9.94,5.08a13.27,13.27,0,0,1-.1,2h1.42a13.538,13.538,0,0,1-.1-2.04v-2.5h4.42V21.5c0,.36-.12.44-.66.44a11.711,11.711,0,0,1-1.54-.1,5.6,5.6,0,0,1,.3,1.24c.26.02.48.02.62.02,2.14,0,2.46-.2,2.46-1.48v-8.5c0-.36.02-.96.06-1.34a14.863,14.863,0,0,1-1.84.08h-3.5a12.087,12.087,0,0,1-1.62-.08,16.382,16.382,0,0,1,.08,1.84Zm1.22-8.5h4.42v1.88H73.56Zm0,2.94h4.42v1.96H73.56Z" transform="translate(1092.097 581.648)" fill="#070304"/>
    <g id="グループ_3525" data-name="グループ 3525" transform="translate(1042.519 605.375)">
      <path id="パス_51327" data-name="パス 51327" d="M20.923,10.614a21.706,21.706,0,0,1,37.315,0L76,40.31c8.743,14.613-1.712,33.238-18.658,33.238H21.814c-16.946,0-27.4-18.624-18.658-33.238Z" transform="matrix(0.961, 0.276, -0.276, 0.961, 23.062, 0)" fill="#ffc2b9"/>
      <path id="パス_51326" data-name="パス 51326" d="M21.138,10.652a22,22,0,0,1,37.7,0l17.95,29.8a22,22,0,0,1-18.85,33.357h-35.9A22,22,0,0,1,3.189,40.455Z" transform="translate(76.878 101.633) rotate(-164)" fill="#ff8977" opacity="0.6"/>
    </g>
    <g id="グループ_20119" data-name="グループ 20119" transform="translate(1078.617 640.141)">
      <path id="パス_51369" data-name="パス 51369" d="M355.48,109.715A4.285,4.285,0,1,0,359.765,114a4.283,4.283,0,0,0-4.285-4.285m0,7.066A2.781,2.781,0,1,1,358.259,114a2.779,2.779,0,0,1-2.779,2.781" transform="translate(-351.193 -97.953)"/>
      <path id="パス_51370" data-name="パス 51370" d="M373.417,110.473h-15.3a.752.752,0,0,0,0,1.5h15.3a.752.752,0,0,0,0-1.5" transform="translate(-347.56 -97.507)"/>
      <path id="パス_51371" data-name="パス 51371" d="M366.359,113.407h-8.238a.752.752,0,0,0,0,1.5h8.238a.752.752,0,0,0,0-1.5" transform="translate(-347.56 -95.781)"/>
      <path id="パス_51372" data-name="パス 51372" d="M355.48,102.309a4.284,4.284,0,1,0,4.285,4.285,4.283,4.283,0,0,0-4.285-4.285m0,7.058a2.781,2.781,0,1,1,2.779-2.781,2.779,2.779,0,0,1-2.779,2.781" transform="translate(-351.193 -102.309)"/>
      <path id="パス_51373" data-name="パス 51373" d="M373.417,103.042h-15.3a.752.752,0,0,0,0,1.5h15.3a.752.752,0,0,0,0-1.5" transform="translate(-347.56 -101.878)"/>
      <path id="パス_51374" data-name="パス 51374" d="M366.359,106.024h-8.238a.752.752,0,0,0,0,1.5h8.238a.752.752,0,0,0,0-1.5" transform="translate(-347.56 -100.124)"/>
      <path id="パス_51375" data-name="パス 51375" d="M355.48,117.127a4.284,4.284,0,1,0,4.285,4.285,4.283,4.283,0,0,0-4.285-4.285m0,7.058a2.781,2.781,0,1,1,2.779-2.781,2.779,2.779,0,0,1-2.779,2.781" transform="translate(-351.193 -93.593)"/>
      <path id="パス_51376" data-name="パス 51376" d="M373.417,117.856h-15.3a.752.752,0,0,0,0,1.5h15.3a.752.752,0,0,0,0-1.5" transform="translate(-347.56 -93.164)"/>
      <path id="パス_51377" data-name="パス 51377" d="M366.359,120.837h-8.238a.752.752,0,0,0,0,1.5h8.238a.752.752,0,0,0,0-1.5" transform="translate(-347.56 -91.41)"/>
    </g>
  </g>
</svg>
