<svg xmlns="http://www.w3.org/2000/svg" xmlns:xlink="http://www.w3.org/1999/xlink" width="273.193" height="276.591" viewBox="0 0 273.193 276.591">
  <defs>
    <filter id="長方形_13553" x="0" y="0" width="273.193" height="276.591" filterUnits="userSpaceOnUse">
      <feOffset dy="3" input="SourceAlpha"/>
      <feGaussianBlur stdDeviation="3" result="blur"/>
      <feFlood flood-opacity="0.161"/>
      <feComposite operator="in" in2="blur"/>
      <feComposite in="SourceGraphic"/>
    </filter>
    <clipPath id="clip-path">
      <rect id="長方形_1379" data-name="長方形 1379" width="35.182" height="33.558" transform="translate(0 0)"/>
    </clipPath>
  </defs>
  <g id="グループ_62194" data-name="グループ 62194" transform="translate(-1535.597 -1191.152)">
    <g id="グループ_62192" data-name="グループ 62192" transform="translate(0 657)">
      <g transform="matrix(1, 0, 0, 1, 1535.6, 534.15)" filter="url(#長方形_13553)">
        <rect id="長方形_13553-2" data-name="長方形 13553" width="255.193" height="258.591" rx="4.252" transform="translate(9 6)" fill="#fff"/>
      </g>
      <text id="簡単入力で_お見積書や経歴書を作成できます_トラブル回避のためにどんどん活用しましょう_" data-name="簡単入力で、お見積書や経歴書を作成できます。トラブル回避のためにどんどん活用しましょう。" transform="translate(1560.693 718.145)" fill="#1b1311" font-size="13" font-family="HiraginoSans-W3, Hiragino Sans"><tspan x="0" y="11">簡単入力で、お見積書や経歴書を作成</tspan><tspan x="0" y="28">できます。トラブル回避のためにどん</tspan><tspan x="0" y="45">どん活用しましょう。</tspan></text>
      <text id="お見積書_経歴書_NDA_機密保持契約_等の_入力フォーム機能" data-name="お見積書・経歴書・NDA
（機密保持契約）等の
入力フォーム機能" transform="translate(1672.193 578.375)" fill="#070304" font-size="20" font-family="HiraginoSans-W3, Hiragino Sans"><tspan x="-112.82" y="0">お見積書・経歴書・NDA</tspan><tspan x="-100" y="22">（機密保持契約）等の</tspan><tspan x="-79.5" y="44">入力フォーム機能</tspan></text>
      <g id="グループ_62002" data-name="グループ 62002" transform="translate(960.573 31.5)">
        <path id="パス_51327" data-name="パス 51327" d="M21.1,10.7a21.89,21.89,0,0,1,37.632,0L76.651,40.653c8.817,14.738-1.726,33.52-18.816,33.52H22c-17.09,0-27.633-18.783-18.816-33.52Z" transform="matrix(0.961, 0.276, -0.276, 0.961, 684.879, 589)" fill="#ffc2b9"/>
        <path id="パス_51326" data-name="パス 51326" d="M21.318,10.742a22.191,22.191,0,0,1,38.02,0L77.44,40.8A22.191,22.191,0,0,1,58.43,74.44h-36.2A22.191,22.191,0,0,1,3.216,40.8Z" transform="translate(739.152 691.497) rotate(-164)" fill="#ff8977" opacity="0.6"/>
        <g id="グループ_2818" data-name="グループ 2818" transform="translate(694.301 622.558)" clip-path="url(#clip-path)">
          <path id="パス_5724" data-name="パス 5724" d="M31.927,33.015H3.641A3.646,3.646,0,0,1,0,29.375V13.641A3.646,3.646,0,0,1,3.641,10H7.323a1.046,1.046,0,1,1,0,2.092H3.641a1.551,1.551,0,0,0-1.549,1.548V29.375a1.551,1.551,0,0,0,1.549,1.548H31.927a1.55,1.55,0,0,0,1.548-1.548V13.641a1.55,1.55,0,0,0-1.548-1.548h-.544a1.046,1.046,0,0,1,0-2.092h.544a3.646,3.646,0,0,1,3.64,3.64V29.375a3.646,3.646,0,0,1-3.64,3.64" transform="translate(-0.016 0.518)"/>
          <path id="パス_5725" data-name="パス 5725" d="M6.481,22.6A1.046,1.046,0,0,1,5.45,21.387l.89-5.343a1.042,1.042,0,0,1,.292-.567L21.8.307a1.037,1.037,0,0,1,.807-.3A6.741,6.741,0,0,1,26.3,1.4a1.029,1.029,0,0,1,.177.174,6.934,6.934,0,0,1,1.511,3.8,1.048,1.048,0,0,1-.3.822L12.519,21.361a1.034,1.034,0,0,1-.558.291l-5.3.935a.966.966,0,0,1-.182.017m1.867-5.886L7.756,20.27l3.516-.62L25.847,5.077a4.849,4.849,0,0,0-.921-2.1,4.654,4.654,0,0,0-2-.837Z" transform="translate(0.234 0.057)"/>
          <path id="パス_5726" data-name="パス 5726" d="M28.461,22.093H19.046a1.046,1.046,0,0,1,0-2.092h9.415a1.046,1.046,0,1,1,0,2.092" transform="translate(0.814 0.979)"/>
          <path id="パス_5727" data-name="パス 5727" d="M28.645,27.093h-13.6a1.046,1.046,0,1,1,0-2.092h13.6a1.046,1.046,0,1,1,0,2.092" transform="translate(0.629 1.21)"/>
          <path id="パス_5728" data-name="パス 5728" d="M21.74,11a1.043,1.043,0,0,1-.74-.307L16.594,6.287a1.046,1.046,0,1,1,1.479-1.479L22.48,9.215A1.046,1.046,0,0,1,21.74,11" transform="translate(0.735 0.265)"/>
          <path id="パス_5729" data-name="パス 5729" d="M21.714,15.98a1.046,1.046,0,0,1-.74-1.786L26.1,9.072l.931.515-.861-.594a.453.453,0,0,0-.114-.63,1.087,1.087,0,0,1-.146-.121L24.565,6.9a1.046,1.046,0,0,1,1.479-1.479L27.325,6.7a2.546,2.546,0,0,1,.242,3.857l-5.113,5.113a1.043,1.043,0,0,1-.74.307" transform="translate(0.937 0.293)"/>
        </g>
      </g>
    </g>
  </g>
</svg>
