<svg xmlns="http://www.w3.org/2000/svg" xmlns:xlink="http://www.w3.org/1999/xlink" width="273.193" height="276.591" viewBox="0 0 273.193 276.591">
  <defs>
    <filter id="パス_106507" x="0" y="0" width="273.193" height="276.591" filterUnits="userSpaceOnUse">
      <feOffset dy="3" input="SourceAlpha"/>
      <feGaussianBlur stdDeviation="3" result="blur"/>
      <feFlood flood-opacity="0.161"/>
      <feComposite operator="in" in2="blur"/>
      <feComposite in="SourceGraphic"/>
    </filter>
    <clipPath id="clip-path">
      <rect id="長方形_1351" data-name="長方形 1351" width="18.403" height="17.861" transform="translate(0)"/>
    </clipPath>
    <clipPath id="clip-path-2">
      <rect id="長方形_1352" data-name="長方形 1352" width="24.898" height="24.898"/>
    </clipPath>
  </defs>
  <g id="グループ_62101" data-name="グループ 62101" transform="translate(-393 -534.152)">
    <g transform="matrix(1, 0, 0, 1, 393, 534.15)" filter="url(#パス_106507)">
      <path id="パス_106507-2" data-name="パス 106507" d="M4.252,0H250.941a4.252,4.252,0,0,1,4.252,4.252V254.339a4.252,4.252,0,0,1-4.252,4.252H4.252A4.252,4.252,0,0,1,0,254.339V4.252A4.252,4.252,0,0,1,4.252,0Z" transform="translate(9 6)" fill="#fff"/>
    </g>
    <path id="パス_106508" data-name="パス 106508" d="M-24.22-4.1a16.939,16.939,0,0,1,1.94.08,14.147,14.147,0,0,1-.06-1.5V-7.46c0-.48.02-.94.06-1.44-.52.04-.98.06-1.82.06h-2.76c.02-.46.02-.6.02-1v-.74h1.12a15.045,15.045,0,0,1,1.78.08v-1.2A18.739,18.739,0,0,0-21.3-10a4.166,4.166,0,0,1,.76-1.16,15.13,15.13,0,0,1-4.1-2.62,11.733,11.733,0,0,1-2.24-2.66h-1.38a13.352,13.352,0,0,1-5.44,5.46,2.855,2.855,0,0,1,.82,1,20.9,20.9,0,0,0,2.16-1.64v1.12a15.263,15.263,0,0,1,1.78-.08h.92v1.74h-2.6a13.658,13.658,0,0,1-1.76-.06,11.585,11.585,0,0,1,.06,1.3v2.34a12.266,12.266,0,0,1-.06,1.24,16,16,0,0,1,1.82-.08h1.96c-.78,2.24-2.38,3.54-5.38,4.38a3.348,3.348,0,0,1,.76,1.12A12.8,12.8,0,0,0-29.86-.36,7.042,7.042,0,0,0-27.52-3.6a10.386,10.386,0,0,0,6.02,5A4.857,4.857,0,0,1-20.76.18,9.063,9.063,0,0,1-26.62-4.1Zm-4.72-7.56c-.74,0-1.2-.02-1.66-.06a14.342,14.342,0,0,0,3.06-3.72,14.4,14.4,0,0,0,3.56,3.72c-.48.04-.94.06-1.74.06Zm.88,3.86a18.087,18.087,0,0,1-.28,2.68h-2.82V-7.8Zm4.56,0v2.68h-3.66a21.734,21.734,0,0,0,.28-2.68Zm-10.78-3.78a11.981,11.981,0,0,1,1.24.06v-1.26a7.094,7.094,0,0,1-1.26.08h-.78v-1.98a13.058,13.058,0,0,1,.1-2.04h-1.38a11.974,11.974,0,0,1,.1,2.06v1.96h-1.28a8.312,8.312,0,0,1-1.4-.08v1.28a8.62,8.62,0,0,1,1.4-.08h1.06a19.05,19.05,0,0,1-2.92,7,4.065,4.065,0,0,1,.8,1.14,16.253,16.253,0,0,0,1.88-4.2c.38-1.34.38-1.34.56-1.96-.06,1.2-.1,2.26-.1,3.16V-.78a17,17,0,0,1-.12,2.32h1.42a16.213,16.213,0,0,1-.12-2.32V-6.86c0-.94-.04-2.32-.08-3.22a15.88,15.88,0,0,0,1.74,3.5A4.489,4.489,0,0,1-32.7-7.6a12.436,12.436,0,0,1-2.28-3.98ZM-18.1-3.86a9.271,9.271,0,0,1,1.4-.08c1.36-.02,3.26-.08,5.9-.2V-.36a8.7,8.7,0,0,1-.12,1.82h1.56A8.817,8.817,0,0,1-9.5-.36V-4.2c2.38-.1,2.38-.1,5.7-.36.58.66.78.88,1.4,1.64l.94-.84A29.979,29.979,0,0,0-5.5-7.66L-6.4-7c.82.68,1.1.94,1.7,1.5-3.44.22-3.44.22-6.2.3A28.5,28.5,0,0,0-6.78-8.66c.28-.3.48-.48.68-.66l-1.3-.64a13.913,13.913,0,0,1-3.12,3.22c-.84-.68-.88-.7-1.72-1.32A22.538,22.538,0,0,0-9.7-10.8h6.64v2.68h1.34a7.9,7.9,0,0,1-.08-1.3v-1.36a7.235,7.235,0,0,1,.08-1.2,18.583,18.583,0,0,1-2,.08H-9.58v-1.92h5.9a20.064,20.064,0,0,1,2.2.1v-1.34a14.7,14.7,0,0,1-2.2.12h-5.9v-.34a6.65,6.65,0,0,1,.14-1.4h-1.52a6.52,6.52,0,0,1,.14,1.4v.34H-16.2a15.008,15.008,0,0,1-2.22-.12v1.34a15.846,15.846,0,0,1,2.2-.1h5.4v1.92h-5.4a19.311,19.311,0,0,1-2-.08,8.114,8.114,0,0,1,.08,1.28v1.3a8.011,8.011,0,0,1-.08,1.26h1.34V-10.8h5.66a11,11,0,0,1-1.92,2.1c-.56-.38-.8-.52-1.54-.98l-.82.86a32.589,32.589,0,0,1,4.06,2.8c-.36.28-.36.28-.76.56-.1.06-.22.16-.42.3-1.44.04-1.74.04-3,.04a19.831,19.831,0,0,1-2.72-.12Zm4.44.48a8.291,8.291,0,0,1-2.08,1.84A10.615,10.615,0,0,1-18.4-.26,3.827,3.827,0,0,1-17.42.8a13.774,13.774,0,0,0,4.84-3.52Zm5.98.58A18.065,18.065,0,0,0-2.48.74,4.73,4.73,0,0,1-1.6-.38,14.476,14.476,0,0,1-6.72-3.56ZM12.36-5.4a11.49,11.49,0,0,0,1.22,3.38A13.908,13.908,0,0,1,8.4.4a3.02,3.02,0,0,1,.8,1.02A15.67,15.67,0,0,0,14.16-1.1c1.14,1.64,2.22,2.48,3.2,2.48.94,0,1.34-.74,1.8-3.26a4.043,4.043,0,0,1-1.02-.7,9.112,9.112,0,0,1-.36,2.02c-.18.52-.3.68-.54.68-.52,0-1.34-.72-2.2-1.94a23.737,23.737,0,0,0,2.32-2.44l-1.02-.7a7.182,7.182,0,0,1-1.86,2.24,9.445,9.445,0,0,1-1-2.68h3.34a12.611,12.611,0,0,1,2.12.12v-1.3a10.526,10.526,0,0,1-2.12.12H13.28a51.3,51.3,0,0,1-.56-8.06,10.763,10.763,0,0,1,.1-1.96h-1.4a7.851,7.851,0,0,1,.1,1.26,51.871,51.871,0,0,0,.3,6.26,22.88,22.88,0,0,0,.34,2.5H7.6a11.074,11.074,0,0,1-1.8-.1V-5.3a11.847,11.847,0,0,1,1.8-.1h.22C7.62-2.54,6.78-.86,4.94.42a3.038,3.038,0,0,1,.96.86A8.243,8.243,0,0,0,8.64-3.24a8.922,8.922,0,0,0,2.18,1.9,4.215,4.215,0,0,1,.66-.96,7.9,7.9,0,0,1-2.6-2.14c.04-.4.04-.44.08-.96ZM13.5-8.24a3.093,3.093,0,0,1,.34-.06c2.16-.28,3.48-.46,3.94-.56.14.36.22.58.4,1.18l.92-.36a17.119,17.119,0,0,0-1.46-3.08l-.82.32a6.744,6.744,0,0,1,.6,1.12,21.834,21.834,0,0,1-2.44.28c.98-1.1,1.54-1.82,3.36-4.26l-.92-.72a20.388,20.388,0,0,1-1.54,2.4c-.38-.48-.56-.7-.96-1.14a22.753,22.753,0,0,0,1.82-2.76l-1.04-.56a11.116,11.116,0,0,1-1.46,2.64c-.22-.22-.3-.3-.62-.6l-.66.84a11.5,11.5,0,0,1,2.3,2.42c-.64.82-.8,1.02-1.48,1.8a.75.75,0,0,1-.2.02,1.847,1.847,0,0,1-.3-.02ZM8.56-16.52a10.324,10.324,0,0,1-1.52,2.88c-.22-.2-.4-.38-.56-.54l-.72.8a13.158,13.158,0,0,1,2.36,2.5c-.52.76-.88,1.22-1.6,2.1a2.312,2.312,0,0,1-.34.02,1.249,1.249,0,0,1-.24-.02l.24,1.14a5.482,5.482,0,0,1,.56-.1c1.92-.3,2.98-.5,3.82-.68.1.36.14.48.24.88l.9-.38a12.535,12.535,0,0,0-1.3-2.86l-.8.3a7.463,7.463,0,0,1,.66,1.24c-.64.12-1.52.24-2.5.36a36.106,36.106,0,0,0,3.1-4.4l-.96-.68a16.411,16.411,0,0,1-1.2,2.2,9.814,9.814,0,0,0-.96-1.16A18.27,18.27,0,0,0,9.62-16ZM3.1-12.58H2.24a7.9,7.9,0,0,1-1.38-.08v1.26a8.663,8.663,0,0,1,1.38-.08h.7a17.016,17.016,0,0,1-2.6,6.6,4.216,4.216,0,0,1,.72,1.16A17.261,17.261,0,0,0,3.32-9.98c-.12,1.52-.2,3.08-.2,3.86V-.66A16.8,16.8,0,0,1,3,1.66H4.4A16.212,16.212,0,0,1,4.3-.66V-7.22c0-.7-.04-1.56-.08-2.94A6.916,6.916,0,0,0,5.3-8.02a6.8,6.8,0,0,1,.56-1.04,7.792,7.792,0,0,1-1.48-2.42h.48a8.62,8.62,0,0,1,1.28.08v-1.26a7.308,7.308,0,0,1-1.3.08H4.3v-1.98a16.857,16.857,0,0,1,.08-2.06H3a12.254,12.254,0,0,1,.1,2.08ZM14.74-7.8a7.252,7.252,0,0,1,1.5,1.32l.72-.68a6.9,6.9,0,0,0-1.52-1.22Zm6.44-3.34a7.975,7.975,0,0,1,1.18-.14c1.96-.12,4.84-.44,6.32-.68.26.46.32.58.62,1.2l1.06-.62a31.166,31.166,0,0,0-2.58-4.02l-.94.48a17.5,17.5,0,0,1,1.26,1.96c-1.42.18-2.2.26-4.2.4a33.629,33.629,0,0,0,1.66-3.02,4.805,4.805,0,0,1,.4-.78l-1.4-.4a11.386,11.386,0,0,1-1.1,2.7,15.518,15.518,0,0,1-.88,1.56c-.58.02-.58.02-.7.02-.16,0-.6-.02-.88-.02Zm11.1-3.54a7.872,7.872,0,0,1,.12-1.74H30.94a10.779,10.779,0,0,1,.12,1.74v4.72c0,1.16.5,1.36,3.36,1.36,2.58,0,3.36-.1,3.7-.52.34-.4.52-1.16.66-2.84a4.365,4.365,0,0,1-1.18-.5c-.08,1.78-.18,2.3-.5,2.5-.28.18-.88.22-2.7.22-1.9,0-2.12-.06-2.12-.62v-1.8a23.712,23.712,0,0,0,5.06-2.06c.8-.44.8-.44,1.12-.6l-.88-1.06a16.152,16.152,0,0,1-5.3,2.54Zm0,9.06a8.549,8.549,0,0,1,.1-1.74H30.96a9.139,9.139,0,0,1,.1,1.8v5c0,.66.16.96.64,1.16a7.609,7.609,0,0,0,3.06.3c2.2,0,2.88-.1,3.32-.52.48-.46.7-1.24.86-3.14a5.436,5.436,0,0,1-1.2-.52A6.012,6.012,0,0,1,37.32-.7c-.26.32-.9.44-2.48.44a10.8,10.8,0,0,1-1.92-.1c-.5-.08-.64-.22-.64-.62V-3.36a22.1,22.1,0,0,0,3.2-1.08c.7-.3,2.24-1.08,3.12-1.58l-.94-1.04a14.711,14.711,0,0,1-5.38,2.5ZM22.34-.54a13.27,13.27,0,0,1-.1,2h1.42a13.538,13.538,0,0,1-.1-2.04v-2.5h4.42V-.5c0,.36-.12.44-.66.44a11.71,11.71,0,0,1-1.54-.1,5.6,5.6,0,0,1,.3,1.24c.26.02.48.02.62.02,2.14,0,2.46-.2,2.46-1.48v-8.5c0-.36.02-.96.06-1.34a14.863,14.863,0,0,1-1.84.08h-3.5a12.087,12.087,0,0,1-1.62-.08,16.382,16.382,0,0,1,.08,1.84Zm1.22-8.5h4.42v1.88H23.56Zm0,2.94h4.42v1.96H23.56Z" transform="translate(530 602.375)" fill="#070304"/>
    <path id="パス_106509" data-name="パス 106509" d="M7.631,2.433a13.138,13.138,0,0,1-2.652.559V1.744A7.435,7.435,0,0,1,5.044.535H4.082A8.636,8.636,0,0,1,4.147,1.77V3.057c-.39.026-.9.039-1.248.039a7.363,7.363,0,0,1-1.326-.091v.858h.533c.143.013.494.013.689.013.377,0,.6,0,.832-.013.4-.026.4-.026.52-.039V6.281A6.954,6.954,0,0,0,2.314,7.347,2.353,2.353,0,0,0,1.287,9.076a1.568,1.568,0,0,0,.6,1.222,3.433,3.433,0,0,0,2.145.832c.637,0,.949-.338.949-1.04V6.84a8.771,8.771,0,0,1,2.756-.507c1.7,0,2.782.793,2.782,2.067a1.726,1.726,0,0,1-1.742,1.833c-.949,0-1.339-.559-1.339-1.911a3.861,3.861,0,0,1,.026-.507,2.818,2.818,0,0,1-.858.338A4.744,4.744,0,0,0,6.76,9.622a1.917,1.917,0,0,0,2,1.469A2.675,2.675,0,0,0,10.075,6.1a4.4,4.4,0,0,0-2.3-.546,9.21,9.21,0,0,0-2.8.468V3.772a22.817,22.817,0,0,0,2.3-.39c.182-.039.234-.052.39-.078ZM4.147,9.609c0,.559-.039.637-.3.637a2.428,2.428,0,0,1-1.157-.377c-.377-.247-.559-.507-.559-.78,0-.624.728-1.326,2.015-1.95Zm7.813-5.5A10.924,10.924,0,0,0,9.334,1.64l-.676.507a10.647,10.647,0,0,1,2.626,2.548ZM20.2,7.165a9.019,9.019,0,0,1-3.7,3.081,2.253,2.253,0,0,1,.572.689,9.821,9.821,0,0,0,3.588-3.3c-.026.39-.039.676-.039,1.066v2.067a6.184,6.184,0,0,1-.091,1.209h.949a6.1,6.1,0,0,1-.078-1.2V8.725a7.326,7.326,0,0,0-.065-1.105A9.32,9.32,0,0,0,25.1,11a3.055,3.055,0,0,1,.52-.767,9.411,9.411,0,0,1-2.327-1.4A8.883,8.883,0,0,1,21.71,7.165h2.405a8.512,8.512,0,0,1,1.157.065V6.372a7.714,7.714,0,0,1-1.183.078H21.4V5.93a5.709,5.709,0,0,1,.065-1.053h-.936a5.268,5.268,0,0,1,.091,1.131V6.45H18.512a7.744,7.744,0,0,1-1.235-.078V7.23a7.883,7.883,0,0,1,1.183-.065ZM15.236,2.849H14.6a5.592,5.592,0,0,1-.975-.078v.858a7.278,7.278,0,0,1,.962-.052h.65V6.372a8.77,8.77,0,0,1-1.716.572l.26.884a4.539,4.539,0,0,1,.767-.351c.494-.208.494-.208.689-.286v3.666c0,.221-.13.3-.455.3a5.359,5.359,0,0,1-.91-.065,3.01,3.01,0,0,1,.195.819c.247.013.364.013.481.013,1.17,0,1.495-.208,1.495-.949V6.84c.611-.286.767-.364,1.313-.65l-.065-.741c-.585.3-.806.4-1.248.585V3.577h.247a5.991,5.991,0,0,1,.884.052V2.784a4.214,4.214,0,0,1-.9.065h-.234V1.575a7.573,7.573,0,0,1,.078-1.3h-.975A7.856,7.856,0,0,1,15.236,1.6Zm4.537-1.274a2.98,2.98,0,0,1-2.327,3.211,2.525,2.525,0,0,1,.546.663,4.1,4.1,0,0,0,1.911-1.5,4.617,4.617,0,0,0,.624-2.379h1.144V4.11c0,.663.286.793,1.7.793,1.664,0,1.833-.13,1.963-1.573a1.866,1.866,0,0,1-.7-.234c-.013,1.053-.052,1.092-1.17,1.092-.9,0-1.04-.039-1.04-.286V1.575h1.794V2.8h.819A3.946,3.946,0,0,1,25,2.069V1.627a4.66,4.66,0,0,1,.039-.806c-.312.026-.624.039-1.17.039h-5.3c-.546,0-.845-.013-1.144-.039a7.19,7.19,0,0,1,.039.819v.572a7.788,7.788,0,0,1-.039.806h.793V1.575ZM29.016.86a4,4,0,0,1,.052.689c0,.208,0,.455-.013.845-.1,4.095-.117,4.42-.117,5.291a3.621,3.621,0,0,0,.715,2.665,3.083,3.083,0,0,0,2.444.91,4.552,4.552,0,0,0,3.666-1.625,7.908,7.908,0,0,0,1.443-2.951,3.677,3.677,0,0,1-.936-.624A7.723,7.723,0,0,1,35.633,8.1a3.733,3.733,0,0,1-3.484,2.262,2.454,2.454,0,0,1-1.625-.507,2.046,2.046,0,0,1-.611-1.56c-.013-.3-.026-.624-.026-.78,0-.585.039-2.353.091-3.913A20.043,20.043,0,0,1,30.147.86ZM46.2,2.381a3.741,3.741,0,0,1,1.508.325,3.427,3.427,0,0,1,2.067,3.263,3.924,3.924,0,0,1-2.3,3.64,7.793,7.793,0,0,1-2.171.611,2.066,2.066,0,0,1,.455.871,10.057,10.057,0,0,0,1.976-.6,4.734,4.734,0,0,0,2.977-4.485,4.352,4.352,0,0,0-1.261-3.172,5.033,5.033,0,0,0-3.575-1.287,5.43,5.43,0,0,0-4.2,1.729,5.408,5.408,0,0,0-1.365,3.588c0,1.82.923,3.172,2.158,3.172.936,0,1.7-.78,2.457-2.5A19.487,19.487,0,0,0,46.2,2.381Zm-.936.013A17.856,17.856,0,0,1,44.083,7.2C43.524,8.478,43,9.089,42.458,9.089c-.7,0-1.248-.962-1.248-2.21a4.5,4.5,0,0,1,2.119-3.874A4.106,4.106,0,0,1,45.266,2.394Zm18.447,7.9a32.33,32.33,0,0,0-4.329-3.9,15.72,15.72,0,0,0,2.145-3.64,2.427,2.427,0,0,1,.364-.637l-.546-.559a2.424,2.424,0,0,1-.832.1l-4.641.052h-.338a6.11,6.11,0,0,1-1.027-.065l.026,1.053a8.747,8.747,0,0,1,1.339-.1l4.342-.065a2.208,2.208,0,0,0,.312-.013.275.275,0,0,1-.039.091c-.026.065-.039.078-.065.156a14.09,14.09,0,0,1-4.641,5.863,10.465,10.465,0,0,1-2.639,1.495,2.893,2.893,0,0,1,.637.858,16.741,16.741,0,0,0,2.548-1.56A14.112,14.112,0,0,0,58.812,7.1a24.179,24.179,0,0,1,4.16,4.017Zm6.422-7.085-2.652.416a9.739,9.739,0,0,1-1.352.13l.182.988a10.708,10.708,0,0,1,1.3-.286l2.678-.416.468,2.626L67.3,7.23a6.841,6.841,0,0,1-1.287.117l.169.988a6.884,6.884,0,0,1,1.248-.26l3.484-.559.533,2.912a10.361,10.361,0,0,1,.156,1.248l1.04-.195a7.054,7.054,0,0,1-.286-1.235l-.533-2.873,3.263-.52c.091-.013.156-.026.3-.052.221-.039.351-.065.4-.065a3.842,3.842,0,0,1,.572-.065l-.182-.962a7.988,7.988,0,0,1-1.287.3l-3.224.52L71.175,3.9l2.951-.455c.806-.13.806-.13,1.157-.169L75.1,2.342a6.106,6.106,0,0,1-1.144.26l-2.938.455-.26-1.43a6.7,6.7,0,0,1-.143-1.1L69.589.691a4.433,4.433,0,0,1,.286,1.1ZM80.587,1.094a5.782,5.782,0,0,1,.052.923,17.735,17.735,0,0,1-.585,5.577,6.431,6.431,0,0,1-2.2,2.99,2.4,2.4,0,0,1,.78.7,7.947,7.947,0,0,0,2.249-3.211c.494-1.313.6-2.275.7-5.8a6.476,6.476,0,0,1,.078-1.118ZM83.824,1a5.216,5.216,0,0,1,.052,1.157L83.8,9.765a2.191,2.191,0,0,1-.091.884l.52.6a2.165,2.165,0,0,1,.3-.143c.182-.065.182-.065.416-.156A8.569,8.569,0,0,0,86.8,10a7.386,7.386,0,0,0,2.613-3.341,3.635,3.635,0,0,1-.728-.754,6.429,6.429,0,0,1-1.534,2.6,6.008,6.008,0,0,1-2.418,1.508l.078-7.852a5.04,5.04,0,0,1,.078-1.144Zm8.84.364a13.059,13.059,0,0,1,.936,2.47c-.208.065-.338.091-.663.208a14.266,14.266,0,0,1-1.911.611l.338.923a12.39,12.39,0,0,1,1.781-.715,5.619,5.619,0,0,0,.7-.234,46.23,46.23,0,0,1,1.638,7.02l1.053-.234a4.127,4.127,0,0,1-.169-.559c-.546-2.444-1.014-4.277-1.677-6.487a15.328,15.328,0,0,1,4.238-.923c1.313,0,2.08.585,2.08,1.573a1.576,1.576,0,0,1-.624,1.326,2.633,2.633,0,0,1-1.56.507,4.418,4.418,0,0,1-2.184-.6A5.789,5.789,0,0,1,96.72,7a1.869,1.869,0,0,1-.013.234,5.505,5.505,0,0,0,2.2.481,2.779,2.779,0,0,0,3.055-2.678c0-1.456-1.118-2.392-2.86-2.392a6.547,6.547,0,0,0-.975.078c-.013-.156-.013-.4-.013-.416A12.266,12.266,0,0,1,98.176.548H97.2a18.017,18.017,0,0,1,.052,2.3,23.055,23.055,0,0,0-2.8.728c-.182-.585-.312-.949-.572-1.716a5.224,5.224,0,0,1-.247-.793Zm13.962,1.378c-.013,1.443-.026,1.716-.078,2.431h-1.235a7.9,7.9,0,0,1-1.4-.078v.91a8.017,8.017,0,0,1,1.378-.078h1.183a6.038,6.038,0,0,1-2.795,4.823,2.3,2.3,0,0,1,.65.676,6.835,6.835,0,0,0,2.6-3.744,10.333,10.333,0,0,0,2.184,2.756,2.638,2.638,0,0,1,.52-.78,7.838,7.838,0,0,1-2.47-2.964c.052-.312.065-.468.1-.767h1.17a7.973,7.973,0,0,1,1.235.078V5.1a7.633,7.633,0,0,1-1.235.078h-1.105c.065-.871.065-1.027.091-2.431h.832c.442,0,.871.026,1.274.065v-.9a7.21,7.21,0,0,1-1.274.078H105.9a7.9,7.9,0,0,0,.338-1.027c.117-.39.143-.494.221-.7l-.884-.143a3.176,3.176,0,0,1-.117.715,6.692,6.692,0,0,1-1.729,3.25,1.711,1.711,0,0,1,.637.572,8.951,8.951,0,0,0,1.209-1.911Zm4.29,7.813h3.146v.923h.91a12.869,12.869,0,0,1-.078-1.573V2.784a9.836,9.836,0,0,1,.065-1.365,7.3,7.3,0,0,1-1.17.065h-2.6a7.2,7.2,0,0,1-1.17-.065,11.355,11.355,0,0,1,.078,1.365V10a11.565,11.565,0,0,1-.078,1.482h.9Zm0-8.32h3.146V9.8h-3.146ZM119.548.47a2.606,2.606,0,0,1-.039.416,32.861,32.861,0,0,0-.442,4.8v.3l.026,1.352.013.234v.143l.936-.039c-.013-.195-.013-.26-.013-.312a6.784,6.784,0,0,1,.7-2.9C121.472,2.94,122.3,2.2,123.292,2.2c1.248,0,1.976,1.209,1.976,3.3a4.477,4.477,0,0,1-2.236,4.316,6.869,6.869,0,0,1-2.639.819,2.683,2.683,0,0,1,.52.884,9.84,9.84,0,0,0,2.314-.767,5.364,5.364,0,0,0,3-5.109,5.34,5.34,0,0,0-.78-3.159,2.447,2.447,0,0,0-2.08-1.157,3.1,3.1,0,0,0-2.6,1.677,5.8,5.8,0,0,0-.793,1.937c-.065.273-.065.273-.091.377l-.052-.013c.039-.663.221-2.08.429-3.393a7.369,7.369,0,0,1,.3-1.339Zm10.985,3.276a1.936,1.936,0,0,1,.221-.013h.052c.507.026.624.026,1.079.026.481,0,.637,0,.9-.013a26.145,26.145,0,0,1-2.444,7.189l.949.4a34.256,34.256,0,0,0,1.495-3.965c.351-1.183.715-2.652.91-3.679a19,19,0,0,0,2.2-.312c.26-.052.26-.052.364-.065l-.065-.9a10.719,10.719,0,0,1-2.34.442c.065-.39.1-.572.169-.988a12.3,12.3,0,0,1,.234-1.235l-1.027-.1a12.712,12.712,0,0,1-.286,2.392c-.377.026-.52.026-.78.026a8.965,8.965,0,0,1-1.625-.117Zm9.815.637c-.975-.039-1.17-.039-1.417-.039a14.729,14.729,0,0,0-3.445.429l.091.884a11.315,11.315,0,0,1,3.25-.442,13.051,13.051,0,0,1,1.534.091Zm-4.732,2.808c-.689.884-.871,1.287-.871,1.872,0,1.287,1.1,1.95,3.237,1.95a13.026,13.026,0,0,0,2.314-.221c.429-.065.429-.065.572-.091l-.091-.975a9.659,9.659,0,0,1-2.873.442c-1.482,0-2.275-.416-2.275-1.2a1.565,1.565,0,0,1,.325-.923,4.357,4.357,0,0,1,.39-.494Zm8.242-5.408a7.033,7.033,0,0,1,.039.767c.065,3.2.247,4.862.7,6.1s1.118,1.976,1.846,1.976c.923,0,1.521-.871,2.158-3.146a4.155,4.155,0,0,1-.767-.741,9.354,9.354,0,0,1-.676,2.223c-.2.429-.416.65-.65.65-.494,0-1.027-.9-1.313-2.223a22.263,22.263,0,0,1-.338-4.043A9.423,9.423,0,0,1,144.95,1.8Zm6.578,1.1a11.481,11.481,0,0,1,2.7,6.409l.923-.377a12.447,12.447,0,0,0-.975-3.471,11.284,11.284,0,0,0-1.859-2.964Zm12.246-1.053v.884h-1.547a7.453,7.453,0,0,1-1.2-.065v.767a7.779,7.779,0,0,1,1.183-.065h1.56v.962H160.55a8.134,8.134,0,0,1-1.326-.078v.832a8.469,8.469,0,0,1,1.326-.078h5.525a10.068,10.068,0,0,1,1.287.078V4.24a8.024,8.024,0,0,1-1.287.078h-2.626V3.356h2.015a7.835,7.835,0,0,1,1.209.065V2.654a7.355,7.355,0,0,1-1.2.065h-2.028V1.835h2.418a8.163,8.163,0,0,1,1.261.065V1.094a6.352,6.352,0,0,1-1.274.078h-2.405a4.318,4.318,0,0,1,.078-1.014H162.6a4.384,4.384,0,0,1,.078,1.014h-1.937a6.071,6.071,0,0,1-1.235-.078V1.9a7.515,7.515,0,0,1,1.222-.065Zm-1.859,7.9h4.719v1.014c0,.3-.078.351-.507.351a8.981,8.981,0,0,1-1.456-.156,2.707,2.707,0,0,1,.208.819c.559.039.975.065,1.326.065.975,0,1.222-.208,1.222-1.014V7.126a11.828,11.828,0,0,1,.052-1.391,6.433,6.433,0,0,1-1.2.065H161.2a10.455,10.455,0,0,1-1.209-.052,8.76,8.76,0,0,1,.039,1.131v3.666a9.232,9.232,0,0,1-.065,1.4h.936a8.929,8.929,0,0,1-.078-1.4Zm0-.663V8.1h4.719v.975Zm0-1.625V6.463h4.719v.988Zm-4.576-1.027a13.053,13.053,0,0,0,.559-3.575l-.715-.2a10.264,10.264,0,0,1-.546,3.445Zm1.989,5.551a10.18,10.18,0,0,1-.091-1.482V1.471a8.111,8.111,0,0,1,.091-1.313h-1a8.443,8.443,0,0,1,.091,1.313V10.48a10.368,10.368,0,0,1-.091,1.5ZM159.562,3.9a13.76,13.76,0,0,0-.65-1.716l-.585.247a7.447,7.447,0,0,1,.6,1.768ZM176.085,5.54a10.3,10.3,0,0,0,1.534,3.744,7.984,7.984,0,0,1-1.807,1.9,3.394,3.394,0,0,1,.585.65,9.481,9.481,0,0,0,1.716-1.911,10.791,10.791,0,0,0,2.08,1.924,2.831,2.831,0,0,1,.533-.728,8.634,8.634,0,0,1-2.184-1.885,13.084,13.084,0,0,0,1.313-3.445,3.584,3.584,0,0,1,.156-.533l-.468-.481a6.107,6.107,0,0,1-1.04.052h-2.821V1.51h3.6c-.117,1.495-.182,1.664-.676,1.664a8.1,8.1,0,0,1-1.495-.182,3.778,3.778,0,0,1,.169.78,9.735,9.735,0,0,0,1.274.091c.663,0,.936-.091,1.131-.377a5.177,5.177,0,0,0,.39-1.846c.065-.7.065-.7.091-.923a7.082,7.082,0,0,1-1.092.052h-3A8.229,8.229,0,0,1,174.85.7a11.376,11.376,0,0,1,.065,1.222v8.736a8.388,8.388,0,0,1-.091,1.3h.949a8.5,8.5,0,0,1-.091-1.3V5.54Zm3.016,0a11.2,11.2,0,0,1-1.053,3.042,8.2,8.2,0,0,1-1.235-3.042Zm-6.916-1.82V2.394h1.04a6.79,6.79,0,0,1,.962.052V1.627a6.123,6.123,0,0,1-.962.052h-1.04v-.39a7.807,7.807,0,0,1,.078-1.118h-.923a7.179,7.179,0,0,1,.078,1.118v.39H170.2a6.2,6.2,0,0,1-.975-.052v.819a6.87,6.87,0,0,1,.975-.052h1.222V3.72h-1.547a5.64,5.64,0,0,1-1.04-.065V4.5a7.647,7.647,0,0,1,1.04-.052h3.666a7.2,7.2,0,0,1,1.027.052V3.655a5.32,5.32,0,0,1-1.027.065Zm.806,2.912A11.041,11.041,0,0,0,173.68,4.8l-.715-.208a7.779,7.779,0,0,1-.7,2.041h-2.392a5.471,5.471,0,0,1-1.04-.065v.845a7.9,7.9,0,0,1,1.04-.052h1.547V8.673h-1.326a6.419,6.419,0,0,1-.975-.052v.832a6.87,6.87,0,0,1,.975-.052h1.326v1.326a7.9,7.9,0,0,1-.091,1.235h.936a9.692,9.692,0,0,1-.078-1.235V9.4h1.2a6.909,6.909,0,0,1,.962.052V8.621a6.338,6.338,0,0,1-.962.052h-1.2V7.36h1.352a7.32,7.32,0,0,1,1.027.052V6.567a5,5,0,0,1-1.027.065Zm-1.937-.377a10.455,10.455,0,0,0-.52-1.677l-.65.208a9.184,9.184,0,0,1,.494,1.7Zm14.807-1.963h.052a.6.6,0,0,1,.13.013,1.936,1.936,0,0,1,.221.013,3.409,3.409,0,0,1,.416.026c.455.026.936.039,1.469.039.494,0,.9-.013,1.482-.039.039,1.9.091,3.12.13,3.393a3.672,3.672,0,0,0-1.443-.26c-1.443,0-2.47.767-2.47,1.846,0,1.131.949,1.846,2.457,1.846a2.22,2.22,0,0,0,2.171-1.092,2.241,2.241,0,0,0,.156-.884,1.865,1.865,0,0,0-.026-.338.913.913,0,0,1,.117.078.834.834,0,0,0,.13.078,7.024,7.024,0,0,1,1.846,1.352l.4-.91c-.143-.091-.169-.117-.325-.221a9.41,9.41,0,0,0-2.171-1.274c-.1-1.729-.13-2.392-.143-3.679a12.429,12.429,0,0,0,1.378-.208c.884-.182.884-.182.91-.182l-.039-.884a8.86,8.86,0,0,1-2.249.481c-.013-.286-.013-.494-.013-.637a13.3,13.3,0,0,1,.091-2.041h-.975a2.884,2.884,0,0,1,.039.533c0,.988,0,.988.013,2.21-.533.026-.884.039-1.391.039a9,9,0,0,1-2.34-.208Zm3.913,4.238s.013.3.013.39a1.519,1.519,0,0,1-.247,1.014,1.792,1.792,0,0,1-1.326.455c-.91,0-1.508-.416-1.508-1.053s.663-1.079,1.677-1.079A3.358,3.358,0,0,1,189.774,8.53ZM183.56.8a5.988,5.988,0,0,1-.143.819,22.027,22.027,0,0,0-.676,5.343,20.7,20.7,0,0,0,.364,3.861c.052.3.065.364.078.481l.923-.091a1.416,1.416,0,0,1-.026-.26A11.226,11.226,0,0,1,185.2,7.256l-.637-.3a1.791,1.791,0,0,1-.1.26,11.539,11.539,0,0,0-.767,2.288l-.052-.013V9.245c-.013-.234-.013-.26-.013-.364-.026-.6-.052-1.365-.052-1.82a18.524,18.524,0,0,1,1-6.1Zm11.128,8.229a12.975,12.975,0,0,1,2.561,2.834l.728-.689a13.246,13.246,0,0,0-2.613-2.756ZM10.257,25.335a11.011,11.011,0,0,1,1.261.052,9.2,9.2,0,0,1-.039-.975V23.151c0-.312.013-.611.039-.936-.338.026-.637.039-1.183.039H8.541c.013-.3.013-.39.013-.65v-.481h.728a9.779,9.779,0,0,1,1.157.052V20.4a12.18,12.18,0,0,0,1.716,1.1,2.708,2.708,0,0,1,.494-.754,9.835,9.835,0,0,1-2.665-1.7,7.627,7.627,0,0,1-1.456-1.729h-.9a8.679,8.679,0,0,1-3.536,3.549,1.856,1.856,0,0,1,.533.65,13.586,13.586,0,0,0,1.4-1.066v.728a9.921,9.921,0,0,1,1.157-.052h.6v1.131H6.1a8.878,8.878,0,0,1-1.144-.039,7.53,7.53,0,0,1,.039.845v1.521a7.973,7.973,0,0,1-.039.806,10.4,10.4,0,0,1,1.183-.052H7.41c-.507,1.456-1.547,2.3-3.5,2.847a2.176,2.176,0,0,1,.494.728,8.318,8.318,0,0,0,2.184-1.144A4.577,4.577,0,0,0,8.112,25.66a6.751,6.751,0,0,0,3.913,3.25,3.157,3.157,0,0,1,.481-.793A5.891,5.891,0,0,1,8.7,25.335ZM7.189,20.421c-.481,0-.78-.013-1.079-.039A9.322,9.322,0,0,0,8.1,17.964a9.358,9.358,0,0,0,2.314,2.418c-.312.026-.611.039-1.131.039Zm.572,2.509a11.756,11.756,0,0,1-.182,1.742H5.746V22.93Zm2.964,0v1.742H8.346a14.127,14.127,0,0,0,.182-1.742ZM3.718,20.473a7.788,7.788,0,0,1,.806.039v-.819a4.611,4.611,0,0,1-.819.052H3.2V18.458a8.488,8.488,0,0,1,.065-1.326h-.9a7.783,7.783,0,0,1,.065,1.339v1.274H1.6a5.4,5.4,0,0,1-.91-.052v.832a5.6,5.6,0,0,1,.91-.052h.689a12.382,12.382,0,0,1-1.9,4.55,2.642,2.642,0,0,1,.52.741,10.564,10.564,0,0,0,1.222-2.73c.247-.871.247-.871.364-1.274-.039.78-.065,1.469-.065,2.054v3.679A11.05,11.05,0,0,1,2.353,29h.923A10.538,10.538,0,0,1,3.2,27.493V23.541c0-.611-.026-1.508-.052-2.093a10.322,10.322,0,0,0,1.131,2.275,2.918,2.918,0,0,1,.468-.663,8.084,8.084,0,0,1-1.482-2.587Zm10.517,5.018a6.026,6.026,0,0,1,.91-.052c.884-.013,2.119-.052,3.835-.13v2.457a5.657,5.657,0,0,1-.078,1.183h1.014a5.731,5.731,0,0,1-.091-1.183v-2.5c1.547-.065,1.547-.065,3.7-.234.377.429.507.572.91,1.066l.611-.546a19.486,19.486,0,0,0-2.626-2.535l-.585.429c.533.442.715.611,1.1.975-2.236.143-2.236.143-4.03.2a18.526,18.526,0,0,0,2.678-2.249c.182-.2.312-.312.442-.429l-.845-.416a9.043,9.043,0,0,1-2.028,2.093c-.546-.442-.572-.455-1.118-.858a14.65,14.65,0,0,0,1.651-1.781h4.316v1.742h.871a5.137,5.137,0,0,1-.052-.845v-.884a4.7,4.7,0,0,1,.052-.78,12.079,12.079,0,0,1-1.3.052H19.773V19.017h3.835a13.042,13.042,0,0,1,1.43.065v-.871a9.554,9.554,0,0,1-1.43.078H19.773v-.221a4.322,4.322,0,0,1,.091-.91h-.988a4.238,4.238,0,0,1,.091.91v.221h-3.5a9.755,9.755,0,0,1-1.443-.078v.871a10.3,10.3,0,0,1,1.43-.065h3.51v1.248h-3.51a12.553,12.553,0,0,1-1.3-.052,5.274,5.274,0,0,1,.052.832v.845a5.207,5.207,0,0,1-.052.819h.871V20.98h3.679a7.153,7.153,0,0,1-1.248,1.365c-.364-.247-.52-.338-1-.637l-.533.559a21.183,21.183,0,0,1,2.639,1.82c-.234.182-.234.182-.494.364-.065.039-.143.1-.273.195-.936.026-1.131.026-1.95.026a12.89,12.89,0,0,1-1.768-.078Zm2.886.312A5.389,5.389,0,0,1,15.769,27a6.9,6.9,0,0,1-1.729.832,2.487,2.487,0,0,1,.637.689,8.953,8.953,0,0,0,3.146-2.288Zm3.887.377a11.742,11.742,0,0,0,3.38,2.3,3.075,3.075,0,0,1,.572-.728,9.41,9.41,0,0,1-3.328-2.067Zm13.026-1.69a7.468,7.468,0,0,0,.793,2.2A9.04,9.04,0,0,1,31.46,28.26a1.963,1.963,0,0,1,.52.663A10.186,10.186,0,0,0,35.2,27.285c.741,1.066,1.443,1.612,2.08,1.612.611,0,.871-.481,1.17-2.119a2.628,2.628,0,0,1-.663-.455,5.923,5.923,0,0,1-.234,1.313c-.117.338-.195.442-.351.442-.338,0-.871-.468-1.43-1.261a15.429,15.429,0,0,0,1.508-1.586l-.663-.455a4.668,4.668,0,0,1-1.209,1.456,6.139,6.139,0,0,1-.65-1.742h2.171a8.2,8.2,0,0,1,1.378.078v-.845a6.842,6.842,0,0,1-1.378.078h-2.3a33.345,33.345,0,0,1-.364-5.239,7,7,0,0,1,.065-1.274h-.91a5.1,5.1,0,0,1,.065.819,33.717,33.717,0,0,0,.195,4.069A14.872,14.872,0,0,0,33.9,23.8H30.94a7.2,7.2,0,0,1-1.17-.065v.819a7.7,7.7,0,0,1,1.17-.065h.143a4.45,4.45,0,0,1-1.872,3.783,1.975,1.975,0,0,1,.624.559,5.358,5.358,0,0,0,1.781-2.938,5.8,5.8,0,0,0,1.417,1.235,2.74,2.74,0,0,1,.429-.624,5.132,5.132,0,0,1-1.69-1.391c.026-.26.026-.286.052-.624Zm.741-1.846A2.01,2.01,0,0,1,35,22.6c1.4-.182,2.262-.3,2.561-.364.091.234.143.377.26.767l.6-.234a11.127,11.127,0,0,0-.949-2l-.533.208a4.383,4.383,0,0,1,.39.728,14.192,14.192,0,0,1-1.586.182c.637-.715,1-1.183,2.184-2.769l-.6-.468a13.252,13.252,0,0,1-1,1.56c-.247-.312-.364-.455-.624-.741a14.789,14.789,0,0,0,1.183-1.794l-.676-.364a7.226,7.226,0,0,1-.949,1.716c-.143-.143-.195-.195-.4-.39l-.429.546a7.475,7.475,0,0,1,1.495,1.573c-.416.533-.52.663-.962,1.17a.488.488,0,0,1-.13.013,1.2,1.2,0,0,1-.195-.013Zm-3.211-5.382a6.71,6.71,0,0,1-.988,1.872c-.143-.13-.26-.247-.364-.351l-.468.52a8.552,8.552,0,0,1,1.534,1.625c-.338.494-.572.793-1.04,1.365a1.5,1.5,0,0,1-.221.013.812.812,0,0,1-.156-.013l.156.741a3.563,3.563,0,0,1,.364-.065c1.248-.195,1.937-.325,2.483-.442.065.234.091.312.156.572l.585-.247a8.148,8.148,0,0,0-.845-1.859l-.52.195a4.851,4.851,0,0,1,.429.806c-.416.078-.988.156-1.625.234a23.469,23.469,0,0,0,2.015-2.86l-.624-.442a10.667,10.667,0,0,1-.78,1.43,6.38,6.38,0,0,0-.624-.754,11.875,11.875,0,0,0,1.222-2Zm-3.549,2.561h-.559a5.134,5.134,0,0,1-.9-.052v.819a5.631,5.631,0,0,1,.9-.052h.455a11.06,11.06,0,0,1-1.69,4.29,2.74,2.74,0,0,1,.468.754,11.22,11.22,0,0,0,1.469-4.069c-.078.988-.13,2-.13,2.509v3.549a10.92,10.92,0,0,1-.078,1.508h.91a10.538,10.538,0,0,1-.065-1.508V23.307c0-.455-.026-1.014-.052-1.911a4.5,4.5,0,0,0,.7,1.391,4.421,4.421,0,0,1,.364-.676,5.065,5.065,0,0,1-.962-1.573h.312a5.6,5.6,0,0,1,.832.052v-.819a4.75,4.75,0,0,1-.845.052H28.8V18.536a10.957,10.957,0,0,1,.052-1.339h-.9a7.965,7.965,0,0,1,.065,1.352Zm7.566,3.107a4.714,4.714,0,0,1,.975.858l.468-.442a4.484,4.484,0,0,0-.988-.793Zm4.186-2.171a5.184,5.184,0,0,1,.767-.091c1.274-.078,3.146-.286,4.108-.442.169.3.208.377.4.78l.689-.4a20.258,20.258,0,0,0-1.677-2.613l-.611.312a11.376,11.376,0,0,1,.819,1.274c-.923.117-1.43.169-2.73.26a21.858,21.858,0,0,0,1.079-1.963,3.123,3.123,0,0,1,.26-.507l-.91-.26a7.4,7.4,0,0,1-.715,1.755,10.087,10.087,0,0,1-.572,1.014c-.377.013-.377.013-.455.013-.1,0-.39-.013-.572-.013Zm7.215-2.3a5.117,5.117,0,0,1,.078-1.131h-.949a7.006,7.006,0,0,1,.078,1.131v3.068c0,.754.325.884,2.184.884,1.677,0,2.184-.065,2.4-.338a3.509,3.509,0,0,0,.429-1.846,2.837,2.837,0,0,1-.767-.325c-.052,1.157-.117,1.495-.325,1.625-.182.117-.572.143-1.755.143-1.235,0-1.378-.039-1.378-.4V20.1a15.413,15.413,0,0,0,3.289-1.339c.52-.286.52-.286.728-.39l-.572-.689a10.5,10.5,0,0,1-3.445,1.651Zm0,5.889a5.557,5.557,0,0,1,.065-1.131h-.923a5.941,5.941,0,0,1,.065,1.17v3.25c0,.429.1.624.416.754a4.946,4.946,0,0,0,1.989.195c1.43,0,1.872-.065,2.158-.338.312-.3.455-.806.559-2.041a3.533,3.533,0,0,1-.78-.338,3.908,3.908,0,0,1-.273,1.677c-.169.208-.585.286-1.612.286a7.016,7.016,0,0,1-1.248-.065c-.325-.052-.416-.143-.416-.4V25.816a14.365,14.365,0,0,0,2.08-.7c.455-.195,1.456-.7,2.028-1.027l-.611-.676a9.562,9.562,0,0,1-3.5,1.625Zm-6.461,3.3a8.626,8.626,0,0,1-.065,1.3h.923a8.8,8.8,0,0,1-.065-1.326V26h2.873v1.677c0,.234-.078.286-.429.286a7.612,7.612,0,0,1-1-.065,3.639,3.639,0,0,1,.195.806c.169.013.312.013.4.013,1.391,0,1.6-.13,1.6-.962V22.228c0-.234.013-.624.039-.871a9.661,9.661,0,0,1-1.2.052H41.522a7.857,7.857,0,0,1-1.053-.052,10.649,10.649,0,0,1,.052,1.2Zm.793-5.525h2.873v1.222H41.314Zm0,1.911h2.873v1.274H41.314Zm11.921-3.614a43.278,43.278,0,0,1,4.485-.429,26.606,26.606,0,0,0,2.86-.286,8.51,8.51,0,0,0-1.235.689,4.946,4.946,0,0,0-2.431,3.991,3.148,3.148,0,0,0,1.443,2.652,6.557,6.557,0,0,0,2.808,1c.234.039.26.052.4.078l.169-1.053h-.13a6.663,6.663,0,0,1-1.95-.416,2.549,2.549,0,0,1-1.82-2.405,3.973,3.973,0,0,1,1.6-3,6.394,6.394,0,0,1,2.5-1.3,5.453,5.453,0,0,1,1.456-.182L63.31,18.8a8.78,8.78,0,0,1-1.547.143l-.741.026c-.429.013-.6.026-2.2.117l-2.041.13c-1.6.091-1.677.1-2.4.156-.4.026-.559.039-.741.039-.091,0-.221,0-.468-.013Zm7.982,1.248a9.142,9.142,0,0,1,1.326,2.067l.663-.39a9.869,9.869,0,0,0-1.339-2.015Zm1.482-.7a10.288,10.288,0,0,1,1.326,2.041l.65-.364a10.535,10.535,0,0,0-1.339-2.028Zm5.759-2.184a10.479,10.479,0,0,1,.7,1.261l.689-.273c-.351-.572-.377-.611-.637-.988h.9a10.313,10.313,0,0,1,1.209.052v-.793a7.878,7.878,0,0,1-1.3.078h-1.95c.169-.286.221-.377.455-.806l-.806-.26a5.049,5.049,0,0,1-.936,1.638A6.371,6.371,0,0,1,65.6,19.875a1.846,1.846,0,0,1,.585.559,9.543,9.543,0,0,0,1.456-1.651ZM73.7,18.8a8.783,8.783,0,0,1,.832,1.287l.663-.286a9.2,9.2,0,0,0-.689-1h1.261a10.668,10.668,0,0,1,1.365.065v-.806a8.183,8.183,0,0,1-1.391.078H72.826c.195-.4.247-.52.4-.871l-.793-.2a6.119,6.119,0,0,1-1.43,2.522,2.1,2.1,0,0,1,.637.39,7.931,7.931,0,0,0,.819-1.183Zm2.119,4.654v4.316c0,.3-.1.377-.507.377a9,9,0,0,1-1.274-.117,2.406,2.406,0,0,1,.247.819c.3.013.624.026,1.014.026,1.04,0,1.313-.208,1.313-1.027V21.578a11.732,11.732,0,0,1,.065-1.443,12.444,12.444,0,0,1-1.378.052H73.255c-.559,0-.858-.013-1.17-.039.026.286.039.611.039,1.014v1.326c0,.39-.013.715-.039,1,.416-.026.793-.039,1.365-.039Zm-2.951-2.665h2.951v.754H72.865Zm0,1.313h2.951v.767H72.865Zm-5.083-1.911c-.585,0-.923-.013-1.287-.039a14.174,14.174,0,0,1,.052,1.43v5.954a9.717,9.717,0,0,1-.078,1.456h.962a7.462,7.462,0,0,1-.078-1.43V23.45h2.158c.6,0,.91.013,1.378.039a9.937,9.937,0,0,1-.039-1V21.162c0-.442.013-.754.039-1.014-.325.026-.637.039-1.17.039Zm-.429.6h2.756v.754H67.353Zm0,1.313h2.756v.767H67.353Zm6.474,3.159a10.413,10.413,0,0,1,.052-1.222,11.807,11.807,0,0,1-1.339.052H70.395a10.972,10.972,0,0,1-1.274-.052c.026.351.052.715.052,1.222v1.872a10.454,10.454,0,0,1-.052,1.17h.78v-.585H72.54a12.255,12.255,0,0,1,1.339.052,10.172,10.172,0,0,1-.052-1.209ZM69.9,24.7h3.185v.884H69.9Zm0,1.5h3.185v.9H69.9Zm14.092-1.625V25.8H80.08a8.746,8.746,0,0,1-1.313-.078v.91a9.845,9.845,0,0,1,1.352-.078h3.874v1.2a5.779,5.779,0,0,1-.078,1.222h.975a5.24,5.24,0,0,1-.091-1.222v-1.2h4.056a9.658,9.658,0,0,1,1.365.078v-.91a8.628,8.628,0,0,1-1.313.078H84.8V24.568h2.86c.468,0,.845.013,1.287.052a10.145,10.145,0,0,1-.052-1.274V21.019a11.045,11.045,0,0,1,.052-1.3,9.73,9.73,0,0,1-1.287.052h-.39a14.494,14.494,0,0,0,1.4-2.093l-.9-.338a10.564,10.564,0,0,1-1.417,2.431H81.315a9.753,9.753,0,0,1-1.274-.052,11.331,11.331,0,0,1,.052,1.3v2.366a11.248,11.248,0,0,1-.052,1.235,12.774,12.774,0,0,1,1.287-.052ZM84.8,21.76v-1.3h3.289v1.3Zm-.806,0H80.9v-1.3h3.094Zm.806,2.106v-1.43h3.289v1.43Zm-.806,0H80.9v-1.43h3.094Zm-1.768-4.524a11.13,11.13,0,0,0-1.352-1.859l-.741.351a6.929,6.929,0,0,1,1.313,1.885Zm3-.221a10.3,10.3,0,0,0-1.144-1.963l-.767.26a7.539,7.539,0,0,1,1.118,2.041Zm8.294-1.261a7.238,7.238,0,0,1-.182,1.04,21.507,21.507,0,0,0-.585,5.148,18.632,18.632,0,0,0,.338,3.679c.039.247.052.312.078.52l.936-.078v-.195A11.332,11.332,0,0,1,95.16,24.4l-.624-.3a12.078,12.078,0,0,0-.845,2.535c-.052-.689-.078-1.456-.078-2.47A19.218,19.218,0,0,1,94,20.1a18.471,18.471,0,0,1,.546-2.08ZM96.2,20.317a17.315,17.315,0,0,0,2.08.13,21.946,21.946,0,0,0,2.795-.169q.858-.117.9-.117l-.065-.923a13.949,13.949,0,0,1-3.484.351,8.83,8.83,0,0,1-2.21-.195Zm.949,2.535a3.591,3.591,0,0,0-1.131,2.418,1.838,1.838,0,0,0,.39,1.2,3.613,3.613,0,0,0,2.977.988,13.412,13.412,0,0,0,2.665-.26c.26-.039.286-.052.455-.065l-.13-1a8.556,8.556,0,0,1-2.99.455c-1.677,0-2.5-.468-2.5-1.43a3.02,3.02,0,0,1,.975-1.911ZM4.706,42.179a3.05,3.05,0,0,1-.234.9,3.249,3.249,0,0,1-1.807,1.677A7.753,7.753,0,0,1,.676,45.3a2.613,2.613,0,0,1,.455.78,6.363,6.363,0,0,0,3.328-1.534A3.821,3.821,0,0,0,5.6,42.179H7.189v2.613c0,.416.078.585.312.728a4.575,4.575,0,0,0,1.911.221c2.47,0,2.613-.117,2.912-2.444a3.932,3.932,0,0,1-.819-.351,4.344,4.344,0,0,1-.312,1.7c-.182.273-.481.325-1.716.325-1.326,0-1.456-.039-1.456-.442V42.179H9.152c.7,0,1.092.013,1.456.039a9.836,9.836,0,0,1-.065-1.365V36.446a17.123,17.123,0,0,1,.065-1.729,13.891,13.891,0,0,1-1.391.065H3.783a11.1,11.1,0,0,1-1.391-.065,16.936,16.936,0,0,1,.065,1.729v4.407a10.067,10.067,0,0,1-.065,1.365c.4-.026.741-.039,1.469-.039Zm-1.443-6.63H9.737v1.417H3.263Zm0,2.145H9.737v1.495H3.263Zm0,2.223H9.737v1.547H3.263Zm11.128-1.3a5.713,5.713,0,0,1,.936-.312,20.649,20.649,0,0,1,5.3-.923c1.768,0,2.847.884,2.847,2.34s-1,2.626-2.782,3.276a11.632,11.632,0,0,1-3.614.6,2.293,2.293,0,0,1,.4.962,11.227,11.227,0,0,0,4.3-.988,4.258,4.258,0,0,0,2.7-3.835c0-1.989-1.508-3.25-3.887-3.25a17.367,17.367,0,0,0-3.77.481,17.429,17.429,0,0,1-2.7.546Zm16.471-.1a1.285,1.285,0,0,1,.195-.013,1.869,1.869,0,0,1,.234.013c.468.026,1.209.052,1.573.052.572,0,1.326-.026,1.9-.078.026.377.026.663.026,1.027,0,2.08-.208,3.029-.871,3.874a5.33,5.33,0,0,1-1.989,1.495,3,3,0,0,1,.7.7,6.284,6.284,0,0,0,2.041-1.677c.767-1.04,1-2.106,1-4.576,0-.377,0-.585-.013-.936a12.4,12.4,0,0,0,1.417-.26,6.571,6.571,0,0,1,.689-.156l-.065-.936a6.861,6.861,0,0,1-2.067.546c-.065-1.807-.065-1.807-.078-2.106-.013-.234-.013-.3-.013-.39a3.055,3.055,0,0,1,.039-.442l-1,.013a25.07,25.07,0,0,1,.156,3.029c-.65.052-1.131.078-1.651.078a10.521,10.521,0,0,1-2.21-.169Zm-2.34-3.692a6.606,6.606,0,0,1-.117.9,26.716,26.716,0,0,0-.52,5,14.792,14.792,0,0,0,.481,3.848,3.457,3.457,0,0,1,.1.455l.9-.078a5.074,5.074,0,0,1,.364-1.651,24.658,24.658,0,0,1,.962-2.275l-.663-.312a14.209,14.209,0,0,0-1.092,2.756,4.526,4.526,0,0,0-.078-.7c-.052-.442-.1-1.4-.1-2.119a22.48,22.48,0,0,1,.793-5.668ZM41.743,36.29a6.4,6.4,0,0,1,.7-.065c1.976-.065,3.536-.156,3.952-.234a.5.5,0,0,1,.117-.013L46.54,36l-.052.052-.052.052-.182.182c-.9.884-2.951,2.691-4.342,3.8a14.483,14.483,0,0,1-1.82,1.326l.585.832a8.343,8.343,0,0,1,5.473-2.223c1.755,0,2.795.741,2.795,1.989,0,1.105-.715,1.9-2.08,2.275a3.721,3.721,0,0,0-.6-1.248,2.618,2.618,0,0,0-2.145-1.066,1.689,1.689,0,0,0-1.885,1.521c0,1.2,1.053,1.872,2.886,1.872,2.886,0,4.771-1.339,4.771-3.367,0-1.664-1.391-2.73-3.562-2.73a6.587,6.587,0,0,0-3.185.806l-.026-.039A33.358,33.358,0,0,0,47.4,36.342a2.4,2.4,0,0,1,.663-.546l-.546-.715a1.329,1.329,0,0,1-.624.143c-1.17.091-2.9.169-3.978.169a6,6,0,0,1-1.222-.078Zm4.264,8.229a4.681,4.681,0,0,1-.949.091,3.322,3.322,0,0,1-1.456-.3.887.887,0,0,1-.52-.793c0-.494.4-.806,1.053-.806C45.071,42.712,45.721,43.336,46.007,44.519Zm8.658-7.943a3.053,3.053,0,0,1,.429.039,25.429,25.429,0,0,0,2.86.169,10.275,10.275,0,0,0,1.963-.169c-.13.078-.156.078-.247.13-.156.078-.182.091-.325.169a20.141,20.141,0,0,0-1.729,1.079l.663.533a18.515,18.515,0,0,1,3.276-1.976l-.065-.858a14.217,14.217,0,0,1-3.289.273,14.863,14.863,0,0,1-3.458-.312Zm.78,3.328a3.416,3.416,0,0,0-1.495,2.509,2.071,2.071,0,0,0,1.482,1.963,9.171,9.171,0,0,0,2.99.4,21.206,21.206,0,0,0,3.51-.3,3.637,3.637,0,0,1,.442-.065l-.117-1.066a12.332,12.332,0,0,1-3.9.494,8.278,8.278,0,0,1-2.379-.26c-.728-.247-1.1-.676-1.1-1.274s.39-1.209,1.235-1.911ZM68.64,34.795a4.349,4.349,0,0,1,.221.819,26.481,26.481,0,0,0,.949,3.64,8.1,8.1,0,0,0-1.7,1.053,2.812,2.812,0,0,0-1.157,2.21,2.158,2.158,0,0,0,1.612,2.132A8.844,8.844,0,0,0,71.448,45a26.079,26.079,0,0,0,2.873-.169,6.738,6.738,0,0,1,.962-.078l-.1-1.079a12.907,12.907,0,0,1-3.718.442c-2.548,0-3.549-.455-3.549-1.638,0-1.079.962-1.937,3.185-2.821A29.9,29.9,0,0,1,75.01,38.4l-.39-.988a7.03,7.03,0,0,1-.832.338c-2.015.7-2.379.845-3.146,1.157a22.611,22.611,0,0,1-.975-4.3Zm18.434,0a9.964,9.964,0,0,1,1.339,2.067l.65-.39a9.869,9.869,0,0,0-1.339-2.015Zm-8.372,4a16.923,16.923,0,0,1,2.613-.468,19.184,19.184,0,0,1-2.782,6.474l.884.52a25.249,25.249,0,0,0,2.808-7.072,7.465,7.465,0,0,1,.936-.065c1.209,0,1.6.442,1.6,1.82a10.063,10.063,0,0,1-.546,3.614q-.254.624-.741.624a4.859,4.859,0,0,1-1.937-.6,2.4,2.4,0,0,1,.039.507,2.906,2.906,0,0,1-.026.468,4.891,4.891,0,0,0,1.963.507,1.358,1.358,0,0,0,1.274-.611,8.961,8.961,0,0,0,.871-4.472,2.624,2.624,0,0,0-.637-2.093,2.484,2.484,0,0,0-1.872-.546,7.577,7.577,0,0,0-.767.039c.1-.559.221-1.157.273-1.482a7.992,7.992,0,0,1,.247-1.248l-1.04-.117v.169a16.057,16.057,0,0,1-.39,2.756,26.668,26.668,0,0,1-2.873.338Zm9.854-4.693a9.415,9.415,0,0,1,1.326,2.041l.65-.377a10.441,10.441,0,0,0-1.339-2.015ZM86.372,37.07a10.978,10.978,0,0,1,2.652,4.667l.832-.468a11.9,11.9,0,0,0-2.717-4.6ZM96.59,38.721H93.418V36.277a6.674,6.674,0,0,1,.052-.962H92.5a9.214,9.214,0,0,1,.065,1V38.89c0,.221-.013.416-.026.663.273-.013.572-.026.806-.026h3.25v4.758H92.885v-2.4a6.534,6.534,0,0,1,.065-1.1h-.988a7.218,7.218,0,0,1,.065,1.157v2.86a6.833,6.833,0,0,1-.078,1.092h.936V45.1h8.45v.78h.936a6.5,6.5,0,0,1-.078-1.092V41.854a7.218,7.218,0,0,1,.065-1.157h-.988a6.894,6.894,0,0,1,.065,1.118v2.47H97.461V39.527h3.5c.247,0,.546.013.806.026-.013-.221-.026-.4-.026-.663V36.3a6.412,6.412,0,0,1,.065-.988h-.975a7.075,7.075,0,0,1,.052.949v2.457H97.461V35.432a5.9,5.9,0,0,1,.091-1.183H96.5a5.257,5.257,0,0,1,.091,1.183Zm13.793,1.092V36.407h3.341a10.221,10.221,0,0,1,1.417.078v-.91a7.324,7.324,0,0,1-1.443.091h-3.315v-.429a4.875,4.875,0,0,1,.078-1.079H109.5a6.663,6.663,0,0,1,.078,1.079v.429H106.5a9.268,9.268,0,0,1-1.417-.091v.91a11.8,11.8,0,0,1,1.391-.078h3.107v3.406h-3.77a8.934,8.934,0,0,1-1.417-.091v.923a13.177,13.177,0,0,1,1.43-.078h3.393a11.629,11.629,0,0,1-1.326,1.521,13.525,13.525,0,0,1-3.614,2.535,3.264,3.264,0,0,1,.585.754,14.99,14.99,0,0,0,2.327-1.586,10.535,10.535,0,0,0,2.444-2.8c-.039.78-.052,1-.052,1.391v2.327a7.059,7.059,0,0,1-.091,1.261h.988a6.963,6.963,0,0,1-.091-1.261V42.387c0-.338-.013-.689-.052-1.4a11.776,11.776,0,0,0,1.833,2.184,14.171,14.171,0,0,0,3.276,2.21,3.692,3.692,0,0,1,.559-.806,12.042,12.042,0,0,1-3.51-2.2,13.249,13.249,0,0,1-1.716-1.807h3.614a10.99,10.99,0,0,1,1.456.078v-.923a7,7,0,0,1-1.43.091h-1.924a19.3,19.3,0,0,0,1.443-2.652l-.806-.325a12.74,12.74,0,0,1-1.547,2.977Zm-4.238-2.652a12.356,12.356,0,0,1,1.261,2.444l.728-.377a15.863,15.863,0,0,0-1.287-2.405Zm21.84,6.8a4.444,4.444,0,0,1-.442-.3,11.379,11.379,0,0,0-3.627-1.9c-.052-1.261-.052-1.261-.078-1.989.962-.065,1.989-.169,2.886-.312.455-.065.585-.078.754-.091l-.052-.9a15.691,15.691,0,0,1-3.6.533c-.013-.689-.013-.689-.026-1.755a27.005,27.005,0,0,0,3.016-.312c.676-.091.676-.091.9-.1l-.065-.884a18.326,18.326,0,0,1-3.848.533,14.509,14.509,0,0,1,.091-1.833h-1a10.179,10.179,0,0,1,.065,1.872c-.429,0-.871.013-1.131.013a16.15,16.15,0,0,1-3.328-.26l-.013.884a1.062,1.062,0,0,1,.182-.013,1.577,1.577,0,0,1,.234.013c1.17.091,2.223.13,3.172.13.3,0,.507,0,.884-.013l.026,1.781c-.364.013-.819.013-1.157.013a15.955,15.955,0,0,1-2.977-.208l-.013.858h.1c.078,0,.182,0,.325.013.806.065,1.417.091,2.2.091.416,0,1.066-.013,1.534-.026.013.338.013.585.026.754.013.377.013.65.026.767a1.036,1.036,0,0,0,.013.143c0,.117,0,.117.013.156a5.782,5.782,0,0,0-1.17-.1,5.663,5.663,0,0,0-1.352.13c-1.144.26-1.82.936-1.82,1.794a1.7,1.7,0,0,0,.7,1.365,3.386,3.386,0,0,0,2.015.52,2.617,2.617,0,0,0,2.2-.819,2.257,2.257,0,0,0,.325-1.417,3.737,3.737,0,0,0-.026-.468c.351.143.65.273.871.39a10.461,10.461,0,0,1,2.652,1.859Zm-4.9-1.053a1.7,1.7,0,0,1-.26,1.17,1.878,1.878,0,0,1-1.43.429c-1.131,0-1.781-.39-1.781-1.079s.845-1.157,2.132-1.157a4.772,4.772,0,0,1,1.326.143ZM136.8,36.342c-.884.026-1.9.052-3.146.1-2.093.078-2.093.078-2.47.078-.195,0-.286,0-.52-.013l.039.949c.871-.143,3.5-.273,6.11-.325v.676c0,.156.013.286.013.338,0,.481,0,.533.013.715a2,2,0,0,0-1.508-.585,2.163,2.163,0,0,0-2.3,2.145,2.173,2.173,0,0,0,3.77,1.352,1.82,1.82,0,0,0,.351-.637,3.367,3.367,0,0,1-1.456,2.743,6.663,6.663,0,0,1-2.106.975,2.854,2.854,0,0,1,.572.819,8.269,8.269,0,0,0,2.054-1.053,4.184,4.184,0,0,0,1.742-3.393,3.725,3.725,0,0,0-.312-1.534V37.122c1.053-.026,1.2-.026,1.391-.026a23.106,23.106,0,0,1,2.483.065v-.923c-.429.052-1.43.078-3.887.091v-.143a10.761,10.761,0,0,1,.065-1.625h-.975a4.382,4.382,0,0,1,.052.754Zm-.039,3.8a1.457,1.457,0,0,1-1.521,1.534,1.256,1.256,0,0,1-1.339-1.287,1.376,1.376,0,0,1,1.443-1.365,1.663,1.663,0,0,1,.871.208A.941.941,0,0,1,136.76,40.138Zm7.215,1.807a1.95,1.95,0,1,0,1.95,1.95A1.947,1.947,0,0,0,143.975,41.945Zm0,.741a1.209,1.209,0,1,1-1.209,1.209A1.215,1.215,0,0,1,143.975,42.686Z" transform="translate(420 718.145)" fill="#1b1311"/>
    <g id="パス_106520" data-name="パス 106520" transform="translate(480.5 626.5)" fill="#f8bc04">
      <path d="M0,0H1V1H0Z" stroke="none"/>
      <path d="M 0 0 L 1 0 L 1 1 L 0 1 L 0 0 Z" stroke="none" fill="#707070"/>
    </g>
    <g id="グループ_61999" data-name="グループ 61999" transform="translate(16.379 440.646)">
      <g id="グループ_3528" data-name="グループ 3528" transform="translate(463.621 165)">
        <path id="パス_51327" data-name="パス 51327" d="M21.1,10.7a21.89,21.89,0,0,1,37.632,0L76.651,40.653c8.817,14.738-1.726,33.52-18.816,33.52H22c-17.09,0-27.633-18.783-18.816-33.52Z" transform="matrix(0.961, 0.276, -0.276, 0.961, 23.258, 0)" fill="#ffc2b9"/>
        <path id="パス_51326" data-name="パス 51326" d="M21.318,10.742a22.191,22.191,0,0,1,38.02,0L77.44,40.8A22.191,22.191,0,0,1,58.43,74.44h-36.2A22.191,22.191,0,0,1,3.216,40.8Z" transform="translate(77.532 102.497) rotate(-164)" fill="#ff8977" opacity="0.6"/>
      </g>
      <g id="グループ_20117" data-name="グループ 20117" transform="translate(496.301 202.347)">
        <g id="グループ_20115" data-name="グループ 20115" transform="translate(0 0)">
          <g id="グループ_2750" data-name="グループ 2750" transform="translate(0 0)" clip-path="url(#clip-path)">
            <path id="パス_5678" data-name="パス 5678" d="M17.641,35.9H11.949a.949.949,0,0,1,0-1.9h5.693a.949.949,0,0,1,0,1.9" transform="translate(-5.634 -17.973)"/>
            <path id="パス_5679" data-name="パス 5679" d="M16.129,14.231H1.9a1.9,1.9,0,0,1-1.9-1.9V1.9A1.9,1.9,0,0,1,1.9,0H16.129a1.9,1.9,0,0,1,1.9,1.9V12.334a1.9,1.9,0,0,1-1.9,1.9M1.9,1.9h0V12.334H16.129V1.9Z" transform="translate(0.148 -0.102)"/>
            <path id="パス_5680" data-name="パス 5680" d="M20.231,19.9H6.949a.949.949,0,0,1,0-1.9H20.231a.949.949,0,0,1,0,1.9" transform="translate(-3.006 -9.563)"/>
            <path id="パス_5681" data-name="パス 5681" d="M17.949,32.744A.949.949,0,0,1,17,31.8V28.949a.949.949,0,0,1,1.9,0V31.8a.949.949,0,0,1-.949.949" transform="translate(-8.788 -14.819)"/>
          </g>
        </g>
        <g id="グループ_20116" data-name="グループ 20116" transform="translate(12.99 9.201)">
          <g id="グループ_2752" data-name="グループ 2752" transform="translate(0 0)" clip-path="url(#clip-path-2)">
            <path id="パス_5682" data-name="パス 5682" d="M14.293,22.583a8.292,8.292,0,1,1,5.863-2.428,1.036,1.036,0,0,1-1.466-1.466,6.219,6.219,0,1,0-4.4,1.821,6.361,6.361,0,0,0,1.63-.214,1.036,1.036,0,0,1,.533,2,8.429,8.429,0,0,1-2.163.284" transform="translate(-2.774 -2.79)"/>
            <path id="パス_5683" data-name="パス 5683" d="M35.134,36.171a1.032,1.032,0,0,1-.733-.3l-4.2-4.2A1.036,1.036,0,0,1,31.669,30.2l4.2,4.2a1.036,1.036,0,0,1-.733,1.769" transform="translate(-14.288 -14.304)"/>
          </g>
        </g>
      </g>
    </g>
  </g>
</svg>
