<svg xmlns="http://www.w3.org/2000/svg" xmlns:xlink="http://www.w3.org/1999/xlink" width="273" height="213" viewBox="0 0 273 213">
  <defs>
    <filter id="長方形_1818" x="0" y="0" width="273" height="213" filterUnits="userSpaceOnUse">
      <feOffset dy="3" input="SourceAlpha"/>
      <feGaussianBlur stdDeviation="3" result="blur"/>
      <feFlood flood-opacity="0.2"/>
      <feComposite operator="in" in2="blur"/>
      <feComposite in="SourceGraphic"/>
    </filter>
    <clipPath id="clip-path">
      <rect id="長方形_1350" data-name="長方形 1350" width="56.834" height="55.179" fill="#f8bc04"/>
    </clipPath>
  </defs>
  <g id="グループ_20275" data-name="グループ 20275" transform="translate(-9258 1579)">
    <g transform="matrix(1, 0, 0, 1, 9258, -1579)" filter="url(#長方形_1818)">
      <rect id="長方形_1818-2" data-name="長方形 1818" width="255" height="195" transform="translate(9 6)" fill="#fff"/>
    </g>
    <g id="グループ_20274" data-name="グループ 20274" transform="translate(45)">
      <text id="カリビトチャット" transform="translate(9270 -1535)" font-size="20" font-family="HiraginoSans-W5, Hiragino Sans"><tspan x="0" y="0">カリビトチャット</tspan></text>
      <g id="グループ" transform="translate(7209.832 1143)">
        <text id="条件交渉でチャットができます_" data-name="条件交渉でチャットができます。" transform="translate(2050.6 -2571)" font-size="12" font-family="HiraginoSans-W3, Hiragino Sans"><tspan x="0" y="0">条件交渉でチャットができます。</tspan></text>
        <text id="また_PDFや画像ファイルを送信する" data-name="また、PDFや画像ファイルを送信する" transform="translate(2038.168 -2554)" font-size="12" font-family="HiraginoSans-W3, Hiragino Sans"><tspan x="0" y="0">また、PDFや画像ファイルを送信する</tspan></text>
        <text id="事も可能です_" data-name="事も可能です。" transform="translate(2098.6 -2537)" font-size="12" font-family="HiraginoSans-W3, Hiragino Sans"><tspan x="0" y="0">事も可能です。</tspan></text>
      </g>
      <g id="グループ_20167" data-name="グループ 20167" transform="translate(9321 -1513)">
        <g id="グループ_2748" data-name="グループ 2748" clip-path="url(#clip-path)">
          <path id="パス_5672" data-name="パス 5672" d="M1.623,47.629A1.664,1.664,0,0,1,1,47.506a1.625,1.625,0,0,1-1-1.5V19.488A7.368,7.368,0,0,1,7.288,12.12h21.28A7.35,7.35,0,0,1,35.9,19.493v13.53a7.373,7.373,0,0,1-7.331,7.319H9.6L2.77,47.155a1.632,1.632,0,0,1-1.147.474M7.3,15.366a4.114,4.114,0,0,0-4.057,4.117V42.1L7.779,37.57a1.627,1.627,0,0,1,1.147-.47H28.563a4.117,4.117,0,0,0,4.09-4.083V19.488a4.1,4.1,0,0,0-4.095-4.122Z" transform="translate(0 7.55)" fill="#f8bc04"/>
          <path id="パス_5673" data-name="パス 5673" d="M47.188,35.509a1.623,1.623,0,0,1-1.146-.472l-6.86-6.815H30.927a1.623,1.623,0,1,1,0-3.246h8.926A1.627,1.627,0,0,1,41,25.449l4.568,4.538V7.352a4.114,4.114,0,0,0-4.095-4.106H20.214a4.112,4.112,0,0,0-4.088,4.106V16.83a1.623,1.623,0,1,1-3.246,0V7.352A7.364,7.364,0,0,1,20.211,0H41.476a7.366,7.366,0,0,1,7.336,7.352V33.886a1.627,1.627,0,0,1-1.623,1.623" transform="translate(8.023)" fill="#f8bc04"/>
          <path id="パス_5674" data-name="パス 5674" d="M19.479,23.126H11.543a1.623,1.623,0,0,1,0-3.246h7.936a1.623,1.623,0,1,1,0,3.246" transform="translate(6.179 12.383)" fill="#f8bc04"/>
          <path id="パス_5675" data-name="パス 5675" d="M8.111,20.06A1.331,1.331,0,1,1,6.78,21.391,1.331,1.331,0,0,1,8.111,20.06" transform="translate(4.223 12.495)" fill="#f8bc04"/>
          <path id="パス_5676" data-name="パス 5676" d="M32.009,11.066H24.073a1.623,1.623,0,1,1,0-3.246h7.936a1.623,1.623,0,1,1,0,3.246" transform="translate(13.984 4.871)" fill="#f8bc04"/>
          <path id="パス_5677" data-name="パス 5677" d="M20.641,8.01A1.331,1.331,0,1,1,19.31,9.341,1.331,1.331,0,0,1,20.641,8.01" transform="translate(12.028 4.989)" fill="#f8bc04"/>
        </g>
      </g>
    </g>
  </g>
</svg>
