<svg xmlns="http://www.w3.org/2000/svg" xmlns:xlink="http://www.w3.org/1999/xlink" width="273" height="213" viewBox="0 0 273 213">
  <defs>
    <filter id="長方形_1818" x="0" y="0" width="273" height="213" filterUnits="userSpaceOnUse">
      <feOffset dy="3" input="SourceAlpha"/>
      <feGaussianBlur stdDeviation="3" result="blur"/>
      <feFlood flood-opacity="0.2"/>
      <feComposite operator="in" in2="blur"/>
      <feComposite in="SourceGraphic"/>
    </filter>
  </defs>
  <g id="グループ_20273" data-name="グループ 20273" transform="translate(-8559 1579)">
    <g transform="matrix(1, 0, 0, 1, 8559, -1579)" filter="url(#長方形_1818)">
      <rect id="長方形_1818-2" data-name="長方形 1818" width="255" height="195" transform="translate(9 6)" fill="#fff"/>
    </g>
    <g id="グループ_20272" data-name="グループ 20272" transform="translate(50)">
      <text id="カリビト評価" transform="translate(8586 -1535)" font-size="20" font-family="HiraginoSans-W5, Hiragino Sans"><tspan x="0" y="0">カリビト評価</tspan></text>
      <text id="商品に対してオンラインで見積書を発" transform="translate(8544 -1428)" font-size="12" font-family="HiraginoSans-W3, Hiragino Sans"><tspan x="0" y="0">商品に対してオンラインで見積書を発</tspan></text>
      <text id="行することができます_" data-name="行することができます。" transform="translate(8580 -1411)" font-size="12" font-family="HiraginoSans-W3, Hiragino Sans"><tspan x="0" y="0">行することができます。</tspan></text>
      <text id="トラブル回避の手段となります_" data-name="トラブル回避の手段となります。" transform="translate(8557 -1394)" font-size="12" font-family="HiraginoSans-W3, Hiragino Sans"><tspan x="0" y="0">トラブル回避の手段となります。</tspan></text>
      <path id="パス_64707" data-name="パス 64707" d="M256.853,153.7a2.853,2.853,0,0,1-2.776-3.486l3.447-15.2-11.7-10.261a2.852,2.852,0,0,1,1.614-4.988l15.48-1.4,6.119-14.323a2.851,2.851,0,0,1,5.242,0l6.119,14.326,15.478,1.4a2.853,2.853,0,0,1,1.619,4.988l-11.7,10.258,3.447,15.2A2.848,2.848,0,0,1,285,153.293l-13.347-7.975-13.347,7.98a2.875,2.875,0,0,1-1.462.4m14.809-11.822a2.868,2.868,0,0,1,1.462.4l12.6,7.535-3.257-14.344a2.851,2.851,0,0,1,.9-2.776L294.408,123,279.8,121.679a2.85,2.85,0,0,1-2.369-1.726l-5.768-13.517-5.776,13.517a2.84,2.84,0,0,1-2.362,1.721L248.909,123l11.046,9.689a2.845,2.845,0,0,1,.9,2.779L257.6,149.812l12.6-7.533a2.875,2.875,0,0,1,1.462-.4m-8.86-23.234Zm17.715-.008v0" transform="translate(8374.652 -1613.265)" fill="#f8bc04" stroke="#f8bc04" stroke-linecap="round" stroke-linejoin="round" stroke-width="1"/>
    </g>
  </g>
</svg>
