<svg xmlns="http://www.w3.org/2000/svg" xmlns:xlink="http://www.w3.org/1999/xlink" width="273" height="213" viewBox="0 0 273 213">
  <defs>
    <filter id="長方形_1818" x="0" y="0" width="273" height="213" filterUnits="userSpaceOnUse">
      <feOffset dy="3" input="SourceAlpha"/>
      <feGaussianBlur stdDeviation="3" result="blur"/>
      <feFlood flood-opacity="0.2"/>
      <feComposite operator="in" in2="blur"/>
      <feComposite in="SourceGraphic"/>
    </filter>
  </defs>
  <g id="グループ_20248" data-name="グループ 20248" transform="translate(-4728 1579)">
    <g transform="matrix(1, 0, 0, 1, 4728, -1579)" filter="url(#長方形_1818)">
      <rect id="長方形_1818-2" data-name="長方形 1818" width="255" height="195" transform="translate(9 6)" fill="#fff"/>
    </g>
    <g id="グループ_20247" data-name="グループ 20247" transform="translate(52)">
      <g id="グループ_20246" data-name="グループ 20246">
        <text id="知恵袋機能" transform="translate(4762 -1535)" font-size="20" font-family="HiraginoSans-W5, Hiragino Sans"><tspan x="0" y="0">知恵袋機能</tspan></text>
        <text id="アプリを使っていく中で" transform="translate(4746 -1428)" font-size="12" font-family="HiraginoSans-W3, Hiragino Sans"><tspan x="0" y="0">アプリを使っていく中で</tspan></text>
        <text id="使い方や疑問に思ったことをみんなで" transform="translate(4710 -1411)" font-size="12" font-family="HiraginoSans-W3, Hiragino Sans"><tspan x="0" y="0">使い方や疑問に思ったことをみんなで</tspan></text>
        <text id="解決していく機能です_" data-name="解決していく機能です。" transform="translate(4746.78 -1394)" font-size="12" font-family="HiraginoSans-W3, Hiragino Sans"><tspan x="0" y="0">解決していく機能です。</tspan></text>
        <path id="パス_51349" data-name="パス 51349" d="M62.583,154.418h-7.56c-1.766,0-3.783-1.512-3.783-4.538v-5.295a8.746,8.746,0,0,0-3.278-6.552,17.432,17.432,0,0,1-6.807-14.119,17.944,17.944,0,0,1,17.4-17.394,17.716,17.716,0,0,1,12.6,5.041,17.948,17.948,0,0,1,5.295,12.6,16.952,16.952,0,0,1-6.55,13.618,9.206,9.206,0,0,0-3.529,7.058v5.8a3.879,3.879,0,0,1-3.788,3.781ZM58.8,109.041a15.46,15.46,0,0,0-15.125,14.873,14.817,14.817,0,0,0,5.8,12.1,10.987,10.987,0,0,1,4.286,8.57v5.295c0,.5,0,2.017,1.26,2.017h7.561a1.191,1.191,0,0,0,1.26-1.26v-5.8a12.254,12.254,0,0,1,4.538-9.072,14.7,14.7,0,0,0,5.546-11.6,15.061,15.061,0,0,0-4.538-10.838A14.847,14.847,0,0,0,58.8,109.041" transform="translate(4753.449 -1609.913)" fill="#f8bc04" stroke="#f8bc04" stroke-width="1"/>
        <path id="パス_51350" data-name="パス 51350" d="M58.389,121.674h-12.6a1.26,1.26,0,1,1,0-2.52h12.6a1.26,1.26,0,0,1,0,2.52" transform="translate(4760.162 -1584.733)" fill="#f8bc04" stroke="#f8bc04" stroke-width="1"/>
        <path id="パス_51351" data-name="パス 51351" d="M47.89,109.873a1.189,1.189,0,0,1-1.26-1.26v-5.044a1.26,1.26,0,0,1,2.52,0v5.044a1.189,1.189,0,0,1-1.26,1.26" transform="translate(4764.359 -1618.309)" fill="#f8bc04" stroke="#f8bc04" stroke-width="1"/>
        <path id="パス_51352" data-name="パス 51352" d="M53.617,111.139a1.52,1.52,0,0,1-1.009-.251,1.222,1.222,0,0,1,0-1.766l3.529-3.529a1.249,1.249,0,1,1,1.766,1.766l-3.529,3.529A2.56,2.56,0,0,1,53.617,111.139Z" transform="translate(4775.523 -1612.518)" fill="#f8bc04" stroke="#f8bc04" stroke-width="1"/>
        <path id="パス_51353" data-name="パス 51353" d="M60.934,114.515H55.893a1.26,1.26,0,0,1,0-2.52h5.041a1.26,1.26,0,1,1,0,2.52" transform="translate(4780.309 -1599.003)" fill="#f8bc04" stroke="#f8bc04" stroke-width="1"/>
        <path id="パス_51354" data-name="パス 51354" d="M57.146,123.6a1.519,1.519,0,0,1-1.009-.251l-3.529-3.529a1.249,1.249,0,1,1,1.766-1.766l3.529,3.529a1.222,1.222,0,0,1,0,1.766c0,.251-.254.251-.757.251" transform="translate(4775.523 -1587.671)" fill="#f8bc04" stroke="#f8bc04" stroke-width="1"/>
        <path id="パス_51355" data-name="パス 51355" d="M41.152,123.6a1.52,1.52,0,0,1-1.009-.251,1.222,1.222,0,0,1,0-1.766l3.529-3.529a1.249,1.249,0,1,1,1.766,1.766l-3.529,3.529a.933.933,0,0,1-.757.251" transform="translate(4750.68 -1587.671)" fill="#f8bc04" stroke="#f8bc04" stroke-width="1"/>
        <path id="パス_51356" data-name="パス 51356" d="M43.248,114.515H38.207a1.26,1.26,0,0,1,0-2.52h5.041a1.26,1.26,0,1,1,0,2.52" transform="translate(4745.053 -1599.003)" fill="#f8bc04" stroke="#f8bc04" stroke-width="1"/>
        <path id="パス_51357" data-name="パス 51357" d="M44.681,111.308a1.52,1.52,0,0,1-1.009-.251l-3.529-3.783a1.248,1.248,0,0,1,1.766-1.763l3.529,3.529a1.222,1.222,0,0,1,0,1.766c-.254.251-.506.5-.757.5" transform="translate(4750.68 -1612.687)" fill="#f8bc04" stroke="#f8bc04" stroke-width="1"/>
        <path id="パス_51358" data-name="パス 51358" d="M57.974,121.23a1.189,1.189,0,0,1-1.26-1.26,8.934,8.934,0,0,0-8.824-8.824,1.26,1.26,0,1,1,0-2.52A11.3,11.3,0,0,1,59.234,119.97a1.189,1.189,0,0,1-1.26,1.26" transform="translate(4764.359 -1605.718)" fill="#f8bc04" stroke="#f8bc04" stroke-width="1"/>
      </g>
    </g>
  </g>
</svg>
