<svg xmlns="http://www.w3.org/2000/svg" xmlns:xlink="http://www.w3.org/1999/xlink" width="273" height="213" viewBox="0 0 273 213">
  <defs>
    <filter id="長方形_1818" x="0" y="0" width="273" height="213" filterUnits="userSpaceOnUse">
      <feOffset dy="3" input="SourceAlpha"/>
      <feGaussianBlur stdDeviation="3" result="blur"/>
      <feFlood flood-opacity="0.2"/>
      <feComposite operator="in" in2="blur"/>
      <feComposite in="SourceGraphic"/>
    </filter>
    <clipPath id="clip-path">
      <rect id="長方形_1380" data-name="長方形 1380" width="63" height="63" transform="translate(-0.352 -0.352)" fill="#f8bc04"/>
    </clipPath>
  </defs>
  <g id="グループ_20271" data-name="グループ 20271" transform="translate(-8222 1579)">
    <g transform="matrix(1, 0, 0, 1, 8222, -1579)" filter="url(#長方形_1818)">
      <rect id="長方形_1818-2" data-name="長方形 1818" width="255" height="195" transform="translate(9 6)" fill="#fff"/>
    </g>
    <g id="グループ_20270" data-name="グループ 20270" transform="translate(41)">
      <text id="豊富なマイページ機能" transform="translate(8220 -1535)" font-size="20" font-family="HiraginoSans-W5, Hiragino Sans"><tspan x="0" y="0">豊富なマイページ機能</tspan></text>
      <text id="多種多様な管理機能でわかり易く管理" transform="translate(8216 -1428)" font-size="12" font-family="HiraginoSans-W3, Hiragino Sans"><tspan x="0" y="0">多種多様な管理機能でわかり易く管理</tspan></text>
      <text id="できます_" data-name="できます。" transform="translate(8288 -1411)" font-size="12" font-family="HiraginoSans-W3, Hiragino Sans"><tspan x="0" y="0">できます。</tspan></text>
      <g id="グループ_2820" data-name="グループ 2820" transform="translate(8286.352 -1516.648)" clip-path="url(#clip-path)">
        <path id="パス_5730" data-name="パス 5730" d="M25.729,28.9a7.229,7.229,0,1,1,7.229-7.229A7.229,7.229,0,0,1,25.729,28.9m0-10.514a3.286,3.286,0,1,0,3.286,3.286,3.286,3.286,0,0,0-3.286-3.286" transform="translate(5.814 4.538)" fill="#f8bc04"/>
        <path id="パス_5731" data-name="パス 5731" d="M35.872,35.643A1.972,1.972,0,0,1,33.9,33.672a7.229,7.229,0,1,0-14.458,0,1.971,1.971,0,1,1-3.942,0,11.172,11.172,0,1,1,22.344,0,1.972,1.972,0,0,1-1.972,1.971" transform="translate(4.872 7.072)" fill="#f8bc04"/>
        <path id="パス_5732" data-name="パス 5732" d="M30.129,53.5a1.965,1.965,0,0,1-1.394-.577l-4.679-4.68H9.1a4.6,4.6,0,0,1-4.6-4.6V12.1A4.605,4.605,0,0,1,9.1,7.5H51.158a4.6,4.6,0,0,1,4.6,4.6V43.643a4.6,4.6,0,0,1-4.6,4.6H36.2l-4.679,4.68a1.965,1.965,0,0,1-1.394.577M9.1,11.443a.657.657,0,0,0-.657.657V43.643A.658.658,0,0,0,9.1,44.3H24.872a1.975,1.975,0,0,1,1.394.577l3.863,3.864,3.863-3.864a1.977,1.977,0,0,1,1.394-.577H51.158a.659.659,0,0,0,.657-.657V12.1a.658.658,0,0,0-.657-.657Z" transform="translate(1.414 2.357)" fill="#f8bc04"/>
      </g>
    </g>
  </g>
</svg>
