<svg xmlns="http://www.w3.org/2000/svg" xmlns:xlink="http://www.w3.org/1999/xlink" width="273" height="213" viewBox="0 0 273 213">
  <defs>
    <filter id="長方形_1818" x="0" y="0" width="273" height="213" filterUnits="userSpaceOnUse">
      <feOffset dy="3" input="SourceAlpha"/>
      <feGaussianBlur stdDeviation="3" result="blur"/>
      <feFlood flood-opacity="0.2"/>
      <feComposite operator="in" in2="blur"/>
      <feComposite in="SourceGraphic"/>
    </filter>
    <clipPath id="clip-path">
      <rect id="長方形_1377" data-name="長方形 1377" width="42.876" height="42.876" fill="#f8bc04"/>
    </clipPath>
    <clipPath id="clip-path-2">
      <rect id="長方形_1378" data-name="長方形 1378" width="47.696" height="47.696" fill="#f8bc04"/>
    </clipPath>
  </defs>
  <g id="グループ_20269" data-name="グループ 20269" transform="translate(-7873 1579)">
    <g transform="matrix(1, 0, 0, 1, 7873, -1579)" filter="url(#長方形_1818)">
      <rect id="長方形_1818-2" data-name="長方形 1818" width="255" height="195" transform="translate(9 6)" fill="#fff"/>
    </g>
    <g id="グループ_20268" data-name="グループ 20268" transform="translate(43)">
      <text id="安心安全なシステム" transform="translate(7877 -1535)" font-size="20" font-family="HiraginoSans-W5, Hiragino Sans"><tspan x="0" y="0">安心安全なシステム</tspan></text>
      <text id="決済システム_信頼のもとに進める機" data-name="決済システム、信頼のもとに進める機" transform="translate(7865 -1428)" font-size="12" font-family="HiraginoSans-W3, Hiragino Sans"><tspan x="0" y="0">決済システム、信頼のもとに進める機</tspan></text>
      <text id="能_本人確認機能" data-name="能、本人確認機能" transform="translate(7918 -1411)" font-size="12" font-family="HiraginoSans-W3, Hiragino Sans"><tspan x="0" y="0">能、本人確認機能</tspan></text>
      <text id="など安心して出品_契約できます_" data-name="など安心して出品・契約できます。" transform="translate(7871 -1394)" font-size="12" font-family="HiraginoSans-W3, Hiragino Sans"><tspan x="0" y="0">など安心して出品・契約できます。</tspan></text>
      <g id="グループ_20267" data-name="グループ 20267" transform="translate(-59.34)">
        <g id="グループ_2815" data-name="グループ 2815" transform="translate(7978.34 -1509.96) rotate(-11)">
          <g id="グループ_2814" data-name="グループ 2814" clip-path="url(#clip-path)">
            <path id="パス_5719" data-name="パス 5719" d="M33.839,24.934H3.562A3.566,3.566,0,0,1,0,21.372V3.562A3.566,3.566,0,0,1,3.562,0H33.839A3.566,3.566,0,0,1,37.4,3.562v17.81a3.566,3.566,0,0,1-3.562,3.562M3.562,3.562h0v17.81H33.839V3.562Z" transform="translate(2.671 8.905)" fill="#f8bc04"/>
            <path id="パス_5720" data-name="パス 5720" d="M28.5,3.562H1.781A1.781,1.781,0,1,1,1.781,0H28.5a1.781,1.781,0,0,1,0,3.562" transform="translate(2.671 16.029)" fill="#f8bc04"/>
            <path id="パス_5721" data-name="パス 5721" d="M3.562,3.562H1.781A1.781,1.781,0,1,1,1.781,0H3.562a1.781,1.781,0,0,1,0,3.562" transform="translate(27.605 23.153)" fill="#f8bc04"/>
          </g>
        </g>
        <g id="グループ_2817" data-name="グループ 2817" transform="translate(8025.319 -1500.808) rotate(7)">
          <g id="グループ_2816" data-name="グループ 2816" clip-path="url(#clip-path-2)">
            <path id="パス_5722" data-name="パス 5722" d="M10.369,35.8a6.1,6.1,0,0,1-3.738-1.287,3.984,3.984,0,0,1-.9-.9,6.08,6.08,0,0,1,1.064-8.5c.112-.09.235-.179.362-.264L3.311,3.975H1.987A1.988,1.988,0,1,1,1.987,0H3.418a3.858,3.858,0,0,1,3.8,3.251l3.858,20.962A3.805,3.805,0,0,1,9.4,28.13a1.654,1.654,0,0,0-.145.1,2.108,2.108,0,0,0-.369,2.97q.036.045.069.092a1.241,1.241,0,0,1,.1.075,2.1,2.1,0,0,0,3.269-.877,3.907,3.907,0,0,1,3.62-2.664h7.763a3.918,3.918,0,0,1,3.663,2.666,2.106,2.106,0,0,0,3.27.875c.033-.027.066-.052.1-.076s.048-.067.073-.1A2.078,2.078,0,0,0,29.8,27.913a1.988,1.988,0,1,1,1.171-3.8,6.052,6.052,0,0,1,2.995,9.5,3.969,3.969,0,0,1-.9.9,6.081,6.081,0,0,1-9.431-2.667l-.018-.049H15.988a5.652,5.652,0,0,1-3.1,3.453,6.056,6.056,0,0,1-2.514.549m-3.2-10.855ZM3.3,3.927Z" transform="translate(3.398 5.376)" fill="#f8bc04"/>
            <path id="パス_5723" data-name="パス 5723" d="M11.267,16.883a1.987,1.987,0,0,1-.525-3.9l17.1-4.694,2.1-4.311-27.953.06h0a1.988,1.988,0,1,1,0-3.975L30.134,0A3.919,3.919,0,0,1,32.85,1.1a3.847,3.847,0,0,1,.75,4.451l-2.2,4.512A3.83,3.83,0,0,1,28.961,12.1L11.794,16.812a1.971,1.971,0,0,1-.527.072m16.55-8.546ZM30.153,3.975Z" transform="translate(8.029 14.329)" fill="#f8bc04"/>
          </g>
        </g>
      </g>
    </g>
  </g>
</svg>
