<svg xmlns="http://www.w3.org/2000/svg" xmlns:xlink="http://www.w3.org/1999/xlink" width="273" height="213" viewBox="0 0 273 213">
  <defs>
    <filter id="長方形_1818" x="0" y="0" width="273" height="213" filterUnits="userSpaceOnUse">
      <feOffset dy="3" input="SourceAlpha"/>
      <feGaussianBlur stdDeviation="3" result="blur"/>
      <feFlood flood-opacity="0.2"/>
      <feComposite operator="in" in2="blur"/>
      <feComposite in="SourceGraphic"/>
    </filter>
    <clipPath id="clip-path">
      <rect id="長方形_1366" data-name="長方形 1366" width="35.919" height="35.919" fill="#f8bc04"/>
    </clipPath>
  </defs>
  <g id="グループ_20266" data-name="グループ 20266" transform="translate(-7524 1579)">
    <g transform="matrix(1, 0, 0, 1, 7524, -1579)" filter="url(#長方形_1818)">
      <rect id="長方形_1818-2" data-name="長方形 1818" width="255" height="195" transform="translate(9 6)" fill="#fff"/>
    </g>
    <g id="グループ_20265" data-name="グループ 20265" transform="translate(44)">
      <g id="グループ" transform="translate(4027.6 868)">
        <text id="作品集をアピールできる" transform="translate(3506.4 -2411)" font-size="15" font-family="HiraginoSans-W5, Hiragino Sans"><tspan x="0" y="0">作品集をアピールできる</tspan></text>
        <text id="ポートフォリオ機能" transform="translate(3521.1 -2391)" font-size="15" font-family="HiraginoSans-W5, Hiragino Sans"><tspan x="0" y="0">ポートフォリオ機能</tspan></text>
      </g>
      <g id="グループ-2" data-name="グループ" transform="translate(4135.832 868)">
        <text id="条件交渉でチャットができます_" data-name="条件交渉でチャットができます。" transform="translate(3390.6 -2296)" font-size="12" font-family="HiraginoSans-W3, Hiragino Sans"><tspan x="0" y="0">条件交渉でチャットができます。</tspan></text>
        <text id="また_PDFや画像ファイルを送信する" data-name="また、PDFや画像ファイルを送信する" transform="translate(3378.168 -2279)" font-size="12" font-family="HiraginoSans-W3, Hiragino Sans"><tspan x="0" y="0">また、PDFや画像ファイルを送信する</tspan></text>
        <text id="事も可能です_" data-name="事も可能です。" transform="translate(3438.6 -2262)" font-size="12" font-family="HiraginoSans-W3, Hiragino Sans"><tspan x="0" y="0">事も可能です。</tspan></text>
      </g>
      <g id="グループ_20173" data-name="グループ 20173" transform="translate(6689.9 -3135.954)">
        <g id="グループ_2793" data-name="グループ 2793" transform="translate(927.546 1645.197) rotate(8)">
          <g id="グループ_2792" data-name="グループ 2792" clip-path="url(#clip-path)">
            <path id="パス_5698" data-name="パス 5698" d="M10.476,2.993H1.5A1.5,1.5,0,1,1,1.5,0h8.98a1.5,1.5,0,1,1,0,2.993" transform="translate(11.973 20.204)" fill="#f8bc04"/>
            <path id="パス_5699" data-name="パス 5699" d="M5.986,2.993H1.5A1.5,1.5,0,1,1,1.5,0H5.99a1.5,1.5,0,1,1,0,2.993" transform="translate(11.973 26.191)" fill="#f8bc04"/>
            <path id="パス_5700" data-name="パス 5700" d="M10.476,9.728H1.5A1.5,1.5,0,0,1,0,8.231V1.5A1.5,1.5,0,0,1,1.5,0h8.98a1.5,1.5,0,0,1,1.5,1.5V8.231a1.5,1.5,0,0,1-1.5,1.5m-7.487-3H8.98V2.993H2.993Z" transform="translate(11.973 7.483)" fill="#f8bc04"/>
            <path id="パス_5701" data-name="パス 5701" d="M23.946,35.919H2.993A3,3,0,0,1,0,32.925V2.993A3,3,0,0,1,2.993,0H23.946a1.5,1.5,0,1,1,0,2.993H2.993V32.925H23.946V6.615a1.5,1.5,0,0,1,2.993,0v26.31a3,3,0,0,1-2.993,2.993" transform="translate(4.49)" fill="#f8bc04"/>
          </g>
        </g>
        <g id="グループ_2795" data-name="グループ 2795" transform="matrix(0.985, -0.174, 0.174, 0.985, 889.1, 1638.192)">
          <g id="グループ_2794" data-name="グループ 2794" clip-path="url(#clip-path)">
            <path id="パス_5702" data-name="パス 5702" d="M15.715,21.7H2.918A2.922,2.922,0,0,1,0,18.782V1.5a1.5,1.5,0,0,1,2.993,0V18.708H15.715a1.5,1.5,0,1,1,0,2.993" transform="translate(2.993 14.218)" fill="#f8bc04"/>
            <path id="パス_5703" data-name="パス 5703" d="M20.953,29.932H2.993A3,3,0,0,1,0,26.939V2.993A3,3,0,0,1,2.993,0h17.96a1.5,1.5,0,1,1,0,2.993H2.993V26.939h17.96V6.331a1.5,1.5,0,0,1,2.993,0V26.939a3,3,0,0,1-2.993,2.993" transform="translate(8.98)" fill="#f8bc04"/>
            <path id="パス_5704" data-name="パス 5704" d="M7.483,2.993H1.5A1.5,1.5,0,1,1,1.5,0H7.483a1.5,1.5,0,1,1,0,2.993" transform="translate(16.463 7.483)" fill="#f8bc04"/>
            <path id="パス_5705" data-name="パス 5705" d="M7.483,2.993H1.5A1.5,1.5,0,1,1,1.5,0H7.483a1.5,1.5,0,1,1,0,2.993" transform="translate(16.463 13.469)" fill="#f8bc04"/>
            <path id="パス_5706" data-name="パス 5706" d="M2.993,2.993H1.5A1.5,1.5,0,1,1,1.5,0H3A1.5,1.5,0,1,1,3,2.993" transform="translate(16.463 19.456)" fill="#f8bc04"/>
          </g>
        </g>
      </g>
    </g>
  </g>
</svg>
