<svg xmlns="http://www.w3.org/2000/svg" xmlns:xlink="http://www.w3.org/1999/xlink" width="273" height="213" viewBox="0 0 273 213">
  <defs>
    <filter id="長方形_1818" x="0" y="0" width="273" height="213" filterUnits="userSpaceOnUse">
      <feOffset dy="3" input="SourceAlpha"/>
      <feGaussianBlur stdDeviation="3" result="blur"/>
      <feFlood flood-opacity="0.2"/>
      <feComposite operator="in" in2="blur"/>
      <feComposite in="SourceGraphic"/>
    </filter>
    <clipPath id="clip-path">
      <rect id="長方形_1395" data-name="長方形 1395" width="54" height="54" fill="#f8bc04"/>
    </clipPath>
  </defs>
  <g id="グループ_20259" data-name="グループ 20259" transform="translate(-6483 1579)">
    <g transform="matrix(1, 0, 0, 1, 6483, -1579)" filter="url(#長方形_1818)">
      <rect id="長方形_1818-2" data-name="長方形 1818" width="255" height="195" transform="translate(9 6)" fill="#fff"/>
    </g>
    <g id="グループ_20258" data-name="グループ 20258" transform="translate(45)">
      <text id="手数料が安い理由" transform="translate(6494 -1535)" font-size="20" font-family="HiraginoSans-W5, Hiragino Sans"><tspan x="0" y="0">手数料が安い理由</tspan></text>
      <text id="カリビトが手数料が安い理由は_宣伝広告を独自に行うことで大幅な経費削減が達成できているからその分還元_" data-name="カリビトが手数料が安い理由は、宣伝広告を独自に行うことで大幅な経費削減が達成できているからその分還元。" transform="translate(6472 -1428)" font-size="12" font-family="HiraginoSans-W3, Hiragino Sans"><tspan x="0" y="0">カリビトが手数料が安い理由は、宣伝</tspan><tspan x="0" y="17">広告を独自に行うことで大幅な経費削</tspan><tspan x="0" y="34">減が達成できているからその分還元。</tspan></text>
      <g id="グループ_2837" data-name="グループ 2837" transform="translate(6547 -1512)" clip-path="url(#clip-path)">
        <path id="パス_5733" data-name="パス 5733" d="M51.987,44.521H2.26A2.26,2.26,0,1,1,2.26,40H51.987a2.26,2.26,0,0,1,0,4.521" transform="translate(-0.541 4.665)" fill="#f8bc04"/>
        <path id="パス_5734" data-name="パス 5734" d="M13.3,40.254a2.261,2.261,0,0,1-2.26-2.26V16.521H6.521V37.993a2.261,2.261,0,1,1-4.521,0V14.26A2.261,2.261,0,0,1,4.26,12H13.3a2.261,2.261,0,0,1,2.26,2.26V37.993a2.261,2.261,0,0,1-2.26,2.26" transform="translate(-0.281 1.021)" fill="#f8bc04"/>
        <path id="パス_5735" data-name="パス 5735" d="M29.3,39.343a2.261,2.261,0,0,1-2.26-2.26V23.521H22.521V37.082a2.26,2.26,0,0,1-4.521,0V21.26A2.261,2.261,0,0,1,20.26,19H29.3a2.261,2.261,0,0,1,2.26,2.26V37.082a2.261,2.261,0,0,1-2.26,2.26" transform="translate(1.802 1.932)" fill="#f8bc04"/>
        <path id="パス_5736" data-name="パス 5736" d="M45.3,41.425a2.261,2.261,0,0,1-2.26-2.26V7.521H38.521V39.165a2.26,2.26,0,0,1-4.521,0V5.26A2.261,2.261,0,0,1,36.26,3H45.3a2.261,2.261,0,0,1,2.26,2.26v33.9a2.261,2.261,0,0,1-2.26,2.26" transform="translate(3.884 -0.151)" fill="#f8bc04"/>
      </g>
    </g>
  </g>
</svg>
