<svg xmlns="http://www.w3.org/2000/svg" xmlns:xlink="http://www.w3.org/1999/xlink" width="273" height="213" viewBox="0 0 273 213">
  <defs>
    <filter id="長方形_1818" x="0" y="0" width="273" height="213" filterUnits="userSpaceOnUse">
      <feOffset dy="3" input="SourceAlpha"/>
      <feGaussianBlur stdDeviation="3" result="blur"/>
      <feFlood flood-opacity="0.2"/>
      <feComposite operator="in" in2="blur"/>
      <feComposite in="SourceGraphic"/>
    </filter>
    <clipPath id="clip-path">
      <rect id="長方形_1396" data-name="長方形 1396" width="59" height="59" transform="translate(0.171 0.171)" fill="#f8bc04"/>
    </clipPath>
  </defs>
  <g id="グループ_20261" data-name="グループ 20261" transform="translate(-6828 1579)">
    <g transform="matrix(1, 0, 0, 1, 6828, -1579)" filter="url(#長方形_1818)">
      <rect id="長方形_1818-2" data-name="長方形 1818" width="255" height="195" transform="translate(9 6)" fill="#fff"/>
    </g>
    <g id="グループ_20260" data-name="グループ 20260" transform="translate(46)">
      <text id="高齢者でも見やすく_" data-name="高齢者でも見やすく、" transform="translate(6843 -1543)" font-size="15" font-family="HiraginoSans-W5, Hiragino Sans"><tspan x="0" y="0">高齢者でも見やすく、</tspan></text>
      <text id="操作し易いデザイン" transform="translate(6851 -1523)" font-size="15" font-family="HiraginoSans-W5, Hiragino Sans"><tspan x="0" y="0">操作し易いデザイン</tspan></text>
      <text id="カリビトはシンプルで使いやすく_見" data-name="カリビトはシンプルで使いやすく、見" transform="translate(6817 -1428)" font-size="12" font-family="HiraginoSans-W3, Hiragino Sans"><tspan x="0" y="0">カリビトはシンプルで使いやすく、見</tspan></text>
      <text id="やすい画面が特徴です_" data-name="やすい画面が特徴です。" transform="translate(6853 -1411)" font-size="12" font-family="HiraginoSans-W3, Hiragino Sans"><tspan x="0" y="0">やすい画面が特徴です。</tspan></text>
      <g id="グループ_2839" data-name="グループ 2839" transform="translate(6888.829 -1508.17)" clip-path="url(#clip-path)">
        <path id="パス_5737" data-name="パス 5737" d="M20.274,52.048A17.774,17.774,0,1,1,38.048,34.274,17.774,17.774,0,0,1,20.274,52.048m0-31.87a14.1,14.1,0,1,0,14.1,14.1,14.1,14.1,0,0,0-14.1-14.1" transform="translate(0.564 4.161)" fill="#f8bc04"/>
        <path id="パス_5738" data-name="パス 5738" d="M34.274,52.048A17.774,17.774,0,1,1,52.048,34.274,17.774,17.774,0,0,1,34.274,52.048m0-31.87a14.1,14.1,0,1,0,14.1,14.1,14.1,14.1,0,0,0-14.1-14.1" transform="translate(3.725 4.161)" fill="#f8bc04"/>
        <path id="パス_5739" data-name="パス 5739" d="M27.274,38.048A17.774,17.774,0,1,1,45.048,20.274,17.774,17.774,0,0,1,27.274,38.048m0-31.87a14.1,14.1,0,1,0,14.1,14.1,14.1,14.1,0,0,0-14.1-14.1" transform="translate(2.145 1)" fill="#f8bc04"/>
      </g>
    </g>
  </g>
</svg>
