<svg xmlns="http://www.w3.org/2000/svg" width="59.839" height="60.894" viewBox="0 0 59.839 60.894">
  <path id="パス_64700" data-name="パス 64700" d="M344.813,487.7a4.211,4.211,0,0,0-2.6-1.793,4.233,4.233,0,0,0-2.822-6.1,4.131,4.131,0,0,0,.4-1.128,4.233,4.233,0,0,0-3.223-4.975,4.236,4.236,0,0,0-6.091-5.5l-4.217,2.793a26.2,26.2,0,0,0-7.12-2.409,19.692,19.692,0,0,0-2.717-3.29l-1.744-1.688a3.818,3.818,0,0,0-5.841,4.847c.047.07.09.14.134.209a26.571,26.571,0,1,0,30.287,35.068.913.913,0,0,0-1.718-.619,24.778,24.778,0,0,1-31.092,15.08l7.431-4.923h0l6.175-4.092h0a2.492,2.492,0,0,0,.7-3.453l-.081-.122,1.2-.8a4.072,4.072,0,0,1,2.9-.625,5.881,5.881,0,0,0,4.2-.91l9.953-6.588a25.139,25.139,0,0,1-.337,2.566.913.913,0,0,0,.729,1.064.852.852,0,0,0,.168.014.911.911,0,0,0,.9-.747,26.714,26.714,0,0,0,.436-4.153l2.8-1.857a4.241,4.241,0,0,0,1.191-5.873Zm-20.331-15.53-2.79,1.848-.552-1.482a19.181,19.181,0,0,0-.782-1.813A24.436,24.436,0,0,1,324.482,472.166ZM295.558,478.5a24.753,24.753,0,0,1,14.283-8.146,11.294,11.294,0,0,1,.57,6.835l-2.226,9.622a2.488,2.488,0,0,0-3.188-.372l-6.309,4.176h0l-9.1,6.027c-.049-.642-.076-1.29-.076-1.936A24.738,24.738,0,0,1,295.558,478.5Zm23.772,28.733a.659.659,0,0,1-.285.421h0l-5.426,3.592-10.067-15.013a.913.913,0,1,0-1.517,1.017l10.061,15-7.742,5.129a24.824,24.824,0,0,1-14.528-18.744l9.111-6.013,1.046,1.563a.912.912,0,0,0,.761.407.88.88,0,0,0,.506-.157.909.909,0,0,0,.25-1.267l-1.04-1.552,5.545-3.659a.642.642,0,0,1,.5-.1.672.672,0,0,1,.424.282l12.307,18.584A.672.672,0,0,1,319.33,507.231Zm24.312-16.716a2.393,2.393,0,0,1-1.029,1.531l-3.206,2.122-.006,0-11.441,7.576a4.066,4.066,0,0,1-2.9.628,5.9,5.9,0,0,0-4.2.907l-1.2.8-10.081-15.222,2.607-11.255a13.132,13.132,0,0,0-.962-8.614l-.038-.081a13.286,13.286,0,0,0-.837-1.462,1.991,1.991,0,0,1,3.046-2.528l1.744,1.691a17.815,17.815,0,0,1,4.284,6.562l.95,2.56.006.015.006.017.02.041a.54.54,0,0,0,.064.113.911.911,0,0,0,1.264.259l9.741-6.452a2.41,2.41,0,1,1,2.662,4.019l-.846.558v0l-1.886,1.247-.009.006-.029.023a.912.912,0,0,0,1.046,1.494l1.886-1.25a2.41,2.41,0,1,1,2.662,4.019l-2.735,1.81a.915.915,0,0,0,.506,1.677.89.89,0,0,0,.5-.154l.424-.279,1.462-.971a2.41,2.41,0,1,1,2.662,4.019l-1.366.9-.02.015-1.345.892a.912.912,0,0,0,.506,1.674.923.923,0,0,0,.5-.151l.421-.279h0l1.462-.971a2.409,2.409,0,0,1,3.339.68A2.366,2.366,0,0,1,343.642,490.515Z" transform="translate(-286.688 -461.379)" fill="#f8bc04" stroke="#f8bc04" stroke-linecap="round" stroke-linejoin="round" stroke-width="2"/>
</svg>
